M48
;DRILL file {Pcbnew (2013-jul-07)-stable} date Wed 27 Aug 2014 01:35:14 PM EDT
;FORMAT={-:-/ absolute / inch / decimal}
FMAT,2
INCH,TZ
T1C0.025
T2C0.035
T3C0.040
T4C0.063
T5C0.106
T6C0.124
T7C0.128
T8C0.130
%
G90
G05
M72
T1
X5.145Y-3.383
X5.2218Y-3.5101
X5.597Y-4.39
X5.6374Y-3.7424
X6.0817Y-3.629
X6.1359Y-4.1049
X6.2238Y-4.7289
X6.2459Y-3.232
X6.2699Y-4.4401
X6.2741Y-4.6052
X6.2941Y-4.0694
X6.2991Y-3.7978
X6.3464Y-4.2851
X6.4135Y-4.6175
X6.4157Y-3.7282
X6.4415Y-3.4502
X6.6295Y-3.7662
X6.6741Y-4.0974
X6.675Y-3.3295
X6.6794Y-4.2115
X6.698Y-4.614
X6.7181Y-3.5729
X6.7625Y-3.4337
X6.8079Y-3.7996
X6.8128Y-4.096
X6.8184Y-4.7486
X7.3035Y-4.0515
X7.5154Y-4.3993
X7.8467Y-4.5868
T2
X4.64Y-3.33
X4.64Y-3.43
X4.64Y-3.77
X4.64Y-3.87
X4.64Y-4.33
X4.64Y-4.43
X4.64Y-4.77
X4.64Y-4.87
X4.8Y-3.425
X4.8Y-3.525
X4.8Y-3.625
X4.8Y-3.725
X4.8Y-4.425
X4.8Y-4.525
X4.8Y-4.625
X4.8Y-4.725
X4.9Y-3.475
X4.9Y-3.575
X4.9Y-3.675
X4.9Y-3.775
X4.9Y-4.475
X4.9Y-4.575
X4.9Y-4.675
X4.9Y-4.775
X5.045Y-3.425
X5.045Y-3.525
X5.045Y-3.625
X5.045Y-3.725
X5.045Y-4.425
X5.045Y-4.525
X5.045Y-4.625
X5.045Y-4.725
X5.145Y-3.475
X5.145Y-3.575
X5.145Y-3.675
X5.145Y-3.775
X5.145Y-4.475
X5.145Y-4.575
X5.145Y-4.675
X5.145Y-4.775
X5.3Y-3.33
X5.3Y-3.43
X5.3Y-3.77
X5.3Y-3.87
X5.3Y-4.33
X5.3Y-4.43
X5.3Y-4.77
X5.3Y-4.87
T3
X5.24Y-3.15
X5.34Y-3.15
X5.44Y-3.15
X5.54Y-3.15
X5.6Y-5.05
X5.64Y-3.15
X5.7Y-5.05
X5.74Y-3.15
X5.8Y-5.05
X5.84Y-3.15
X5.9Y-5.05
X5.94Y-3.15
X6.Y-5.05
X6.04Y-3.15
X6.1Y-5.05
X6.14Y-3.15
X6.2Y-5.05
X6.3Y-3.15
X6.3Y-5.05
X6.4Y-3.15
X6.5Y-3.15
X6.5Y-5.05
X6.6Y-3.15
X6.6Y-5.05
X6.7Y-3.15
X6.7Y-5.05
X6.8Y-3.15
X6.8Y-5.05
X6.9Y-3.15
X6.9Y-5.05
X7.Y-3.15
X7.Y-5.05
X7.1Y-5.05
X7.2Y-3.15
X7.2Y-5.05
X7.3Y-3.15
X7.4Y-3.15
X7.4Y-5.05
X7.5Y-3.15
X7.5Y-5.05
X7.6Y-3.15
X7.6Y-5.05
X7.7Y-3.15
X7.7Y-5.05
X7.8Y-3.15
X7.8Y-5.05
X7.9Y-3.15
X7.9Y-5.05
X8.Y-5.05
X8.1Y-5.05
X8.2Y-3.15
X8.2Y-3.25
X8.2Y-3.35
X8.2Y-3.45
X8.2Y-3.55
X8.2Y-3.65
X8.2Y-3.75
X8.2Y-3.85
X8.2Y-3.95
X8.2Y-4.05
X8.2Y-4.15
X8.2Y-4.25
X8.2Y-4.35
X8.2Y-4.45
X8.2Y-4.55
X8.2Y-4.65
X8.2Y-4.75
X8.2Y-4.85
X8.3Y-3.15
X8.3Y-3.25
X8.3Y-3.35
X8.3Y-3.45
X8.3Y-3.55
X8.3Y-3.65
X8.3Y-3.75
X8.3Y-3.85
X8.3Y-3.95
X8.3Y-4.05
X8.3Y-4.15
X8.3Y-4.25
X8.3Y-4.35
X8.3Y-4.45
X8.3Y-4.55
X8.3Y-4.65
X8.3Y-4.75
X8.3Y-4.85
T4
X8.832Y-4.1
T5
X8.714Y-4.1
X8.753Y-3.923
X8.753Y-4.277
T6
X8.478Y-4.1
T7
X4.475Y-3.35
X4.475Y-3.85
X4.475Y-4.35
X4.475Y-4.85
T8
X5.05Y-5.05
X5.1Y-3.15
X8.05Y-3.15
X8.3Y-5.05
T0
M30
