G04 (created by PCBNEW (2013-jul-07)-stable) date Wed 27 Aug 2014 01:35:07 PM EDT*
%MOIN*%
G04 Gerber Fmt 3.4, Leading zero omitted, Abs format*
%FSLAX34Y34*%
G01*
G70*
G90*
G04 APERTURE LIST*
%ADD10C,0.00590551*%
%ADD11C,0.009*%
%ADD12C,0.155*%
%ADD13O,0.06X0.1*%
%ADD14C,0.06*%
%ADD15C,0.076*%
%ADD16C,0.14*%
%ADD17C,0.16*%
%ADD18R,0.05X0.1*%
%ADD19R,0.047X0.047*%
%ADD20C,0.15*%
%ADD21R,0.1X0.05*%
%ADD22C,0.035*%
%ADD23C,0.036*%
%ADD24C,0.016*%
%ADD25C,0.024*%
%ADD26C,0.008*%
G04 APERTURE END LIST*
G54D10*
G54D11*
X89500Y-51500D02*
X43500Y-51500D01*
X43500Y-30500D02*
X89500Y-30500D01*
X43500Y-30500D02*
X43500Y-51500D01*
X89500Y-51500D02*
X89500Y-30500D01*
G54D12*
X50500Y-50500D03*
X51000Y-31500D03*
X83000Y-50500D03*
X80500Y-31500D03*
G54D13*
X56000Y-50500D03*
X57000Y-50500D03*
X58000Y-50500D03*
X59000Y-50500D03*
X60000Y-50500D03*
X61000Y-50500D03*
X62000Y-50500D03*
X63000Y-50500D03*
X65000Y-50500D03*
X66000Y-50500D03*
X67000Y-50500D03*
X68000Y-50500D03*
X69000Y-50500D03*
X70000Y-50500D03*
X71000Y-50500D03*
X72000Y-50500D03*
X74000Y-50500D03*
X75000Y-50500D03*
X76000Y-50500D03*
X77000Y-50500D03*
X78000Y-50500D03*
X79000Y-50500D03*
X80000Y-50500D03*
X81000Y-50500D03*
X52400Y-31500D03*
X53400Y-31500D03*
X54400Y-31500D03*
X55400Y-31500D03*
X56400Y-31500D03*
X57400Y-31500D03*
X58400Y-31500D03*
X59400Y-31500D03*
X60400Y-31500D03*
X61400Y-31500D03*
X63000Y-31500D03*
X70000Y-31500D03*
X69000Y-31500D03*
X68000Y-31500D03*
X67000Y-31500D03*
X66000Y-31500D03*
X65000Y-31500D03*
X64000Y-31500D03*
X72000Y-31500D03*
X73000Y-31500D03*
X74000Y-31500D03*
X75000Y-31500D03*
X76000Y-31500D03*
X77000Y-31500D03*
X78000Y-31500D03*
X79000Y-31500D03*
G54D14*
X82000Y-31500D03*
X83000Y-31500D03*
X82000Y-32500D03*
X83000Y-32500D03*
X82000Y-33500D03*
X83000Y-33500D03*
X82000Y-34500D03*
X83000Y-34500D03*
X82000Y-35500D03*
X83000Y-35500D03*
X82000Y-36500D03*
X83000Y-36500D03*
X82000Y-37500D03*
X83000Y-37500D03*
X82000Y-38500D03*
X83000Y-38500D03*
X82000Y-39500D03*
X83000Y-39500D03*
X82000Y-40500D03*
X83000Y-40500D03*
X82000Y-41500D03*
X83000Y-41500D03*
X82000Y-42500D03*
X83000Y-42500D03*
X82000Y-43500D03*
X83000Y-43500D03*
X82000Y-44500D03*
X83000Y-44500D03*
X82000Y-45500D03*
X83000Y-45500D03*
X82000Y-46500D03*
X83000Y-46500D03*
X82000Y-47500D03*
X83000Y-47500D03*
X82000Y-48500D03*
X83000Y-48500D03*
G54D15*
X88320Y-41000D03*
G54D16*
X87140Y-41000D03*
G54D17*
X84780Y-41000D03*
G54D16*
X87530Y-39230D03*
X87530Y-42770D03*
G54D18*
X84150Y-35750D03*
X85350Y-35750D03*
G54D19*
X56750Y-38085D03*
X56750Y-38915D03*
X56750Y-46835D03*
X56750Y-47665D03*
X59250Y-46835D03*
X59250Y-47665D03*
X61750Y-46835D03*
X61750Y-47665D03*
X64250Y-46835D03*
X64250Y-47665D03*
X66750Y-46835D03*
X66750Y-47665D03*
X69250Y-46835D03*
X69250Y-47665D03*
X71750Y-46835D03*
X71750Y-47665D03*
X74250Y-46835D03*
X74250Y-47665D03*
X61750Y-38085D03*
X61750Y-38915D03*
X64250Y-38085D03*
X64250Y-38915D03*
X66750Y-38085D03*
X66750Y-38915D03*
X69250Y-38085D03*
X69250Y-38915D03*
X59250Y-38085D03*
X59250Y-38915D03*
X74250Y-38085D03*
X74250Y-38915D03*
X86835Y-35750D03*
X87665Y-35750D03*
X71750Y-38085D03*
X71750Y-38915D03*
G54D20*
X44750Y-43500D03*
X44750Y-48500D03*
G54D14*
X46400Y-43300D03*
X46400Y-44300D03*
X46400Y-47700D03*
X46400Y-48700D03*
X48000Y-44250D03*
X48000Y-45250D03*
X48000Y-46250D03*
X48000Y-47250D03*
X49000Y-44750D03*
X49000Y-45750D03*
X49000Y-46750D03*
X49000Y-47750D03*
X50450Y-44250D03*
X50450Y-45250D03*
X51450Y-44750D03*
X51450Y-45750D03*
X50450Y-46250D03*
X51450Y-46750D03*
X50450Y-47250D03*
X51450Y-47750D03*
X53000Y-43300D03*
X53000Y-44300D03*
X53000Y-47700D03*
X53000Y-48700D03*
G54D20*
X44750Y-33500D03*
X44750Y-38500D03*
G54D14*
X46400Y-33300D03*
X46400Y-34300D03*
X46400Y-37700D03*
X46400Y-38700D03*
X48000Y-34250D03*
X48000Y-35250D03*
X48000Y-36250D03*
X48000Y-37250D03*
X49000Y-34750D03*
X49000Y-35750D03*
X49000Y-36750D03*
X49000Y-37750D03*
X50450Y-34250D03*
X50450Y-35250D03*
X51450Y-34750D03*
X51450Y-35750D03*
X50450Y-36250D03*
X51450Y-36750D03*
X50450Y-37250D03*
X51450Y-37750D03*
X53000Y-33300D03*
X53000Y-34300D03*
X53000Y-37700D03*
X53000Y-38700D03*
G54D21*
X71750Y-35150D03*
X71750Y-36350D03*
X74250Y-35150D03*
X74250Y-36350D03*
X66750Y-35150D03*
X66750Y-36350D03*
X69250Y-35150D03*
X69250Y-36350D03*
X61750Y-35150D03*
X61750Y-36350D03*
X64250Y-35150D03*
X64250Y-36350D03*
X56750Y-35150D03*
X56750Y-36350D03*
X59250Y-35150D03*
X59250Y-36350D03*
X71750Y-43900D03*
X71750Y-45100D03*
X74250Y-43900D03*
X74250Y-45100D03*
X66750Y-43900D03*
X66750Y-45100D03*
X69250Y-43900D03*
X69250Y-45100D03*
X61750Y-43900D03*
X61750Y-45100D03*
X64250Y-43900D03*
X64250Y-45100D03*
X56750Y-43900D03*
X56750Y-45100D03*
X59250Y-43900D03*
X59250Y-45100D03*
G54D22*
X67625Y-34336D03*
X64415Y-34502D03*
X62741Y-46051D03*
X66750Y-33295D03*
X67180Y-35728D03*
X68184Y-47485D03*
X66980Y-46140D03*
X64135Y-46175D03*
X62238Y-47289D03*
X62699Y-44400D03*
X63464Y-42851D03*
X68078Y-37996D03*
X66294Y-37662D03*
X64156Y-37281D03*
X62991Y-37978D03*
X60817Y-36289D03*
X56373Y-37424D03*
X52217Y-35101D03*
X66741Y-40974D03*
X66794Y-42114D03*
X68127Y-40959D03*
X61358Y-41048D03*
X73034Y-40514D03*
X62941Y-40693D03*
X62459Y-32319D03*
X78466Y-45867D03*
X51450Y-33829D03*
X55969Y-43900D03*
X75153Y-43993D03*
G54D23*
X64581Y-34336D02*
X67625Y-34336D01*
X64415Y-34502D02*
X64581Y-34336D01*
G54D24*
X81007Y-45507D02*
X82000Y-46500D01*
X78237Y-45507D02*
X81007Y-45507D01*
X75659Y-48084D02*
X78237Y-45507D01*
X71444Y-48084D02*
X75659Y-48084D01*
X70500Y-47140D02*
X71444Y-48084D01*
X70500Y-45330D02*
X70500Y-47140D01*
X69838Y-44669D02*
X70500Y-45330D01*
X63657Y-44669D02*
X69838Y-44669D01*
X62741Y-45586D02*
X63657Y-44669D01*
X62741Y-46051D02*
X62741Y-45586D01*
G54D25*
X74987Y-38177D02*
X74250Y-38915D01*
X74987Y-34817D02*
X74987Y-38177D01*
X73465Y-33295D02*
X74987Y-34817D01*
X66750Y-33295D02*
X73465Y-33295D01*
X66311Y-32856D02*
X66750Y-33295D01*
X66212Y-32856D02*
X66311Y-32856D01*
X66116Y-32759D02*
X66212Y-32856D01*
X50990Y-32759D02*
X66116Y-32759D01*
X49000Y-34750D02*
X50990Y-32759D01*
X67180Y-35879D02*
X67180Y-35728D01*
X69842Y-35879D02*
X67180Y-35879D01*
X69999Y-36036D02*
X69842Y-35879D01*
X69999Y-37164D02*
X69999Y-36036D01*
X71750Y-38915D02*
X69999Y-37164D01*
X49520Y-36270D02*
X49000Y-35750D01*
X49520Y-37551D02*
X49520Y-36270D01*
X51700Y-39732D02*
X49520Y-37551D01*
X62228Y-39732D02*
X51700Y-39732D01*
X62350Y-39610D02*
X62228Y-39732D01*
X64335Y-39610D02*
X62350Y-39610D01*
X64970Y-38976D02*
X64335Y-39610D01*
X64970Y-37041D02*
X64970Y-38976D01*
X66131Y-35879D02*
X64970Y-37041D01*
X67180Y-35879D02*
X66131Y-35879D01*
X68615Y-47485D02*
X68794Y-47665D01*
X68184Y-47485D02*
X68615Y-47485D01*
X69250Y-47665D02*
X68794Y-47665D01*
X64383Y-49576D02*
X66294Y-47665D01*
X50983Y-49576D02*
X64383Y-49576D01*
X49157Y-47750D02*
X50983Y-49576D01*
X49000Y-47750D02*
X49157Y-47750D01*
X66522Y-47665D02*
X66294Y-47665D01*
X66522Y-47665D02*
X66750Y-47665D01*
X67205Y-46365D02*
X66980Y-46140D01*
X67205Y-47209D02*
X67205Y-46365D01*
X66750Y-47665D02*
X67205Y-47209D01*
X64250Y-47665D02*
X63794Y-47665D01*
X62227Y-49232D02*
X63794Y-47665D01*
X51654Y-49232D02*
X62227Y-49232D01*
X50450Y-48027D02*
X51654Y-49232D01*
X50450Y-47250D02*
X50450Y-48027D01*
X64109Y-46175D02*
X64135Y-46175D01*
X63794Y-46489D02*
X64109Y-46175D01*
X63794Y-47665D02*
X63794Y-46489D01*
X61750Y-47665D02*
X62205Y-47665D01*
X62205Y-47322D02*
X62238Y-47289D01*
X62205Y-47665D02*
X62205Y-47322D01*
X61750Y-47665D02*
X61294Y-47665D01*
X50450Y-46500D02*
X50450Y-46250D01*
X50972Y-47022D02*
X50450Y-46500D01*
X50972Y-47491D02*
X50972Y-47022D01*
X50913Y-47551D02*
X50972Y-47491D01*
X50913Y-47994D02*
X50913Y-47551D01*
X51196Y-48277D02*
X50913Y-47994D01*
X51686Y-48277D02*
X51196Y-48277D01*
X52784Y-47179D02*
X51686Y-48277D01*
X53215Y-47179D02*
X52784Y-47179D01*
X54503Y-48467D02*
X53215Y-47179D01*
X60492Y-48467D02*
X54503Y-48467D01*
X61294Y-47665D02*
X60492Y-48467D01*
X61383Y-44400D02*
X62699Y-44400D01*
X60562Y-45221D02*
X61383Y-44400D01*
X60562Y-46352D02*
X60562Y-45221D01*
X59250Y-47665D02*
X60562Y-46352D01*
X58339Y-48120D02*
X58794Y-47665D01*
X55555Y-48120D02*
X58339Y-48120D01*
X51665Y-44229D02*
X55555Y-48120D01*
X51234Y-44229D02*
X51665Y-44229D01*
X50450Y-45014D02*
X51234Y-44229D01*
X50450Y-45250D02*
X50450Y-45014D01*
X59250Y-47665D02*
X58794Y-47665D01*
X54380Y-45295D02*
X54380Y-44827D01*
X56750Y-47665D02*
X54380Y-45295D01*
X56356Y-42851D02*
X63464Y-42851D01*
X54380Y-44827D02*
X56356Y-42851D01*
X50813Y-43886D02*
X50450Y-44250D01*
X51802Y-43886D02*
X50813Y-43886D01*
X52744Y-44827D02*
X51802Y-43886D01*
X54380Y-44827D02*
X52744Y-44827D01*
X69250Y-38915D02*
X69022Y-38915D01*
X68103Y-37996D02*
X68078Y-37996D01*
X69022Y-38915D02*
X68103Y-37996D01*
X49000Y-36985D02*
X49000Y-36750D01*
X48476Y-37509D02*
X49000Y-36985D01*
X48476Y-37988D02*
X48476Y-37509D01*
X50900Y-40412D02*
X48476Y-37988D01*
X62510Y-40412D02*
X50900Y-40412D01*
X62631Y-40291D02*
X62510Y-40412D01*
X64630Y-40291D02*
X62631Y-40291D01*
X64958Y-39963D02*
X64630Y-40291D01*
X66483Y-39963D02*
X64958Y-39963D01*
X68078Y-38367D02*
X66483Y-39963D01*
X68078Y-37996D02*
X68078Y-38367D01*
X66750Y-38915D02*
X66379Y-38915D01*
X66379Y-38915D02*
X66294Y-38915D01*
X66294Y-38915D02*
X66294Y-37662D01*
X51322Y-40072D02*
X49000Y-37750D01*
X62369Y-40072D02*
X51322Y-40072D01*
X62490Y-39950D02*
X62369Y-40072D01*
X64489Y-39950D02*
X62490Y-39950D01*
X65525Y-38915D02*
X64489Y-39950D01*
X66294Y-38915D02*
X65525Y-38915D01*
X64250Y-38915D02*
X64022Y-38915D01*
X63793Y-38685D02*
X64022Y-38915D01*
X63793Y-37281D02*
X63793Y-38685D01*
X62391Y-35879D02*
X63793Y-37281D01*
X54084Y-35879D02*
X62391Y-35879D01*
X51675Y-38289D02*
X54084Y-35879D01*
X51244Y-38289D02*
X51675Y-38289D01*
X50450Y-37495D02*
X51244Y-38289D01*
X50450Y-37250D02*
X50450Y-37495D01*
X63793Y-37281D02*
X64156Y-37281D01*
X62205Y-38764D02*
X62205Y-38915D01*
X62991Y-37978D02*
X62205Y-38764D01*
X61750Y-38915D02*
X62205Y-38915D01*
X60839Y-39370D02*
X61294Y-38915D01*
X51834Y-39370D02*
X60839Y-39370D01*
X49929Y-37465D02*
X51834Y-39370D01*
X49929Y-36770D02*
X49929Y-37465D01*
X50450Y-36250D02*
X49929Y-36770D01*
X61750Y-38915D02*
X61294Y-38915D01*
X60817Y-37347D02*
X60817Y-36289D01*
X59250Y-38915D02*
X60817Y-37347D01*
X56270Y-37527D02*
X56373Y-37424D01*
X56270Y-38435D02*
X56270Y-37527D01*
X56750Y-38915D02*
X56270Y-38435D01*
X52217Y-34019D02*
X52217Y-35101D01*
X51604Y-33406D02*
X52217Y-34019D01*
X51293Y-33406D02*
X51604Y-33406D01*
X50450Y-34250D02*
X51293Y-33406D01*
X66159Y-41555D02*
X66741Y-40974D01*
X51888Y-41555D02*
X66159Y-41555D01*
X49000Y-44444D02*
X51888Y-41555D01*
X49000Y-44750D02*
X49000Y-44444D01*
X68525Y-42758D02*
X66741Y-40974D01*
X74998Y-42758D02*
X68525Y-42758D01*
X75893Y-43654D02*
X74998Y-42758D01*
X75893Y-46021D02*
X75893Y-43654D01*
X74250Y-47665D02*
X75893Y-46021D01*
X51846Y-42114D02*
X66794Y-42114D01*
X49548Y-44412D02*
X51846Y-42114D01*
X49548Y-45201D02*
X49548Y-44412D01*
X49000Y-45750D02*
X49548Y-45201D01*
X68002Y-43322D02*
X66794Y-42114D01*
X75060Y-43322D02*
X68002Y-43322D01*
X75553Y-43815D02*
X75060Y-43322D01*
X75553Y-44158D02*
X75553Y-43815D01*
X75319Y-44393D02*
X75553Y-44158D01*
X73890Y-44393D02*
X75319Y-44393D01*
X72470Y-45813D02*
X73890Y-44393D01*
X72470Y-46944D02*
X72470Y-45813D01*
X71750Y-47665D02*
X72470Y-46944D01*
G54D24*
X72770Y-40779D02*
X73034Y-40514D01*
X68127Y-40779D02*
X72770Y-40779D01*
X68127Y-40959D02*
X68127Y-40779D01*
X66164Y-41048D02*
X61358Y-41048D01*
X66601Y-40611D02*
X66164Y-41048D01*
X67959Y-40611D02*
X66601Y-40611D01*
X68127Y-40779D02*
X67959Y-40611D01*
X75310Y-34698D02*
X75310Y-40137D01*
X72931Y-32319D02*
X75310Y-34698D01*
X62459Y-32319D02*
X72931Y-32319D01*
X80153Y-44980D02*
X75310Y-40137D01*
X82178Y-44980D02*
X80153Y-44980D01*
X82480Y-45281D02*
X82178Y-44980D01*
X82480Y-47019D02*
X82480Y-45281D01*
X82000Y-47500D02*
X82480Y-47019D01*
X64652Y-40693D02*
X62941Y-40693D01*
X65082Y-40263D02*
X64652Y-40693D01*
X72783Y-40263D02*
X65082Y-40263D01*
X72910Y-40137D02*
X72783Y-40263D01*
X75310Y-40137D02*
X72910Y-40137D01*
G54D23*
X87665Y-35750D02*
X87665Y-36265D01*
X62000Y-50500D02*
X61000Y-50500D01*
X87160Y-41000D02*
X87140Y-41000D01*
X88520Y-39639D02*
X87160Y-41000D01*
X88520Y-37120D02*
X88520Y-39639D01*
X87665Y-36265D02*
X88520Y-37120D01*
X85322Y-42817D02*
X87140Y-41000D01*
X85322Y-47009D02*
X85322Y-42817D01*
X83245Y-49085D02*
X85322Y-47009D01*
X81685Y-49085D02*
X83245Y-49085D01*
X78466Y-45867D02*
X81685Y-49085D01*
X51450Y-34750D02*
X51450Y-33829D01*
G54D24*
X66750Y-38085D02*
X66750Y-36780D01*
X66750Y-36350D02*
X66750Y-36780D01*
X69250Y-38085D02*
X69250Y-36350D01*
X74250Y-38085D02*
X74250Y-36350D01*
X71750Y-38085D02*
X71750Y-36350D01*
X61750Y-38085D02*
X61750Y-36350D01*
X64521Y-37052D02*
X64250Y-36780D01*
X64521Y-37432D02*
X64521Y-37052D01*
X64284Y-37669D02*
X64521Y-37432D01*
X64250Y-37669D02*
X64284Y-37669D01*
X64250Y-38085D02*
X64250Y-37669D01*
X64250Y-36350D02*
X64250Y-36780D01*
X59250Y-37669D02*
X59250Y-36780D01*
X59250Y-38085D02*
X59250Y-37669D01*
X59250Y-36350D02*
X59250Y-36780D01*
X56750Y-38085D02*
X56750Y-36350D01*
X61750Y-46835D02*
X61750Y-45100D01*
X64497Y-45777D02*
X64250Y-45530D01*
X64497Y-46587D02*
X64497Y-45777D01*
X64250Y-46835D02*
X64497Y-46587D01*
X64250Y-45100D02*
X64250Y-45530D01*
X56750Y-46835D02*
X56750Y-45100D01*
X59250Y-46835D02*
X59250Y-45100D01*
X69250Y-46835D02*
X69250Y-45100D01*
X74250Y-46835D02*
X74250Y-45100D01*
X71750Y-46835D02*
X71750Y-45100D01*
X66624Y-46294D02*
X66750Y-46419D01*
X66624Y-45655D02*
X66624Y-46294D01*
X66750Y-45530D02*
X66624Y-45655D01*
X66750Y-45100D02*
X66750Y-45530D01*
X66750Y-46835D02*
X66750Y-46419D01*
X86835Y-35750D02*
X85350Y-35750D01*
G54D23*
X64250Y-43900D02*
X66750Y-43900D01*
X69250Y-35150D02*
X71750Y-35150D01*
X74250Y-35150D02*
X71750Y-35150D01*
X84150Y-40370D02*
X84780Y-41000D01*
X84150Y-35750D02*
X84150Y-40370D01*
X61750Y-35150D02*
X62530Y-35150D01*
X71750Y-43900D02*
X70969Y-43900D01*
X66750Y-43900D02*
X69250Y-43900D01*
X69250Y-43900D02*
X70969Y-43900D01*
X48000Y-44250D02*
X48000Y-45250D01*
X47394Y-43644D02*
X48000Y-44250D01*
X47394Y-35855D02*
X47394Y-43644D01*
X48000Y-35250D02*
X47394Y-35855D01*
X61750Y-35150D02*
X59250Y-35150D01*
X59250Y-35150D02*
X56750Y-35150D01*
X53050Y-35150D02*
X55969Y-35150D01*
X51450Y-36750D02*
X53050Y-35150D01*
X56750Y-35150D02*
X55969Y-35150D01*
X64250Y-43900D02*
X63469Y-43900D01*
X59250Y-43900D02*
X61750Y-43900D01*
X66750Y-35150D02*
X65969Y-35150D01*
X62530Y-35150D02*
X64250Y-35150D01*
X64250Y-35150D02*
X65969Y-35150D01*
X68469Y-35150D02*
X67530Y-35150D01*
X69250Y-35150D02*
X68469Y-35150D01*
X66750Y-35150D02*
X67530Y-35150D01*
X63469Y-43900D02*
X61750Y-43900D01*
X56750Y-43900D02*
X56750Y-44000D01*
X58369Y-44000D02*
X58469Y-43900D01*
X56750Y-44000D02*
X58369Y-44000D01*
X59250Y-43900D02*
X58469Y-43900D01*
X56750Y-43900D02*
X55969Y-43900D01*
X71750Y-43900D02*
X74250Y-43900D01*
X75123Y-43993D02*
X75153Y-43993D01*
X75030Y-43900D02*
X75123Y-43993D01*
X74250Y-43900D02*
X75030Y-43900D01*
G54D10*
G36*
X75293Y-44051D02*
X75211Y-44133D01*
X74990Y-44133D01*
X74990Y-44020D01*
X74930Y-43960D01*
X74310Y-43960D01*
X74310Y-43967D01*
X74190Y-43967D01*
X74190Y-43960D01*
X73570Y-43960D01*
X73510Y-44020D01*
X73509Y-44197D01*
X73546Y-44285D01*
X73588Y-44327D01*
X72490Y-45426D01*
X72490Y-44197D01*
X72490Y-44020D01*
X72430Y-43960D01*
X71810Y-43960D01*
X71810Y-44330D01*
X71870Y-44390D01*
X72202Y-44390D01*
X72297Y-44389D01*
X72386Y-44353D01*
X72453Y-44285D01*
X72490Y-44197D01*
X72490Y-45426D01*
X72286Y-45629D01*
X72229Y-45714D01*
X72210Y-45813D01*
X72210Y-46837D01*
X72125Y-46922D01*
X72125Y-46572D01*
X72103Y-46520D01*
X72064Y-46481D01*
X72012Y-46460D01*
X71970Y-46459D01*
X71970Y-45490D01*
X72277Y-45490D01*
X72329Y-45468D01*
X72368Y-45429D01*
X72389Y-45377D01*
X72390Y-45322D01*
X72390Y-44822D01*
X72368Y-44770D01*
X72329Y-44731D01*
X72277Y-44710D01*
X72222Y-44709D01*
X71690Y-44709D01*
X71690Y-44330D01*
X71690Y-43960D01*
X71070Y-43960D01*
X71010Y-44020D01*
X71009Y-44197D01*
X71046Y-44285D01*
X71113Y-44353D01*
X71202Y-44389D01*
X71297Y-44390D01*
X71630Y-44390D01*
X71690Y-44330D01*
X71690Y-44709D01*
X71222Y-44709D01*
X71170Y-44731D01*
X71131Y-44770D01*
X71110Y-44822D01*
X71109Y-44877D01*
X71109Y-45377D01*
X71131Y-45429D01*
X71170Y-45468D01*
X71222Y-45489D01*
X71277Y-45490D01*
X71530Y-45490D01*
X71530Y-46459D01*
X71487Y-46459D01*
X71435Y-46481D01*
X71396Y-46520D01*
X71375Y-46572D01*
X71374Y-46627D01*
X71374Y-47097D01*
X71396Y-47149D01*
X71435Y-47188D01*
X71487Y-47209D01*
X71542Y-47210D01*
X71837Y-47210D01*
X71757Y-47289D01*
X71487Y-47289D01*
X71435Y-47311D01*
X71396Y-47350D01*
X71375Y-47402D01*
X71374Y-47457D01*
X71374Y-47703D01*
X70720Y-47048D01*
X70720Y-45330D01*
X70703Y-45246D01*
X70655Y-45175D01*
X70655Y-45175D01*
X69994Y-44514D01*
X69990Y-44511D01*
X69990Y-44197D01*
X69990Y-44020D01*
X69930Y-43960D01*
X69310Y-43960D01*
X69310Y-44330D01*
X69370Y-44390D01*
X69702Y-44390D01*
X69797Y-44389D01*
X69886Y-44353D01*
X69953Y-44285D01*
X69990Y-44197D01*
X69990Y-44511D01*
X69923Y-44466D01*
X69838Y-44449D01*
X69190Y-44449D01*
X69190Y-44330D01*
X69190Y-43960D01*
X68570Y-43960D01*
X68510Y-44020D01*
X68509Y-44197D01*
X68546Y-44285D01*
X68613Y-44353D01*
X68702Y-44389D01*
X68797Y-44390D01*
X69130Y-44390D01*
X69190Y-44330D01*
X69190Y-44449D01*
X67490Y-44449D01*
X67490Y-44197D01*
X67490Y-43602D01*
X67453Y-43514D01*
X67386Y-43446D01*
X67297Y-43410D01*
X67202Y-43409D01*
X66870Y-43410D01*
X66810Y-43470D01*
X66810Y-43840D01*
X67430Y-43840D01*
X67490Y-43780D01*
X67490Y-43602D01*
X67490Y-44197D01*
X67490Y-44020D01*
X67430Y-43960D01*
X66810Y-43960D01*
X66810Y-44330D01*
X66870Y-44390D01*
X67202Y-44390D01*
X67297Y-44389D01*
X67386Y-44353D01*
X67453Y-44285D01*
X67490Y-44197D01*
X67490Y-44449D01*
X66690Y-44449D01*
X66690Y-44330D01*
X66690Y-43960D01*
X66690Y-43840D01*
X66690Y-43470D01*
X66630Y-43410D01*
X66297Y-43409D01*
X66202Y-43410D01*
X66113Y-43446D01*
X66046Y-43514D01*
X66009Y-43602D01*
X66010Y-43780D01*
X66070Y-43840D01*
X66690Y-43840D01*
X66690Y-43960D01*
X66070Y-43960D01*
X66010Y-44020D01*
X66009Y-44197D01*
X66046Y-44285D01*
X66113Y-44353D01*
X66202Y-44389D01*
X66297Y-44390D01*
X66630Y-44390D01*
X66690Y-44330D01*
X66690Y-44449D01*
X64990Y-44449D01*
X64990Y-44197D01*
X64990Y-43602D01*
X64953Y-43514D01*
X64886Y-43446D01*
X64797Y-43410D01*
X64702Y-43409D01*
X64370Y-43410D01*
X64310Y-43470D01*
X64310Y-43840D01*
X64930Y-43840D01*
X64990Y-43780D01*
X64990Y-43602D01*
X64990Y-44197D01*
X64990Y-44020D01*
X64930Y-43960D01*
X64310Y-43960D01*
X64310Y-44330D01*
X64370Y-44390D01*
X64702Y-44390D01*
X64797Y-44389D01*
X64886Y-44353D01*
X64953Y-44285D01*
X64990Y-44197D01*
X64990Y-44449D01*
X64190Y-44449D01*
X64190Y-44330D01*
X64190Y-43960D01*
X64190Y-43840D01*
X64190Y-43470D01*
X64130Y-43410D01*
X63797Y-43409D01*
X63702Y-43410D01*
X63613Y-43446D01*
X63546Y-43514D01*
X63509Y-43602D01*
X63510Y-43780D01*
X63570Y-43840D01*
X64190Y-43840D01*
X64190Y-43960D01*
X63570Y-43960D01*
X63510Y-44020D01*
X63509Y-44197D01*
X63546Y-44285D01*
X63613Y-44353D01*
X63702Y-44389D01*
X63797Y-44390D01*
X64130Y-44390D01*
X64190Y-44330D01*
X64190Y-44449D01*
X63657Y-44449D01*
X63573Y-44466D01*
X63501Y-44514D01*
X62585Y-45430D01*
X62538Y-45501D01*
X62521Y-45586D01*
X62521Y-45826D01*
X62474Y-45872D01*
X62426Y-45988D01*
X62426Y-46114D01*
X62474Y-46229D01*
X62562Y-46318D01*
X62678Y-46366D01*
X62803Y-46366D01*
X62919Y-46318D01*
X63008Y-46230D01*
X63056Y-46114D01*
X63056Y-45989D01*
X63008Y-45873D01*
X62961Y-45826D01*
X62961Y-45677D01*
X63609Y-45028D01*
X63609Y-45377D01*
X63631Y-45429D01*
X63670Y-45468D01*
X63722Y-45489D01*
X63777Y-45490D01*
X64030Y-45490D01*
X64030Y-45530D01*
X64046Y-45614D01*
X64094Y-45685D01*
X64277Y-45868D01*
X64277Y-45892D01*
X64198Y-45860D01*
X64072Y-45859D01*
X63957Y-45907D01*
X63868Y-45996D01*
X63831Y-46085D01*
X63611Y-46305D01*
X63554Y-46390D01*
X63534Y-46489D01*
X63534Y-47557D01*
X62119Y-48972D01*
X53350Y-48972D01*
X53372Y-48949D01*
X53439Y-48787D01*
X53440Y-48612D01*
X53373Y-48451D01*
X53249Y-48327D01*
X53087Y-48260D01*
X52912Y-48259D01*
X52751Y-48326D01*
X52627Y-48450D01*
X52560Y-48612D01*
X52559Y-48787D01*
X52626Y-48948D01*
X52650Y-48972D01*
X51762Y-48972D01*
X51327Y-48537D01*
X51686Y-48537D01*
X51786Y-48517D01*
X51870Y-48461D01*
X52559Y-47772D01*
X52559Y-47787D01*
X52626Y-47948D01*
X52750Y-48072D01*
X52912Y-48139D01*
X53087Y-48140D01*
X53248Y-48073D01*
X53372Y-47949D01*
X53439Y-47787D01*
X53439Y-47772D01*
X54319Y-48651D01*
X54319Y-48651D01*
X54375Y-48689D01*
X54403Y-48707D01*
X54403Y-48707D01*
X54503Y-48727D01*
X54503Y-48727D01*
X60492Y-48727D01*
X60591Y-48707D01*
X60676Y-48651D01*
X61382Y-47945D01*
X61396Y-47979D01*
X61435Y-48018D01*
X61487Y-48039D01*
X61542Y-48040D01*
X62012Y-48040D01*
X62064Y-48018D01*
X62103Y-47979D01*
X62124Y-47927D01*
X62124Y-47925D01*
X62205Y-47925D01*
X62304Y-47905D01*
X62388Y-47848D01*
X62445Y-47764D01*
X62465Y-47665D01*
X62465Y-47507D01*
X62504Y-47468D01*
X62552Y-47352D01*
X62553Y-47227D01*
X62505Y-47111D01*
X62416Y-47022D01*
X62300Y-46974D01*
X62175Y-46974D01*
X62125Y-46995D01*
X62125Y-46572D01*
X62103Y-46520D01*
X62064Y-46481D01*
X62012Y-46460D01*
X61970Y-46459D01*
X61970Y-45490D01*
X62277Y-45490D01*
X62329Y-45468D01*
X62368Y-45429D01*
X62389Y-45377D01*
X62390Y-45322D01*
X62390Y-44822D01*
X62368Y-44770D01*
X62329Y-44731D01*
X62277Y-44710D01*
X62222Y-44709D01*
X61441Y-44709D01*
X61490Y-44660D01*
X62513Y-44660D01*
X62520Y-44667D01*
X62636Y-44715D01*
X62761Y-44715D01*
X62877Y-44667D01*
X62966Y-44579D01*
X63014Y-44463D01*
X63014Y-44338D01*
X62966Y-44222D01*
X62877Y-44133D01*
X62762Y-44085D01*
X62636Y-44085D01*
X62521Y-44133D01*
X62513Y-44140D01*
X62490Y-44140D01*
X62490Y-43602D01*
X62453Y-43514D01*
X62386Y-43446D01*
X62297Y-43410D01*
X62202Y-43409D01*
X61870Y-43410D01*
X61810Y-43470D01*
X61810Y-43840D01*
X62430Y-43840D01*
X62490Y-43780D01*
X62490Y-43602D01*
X62490Y-44140D01*
X62490Y-44140D01*
X62490Y-44020D01*
X62430Y-43960D01*
X61810Y-43960D01*
X61810Y-43967D01*
X61690Y-43967D01*
X61690Y-43960D01*
X61690Y-43840D01*
X61690Y-43470D01*
X61630Y-43410D01*
X61297Y-43409D01*
X61202Y-43410D01*
X61113Y-43446D01*
X61046Y-43514D01*
X61009Y-43602D01*
X61010Y-43780D01*
X61070Y-43840D01*
X61690Y-43840D01*
X61690Y-43960D01*
X61070Y-43960D01*
X61010Y-44020D01*
X61009Y-44197D01*
X61046Y-44285D01*
X61088Y-44327D01*
X60378Y-45037D01*
X60321Y-45122D01*
X60302Y-45221D01*
X60302Y-46245D01*
X59990Y-46557D01*
X59990Y-44197D01*
X59990Y-43602D01*
X59953Y-43514D01*
X59886Y-43446D01*
X59797Y-43410D01*
X59702Y-43409D01*
X59370Y-43410D01*
X59310Y-43470D01*
X59310Y-43840D01*
X59930Y-43840D01*
X59990Y-43780D01*
X59990Y-43602D01*
X59990Y-44197D01*
X59990Y-44020D01*
X59930Y-43960D01*
X59310Y-43960D01*
X59310Y-44330D01*
X59370Y-44390D01*
X59702Y-44390D01*
X59797Y-44389D01*
X59886Y-44353D01*
X59953Y-44285D01*
X59990Y-44197D01*
X59990Y-46557D01*
X59625Y-46922D01*
X59625Y-46572D01*
X59603Y-46520D01*
X59564Y-46481D01*
X59512Y-46460D01*
X59470Y-46459D01*
X59470Y-45490D01*
X59777Y-45490D01*
X59829Y-45468D01*
X59868Y-45429D01*
X59889Y-45377D01*
X59890Y-45322D01*
X59890Y-44822D01*
X59868Y-44770D01*
X59829Y-44731D01*
X59777Y-44710D01*
X59722Y-44709D01*
X59190Y-44709D01*
X59190Y-44330D01*
X59190Y-43960D01*
X59190Y-43840D01*
X59190Y-43470D01*
X59130Y-43410D01*
X58797Y-43409D01*
X58702Y-43410D01*
X58613Y-43446D01*
X58546Y-43514D01*
X58509Y-43602D01*
X58510Y-43780D01*
X58570Y-43840D01*
X59190Y-43840D01*
X59190Y-43960D01*
X58570Y-43960D01*
X58510Y-44020D01*
X58509Y-44197D01*
X58546Y-44285D01*
X58613Y-44353D01*
X58702Y-44389D01*
X58797Y-44390D01*
X59130Y-44390D01*
X59190Y-44330D01*
X59190Y-44709D01*
X58722Y-44709D01*
X58670Y-44731D01*
X58631Y-44770D01*
X58610Y-44822D01*
X58609Y-44877D01*
X58609Y-45377D01*
X58631Y-45429D01*
X58670Y-45468D01*
X58722Y-45489D01*
X58777Y-45490D01*
X59030Y-45490D01*
X59030Y-46459D01*
X58987Y-46459D01*
X58935Y-46481D01*
X58896Y-46520D01*
X58875Y-46572D01*
X58874Y-46627D01*
X58874Y-47097D01*
X58896Y-47149D01*
X58935Y-47188D01*
X58987Y-47209D01*
X59042Y-47210D01*
X59337Y-47210D01*
X59257Y-47289D01*
X58987Y-47289D01*
X58935Y-47311D01*
X58896Y-47350D01*
X58875Y-47402D01*
X58875Y-47405D01*
X58794Y-47405D01*
X58695Y-47424D01*
X58667Y-47443D01*
X58611Y-47481D01*
X58232Y-47860D01*
X57490Y-47860D01*
X57490Y-44197D01*
X57490Y-43602D01*
X57453Y-43514D01*
X57386Y-43446D01*
X57297Y-43410D01*
X57202Y-43409D01*
X56870Y-43410D01*
X56810Y-43470D01*
X56810Y-43840D01*
X57430Y-43840D01*
X57490Y-43780D01*
X57490Y-43602D01*
X57490Y-44197D01*
X57490Y-44020D01*
X57430Y-43960D01*
X56810Y-43960D01*
X56810Y-44330D01*
X56870Y-44390D01*
X57202Y-44390D01*
X57297Y-44389D01*
X57386Y-44353D01*
X57453Y-44285D01*
X57490Y-44197D01*
X57490Y-47860D01*
X57125Y-47860D01*
X57125Y-47402D01*
X57103Y-47350D01*
X57064Y-47311D01*
X57012Y-47290D01*
X56957Y-47289D01*
X56742Y-47289D01*
X56662Y-47210D01*
X57012Y-47210D01*
X57064Y-47188D01*
X57103Y-47149D01*
X57124Y-47097D01*
X57125Y-47042D01*
X57125Y-46572D01*
X57103Y-46520D01*
X57064Y-46481D01*
X57012Y-46460D01*
X56970Y-46459D01*
X56970Y-45490D01*
X57277Y-45490D01*
X57329Y-45468D01*
X57368Y-45429D01*
X57389Y-45377D01*
X57390Y-45322D01*
X57390Y-44822D01*
X57368Y-44770D01*
X57329Y-44731D01*
X57277Y-44710D01*
X57222Y-44709D01*
X56690Y-44709D01*
X56690Y-44330D01*
X56690Y-43960D01*
X56070Y-43960D01*
X56010Y-44020D01*
X56009Y-44197D01*
X56046Y-44285D01*
X56113Y-44353D01*
X56202Y-44389D01*
X56297Y-44390D01*
X56630Y-44390D01*
X56690Y-44330D01*
X56690Y-44709D01*
X56222Y-44709D01*
X56170Y-44731D01*
X56131Y-44770D01*
X56110Y-44822D01*
X56109Y-44877D01*
X56109Y-45377D01*
X56131Y-45429D01*
X56170Y-45468D01*
X56222Y-45489D01*
X56277Y-45490D01*
X56530Y-45490D01*
X56530Y-46459D01*
X56487Y-46459D01*
X56435Y-46481D01*
X56396Y-46520D01*
X56375Y-46572D01*
X56374Y-46627D01*
X56374Y-46922D01*
X54640Y-45187D01*
X54640Y-44935D01*
X56035Y-43540D01*
X56009Y-43602D01*
X56010Y-43780D01*
X56070Y-43840D01*
X56690Y-43840D01*
X56690Y-43470D01*
X56630Y-43410D01*
X56297Y-43409D01*
X56202Y-43410D01*
X56140Y-43435D01*
X56464Y-43111D01*
X63278Y-43111D01*
X63285Y-43118D01*
X63401Y-43166D01*
X63526Y-43166D01*
X63642Y-43118D01*
X63731Y-43030D01*
X63779Y-42914D01*
X63779Y-42789D01*
X63731Y-42673D01*
X63643Y-42584D01*
X63527Y-42536D01*
X63401Y-42536D01*
X63286Y-42584D01*
X63278Y-42591D01*
X56356Y-42591D01*
X56257Y-42611D01*
X56229Y-42629D01*
X56172Y-42667D01*
X54272Y-44567D01*
X53354Y-44567D01*
X53372Y-44549D01*
X53439Y-44387D01*
X53440Y-44212D01*
X53440Y-43212D01*
X53373Y-43051D01*
X53249Y-42927D01*
X53087Y-42860D01*
X52912Y-42859D01*
X52751Y-42926D01*
X52627Y-43050D01*
X52560Y-43212D01*
X52559Y-43387D01*
X52626Y-43548D01*
X52750Y-43672D01*
X52912Y-43739D01*
X53087Y-43740D01*
X53248Y-43673D01*
X53372Y-43549D01*
X53439Y-43387D01*
X53440Y-43212D01*
X53440Y-44212D01*
X53373Y-44051D01*
X53249Y-43927D01*
X53087Y-43860D01*
X52912Y-43859D01*
X52751Y-43926D01*
X52627Y-44050D01*
X52560Y-44212D01*
X52560Y-44275D01*
X51986Y-43702D01*
X51902Y-43646D01*
X51802Y-43626D01*
X50813Y-43626D01*
X50714Y-43646D01*
X50686Y-43664D01*
X50629Y-43702D01*
X50522Y-43810D01*
X50519Y-43810D01*
X51954Y-42374D01*
X66608Y-42374D01*
X66615Y-42381D01*
X66731Y-42429D01*
X66741Y-42429D01*
X67818Y-43506D01*
X67818Y-43506D01*
X67874Y-43543D01*
X67902Y-43562D01*
X67902Y-43562D01*
X68002Y-43582D01*
X68518Y-43582D01*
X68509Y-43602D01*
X68510Y-43780D01*
X68570Y-43840D01*
X69190Y-43840D01*
X69190Y-43832D01*
X69310Y-43832D01*
X69310Y-43840D01*
X69930Y-43840D01*
X69990Y-43780D01*
X69990Y-43602D01*
X69981Y-43582D01*
X71018Y-43582D01*
X71009Y-43602D01*
X71010Y-43780D01*
X71070Y-43840D01*
X71690Y-43840D01*
X71690Y-43832D01*
X71810Y-43832D01*
X71810Y-43840D01*
X72430Y-43840D01*
X72490Y-43780D01*
X72490Y-43602D01*
X72481Y-43582D01*
X73518Y-43582D01*
X73509Y-43602D01*
X73510Y-43780D01*
X73570Y-43840D01*
X74190Y-43840D01*
X74190Y-43832D01*
X74310Y-43832D01*
X74310Y-43840D01*
X74930Y-43840D01*
X74990Y-43780D01*
X74990Y-43619D01*
X75293Y-43923D01*
X75293Y-44051D01*
X75293Y-44051D01*
G37*
G54D26*
X75293Y-44051D02*
X75211Y-44133D01*
X74990Y-44133D01*
X74990Y-44020D01*
X74930Y-43960D01*
X74310Y-43960D01*
X74310Y-43967D01*
X74190Y-43967D01*
X74190Y-43960D01*
X73570Y-43960D01*
X73510Y-44020D01*
X73509Y-44197D01*
X73546Y-44285D01*
X73588Y-44327D01*
X72490Y-45426D01*
X72490Y-44197D01*
X72490Y-44020D01*
X72430Y-43960D01*
X71810Y-43960D01*
X71810Y-44330D01*
X71870Y-44390D01*
X72202Y-44390D01*
X72297Y-44389D01*
X72386Y-44353D01*
X72453Y-44285D01*
X72490Y-44197D01*
X72490Y-45426D01*
X72286Y-45629D01*
X72229Y-45714D01*
X72210Y-45813D01*
X72210Y-46837D01*
X72125Y-46922D01*
X72125Y-46572D01*
X72103Y-46520D01*
X72064Y-46481D01*
X72012Y-46460D01*
X71970Y-46459D01*
X71970Y-45490D01*
X72277Y-45490D01*
X72329Y-45468D01*
X72368Y-45429D01*
X72389Y-45377D01*
X72390Y-45322D01*
X72390Y-44822D01*
X72368Y-44770D01*
X72329Y-44731D01*
X72277Y-44710D01*
X72222Y-44709D01*
X71690Y-44709D01*
X71690Y-44330D01*
X71690Y-43960D01*
X71070Y-43960D01*
X71010Y-44020D01*
X71009Y-44197D01*
X71046Y-44285D01*
X71113Y-44353D01*
X71202Y-44389D01*
X71297Y-44390D01*
X71630Y-44390D01*
X71690Y-44330D01*
X71690Y-44709D01*
X71222Y-44709D01*
X71170Y-44731D01*
X71131Y-44770D01*
X71110Y-44822D01*
X71109Y-44877D01*
X71109Y-45377D01*
X71131Y-45429D01*
X71170Y-45468D01*
X71222Y-45489D01*
X71277Y-45490D01*
X71530Y-45490D01*
X71530Y-46459D01*
X71487Y-46459D01*
X71435Y-46481D01*
X71396Y-46520D01*
X71375Y-46572D01*
X71374Y-46627D01*
X71374Y-47097D01*
X71396Y-47149D01*
X71435Y-47188D01*
X71487Y-47209D01*
X71542Y-47210D01*
X71837Y-47210D01*
X71757Y-47289D01*
X71487Y-47289D01*
X71435Y-47311D01*
X71396Y-47350D01*
X71375Y-47402D01*
X71374Y-47457D01*
X71374Y-47703D01*
X70720Y-47048D01*
X70720Y-45330D01*
X70703Y-45246D01*
X70655Y-45175D01*
X70655Y-45175D01*
X69994Y-44514D01*
X69990Y-44511D01*
X69990Y-44197D01*
X69990Y-44020D01*
X69930Y-43960D01*
X69310Y-43960D01*
X69310Y-44330D01*
X69370Y-44390D01*
X69702Y-44390D01*
X69797Y-44389D01*
X69886Y-44353D01*
X69953Y-44285D01*
X69990Y-44197D01*
X69990Y-44511D01*
X69923Y-44466D01*
X69838Y-44449D01*
X69190Y-44449D01*
X69190Y-44330D01*
X69190Y-43960D01*
X68570Y-43960D01*
X68510Y-44020D01*
X68509Y-44197D01*
X68546Y-44285D01*
X68613Y-44353D01*
X68702Y-44389D01*
X68797Y-44390D01*
X69130Y-44390D01*
X69190Y-44330D01*
X69190Y-44449D01*
X67490Y-44449D01*
X67490Y-44197D01*
X67490Y-43602D01*
X67453Y-43514D01*
X67386Y-43446D01*
X67297Y-43410D01*
X67202Y-43409D01*
X66870Y-43410D01*
X66810Y-43470D01*
X66810Y-43840D01*
X67430Y-43840D01*
X67490Y-43780D01*
X67490Y-43602D01*
X67490Y-44197D01*
X67490Y-44020D01*
X67430Y-43960D01*
X66810Y-43960D01*
X66810Y-44330D01*
X66870Y-44390D01*
X67202Y-44390D01*
X67297Y-44389D01*
X67386Y-44353D01*
X67453Y-44285D01*
X67490Y-44197D01*
X67490Y-44449D01*
X66690Y-44449D01*
X66690Y-44330D01*
X66690Y-43960D01*
X66690Y-43840D01*
X66690Y-43470D01*
X66630Y-43410D01*
X66297Y-43409D01*
X66202Y-43410D01*
X66113Y-43446D01*
X66046Y-43514D01*
X66009Y-43602D01*
X66010Y-43780D01*
X66070Y-43840D01*
X66690Y-43840D01*
X66690Y-43960D01*
X66070Y-43960D01*
X66010Y-44020D01*
X66009Y-44197D01*
X66046Y-44285D01*
X66113Y-44353D01*
X66202Y-44389D01*
X66297Y-44390D01*
X66630Y-44390D01*
X66690Y-44330D01*
X66690Y-44449D01*
X64990Y-44449D01*
X64990Y-44197D01*
X64990Y-43602D01*
X64953Y-43514D01*
X64886Y-43446D01*
X64797Y-43410D01*
X64702Y-43409D01*
X64370Y-43410D01*
X64310Y-43470D01*
X64310Y-43840D01*
X64930Y-43840D01*
X64990Y-43780D01*
X64990Y-43602D01*
X64990Y-44197D01*
X64990Y-44020D01*
X64930Y-43960D01*
X64310Y-43960D01*
X64310Y-44330D01*
X64370Y-44390D01*
X64702Y-44390D01*
X64797Y-44389D01*
X64886Y-44353D01*
X64953Y-44285D01*
X64990Y-44197D01*
X64990Y-44449D01*
X64190Y-44449D01*
X64190Y-44330D01*
X64190Y-43960D01*
X64190Y-43840D01*
X64190Y-43470D01*
X64130Y-43410D01*
X63797Y-43409D01*
X63702Y-43410D01*
X63613Y-43446D01*
X63546Y-43514D01*
X63509Y-43602D01*
X63510Y-43780D01*
X63570Y-43840D01*
X64190Y-43840D01*
X64190Y-43960D01*
X63570Y-43960D01*
X63510Y-44020D01*
X63509Y-44197D01*
X63546Y-44285D01*
X63613Y-44353D01*
X63702Y-44389D01*
X63797Y-44390D01*
X64130Y-44390D01*
X64190Y-44330D01*
X64190Y-44449D01*
X63657Y-44449D01*
X63573Y-44466D01*
X63501Y-44514D01*
X62585Y-45430D01*
X62538Y-45501D01*
X62521Y-45586D01*
X62521Y-45826D01*
X62474Y-45872D01*
X62426Y-45988D01*
X62426Y-46114D01*
X62474Y-46229D01*
X62562Y-46318D01*
X62678Y-46366D01*
X62803Y-46366D01*
X62919Y-46318D01*
X63008Y-46230D01*
X63056Y-46114D01*
X63056Y-45989D01*
X63008Y-45873D01*
X62961Y-45826D01*
X62961Y-45677D01*
X63609Y-45028D01*
X63609Y-45377D01*
X63631Y-45429D01*
X63670Y-45468D01*
X63722Y-45489D01*
X63777Y-45490D01*
X64030Y-45490D01*
X64030Y-45530D01*
X64046Y-45614D01*
X64094Y-45685D01*
X64277Y-45868D01*
X64277Y-45892D01*
X64198Y-45860D01*
X64072Y-45859D01*
X63957Y-45907D01*
X63868Y-45996D01*
X63831Y-46085D01*
X63611Y-46305D01*
X63554Y-46390D01*
X63534Y-46489D01*
X63534Y-47557D01*
X62119Y-48972D01*
X53350Y-48972D01*
X53372Y-48949D01*
X53439Y-48787D01*
X53440Y-48612D01*
X53373Y-48451D01*
X53249Y-48327D01*
X53087Y-48260D01*
X52912Y-48259D01*
X52751Y-48326D01*
X52627Y-48450D01*
X52560Y-48612D01*
X52559Y-48787D01*
X52626Y-48948D01*
X52650Y-48972D01*
X51762Y-48972D01*
X51327Y-48537D01*
X51686Y-48537D01*
X51786Y-48517D01*
X51870Y-48461D01*
X52559Y-47772D01*
X52559Y-47787D01*
X52626Y-47948D01*
X52750Y-48072D01*
X52912Y-48139D01*
X53087Y-48140D01*
X53248Y-48073D01*
X53372Y-47949D01*
X53439Y-47787D01*
X53439Y-47772D01*
X54319Y-48651D01*
X54319Y-48651D01*
X54375Y-48689D01*
X54403Y-48707D01*
X54403Y-48707D01*
X54503Y-48727D01*
X54503Y-48727D01*
X60492Y-48727D01*
X60591Y-48707D01*
X60676Y-48651D01*
X61382Y-47945D01*
X61396Y-47979D01*
X61435Y-48018D01*
X61487Y-48039D01*
X61542Y-48040D01*
X62012Y-48040D01*
X62064Y-48018D01*
X62103Y-47979D01*
X62124Y-47927D01*
X62124Y-47925D01*
X62205Y-47925D01*
X62304Y-47905D01*
X62388Y-47848D01*
X62445Y-47764D01*
X62465Y-47665D01*
X62465Y-47507D01*
X62504Y-47468D01*
X62552Y-47352D01*
X62553Y-47227D01*
X62505Y-47111D01*
X62416Y-47022D01*
X62300Y-46974D01*
X62175Y-46974D01*
X62125Y-46995D01*
X62125Y-46572D01*
X62103Y-46520D01*
X62064Y-46481D01*
X62012Y-46460D01*
X61970Y-46459D01*
X61970Y-45490D01*
X62277Y-45490D01*
X62329Y-45468D01*
X62368Y-45429D01*
X62389Y-45377D01*
X62390Y-45322D01*
X62390Y-44822D01*
X62368Y-44770D01*
X62329Y-44731D01*
X62277Y-44710D01*
X62222Y-44709D01*
X61441Y-44709D01*
X61490Y-44660D01*
X62513Y-44660D01*
X62520Y-44667D01*
X62636Y-44715D01*
X62761Y-44715D01*
X62877Y-44667D01*
X62966Y-44579D01*
X63014Y-44463D01*
X63014Y-44338D01*
X62966Y-44222D01*
X62877Y-44133D01*
X62762Y-44085D01*
X62636Y-44085D01*
X62521Y-44133D01*
X62513Y-44140D01*
X62490Y-44140D01*
X62490Y-43602D01*
X62453Y-43514D01*
X62386Y-43446D01*
X62297Y-43410D01*
X62202Y-43409D01*
X61870Y-43410D01*
X61810Y-43470D01*
X61810Y-43840D01*
X62430Y-43840D01*
X62490Y-43780D01*
X62490Y-43602D01*
X62490Y-44140D01*
X62490Y-44140D01*
X62490Y-44020D01*
X62430Y-43960D01*
X61810Y-43960D01*
X61810Y-43967D01*
X61690Y-43967D01*
X61690Y-43960D01*
X61690Y-43840D01*
X61690Y-43470D01*
X61630Y-43410D01*
X61297Y-43409D01*
X61202Y-43410D01*
X61113Y-43446D01*
X61046Y-43514D01*
X61009Y-43602D01*
X61010Y-43780D01*
X61070Y-43840D01*
X61690Y-43840D01*
X61690Y-43960D01*
X61070Y-43960D01*
X61010Y-44020D01*
X61009Y-44197D01*
X61046Y-44285D01*
X61088Y-44327D01*
X60378Y-45037D01*
X60321Y-45122D01*
X60302Y-45221D01*
X60302Y-46245D01*
X59990Y-46557D01*
X59990Y-44197D01*
X59990Y-43602D01*
X59953Y-43514D01*
X59886Y-43446D01*
X59797Y-43410D01*
X59702Y-43409D01*
X59370Y-43410D01*
X59310Y-43470D01*
X59310Y-43840D01*
X59930Y-43840D01*
X59990Y-43780D01*
X59990Y-43602D01*
X59990Y-44197D01*
X59990Y-44020D01*
X59930Y-43960D01*
X59310Y-43960D01*
X59310Y-44330D01*
X59370Y-44390D01*
X59702Y-44390D01*
X59797Y-44389D01*
X59886Y-44353D01*
X59953Y-44285D01*
X59990Y-44197D01*
X59990Y-46557D01*
X59625Y-46922D01*
X59625Y-46572D01*
X59603Y-46520D01*
X59564Y-46481D01*
X59512Y-46460D01*
X59470Y-46459D01*
X59470Y-45490D01*
X59777Y-45490D01*
X59829Y-45468D01*
X59868Y-45429D01*
X59889Y-45377D01*
X59890Y-45322D01*
X59890Y-44822D01*
X59868Y-44770D01*
X59829Y-44731D01*
X59777Y-44710D01*
X59722Y-44709D01*
X59190Y-44709D01*
X59190Y-44330D01*
X59190Y-43960D01*
X59190Y-43840D01*
X59190Y-43470D01*
X59130Y-43410D01*
X58797Y-43409D01*
X58702Y-43410D01*
X58613Y-43446D01*
X58546Y-43514D01*
X58509Y-43602D01*
X58510Y-43780D01*
X58570Y-43840D01*
X59190Y-43840D01*
X59190Y-43960D01*
X58570Y-43960D01*
X58510Y-44020D01*
X58509Y-44197D01*
X58546Y-44285D01*
X58613Y-44353D01*
X58702Y-44389D01*
X58797Y-44390D01*
X59130Y-44390D01*
X59190Y-44330D01*
X59190Y-44709D01*
X58722Y-44709D01*
X58670Y-44731D01*
X58631Y-44770D01*
X58610Y-44822D01*
X58609Y-44877D01*
X58609Y-45377D01*
X58631Y-45429D01*
X58670Y-45468D01*
X58722Y-45489D01*
X58777Y-45490D01*
X59030Y-45490D01*
X59030Y-46459D01*
X58987Y-46459D01*
X58935Y-46481D01*
X58896Y-46520D01*
X58875Y-46572D01*
X58874Y-46627D01*
X58874Y-47097D01*
X58896Y-47149D01*
X58935Y-47188D01*
X58987Y-47209D01*
X59042Y-47210D01*
X59337Y-47210D01*
X59257Y-47289D01*
X58987Y-47289D01*
X58935Y-47311D01*
X58896Y-47350D01*
X58875Y-47402D01*
X58875Y-47405D01*
X58794Y-47405D01*
X58695Y-47424D01*
X58667Y-47443D01*
X58611Y-47481D01*
X58232Y-47860D01*
X57490Y-47860D01*
X57490Y-44197D01*
X57490Y-43602D01*
X57453Y-43514D01*
X57386Y-43446D01*
X57297Y-43410D01*
X57202Y-43409D01*
X56870Y-43410D01*
X56810Y-43470D01*
X56810Y-43840D01*
X57430Y-43840D01*
X57490Y-43780D01*
X57490Y-43602D01*
X57490Y-44197D01*
X57490Y-44020D01*
X57430Y-43960D01*
X56810Y-43960D01*
X56810Y-44330D01*
X56870Y-44390D01*
X57202Y-44390D01*
X57297Y-44389D01*
X57386Y-44353D01*
X57453Y-44285D01*
X57490Y-44197D01*
X57490Y-47860D01*
X57125Y-47860D01*
X57125Y-47402D01*
X57103Y-47350D01*
X57064Y-47311D01*
X57012Y-47290D01*
X56957Y-47289D01*
X56742Y-47289D01*
X56662Y-47210D01*
X57012Y-47210D01*
X57064Y-47188D01*
X57103Y-47149D01*
X57124Y-47097D01*
X57125Y-47042D01*
X57125Y-46572D01*
X57103Y-46520D01*
X57064Y-46481D01*
X57012Y-46460D01*
X56970Y-46459D01*
X56970Y-45490D01*
X57277Y-45490D01*
X57329Y-45468D01*
X57368Y-45429D01*
X57389Y-45377D01*
X57390Y-45322D01*
X57390Y-44822D01*
X57368Y-44770D01*
X57329Y-44731D01*
X57277Y-44710D01*
X57222Y-44709D01*
X56690Y-44709D01*
X56690Y-44330D01*
X56690Y-43960D01*
X56070Y-43960D01*
X56010Y-44020D01*
X56009Y-44197D01*
X56046Y-44285D01*
X56113Y-44353D01*
X56202Y-44389D01*
X56297Y-44390D01*
X56630Y-44390D01*
X56690Y-44330D01*
X56690Y-44709D01*
X56222Y-44709D01*
X56170Y-44731D01*
X56131Y-44770D01*
X56110Y-44822D01*
X56109Y-44877D01*
X56109Y-45377D01*
X56131Y-45429D01*
X56170Y-45468D01*
X56222Y-45489D01*
X56277Y-45490D01*
X56530Y-45490D01*
X56530Y-46459D01*
X56487Y-46459D01*
X56435Y-46481D01*
X56396Y-46520D01*
X56375Y-46572D01*
X56374Y-46627D01*
X56374Y-46922D01*
X54640Y-45187D01*
X54640Y-44935D01*
X56035Y-43540D01*
X56009Y-43602D01*
X56010Y-43780D01*
X56070Y-43840D01*
X56690Y-43840D01*
X56690Y-43470D01*
X56630Y-43410D01*
X56297Y-43409D01*
X56202Y-43410D01*
X56140Y-43435D01*
X56464Y-43111D01*
X63278Y-43111D01*
X63285Y-43118D01*
X63401Y-43166D01*
X63526Y-43166D01*
X63642Y-43118D01*
X63731Y-43030D01*
X63779Y-42914D01*
X63779Y-42789D01*
X63731Y-42673D01*
X63643Y-42584D01*
X63527Y-42536D01*
X63401Y-42536D01*
X63286Y-42584D01*
X63278Y-42591D01*
X56356Y-42591D01*
X56257Y-42611D01*
X56229Y-42629D01*
X56172Y-42667D01*
X54272Y-44567D01*
X53354Y-44567D01*
X53372Y-44549D01*
X53439Y-44387D01*
X53440Y-44212D01*
X53440Y-43212D01*
X53373Y-43051D01*
X53249Y-42927D01*
X53087Y-42860D01*
X52912Y-42859D01*
X52751Y-42926D01*
X52627Y-43050D01*
X52560Y-43212D01*
X52559Y-43387D01*
X52626Y-43548D01*
X52750Y-43672D01*
X52912Y-43739D01*
X53087Y-43740D01*
X53248Y-43673D01*
X53372Y-43549D01*
X53439Y-43387D01*
X53440Y-43212D01*
X53440Y-44212D01*
X53373Y-44051D01*
X53249Y-43927D01*
X53087Y-43860D01*
X52912Y-43859D01*
X52751Y-43926D01*
X52627Y-44050D01*
X52560Y-44212D01*
X52560Y-44275D01*
X51986Y-43702D01*
X51902Y-43646D01*
X51802Y-43626D01*
X50813Y-43626D01*
X50714Y-43646D01*
X50686Y-43664D01*
X50629Y-43702D01*
X50522Y-43810D01*
X50519Y-43810D01*
X51954Y-42374D01*
X66608Y-42374D01*
X66615Y-42381D01*
X66731Y-42429D01*
X66741Y-42429D01*
X67818Y-43506D01*
X67818Y-43506D01*
X67874Y-43543D01*
X67902Y-43562D01*
X67902Y-43562D01*
X68002Y-43582D01*
X68518Y-43582D01*
X68509Y-43602D01*
X68510Y-43780D01*
X68570Y-43840D01*
X69190Y-43840D01*
X69190Y-43832D01*
X69310Y-43832D01*
X69310Y-43840D01*
X69930Y-43840D01*
X69990Y-43780D01*
X69990Y-43602D01*
X69981Y-43582D01*
X71018Y-43582D01*
X71009Y-43602D01*
X71010Y-43780D01*
X71070Y-43840D01*
X71690Y-43840D01*
X71690Y-43832D01*
X71810Y-43832D01*
X71810Y-43840D01*
X72430Y-43840D01*
X72490Y-43780D01*
X72490Y-43602D01*
X72481Y-43582D01*
X73518Y-43582D01*
X73509Y-43602D01*
X73510Y-43780D01*
X73570Y-43840D01*
X74190Y-43840D01*
X74190Y-43832D01*
X74310Y-43832D01*
X74310Y-43840D01*
X74930Y-43840D01*
X74990Y-43780D01*
X74990Y-43619D01*
X75293Y-43923D01*
X75293Y-44051D01*
G54D10*
G36*
X89335Y-51335D02*
X88370Y-51335D01*
X88370Y-42603D01*
X88242Y-42294D01*
X88006Y-42058D01*
X87697Y-41930D01*
X87363Y-41929D01*
X87054Y-42057D01*
X86818Y-42293D01*
X86690Y-42602D01*
X86689Y-42936D01*
X86817Y-43245D01*
X87053Y-43481D01*
X87362Y-43609D01*
X87696Y-43610D01*
X88005Y-43482D01*
X88241Y-43246D01*
X88369Y-42937D01*
X88370Y-42603D01*
X88370Y-51335D01*
X83375Y-51335D01*
X83517Y-51276D01*
X83775Y-51018D01*
X83914Y-50682D01*
X83915Y-50318D01*
X83776Y-49982D01*
X83518Y-49724D01*
X83182Y-49585D01*
X82818Y-49584D01*
X82482Y-49723D01*
X82224Y-49981D01*
X82085Y-50317D01*
X82084Y-50681D01*
X82223Y-51017D01*
X82481Y-51275D01*
X82624Y-51335D01*
X81440Y-51335D01*
X81440Y-50712D01*
X81440Y-50287D01*
X81406Y-50119D01*
X81311Y-49976D01*
X81168Y-49880D01*
X81000Y-49847D01*
X80831Y-49880D01*
X80688Y-49976D01*
X80593Y-50119D01*
X80560Y-50287D01*
X80560Y-50712D01*
X80593Y-50880D01*
X80688Y-51023D01*
X80831Y-51119D01*
X81000Y-51152D01*
X81168Y-51119D01*
X81311Y-51023D01*
X81406Y-50880D01*
X81440Y-50712D01*
X81440Y-51335D01*
X80440Y-51335D01*
X80440Y-50712D01*
X80440Y-50287D01*
X80406Y-50119D01*
X80311Y-49976D01*
X80168Y-49880D01*
X80000Y-49847D01*
X79831Y-49880D01*
X79688Y-49976D01*
X79593Y-50119D01*
X79560Y-50287D01*
X79560Y-50712D01*
X79593Y-50880D01*
X79688Y-51023D01*
X79831Y-51119D01*
X80000Y-51152D01*
X80168Y-51119D01*
X80311Y-51023D01*
X80406Y-50880D01*
X80440Y-50712D01*
X80440Y-51335D01*
X79440Y-51335D01*
X79440Y-50712D01*
X79440Y-50287D01*
X79406Y-50119D01*
X79311Y-49976D01*
X79168Y-49880D01*
X79000Y-49847D01*
X78831Y-49880D01*
X78688Y-49976D01*
X78593Y-50119D01*
X78560Y-50287D01*
X78560Y-50712D01*
X78593Y-50880D01*
X78688Y-51023D01*
X78831Y-51119D01*
X79000Y-51152D01*
X79168Y-51119D01*
X79311Y-51023D01*
X79406Y-50880D01*
X79440Y-50712D01*
X79440Y-51335D01*
X78440Y-51335D01*
X78440Y-50712D01*
X78440Y-50287D01*
X78406Y-50119D01*
X78311Y-49976D01*
X78168Y-49880D01*
X78000Y-49847D01*
X77831Y-49880D01*
X77688Y-49976D01*
X77593Y-50119D01*
X77560Y-50287D01*
X77560Y-50712D01*
X77593Y-50880D01*
X77688Y-51023D01*
X77831Y-51119D01*
X78000Y-51152D01*
X78168Y-51119D01*
X78311Y-51023D01*
X78406Y-50880D01*
X78440Y-50712D01*
X78440Y-51335D01*
X77440Y-51335D01*
X77440Y-50712D01*
X77440Y-50287D01*
X77406Y-50119D01*
X77311Y-49976D01*
X77168Y-49880D01*
X77000Y-49847D01*
X76831Y-49880D01*
X76688Y-49976D01*
X76593Y-50119D01*
X76560Y-50287D01*
X76560Y-50712D01*
X76593Y-50880D01*
X76688Y-51023D01*
X76831Y-51119D01*
X77000Y-51152D01*
X77168Y-51119D01*
X77311Y-51023D01*
X77406Y-50880D01*
X77440Y-50712D01*
X77440Y-51335D01*
X76440Y-51335D01*
X76440Y-50712D01*
X76440Y-50287D01*
X76406Y-50119D01*
X76311Y-49976D01*
X76168Y-49880D01*
X76000Y-49847D01*
X75831Y-49880D01*
X75688Y-49976D01*
X75593Y-50119D01*
X75560Y-50287D01*
X75560Y-50712D01*
X75593Y-50880D01*
X75688Y-51023D01*
X75831Y-51119D01*
X76000Y-51152D01*
X76168Y-51119D01*
X76311Y-51023D01*
X76406Y-50880D01*
X76440Y-50712D01*
X76440Y-51335D01*
X75440Y-51335D01*
X75440Y-50712D01*
X75440Y-50287D01*
X75406Y-50119D01*
X75311Y-49976D01*
X75168Y-49880D01*
X75000Y-49847D01*
X74831Y-49880D01*
X74688Y-49976D01*
X74593Y-50119D01*
X74560Y-50287D01*
X74560Y-50712D01*
X74593Y-50880D01*
X74688Y-51023D01*
X74831Y-51119D01*
X75000Y-51152D01*
X75168Y-51119D01*
X75311Y-51023D01*
X75406Y-50880D01*
X75440Y-50712D01*
X75440Y-51335D01*
X74440Y-51335D01*
X74440Y-50712D01*
X74440Y-50287D01*
X74406Y-50119D01*
X74311Y-49976D01*
X74168Y-49880D01*
X74000Y-49847D01*
X73831Y-49880D01*
X73688Y-49976D01*
X73593Y-50119D01*
X73560Y-50287D01*
X73560Y-50712D01*
X73593Y-50880D01*
X73688Y-51023D01*
X73831Y-51119D01*
X74000Y-51152D01*
X74168Y-51119D01*
X74311Y-51023D01*
X74406Y-50880D01*
X74440Y-50712D01*
X74440Y-51335D01*
X72440Y-51335D01*
X72440Y-50712D01*
X72440Y-50287D01*
X72406Y-50119D01*
X72311Y-49976D01*
X72168Y-49880D01*
X72000Y-49847D01*
X71831Y-49880D01*
X71688Y-49976D01*
X71593Y-50119D01*
X71560Y-50287D01*
X71560Y-50712D01*
X71593Y-50880D01*
X71688Y-51023D01*
X71831Y-51119D01*
X72000Y-51152D01*
X72168Y-51119D01*
X72311Y-51023D01*
X72406Y-50880D01*
X72440Y-50712D01*
X72440Y-51335D01*
X71440Y-51335D01*
X71440Y-50712D01*
X71440Y-50287D01*
X71406Y-50119D01*
X71311Y-49976D01*
X71168Y-49880D01*
X71000Y-49847D01*
X70831Y-49880D01*
X70688Y-49976D01*
X70593Y-50119D01*
X70560Y-50287D01*
X70560Y-50712D01*
X70593Y-50880D01*
X70688Y-51023D01*
X70831Y-51119D01*
X71000Y-51152D01*
X71168Y-51119D01*
X71311Y-51023D01*
X71406Y-50880D01*
X71440Y-50712D01*
X71440Y-51335D01*
X70440Y-51335D01*
X70440Y-50712D01*
X70440Y-50287D01*
X70406Y-50119D01*
X70311Y-49976D01*
X70168Y-49880D01*
X70000Y-49847D01*
X69831Y-49880D01*
X69688Y-49976D01*
X69625Y-50071D01*
X69625Y-47872D01*
X69625Y-47402D01*
X69603Y-47350D01*
X69564Y-47311D01*
X69512Y-47290D01*
X69457Y-47289D01*
X68987Y-47289D01*
X68935Y-47311D01*
X68896Y-47350D01*
X68882Y-47384D01*
X68799Y-47301D01*
X68715Y-47245D01*
X68615Y-47225D01*
X68369Y-47225D01*
X68363Y-47218D01*
X68247Y-47170D01*
X68122Y-47170D01*
X68006Y-47218D01*
X67917Y-47307D01*
X67869Y-47422D01*
X67869Y-47548D01*
X67917Y-47663D01*
X68005Y-47752D01*
X68121Y-47800D01*
X68246Y-47800D01*
X68362Y-47752D01*
X68369Y-47745D01*
X68507Y-47745D01*
X68611Y-47848D01*
X68611Y-47848D01*
X68667Y-47886D01*
X68695Y-47905D01*
X68695Y-47905D01*
X68794Y-47924D01*
X68794Y-47925D01*
X68874Y-47925D01*
X68874Y-47927D01*
X68896Y-47979D01*
X68935Y-48018D01*
X68987Y-48039D01*
X69042Y-48040D01*
X69512Y-48040D01*
X69564Y-48018D01*
X69603Y-47979D01*
X69624Y-47927D01*
X69625Y-47872D01*
X69625Y-50071D01*
X69593Y-50119D01*
X69560Y-50287D01*
X69560Y-50712D01*
X69593Y-50880D01*
X69688Y-51023D01*
X69831Y-51119D01*
X70000Y-51152D01*
X70168Y-51119D01*
X70311Y-51023D01*
X70406Y-50880D01*
X70440Y-50712D01*
X70440Y-51335D01*
X69440Y-51335D01*
X69440Y-50712D01*
X69440Y-50287D01*
X69406Y-50119D01*
X69311Y-49976D01*
X69168Y-49880D01*
X69000Y-49847D01*
X68831Y-49880D01*
X68688Y-49976D01*
X68593Y-50119D01*
X68560Y-50287D01*
X68560Y-50712D01*
X68593Y-50880D01*
X68688Y-51023D01*
X68831Y-51119D01*
X69000Y-51152D01*
X69168Y-51119D01*
X69311Y-51023D01*
X69406Y-50880D01*
X69440Y-50712D01*
X69440Y-51335D01*
X68440Y-51335D01*
X68440Y-50712D01*
X68440Y-50287D01*
X68406Y-50119D01*
X68311Y-49976D01*
X68168Y-49880D01*
X68000Y-49847D01*
X67831Y-49880D01*
X67688Y-49976D01*
X67593Y-50119D01*
X67560Y-50287D01*
X67560Y-50712D01*
X67593Y-50880D01*
X67688Y-51023D01*
X67831Y-51119D01*
X68000Y-51152D01*
X68168Y-51119D01*
X68311Y-51023D01*
X68406Y-50880D01*
X68440Y-50712D01*
X68440Y-51335D01*
X67440Y-51335D01*
X67440Y-50712D01*
X67440Y-50287D01*
X67406Y-50119D01*
X67311Y-49976D01*
X67168Y-49880D01*
X67000Y-49847D01*
X66831Y-49880D01*
X66688Y-49976D01*
X66593Y-50119D01*
X66560Y-50287D01*
X66560Y-50712D01*
X66593Y-50880D01*
X66688Y-51023D01*
X66831Y-51119D01*
X67000Y-51152D01*
X67168Y-51119D01*
X67311Y-51023D01*
X67406Y-50880D01*
X67440Y-50712D01*
X67440Y-51335D01*
X66440Y-51335D01*
X66440Y-50712D01*
X66440Y-50287D01*
X66406Y-50119D01*
X66311Y-49976D01*
X66168Y-49880D01*
X66000Y-49847D01*
X65831Y-49880D01*
X65688Y-49976D01*
X65593Y-50119D01*
X65560Y-50287D01*
X65560Y-50712D01*
X65593Y-50880D01*
X65688Y-51023D01*
X65831Y-51119D01*
X66000Y-51152D01*
X66168Y-51119D01*
X66311Y-51023D01*
X66406Y-50880D01*
X66440Y-50712D01*
X66440Y-51335D01*
X65440Y-51335D01*
X65440Y-50712D01*
X65440Y-50287D01*
X65406Y-50119D01*
X65311Y-49976D01*
X65168Y-49880D01*
X65000Y-49847D01*
X64831Y-49880D01*
X64688Y-49976D01*
X64593Y-50119D01*
X64560Y-50287D01*
X64560Y-50712D01*
X64593Y-50880D01*
X64688Y-51023D01*
X64831Y-51119D01*
X65000Y-51152D01*
X65168Y-51119D01*
X65311Y-51023D01*
X65406Y-50880D01*
X65440Y-50712D01*
X65440Y-51335D01*
X63440Y-51335D01*
X63440Y-50712D01*
X63440Y-50287D01*
X63406Y-50119D01*
X63311Y-49976D01*
X63168Y-49880D01*
X63000Y-49847D01*
X62831Y-49880D01*
X62688Y-49976D01*
X62593Y-50119D01*
X62560Y-50287D01*
X62560Y-50712D01*
X62593Y-50880D01*
X62688Y-51023D01*
X62831Y-51119D01*
X63000Y-51152D01*
X63168Y-51119D01*
X63311Y-51023D01*
X63406Y-50880D01*
X63440Y-50712D01*
X63440Y-51335D01*
X62440Y-51335D01*
X62440Y-50712D01*
X62440Y-50287D01*
X62406Y-50119D01*
X62311Y-49976D01*
X62168Y-49880D01*
X62000Y-49847D01*
X61831Y-49880D01*
X61688Y-49976D01*
X61593Y-50119D01*
X61581Y-50180D01*
X61418Y-50180D01*
X61406Y-50119D01*
X61311Y-49976D01*
X61168Y-49880D01*
X61000Y-49847D01*
X60831Y-49880D01*
X60688Y-49976D01*
X60593Y-50119D01*
X60560Y-50287D01*
X60560Y-50712D01*
X60593Y-50880D01*
X60688Y-51023D01*
X60831Y-51119D01*
X61000Y-51152D01*
X61168Y-51119D01*
X61311Y-51023D01*
X61406Y-50880D01*
X61418Y-50820D01*
X61581Y-50820D01*
X61593Y-50880D01*
X61688Y-51023D01*
X61831Y-51119D01*
X62000Y-51152D01*
X62168Y-51119D01*
X62311Y-51023D01*
X62406Y-50880D01*
X62440Y-50712D01*
X62440Y-51335D01*
X60440Y-51335D01*
X60440Y-50712D01*
X60440Y-50287D01*
X60406Y-50119D01*
X60311Y-49976D01*
X60168Y-49880D01*
X60000Y-49847D01*
X59831Y-49880D01*
X59688Y-49976D01*
X59593Y-50119D01*
X59560Y-50287D01*
X59560Y-50712D01*
X59593Y-50880D01*
X59688Y-51023D01*
X59831Y-51119D01*
X60000Y-51152D01*
X60168Y-51119D01*
X60311Y-51023D01*
X60406Y-50880D01*
X60440Y-50712D01*
X60440Y-51335D01*
X59440Y-51335D01*
X59440Y-50712D01*
X59440Y-50287D01*
X59406Y-50119D01*
X59311Y-49976D01*
X59168Y-49880D01*
X59000Y-49847D01*
X58831Y-49880D01*
X58688Y-49976D01*
X58593Y-50119D01*
X58560Y-50287D01*
X58560Y-50712D01*
X58593Y-50880D01*
X58688Y-51023D01*
X58831Y-51119D01*
X59000Y-51152D01*
X59168Y-51119D01*
X59311Y-51023D01*
X59406Y-50880D01*
X59440Y-50712D01*
X59440Y-51335D01*
X58440Y-51335D01*
X58440Y-50712D01*
X58440Y-50287D01*
X58406Y-50119D01*
X58311Y-49976D01*
X58168Y-49880D01*
X58000Y-49847D01*
X57831Y-49880D01*
X57688Y-49976D01*
X57593Y-50119D01*
X57560Y-50287D01*
X57560Y-50712D01*
X57593Y-50880D01*
X57688Y-51023D01*
X57831Y-51119D01*
X58000Y-51152D01*
X58168Y-51119D01*
X58311Y-51023D01*
X58406Y-50880D01*
X58440Y-50712D01*
X58440Y-51335D01*
X57440Y-51335D01*
X57440Y-50712D01*
X57440Y-50287D01*
X57406Y-50119D01*
X57311Y-49976D01*
X57168Y-49880D01*
X57000Y-49847D01*
X56831Y-49880D01*
X56688Y-49976D01*
X56593Y-50119D01*
X56560Y-50287D01*
X56560Y-50712D01*
X56593Y-50880D01*
X56688Y-51023D01*
X56831Y-51119D01*
X57000Y-51152D01*
X57168Y-51119D01*
X57311Y-51023D01*
X57406Y-50880D01*
X57440Y-50712D01*
X57440Y-51335D01*
X56440Y-51335D01*
X56440Y-50712D01*
X56440Y-50287D01*
X56406Y-50119D01*
X56311Y-49976D01*
X56168Y-49880D01*
X56000Y-49847D01*
X55831Y-49880D01*
X55688Y-49976D01*
X55593Y-50119D01*
X55560Y-50287D01*
X55560Y-50712D01*
X55593Y-50880D01*
X55688Y-51023D01*
X55831Y-51119D01*
X56000Y-51152D01*
X56168Y-51119D01*
X56311Y-51023D01*
X56406Y-50880D01*
X56440Y-50712D01*
X56440Y-51335D01*
X50875Y-51335D01*
X51017Y-51276D01*
X51275Y-51018D01*
X51414Y-50682D01*
X51415Y-50318D01*
X51276Y-49982D01*
X51130Y-49836D01*
X64383Y-49836D01*
X64482Y-49816D01*
X64567Y-49760D01*
X66382Y-47945D01*
X66396Y-47979D01*
X66435Y-48018D01*
X66487Y-48039D01*
X66542Y-48040D01*
X67012Y-48040D01*
X67064Y-48018D01*
X67103Y-47979D01*
X67124Y-47927D01*
X67125Y-47872D01*
X67125Y-47657D01*
X67389Y-47392D01*
X67389Y-47392D01*
X67446Y-47308D01*
X67465Y-47209D01*
X67465Y-47209D01*
X67465Y-46365D01*
X67465Y-46365D01*
X67446Y-46266D01*
X67446Y-46266D01*
X67427Y-46238D01*
X67389Y-46182D01*
X67389Y-46182D01*
X67295Y-46087D01*
X67295Y-46077D01*
X67247Y-45961D01*
X67158Y-45873D01*
X67042Y-45825D01*
X66917Y-45824D01*
X66844Y-45854D01*
X66844Y-45746D01*
X66905Y-45685D01*
X66953Y-45614D01*
X66953Y-45614D01*
X66970Y-45530D01*
X66970Y-45490D01*
X67277Y-45490D01*
X67329Y-45468D01*
X67368Y-45429D01*
X67389Y-45377D01*
X67390Y-45322D01*
X67390Y-44889D01*
X68609Y-44889D01*
X68609Y-45377D01*
X68631Y-45429D01*
X68670Y-45468D01*
X68722Y-45489D01*
X68777Y-45490D01*
X69030Y-45490D01*
X69030Y-46459D01*
X68987Y-46459D01*
X68935Y-46481D01*
X68896Y-46520D01*
X68875Y-46572D01*
X68874Y-46627D01*
X68874Y-47097D01*
X68896Y-47149D01*
X68935Y-47188D01*
X68987Y-47209D01*
X69042Y-47210D01*
X69512Y-47210D01*
X69564Y-47188D01*
X69603Y-47149D01*
X69624Y-47097D01*
X69625Y-47042D01*
X69625Y-46572D01*
X69603Y-46520D01*
X69564Y-46481D01*
X69512Y-46460D01*
X69470Y-46459D01*
X69470Y-45490D01*
X69777Y-45490D01*
X69829Y-45468D01*
X69868Y-45429D01*
X69889Y-45377D01*
X69890Y-45322D01*
X69890Y-45032D01*
X70280Y-45422D01*
X70280Y-47140D01*
X70296Y-47224D01*
X70344Y-47295D01*
X71289Y-48240D01*
X71360Y-48287D01*
X71360Y-48287D01*
X71444Y-48304D01*
X75659Y-48304D01*
X75743Y-48287D01*
X75743Y-48287D01*
X75814Y-48240D01*
X78151Y-45903D01*
X78151Y-45929D01*
X78165Y-45964D01*
X78171Y-45990D01*
X78185Y-46011D01*
X78199Y-46045D01*
X78226Y-46072D01*
X78240Y-46093D01*
X81458Y-49312D01*
X81458Y-49312D01*
X81562Y-49381D01*
X81685Y-49405D01*
X83245Y-49405D01*
X83245Y-49405D01*
X83367Y-49381D01*
X83471Y-49312D01*
X85548Y-47235D01*
X85548Y-47235D01*
X85617Y-47131D01*
X85642Y-47009D01*
X85642Y-47009D01*
X85642Y-42950D01*
X86817Y-41775D01*
X86972Y-41839D01*
X87306Y-41840D01*
X87615Y-41712D01*
X87851Y-41476D01*
X87913Y-41328D01*
X88025Y-41440D01*
X88216Y-41519D01*
X88422Y-41520D01*
X88614Y-41441D01*
X88760Y-41294D01*
X88839Y-41103D01*
X88840Y-40897D01*
X88761Y-40705D01*
X88614Y-40559D01*
X88423Y-40480D01*
X88217Y-40479D01*
X88074Y-40538D01*
X88747Y-39865D01*
X88747Y-39865D01*
X88816Y-39762D01*
X88840Y-39639D01*
X88840Y-39639D01*
X88840Y-37120D01*
X88816Y-36998D01*
X88747Y-36894D01*
X87985Y-36132D01*
X87985Y-36097D01*
X88018Y-36064D01*
X88039Y-36012D01*
X88040Y-35957D01*
X88040Y-35487D01*
X88018Y-35435D01*
X87979Y-35396D01*
X87927Y-35375D01*
X87872Y-35374D01*
X87402Y-35374D01*
X87350Y-35396D01*
X87311Y-35435D01*
X87290Y-35487D01*
X87289Y-35542D01*
X87289Y-36012D01*
X87311Y-36064D01*
X87345Y-36098D01*
X87345Y-36265D01*
X87369Y-36387D01*
X87438Y-36491D01*
X88200Y-37253D01*
X88200Y-38712D01*
X88006Y-38518D01*
X87697Y-38390D01*
X87363Y-38389D01*
X87210Y-38453D01*
X87210Y-35957D01*
X87210Y-35487D01*
X87188Y-35435D01*
X87149Y-35396D01*
X87097Y-35375D01*
X87042Y-35374D01*
X86572Y-35374D01*
X86520Y-35396D01*
X86481Y-35435D01*
X86460Y-35487D01*
X86459Y-35530D01*
X85740Y-35530D01*
X85740Y-35222D01*
X85718Y-35170D01*
X85679Y-35131D01*
X85627Y-35110D01*
X85572Y-35109D01*
X85072Y-35109D01*
X85020Y-35131D01*
X84981Y-35170D01*
X84960Y-35222D01*
X84959Y-35277D01*
X84959Y-36277D01*
X84981Y-36329D01*
X85020Y-36368D01*
X85072Y-36389D01*
X85127Y-36390D01*
X85627Y-36390D01*
X85679Y-36368D01*
X85718Y-36329D01*
X85739Y-36277D01*
X85740Y-36222D01*
X85740Y-35970D01*
X86459Y-35970D01*
X86459Y-36012D01*
X86481Y-36064D01*
X86520Y-36103D01*
X86572Y-36124D01*
X86627Y-36125D01*
X87097Y-36125D01*
X87149Y-36103D01*
X87188Y-36064D01*
X87209Y-36012D01*
X87210Y-35957D01*
X87210Y-38453D01*
X87054Y-38517D01*
X86818Y-38753D01*
X86690Y-39062D01*
X86689Y-39396D01*
X86817Y-39705D01*
X87053Y-39941D01*
X87362Y-40069D01*
X87637Y-40070D01*
X87477Y-40230D01*
X87307Y-40160D01*
X86973Y-40159D01*
X86664Y-40287D01*
X86428Y-40523D01*
X86300Y-40832D01*
X86299Y-41166D01*
X86364Y-41322D01*
X85823Y-41864D01*
X85823Y-41188D01*
X85816Y-40775D01*
X85671Y-40426D01*
X85528Y-40336D01*
X85443Y-40421D01*
X85443Y-40251D01*
X85353Y-40108D01*
X84968Y-39956D01*
X84640Y-39962D01*
X84640Y-36202D01*
X84640Y-35297D01*
X84639Y-35202D01*
X84603Y-35113D01*
X84535Y-35046D01*
X84447Y-35009D01*
X84270Y-35010D01*
X84210Y-35070D01*
X84210Y-35690D01*
X84580Y-35690D01*
X84640Y-35630D01*
X84640Y-35297D01*
X84640Y-36202D01*
X84640Y-35870D01*
X84580Y-35810D01*
X84210Y-35810D01*
X84210Y-36430D01*
X84270Y-36490D01*
X84447Y-36490D01*
X84535Y-36453D01*
X84603Y-36386D01*
X84639Y-36297D01*
X84640Y-36202D01*
X84640Y-39962D01*
X84555Y-39963D01*
X84206Y-40108D01*
X84116Y-40251D01*
X84780Y-40915D01*
X85443Y-40251D01*
X85443Y-40421D01*
X84864Y-41000D01*
X85528Y-41663D01*
X85671Y-41573D01*
X85823Y-41188D01*
X85823Y-41864D01*
X85443Y-42243D01*
X85443Y-41748D01*
X84780Y-41084D01*
X84695Y-41169D01*
X84695Y-41000D01*
X84090Y-40394D01*
X84090Y-36430D01*
X84090Y-35810D01*
X84090Y-35690D01*
X84090Y-35070D01*
X84030Y-35010D01*
X83852Y-35009D01*
X83764Y-35046D01*
X83696Y-35113D01*
X83660Y-35202D01*
X83659Y-35297D01*
X83660Y-35630D01*
X83720Y-35690D01*
X84090Y-35690D01*
X84090Y-35810D01*
X83720Y-35810D01*
X83660Y-35870D01*
X83659Y-36202D01*
X83660Y-36297D01*
X83696Y-36386D01*
X83764Y-36453D01*
X83852Y-36490D01*
X84030Y-36490D01*
X84090Y-36430D01*
X84090Y-40394D01*
X84031Y-40336D01*
X83888Y-40426D01*
X83736Y-40811D01*
X83743Y-41224D01*
X83888Y-41573D01*
X84031Y-41663D01*
X84695Y-41000D01*
X84695Y-41169D01*
X84116Y-41748D01*
X84206Y-41891D01*
X84591Y-42043D01*
X85004Y-42036D01*
X85353Y-41891D01*
X85443Y-41748D01*
X85443Y-42243D01*
X85095Y-42591D01*
X85026Y-42695D01*
X85002Y-42817D01*
X85002Y-46876D01*
X83440Y-48438D01*
X83440Y-48412D01*
X83440Y-47412D01*
X83373Y-47251D01*
X83249Y-47127D01*
X83087Y-47060D01*
X82912Y-47059D01*
X82751Y-47126D01*
X82627Y-47250D01*
X82560Y-47412D01*
X82559Y-47587D01*
X82626Y-47748D01*
X82750Y-47872D01*
X82912Y-47939D01*
X83087Y-47940D01*
X83248Y-47873D01*
X83372Y-47749D01*
X83439Y-47587D01*
X83440Y-47412D01*
X83440Y-48412D01*
X83373Y-48251D01*
X83249Y-48127D01*
X83087Y-48060D01*
X82912Y-48059D01*
X82751Y-48126D01*
X82627Y-48250D01*
X82560Y-48412D01*
X82559Y-48587D01*
X82626Y-48748D01*
X82643Y-48765D01*
X82356Y-48765D01*
X82372Y-48749D01*
X82439Y-48587D01*
X82440Y-48412D01*
X82373Y-48251D01*
X82249Y-48127D01*
X82087Y-48060D01*
X81912Y-48059D01*
X81751Y-48126D01*
X81627Y-48250D01*
X81560Y-48412D01*
X81559Y-48508D01*
X78778Y-45727D01*
X80915Y-45727D01*
X81572Y-46383D01*
X81560Y-46412D01*
X81559Y-46587D01*
X81626Y-46748D01*
X81750Y-46872D01*
X81912Y-46939D01*
X82087Y-46940D01*
X82248Y-46873D01*
X82260Y-46862D01*
X82260Y-46928D01*
X82116Y-47072D01*
X82087Y-47060D01*
X81912Y-47059D01*
X81751Y-47126D01*
X81627Y-47250D01*
X81560Y-47412D01*
X81559Y-47587D01*
X81626Y-47748D01*
X81750Y-47872D01*
X81912Y-47939D01*
X82087Y-47940D01*
X82248Y-47873D01*
X82372Y-47749D01*
X82439Y-47587D01*
X82440Y-47412D01*
X82427Y-47383D01*
X82635Y-47175D01*
X82635Y-47175D01*
X82683Y-47104D01*
X82700Y-47019D01*
X82700Y-47019D01*
X82700Y-46822D01*
X82750Y-46872D01*
X82912Y-46939D01*
X83087Y-46940D01*
X83248Y-46873D01*
X83372Y-46749D01*
X83439Y-46587D01*
X83440Y-46412D01*
X83373Y-46251D01*
X83249Y-46127D01*
X83087Y-46060D01*
X82912Y-46059D01*
X82751Y-46126D01*
X82700Y-46177D01*
X82700Y-45822D01*
X82750Y-45872D01*
X82912Y-45939D01*
X83087Y-45940D01*
X83248Y-45873D01*
X83372Y-45749D01*
X83439Y-45587D01*
X83440Y-45412D01*
X83440Y-44412D01*
X83440Y-43412D01*
X83440Y-42412D01*
X83440Y-41412D01*
X83440Y-40412D01*
X83440Y-39412D01*
X83440Y-38412D01*
X83440Y-37412D01*
X83440Y-36412D01*
X83440Y-35412D01*
X83440Y-34412D01*
X83440Y-33412D01*
X83440Y-32412D01*
X83440Y-31412D01*
X83373Y-31251D01*
X83249Y-31127D01*
X83087Y-31060D01*
X82912Y-31059D01*
X82751Y-31126D01*
X82627Y-31250D01*
X82560Y-31412D01*
X82559Y-31587D01*
X82626Y-31748D01*
X82750Y-31872D01*
X82912Y-31939D01*
X83087Y-31940D01*
X83248Y-31873D01*
X83372Y-31749D01*
X83439Y-31587D01*
X83440Y-31412D01*
X83440Y-32412D01*
X83373Y-32251D01*
X83249Y-32127D01*
X83087Y-32060D01*
X82912Y-32059D01*
X82751Y-32126D01*
X82627Y-32250D01*
X82560Y-32412D01*
X82559Y-32587D01*
X82626Y-32748D01*
X82750Y-32872D01*
X82912Y-32939D01*
X83087Y-32940D01*
X83248Y-32873D01*
X83372Y-32749D01*
X83439Y-32587D01*
X83440Y-32412D01*
X83440Y-33412D01*
X83373Y-33251D01*
X83249Y-33127D01*
X83087Y-33060D01*
X82912Y-33059D01*
X82751Y-33126D01*
X82627Y-33250D01*
X82560Y-33412D01*
X82559Y-33587D01*
X82626Y-33748D01*
X82750Y-33872D01*
X82912Y-33939D01*
X83087Y-33940D01*
X83248Y-33873D01*
X83372Y-33749D01*
X83439Y-33587D01*
X83440Y-33412D01*
X83440Y-34412D01*
X83373Y-34251D01*
X83249Y-34127D01*
X83087Y-34060D01*
X82912Y-34059D01*
X82751Y-34126D01*
X82627Y-34250D01*
X82560Y-34412D01*
X82559Y-34587D01*
X82626Y-34748D01*
X82750Y-34872D01*
X82912Y-34939D01*
X83087Y-34940D01*
X83248Y-34873D01*
X83372Y-34749D01*
X83439Y-34587D01*
X83440Y-34412D01*
X83440Y-35412D01*
X83373Y-35251D01*
X83249Y-35127D01*
X83087Y-35060D01*
X82912Y-35059D01*
X82751Y-35126D01*
X82627Y-35250D01*
X82560Y-35412D01*
X82559Y-35587D01*
X82626Y-35748D01*
X82750Y-35872D01*
X82912Y-35939D01*
X83087Y-35940D01*
X83248Y-35873D01*
X83372Y-35749D01*
X83439Y-35587D01*
X83440Y-35412D01*
X83440Y-36412D01*
X83373Y-36251D01*
X83249Y-36127D01*
X83087Y-36060D01*
X82912Y-36059D01*
X82751Y-36126D01*
X82627Y-36250D01*
X82560Y-36412D01*
X82559Y-36587D01*
X82626Y-36748D01*
X82750Y-36872D01*
X82912Y-36939D01*
X83087Y-36940D01*
X83248Y-36873D01*
X83372Y-36749D01*
X83439Y-36587D01*
X83440Y-36412D01*
X83440Y-37412D01*
X83373Y-37251D01*
X83249Y-37127D01*
X83087Y-37060D01*
X82912Y-37059D01*
X82751Y-37126D01*
X82627Y-37250D01*
X82560Y-37412D01*
X82559Y-37587D01*
X82626Y-37748D01*
X82750Y-37872D01*
X82912Y-37939D01*
X83087Y-37940D01*
X83248Y-37873D01*
X83372Y-37749D01*
X83439Y-37587D01*
X83440Y-37412D01*
X83440Y-38412D01*
X83373Y-38251D01*
X83249Y-38127D01*
X83087Y-38060D01*
X82912Y-38059D01*
X82751Y-38126D01*
X82627Y-38250D01*
X82560Y-38412D01*
X82559Y-38587D01*
X82626Y-38748D01*
X82750Y-38872D01*
X82912Y-38939D01*
X83087Y-38940D01*
X83248Y-38873D01*
X83372Y-38749D01*
X83439Y-38587D01*
X83440Y-38412D01*
X83440Y-39412D01*
X83373Y-39251D01*
X83249Y-39127D01*
X83087Y-39060D01*
X82912Y-39059D01*
X82751Y-39126D01*
X82627Y-39250D01*
X82560Y-39412D01*
X82559Y-39587D01*
X82626Y-39748D01*
X82750Y-39872D01*
X82912Y-39939D01*
X83087Y-39940D01*
X83248Y-39873D01*
X83372Y-39749D01*
X83439Y-39587D01*
X83440Y-39412D01*
X83440Y-40412D01*
X83373Y-40251D01*
X83249Y-40127D01*
X83087Y-40060D01*
X82912Y-40059D01*
X82751Y-40126D01*
X82627Y-40250D01*
X82560Y-40412D01*
X82559Y-40587D01*
X82626Y-40748D01*
X82750Y-40872D01*
X82912Y-40939D01*
X83087Y-40940D01*
X83248Y-40873D01*
X83372Y-40749D01*
X83439Y-40587D01*
X83440Y-40412D01*
X83440Y-41412D01*
X83373Y-41251D01*
X83249Y-41127D01*
X83087Y-41060D01*
X82912Y-41059D01*
X82751Y-41126D01*
X82627Y-41250D01*
X82560Y-41412D01*
X82559Y-41587D01*
X82626Y-41748D01*
X82750Y-41872D01*
X82912Y-41939D01*
X83087Y-41940D01*
X83248Y-41873D01*
X83372Y-41749D01*
X83439Y-41587D01*
X83440Y-41412D01*
X83440Y-42412D01*
X83373Y-42251D01*
X83249Y-42127D01*
X83087Y-42060D01*
X82912Y-42059D01*
X82751Y-42126D01*
X82627Y-42250D01*
X82560Y-42412D01*
X82559Y-42587D01*
X82626Y-42748D01*
X82750Y-42872D01*
X82912Y-42939D01*
X83087Y-42940D01*
X83248Y-42873D01*
X83372Y-42749D01*
X83439Y-42587D01*
X83440Y-42412D01*
X83440Y-43412D01*
X83373Y-43251D01*
X83249Y-43127D01*
X83087Y-43060D01*
X82912Y-43059D01*
X82751Y-43126D01*
X82627Y-43250D01*
X82560Y-43412D01*
X82559Y-43587D01*
X82626Y-43748D01*
X82750Y-43872D01*
X82912Y-43939D01*
X83087Y-43940D01*
X83248Y-43873D01*
X83372Y-43749D01*
X83439Y-43587D01*
X83440Y-43412D01*
X83440Y-44412D01*
X83373Y-44251D01*
X83249Y-44127D01*
X83087Y-44060D01*
X82912Y-44059D01*
X82751Y-44126D01*
X82627Y-44250D01*
X82560Y-44412D01*
X82559Y-44587D01*
X82626Y-44748D01*
X82750Y-44872D01*
X82912Y-44939D01*
X83087Y-44940D01*
X83248Y-44873D01*
X83372Y-44749D01*
X83439Y-44587D01*
X83440Y-44412D01*
X83440Y-45412D01*
X83373Y-45251D01*
X83249Y-45127D01*
X83087Y-45060D01*
X82912Y-45059D01*
X82751Y-45126D01*
X82682Y-45195D01*
X82635Y-45126D01*
X82635Y-45126D01*
X82334Y-44824D01*
X82312Y-44809D01*
X82372Y-44749D01*
X82439Y-44587D01*
X82440Y-44412D01*
X82440Y-43412D01*
X82440Y-42412D01*
X82440Y-41412D01*
X82440Y-40412D01*
X82440Y-39412D01*
X82440Y-38412D01*
X82440Y-37412D01*
X82440Y-36412D01*
X82440Y-35412D01*
X82440Y-34412D01*
X82440Y-33412D01*
X82440Y-32412D01*
X82440Y-31412D01*
X82373Y-31251D01*
X82249Y-31127D01*
X82087Y-31060D01*
X81912Y-31059D01*
X81751Y-31126D01*
X81627Y-31250D01*
X81560Y-31412D01*
X81559Y-31587D01*
X81626Y-31748D01*
X81750Y-31872D01*
X81912Y-31939D01*
X82087Y-31940D01*
X82248Y-31873D01*
X82372Y-31749D01*
X82439Y-31587D01*
X82440Y-31412D01*
X82440Y-32412D01*
X82373Y-32251D01*
X82249Y-32127D01*
X82087Y-32060D01*
X81912Y-32059D01*
X81751Y-32126D01*
X81627Y-32250D01*
X81560Y-32412D01*
X81559Y-32587D01*
X81626Y-32748D01*
X81750Y-32872D01*
X81912Y-32939D01*
X82087Y-32940D01*
X82248Y-32873D01*
X82372Y-32749D01*
X82439Y-32587D01*
X82440Y-32412D01*
X82440Y-33412D01*
X82373Y-33251D01*
X82249Y-33127D01*
X82087Y-33060D01*
X81912Y-33059D01*
X81751Y-33126D01*
X81627Y-33250D01*
X81560Y-33412D01*
X81559Y-33587D01*
X81626Y-33748D01*
X81750Y-33872D01*
X81912Y-33939D01*
X82087Y-33940D01*
X82248Y-33873D01*
X82372Y-33749D01*
X82439Y-33587D01*
X82440Y-33412D01*
X82440Y-34412D01*
X82373Y-34251D01*
X82249Y-34127D01*
X82087Y-34060D01*
X81912Y-34059D01*
X81751Y-34126D01*
X81627Y-34250D01*
X81560Y-34412D01*
X81559Y-34587D01*
X81626Y-34748D01*
X81750Y-34872D01*
X81912Y-34939D01*
X82087Y-34940D01*
X82248Y-34873D01*
X82372Y-34749D01*
X82439Y-34587D01*
X82440Y-34412D01*
X82440Y-35412D01*
X82373Y-35251D01*
X82249Y-35127D01*
X82087Y-35060D01*
X81912Y-35059D01*
X81751Y-35126D01*
X81627Y-35250D01*
X81560Y-35412D01*
X81559Y-35587D01*
X81626Y-35748D01*
X81750Y-35872D01*
X81912Y-35939D01*
X82087Y-35940D01*
X82248Y-35873D01*
X82372Y-35749D01*
X82439Y-35587D01*
X82440Y-35412D01*
X82440Y-36412D01*
X82373Y-36251D01*
X82249Y-36127D01*
X82087Y-36060D01*
X81912Y-36059D01*
X81751Y-36126D01*
X81627Y-36250D01*
X81560Y-36412D01*
X81559Y-36587D01*
X81626Y-36748D01*
X81750Y-36872D01*
X81912Y-36939D01*
X82087Y-36940D01*
X82248Y-36873D01*
X82372Y-36749D01*
X82439Y-36587D01*
X82440Y-36412D01*
X82440Y-37412D01*
X82373Y-37251D01*
X82249Y-37127D01*
X82087Y-37060D01*
X81912Y-37059D01*
X81751Y-37126D01*
X81627Y-37250D01*
X81560Y-37412D01*
X81559Y-37587D01*
X81626Y-37748D01*
X81750Y-37872D01*
X81912Y-37939D01*
X82087Y-37940D01*
X82248Y-37873D01*
X82372Y-37749D01*
X82439Y-37587D01*
X82440Y-37412D01*
X82440Y-38412D01*
X82373Y-38251D01*
X82249Y-38127D01*
X82087Y-38060D01*
X81912Y-38059D01*
X81751Y-38126D01*
X81627Y-38250D01*
X81560Y-38412D01*
X81559Y-38587D01*
X81626Y-38748D01*
X81750Y-38872D01*
X81912Y-38939D01*
X82087Y-38940D01*
X82248Y-38873D01*
X82372Y-38749D01*
X82439Y-38587D01*
X82440Y-38412D01*
X82440Y-39412D01*
X82373Y-39251D01*
X82249Y-39127D01*
X82087Y-39060D01*
X81912Y-39059D01*
X81751Y-39126D01*
X81627Y-39250D01*
X81560Y-39412D01*
X81559Y-39587D01*
X81626Y-39748D01*
X81750Y-39872D01*
X81912Y-39939D01*
X82087Y-39940D01*
X82248Y-39873D01*
X82372Y-39749D01*
X82439Y-39587D01*
X82440Y-39412D01*
X82440Y-40412D01*
X82373Y-40251D01*
X82249Y-40127D01*
X82087Y-40060D01*
X81912Y-40059D01*
X81751Y-40126D01*
X81627Y-40250D01*
X81560Y-40412D01*
X81559Y-40587D01*
X81626Y-40748D01*
X81750Y-40872D01*
X81912Y-40939D01*
X82087Y-40940D01*
X82248Y-40873D01*
X82372Y-40749D01*
X82439Y-40587D01*
X82440Y-40412D01*
X82440Y-41412D01*
X82373Y-41251D01*
X82249Y-41127D01*
X82087Y-41060D01*
X81912Y-41059D01*
X81751Y-41126D01*
X81627Y-41250D01*
X81560Y-41412D01*
X81559Y-41587D01*
X81626Y-41748D01*
X81750Y-41872D01*
X81912Y-41939D01*
X82087Y-41940D01*
X82248Y-41873D01*
X82372Y-41749D01*
X82439Y-41587D01*
X82440Y-41412D01*
X82440Y-42412D01*
X82373Y-42251D01*
X82249Y-42127D01*
X82087Y-42060D01*
X81912Y-42059D01*
X81751Y-42126D01*
X81627Y-42250D01*
X81560Y-42412D01*
X81559Y-42587D01*
X81626Y-42748D01*
X81750Y-42872D01*
X81912Y-42939D01*
X82087Y-42940D01*
X82248Y-42873D01*
X82372Y-42749D01*
X82439Y-42587D01*
X82440Y-42412D01*
X82440Y-43412D01*
X82373Y-43251D01*
X82249Y-43127D01*
X82087Y-43060D01*
X81912Y-43059D01*
X81751Y-43126D01*
X81627Y-43250D01*
X81560Y-43412D01*
X81559Y-43587D01*
X81626Y-43748D01*
X81750Y-43872D01*
X81912Y-43939D01*
X82087Y-43940D01*
X82248Y-43873D01*
X82372Y-43749D01*
X82439Y-43587D01*
X82440Y-43412D01*
X82440Y-44412D01*
X82373Y-44251D01*
X82249Y-44127D01*
X82087Y-44060D01*
X81912Y-44059D01*
X81751Y-44126D01*
X81627Y-44250D01*
X81560Y-44412D01*
X81559Y-44587D01*
X81626Y-44748D01*
X81637Y-44760D01*
X80244Y-44760D01*
X79440Y-43955D01*
X79440Y-31712D01*
X79440Y-31287D01*
X79406Y-31119D01*
X79311Y-30976D01*
X79168Y-30880D01*
X79000Y-30847D01*
X78831Y-30880D01*
X78688Y-30976D01*
X78593Y-31119D01*
X78560Y-31287D01*
X78560Y-31712D01*
X78593Y-31880D01*
X78688Y-32023D01*
X78831Y-32119D01*
X79000Y-32152D01*
X79168Y-32119D01*
X79311Y-32023D01*
X79406Y-31880D01*
X79440Y-31712D01*
X79440Y-43955D01*
X78440Y-42955D01*
X78440Y-31712D01*
X78440Y-31287D01*
X78406Y-31119D01*
X78311Y-30976D01*
X78168Y-30880D01*
X78000Y-30847D01*
X77831Y-30880D01*
X77688Y-30976D01*
X77593Y-31119D01*
X77560Y-31287D01*
X77560Y-31712D01*
X77593Y-31880D01*
X77688Y-32023D01*
X77831Y-32119D01*
X78000Y-32152D01*
X78168Y-32119D01*
X78311Y-32023D01*
X78406Y-31880D01*
X78440Y-31712D01*
X78440Y-42955D01*
X77440Y-41955D01*
X77440Y-31712D01*
X77440Y-31287D01*
X77406Y-31119D01*
X77311Y-30976D01*
X77168Y-30880D01*
X77000Y-30847D01*
X76831Y-30880D01*
X76688Y-30976D01*
X76593Y-31119D01*
X76560Y-31287D01*
X76560Y-31712D01*
X76593Y-31880D01*
X76688Y-32023D01*
X76831Y-32119D01*
X77000Y-32152D01*
X77168Y-32119D01*
X77311Y-32023D01*
X77406Y-31880D01*
X77440Y-31712D01*
X77440Y-41955D01*
X76440Y-40955D01*
X76440Y-31712D01*
X76440Y-31287D01*
X76406Y-31119D01*
X76311Y-30976D01*
X76168Y-30880D01*
X76000Y-30847D01*
X75831Y-30880D01*
X75688Y-30976D01*
X75593Y-31119D01*
X75560Y-31287D01*
X75560Y-31712D01*
X75593Y-31880D01*
X75688Y-32023D01*
X75831Y-32119D01*
X76000Y-32152D01*
X76168Y-32119D01*
X76311Y-32023D01*
X76406Y-31880D01*
X76440Y-31712D01*
X76440Y-40955D01*
X75530Y-40046D01*
X75530Y-34698D01*
X75514Y-34614D01*
X75514Y-34614D01*
X75466Y-34543D01*
X75440Y-34516D01*
X75440Y-31712D01*
X75440Y-31287D01*
X75406Y-31119D01*
X75311Y-30976D01*
X75168Y-30880D01*
X75000Y-30847D01*
X74831Y-30880D01*
X74688Y-30976D01*
X74593Y-31119D01*
X74560Y-31287D01*
X74560Y-31712D01*
X74593Y-31880D01*
X74688Y-32023D01*
X74831Y-32119D01*
X75000Y-32152D01*
X75168Y-32119D01*
X75311Y-32023D01*
X75406Y-31880D01*
X75440Y-31712D01*
X75440Y-34516D01*
X74440Y-33516D01*
X74440Y-31712D01*
X74440Y-31287D01*
X74406Y-31119D01*
X74311Y-30976D01*
X74168Y-30880D01*
X74000Y-30847D01*
X73831Y-30880D01*
X73688Y-30976D01*
X73593Y-31119D01*
X73560Y-31287D01*
X73560Y-31712D01*
X73593Y-31880D01*
X73688Y-32023D01*
X73831Y-32119D01*
X74000Y-32152D01*
X74168Y-32119D01*
X74311Y-32023D01*
X74406Y-31880D01*
X74440Y-31712D01*
X74440Y-33516D01*
X73087Y-32164D01*
X73053Y-32141D01*
X73168Y-32119D01*
X73311Y-32023D01*
X73406Y-31880D01*
X73440Y-31712D01*
X73440Y-31287D01*
X73406Y-31119D01*
X73311Y-30976D01*
X73168Y-30880D01*
X73000Y-30847D01*
X72831Y-30880D01*
X72688Y-30976D01*
X72593Y-31119D01*
X72560Y-31287D01*
X72560Y-31712D01*
X72593Y-31880D01*
X72688Y-32023D01*
X72802Y-32099D01*
X72197Y-32099D01*
X72311Y-32023D01*
X72406Y-31880D01*
X72440Y-31712D01*
X72440Y-31287D01*
X72406Y-31119D01*
X72311Y-30976D01*
X72168Y-30880D01*
X72000Y-30847D01*
X71831Y-30880D01*
X71688Y-30976D01*
X71593Y-31119D01*
X71560Y-31287D01*
X71560Y-31712D01*
X71593Y-31880D01*
X71688Y-32023D01*
X71802Y-32099D01*
X70197Y-32099D01*
X70311Y-32023D01*
X70406Y-31880D01*
X70440Y-31712D01*
X70440Y-31287D01*
X70406Y-31119D01*
X70311Y-30976D01*
X70168Y-30880D01*
X70000Y-30847D01*
X69831Y-30880D01*
X69688Y-30976D01*
X69593Y-31119D01*
X69560Y-31287D01*
X69560Y-31712D01*
X69593Y-31880D01*
X69688Y-32023D01*
X69802Y-32099D01*
X69197Y-32099D01*
X69311Y-32023D01*
X69406Y-31880D01*
X69440Y-31712D01*
X69440Y-31287D01*
X69406Y-31119D01*
X69311Y-30976D01*
X69168Y-30880D01*
X69000Y-30847D01*
X68831Y-30880D01*
X68688Y-30976D01*
X68593Y-31119D01*
X68560Y-31287D01*
X68560Y-31712D01*
X68593Y-31880D01*
X68688Y-32023D01*
X68802Y-32099D01*
X68197Y-32099D01*
X68311Y-32023D01*
X68406Y-31880D01*
X68440Y-31712D01*
X68440Y-31287D01*
X68406Y-31119D01*
X68311Y-30976D01*
X68168Y-30880D01*
X68000Y-30847D01*
X67831Y-30880D01*
X67688Y-30976D01*
X67593Y-31119D01*
X67560Y-31287D01*
X67560Y-31712D01*
X67593Y-31880D01*
X67688Y-32023D01*
X67802Y-32099D01*
X67197Y-32099D01*
X67311Y-32023D01*
X67406Y-31880D01*
X67440Y-31712D01*
X67440Y-31287D01*
X67406Y-31119D01*
X67311Y-30976D01*
X67168Y-30880D01*
X67000Y-30847D01*
X66831Y-30880D01*
X66688Y-30976D01*
X66593Y-31119D01*
X66560Y-31287D01*
X66560Y-31712D01*
X66593Y-31880D01*
X66688Y-32023D01*
X66802Y-32099D01*
X66197Y-32099D01*
X66311Y-32023D01*
X66406Y-31880D01*
X66440Y-31712D01*
X66440Y-31287D01*
X66406Y-31119D01*
X66311Y-30976D01*
X66168Y-30880D01*
X66000Y-30847D01*
X65831Y-30880D01*
X65688Y-30976D01*
X65593Y-31119D01*
X65560Y-31287D01*
X65560Y-31712D01*
X65593Y-31880D01*
X65688Y-32023D01*
X65802Y-32099D01*
X65197Y-32099D01*
X65311Y-32023D01*
X65406Y-31880D01*
X65440Y-31712D01*
X65440Y-31287D01*
X65406Y-31119D01*
X65311Y-30976D01*
X65168Y-30880D01*
X65000Y-30847D01*
X64831Y-30880D01*
X64688Y-30976D01*
X64593Y-31119D01*
X64560Y-31287D01*
X64560Y-31712D01*
X64593Y-31880D01*
X64688Y-32023D01*
X64802Y-32099D01*
X64197Y-32099D01*
X64311Y-32023D01*
X64406Y-31880D01*
X64440Y-31712D01*
X64440Y-31287D01*
X64406Y-31119D01*
X64311Y-30976D01*
X64168Y-30880D01*
X64000Y-30847D01*
X63831Y-30880D01*
X63688Y-30976D01*
X63593Y-31119D01*
X63560Y-31287D01*
X63560Y-31712D01*
X63593Y-31880D01*
X63688Y-32023D01*
X63802Y-32099D01*
X63197Y-32099D01*
X63311Y-32023D01*
X63406Y-31880D01*
X63440Y-31712D01*
X63440Y-31287D01*
X63406Y-31119D01*
X63311Y-30976D01*
X63168Y-30880D01*
X63000Y-30847D01*
X62831Y-30880D01*
X62688Y-30976D01*
X62593Y-31119D01*
X62560Y-31287D01*
X62560Y-31712D01*
X62593Y-31880D01*
X62688Y-32023D01*
X62802Y-32099D01*
X62684Y-32099D01*
X62638Y-32052D01*
X62522Y-32004D01*
X62396Y-32004D01*
X62281Y-32052D01*
X62192Y-32141D01*
X62144Y-32256D01*
X62144Y-32382D01*
X62192Y-32498D01*
X62193Y-32499D01*
X61840Y-32499D01*
X61840Y-31712D01*
X61840Y-31287D01*
X61806Y-31119D01*
X61711Y-30976D01*
X61568Y-30880D01*
X61400Y-30847D01*
X61231Y-30880D01*
X61088Y-30976D01*
X60993Y-31119D01*
X60960Y-31287D01*
X60960Y-31712D01*
X60993Y-31880D01*
X61088Y-32023D01*
X61231Y-32119D01*
X61400Y-32152D01*
X61568Y-32119D01*
X61711Y-32023D01*
X61806Y-31880D01*
X61840Y-31712D01*
X61840Y-32499D01*
X60840Y-32499D01*
X60840Y-31712D01*
X60840Y-31287D01*
X60806Y-31119D01*
X60711Y-30976D01*
X60568Y-30880D01*
X60400Y-30847D01*
X60231Y-30880D01*
X60088Y-30976D01*
X59993Y-31119D01*
X59960Y-31287D01*
X59960Y-31712D01*
X59993Y-31880D01*
X60088Y-32023D01*
X60231Y-32119D01*
X60400Y-32152D01*
X60568Y-32119D01*
X60711Y-32023D01*
X60806Y-31880D01*
X60840Y-31712D01*
X60840Y-32499D01*
X59840Y-32499D01*
X59840Y-31712D01*
X59840Y-31287D01*
X59806Y-31119D01*
X59711Y-30976D01*
X59568Y-30880D01*
X59400Y-30847D01*
X59231Y-30880D01*
X59088Y-30976D01*
X58993Y-31119D01*
X58960Y-31287D01*
X58960Y-31712D01*
X58993Y-31880D01*
X59088Y-32023D01*
X59231Y-32119D01*
X59400Y-32152D01*
X59568Y-32119D01*
X59711Y-32023D01*
X59806Y-31880D01*
X59840Y-31712D01*
X59840Y-32499D01*
X58840Y-32499D01*
X58840Y-31712D01*
X58840Y-31287D01*
X58806Y-31119D01*
X58711Y-30976D01*
X58568Y-30880D01*
X58400Y-30847D01*
X58231Y-30880D01*
X58088Y-30976D01*
X57993Y-31119D01*
X57960Y-31287D01*
X57960Y-31712D01*
X57993Y-31880D01*
X58088Y-32023D01*
X58231Y-32119D01*
X58400Y-32152D01*
X58568Y-32119D01*
X58711Y-32023D01*
X58806Y-31880D01*
X58840Y-31712D01*
X58840Y-32499D01*
X57840Y-32499D01*
X57840Y-31712D01*
X57840Y-31287D01*
X57806Y-31119D01*
X57711Y-30976D01*
X57568Y-30880D01*
X57400Y-30847D01*
X57231Y-30880D01*
X57088Y-30976D01*
X56993Y-31119D01*
X56960Y-31287D01*
X56960Y-31712D01*
X56993Y-31880D01*
X57088Y-32023D01*
X57231Y-32119D01*
X57400Y-32152D01*
X57568Y-32119D01*
X57711Y-32023D01*
X57806Y-31880D01*
X57840Y-31712D01*
X57840Y-32499D01*
X56840Y-32499D01*
X56840Y-31712D01*
X56840Y-31287D01*
X56806Y-31119D01*
X56711Y-30976D01*
X56568Y-30880D01*
X56400Y-30847D01*
X56231Y-30880D01*
X56088Y-30976D01*
X55993Y-31119D01*
X55960Y-31287D01*
X55960Y-31712D01*
X55993Y-31880D01*
X56088Y-32023D01*
X56231Y-32119D01*
X56400Y-32152D01*
X56568Y-32119D01*
X56711Y-32023D01*
X56806Y-31880D01*
X56840Y-31712D01*
X56840Y-32499D01*
X55840Y-32499D01*
X55840Y-31712D01*
X55840Y-31287D01*
X55806Y-31119D01*
X55711Y-30976D01*
X55568Y-30880D01*
X55400Y-30847D01*
X55231Y-30880D01*
X55088Y-30976D01*
X54993Y-31119D01*
X54960Y-31287D01*
X54960Y-31712D01*
X54993Y-31880D01*
X55088Y-32023D01*
X55231Y-32119D01*
X55400Y-32152D01*
X55568Y-32119D01*
X55711Y-32023D01*
X55806Y-31880D01*
X55840Y-31712D01*
X55840Y-32499D01*
X54840Y-32499D01*
X54840Y-31712D01*
X54840Y-31287D01*
X54806Y-31119D01*
X54711Y-30976D01*
X54568Y-30880D01*
X54400Y-30847D01*
X54231Y-30880D01*
X54088Y-30976D01*
X53993Y-31119D01*
X53960Y-31287D01*
X53960Y-31712D01*
X53993Y-31880D01*
X54088Y-32023D01*
X54231Y-32119D01*
X54400Y-32152D01*
X54568Y-32119D01*
X54711Y-32023D01*
X54806Y-31880D01*
X54840Y-31712D01*
X54840Y-32499D01*
X53840Y-32499D01*
X53840Y-31712D01*
X53840Y-31287D01*
X53806Y-31119D01*
X53711Y-30976D01*
X53568Y-30880D01*
X53400Y-30847D01*
X53231Y-30880D01*
X53088Y-30976D01*
X52993Y-31119D01*
X52960Y-31287D01*
X52960Y-31712D01*
X52993Y-31880D01*
X53088Y-32023D01*
X53231Y-32119D01*
X53400Y-32152D01*
X53568Y-32119D01*
X53711Y-32023D01*
X53806Y-31880D01*
X53840Y-31712D01*
X53840Y-32499D01*
X52840Y-32499D01*
X52840Y-31712D01*
X52840Y-31287D01*
X52806Y-31119D01*
X52711Y-30976D01*
X52568Y-30880D01*
X52400Y-30847D01*
X52231Y-30880D01*
X52088Y-30976D01*
X51993Y-31119D01*
X51960Y-31287D01*
X51960Y-31712D01*
X51993Y-31880D01*
X52088Y-32023D01*
X52231Y-32119D01*
X52400Y-32152D01*
X52568Y-32119D01*
X52711Y-32023D01*
X52806Y-31880D01*
X52840Y-31712D01*
X52840Y-32499D01*
X50990Y-32499D01*
X50890Y-32519D01*
X50862Y-32538D01*
X50806Y-32575D01*
X49072Y-34310D01*
X48912Y-34309D01*
X48751Y-34376D01*
X48627Y-34500D01*
X48560Y-34662D01*
X48559Y-34837D01*
X48626Y-34998D01*
X48750Y-35122D01*
X48912Y-35189D01*
X49087Y-35190D01*
X49248Y-35123D01*
X49372Y-34999D01*
X49439Y-34837D01*
X49440Y-34677D01*
X50048Y-34068D01*
X50010Y-34162D01*
X50009Y-34337D01*
X50076Y-34498D01*
X50200Y-34622D01*
X50362Y-34689D01*
X50537Y-34690D01*
X50698Y-34623D01*
X50822Y-34499D01*
X50889Y-34337D01*
X50890Y-34177D01*
X51130Y-33937D01*
X51130Y-34447D01*
X51077Y-34500D01*
X51010Y-34662D01*
X51009Y-34837D01*
X51076Y-34998D01*
X51200Y-35122D01*
X51362Y-35189D01*
X51537Y-35190D01*
X51698Y-35123D01*
X51822Y-34999D01*
X51889Y-34837D01*
X51890Y-34662D01*
X51823Y-34501D01*
X51770Y-34447D01*
X51770Y-33939D01*
X51957Y-34127D01*
X51957Y-34915D01*
X51950Y-34922D01*
X51902Y-35038D01*
X51902Y-35163D01*
X51950Y-35279D01*
X52039Y-35367D01*
X52154Y-35415D01*
X52280Y-35416D01*
X52395Y-35368D01*
X52484Y-35279D01*
X52532Y-35163D01*
X52532Y-35038D01*
X52484Y-34922D01*
X52477Y-34915D01*
X52477Y-34019D01*
X52461Y-33936D01*
X52457Y-33920D01*
X52457Y-33920D01*
X52401Y-33835D01*
X52401Y-33835D01*
X51788Y-33222D01*
X51703Y-33166D01*
X51604Y-33146D01*
X51293Y-33146D01*
X51194Y-33166D01*
X51166Y-33184D01*
X51109Y-33222D01*
X50522Y-33810D01*
X50362Y-33809D01*
X50268Y-33848D01*
X51097Y-33019D01*
X52657Y-33019D01*
X52627Y-33050D01*
X52560Y-33212D01*
X52559Y-33387D01*
X52626Y-33548D01*
X52750Y-33672D01*
X52912Y-33739D01*
X53087Y-33740D01*
X53248Y-33673D01*
X53372Y-33549D01*
X53439Y-33387D01*
X53440Y-33212D01*
X53373Y-33051D01*
X53341Y-33019D01*
X66008Y-33019D01*
X66029Y-33040D01*
X66029Y-33040D01*
X66113Y-33096D01*
X66201Y-33113D01*
X66201Y-33113D01*
X66434Y-33347D01*
X66434Y-33357D01*
X66482Y-33473D01*
X66571Y-33561D01*
X66687Y-33610D01*
X66812Y-33610D01*
X66928Y-33562D01*
X66935Y-33555D01*
X73357Y-33555D01*
X74462Y-34659D01*
X74370Y-34660D01*
X74310Y-34720D01*
X74310Y-35090D01*
X74317Y-35090D01*
X74317Y-35210D01*
X74310Y-35210D01*
X74310Y-35580D01*
X74370Y-35640D01*
X74702Y-35640D01*
X74727Y-35640D01*
X74727Y-35959D01*
X74722Y-35959D01*
X74190Y-35959D01*
X74190Y-35580D01*
X74190Y-35210D01*
X74190Y-35090D01*
X74190Y-34720D01*
X74130Y-34660D01*
X73797Y-34659D01*
X73702Y-34660D01*
X73613Y-34696D01*
X73546Y-34764D01*
X73509Y-34852D01*
X73510Y-35030D01*
X73570Y-35090D01*
X74190Y-35090D01*
X74190Y-35210D01*
X73570Y-35210D01*
X73510Y-35270D01*
X73509Y-35447D01*
X73546Y-35535D01*
X73613Y-35603D01*
X73702Y-35639D01*
X73797Y-35640D01*
X74130Y-35640D01*
X74190Y-35580D01*
X74190Y-35959D01*
X73722Y-35959D01*
X73670Y-35981D01*
X73631Y-36020D01*
X73610Y-36072D01*
X73609Y-36127D01*
X73609Y-36627D01*
X73631Y-36679D01*
X73670Y-36718D01*
X73722Y-36739D01*
X73777Y-36740D01*
X74030Y-36740D01*
X74030Y-37709D01*
X73987Y-37709D01*
X73935Y-37731D01*
X73896Y-37770D01*
X73875Y-37822D01*
X73874Y-37877D01*
X73874Y-38347D01*
X73896Y-38399D01*
X73935Y-38438D01*
X73987Y-38459D01*
X74042Y-38460D01*
X74337Y-38460D01*
X74257Y-38539D01*
X73987Y-38539D01*
X73935Y-38561D01*
X73896Y-38600D01*
X73875Y-38652D01*
X73874Y-38707D01*
X73874Y-39177D01*
X73896Y-39229D01*
X73935Y-39268D01*
X73987Y-39289D01*
X74042Y-39290D01*
X74512Y-39290D01*
X74564Y-39268D01*
X74603Y-39229D01*
X74624Y-39177D01*
X74625Y-39122D01*
X74625Y-38907D01*
X75090Y-38441D01*
X75090Y-39917D01*
X72910Y-39917D01*
X72825Y-39933D01*
X72754Y-39981D01*
X72692Y-40043D01*
X72490Y-40043D01*
X72490Y-35447D01*
X72490Y-34852D01*
X72453Y-34764D01*
X72386Y-34696D01*
X72297Y-34660D01*
X72202Y-34659D01*
X71870Y-34660D01*
X71810Y-34720D01*
X71810Y-35090D01*
X72430Y-35090D01*
X72490Y-35030D01*
X72490Y-34852D01*
X72490Y-35447D01*
X72490Y-35270D01*
X72430Y-35210D01*
X71810Y-35210D01*
X71810Y-35580D01*
X71870Y-35640D01*
X72202Y-35640D01*
X72297Y-35639D01*
X72386Y-35603D01*
X72453Y-35535D01*
X72490Y-35447D01*
X72490Y-40043D01*
X66770Y-40043D01*
X68262Y-38551D01*
X68262Y-38551D01*
X68274Y-38534D01*
X68838Y-39098D01*
X68838Y-39098D01*
X68874Y-39123D01*
X68874Y-39177D01*
X68896Y-39229D01*
X68935Y-39268D01*
X68987Y-39289D01*
X69042Y-39290D01*
X69512Y-39290D01*
X69564Y-39268D01*
X69603Y-39229D01*
X69624Y-39177D01*
X69625Y-39122D01*
X69625Y-38652D01*
X69603Y-38600D01*
X69564Y-38561D01*
X69512Y-38540D01*
X69457Y-38539D01*
X69015Y-38539D01*
X68383Y-37908D01*
X68345Y-37817D01*
X68257Y-37729D01*
X68141Y-37681D01*
X68016Y-37681D01*
X67900Y-37728D01*
X67811Y-37817D01*
X67763Y-37933D01*
X67763Y-38058D01*
X67811Y-38174D01*
X67818Y-38181D01*
X67818Y-38260D01*
X67125Y-38953D01*
X67125Y-38652D01*
X67103Y-38600D01*
X67064Y-38561D01*
X67012Y-38540D01*
X66957Y-38539D01*
X66554Y-38539D01*
X66554Y-38460D01*
X67012Y-38460D01*
X67064Y-38438D01*
X67103Y-38399D01*
X67124Y-38347D01*
X67125Y-38292D01*
X67125Y-37822D01*
X67103Y-37770D01*
X67064Y-37731D01*
X67012Y-37710D01*
X66970Y-37709D01*
X66970Y-36780D01*
X66970Y-36740D01*
X67277Y-36740D01*
X67329Y-36718D01*
X67368Y-36679D01*
X67389Y-36627D01*
X67390Y-36572D01*
X67390Y-36139D01*
X68609Y-36139D01*
X68609Y-36627D01*
X68631Y-36679D01*
X68670Y-36718D01*
X68722Y-36739D01*
X68777Y-36740D01*
X69030Y-36740D01*
X69030Y-37709D01*
X68987Y-37709D01*
X68935Y-37731D01*
X68896Y-37770D01*
X68875Y-37822D01*
X68874Y-37877D01*
X68874Y-38347D01*
X68896Y-38399D01*
X68935Y-38438D01*
X68987Y-38459D01*
X69042Y-38460D01*
X69512Y-38460D01*
X69564Y-38438D01*
X69603Y-38399D01*
X69624Y-38347D01*
X69625Y-38292D01*
X69625Y-37822D01*
X69603Y-37770D01*
X69564Y-37731D01*
X69512Y-37710D01*
X69470Y-37709D01*
X69470Y-36740D01*
X69739Y-36740D01*
X69739Y-37164D01*
X69759Y-37263D01*
X69815Y-37348D01*
X71374Y-38907D01*
X71374Y-39177D01*
X71396Y-39229D01*
X71435Y-39268D01*
X71487Y-39289D01*
X71542Y-39290D01*
X72012Y-39290D01*
X72064Y-39268D01*
X72103Y-39229D01*
X72124Y-39177D01*
X72125Y-39122D01*
X72125Y-38652D01*
X72103Y-38600D01*
X72064Y-38561D01*
X72012Y-38540D01*
X71957Y-38539D01*
X71742Y-38539D01*
X71662Y-38460D01*
X72012Y-38460D01*
X72064Y-38438D01*
X72103Y-38399D01*
X72124Y-38347D01*
X72125Y-38292D01*
X72125Y-37822D01*
X72103Y-37770D01*
X72064Y-37731D01*
X72012Y-37710D01*
X71970Y-37709D01*
X71970Y-36740D01*
X72277Y-36740D01*
X72329Y-36718D01*
X72368Y-36679D01*
X72389Y-36627D01*
X72390Y-36572D01*
X72390Y-36072D01*
X72368Y-36020D01*
X72329Y-35981D01*
X72277Y-35960D01*
X72222Y-35959D01*
X71690Y-35959D01*
X71690Y-35580D01*
X71690Y-35210D01*
X71690Y-35090D01*
X71690Y-34720D01*
X71630Y-34660D01*
X71297Y-34659D01*
X71202Y-34660D01*
X71113Y-34696D01*
X71046Y-34764D01*
X71009Y-34852D01*
X71010Y-35030D01*
X71070Y-35090D01*
X71690Y-35090D01*
X71690Y-35210D01*
X71070Y-35210D01*
X71010Y-35270D01*
X71009Y-35447D01*
X71046Y-35535D01*
X71113Y-35603D01*
X71202Y-35639D01*
X71297Y-35640D01*
X71630Y-35640D01*
X71690Y-35580D01*
X71690Y-35959D01*
X71222Y-35959D01*
X71170Y-35981D01*
X71131Y-36020D01*
X71110Y-36072D01*
X71109Y-36127D01*
X71109Y-36627D01*
X71131Y-36679D01*
X71170Y-36718D01*
X71222Y-36739D01*
X71277Y-36740D01*
X71530Y-36740D01*
X71530Y-37709D01*
X71487Y-37709D01*
X71435Y-37731D01*
X71396Y-37770D01*
X71375Y-37822D01*
X71374Y-37877D01*
X71374Y-38172D01*
X70259Y-37056D01*
X70259Y-36036D01*
X70239Y-35937D01*
X70183Y-35852D01*
X70183Y-35852D01*
X70026Y-35695D01*
X69942Y-35639D01*
X69845Y-35620D01*
X69886Y-35603D01*
X69953Y-35535D01*
X69990Y-35447D01*
X69990Y-34852D01*
X69953Y-34764D01*
X69886Y-34696D01*
X69797Y-34660D01*
X69702Y-34659D01*
X69370Y-34660D01*
X69310Y-34720D01*
X69310Y-35090D01*
X69930Y-35090D01*
X69990Y-35030D01*
X69990Y-34852D01*
X69990Y-35447D01*
X69990Y-35270D01*
X69930Y-35210D01*
X69310Y-35210D01*
X69310Y-35217D01*
X69190Y-35217D01*
X69190Y-35210D01*
X69190Y-35090D01*
X69190Y-34720D01*
X69130Y-34660D01*
X68797Y-34659D01*
X68702Y-34660D01*
X68613Y-34696D01*
X68546Y-34764D01*
X68509Y-34852D01*
X68510Y-35030D01*
X68570Y-35090D01*
X69190Y-35090D01*
X69190Y-35210D01*
X68570Y-35210D01*
X68510Y-35270D01*
X68509Y-35447D01*
X68546Y-35535D01*
X68613Y-35603D01*
X68653Y-35619D01*
X67945Y-35619D01*
X67945Y-34336D01*
X67940Y-34311D01*
X67940Y-34274D01*
X67925Y-34239D01*
X67920Y-34214D01*
X67906Y-34192D01*
X67892Y-34158D01*
X67865Y-34131D01*
X67851Y-34110D01*
X67830Y-34096D01*
X67803Y-34069D01*
X67769Y-34055D01*
X67747Y-34041D01*
X67722Y-34036D01*
X67688Y-34021D01*
X67650Y-34021D01*
X67625Y-34016D01*
X64581Y-34016D01*
X64458Y-34041D01*
X64354Y-34110D01*
X64189Y-34276D01*
X64174Y-34297D01*
X64148Y-34323D01*
X64133Y-34358D01*
X64119Y-34379D01*
X64114Y-34405D01*
X64100Y-34439D01*
X64100Y-34477D01*
X64095Y-34502D01*
X64100Y-34527D01*
X64100Y-34564D01*
X64114Y-34599D01*
X64119Y-34624D01*
X64133Y-34646D01*
X64146Y-34676D01*
X64130Y-34660D01*
X63797Y-34659D01*
X63702Y-34660D01*
X63613Y-34696D01*
X63546Y-34764D01*
X63509Y-34852D01*
X63510Y-35030D01*
X63570Y-35090D01*
X64190Y-35090D01*
X64190Y-35082D01*
X64310Y-35082D01*
X64310Y-35090D01*
X64930Y-35090D01*
X64990Y-35030D01*
X64990Y-34852D01*
X64953Y-34764D01*
X64886Y-34696D01*
X64797Y-34660D01*
X64710Y-34659D01*
X64713Y-34656D01*
X67625Y-34656D01*
X67650Y-34651D01*
X67687Y-34651D01*
X67722Y-34637D01*
X67747Y-34632D01*
X67768Y-34618D01*
X67803Y-34603D01*
X67830Y-34577D01*
X67851Y-34562D01*
X67865Y-34541D01*
X67892Y-34515D01*
X67906Y-34480D01*
X67920Y-34459D01*
X67925Y-34434D01*
X67940Y-34399D01*
X67940Y-34361D01*
X67945Y-34336D01*
X67945Y-35619D01*
X67476Y-35619D01*
X67448Y-35550D01*
X67443Y-35545D01*
X67453Y-35535D01*
X67490Y-35447D01*
X67490Y-34852D01*
X67453Y-34764D01*
X67386Y-34696D01*
X67297Y-34660D01*
X67202Y-34659D01*
X66870Y-34660D01*
X66810Y-34720D01*
X66810Y-35090D01*
X67430Y-35090D01*
X67490Y-35030D01*
X67490Y-34852D01*
X67490Y-35447D01*
X67490Y-35270D01*
X67430Y-35210D01*
X66810Y-35210D01*
X66810Y-35217D01*
X66690Y-35217D01*
X66690Y-35210D01*
X66690Y-35090D01*
X66690Y-34720D01*
X66630Y-34660D01*
X66297Y-34659D01*
X66202Y-34660D01*
X66113Y-34696D01*
X66046Y-34764D01*
X66009Y-34852D01*
X66010Y-35030D01*
X66070Y-35090D01*
X66690Y-35090D01*
X66690Y-35210D01*
X66070Y-35210D01*
X66010Y-35270D01*
X66009Y-35447D01*
X66046Y-35535D01*
X66113Y-35603D01*
X66153Y-35619D01*
X66131Y-35619D01*
X66031Y-35639D01*
X65947Y-35695D01*
X64990Y-36653D01*
X64990Y-35447D01*
X64990Y-35270D01*
X64930Y-35210D01*
X64310Y-35210D01*
X64310Y-35580D01*
X64370Y-35640D01*
X64702Y-35640D01*
X64797Y-35639D01*
X64886Y-35603D01*
X64953Y-35535D01*
X64990Y-35447D01*
X64990Y-36653D01*
X64786Y-36857D01*
X64729Y-36941D01*
X64724Y-36967D01*
X64724Y-36967D01*
X64677Y-36896D01*
X64521Y-36740D01*
X64777Y-36740D01*
X64829Y-36718D01*
X64868Y-36679D01*
X64889Y-36627D01*
X64890Y-36572D01*
X64890Y-36072D01*
X64868Y-36020D01*
X64829Y-35981D01*
X64777Y-35960D01*
X64722Y-35959D01*
X64190Y-35959D01*
X64190Y-35580D01*
X64190Y-35210D01*
X63570Y-35210D01*
X63510Y-35270D01*
X63509Y-35447D01*
X63546Y-35535D01*
X63613Y-35603D01*
X63702Y-35639D01*
X63797Y-35640D01*
X64130Y-35640D01*
X64190Y-35580D01*
X64190Y-35959D01*
X63722Y-35959D01*
X63670Y-35981D01*
X63631Y-36020D01*
X63610Y-36072D01*
X63609Y-36127D01*
X63609Y-36627D01*
X63631Y-36679D01*
X63670Y-36718D01*
X63722Y-36739D01*
X63777Y-36740D01*
X64030Y-36740D01*
X64030Y-36780D01*
X64046Y-36864D01*
X64094Y-36935D01*
X64125Y-36966D01*
X64094Y-36966D01*
X63978Y-37014D01*
X63971Y-37021D01*
X63900Y-37021D01*
X62575Y-35695D01*
X62490Y-35639D01*
X62391Y-35619D01*
X62346Y-35619D01*
X62386Y-35603D01*
X62453Y-35535D01*
X62490Y-35447D01*
X62490Y-34852D01*
X62453Y-34764D01*
X62386Y-34696D01*
X62297Y-34660D01*
X62202Y-34659D01*
X61870Y-34660D01*
X61810Y-34720D01*
X61810Y-35090D01*
X62430Y-35090D01*
X62490Y-35030D01*
X62490Y-34852D01*
X62490Y-35447D01*
X62490Y-35270D01*
X62430Y-35210D01*
X61810Y-35210D01*
X61810Y-35217D01*
X61690Y-35217D01*
X61690Y-35210D01*
X61690Y-35090D01*
X61690Y-34720D01*
X61630Y-34660D01*
X61297Y-34659D01*
X61202Y-34660D01*
X61113Y-34696D01*
X61046Y-34764D01*
X61009Y-34852D01*
X61010Y-35030D01*
X61070Y-35090D01*
X61690Y-35090D01*
X61690Y-35210D01*
X61070Y-35210D01*
X61010Y-35270D01*
X61009Y-35447D01*
X61046Y-35535D01*
X61113Y-35603D01*
X61153Y-35619D01*
X59846Y-35619D01*
X59886Y-35603D01*
X59953Y-35535D01*
X59990Y-35447D01*
X59990Y-34852D01*
X59953Y-34764D01*
X59886Y-34696D01*
X59797Y-34660D01*
X59702Y-34659D01*
X59370Y-34660D01*
X59310Y-34720D01*
X59310Y-35090D01*
X59930Y-35090D01*
X59990Y-35030D01*
X59990Y-34852D01*
X59990Y-35447D01*
X59990Y-35270D01*
X59930Y-35210D01*
X59310Y-35210D01*
X59310Y-35217D01*
X59190Y-35217D01*
X59190Y-35210D01*
X59190Y-35090D01*
X59190Y-34720D01*
X59130Y-34660D01*
X58797Y-34659D01*
X58702Y-34660D01*
X58613Y-34696D01*
X58546Y-34764D01*
X58509Y-34852D01*
X58510Y-35030D01*
X58570Y-35090D01*
X59190Y-35090D01*
X59190Y-35210D01*
X58570Y-35210D01*
X58510Y-35270D01*
X58509Y-35447D01*
X58546Y-35535D01*
X58613Y-35603D01*
X58653Y-35619D01*
X57346Y-35619D01*
X57386Y-35603D01*
X57453Y-35535D01*
X57490Y-35447D01*
X57490Y-34852D01*
X57453Y-34764D01*
X57386Y-34696D01*
X57297Y-34660D01*
X57202Y-34659D01*
X56870Y-34660D01*
X56810Y-34720D01*
X56810Y-35090D01*
X57430Y-35090D01*
X57490Y-35030D01*
X57490Y-34852D01*
X57490Y-35447D01*
X57490Y-35270D01*
X57430Y-35210D01*
X56810Y-35210D01*
X56810Y-35217D01*
X56690Y-35217D01*
X56690Y-35210D01*
X56690Y-35090D01*
X56690Y-34720D01*
X56630Y-34660D01*
X56297Y-34659D01*
X56202Y-34660D01*
X56113Y-34696D01*
X56046Y-34764D01*
X56009Y-34852D01*
X56010Y-35030D01*
X56070Y-35090D01*
X56690Y-35090D01*
X56690Y-35210D01*
X56070Y-35210D01*
X56010Y-35270D01*
X56009Y-35447D01*
X56046Y-35535D01*
X56113Y-35603D01*
X56153Y-35619D01*
X54084Y-35619D01*
X53985Y-35639D01*
X53900Y-35695D01*
X53440Y-36156D01*
X53440Y-34212D01*
X53373Y-34051D01*
X53249Y-33927D01*
X53087Y-33860D01*
X52912Y-33859D01*
X52751Y-33926D01*
X52627Y-34050D01*
X52560Y-34212D01*
X52559Y-34387D01*
X52626Y-34548D01*
X52750Y-34672D01*
X52912Y-34739D01*
X53087Y-34740D01*
X53248Y-34673D01*
X53372Y-34549D01*
X53439Y-34387D01*
X53440Y-34212D01*
X53440Y-36156D01*
X51996Y-37600D01*
X51996Y-36819D01*
X51981Y-36605D01*
X51928Y-36476D01*
X51890Y-36464D01*
X51890Y-35662D01*
X51823Y-35501D01*
X51699Y-35377D01*
X51537Y-35310D01*
X51362Y-35309D01*
X51201Y-35376D01*
X51077Y-35500D01*
X51010Y-35662D01*
X51009Y-35837D01*
X51076Y-35998D01*
X51200Y-36122D01*
X51362Y-36189D01*
X51537Y-36190D01*
X51698Y-36123D01*
X51822Y-35999D01*
X51889Y-35837D01*
X51890Y-35662D01*
X51890Y-36464D01*
X51836Y-36448D01*
X51751Y-36532D01*
X51751Y-36363D01*
X51723Y-36271D01*
X51519Y-36203D01*
X51305Y-36218D01*
X51176Y-36271D01*
X51148Y-36363D01*
X51450Y-36665D01*
X51751Y-36363D01*
X51751Y-36532D01*
X51534Y-36750D01*
X51836Y-37051D01*
X51928Y-37023D01*
X51996Y-36819D01*
X51996Y-37600D01*
X51981Y-37614D01*
X51981Y-37605D01*
X51928Y-37476D01*
X51836Y-37448D01*
X51751Y-37532D01*
X51751Y-37363D01*
X51723Y-37271D01*
X51664Y-37252D01*
X51723Y-37228D01*
X51751Y-37136D01*
X51450Y-36834D01*
X51365Y-36919D01*
X51365Y-36750D01*
X51063Y-36448D01*
X50971Y-36476D01*
X50903Y-36680D01*
X50918Y-36894D01*
X50971Y-37023D01*
X51063Y-37051D01*
X51365Y-36750D01*
X51365Y-36919D01*
X51148Y-37136D01*
X51176Y-37228D01*
X51235Y-37247D01*
X51176Y-37271D01*
X51148Y-37363D01*
X51450Y-37665D01*
X51751Y-37363D01*
X51751Y-37532D01*
X51534Y-37750D01*
X51540Y-37755D01*
X51455Y-37840D01*
X51450Y-37834D01*
X51444Y-37840D01*
X51359Y-37755D01*
X51365Y-37750D01*
X51063Y-37448D01*
X50971Y-37476D01*
X50928Y-37606D01*
X50822Y-37499D01*
X50822Y-37499D01*
X50889Y-37337D01*
X50890Y-37162D01*
X50823Y-37001D01*
X50699Y-36877D01*
X50537Y-36810D01*
X50362Y-36809D01*
X50201Y-36876D01*
X50189Y-36887D01*
X50189Y-36877D01*
X50377Y-36689D01*
X50537Y-36690D01*
X50698Y-36623D01*
X50822Y-36499D01*
X50889Y-36337D01*
X50890Y-36162D01*
X50890Y-35162D01*
X50823Y-35001D01*
X50699Y-34877D01*
X50537Y-34810D01*
X50362Y-34809D01*
X50201Y-34876D01*
X50077Y-35000D01*
X50010Y-35162D01*
X50009Y-35337D01*
X50076Y-35498D01*
X50200Y-35622D01*
X50362Y-35689D01*
X50537Y-35690D01*
X50698Y-35623D01*
X50822Y-35499D01*
X50889Y-35337D01*
X50890Y-35162D01*
X50890Y-36162D01*
X50823Y-36001D01*
X50699Y-35877D01*
X50537Y-35810D01*
X50362Y-35809D01*
X50201Y-35876D01*
X50077Y-36000D01*
X50010Y-36162D01*
X50009Y-36322D01*
X49780Y-36552D01*
X49780Y-36270D01*
X49780Y-36270D01*
X49760Y-36170D01*
X49760Y-36170D01*
X49741Y-36142D01*
X49704Y-36086D01*
X49704Y-36086D01*
X49439Y-35822D01*
X49440Y-35662D01*
X49373Y-35501D01*
X49249Y-35377D01*
X49087Y-35310D01*
X48912Y-35309D01*
X48751Y-35376D01*
X48627Y-35500D01*
X48560Y-35662D01*
X48559Y-35837D01*
X48626Y-35998D01*
X48750Y-36122D01*
X48912Y-36189D01*
X49072Y-36190D01*
X49260Y-36377D01*
X49260Y-36387D01*
X49249Y-36377D01*
X49087Y-36310D01*
X48912Y-36309D01*
X48751Y-36376D01*
X48627Y-36500D01*
X48560Y-36662D01*
X48559Y-36837D01*
X48624Y-36993D01*
X48546Y-37071D01*
X48546Y-35319D01*
X48546Y-34319D01*
X48531Y-34105D01*
X48478Y-33976D01*
X48386Y-33948D01*
X48301Y-34032D01*
X48301Y-33863D01*
X48273Y-33771D01*
X48069Y-33703D01*
X47855Y-33718D01*
X47726Y-33771D01*
X47698Y-33863D01*
X48000Y-34165D01*
X48301Y-33863D01*
X48301Y-34032D01*
X48084Y-34250D01*
X48386Y-34551D01*
X48478Y-34523D01*
X48546Y-34319D01*
X48546Y-35319D01*
X48531Y-35105D01*
X48478Y-34976D01*
X48386Y-34948D01*
X48301Y-35032D01*
X48301Y-34863D01*
X48273Y-34771D01*
X48214Y-34752D01*
X48273Y-34728D01*
X48301Y-34636D01*
X48000Y-34334D01*
X47915Y-34419D01*
X47915Y-34250D01*
X47613Y-33948D01*
X47521Y-33976D01*
X47453Y-34180D01*
X47468Y-34394D01*
X47521Y-34523D01*
X47613Y-34551D01*
X47915Y-34250D01*
X47915Y-34419D01*
X47698Y-34636D01*
X47726Y-34728D01*
X47785Y-34747D01*
X47726Y-34771D01*
X47698Y-34863D01*
X48000Y-35165D01*
X48301Y-34863D01*
X48301Y-35032D01*
X48084Y-35250D01*
X48386Y-35551D01*
X48478Y-35523D01*
X48546Y-35319D01*
X48546Y-37071D01*
X48440Y-37177D01*
X48440Y-37162D01*
X48440Y-36162D01*
X48373Y-36001D01*
X48301Y-35929D01*
X48301Y-35636D01*
X48000Y-35334D01*
X47915Y-35419D01*
X47915Y-35250D01*
X47613Y-34948D01*
X47521Y-34976D01*
X47453Y-35180D01*
X47468Y-35394D01*
X47521Y-35523D01*
X47613Y-35551D01*
X47915Y-35250D01*
X47915Y-35419D01*
X47698Y-35636D01*
X47726Y-35728D01*
X47930Y-35796D01*
X48144Y-35781D01*
X48273Y-35728D01*
X48301Y-35636D01*
X48301Y-35929D01*
X48249Y-35877D01*
X48087Y-35810D01*
X47912Y-35809D01*
X47751Y-35876D01*
X47627Y-36000D01*
X47560Y-36162D01*
X47559Y-36337D01*
X47626Y-36498D01*
X47750Y-36622D01*
X47912Y-36689D01*
X48087Y-36690D01*
X48248Y-36623D01*
X48372Y-36499D01*
X48439Y-36337D01*
X48440Y-36162D01*
X48440Y-37162D01*
X48373Y-37001D01*
X48249Y-36877D01*
X48087Y-36810D01*
X47912Y-36809D01*
X47751Y-36876D01*
X47627Y-37000D01*
X47560Y-37162D01*
X47559Y-37337D01*
X47626Y-37498D01*
X47750Y-37622D01*
X47912Y-37689D01*
X48087Y-37690D01*
X48216Y-37636D01*
X48216Y-37988D01*
X48236Y-38087D01*
X48292Y-38172D01*
X50716Y-40596D01*
X50716Y-40596D01*
X50801Y-40653D01*
X50801Y-40653D01*
X50817Y-40656D01*
X50900Y-40672D01*
X62510Y-40672D01*
X62609Y-40653D01*
X62626Y-40641D01*
X62626Y-40756D01*
X62656Y-40828D01*
X61584Y-40828D01*
X61537Y-40782D01*
X61421Y-40733D01*
X61296Y-40733D01*
X61180Y-40781D01*
X61091Y-40870D01*
X61043Y-40986D01*
X61043Y-41111D01*
X61091Y-41227D01*
X61160Y-41295D01*
X51888Y-41295D01*
X51788Y-41315D01*
X51760Y-41334D01*
X51704Y-41371D01*
X48816Y-44260D01*
X48759Y-44344D01*
X48753Y-44375D01*
X48751Y-44376D01*
X48627Y-44500D01*
X48560Y-44662D01*
X48559Y-44837D01*
X48626Y-44998D01*
X48750Y-45122D01*
X48912Y-45189D01*
X49087Y-45190D01*
X49248Y-45123D01*
X49288Y-45083D01*
X49288Y-45093D01*
X49072Y-45310D01*
X48912Y-45309D01*
X48751Y-45376D01*
X48627Y-45500D01*
X48560Y-45662D01*
X48559Y-45837D01*
X48626Y-45998D01*
X48750Y-46122D01*
X48912Y-46189D01*
X49087Y-46190D01*
X49248Y-46123D01*
X49372Y-45999D01*
X49439Y-45837D01*
X49440Y-45677D01*
X49732Y-45385D01*
X49732Y-45385D01*
X49788Y-45300D01*
X49788Y-45300D01*
X49792Y-45284D01*
X49808Y-45201D01*
X49808Y-45201D01*
X49808Y-44520D01*
X50009Y-44319D01*
X50009Y-44337D01*
X50076Y-44498D01*
X50200Y-44622D01*
X50362Y-44689D01*
X50406Y-44689D01*
X50266Y-44830D01*
X50248Y-44857D01*
X50201Y-44876D01*
X50077Y-45000D01*
X50010Y-45162D01*
X50009Y-45337D01*
X50076Y-45498D01*
X50200Y-45622D01*
X50362Y-45689D01*
X50537Y-45690D01*
X50698Y-45623D01*
X50822Y-45499D01*
X50889Y-45337D01*
X50890Y-45162D01*
X50825Y-45006D01*
X51009Y-44822D01*
X51009Y-44837D01*
X51076Y-44998D01*
X51200Y-45122D01*
X51362Y-45189D01*
X51537Y-45190D01*
X51698Y-45123D01*
X51822Y-44999D01*
X51889Y-44837D01*
X51889Y-44822D01*
X55275Y-48207D01*
X54610Y-48207D01*
X53399Y-46996D01*
X53314Y-46939D01*
X53215Y-46919D01*
X52784Y-46919D01*
X52685Y-46939D01*
X52657Y-46958D01*
X52600Y-46996D01*
X51996Y-47600D01*
X51996Y-46819D01*
X51981Y-46605D01*
X51928Y-46476D01*
X51890Y-46464D01*
X51890Y-45662D01*
X51823Y-45501D01*
X51699Y-45377D01*
X51537Y-45310D01*
X51362Y-45309D01*
X51201Y-45376D01*
X51077Y-45500D01*
X51010Y-45662D01*
X51009Y-45837D01*
X51076Y-45998D01*
X51200Y-46122D01*
X51362Y-46189D01*
X51537Y-46190D01*
X51698Y-46123D01*
X51822Y-45999D01*
X51889Y-45837D01*
X51890Y-45662D01*
X51890Y-46464D01*
X51836Y-46448D01*
X51751Y-46532D01*
X51751Y-46363D01*
X51723Y-46271D01*
X51519Y-46203D01*
X51305Y-46218D01*
X51176Y-46271D01*
X51148Y-46363D01*
X51450Y-46665D01*
X51751Y-46363D01*
X51751Y-46532D01*
X51534Y-46750D01*
X51836Y-47051D01*
X51928Y-47023D01*
X51996Y-46819D01*
X51996Y-47600D01*
X51981Y-47614D01*
X51981Y-47605D01*
X51928Y-47476D01*
X51836Y-47448D01*
X51534Y-47750D01*
X51540Y-47755D01*
X51455Y-47840D01*
X51450Y-47834D01*
X51444Y-47840D01*
X51359Y-47755D01*
X51365Y-47750D01*
X51359Y-47744D01*
X51444Y-47659D01*
X51450Y-47665D01*
X51751Y-47363D01*
X51723Y-47271D01*
X51664Y-47252D01*
X51723Y-47228D01*
X51751Y-47136D01*
X51450Y-46834D01*
X51444Y-46840D01*
X51359Y-46755D01*
X51365Y-46750D01*
X51063Y-46448D01*
X50971Y-46476D01*
X50927Y-46609D01*
X50820Y-46502D01*
X50822Y-46499D01*
X50889Y-46337D01*
X50890Y-46162D01*
X50823Y-46001D01*
X50699Y-45877D01*
X50537Y-45810D01*
X50362Y-45809D01*
X50201Y-45876D01*
X50077Y-46000D01*
X50010Y-46162D01*
X50009Y-46337D01*
X50076Y-46498D01*
X50200Y-46622D01*
X50234Y-46637D01*
X50266Y-46683D01*
X50392Y-46809D01*
X50362Y-46809D01*
X50201Y-46876D01*
X50077Y-47000D01*
X50010Y-47162D01*
X50009Y-47337D01*
X50076Y-47498D01*
X50190Y-47612D01*
X50190Y-48027D01*
X50209Y-48127D01*
X50266Y-48211D01*
X51370Y-49316D01*
X51091Y-49316D01*
X49440Y-47665D01*
X49440Y-47662D01*
X49440Y-46662D01*
X49373Y-46501D01*
X49249Y-46377D01*
X49087Y-46310D01*
X48912Y-46309D01*
X48751Y-46376D01*
X48627Y-46500D01*
X48560Y-46662D01*
X48559Y-46837D01*
X48626Y-46998D01*
X48750Y-47122D01*
X48912Y-47189D01*
X49087Y-47190D01*
X49248Y-47123D01*
X49372Y-46999D01*
X49439Y-46837D01*
X49440Y-46662D01*
X49440Y-47662D01*
X49373Y-47501D01*
X49249Y-47377D01*
X49087Y-47310D01*
X48912Y-47309D01*
X48751Y-47376D01*
X48627Y-47500D01*
X48560Y-47662D01*
X48559Y-47837D01*
X48626Y-47998D01*
X48750Y-48122D01*
X48912Y-48189D01*
X49087Y-48190D01*
X49188Y-48148D01*
X50624Y-49585D01*
X50318Y-49584D01*
X49982Y-49723D01*
X49724Y-49981D01*
X49585Y-50317D01*
X49584Y-50681D01*
X49723Y-51017D01*
X49981Y-51275D01*
X50124Y-51335D01*
X48546Y-51335D01*
X48546Y-45319D01*
X48546Y-44319D01*
X48531Y-44105D01*
X48478Y-43976D01*
X48386Y-43948D01*
X48301Y-44032D01*
X48301Y-43863D01*
X48273Y-43771D01*
X48069Y-43703D01*
X47855Y-43718D01*
X47726Y-43771D01*
X47698Y-43863D01*
X48000Y-44165D01*
X48301Y-43863D01*
X48301Y-44032D01*
X48084Y-44250D01*
X48386Y-44551D01*
X48478Y-44523D01*
X48546Y-44319D01*
X48546Y-45319D01*
X48531Y-45105D01*
X48478Y-44976D01*
X48386Y-44948D01*
X48301Y-45032D01*
X48301Y-44863D01*
X48273Y-44771D01*
X48214Y-44752D01*
X48273Y-44728D01*
X48301Y-44636D01*
X48000Y-44334D01*
X47915Y-44419D01*
X47915Y-44250D01*
X47613Y-43948D01*
X47521Y-43976D01*
X47453Y-44180D01*
X47468Y-44394D01*
X47521Y-44523D01*
X47613Y-44551D01*
X47915Y-44250D01*
X47915Y-44419D01*
X47698Y-44636D01*
X47726Y-44728D01*
X47785Y-44747D01*
X47726Y-44771D01*
X47698Y-44863D01*
X48000Y-45165D01*
X48301Y-44863D01*
X48301Y-45032D01*
X48084Y-45250D01*
X48386Y-45551D01*
X48478Y-45523D01*
X48546Y-45319D01*
X48546Y-51335D01*
X48440Y-51335D01*
X48440Y-47162D01*
X48440Y-46162D01*
X48373Y-46001D01*
X48301Y-45929D01*
X48301Y-45636D01*
X48000Y-45334D01*
X47915Y-45419D01*
X47915Y-45250D01*
X47613Y-44948D01*
X47521Y-44976D01*
X47453Y-45180D01*
X47468Y-45394D01*
X47521Y-45523D01*
X47613Y-45551D01*
X47915Y-45250D01*
X47915Y-45419D01*
X47698Y-45636D01*
X47726Y-45728D01*
X47930Y-45796D01*
X48144Y-45781D01*
X48273Y-45728D01*
X48301Y-45636D01*
X48301Y-45929D01*
X48249Y-45877D01*
X48087Y-45810D01*
X47912Y-45809D01*
X47751Y-45876D01*
X47627Y-46000D01*
X47560Y-46162D01*
X47559Y-46337D01*
X47626Y-46498D01*
X47750Y-46622D01*
X47912Y-46689D01*
X48087Y-46690D01*
X48248Y-46623D01*
X48372Y-46499D01*
X48439Y-46337D01*
X48440Y-46162D01*
X48440Y-47162D01*
X48373Y-47001D01*
X48249Y-46877D01*
X48087Y-46810D01*
X47912Y-46809D01*
X47751Y-46876D01*
X47627Y-47000D01*
X47560Y-47162D01*
X47559Y-47337D01*
X47626Y-47498D01*
X47750Y-47622D01*
X47912Y-47689D01*
X48087Y-47690D01*
X48248Y-47623D01*
X48372Y-47499D01*
X48439Y-47337D01*
X48440Y-47162D01*
X48440Y-51335D01*
X46840Y-51335D01*
X46840Y-48612D01*
X46840Y-47612D01*
X46840Y-44212D01*
X46840Y-43212D01*
X46840Y-38612D01*
X46840Y-37612D01*
X46840Y-34212D01*
X46840Y-33212D01*
X46773Y-33051D01*
X46649Y-32927D01*
X46487Y-32860D01*
X46312Y-32859D01*
X46151Y-32926D01*
X46027Y-33050D01*
X45960Y-33212D01*
X45959Y-33387D01*
X46026Y-33548D01*
X46150Y-33672D01*
X46312Y-33739D01*
X46487Y-33740D01*
X46648Y-33673D01*
X46772Y-33549D01*
X46839Y-33387D01*
X46840Y-33212D01*
X46840Y-34212D01*
X46773Y-34051D01*
X46649Y-33927D01*
X46487Y-33860D01*
X46312Y-33859D01*
X46151Y-33926D01*
X46027Y-34050D01*
X45960Y-34212D01*
X45959Y-34387D01*
X46026Y-34548D01*
X46150Y-34672D01*
X46312Y-34739D01*
X46487Y-34740D01*
X46648Y-34673D01*
X46772Y-34549D01*
X46839Y-34387D01*
X46840Y-34212D01*
X46840Y-37612D01*
X46773Y-37451D01*
X46649Y-37327D01*
X46487Y-37260D01*
X46312Y-37259D01*
X46151Y-37326D01*
X46027Y-37450D01*
X45960Y-37612D01*
X45959Y-37787D01*
X46026Y-37948D01*
X46150Y-38072D01*
X46312Y-38139D01*
X46487Y-38140D01*
X46648Y-38073D01*
X46772Y-37949D01*
X46839Y-37787D01*
X46840Y-37612D01*
X46840Y-38612D01*
X46773Y-38451D01*
X46649Y-38327D01*
X46487Y-38260D01*
X46312Y-38259D01*
X46151Y-38326D01*
X46027Y-38450D01*
X45960Y-38612D01*
X45959Y-38787D01*
X46026Y-38948D01*
X46150Y-39072D01*
X46312Y-39139D01*
X46487Y-39140D01*
X46648Y-39073D01*
X46772Y-38949D01*
X46839Y-38787D01*
X46840Y-38612D01*
X46840Y-43212D01*
X46773Y-43051D01*
X46649Y-42927D01*
X46487Y-42860D01*
X46312Y-42859D01*
X46151Y-42926D01*
X46027Y-43050D01*
X45960Y-43212D01*
X45959Y-43387D01*
X46026Y-43548D01*
X46150Y-43672D01*
X46312Y-43739D01*
X46487Y-43740D01*
X46648Y-43673D01*
X46772Y-43549D01*
X46839Y-43387D01*
X46840Y-43212D01*
X46840Y-44212D01*
X46773Y-44051D01*
X46649Y-43927D01*
X46487Y-43860D01*
X46312Y-43859D01*
X46151Y-43926D01*
X46027Y-44050D01*
X45960Y-44212D01*
X45959Y-44387D01*
X46026Y-44548D01*
X46150Y-44672D01*
X46312Y-44739D01*
X46487Y-44740D01*
X46648Y-44673D01*
X46772Y-44549D01*
X46839Y-44387D01*
X46840Y-44212D01*
X46840Y-47612D01*
X46773Y-47451D01*
X46649Y-47327D01*
X46487Y-47260D01*
X46312Y-47259D01*
X46151Y-47326D01*
X46027Y-47450D01*
X45960Y-47612D01*
X45959Y-47787D01*
X46026Y-47948D01*
X46150Y-48072D01*
X46312Y-48139D01*
X46487Y-48140D01*
X46648Y-48073D01*
X46772Y-47949D01*
X46839Y-47787D01*
X46840Y-47612D01*
X46840Y-48612D01*
X46773Y-48451D01*
X46649Y-48327D01*
X46487Y-48260D01*
X46312Y-48259D01*
X46151Y-48326D01*
X46027Y-48450D01*
X45960Y-48612D01*
X45959Y-48787D01*
X46026Y-48948D01*
X46150Y-49072D01*
X46312Y-49139D01*
X46487Y-49140D01*
X46648Y-49073D01*
X46772Y-48949D01*
X46839Y-48787D01*
X46840Y-48612D01*
X46840Y-51335D01*
X45640Y-51335D01*
X45640Y-48323D01*
X45640Y-43323D01*
X45640Y-38323D01*
X45640Y-33323D01*
X45504Y-32996D01*
X45254Y-32745D01*
X44927Y-32610D01*
X44573Y-32609D01*
X44246Y-32745D01*
X43995Y-32995D01*
X43860Y-33322D01*
X43859Y-33676D01*
X43995Y-34003D01*
X44245Y-34254D01*
X44572Y-34389D01*
X44926Y-34390D01*
X45253Y-34254D01*
X45504Y-34004D01*
X45639Y-33677D01*
X45640Y-33323D01*
X45640Y-38323D01*
X45504Y-37996D01*
X45254Y-37745D01*
X44927Y-37610D01*
X44573Y-37609D01*
X44246Y-37745D01*
X43995Y-37995D01*
X43860Y-38322D01*
X43859Y-38676D01*
X43995Y-39003D01*
X44245Y-39254D01*
X44572Y-39389D01*
X44926Y-39390D01*
X45253Y-39254D01*
X45504Y-39004D01*
X45639Y-38677D01*
X45640Y-38323D01*
X45640Y-43323D01*
X45504Y-42996D01*
X45254Y-42745D01*
X44927Y-42610D01*
X44573Y-42609D01*
X44246Y-42745D01*
X43995Y-42995D01*
X43860Y-43322D01*
X43859Y-43676D01*
X43995Y-44003D01*
X44245Y-44254D01*
X44572Y-44389D01*
X44926Y-44390D01*
X45253Y-44254D01*
X45504Y-44004D01*
X45639Y-43677D01*
X45640Y-43323D01*
X45640Y-48323D01*
X45504Y-47996D01*
X45254Y-47745D01*
X44927Y-47610D01*
X44573Y-47609D01*
X44246Y-47745D01*
X43995Y-47995D01*
X43860Y-48322D01*
X43859Y-48676D01*
X43995Y-49003D01*
X44245Y-49254D01*
X44572Y-49389D01*
X44926Y-49390D01*
X45253Y-49254D01*
X45504Y-49004D01*
X45639Y-48677D01*
X45640Y-48323D01*
X45640Y-51335D01*
X43665Y-51335D01*
X43665Y-30665D01*
X50624Y-30665D01*
X50482Y-30723D01*
X50224Y-30981D01*
X50085Y-31317D01*
X50084Y-31681D01*
X50223Y-32017D01*
X50481Y-32275D01*
X50817Y-32414D01*
X51181Y-32415D01*
X51517Y-32276D01*
X51775Y-32018D01*
X51914Y-31682D01*
X51915Y-31318D01*
X51776Y-30982D01*
X51518Y-30724D01*
X51375Y-30665D01*
X80124Y-30665D01*
X79982Y-30723D01*
X79724Y-30981D01*
X79585Y-31317D01*
X79584Y-31681D01*
X79723Y-32017D01*
X79981Y-32275D01*
X80317Y-32414D01*
X80681Y-32415D01*
X81017Y-32276D01*
X81275Y-32018D01*
X81414Y-31682D01*
X81415Y-31318D01*
X81276Y-30982D01*
X81018Y-30724D01*
X80875Y-30665D01*
X89335Y-30665D01*
X89335Y-51335D01*
X89335Y-51335D01*
G37*
G54D26*
X89335Y-51335D02*
X88370Y-51335D01*
X88370Y-42603D01*
X88242Y-42294D01*
X88006Y-42058D01*
X87697Y-41930D01*
X87363Y-41929D01*
X87054Y-42057D01*
X86818Y-42293D01*
X86690Y-42602D01*
X86689Y-42936D01*
X86817Y-43245D01*
X87053Y-43481D01*
X87362Y-43609D01*
X87696Y-43610D01*
X88005Y-43482D01*
X88241Y-43246D01*
X88369Y-42937D01*
X88370Y-42603D01*
X88370Y-51335D01*
X83375Y-51335D01*
X83517Y-51276D01*
X83775Y-51018D01*
X83914Y-50682D01*
X83915Y-50318D01*
X83776Y-49982D01*
X83518Y-49724D01*
X83182Y-49585D01*
X82818Y-49584D01*
X82482Y-49723D01*
X82224Y-49981D01*
X82085Y-50317D01*
X82084Y-50681D01*
X82223Y-51017D01*
X82481Y-51275D01*
X82624Y-51335D01*
X81440Y-51335D01*
X81440Y-50712D01*
X81440Y-50287D01*
X81406Y-50119D01*
X81311Y-49976D01*
X81168Y-49880D01*
X81000Y-49847D01*
X80831Y-49880D01*
X80688Y-49976D01*
X80593Y-50119D01*
X80560Y-50287D01*
X80560Y-50712D01*
X80593Y-50880D01*
X80688Y-51023D01*
X80831Y-51119D01*
X81000Y-51152D01*
X81168Y-51119D01*
X81311Y-51023D01*
X81406Y-50880D01*
X81440Y-50712D01*
X81440Y-51335D01*
X80440Y-51335D01*
X80440Y-50712D01*
X80440Y-50287D01*
X80406Y-50119D01*
X80311Y-49976D01*
X80168Y-49880D01*
X80000Y-49847D01*
X79831Y-49880D01*
X79688Y-49976D01*
X79593Y-50119D01*
X79560Y-50287D01*
X79560Y-50712D01*
X79593Y-50880D01*
X79688Y-51023D01*
X79831Y-51119D01*
X80000Y-51152D01*
X80168Y-51119D01*
X80311Y-51023D01*
X80406Y-50880D01*
X80440Y-50712D01*
X80440Y-51335D01*
X79440Y-51335D01*
X79440Y-50712D01*
X79440Y-50287D01*
X79406Y-50119D01*
X79311Y-49976D01*
X79168Y-49880D01*
X79000Y-49847D01*
X78831Y-49880D01*
X78688Y-49976D01*
X78593Y-50119D01*
X78560Y-50287D01*
X78560Y-50712D01*
X78593Y-50880D01*
X78688Y-51023D01*
X78831Y-51119D01*
X79000Y-51152D01*
X79168Y-51119D01*
X79311Y-51023D01*
X79406Y-50880D01*
X79440Y-50712D01*
X79440Y-51335D01*
X78440Y-51335D01*
X78440Y-50712D01*
X78440Y-50287D01*
X78406Y-50119D01*
X78311Y-49976D01*
X78168Y-49880D01*
X78000Y-49847D01*
X77831Y-49880D01*
X77688Y-49976D01*
X77593Y-50119D01*
X77560Y-50287D01*
X77560Y-50712D01*
X77593Y-50880D01*
X77688Y-51023D01*
X77831Y-51119D01*
X78000Y-51152D01*
X78168Y-51119D01*
X78311Y-51023D01*
X78406Y-50880D01*
X78440Y-50712D01*
X78440Y-51335D01*
X77440Y-51335D01*
X77440Y-50712D01*
X77440Y-50287D01*
X77406Y-50119D01*
X77311Y-49976D01*
X77168Y-49880D01*
X77000Y-49847D01*
X76831Y-49880D01*
X76688Y-49976D01*
X76593Y-50119D01*
X76560Y-50287D01*
X76560Y-50712D01*
X76593Y-50880D01*
X76688Y-51023D01*
X76831Y-51119D01*
X77000Y-51152D01*
X77168Y-51119D01*
X77311Y-51023D01*
X77406Y-50880D01*
X77440Y-50712D01*
X77440Y-51335D01*
X76440Y-51335D01*
X76440Y-50712D01*
X76440Y-50287D01*
X76406Y-50119D01*
X76311Y-49976D01*
X76168Y-49880D01*
X76000Y-49847D01*
X75831Y-49880D01*
X75688Y-49976D01*
X75593Y-50119D01*
X75560Y-50287D01*
X75560Y-50712D01*
X75593Y-50880D01*
X75688Y-51023D01*
X75831Y-51119D01*
X76000Y-51152D01*
X76168Y-51119D01*
X76311Y-51023D01*
X76406Y-50880D01*
X76440Y-50712D01*
X76440Y-51335D01*
X75440Y-51335D01*
X75440Y-50712D01*
X75440Y-50287D01*
X75406Y-50119D01*
X75311Y-49976D01*
X75168Y-49880D01*
X75000Y-49847D01*
X74831Y-49880D01*
X74688Y-49976D01*
X74593Y-50119D01*
X74560Y-50287D01*
X74560Y-50712D01*
X74593Y-50880D01*
X74688Y-51023D01*
X74831Y-51119D01*
X75000Y-51152D01*
X75168Y-51119D01*
X75311Y-51023D01*
X75406Y-50880D01*
X75440Y-50712D01*
X75440Y-51335D01*
X74440Y-51335D01*
X74440Y-50712D01*
X74440Y-50287D01*
X74406Y-50119D01*
X74311Y-49976D01*
X74168Y-49880D01*
X74000Y-49847D01*
X73831Y-49880D01*
X73688Y-49976D01*
X73593Y-50119D01*
X73560Y-50287D01*
X73560Y-50712D01*
X73593Y-50880D01*
X73688Y-51023D01*
X73831Y-51119D01*
X74000Y-51152D01*
X74168Y-51119D01*
X74311Y-51023D01*
X74406Y-50880D01*
X74440Y-50712D01*
X74440Y-51335D01*
X72440Y-51335D01*
X72440Y-50712D01*
X72440Y-50287D01*
X72406Y-50119D01*
X72311Y-49976D01*
X72168Y-49880D01*
X72000Y-49847D01*
X71831Y-49880D01*
X71688Y-49976D01*
X71593Y-50119D01*
X71560Y-50287D01*
X71560Y-50712D01*
X71593Y-50880D01*
X71688Y-51023D01*
X71831Y-51119D01*
X72000Y-51152D01*
X72168Y-51119D01*
X72311Y-51023D01*
X72406Y-50880D01*
X72440Y-50712D01*
X72440Y-51335D01*
X71440Y-51335D01*
X71440Y-50712D01*
X71440Y-50287D01*
X71406Y-50119D01*
X71311Y-49976D01*
X71168Y-49880D01*
X71000Y-49847D01*
X70831Y-49880D01*
X70688Y-49976D01*
X70593Y-50119D01*
X70560Y-50287D01*
X70560Y-50712D01*
X70593Y-50880D01*
X70688Y-51023D01*
X70831Y-51119D01*
X71000Y-51152D01*
X71168Y-51119D01*
X71311Y-51023D01*
X71406Y-50880D01*
X71440Y-50712D01*
X71440Y-51335D01*
X70440Y-51335D01*
X70440Y-50712D01*
X70440Y-50287D01*
X70406Y-50119D01*
X70311Y-49976D01*
X70168Y-49880D01*
X70000Y-49847D01*
X69831Y-49880D01*
X69688Y-49976D01*
X69625Y-50071D01*
X69625Y-47872D01*
X69625Y-47402D01*
X69603Y-47350D01*
X69564Y-47311D01*
X69512Y-47290D01*
X69457Y-47289D01*
X68987Y-47289D01*
X68935Y-47311D01*
X68896Y-47350D01*
X68882Y-47384D01*
X68799Y-47301D01*
X68715Y-47245D01*
X68615Y-47225D01*
X68369Y-47225D01*
X68363Y-47218D01*
X68247Y-47170D01*
X68122Y-47170D01*
X68006Y-47218D01*
X67917Y-47307D01*
X67869Y-47422D01*
X67869Y-47548D01*
X67917Y-47663D01*
X68005Y-47752D01*
X68121Y-47800D01*
X68246Y-47800D01*
X68362Y-47752D01*
X68369Y-47745D01*
X68507Y-47745D01*
X68611Y-47848D01*
X68611Y-47848D01*
X68667Y-47886D01*
X68695Y-47905D01*
X68695Y-47905D01*
X68794Y-47924D01*
X68794Y-47925D01*
X68874Y-47925D01*
X68874Y-47927D01*
X68896Y-47979D01*
X68935Y-48018D01*
X68987Y-48039D01*
X69042Y-48040D01*
X69512Y-48040D01*
X69564Y-48018D01*
X69603Y-47979D01*
X69624Y-47927D01*
X69625Y-47872D01*
X69625Y-50071D01*
X69593Y-50119D01*
X69560Y-50287D01*
X69560Y-50712D01*
X69593Y-50880D01*
X69688Y-51023D01*
X69831Y-51119D01*
X70000Y-51152D01*
X70168Y-51119D01*
X70311Y-51023D01*
X70406Y-50880D01*
X70440Y-50712D01*
X70440Y-51335D01*
X69440Y-51335D01*
X69440Y-50712D01*
X69440Y-50287D01*
X69406Y-50119D01*
X69311Y-49976D01*
X69168Y-49880D01*
X69000Y-49847D01*
X68831Y-49880D01*
X68688Y-49976D01*
X68593Y-50119D01*
X68560Y-50287D01*
X68560Y-50712D01*
X68593Y-50880D01*
X68688Y-51023D01*
X68831Y-51119D01*
X69000Y-51152D01*
X69168Y-51119D01*
X69311Y-51023D01*
X69406Y-50880D01*
X69440Y-50712D01*
X69440Y-51335D01*
X68440Y-51335D01*
X68440Y-50712D01*
X68440Y-50287D01*
X68406Y-50119D01*
X68311Y-49976D01*
X68168Y-49880D01*
X68000Y-49847D01*
X67831Y-49880D01*
X67688Y-49976D01*
X67593Y-50119D01*
X67560Y-50287D01*
X67560Y-50712D01*
X67593Y-50880D01*
X67688Y-51023D01*
X67831Y-51119D01*
X68000Y-51152D01*
X68168Y-51119D01*
X68311Y-51023D01*
X68406Y-50880D01*
X68440Y-50712D01*
X68440Y-51335D01*
X67440Y-51335D01*
X67440Y-50712D01*
X67440Y-50287D01*
X67406Y-50119D01*
X67311Y-49976D01*
X67168Y-49880D01*
X67000Y-49847D01*
X66831Y-49880D01*
X66688Y-49976D01*
X66593Y-50119D01*
X66560Y-50287D01*
X66560Y-50712D01*
X66593Y-50880D01*
X66688Y-51023D01*
X66831Y-51119D01*
X67000Y-51152D01*
X67168Y-51119D01*
X67311Y-51023D01*
X67406Y-50880D01*
X67440Y-50712D01*
X67440Y-51335D01*
X66440Y-51335D01*
X66440Y-50712D01*
X66440Y-50287D01*
X66406Y-50119D01*
X66311Y-49976D01*
X66168Y-49880D01*
X66000Y-49847D01*
X65831Y-49880D01*
X65688Y-49976D01*
X65593Y-50119D01*
X65560Y-50287D01*
X65560Y-50712D01*
X65593Y-50880D01*
X65688Y-51023D01*
X65831Y-51119D01*
X66000Y-51152D01*
X66168Y-51119D01*
X66311Y-51023D01*
X66406Y-50880D01*
X66440Y-50712D01*
X66440Y-51335D01*
X65440Y-51335D01*
X65440Y-50712D01*
X65440Y-50287D01*
X65406Y-50119D01*
X65311Y-49976D01*
X65168Y-49880D01*
X65000Y-49847D01*
X64831Y-49880D01*
X64688Y-49976D01*
X64593Y-50119D01*
X64560Y-50287D01*
X64560Y-50712D01*
X64593Y-50880D01*
X64688Y-51023D01*
X64831Y-51119D01*
X65000Y-51152D01*
X65168Y-51119D01*
X65311Y-51023D01*
X65406Y-50880D01*
X65440Y-50712D01*
X65440Y-51335D01*
X63440Y-51335D01*
X63440Y-50712D01*
X63440Y-50287D01*
X63406Y-50119D01*
X63311Y-49976D01*
X63168Y-49880D01*
X63000Y-49847D01*
X62831Y-49880D01*
X62688Y-49976D01*
X62593Y-50119D01*
X62560Y-50287D01*
X62560Y-50712D01*
X62593Y-50880D01*
X62688Y-51023D01*
X62831Y-51119D01*
X63000Y-51152D01*
X63168Y-51119D01*
X63311Y-51023D01*
X63406Y-50880D01*
X63440Y-50712D01*
X63440Y-51335D01*
X62440Y-51335D01*
X62440Y-50712D01*
X62440Y-50287D01*
X62406Y-50119D01*
X62311Y-49976D01*
X62168Y-49880D01*
X62000Y-49847D01*
X61831Y-49880D01*
X61688Y-49976D01*
X61593Y-50119D01*
X61581Y-50180D01*
X61418Y-50180D01*
X61406Y-50119D01*
X61311Y-49976D01*
X61168Y-49880D01*
X61000Y-49847D01*
X60831Y-49880D01*
X60688Y-49976D01*
X60593Y-50119D01*
X60560Y-50287D01*
X60560Y-50712D01*
X60593Y-50880D01*
X60688Y-51023D01*
X60831Y-51119D01*
X61000Y-51152D01*
X61168Y-51119D01*
X61311Y-51023D01*
X61406Y-50880D01*
X61418Y-50820D01*
X61581Y-50820D01*
X61593Y-50880D01*
X61688Y-51023D01*
X61831Y-51119D01*
X62000Y-51152D01*
X62168Y-51119D01*
X62311Y-51023D01*
X62406Y-50880D01*
X62440Y-50712D01*
X62440Y-51335D01*
X60440Y-51335D01*
X60440Y-50712D01*
X60440Y-50287D01*
X60406Y-50119D01*
X60311Y-49976D01*
X60168Y-49880D01*
X60000Y-49847D01*
X59831Y-49880D01*
X59688Y-49976D01*
X59593Y-50119D01*
X59560Y-50287D01*
X59560Y-50712D01*
X59593Y-50880D01*
X59688Y-51023D01*
X59831Y-51119D01*
X60000Y-51152D01*
X60168Y-51119D01*
X60311Y-51023D01*
X60406Y-50880D01*
X60440Y-50712D01*
X60440Y-51335D01*
X59440Y-51335D01*
X59440Y-50712D01*
X59440Y-50287D01*
X59406Y-50119D01*
X59311Y-49976D01*
X59168Y-49880D01*
X59000Y-49847D01*
X58831Y-49880D01*
X58688Y-49976D01*
X58593Y-50119D01*
X58560Y-50287D01*
X58560Y-50712D01*
X58593Y-50880D01*
X58688Y-51023D01*
X58831Y-51119D01*
X59000Y-51152D01*
X59168Y-51119D01*
X59311Y-51023D01*
X59406Y-50880D01*
X59440Y-50712D01*
X59440Y-51335D01*
X58440Y-51335D01*
X58440Y-50712D01*
X58440Y-50287D01*
X58406Y-50119D01*
X58311Y-49976D01*
X58168Y-49880D01*
X58000Y-49847D01*
X57831Y-49880D01*
X57688Y-49976D01*
X57593Y-50119D01*
X57560Y-50287D01*
X57560Y-50712D01*
X57593Y-50880D01*
X57688Y-51023D01*
X57831Y-51119D01*
X58000Y-51152D01*
X58168Y-51119D01*
X58311Y-51023D01*
X58406Y-50880D01*
X58440Y-50712D01*
X58440Y-51335D01*
X57440Y-51335D01*
X57440Y-50712D01*
X57440Y-50287D01*
X57406Y-50119D01*
X57311Y-49976D01*
X57168Y-49880D01*
X57000Y-49847D01*
X56831Y-49880D01*
X56688Y-49976D01*
X56593Y-50119D01*
X56560Y-50287D01*
X56560Y-50712D01*
X56593Y-50880D01*
X56688Y-51023D01*
X56831Y-51119D01*
X57000Y-51152D01*
X57168Y-51119D01*
X57311Y-51023D01*
X57406Y-50880D01*
X57440Y-50712D01*
X57440Y-51335D01*
X56440Y-51335D01*
X56440Y-50712D01*
X56440Y-50287D01*
X56406Y-50119D01*
X56311Y-49976D01*
X56168Y-49880D01*
X56000Y-49847D01*
X55831Y-49880D01*
X55688Y-49976D01*
X55593Y-50119D01*
X55560Y-50287D01*
X55560Y-50712D01*
X55593Y-50880D01*
X55688Y-51023D01*
X55831Y-51119D01*
X56000Y-51152D01*
X56168Y-51119D01*
X56311Y-51023D01*
X56406Y-50880D01*
X56440Y-50712D01*
X56440Y-51335D01*
X50875Y-51335D01*
X51017Y-51276D01*
X51275Y-51018D01*
X51414Y-50682D01*
X51415Y-50318D01*
X51276Y-49982D01*
X51130Y-49836D01*
X64383Y-49836D01*
X64482Y-49816D01*
X64567Y-49760D01*
X66382Y-47945D01*
X66396Y-47979D01*
X66435Y-48018D01*
X66487Y-48039D01*
X66542Y-48040D01*
X67012Y-48040D01*
X67064Y-48018D01*
X67103Y-47979D01*
X67124Y-47927D01*
X67125Y-47872D01*
X67125Y-47657D01*
X67389Y-47392D01*
X67389Y-47392D01*
X67446Y-47308D01*
X67465Y-47209D01*
X67465Y-47209D01*
X67465Y-46365D01*
X67465Y-46365D01*
X67446Y-46266D01*
X67446Y-46266D01*
X67427Y-46238D01*
X67389Y-46182D01*
X67389Y-46182D01*
X67295Y-46087D01*
X67295Y-46077D01*
X67247Y-45961D01*
X67158Y-45873D01*
X67042Y-45825D01*
X66917Y-45824D01*
X66844Y-45854D01*
X66844Y-45746D01*
X66905Y-45685D01*
X66953Y-45614D01*
X66953Y-45614D01*
X66970Y-45530D01*
X66970Y-45490D01*
X67277Y-45490D01*
X67329Y-45468D01*
X67368Y-45429D01*
X67389Y-45377D01*
X67390Y-45322D01*
X67390Y-44889D01*
X68609Y-44889D01*
X68609Y-45377D01*
X68631Y-45429D01*
X68670Y-45468D01*
X68722Y-45489D01*
X68777Y-45490D01*
X69030Y-45490D01*
X69030Y-46459D01*
X68987Y-46459D01*
X68935Y-46481D01*
X68896Y-46520D01*
X68875Y-46572D01*
X68874Y-46627D01*
X68874Y-47097D01*
X68896Y-47149D01*
X68935Y-47188D01*
X68987Y-47209D01*
X69042Y-47210D01*
X69512Y-47210D01*
X69564Y-47188D01*
X69603Y-47149D01*
X69624Y-47097D01*
X69625Y-47042D01*
X69625Y-46572D01*
X69603Y-46520D01*
X69564Y-46481D01*
X69512Y-46460D01*
X69470Y-46459D01*
X69470Y-45490D01*
X69777Y-45490D01*
X69829Y-45468D01*
X69868Y-45429D01*
X69889Y-45377D01*
X69890Y-45322D01*
X69890Y-45032D01*
X70280Y-45422D01*
X70280Y-47140D01*
X70296Y-47224D01*
X70344Y-47295D01*
X71289Y-48240D01*
X71360Y-48287D01*
X71360Y-48287D01*
X71444Y-48304D01*
X75659Y-48304D01*
X75743Y-48287D01*
X75743Y-48287D01*
X75814Y-48240D01*
X78151Y-45903D01*
X78151Y-45929D01*
X78165Y-45964D01*
X78171Y-45990D01*
X78185Y-46011D01*
X78199Y-46045D01*
X78226Y-46072D01*
X78240Y-46093D01*
X81458Y-49312D01*
X81458Y-49312D01*
X81562Y-49381D01*
X81685Y-49405D01*
X83245Y-49405D01*
X83245Y-49405D01*
X83367Y-49381D01*
X83471Y-49312D01*
X85548Y-47235D01*
X85548Y-47235D01*
X85617Y-47131D01*
X85642Y-47009D01*
X85642Y-47009D01*
X85642Y-42950D01*
X86817Y-41775D01*
X86972Y-41839D01*
X87306Y-41840D01*
X87615Y-41712D01*
X87851Y-41476D01*
X87913Y-41328D01*
X88025Y-41440D01*
X88216Y-41519D01*
X88422Y-41520D01*
X88614Y-41441D01*
X88760Y-41294D01*
X88839Y-41103D01*
X88840Y-40897D01*
X88761Y-40705D01*
X88614Y-40559D01*
X88423Y-40480D01*
X88217Y-40479D01*
X88074Y-40538D01*
X88747Y-39865D01*
X88747Y-39865D01*
X88816Y-39762D01*
X88840Y-39639D01*
X88840Y-39639D01*
X88840Y-37120D01*
X88816Y-36998D01*
X88747Y-36894D01*
X87985Y-36132D01*
X87985Y-36097D01*
X88018Y-36064D01*
X88039Y-36012D01*
X88040Y-35957D01*
X88040Y-35487D01*
X88018Y-35435D01*
X87979Y-35396D01*
X87927Y-35375D01*
X87872Y-35374D01*
X87402Y-35374D01*
X87350Y-35396D01*
X87311Y-35435D01*
X87290Y-35487D01*
X87289Y-35542D01*
X87289Y-36012D01*
X87311Y-36064D01*
X87345Y-36098D01*
X87345Y-36265D01*
X87369Y-36387D01*
X87438Y-36491D01*
X88200Y-37253D01*
X88200Y-38712D01*
X88006Y-38518D01*
X87697Y-38390D01*
X87363Y-38389D01*
X87210Y-38453D01*
X87210Y-35957D01*
X87210Y-35487D01*
X87188Y-35435D01*
X87149Y-35396D01*
X87097Y-35375D01*
X87042Y-35374D01*
X86572Y-35374D01*
X86520Y-35396D01*
X86481Y-35435D01*
X86460Y-35487D01*
X86459Y-35530D01*
X85740Y-35530D01*
X85740Y-35222D01*
X85718Y-35170D01*
X85679Y-35131D01*
X85627Y-35110D01*
X85572Y-35109D01*
X85072Y-35109D01*
X85020Y-35131D01*
X84981Y-35170D01*
X84960Y-35222D01*
X84959Y-35277D01*
X84959Y-36277D01*
X84981Y-36329D01*
X85020Y-36368D01*
X85072Y-36389D01*
X85127Y-36390D01*
X85627Y-36390D01*
X85679Y-36368D01*
X85718Y-36329D01*
X85739Y-36277D01*
X85740Y-36222D01*
X85740Y-35970D01*
X86459Y-35970D01*
X86459Y-36012D01*
X86481Y-36064D01*
X86520Y-36103D01*
X86572Y-36124D01*
X86627Y-36125D01*
X87097Y-36125D01*
X87149Y-36103D01*
X87188Y-36064D01*
X87209Y-36012D01*
X87210Y-35957D01*
X87210Y-38453D01*
X87054Y-38517D01*
X86818Y-38753D01*
X86690Y-39062D01*
X86689Y-39396D01*
X86817Y-39705D01*
X87053Y-39941D01*
X87362Y-40069D01*
X87637Y-40070D01*
X87477Y-40230D01*
X87307Y-40160D01*
X86973Y-40159D01*
X86664Y-40287D01*
X86428Y-40523D01*
X86300Y-40832D01*
X86299Y-41166D01*
X86364Y-41322D01*
X85823Y-41864D01*
X85823Y-41188D01*
X85816Y-40775D01*
X85671Y-40426D01*
X85528Y-40336D01*
X85443Y-40421D01*
X85443Y-40251D01*
X85353Y-40108D01*
X84968Y-39956D01*
X84640Y-39962D01*
X84640Y-36202D01*
X84640Y-35297D01*
X84639Y-35202D01*
X84603Y-35113D01*
X84535Y-35046D01*
X84447Y-35009D01*
X84270Y-35010D01*
X84210Y-35070D01*
X84210Y-35690D01*
X84580Y-35690D01*
X84640Y-35630D01*
X84640Y-35297D01*
X84640Y-36202D01*
X84640Y-35870D01*
X84580Y-35810D01*
X84210Y-35810D01*
X84210Y-36430D01*
X84270Y-36490D01*
X84447Y-36490D01*
X84535Y-36453D01*
X84603Y-36386D01*
X84639Y-36297D01*
X84640Y-36202D01*
X84640Y-39962D01*
X84555Y-39963D01*
X84206Y-40108D01*
X84116Y-40251D01*
X84780Y-40915D01*
X85443Y-40251D01*
X85443Y-40421D01*
X84864Y-41000D01*
X85528Y-41663D01*
X85671Y-41573D01*
X85823Y-41188D01*
X85823Y-41864D01*
X85443Y-42243D01*
X85443Y-41748D01*
X84780Y-41084D01*
X84695Y-41169D01*
X84695Y-41000D01*
X84090Y-40394D01*
X84090Y-36430D01*
X84090Y-35810D01*
X84090Y-35690D01*
X84090Y-35070D01*
X84030Y-35010D01*
X83852Y-35009D01*
X83764Y-35046D01*
X83696Y-35113D01*
X83660Y-35202D01*
X83659Y-35297D01*
X83660Y-35630D01*
X83720Y-35690D01*
X84090Y-35690D01*
X84090Y-35810D01*
X83720Y-35810D01*
X83660Y-35870D01*
X83659Y-36202D01*
X83660Y-36297D01*
X83696Y-36386D01*
X83764Y-36453D01*
X83852Y-36490D01*
X84030Y-36490D01*
X84090Y-36430D01*
X84090Y-40394D01*
X84031Y-40336D01*
X83888Y-40426D01*
X83736Y-40811D01*
X83743Y-41224D01*
X83888Y-41573D01*
X84031Y-41663D01*
X84695Y-41000D01*
X84695Y-41169D01*
X84116Y-41748D01*
X84206Y-41891D01*
X84591Y-42043D01*
X85004Y-42036D01*
X85353Y-41891D01*
X85443Y-41748D01*
X85443Y-42243D01*
X85095Y-42591D01*
X85026Y-42695D01*
X85002Y-42817D01*
X85002Y-46876D01*
X83440Y-48438D01*
X83440Y-48412D01*
X83440Y-47412D01*
X83373Y-47251D01*
X83249Y-47127D01*
X83087Y-47060D01*
X82912Y-47059D01*
X82751Y-47126D01*
X82627Y-47250D01*
X82560Y-47412D01*
X82559Y-47587D01*
X82626Y-47748D01*
X82750Y-47872D01*
X82912Y-47939D01*
X83087Y-47940D01*
X83248Y-47873D01*
X83372Y-47749D01*
X83439Y-47587D01*
X83440Y-47412D01*
X83440Y-48412D01*
X83373Y-48251D01*
X83249Y-48127D01*
X83087Y-48060D01*
X82912Y-48059D01*
X82751Y-48126D01*
X82627Y-48250D01*
X82560Y-48412D01*
X82559Y-48587D01*
X82626Y-48748D01*
X82643Y-48765D01*
X82356Y-48765D01*
X82372Y-48749D01*
X82439Y-48587D01*
X82440Y-48412D01*
X82373Y-48251D01*
X82249Y-48127D01*
X82087Y-48060D01*
X81912Y-48059D01*
X81751Y-48126D01*
X81627Y-48250D01*
X81560Y-48412D01*
X81559Y-48508D01*
X78778Y-45727D01*
X80915Y-45727D01*
X81572Y-46383D01*
X81560Y-46412D01*
X81559Y-46587D01*
X81626Y-46748D01*
X81750Y-46872D01*
X81912Y-46939D01*
X82087Y-46940D01*
X82248Y-46873D01*
X82260Y-46862D01*
X82260Y-46928D01*
X82116Y-47072D01*
X82087Y-47060D01*
X81912Y-47059D01*
X81751Y-47126D01*
X81627Y-47250D01*
X81560Y-47412D01*
X81559Y-47587D01*
X81626Y-47748D01*
X81750Y-47872D01*
X81912Y-47939D01*
X82087Y-47940D01*
X82248Y-47873D01*
X82372Y-47749D01*
X82439Y-47587D01*
X82440Y-47412D01*
X82427Y-47383D01*
X82635Y-47175D01*
X82635Y-47175D01*
X82683Y-47104D01*
X82700Y-47019D01*
X82700Y-47019D01*
X82700Y-46822D01*
X82750Y-46872D01*
X82912Y-46939D01*
X83087Y-46940D01*
X83248Y-46873D01*
X83372Y-46749D01*
X83439Y-46587D01*
X83440Y-46412D01*
X83373Y-46251D01*
X83249Y-46127D01*
X83087Y-46060D01*
X82912Y-46059D01*
X82751Y-46126D01*
X82700Y-46177D01*
X82700Y-45822D01*
X82750Y-45872D01*
X82912Y-45939D01*
X83087Y-45940D01*
X83248Y-45873D01*
X83372Y-45749D01*
X83439Y-45587D01*
X83440Y-45412D01*
X83440Y-44412D01*
X83440Y-43412D01*
X83440Y-42412D01*
X83440Y-41412D01*
X83440Y-40412D01*
X83440Y-39412D01*
X83440Y-38412D01*
X83440Y-37412D01*
X83440Y-36412D01*
X83440Y-35412D01*
X83440Y-34412D01*
X83440Y-33412D01*
X83440Y-32412D01*
X83440Y-31412D01*
X83373Y-31251D01*
X83249Y-31127D01*
X83087Y-31060D01*
X82912Y-31059D01*
X82751Y-31126D01*
X82627Y-31250D01*
X82560Y-31412D01*
X82559Y-31587D01*
X82626Y-31748D01*
X82750Y-31872D01*
X82912Y-31939D01*
X83087Y-31940D01*
X83248Y-31873D01*
X83372Y-31749D01*
X83439Y-31587D01*
X83440Y-31412D01*
X83440Y-32412D01*
X83373Y-32251D01*
X83249Y-32127D01*
X83087Y-32060D01*
X82912Y-32059D01*
X82751Y-32126D01*
X82627Y-32250D01*
X82560Y-32412D01*
X82559Y-32587D01*
X82626Y-32748D01*
X82750Y-32872D01*
X82912Y-32939D01*
X83087Y-32940D01*
X83248Y-32873D01*
X83372Y-32749D01*
X83439Y-32587D01*
X83440Y-32412D01*
X83440Y-33412D01*
X83373Y-33251D01*
X83249Y-33127D01*
X83087Y-33060D01*
X82912Y-33059D01*
X82751Y-33126D01*
X82627Y-33250D01*
X82560Y-33412D01*
X82559Y-33587D01*
X82626Y-33748D01*
X82750Y-33872D01*
X82912Y-33939D01*
X83087Y-33940D01*
X83248Y-33873D01*
X83372Y-33749D01*
X83439Y-33587D01*
X83440Y-33412D01*
X83440Y-34412D01*
X83373Y-34251D01*
X83249Y-34127D01*
X83087Y-34060D01*
X82912Y-34059D01*
X82751Y-34126D01*
X82627Y-34250D01*
X82560Y-34412D01*
X82559Y-34587D01*
X82626Y-34748D01*
X82750Y-34872D01*
X82912Y-34939D01*
X83087Y-34940D01*
X83248Y-34873D01*
X83372Y-34749D01*
X83439Y-34587D01*
X83440Y-34412D01*
X83440Y-35412D01*
X83373Y-35251D01*
X83249Y-35127D01*
X83087Y-35060D01*
X82912Y-35059D01*
X82751Y-35126D01*
X82627Y-35250D01*
X82560Y-35412D01*
X82559Y-35587D01*
X82626Y-35748D01*
X82750Y-35872D01*
X82912Y-35939D01*
X83087Y-35940D01*
X83248Y-35873D01*
X83372Y-35749D01*
X83439Y-35587D01*
X83440Y-35412D01*
X83440Y-36412D01*
X83373Y-36251D01*
X83249Y-36127D01*
X83087Y-36060D01*
X82912Y-36059D01*
X82751Y-36126D01*
X82627Y-36250D01*
X82560Y-36412D01*
X82559Y-36587D01*
X82626Y-36748D01*
X82750Y-36872D01*
X82912Y-36939D01*
X83087Y-36940D01*
X83248Y-36873D01*
X83372Y-36749D01*
X83439Y-36587D01*
X83440Y-36412D01*
X83440Y-37412D01*
X83373Y-37251D01*
X83249Y-37127D01*
X83087Y-37060D01*
X82912Y-37059D01*
X82751Y-37126D01*
X82627Y-37250D01*
X82560Y-37412D01*
X82559Y-37587D01*
X82626Y-37748D01*
X82750Y-37872D01*
X82912Y-37939D01*
X83087Y-37940D01*
X83248Y-37873D01*
X83372Y-37749D01*
X83439Y-37587D01*
X83440Y-37412D01*
X83440Y-38412D01*
X83373Y-38251D01*
X83249Y-38127D01*
X83087Y-38060D01*
X82912Y-38059D01*
X82751Y-38126D01*
X82627Y-38250D01*
X82560Y-38412D01*
X82559Y-38587D01*
X82626Y-38748D01*
X82750Y-38872D01*
X82912Y-38939D01*
X83087Y-38940D01*
X83248Y-38873D01*
X83372Y-38749D01*
X83439Y-38587D01*
X83440Y-38412D01*
X83440Y-39412D01*
X83373Y-39251D01*
X83249Y-39127D01*
X83087Y-39060D01*
X82912Y-39059D01*
X82751Y-39126D01*
X82627Y-39250D01*
X82560Y-39412D01*
X82559Y-39587D01*
X82626Y-39748D01*
X82750Y-39872D01*
X82912Y-39939D01*
X83087Y-39940D01*
X83248Y-39873D01*
X83372Y-39749D01*
X83439Y-39587D01*
X83440Y-39412D01*
X83440Y-40412D01*
X83373Y-40251D01*
X83249Y-40127D01*
X83087Y-40060D01*
X82912Y-40059D01*
X82751Y-40126D01*
X82627Y-40250D01*
X82560Y-40412D01*
X82559Y-40587D01*
X82626Y-40748D01*
X82750Y-40872D01*
X82912Y-40939D01*
X83087Y-40940D01*
X83248Y-40873D01*
X83372Y-40749D01*
X83439Y-40587D01*
X83440Y-40412D01*
X83440Y-41412D01*
X83373Y-41251D01*
X83249Y-41127D01*
X83087Y-41060D01*
X82912Y-41059D01*
X82751Y-41126D01*
X82627Y-41250D01*
X82560Y-41412D01*
X82559Y-41587D01*
X82626Y-41748D01*
X82750Y-41872D01*
X82912Y-41939D01*
X83087Y-41940D01*
X83248Y-41873D01*
X83372Y-41749D01*
X83439Y-41587D01*
X83440Y-41412D01*
X83440Y-42412D01*
X83373Y-42251D01*
X83249Y-42127D01*
X83087Y-42060D01*
X82912Y-42059D01*
X82751Y-42126D01*
X82627Y-42250D01*
X82560Y-42412D01*
X82559Y-42587D01*
X82626Y-42748D01*
X82750Y-42872D01*
X82912Y-42939D01*
X83087Y-42940D01*
X83248Y-42873D01*
X83372Y-42749D01*
X83439Y-42587D01*
X83440Y-42412D01*
X83440Y-43412D01*
X83373Y-43251D01*
X83249Y-43127D01*
X83087Y-43060D01*
X82912Y-43059D01*
X82751Y-43126D01*
X82627Y-43250D01*
X82560Y-43412D01*
X82559Y-43587D01*
X82626Y-43748D01*
X82750Y-43872D01*
X82912Y-43939D01*
X83087Y-43940D01*
X83248Y-43873D01*
X83372Y-43749D01*
X83439Y-43587D01*
X83440Y-43412D01*
X83440Y-44412D01*
X83373Y-44251D01*
X83249Y-44127D01*
X83087Y-44060D01*
X82912Y-44059D01*
X82751Y-44126D01*
X82627Y-44250D01*
X82560Y-44412D01*
X82559Y-44587D01*
X82626Y-44748D01*
X82750Y-44872D01*
X82912Y-44939D01*
X83087Y-44940D01*
X83248Y-44873D01*
X83372Y-44749D01*
X83439Y-44587D01*
X83440Y-44412D01*
X83440Y-45412D01*
X83373Y-45251D01*
X83249Y-45127D01*
X83087Y-45060D01*
X82912Y-45059D01*
X82751Y-45126D01*
X82682Y-45195D01*
X82635Y-45126D01*
X82635Y-45126D01*
X82334Y-44824D01*
X82312Y-44809D01*
X82372Y-44749D01*
X82439Y-44587D01*
X82440Y-44412D01*
X82440Y-43412D01*
X82440Y-42412D01*
X82440Y-41412D01*
X82440Y-40412D01*
X82440Y-39412D01*
X82440Y-38412D01*
X82440Y-37412D01*
X82440Y-36412D01*
X82440Y-35412D01*
X82440Y-34412D01*
X82440Y-33412D01*
X82440Y-32412D01*
X82440Y-31412D01*
X82373Y-31251D01*
X82249Y-31127D01*
X82087Y-31060D01*
X81912Y-31059D01*
X81751Y-31126D01*
X81627Y-31250D01*
X81560Y-31412D01*
X81559Y-31587D01*
X81626Y-31748D01*
X81750Y-31872D01*
X81912Y-31939D01*
X82087Y-31940D01*
X82248Y-31873D01*
X82372Y-31749D01*
X82439Y-31587D01*
X82440Y-31412D01*
X82440Y-32412D01*
X82373Y-32251D01*
X82249Y-32127D01*
X82087Y-32060D01*
X81912Y-32059D01*
X81751Y-32126D01*
X81627Y-32250D01*
X81560Y-32412D01*
X81559Y-32587D01*
X81626Y-32748D01*
X81750Y-32872D01*
X81912Y-32939D01*
X82087Y-32940D01*
X82248Y-32873D01*
X82372Y-32749D01*
X82439Y-32587D01*
X82440Y-32412D01*
X82440Y-33412D01*
X82373Y-33251D01*
X82249Y-33127D01*
X82087Y-33060D01*
X81912Y-33059D01*
X81751Y-33126D01*
X81627Y-33250D01*
X81560Y-33412D01*
X81559Y-33587D01*
X81626Y-33748D01*
X81750Y-33872D01*
X81912Y-33939D01*
X82087Y-33940D01*
X82248Y-33873D01*
X82372Y-33749D01*
X82439Y-33587D01*
X82440Y-33412D01*
X82440Y-34412D01*
X82373Y-34251D01*
X82249Y-34127D01*
X82087Y-34060D01*
X81912Y-34059D01*
X81751Y-34126D01*
X81627Y-34250D01*
X81560Y-34412D01*
X81559Y-34587D01*
X81626Y-34748D01*
X81750Y-34872D01*
X81912Y-34939D01*
X82087Y-34940D01*
X82248Y-34873D01*
X82372Y-34749D01*
X82439Y-34587D01*
X82440Y-34412D01*
X82440Y-35412D01*
X82373Y-35251D01*
X82249Y-35127D01*
X82087Y-35060D01*
X81912Y-35059D01*
X81751Y-35126D01*
X81627Y-35250D01*
X81560Y-35412D01*
X81559Y-35587D01*
X81626Y-35748D01*
X81750Y-35872D01*
X81912Y-35939D01*
X82087Y-35940D01*
X82248Y-35873D01*
X82372Y-35749D01*
X82439Y-35587D01*
X82440Y-35412D01*
X82440Y-36412D01*
X82373Y-36251D01*
X82249Y-36127D01*
X82087Y-36060D01*
X81912Y-36059D01*
X81751Y-36126D01*
X81627Y-36250D01*
X81560Y-36412D01*
X81559Y-36587D01*
X81626Y-36748D01*
X81750Y-36872D01*
X81912Y-36939D01*
X82087Y-36940D01*
X82248Y-36873D01*
X82372Y-36749D01*
X82439Y-36587D01*
X82440Y-36412D01*
X82440Y-37412D01*
X82373Y-37251D01*
X82249Y-37127D01*
X82087Y-37060D01*
X81912Y-37059D01*
X81751Y-37126D01*
X81627Y-37250D01*
X81560Y-37412D01*
X81559Y-37587D01*
X81626Y-37748D01*
X81750Y-37872D01*
X81912Y-37939D01*
X82087Y-37940D01*
X82248Y-37873D01*
X82372Y-37749D01*
X82439Y-37587D01*
X82440Y-37412D01*
X82440Y-38412D01*
X82373Y-38251D01*
X82249Y-38127D01*
X82087Y-38060D01*
X81912Y-38059D01*
X81751Y-38126D01*
X81627Y-38250D01*
X81560Y-38412D01*
X81559Y-38587D01*
X81626Y-38748D01*
X81750Y-38872D01*
X81912Y-38939D01*
X82087Y-38940D01*
X82248Y-38873D01*
X82372Y-38749D01*
X82439Y-38587D01*
X82440Y-38412D01*
X82440Y-39412D01*
X82373Y-39251D01*
X82249Y-39127D01*
X82087Y-39060D01*
X81912Y-39059D01*
X81751Y-39126D01*
X81627Y-39250D01*
X81560Y-39412D01*
X81559Y-39587D01*
X81626Y-39748D01*
X81750Y-39872D01*
X81912Y-39939D01*
X82087Y-39940D01*
X82248Y-39873D01*
X82372Y-39749D01*
X82439Y-39587D01*
X82440Y-39412D01*
X82440Y-40412D01*
X82373Y-40251D01*
X82249Y-40127D01*
X82087Y-40060D01*
X81912Y-40059D01*
X81751Y-40126D01*
X81627Y-40250D01*
X81560Y-40412D01*
X81559Y-40587D01*
X81626Y-40748D01*
X81750Y-40872D01*
X81912Y-40939D01*
X82087Y-40940D01*
X82248Y-40873D01*
X82372Y-40749D01*
X82439Y-40587D01*
X82440Y-40412D01*
X82440Y-41412D01*
X82373Y-41251D01*
X82249Y-41127D01*
X82087Y-41060D01*
X81912Y-41059D01*
X81751Y-41126D01*
X81627Y-41250D01*
X81560Y-41412D01*
X81559Y-41587D01*
X81626Y-41748D01*
X81750Y-41872D01*
X81912Y-41939D01*
X82087Y-41940D01*
X82248Y-41873D01*
X82372Y-41749D01*
X82439Y-41587D01*
X82440Y-41412D01*
X82440Y-42412D01*
X82373Y-42251D01*
X82249Y-42127D01*
X82087Y-42060D01*
X81912Y-42059D01*
X81751Y-42126D01*
X81627Y-42250D01*
X81560Y-42412D01*
X81559Y-42587D01*
X81626Y-42748D01*
X81750Y-42872D01*
X81912Y-42939D01*
X82087Y-42940D01*
X82248Y-42873D01*
X82372Y-42749D01*
X82439Y-42587D01*
X82440Y-42412D01*
X82440Y-43412D01*
X82373Y-43251D01*
X82249Y-43127D01*
X82087Y-43060D01*
X81912Y-43059D01*
X81751Y-43126D01*
X81627Y-43250D01*
X81560Y-43412D01*
X81559Y-43587D01*
X81626Y-43748D01*
X81750Y-43872D01*
X81912Y-43939D01*
X82087Y-43940D01*
X82248Y-43873D01*
X82372Y-43749D01*
X82439Y-43587D01*
X82440Y-43412D01*
X82440Y-44412D01*
X82373Y-44251D01*
X82249Y-44127D01*
X82087Y-44060D01*
X81912Y-44059D01*
X81751Y-44126D01*
X81627Y-44250D01*
X81560Y-44412D01*
X81559Y-44587D01*
X81626Y-44748D01*
X81637Y-44760D01*
X80244Y-44760D01*
X79440Y-43955D01*
X79440Y-31712D01*
X79440Y-31287D01*
X79406Y-31119D01*
X79311Y-30976D01*
X79168Y-30880D01*
X79000Y-30847D01*
X78831Y-30880D01*
X78688Y-30976D01*
X78593Y-31119D01*
X78560Y-31287D01*
X78560Y-31712D01*
X78593Y-31880D01*
X78688Y-32023D01*
X78831Y-32119D01*
X79000Y-32152D01*
X79168Y-32119D01*
X79311Y-32023D01*
X79406Y-31880D01*
X79440Y-31712D01*
X79440Y-43955D01*
X78440Y-42955D01*
X78440Y-31712D01*
X78440Y-31287D01*
X78406Y-31119D01*
X78311Y-30976D01*
X78168Y-30880D01*
X78000Y-30847D01*
X77831Y-30880D01*
X77688Y-30976D01*
X77593Y-31119D01*
X77560Y-31287D01*
X77560Y-31712D01*
X77593Y-31880D01*
X77688Y-32023D01*
X77831Y-32119D01*
X78000Y-32152D01*
X78168Y-32119D01*
X78311Y-32023D01*
X78406Y-31880D01*
X78440Y-31712D01*
X78440Y-42955D01*
X77440Y-41955D01*
X77440Y-31712D01*
X77440Y-31287D01*
X77406Y-31119D01*
X77311Y-30976D01*
X77168Y-30880D01*
X77000Y-30847D01*
X76831Y-30880D01*
X76688Y-30976D01*
X76593Y-31119D01*
X76560Y-31287D01*
X76560Y-31712D01*
X76593Y-31880D01*
X76688Y-32023D01*
X76831Y-32119D01*
X77000Y-32152D01*
X77168Y-32119D01*
X77311Y-32023D01*
X77406Y-31880D01*
X77440Y-31712D01*
X77440Y-41955D01*
X76440Y-40955D01*
X76440Y-31712D01*
X76440Y-31287D01*
X76406Y-31119D01*
X76311Y-30976D01*
X76168Y-30880D01*
X76000Y-30847D01*
X75831Y-30880D01*
X75688Y-30976D01*
X75593Y-31119D01*
X75560Y-31287D01*
X75560Y-31712D01*
X75593Y-31880D01*
X75688Y-32023D01*
X75831Y-32119D01*
X76000Y-32152D01*
X76168Y-32119D01*
X76311Y-32023D01*
X76406Y-31880D01*
X76440Y-31712D01*
X76440Y-40955D01*
X75530Y-40046D01*
X75530Y-34698D01*
X75514Y-34614D01*
X75514Y-34614D01*
X75466Y-34543D01*
X75440Y-34516D01*
X75440Y-31712D01*
X75440Y-31287D01*
X75406Y-31119D01*
X75311Y-30976D01*
X75168Y-30880D01*
X75000Y-30847D01*
X74831Y-30880D01*
X74688Y-30976D01*
X74593Y-31119D01*
X74560Y-31287D01*
X74560Y-31712D01*
X74593Y-31880D01*
X74688Y-32023D01*
X74831Y-32119D01*
X75000Y-32152D01*
X75168Y-32119D01*
X75311Y-32023D01*
X75406Y-31880D01*
X75440Y-31712D01*
X75440Y-34516D01*
X74440Y-33516D01*
X74440Y-31712D01*
X74440Y-31287D01*
X74406Y-31119D01*
X74311Y-30976D01*
X74168Y-30880D01*
X74000Y-30847D01*
X73831Y-30880D01*
X73688Y-30976D01*
X73593Y-31119D01*
X73560Y-31287D01*
X73560Y-31712D01*
X73593Y-31880D01*
X73688Y-32023D01*
X73831Y-32119D01*
X74000Y-32152D01*
X74168Y-32119D01*
X74311Y-32023D01*
X74406Y-31880D01*
X74440Y-31712D01*
X74440Y-33516D01*
X73087Y-32164D01*
X73053Y-32141D01*
X73168Y-32119D01*
X73311Y-32023D01*
X73406Y-31880D01*
X73440Y-31712D01*
X73440Y-31287D01*
X73406Y-31119D01*
X73311Y-30976D01*
X73168Y-30880D01*
X73000Y-30847D01*
X72831Y-30880D01*
X72688Y-30976D01*
X72593Y-31119D01*
X72560Y-31287D01*
X72560Y-31712D01*
X72593Y-31880D01*
X72688Y-32023D01*
X72802Y-32099D01*
X72197Y-32099D01*
X72311Y-32023D01*
X72406Y-31880D01*
X72440Y-31712D01*
X72440Y-31287D01*
X72406Y-31119D01*
X72311Y-30976D01*
X72168Y-30880D01*
X72000Y-30847D01*
X71831Y-30880D01*
X71688Y-30976D01*
X71593Y-31119D01*
X71560Y-31287D01*
X71560Y-31712D01*
X71593Y-31880D01*
X71688Y-32023D01*
X71802Y-32099D01*
X70197Y-32099D01*
X70311Y-32023D01*
X70406Y-31880D01*
X70440Y-31712D01*
X70440Y-31287D01*
X70406Y-31119D01*
X70311Y-30976D01*
X70168Y-30880D01*
X70000Y-30847D01*
X69831Y-30880D01*
X69688Y-30976D01*
X69593Y-31119D01*
X69560Y-31287D01*
X69560Y-31712D01*
X69593Y-31880D01*
X69688Y-32023D01*
X69802Y-32099D01*
X69197Y-32099D01*
X69311Y-32023D01*
X69406Y-31880D01*
X69440Y-31712D01*
X69440Y-31287D01*
X69406Y-31119D01*
X69311Y-30976D01*
X69168Y-30880D01*
X69000Y-30847D01*
X68831Y-30880D01*
X68688Y-30976D01*
X68593Y-31119D01*
X68560Y-31287D01*
X68560Y-31712D01*
X68593Y-31880D01*
X68688Y-32023D01*
X68802Y-32099D01*
X68197Y-32099D01*
X68311Y-32023D01*
X68406Y-31880D01*
X68440Y-31712D01*
X68440Y-31287D01*
X68406Y-31119D01*
X68311Y-30976D01*
X68168Y-30880D01*
X68000Y-30847D01*
X67831Y-30880D01*
X67688Y-30976D01*
X67593Y-31119D01*
X67560Y-31287D01*
X67560Y-31712D01*
X67593Y-31880D01*
X67688Y-32023D01*
X67802Y-32099D01*
X67197Y-32099D01*
X67311Y-32023D01*
X67406Y-31880D01*
X67440Y-31712D01*
X67440Y-31287D01*
X67406Y-31119D01*
X67311Y-30976D01*
X67168Y-30880D01*
X67000Y-30847D01*
X66831Y-30880D01*
X66688Y-30976D01*
X66593Y-31119D01*
X66560Y-31287D01*
X66560Y-31712D01*
X66593Y-31880D01*
X66688Y-32023D01*
X66802Y-32099D01*
X66197Y-32099D01*
X66311Y-32023D01*
X66406Y-31880D01*
X66440Y-31712D01*
X66440Y-31287D01*
X66406Y-31119D01*
X66311Y-30976D01*
X66168Y-30880D01*
X66000Y-30847D01*
X65831Y-30880D01*
X65688Y-30976D01*
X65593Y-31119D01*
X65560Y-31287D01*
X65560Y-31712D01*
X65593Y-31880D01*
X65688Y-32023D01*
X65802Y-32099D01*
X65197Y-32099D01*
X65311Y-32023D01*
X65406Y-31880D01*
X65440Y-31712D01*
X65440Y-31287D01*
X65406Y-31119D01*
X65311Y-30976D01*
X65168Y-30880D01*
X65000Y-30847D01*
X64831Y-30880D01*
X64688Y-30976D01*
X64593Y-31119D01*
X64560Y-31287D01*
X64560Y-31712D01*
X64593Y-31880D01*
X64688Y-32023D01*
X64802Y-32099D01*
X64197Y-32099D01*
X64311Y-32023D01*
X64406Y-31880D01*
X64440Y-31712D01*
X64440Y-31287D01*
X64406Y-31119D01*
X64311Y-30976D01*
X64168Y-30880D01*
X64000Y-30847D01*
X63831Y-30880D01*
X63688Y-30976D01*
X63593Y-31119D01*
X63560Y-31287D01*
X63560Y-31712D01*
X63593Y-31880D01*
X63688Y-32023D01*
X63802Y-32099D01*
X63197Y-32099D01*
X63311Y-32023D01*
X63406Y-31880D01*
X63440Y-31712D01*
X63440Y-31287D01*
X63406Y-31119D01*
X63311Y-30976D01*
X63168Y-30880D01*
X63000Y-30847D01*
X62831Y-30880D01*
X62688Y-30976D01*
X62593Y-31119D01*
X62560Y-31287D01*
X62560Y-31712D01*
X62593Y-31880D01*
X62688Y-32023D01*
X62802Y-32099D01*
X62684Y-32099D01*
X62638Y-32052D01*
X62522Y-32004D01*
X62396Y-32004D01*
X62281Y-32052D01*
X62192Y-32141D01*
X62144Y-32256D01*
X62144Y-32382D01*
X62192Y-32498D01*
X62193Y-32499D01*
X61840Y-32499D01*
X61840Y-31712D01*
X61840Y-31287D01*
X61806Y-31119D01*
X61711Y-30976D01*
X61568Y-30880D01*
X61400Y-30847D01*
X61231Y-30880D01*
X61088Y-30976D01*
X60993Y-31119D01*
X60960Y-31287D01*
X60960Y-31712D01*
X60993Y-31880D01*
X61088Y-32023D01*
X61231Y-32119D01*
X61400Y-32152D01*
X61568Y-32119D01*
X61711Y-32023D01*
X61806Y-31880D01*
X61840Y-31712D01*
X61840Y-32499D01*
X60840Y-32499D01*
X60840Y-31712D01*
X60840Y-31287D01*
X60806Y-31119D01*
X60711Y-30976D01*
X60568Y-30880D01*
X60400Y-30847D01*
X60231Y-30880D01*
X60088Y-30976D01*
X59993Y-31119D01*
X59960Y-31287D01*
X59960Y-31712D01*
X59993Y-31880D01*
X60088Y-32023D01*
X60231Y-32119D01*
X60400Y-32152D01*
X60568Y-32119D01*
X60711Y-32023D01*
X60806Y-31880D01*
X60840Y-31712D01*
X60840Y-32499D01*
X59840Y-32499D01*
X59840Y-31712D01*
X59840Y-31287D01*
X59806Y-31119D01*
X59711Y-30976D01*
X59568Y-30880D01*
X59400Y-30847D01*
X59231Y-30880D01*
X59088Y-30976D01*
X58993Y-31119D01*
X58960Y-31287D01*
X58960Y-31712D01*
X58993Y-31880D01*
X59088Y-32023D01*
X59231Y-32119D01*
X59400Y-32152D01*
X59568Y-32119D01*
X59711Y-32023D01*
X59806Y-31880D01*
X59840Y-31712D01*
X59840Y-32499D01*
X58840Y-32499D01*
X58840Y-31712D01*
X58840Y-31287D01*
X58806Y-31119D01*
X58711Y-30976D01*
X58568Y-30880D01*
X58400Y-30847D01*
X58231Y-30880D01*
X58088Y-30976D01*
X57993Y-31119D01*
X57960Y-31287D01*
X57960Y-31712D01*
X57993Y-31880D01*
X58088Y-32023D01*
X58231Y-32119D01*
X58400Y-32152D01*
X58568Y-32119D01*
X58711Y-32023D01*
X58806Y-31880D01*
X58840Y-31712D01*
X58840Y-32499D01*
X57840Y-32499D01*
X57840Y-31712D01*
X57840Y-31287D01*
X57806Y-31119D01*
X57711Y-30976D01*
X57568Y-30880D01*
X57400Y-30847D01*
X57231Y-30880D01*
X57088Y-30976D01*
X56993Y-31119D01*
X56960Y-31287D01*
X56960Y-31712D01*
X56993Y-31880D01*
X57088Y-32023D01*
X57231Y-32119D01*
X57400Y-32152D01*
X57568Y-32119D01*
X57711Y-32023D01*
X57806Y-31880D01*
X57840Y-31712D01*
X57840Y-32499D01*
X56840Y-32499D01*
X56840Y-31712D01*
X56840Y-31287D01*
X56806Y-31119D01*
X56711Y-30976D01*
X56568Y-30880D01*
X56400Y-30847D01*
X56231Y-30880D01*
X56088Y-30976D01*
X55993Y-31119D01*
X55960Y-31287D01*
X55960Y-31712D01*
X55993Y-31880D01*
X56088Y-32023D01*
X56231Y-32119D01*
X56400Y-32152D01*
X56568Y-32119D01*
X56711Y-32023D01*
X56806Y-31880D01*
X56840Y-31712D01*
X56840Y-32499D01*
X55840Y-32499D01*
X55840Y-31712D01*
X55840Y-31287D01*
X55806Y-31119D01*
X55711Y-30976D01*
X55568Y-30880D01*
X55400Y-30847D01*
X55231Y-30880D01*
X55088Y-30976D01*
X54993Y-31119D01*
X54960Y-31287D01*
X54960Y-31712D01*
X54993Y-31880D01*
X55088Y-32023D01*
X55231Y-32119D01*
X55400Y-32152D01*
X55568Y-32119D01*
X55711Y-32023D01*
X55806Y-31880D01*
X55840Y-31712D01*
X55840Y-32499D01*
X54840Y-32499D01*
X54840Y-31712D01*
X54840Y-31287D01*
X54806Y-31119D01*
X54711Y-30976D01*
X54568Y-30880D01*
X54400Y-30847D01*
X54231Y-30880D01*
X54088Y-30976D01*
X53993Y-31119D01*
X53960Y-31287D01*
X53960Y-31712D01*
X53993Y-31880D01*
X54088Y-32023D01*
X54231Y-32119D01*
X54400Y-32152D01*
X54568Y-32119D01*
X54711Y-32023D01*
X54806Y-31880D01*
X54840Y-31712D01*
X54840Y-32499D01*
X53840Y-32499D01*
X53840Y-31712D01*
X53840Y-31287D01*
X53806Y-31119D01*
X53711Y-30976D01*
X53568Y-30880D01*
X53400Y-30847D01*
X53231Y-30880D01*
X53088Y-30976D01*
X52993Y-31119D01*
X52960Y-31287D01*
X52960Y-31712D01*
X52993Y-31880D01*
X53088Y-32023D01*
X53231Y-32119D01*
X53400Y-32152D01*
X53568Y-32119D01*
X53711Y-32023D01*
X53806Y-31880D01*
X53840Y-31712D01*
X53840Y-32499D01*
X52840Y-32499D01*
X52840Y-31712D01*
X52840Y-31287D01*
X52806Y-31119D01*
X52711Y-30976D01*
X52568Y-30880D01*
X52400Y-30847D01*
X52231Y-30880D01*
X52088Y-30976D01*
X51993Y-31119D01*
X51960Y-31287D01*
X51960Y-31712D01*
X51993Y-31880D01*
X52088Y-32023D01*
X52231Y-32119D01*
X52400Y-32152D01*
X52568Y-32119D01*
X52711Y-32023D01*
X52806Y-31880D01*
X52840Y-31712D01*
X52840Y-32499D01*
X50990Y-32499D01*
X50890Y-32519D01*
X50862Y-32538D01*
X50806Y-32575D01*
X49072Y-34310D01*
X48912Y-34309D01*
X48751Y-34376D01*
X48627Y-34500D01*
X48560Y-34662D01*
X48559Y-34837D01*
X48626Y-34998D01*
X48750Y-35122D01*
X48912Y-35189D01*
X49087Y-35190D01*
X49248Y-35123D01*
X49372Y-34999D01*
X49439Y-34837D01*
X49440Y-34677D01*
X50048Y-34068D01*
X50010Y-34162D01*
X50009Y-34337D01*
X50076Y-34498D01*
X50200Y-34622D01*
X50362Y-34689D01*
X50537Y-34690D01*
X50698Y-34623D01*
X50822Y-34499D01*
X50889Y-34337D01*
X50890Y-34177D01*
X51130Y-33937D01*
X51130Y-34447D01*
X51077Y-34500D01*
X51010Y-34662D01*
X51009Y-34837D01*
X51076Y-34998D01*
X51200Y-35122D01*
X51362Y-35189D01*
X51537Y-35190D01*
X51698Y-35123D01*
X51822Y-34999D01*
X51889Y-34837D01*
X51890Y-34662D01*
X51823Y-34501D01*
X51770Y-34447D01*
X51770Y-33939D01*
X51957Y-34127D01*
X51957Y-34915D01*
X51950Y-34922D01*
X51902Y-35038D01*
X51902Y-35163D01*
X51950Y-35279D01*
X52039Y-35367D01*
X52154Y-35415D01*
X52280Y-35416D01*
X52395Y-35368D01*
X52484Y-35279D01*
X52532Y-35163D01*
X52532Y-35038D01*
X52484Y-34922D01*
X52477Y-34915D01*
X52477Y-34019D01*
X52461Y-33936D01*
X52457Y-33920D01*
X52457Y-33920D01*
X52401Y-33835D01*
X52401Y-33835D01*
X51788Y-33222D01*
X51703Y-33166D01*
X51604Y-33146D01*
X51293Y-33146D01*
X51194Y-33166D01*
X51166Y-33184D01*
X51109Y-33222D01*
X50522Y-33810D01*
X50362Y-33809D01*
X50268Y-33848D01*
X51097Y-33019D01*
X52657Y-33019D01*
X52627Y-33050D01*
X52560Y-33212D01*
X52559Y-33387D01*
X52626Y-33548D01*
X52750Y-33672D01*
X52912Y-33739D01*
X53087Y-33740D01*
X53248Y-33673D01*
X53372Y-33549D01*
X53439Y-33387D01*
X53440Y-33212D01*
X53373Y-33051D01*
X53341Y-33019D01*
X66008Y-33019D01*
X66029Y-33040D01*
X66029Y-33040D01*
X66113Y-33096D01*
X66201Y-33113D01*
X66201Y-33113D01*
X66434Y-33347D01*
X66434Y-33357D01*
X66482Y-33473D01*
X66571Y-33561D01*
X66687Y-33610D01*
X66812Y-33610D01*
X66928Y-33562D01*
X66935Y-33555D01*
X73357Y-33555D01*
X74462Y-34659D01*
X74370Y-34660D01*
X74310Y-34720D01*
X74310Y-35090D01*
X74317Y-35090D01*
X74317Y-35210D01*
X74310Y-35210D01*
X74310Y-35580D01*
X74370Y-35640D01*
X74702Y-35640D01*
X74727Y-35640D01*
X74727Y-35959D01*
X74722Y-35959D01*
X74190Y-35959D01*
X74190Y-35580D01*
X74190Y-35210D01*
X74190Y-35090D01*
X74190Y-34720D01*
X74130Y-34660D01*
X73797Y-34659D01*
X73702Y-34660D01*
X73613Y-34696D01*
X73546Y-34764D01*
X73509Y-34852D01*
X73510Y-35030D01*
X73570Y-35090D01*
X74190Y-35090D01*
X74190Y-35210D01*
X73570Y-35210D01*
X73510Y-35270D01*
X73509Y-35447D01*
X73546Y-35535D01*
X73613Y-35603D01*
X73702Y-35639D01*
X73797Y-35640D01*
X74130Y-35640D01*
X74190Y-35580D01*
X74190Y-35959D01*
X73722Y-35959D01*
X73670Y-35981D01*
X73631Y-36020D01*
X73610Y-36072D01*
X73609Y-36127D01*
X73609Y-36627D01*
X73631Y-36679D01*
X73670Y-36718D01*
X73722Y-36739D01*
X73777Y-36740D01*
X74030Y-36740D01*
X74030Y-37709D01*
X73987Y-37709D01*
X73935Y-37731D01*
X73896Y-37770D01*
X73875Y-37822D01*
X73874Y-37877D01*
X73874Y-38347D01*
X73896Y-38399D01*
X73935Y-38438D01*
X73987Y-38459D01*
X74042Y-38460D01*
X74337Y-38460D01*
X74257Y-38539D01*
X73987Y-38539D01*
X73935Y-38561D01*
X73896Y-38600D01*
X73875Y-38652D01*
X73874Y-38707D01*
X73874Y-39177D01*
X73896Y-39229D01*
X73935Y-39268D01*
X73987Y-39289D01*
X74042Y-39290D01*
X74512Y-39290D01*
X74564Y-39268D01*
X74603Y-39229D01*
X74624Y-39177D01*
X74625Y-39122D01*
X74625Y-38907D01*
X75090Y-38441D01*
X75090Y-39917D01*
X72910Y-39917D01*
X72825Y-39933D01*
X72754Y-39981D01*
X72692Y-40043D01*
X72490Y-40043D01*
X72490Y-35447D01*
X72490Y-34852D01*
X72453Y-34764D01*
X72386Y-34696D01*
X72297Y-34660D01*
X72202Y-34659D01*
X71870Y-34660D01*
X71810Y-34720D01*
X71810Y-35090D01*
X72430Y-35090D01*
X72490Y-35030D01*
X72490Y-34852D01*
X72490Y-35447D01*
X72490Y-35270D01*
X72430Y-35210D01*
X71810Y-35210D01*
X71810Y-35580D01*
X71870Y-35640D01*
X72202Y-35640D01*
X72297Y-35639D01*
X72386Y-35603D01*
X72453Y-35535D01*
X72490Y-35447D01*
X72490Y-40043D01*
X66770Y-40043D01*
X68262Y-38551D01*
X68262Y-38551D01*
X68274Y-38534D01*
X68838Y-39098D01*
X68838Y-39098D01*
X68874Y-39123D01*
X68874Y-39177D01*
X68896Y-39229D01*
X68935Y-39268D01*
X68987Y-39289D01*
X69042Y-39290D01*
X69512Y-39290D01*
X69564Y-39268D01*
X69603Y-39229D01*
X69624Y-39177D01*
X69625Y-39122D01*
X69625Y-38652D01*
X69603Y-38600D01*
X69564Y-38561D01*
X69512Y-38540D01*
X69457Y-38539D01*
X69015Y-38539D01*
X68383Y-37908D01*
X68345Y-37817D01*
X68257Y-37729D01*
X68141Y-37681D01*
X68016Y-37681D01*
X67900Y-37728D01*
X67811Y-37817D01*
X67763Y-37933D01*
X67763Y-38058D01*
X67811Y-38174D01*
X67818Y-38181D01*
X67818Y-38260D01*
X67125Y-38953D01*
X67125Y-38652D01*
X67103Y-38600D01*
X67064Y-38561D01*
X67012Y-38540D01*
X66957Y-38539D01*
X66554Y-38539D01*
X66554Y-38460D01*
X67012Y-38460D01*
X67064Y-38438D01*
X67103Y-38399D01*
X67124Y-38347D01*
X67125Y-38292D01*
X67125Y-37822D01*
X67103Y-37770D01*
X67064Y-37731D01*
X67012Y-37710D01*
X66970Y-37709D01*
X66970Y-36780D01*
X66970Y-36740D01*
X67277Y-36740D01*
X67329Y-36718D01*
X67368Y-36679D01*
X67389Y-36627D01*
X67390Y-36572D01*
X67390Y-36139D01*
X68609Y-36139D01*
X68609Y-36627D01*
X68631Y-36679D01*
X68670Y-36718D01*
X68722Y-36739D01*
X68777Y-36740D01*
X69030Y-36740D01*
X69030Y-37709D01*
X68987Y-37709D01*
X68935Y-37731D01*
X68896Y-37770D01*
X68875Y-37822D01*
X68874Y-37877D01*
X68874Y-38347D01*
X68896Y-38399D01*
X68935Y-38438D01*
X68987Y-38459D01*
X69042Y-38460D01*
X69512Y-38460D01*
X69564Y-38438D01*
X69603Y-38399D01*
X69624Y-38347D01*
X69625Y-38292D01*
X69625Y-37822D01*
X69603Y-37770D01*
X69564Y-37731D01*
X69512Y-37710D01*
X69470Y-37709D01*
X69470Y-36740D01*
X69739Y-36740D01*
X69739Y-37164D01*
X69759Y-37263D01*
X69815Y-37348D01*
X71374Y-38907D01*
X71374Y-39177D01*
X71396Y-39229D01*
X71435Y-39268D01*
X71487Y-39289D01*
X71542Y-39290D01*
X72012Y-39290D01*
X72064Y-39268D01*
X72103Y-39229D01*
X72124Y-39177D01*
X72125Y-39122D01*
X72125Y-38652D01*
X72103Y-38600D01*
X72064Y-38561D01*
X72012Y-38540D01*
X71957Y-38539D01*
X71742Y-38539D01*
X71662Y-38460D01*
X72012Y-38460D01*
X72064Y-38438D01*
X72103Y-38399D01*
X72124Y-38347D01*
X72125Y-38292D01*
X72125Y-37822D01*
X72103Y-37770D01*
X72064Y-37731D01*
X72012Y-37710D01*
X71970Y-37709D01*
X71970Y-36740D01*
X72277Y-36740D01*
X72329Y-36718D01*
X72368Y-36679D01*
X72389Y-36627D01*
X72390Y-36572D01*
X72390Y-36072D01*
X72368Y-36020D01*
X72329Y-35981D01*
X72277Y-35960D01*
X72222Y-35959D01*
X71690Y-35959D01*
X71690Y-35580D01*
X71690Y-35210D01*
X71690Y-35090D01*
X71690Y-34720D01*
X71630Y-34660D01*
X71297Y-34659D01*
X71202Y-34660D01*
X71113Y-34696D01*
X71046Y-34764D01*
X71009Y-34852D01*
X71010Y-35030D01*
X71070Y-35090D01*
X71690Y-35090D01*
X71690Y-35210D01*
X71070Y-35210D01*
X71010Y-35270D01*
X71009Y-35447D01*
X71046Y-35535D01*
X71113Y-35603D01*
X71202Y-35639D01*
X71297Y-35640D01*
X71630Y-35640D01*
X71690Y-35580D01*
X71690Y-35959D01*
X71222Y-35959D01*
X71170Y-35981D01*
X71131Y-36020D01*
X71110Y-36072D01*
X71109Y-36127D01*
X71109Y-36627D01*
X71131Y-36679D01*
X71170Y-36718D01*
X71222Y-36739D01*
X71277Y-36740D01*
X71530Y-36740D01*
X71530Y-37709D01*
X71487Y-37709D01*
X71435Y-37731D01*
X71396Y-37770D01*
X71375Y-37822D01*
X71374Y-37877D01*
X71374Y-38172D01*
X70259Y-37056D01*
X70259Y-36036D01*
X70239Y-35937D01*
X70183Y-35852D01*
X70183Y-35852D01*
X70026Y-35695D01*
X69942Y-35639D01*
X69845Y-35620D01*
X69886Y-35603D01*
X69953Y-35535D01*
X69990Y-35447D01*
X69990Y-34852D01*
X69953Y-34764D01*
X69886Y-34696D01*
X69797Y-34660D01*
X69702Y-34659D01*
X69370Y-34660D01*
X69310Y-34720D01*
X69310Y-35090D01*
X69930Y-35090D01*
X69990Y-35030D01*
X69990Y-34852D01*
X69990Y-35447D01*
X69990Y-35270D01*
X69930Y-35210D01*
X69310Y-35210D01*
X69310Y-35217D01*
X69190Y-35217D01*
X69190Y-35210D01*
X69190Y-35090D01*
X69190Y-34720D01*
X69130Y-34660D01*
X68797Y-34659D01*
X68702Y-34660D01*
X68613Y-34696D01*
X68546Y-34764D01*
X68509Y-34852D01*
X68510Y-35030D01*
X68570Y-35090D01*
X69190Y-35090D01*
X69190Y-35210D01*
X68570Y-35210D01*
X68510Y-35270D01*
X68509Y-35447D01*
X68546Y-35535D01*
X68613Y-35603D01*
X68653Y-35619D01*
X67945Y-35619D01*
X67945Y-34336D01*
X67940Y-34311D01*
X67940Y-34274D01*
X67925Y-34239D01*
X67920Y-34214D01*
X67906Y-34192D01*
X67892Y-34158D01*
X67865Y-34131D01*
X67851Y-34110D01*
X67830Y-34096D01*
X67803Y-34069D01*
X67769Y-34055D01*
X67747Y-34041D01*
X67722Y-34036D01*
X67688Y-34021D01*
X67650Y-34021D01*
X67625Y-34016D01*
X64581Y-34016D01*
X64458Y-34041D01*
X64354Y-34110D01*
X64189Y-34276D01*
X64174Y-34297D01*
X64148Y-34323D01*
X64133Y-34358D01*
X64119Y-34379D01*
X64114Y-34405D01*
X64100Y-34439D01*
X64100Y-34477D01*
X64095Y-34502D01*
X64100Y-34527D01*
X64100Y-34564D01*
X64114Y-34599D01*
X64119Y-34624D01*
X64133Y-34646D01*
X64146Y-34676D01*
X64130Y-34660D01*
X63797Y-34659D01*
X63702Y-34660D01*
X63613Y-34696D01*
X63546Y-34764D01*
X63509Y-34852D01*
X63510Y-35030D01*
X63570Y-35090D01*
X64190Y-35090D01*
X64190Y-35082D01*
X64310Y-35082D01*
X64310Y-35090D01*
X64930Y-35090D01*
X64990Y-35030D01*
X64990Y-34852D01*
X64953Y-34764D01*
X64886Y-34696D01*
X64797Y-34660D01*
X64710Y-34659D01*
X64713Y-34656D01*
X67625Y-34656D01*
X67650Y-34651D01*
X67687Y-34651D01*
X67722Y-34637D01*
X67747Y-34632D01*
X67768Y-34618D01*
X67803Y-34603D01*
X67830Y-34577D01*
X67851Y-34562D01*
X67865Y-34541D01*
X67892Y-34515D01*
X67906Y-34480D01*
X67920Y-34459D01*
X67925Y-34434D01*
X67940Y-34399D01*
X67940Y-34361D01*
X67945Y-34336D01*
X67945Y-35619D01*
X67476Y-35619D01*
X67448Y-35550D01*
X67443Y-35545D01*
X67453Y-35535D01*
X67490Y-35447D01*
X67490Y-34852D01*
X67453Y-34764D01*
X67386Y-34696D01*
X67297Y-34660D01*
X67202Y-34659D01*
X66870Y-34660D01*
X66810Y-34720D01*
X66810Y-35090D01*
X67430Y-35090D01*
X67490Y-35030D01*
X67490Y-34852D01*
X67490Y-35447D01*
X67490Y-35270D01*
X67430Y-35210D01*
X66810Y-35210D01*
X66810Y-35217D01*
X66690Y-35217D01*
X66690Y-35210D01*
X66690Y-35090D01*
X66690Y-34720D01*
X66630Y-34660D01*
X66297Y-34659D01*
X66202Y-34660D01*
X66113Y-34696D01*
X66046Y-34764D01*
X66009Y-34852D01*
X66010Y-35030D01*
X66070Y-35090D01*
X66690Y-35090D01*
X66690Y-35210D01*
X66070Y-35210D01*
X66010Y-35270D01*
X66009Y-35447D01*
X66046Y-35535D01*
X66113Y-35603D01*
X66153Y-35619D01*
X66131Y-35619D01*
X66031Y-35639D01*
X65947Y-35695D01*
X64990Y-36653D01*
X64990Y-35447D01*
X64990Y-35270D01*
X64930Y-35210D01*
X64310Y-35210D01*
X64310Y-35580D01*
X64370Y-35640D01*
X64702Y-35640D01*
X64797Y-35639D01*
X64886Y-35603D01*
X64953Y-35535D01*
X64990Y-35447D01*
X64990Y-36653D01*
X64786Y-36857D01*
X64729Y-36941D01*
X64724Y-36967D01*
X64724Y-36967D01*
X64677Y-36896D01*
X64521Y-36740D01*
X64777Y-36740D01*
X64829Y-36718D01*
X64868Y-36679D01*
X64889Y-36627D01*
X64890Y-36572D01*
X64890Y-36072D01*
X64868Y-36020D01*
X64829Y-35981D01*
X64777Y-35960D01*
X64722Y-35959D01*
X64190Y-35959D01*
X64190Y-35580D01*
X64190Y-35210D01*
X63570Y-35210D01*
X63510Y-35270D01*
X63509Y-35447D01*
X63546Y-35535D01*
X63613Y-35603D01*
X63702Y-35639D01*
X63797Y-35640D01*
X64130Y-35640D01*
X64190Y-35580D01*
X64190Y-35959D01*
X63722Y-35959D01*
X63670Y-35981D01*
X63631Y-36020D01*
X63610Y-36072D01*
X63609Y-36127D01*
X63609Y-36627D01*
X63631Y-36679D01*
X63670Y-36718D01*
X63722Y-36739D01*
X63777Y-36740D01*
X64030Y-36740D01*
X64030Y-36780D01*
X64046Y-36864D01*
X64094Y-36935D01*
X64125Y-36966D01*
X64094Y-36966D01*
X63978Y-37014D01*
X63971Y-37021D01*
X63900Y-37021D01*
X62575Y-35695D01*
X62490Y-35639D01*
X62391Y-35619D01*
X62346Y-35619D01*
X62386Y-35603D01*
X62453Y-35535D01*
X62490Y-35447D01*
X62490Y-34852D01*
X62453Y-34764D01*
X62386Y-34696D01*
X62297Y-34660D01*
X62202Y-34659D01*
X61870Y-34660D01*
X61810Y-34720D01*
X61810Y-35090D01*
X62430Y-35090D01*
X62490Y-35030D01*
X62490Y-34852D01*
X62490Y-35447D01*
X62490Y-35270D01*
X62430Y-35210D01*
X61810Y-35210D01*
X61810Y-35217D01*
X61690Y-35217D01*
X61690Y-35210D01*
X61690Y-35090D01*
X61690Y-34720D01*
X61630Y-34660D01*
X61297Y-34659D01*
X61202Y-34660D01*
X61113Y-34696D01*
X61046Y-34764D01*
X61009Y-34852D01*
X61010Y-35030D01*
X61070Y-35090D01*
X61690Y-35090D01*
X61690Y-35210D01*
X61070Y-35210D01*
X61010Y-35270D01*
X61009Y-35447D01*
X61046Y-35535D01*
X61113Y-35603D01*
X61153Y-35619D01*
X59846Y-35619D01*
X59886Y-35603D01*
X59953Y-35535D01*
X59990Y-35447D01*
X59990Y-34852D01*
X59953Y-34764D01*
X59886Y-34696D01*
X59797Y-34660D01*
X59702Y-34659D01*
X59370Y-34660D01*
X59310Y-34720D01*
X59310Y-35090D01*
X59930Y-35090D01*
X59990Y-35030D01*
X59990Y-34852D01*
X59990Y-35447D01*
X59990Y-35270D01*
X59930Y-35210D01*
X59310Y-35210D01*
X59310Y-35217D01*
X59190Y-35217D01*
X59190Y-35210D01*
X59190Y-35090D01*
X59190Y-34720D01*
X59130Y-34660D01*
X58797Y-34659D01*
X58702Y-34660D01*
X58613Y-34696D01*
X58546Y-34764D01*
X58509Y-34852D01*
X58510Y-35030D01*
X58570Y-35090D01*
X59190Y-35090D01*
X59190Y-35210D01*
X58570Y-35210D01*
X58510Y-35270D01*
X58509Y-35447D01*
X58546Y-35535D01*
X58613Y-35603D01*
X58653Y-35619D01*
X57346Y-35619D01*
X57386Y-35603D01*
X57453Y-35535D01*
X57490Y-35447D01*
X57490Y-34852D01*
X57453Y-34764D01*
X57386Y-34696D01*
X57297Y-34660D01*
X57202Y-34659D01*
X56870Y-34660D01*
X56810Y-34720D01*
X56810Y-35090D01*
X57430Y-35090D01*
X57490Y-35030D01*
X57490Y-34852D01*
X57490Y-35447D01*
X57490Y-35270D01*
X57430Y-35210D01*
X56810Y-35210D01*
X56810Y-35217D01*
X56690Y-35217D01*
X56690Y-35210D01*
X56690Y-35090D01*
X56690Y-34720D01*
X56630Y-34660D01*
X56297Y-34659D01*
X56202Y-34660D01*
X56113Y-34696D01*
X56046Y-34764D01*
X56009Y-34852D01*
X56010Y-35030D01*
X56070Y-35090D01*
X56690Y-35090D01*
X56690Y-35210D01*
X56070Y-35210D01*
X56010Y-35270D01*
X56009Y-35447D01*
X56046Y-35535D01*
X56113Y-35603D01*
X56153Y-35619D01*
X54084Y-35619D01*
X53985Y-35639D01*
X53900Y-35695D01*
X53440Y-36156D01*
X53440Y-34212D01*
X53373Y-34051D01*
X53249Y-33927D01*
X53087Y-33860D01*
X52912Y-33859D01*
X52751Y-33926D01*
X52627Y-34050D01*
X52560Y-34212D01*
X52559Y-34387D01*
X52626Y-34548D01*
X52750Y-34672D01*
X52912Y-34739D01*
X53087Y-34740D01*
X53248Y-34673D01*
X53372Y-34549D01*
X53439Y-34387D01*
X53440Y-34212D01*
X53440Y-36156D01*
X51996Y-37600D01*
X51996Y-36819D01*
X51981Y-36605D01*
X51928Y-36476D01*
X51890Y-36464D01*
X51890Y-35662D01*
X51823Y-35501D01*
X51699Y-35377D01*
X51537Y-35310D01*
X51362Y-35309D01*
X51201Y-35376D01*
X51077Y-35500D01*
X51010Y-35662D01*
X51009Y-35837D01*
X51076Y-35998D01*
X51200Y-36122D01*
X51362Y-36189D01*
X51537Y-36190D01*
X51698Y-36123D01*
X51822Y-35999D01*
X51889Y-35837D01*
X51890Y-35662D01*
X51890Y-36464D01*
X51836Y-36448D01*
X51751Y-36532D01*
X51751Y-36363D01*
X51723Y-36271D01*
X51519Y-36203D01*
X51305Y-36218D01*
X51176Y-36271D01*
X51148Y-36363D01*
X51450Y-36665D01*
X51751Y-36363D01*
X51751Y-36532D01*
X51534Y-36750D01*
X51836Y-37051D01*
X51928Y-37023D01*
X51996Y-36819D01*
X51996Y-37600D01*
X51981Y-37614D01*
X51981Y-37605D01*
X51928Y-37476D01*
X51836Y-37448D01*
X51751Y-37532D01*
X51751Y-37363D01*
X51723Y-37271D01*
X51664Y-37252D01*
X51723Y-37228D01*
X51751Y-37136D01*
X51450Y-36834D01*
X51365Y-36919D01*
X51365Y-36750D01*
X51063Y-36448D01*
X50971Y-36476D01*
X50903Y-36680D01*
X50918Y-36894D01*
X50971Y-37023D01*
X51063Y-37051D01*
X51365Y-36750D01*
X51365Y-36919D01*
X51148Y-37136D01*
X51176Y-37228D01*
X51235Y-37247D01*
X51176Y-37271D01*
X51148Y-37363D01*
X51450Y-37665D01*
X51751Y-37363D01*
X51751Y-37532D01*
X51534Y-37750D01*
X51540Y-37755D01*
X51455Y-37840D01*
X51450Y-37834D01*
X51444Y-37840D01*
X51359Y-37755D01*
X51365Y-37750D01*
X51063Y-37448D01*
X50971Y-37476D01*
X50928Y-37606D01*
X50822Y-37499D01*
X50822Y-37499D01*
X50889Y-37337D01*
X50890Y-37162D01*
X50823Y-37001D01*
X50699Y-36877D01*
X50537Y-36810D01*
X50362Y-36809D01*
X50201Y-36876D01*
X50189Y-36887D01*
X50189Y-36877D01*
X50377Y-36689D01*
X50537Y-36690D01*
X50698Y-36623D01*
X50822Y-36499D01*
X50889Y-36337D01*
X50890Y-36162D01*
X50890Y-35162D01*
X50823Y-35001D01*
X50699Y-34877D01*
X50537Y-34810D01*
X50362Y-34809D01*
X50201Y-34876D01*
X50077Y-35000D01*
X50010Y-35162D01*
X50009Y-35337D01*
X50076Y-35498D01*
X50200Y-35622D01*
X50362Y-35689D01*
X50537Y-35690D01*
X50698Y-35623D01*
X50822Y-35499D01*
X50889Y-35337D01*
X50890Y-35162D01*
X50890Y-36162D01*
X50823Y-36001D01*
X50699Y-35877D01*
X50537Y-35810D01*
X50362Y-35809D01*
X50201Y-35876D01*
X50077Y-36000D01*
X50010Y-36162D01*
X50009Y-36322D01*
X49780Y-36552D01*
X49780Y-36270D01*
X49780Y-36270D01*
X49760Y-36170D01*
X49760Y-36170D01*
X49741Y-36142D01*
X49704Y-36086D01*
X49704Y-36086D01*
X49439Y-35822D01*
X49440Y-35662D01*
X49373Y-35501D01*
X49249Y-35377D01*
X49087Y-35310D01*
X48912Y-35309D01*
X48751Y-35376D01*
X48627Y-35500D01*
X48560Y-35662D01*
X48559Y-35837D01*
X48626Y-35998D01*
X48750Y-36122D01*
X48912Y-36189D01*
X49072Y-36190D01*
X49260Y-36377D01*
X49260Y-36387D01*
X49249Y-36377D01*
X49087Y-36310D01*
X48912Y-36309D01*
X48751Y-36376D01*
X48627Y-36500D01*
X48560Y-36662D01*
X48559Y-36837D01*
X48624Y-36993D01*
X48546Y-37071D01*
X48546Y-35319D01*
X48546Y-34319D01*
X48531Y-34105D01*
X48478Y-33976D01*
X48386Y-33948D01*
X48301Y-34032D01*
X48301Y-33863D01*
X48273Y-33771D01*
X48069Y-33703D01*
X47855Y-33718D01*
X47726Y-33771D01*
X47698Y-33863D01*
X48000Y-34165D01*
X48301Y-33863D01*
X48301Y-34032D01*
X48084Y-34250D01*
X48386Y-34551D01*
X48478Y-34523D01*
X48546Y-34319D01*
X48546Y-35319D01*
X48531Y-35105D01*
X48478Y-34976D01*
X48386Y-34948D01*
X48301Y-35032D01*
X48301Y-34863D01*
X48273Y-34771D01*
X48214Y-34752D01*
X48273Y-34728D01*
X48301Y-34636D01*
X48000Y-34334D01*
X47915Y-34419D01*
X47915Y-34250D01*
X47613Y-33948D01*
X47521Y-33976D01*
X47453Y-34180D01*
X47468Y-34394D01*
X47521Y-34523D01*
X47613Y-34551D01*
X47915Y-34250D01*
X47915Y-34419D01*
X47698Y-34636D01*
X47726Y-34728D01*
X47785Y-34747D01*
X47726Y-34771D01*
X47698Y-34863D01*
X48000Y-35165D01*
X48301Y-34863D01*
X48301Y-35032D01*
X48084Y-35250D01*
X48386Y-35551D01*
X48478Y-35523D01*
X48546Y-35319D01*
X48546Y-37071D01*
X48440Y-37177D01*
X48440Y-37162D01*
X48440Y-36162D01*
X48373Y-36001D01*
X48301Y-35929D01*
X48301Y-35636D01*
X48000Y-35334D01*
X47915Y-35419D01*
X47915Y-35250D01*
X47613Y-34948D01*
X47521Y-34976D01*
X47453Y-35180D01*
X47468Y-35394D01*
X47521Y-35523D01*
X47613Y-35551D01*
X47915Y-35250D01*
X47915Y-35419D01*
X47698Y-35636D01*
X47726Y-35728D01*
X47930Y-35796D01*
X48144Y-35781D01*
X48273Y-35728D01*
X48301Y-35636D01*
X48301Y-35929D01*
X48249Y-35877D01*
X48087Y-35810D01*
X47912Y-35809D01*
X47751Y-35876D01*
X47627Y-36000D01*
X47560Y-36162D01*
X47559Y-36337D01*
X47626Y-36498D01*
X47750Y-36622D01*
X47912Y-36689D01*
X48087Y-36690D01*
X48248Y-36623D01*
X48372Y-36499D01*
X48439Y-36337D01*
X48440Y-36162D01*
X48440Y-37162D01*
X48373Y-37001D01*
X48249Y-36877D01*
X48087Y-36810D01*
X47912Y-36809D01*
X47751Y-36876D01*
X47627Y-37000D01*
X47560Y-37162D01*
X47559Y-37337D01*
X47626Y-37498D01*
X47750Y-37622D01*
X47912Y-37689D01*
X48087Y-37690D01*
X48216Y-37636D01*
X48216Y-37988D01*
X48236Y-38087D01*
X48292Y-38172D01*
X50716Y-40596D01*
X50716Y-40596D01*
X50801Y-40653D01*
X50801Y-40653D01*
X50817Y-40656D01*
X50900Y-40672D01*
X62510Y-40672D01*
X62609Y-40653D01*
X62626Y-40641D01*
X62626Y-40756D01*
X62656Y-40828D01*
X61584Y-40828D01*
X61537Y-40782D01*
X61421Y-40733D01*
X61296Y-40733D01*
X61180Y-40781D01*
X61091Y-40870D01*
X61043Y-40986D01*
X61043Y-41111D01*
X61091Y-41227D01*
X61160Y-41295D01*
X51888Y-41295D01*
X51788Y-41315D01*
X51760Y-41334D01*
X51704Y-41371D01*
X48816Y-44260D01*
X48759Y-44344D01*
X48753Y-44375D01*
X48751Y-44376D01*
X48627Y-44500D01*
X48560Y-44662D01*
X48559Y-44837D01*
X48626Y-44998D01*
X48750Y-45122D01*
X48912Y-45189D01*
X49087Y-45190D01*
X49248Y-45123D01*
X49288Y-45083D01*
X49288Y-45093D01*
X49072Y-45310D01*
X48912Y-45309D01*
X48751Y-45376D01*
X48627Y-45500D01*
X48560Y-45662D01*
X48559Y-45837D01*
X48626Y-45998D01*
X48750Y-46122D01*
X48912Y-46189D01*
X49087Y-46190D01*
X49248Y-46123D01*
X49372Y-45999D01*
X49439Y-45837D01*
X49440Y-45677D01*
X49732Y-45385D01*
X49732Y-45385D01*
X49788Y-45300D01*
X49788Y-45300D01*
X49792Y-45284D01*
X49808Y-45201D01*
X49808Y-45201D01*
X49808Y-44520D01*
X50009Y-44319D01*
X50009Y-44337D01*
X50076Y-44498D01*
X50200Y-44622D01*
X50362Y-44689D01*
X50406Y-44689D01*
X50266Y-44830D01*
X50248Y-44857D01*
X50201Y-44876D01*
X50077Y-45000D01*
X50010Y-45162D01*
X50009Y-45337D01*
X50076Y-45498D01*
X50200Y-45622D01*
X50362Y-45689D01*
X50537Y-45690D01*
X50698Y-45623D01*
X50822Y-45499D01*
X50889Y-45337D01*
X50890Y-45162D01*
X50825Y-45006D01*
X51009Y-44822D01*
X51009Y-44837D01*
X51076Y-44998D01*
X51200Y-45122D01*
X51362Y-45189D01*
X51537Y-45190D01*
X51698Y-45123D01*
X51822Y-44999D01*
X51889Y-44837D01*
X51889Y-44822D01*
X55275Y-48207D01*
X54610Y-48207D01*
X53399Y-46996D01*
X53314Y-46939D01*
X53215Y-46919D01*
X52784Y-46919D01*
X52685Y-46939D01*
X52657Y-46958D01*
X52600Y-46996D01*
X51996Y-47600D01*
X51996Y-46819D01*
X51981Y-46605D01*
X51928Y-46476D01*
X51890Y-46464D01*
X51890Y-45662D01*
X51823Y-45501D01*
X51699Y-45377D01*
X51537Y-45310D01*
X51362Y-45309D01*
X51201Y-45376D01*
X51077Y-45500D01*
X51010Y-45662D01*
X51009Y-45837D01*
X51076Y-45998D01*
X51200Y-46122D01*
X51362Y-46189D01*
X51537Y-46190D01*
X51698Y-46123D01*
X51822Y-45999D01*
X51889Y-45837D01*
X51890Y-45662D01*
X51890Y-46464D01*
X51836Y-46448D01*
X51751Y-46532D01*
X51751Y-46363D01*
X51723Y-46271D01*
X51519Y-46203D01*
X51305Y-46218D01*
X51176Y-46271D01*
X51148Y-46363D01*
X51450Y-46665D01*
X51751Y-46363D01*
X51751Y-46532D01*
X51534Y-46750D01*
X51836Y-47051D01*
X51928Y-47023D01*
X51996Y-46819D01*
X51996Y-47600D01*
X51981Y-47614D01*
X51981Y-47605D01*
X51928Y-47476D01*
X51836Y-47448D01*
X51534Y-47750D01*
X51540Y-47755D01*
X51455Y-47840D01*
X51450Y-47834D01*
X51444Y-47840D01*
X51359Y-47755D01*
X51365Y-47750D01*
X51359Y-47744D01*
X51444Y-47659D01*
X51450Y-47665D01*
X51751Y-47363D01*
X51723Y-47271D01*
X51664Y-47252D01*
X51723Y-47228D01*
X51751Y-47136D01*
X51450Y-46834D01*
X51444Y-46840D01*
X51359Y-46755D01*
X51365Y-46750D01*
X51063Y-46448D01*
X50971Y-46476D01*
X50927Y-46609D01*
X50820Y-46502D01*
X50822Y-46499D01*
X50889Y-46337D01*
X50890Y-46162D01*
X50823Y-46001D01*
X50699Y-45877D01*
X50537Y-45810D01*
X50362Y-45809D01*
X50201Y-45876D01*
X50077Y-46000D01*
X50010Y-46162D01*
X50009Y-46337D01*
X50076Y-46498D01*
X50200Y-46622D01*
X50234Y-46637D01*
X50266Y-46683D01*
X50392Y-46809D01*
X50362Y-46809D01*
X50201Y-46876D01*
X50077Y-47000D01*
X50010Y-47162D01*
X50009Y-47337D01*
X50076Y-47498D01*
X50190Y-47612D01*
X50190Y-48027D01*
X50209Y-48127D01*
X50266Y-48211D01*
X51370Y-49316D01*
X51091Y-49316D01*
X49440Y-47665D01*
X49440Y-47662D01*
X49440Y-46662D01*
X49373Y-46501D01*
X49249Y-46377D01*
X49087Y-46310D01*
X48912Y-46309D01*
X48751Y-46376D01*
X48627Y-46500D01*
X48560Y-46662D01*
X48559Y-46837D01*
X48626Y-46998D01*
X48750Y-47122D01*
X48912Y-47189D01*
X49087Y-47190D01*
X49248Y-47123D01*
X49372Y-46999D01*
X49439Y-46837D01*
X49440Y-46662D01*
X49440Y-47662D01*
X49373Y-47501D01*
X49249Y-47377D01*
X49087Y-47310D01*
X48912Y-47309D01*
X48751Y-47376D01*
X48627Y-47500D01*
X48560Y-47662D01*
X48559Y-47837D01*
X48626Y-47998D01*
X48750Y-48122D01*
X48912Y-48189D01*
X49087Y-48190D01*
X49188Y-48148D01*
X50624Y-49585D01*
X50318Y-49584D01*
X49982Y-49723D01*
X49724Y-49981D01*
X49585Y-50317D01*
X49584Y-50681D01*
X49723Y-51017D01*
X49981Y-51275D01*
X50124Y-51335D01*
X48546Y-51335D01*
X48546Y-45319D01*
X48546Y-44319D01*
X48531Y-44105D01*
X48478Y-43976D01*
X48386Y-43948D01*
X48301Y-44032D01*
X48301Y-43863D01*
X48273Y-43771D01*
X48069Y-43703D01*
X47855Y-43718D01*
X47726Y-43771D01*
X47698Y-43863D01*
X48000Y-44165D01*
X48301Y-43863D01*
X48301Y-44032D01*
X48084Y-44250D01*
X48386Y-44551D01*
X48478Y-44523D01*
X48546Y-44319D01*
X48546Y-45319D01*
X48531Y-45105D01*
X48478Y-44976D01*
X48386Y-44948D01*
X48301Y-45032D01*
X48301Y-44863D01*
X48273Y-44771D01*
X48214Y-44752D01*
X48273Y-44728D01*
X48301Y-44636D01*
X48000Y-44334D01*
X47915Y-44419D01*
X47915Y-44250D01*
X47613Y-43948D01*
X47521Y-43976D01*
X47453Y-44180D01*
X47468Y-44394D01*
X47521Y-44523D01*
X47613Y-44551D01*
X47915Y-44250D01*
X47915Y-44419D01*
X47698Y-44636D01*
X47726Y-44728D01*
X47785Y-44747D01*
X47726Y-44771D01*
X47698Y-44863D01*
X48000Y-45165D01*
X48301Y-44863D01*
X48301Y-45032D01*
X48084Y-45250D01*
X48386Y-45551D01*
X48478Y-45523D01*
X48546Y-45319D01*
X48546Y-51335D01*
X48440Y-51335D01*
X48440Y-47162D01*
X48440Y-46162D01*
X48373Y-46001D01*
X48301Y-45929D01*
X48301Y-45636D01*
X48000Y-45334D01*
X47915Y-45419D01*
X47915Y-45250D01*
X47613Y-44948D01*
X47521Y-44976D01*
X47453Y-45180D01*
X47468Y-45394D01*
X47521Y-45523D01*
X47613Y-45551D01*
X47915Y-45250D01*
X47915Y-45419D01*
X47698Y-45636D01*
X47726Y-45728D01*
X47930Y-45796D01*
X48144Y-45781D01*
X48273Y-45728D01*
X48301Y-45636D01*
X48301Y-45929D01*
X48249Y-45877D01*
X48087Y-45810D01*
X47912Y-45809D01*
X47751Y-45876D01*
X47627Y-46000D01*
X47560Y-46162D01*
X47559Y-46337D01*
X47626Y-46498D01*
X47750Y-46622D01*
X47912Y-46689D01*
X48087Y-46690D01*
X48248Y-46623D01*
X48372Y-46499D01*
X48439Y-46337D01*
X48440Y-46162D01*
X48440Y-47162D01*
X48373Y-47001D01*
X48249Y-46877D01*
X48087Y-46810D01*
X47912Y-46809D01*
X47751Y-46876D01*
X47627Y-47000D01*
X47560Y-47162D01*
X47559Y-47337D01*
X47626Y-47498D01*
X47750Y-47622D01*
X47912Y-47689D01*
X48087Y-47690D01*
X48248Y-47623D01*
X48372Y-47499D01*
X48439Y-47337D01*
X48440Y-47162D01*
X48440Y-51335D01*
X46840Y-51335D01*
X46840Y-48612D01*
X46840Y-47612D01*
X46840Y-44212D01*
X46840Y-43212D01*
X46840Y-38612D01*
X46840Y-37612D01*
X46840Y-34212D01*
X46840Y-33212D01*
X46773Y-33051D01*
X46649Y-32927D01*
X46487Y-32860D01*
X46312Y-32859D01*
X46151Y-32926D01*
X46027Y-33050D01*
X45960Y-33212D01*
X45959Y-33387D01*
X46026Y-33548D01*
X46150Y-33672D01*
X46312Y-33739D01*
X46487Y-33740D01*
X46648Y-33673D01*
X46772Y-33549D01*
X46839Y-33387D01*
X46840Y-33212D01*
X46840Y-34212D01*
X46773Y-34051D01*
X46649Y-33927D01*
X46487Y-33860D01*
X46312Y-33859D01*
X46151Y-33926D01*
X46027Y-34050D01*
X45960Y-34212D01*
X45959Y-34387D01*
X46026Y-34548D01*
X46150Y-34672D01*
X46312Y-34739D01*
X46487Y-34740D01*
X46648Y-34673D01*
X46772Y-34549D01*
X46839Y-34387D01*
X46840Y-34212D01*
X46840Y-37612D01*
X46773Y-37451D01*
X46649Y-37327D01*
X46487Y-37260D01*
X46312Y-37259D01*
X46151Y-37326D01*
X46027Y-37450D01*
X45960Y-37612D01*
X45959Y-37787D01*
X46026Y-37948D01*
X46150Y-38072D01*
X46312Y-38139D01*
X46487Y-38140D01*
X46648Y-38073D01*
X46772Y-37949D01*
X46839Y-37787D01*
X46840Y-37612D01*
X46840Y-38612D01*
X46773Y-38451D01*
X46649Y-38327D01*
X46487Y-38260D01*
X46312Y-38259D01*
X46151Y-38326D01*
X46027Y-38450D01*
X45960Y-38612D01*
X45959Y-38787D01*
X46026Y-38948D01*
X46150Y-39072D01*
X46312Y-39139D01*
X46487Y-39140D01*
X46648Y-39073D01*
X46772Y-38949D01*
X46839Y-38787D01*
X46840Y-38612D01*
X46840Y-43212D01*
X46773Y-43051D01*
X46649Y-42927D01*
X46487Y-42860D01*
X46312Y-42859D01*
X46151Y-42926D01*
X46027Y-43050D01*
X45960Y-43212D01*
X45959Y-43387D01*
X46026Y-43548D01*
X46150Y-43672D01*
X46312Y-43739D01*
X46487Y-43740D01*
X46648Y-43673D01*
X46772Y-43549D01*
X46839Y-43387D01*
X46840Y-43212D01*
X46840Y-44212D01*
X46773Y-44051D01*
X46649Y-43927D01*
X46487Y-43860D01*
X46312Y-43859D01*
X46151Y-43926D01*
X46027Y-44050D01*
X45960Y-44212D01*
X45959Y-44387D01*
X46026Y-44548D01*
X46150Y-44672D01*
X46312Y-44739D01*
X46487Y-44740D01*
X46648Y-44673D01*
X46772Y-44549D01*
X46839Y-44387D01*
X46840Y-44212D01*
X46840Y-47612D01*
X46773Y-47451D01*
X46649Y-47327D01*
X46487Y-47260D01*
X46312Y-47259D01*
X46151Y-47326D01*
X46027Y-47450D01*
X45960Y-47612D01*
X45959Y-47787D01*
X46026Y-47948D01*
X46150Y-48072D01*
X46312Y-48139D01*
X46487Y-48140D01*
X46648Y-48073D01*
X46772Y-47949D01*
X46839Y-47787D01*
X46840Y-47612D01*
X46840Y-48612D01*
X46773Y-48451D01*
X46649Y-48327D01*
X46487Y-48260D01*
X46312Y-48259D01*
X46151Y-48326D01*
X46027Y-48450D01*
X45960Y-48612D01*
X45959Y-48787D01*
X46026Y-48948D01*
X46150Y-49072D01*
X46312Y-49139D01*
X46487Y-49140D01*
X46648Y-49073D01*
X46772Y-48949D01*
X46839Y-48787D01*
X46840Y-48612D01*
X46840Y-51335D01*
X45640Y-51335D01*
X45640Y-48323D01*
X45640Y-43323D01*
X45640Y-38323D01*
X45640Y-33323D01*
X45504Y-32996D01*
X45254Y-32745D01*
X44927Y-32610D01*
X44573Y-32609D01*
X44246Y-32745D01*
X43995Y-32995D01*
X43860Y-33322D01*
X43859Y-33676D01*
X43995Y-34003D01*
X44245Y-34254D01*
X44572Y-34389D01*
X44926Y-34390D01*
X45253Y-34254D01*
X45504Y-34004D01*
X45639Y-33677D01*
X45640Y-33323D01*
X45640Y-38323D01*
X45504Y-37996D01*
X45254Y-37745D01*
X44927Y-37610D01*
X44573Y-37609D01*
X44246Y-37745D01*
X43995Y-37995D01*
X43860Y-38322D01*
X43859Y-38676D01*
X43995Y-39003D01*
X44245Y-39254D01*
X44572Y-39389D01*
X44926Y-39390D01*
X45253Y-39254D01*
X45504Y-39004D01*
X45639Y-38677D01*
X45640Y-38323D01*
X45640Y-43323D01*
X45504Y-42996D01*
X45254Y-42745D01*
X44927Y-42610D01*
X44573Y-42609D01*
X44246Y-42745D01*
X43995Y-42995D01*
X43860Y-43322D01*
X43859Y-43676D01*
X43995Y-44003D01*
X44245Y-44254D01*
X44572Y-44389D01*
X44926Y-44390D01*
X45253Y-44254D01*
X45504Y-44004D01*
X45639Y-43677D01*
X45640Y-43323D01*
X45640Y-48323D01*
X45504Y-47996D01*
X45254Y-47745D01*
X44927Y-47610D01*
X44573Y-47609D01*
X44246Y-47745D01*
X43995Y-47995D01*
X43860Y-48322D01*
X43859Y-48676D01*
X43995Y-49003D01*
X44245Y-49254D01*
X44572Y-49389D01*
X44926Y-49390D01*
X45253Y-49254D01*
X45504Y-49004D01*
X45639Y-48677D01*
X45640Y-48323D01*
X45640Y-51335D01*
X43665Y-51335D01*
X43665Y-30665D01*
X50624Y-30665D01*
X50482Y-30723D01*
X50224Y-30981D01*
X50085Y-31317D01*
X50084Y-31681D01*
X50223Y-32017D01*
X50481Y-32275D01*
X50817Y-32414D01*
X51181Y-32415D01*
X51517Y-32276D01*
X51775Y-32018D01*
X51914Y-31682D01*
X51915Y-31318D01*
X51776Y-30982D01*
X51518Y-30724D01*
X51375Y-30665D01*
X80124Y-30665D01*
X79982Y-30723D01*
X79724Y-30981D01*
X79585Y-31317D01*
X79584Y-31681D01*
X79723Y-32017D01*
X79981Y-32275D01*
X80317Y-32414D01*
X80681Y-32415D01*
X81017Y-32276D01*
X81275Y-32018D01*
X81414Y-31682D01*
X81415Y-31318D01*
X81276Y-30982D01*
X81018Y-30724D01*
X80875Y-30665D01*
X89335Y-30665D01*
X89335Y-51335D01*
M02*
