M48
;DRILL file {Pcbnew (2013-jul-07)-stable} date Thu 07 Aug 2014 10:44:56 AM EDT
;FORMAT={-:-/ absolute / inch / decimal}
FMAT,2
INCH,TZ
T1C0.025
T2C0.035
T3C0.040
T4C0.063
T5C0.106
T6C0.124
T7C0.128
T8C0.130
%
G90
G05
M72
T1
X4.9697Y-4.715
X5.933Y-3.436
X6.2281Y-4.7665
X6.2755Y-4.097
X6.4255Y-3.7328
X6.4329Y-4.6046
X6.5637Y-3.9522
X6.6295Y-3.7681
X6.6661Y-4.6049
X6.6723Y-3.3285
X6.6955Y-3.9551
X6.7081Y-4.3889
X6.725Y-3.482
X6.7431Y-4.3535
X6.7572Y-4.6398
X6.8141Y-4.6416
X6.8323Y-4.0973
X6.8338Y-3.8915
X6.8586Y-4.0478
X6.8766Y-3.7704
X6.8814Y-3.9475
X6.9214Y-3.6518
X7.0024Y-3.7895
X7.0474Y-4.5864
X8.358Y-4.8036
X8.5459Y-4.7671
T2
X4.64Y-3.33
X4.64Y-3.43
X4.64Y-3.77
X4.64Y-3.87
X4.64Y-4.33
X4.64Y-4.43
X4.64Y-4.77
X4.64Y-4.87
X4.8Y-3.425
X4.8Y-3.525
X4.8Y-3.625
X4.8Y-3.725
X4.8Y-4.425
X4.8Y-4.525
X4.8Y-4.625
X4.8Y-4.725
X4.9Y-3.475
X4.9Y-3.575
X4.9Y-3.675
X4.9Y-3.775
X4.9Y-4.475
X4.9Y-4.575
X4.9Y-4.675
X4.9Y-4.775
X5.045Y-3.425
X5.045Y-3.525
X5.045Y-3.625
X5.045Y-3.725
X5.045Y-4.425
X5.045Y-4.525
X5.045Y-4.625
X5.045Y-4.725
X5.145Y-3.475
X5.145Y-3.575
X5.145Y-3.675
X5.145Y-3.775
X5.145Y-4.475
X5.145Y-4.575
X5.145Y-4.675
X5.145Y-4.775
X5.3Y-3.33
X5.3Y-3.43
X5.3Y-3.77
X5.3Y-3.87
X5.3Y-4.33
X5.3Y-4.43
X5.3Y-4.77
X5.3Y-4.87
T3
X5.24Y-3.15
X5.34Y-3.15
X5.44Y-3.15
X5.54Y-3.15
X5.6Y-5.05
X5.64Y-3.15
X5.7Y-5.05
X5.74Y-3.15
X5.8Y-5.05
X5.84Y-3.15
X5.9Y-5.05
X5.94Y-3.15
X6.Y-5.05
X6.04Y-3.15
X6.1Y-5.05
X6.14Y-3.15
X6.2Y-5.05
X6.3Y-3.15
X6.3Y-5.05
X6.4Y-3.15
X6.5Y-3.15
X6.5Y-5.05
X6.6Y-3.15
X6.6Y-5.05
X6.7Y-3.15
X6.7Y-5.05
X6.8Y-3.15
X6.8Y-5.05
X6.9Y-3.15
X6.9Y-5.05
X7.Y-3.15
X7.Y-5.05
X7.1Y-5.05
X7.2Y-3.15
X7.2Y-5.05
X7.3Y-3.15
X7.4Y-3.15
X7.4Y-5.05
X7.5Y-3.15
X7.5Y-5.05
X7.6Y-3.15
X7.6Y-5.05
X7.7Y-3.15
X7.7Y-5.05
X7.8Y-3.15
X7.8Y-5.05
X7.9Y-3.15
X7.9Y-5.05
X8.Y-5.05
X8.1Y-5.05
X8.2Y-3.15
X8.2Y-3.25
X8.2Y-3.35
X8.2Y-3.45
X8.2Y-3.55
X8.2Y-3.65
X8.2Y-3.75
X8.2Y-3.85
X8.2Y-3.95
X8.2Y-4.05
X8.2Y-4.15
X8.2Y-4.25
X8.2Y-4.35
X8.2Y-4.45
X8.2Y-4.55
X8.2Y-4.65
X8.2Y-4.75
X8.2Y-4.85
X8.3Y-3.15
X8.3Y-3.25
X8.3Y-3.35
X8.3Y-3.45
X8.3Y-3.55
X8.3Y-3.65
X8.3Y-3.75
X8.3Y-3.85
X8.3Y-3.95
X8.3Y-4.05
X8.3Y-4.15
X8.3Y-4.25
X8.3Y-4.35
X8.3Y-4.45
X8.3Y-4.55
X8.3Y-4.65
X8.3Y-4.75
X8.3Y-4.85
T4
X8.832Y-4.1
T5
X8.714Y-4.1
X8.753Y-3.923
X8.753Y-4.277
T6
X8.478Y-4.1
T7
X4.475Y-3.35
X4.475Y-3.85
X4.475Y-4.35
X4.475Y-4.85
T8
X5.05Y-5.05
X5.1Y-3.15
X8.05Y-3.15
X8.3Y-5.05
T0
M30
