G04 (created by PCBNEW (2013-jul-07)-stable) date Thu 07 Aug 2014 10:44:51 AM EDT*
%MOIN*%
G04 Gerber Fmt 3.4, Leading zero omitted, Abs format*
%FSLAX34Y34*%
G01*
G70*
G90*
G04 APERTURE LIST*
%ADD10C,0.00590551*%
%ADD11C,0.009*%
%ADD12C,0.155*%
%ADD13O,0.06X0.1*%
%ADD14C,0.06*%
%ADD15C,0.076*%
%ADD16C,0.14*%
%ADD17C,0.16*%
%ADD18R,0.05X0.1*%
%ADD19R,0.1X0.05*%
%ADD20R,0.015X0.05*%
%ADD21C,0.15*%
%ADD22C,0.035*%
%ADD23C,0.036*%
%ADD24C,0.008*%
%ADD25C,0.024*%
G04 APERTURE END LIST*
G54D10*
G54D11*
X89500Y-51500D02*
X43500Y-51500D01*
X43500Y-30500D02*
X89500Y-30500D01*
X43500Y-30500D02*
X43500Y-51500D01*
X89500Y-51500D02*
X89500Y-30500D01*
G54D12*
X50500Y-50500D03*
X51000Y-31500D03*
X83000Y-50500D03*
X80500Y-31500D03*
G54D13*
X56000Y-50500D03*
X57000Y-50500D03*
X58000Y-50500D03*
X59000Y-50500D03*
X60000Y-50500D03*
X61000Y-50500D03*
X62000Y-50500D03*
X63000Y-50500D03*
X65000Y-50500D03*
X66000Y-50500D03*
X67000Y-50500D03*
X68000Y-50500D03*
X69000Y-50500D03*
X70000Y-50500D03*
X71000Y-50500D03*
X72000Y-50500D03*
X74000Y-50500D03*
X75000Y-50500D03*
X76000Y-50500D03*
X77000Y-50500D03*
X78000Y-50500D03*
X79000Y-50500D03*
X80000Y-50500D03*
X81000Y-50500D03*
X52400Y-31500D03*
X53400Y-31500D03*
X54400Y-31500D03*
X55400Y-31500D03*
X56400Y-31500D03*
X57400Y-31500D03*
X58400Y-31500D03*
X59400Y-31500D03*
X60400Y-31500D03*
X61400Y-31500D03*
X63000Y-31500D03*
X70000Y-31500D03*
X69000Y-31500D03*
X68000Y-31500D03*
X67000Y-31500D03*
X66000Y-31500D03*
X65000Y-31500D03*
X64000Y-31500D03*
X72000Y-31500D03*
X73000Y-31500D03*
X74000Y-31500D03*
X75000Y-31500D03*
X76000Y-31500D03*
X77000Y-31500D03*
X78000Y-31500D03*
X79000Y-31500D03*
G54D14*
X82000Y-31500D03*
X83000Y-31500D03*
X82000Y-32500D03*
X83000Y-32500D03*
X82000Y-33500D03*
X83000Y-33500D03*
X82000Y-34500D03*
X83000Y-34500D03*
X82000Y-35500D03*
X83000Y-35500D03*
X82000Y-36500D03*
X83000Y-36500D03*
X82000Y-37500D03*
X83000Y-37500D03*
X82000Y-38500D03*
X83000Y-38500D03*
X82000Y-39500D03*
X83000Y-39500D03*
X82000Y-40500D03*
X83000Y-40500D03*
X82000Y-41500D03*
X83000Y-41500D03*
X82000Y-42500D03*
X83000Y-42500D03*
X82000Y-43500D03*
X83000Y-43500D03*
X82000Y-44500D03*
X83000Y-44500D03*
X82000Y-45500D03*
X83000Y-45500D03*
X82000Y-46500D03*
X83000Y-46500D03*
X82000Y-47500D03*
X83000Y-47500D03*
X82000Y-48500D03*
X83000Y-48500D03*
G54D15*
X88320Y-41000D03*
G54D16*
X87140Y-41000D03*
G54D17*
X84780Y-41000D03*
G54D16*
X87530Y-39230D03*
X87530Y-42770D03*
G54D18*
X84650Y-43250D03*
X85850Y-43250D03*
G54D19*
X70000Y-34150D03*
X70000Y-35350D03*
X70000Y-42900D03*
X70000Y-44100D03*
G54D20*
X65750Y-36750D03*
X66250Y-36750D03*
X66750Y-36750D03*
X67250Y-36750D03*
X67750Y-36750D03*
X68250Y-36750D03*
X65250Y-36750D03*
X64750Y-36750D03*
X64250Y-36750D03*
X63750Y-36750D03*
X63250Y-36750D03*
X62750Y-36750D03*
X62750Y-32750D03*
X63250Y-32750D03*
X63750Y-32750D03*
X64250Y-32750D03*
X64750Y-32750D03*
X65250Y-32750D03*
X65750Y-32750D03*
X66250Y-32750D03*
X66750Y-32750D03*
X67250Y-32750D03*
X67750Y-32750D03*
X68250Y-32750D03*
G54D21*
X44750Y-33500D03*
X44750Y-38500D03*
G54D14*
X46400Y-33300D03*
X46400Y-34300D03*
X46400Y-37700D03*
X46400Y-38700D03*
X48000Y-34250D03*
X48000Y-35250D03*
X48000Y-36250D03*
X48000Y-37250D03*
X49000Y-34750D03*
X49000Y-35750D03*
X49000Y-36750D03*
X49000Y-37750D03*
X50450Y-34250D03*
X50450Y-35250D03*
X51450Y-34750D03*
X51450Y-35750D03*
X50450Y-36250D03*
X51450Y-36750D03*
X50450Y-37250D03*
X51450Y-37750D03*
X53000Y-33300D03*
X53000Y-34300D03*
X53000Y-37700D03*
X53000Y-38700D03*
G54D21*
X44750Y-43500D03*
X44750Y-48500D03*
G54D14*
X46400Y-43300D03*
X46400Y-44300D03*
X46400Y-47700D03*
X46400Y-48700D03*
X48000Y-44250D03*
X48000Y-45250D03*
X48000Y-46250D03*
X48000Y-47250D03*
X49000Y-44750D03*
X49000Y-45750D03*
X49000Y-46750D03*
X49000Y-47750D03*
X50450Y-44250D03*
X50450Y-45250D03*
X51450Y-44750D03*
X51450Y-45750D03*
X50450Y-46250D03*
X51450Y-46750D03*
X50450Y-47250D03*
X51450Y-47750D03*
X53000Y-43300D03*
X53000Y-44300D03*
X53000Y-47700D03*
X53000Y-48700D03*
G54D20*
X65750Y-45500D03*
X66250Y-45500D03*
X66750Y-45500D03*
X67250Y-45500D03*
X67750Y-45500D03*
X68250Y-45500D03*
X65250Y-45500D03*
X64750Y-45500D03*
X64250Y-45500D03*
X63750Y-45500D03*
X63250Y-45500D03*
X62750Y-45500D03*
X62750Y-41500D03*
X63250Y-41500D03*
X63750Y-41500D03*
X64250Y-41500D03*
X64750Y-41500D03*
X65250Y-41500D03*
X65750Y-41500D03*
X66250Y-41500D03*
X66750Y-41500D03*
X67250Y-41500D03*
X67750Y-41500D03*
X68250Y-41500D03*
G54D22*
X69213Y-36518D03*
X66954Y-39551D03*
X65636Y-39522D03*
X68765Y-37703D03*
X68585Y-40477D03*
X68323Y-40973D03*
X68813Y-39474D03*
X85459Y-47671D03*
X66723Y-33284D03*
X70024Y-37894D03*
X67250Y-34820D03*
X67571Y-46398D03*
X66660Y-46048D03*
X64328Y-46046D03*
X62280Y-47665D03*
X68337Y-38915D03*
X66294Y-37680D03*
X64255Y-37327D03*
X67080Y-43889D03*
X49697Y-47150D03*
X67431Y-43534D03*
X68141Y-46416D03*
X70473Y-45864D03*
X62754Y-40970D03*
X59329Y-34360D03*
X83580Y-48036D03*
G54D23*
X67750Y-32750D02*
X67750Y-33280D01*
X67750Y-41500D02*
X67750Y-42030D01*
X63250Y-45500D02*
X63250Y-45084D01*
X63250Y-45084D02*
X63250Y-44969D01*
X60000Y-47508D02*
X60000Y-50500D01*
X62538Y-44969D02*
X60000Y-47508D01*
X63250Y-44969D02*
X62538Y-44969D01*
X70000Y-34150D02*
X70000Y-34680D01*
X70489Y-34680D02*
X70000Y-34680D01*
X70945Y-35135D02*
X70489Y-34680D01*
X70945Y-41424D02*
X70945Y-35135D01*
X70000Y-42369D02*
X70945Y-41424D01*
X70000Y-42900D02*
X70000Y-42369D01*
X63394Y-37280D02*
X65636Y-39522D01*
X63250Y-37280D02*
X63394Y-37280D01*
X63250Y-36750D02*
X63250Y-37280D01*
X69213Y-34680D02*
X69213Y-36518D01*
X69150Y-34680D02*
X69213Y-34680D01*
X67750Y-33280D02*
X69150Y-34680D01*
X69213Y-34680D02*
X70000Y-34680D01*
X66648Y-44969D02*
X63250Y-44969D01*
X67892Y-43725D02*
X66648Y-44969D01*
X67892Y-42173D02*
X67892Y-43725D01*
X67750Y-42030D02*
X67892Y-42173D01*
X67750Y-40346D02*
X67750Y-41500D01*
X66954Y-39551D02*
X67750Y-40346D01*
G54D24*
X68250Y-36750D02*
X68250Y-37140D01*
X68765Y-37655D02*
X68765Y-37703D01*
X68250Y-37140D02*
X68765Y-37655D01*
X68250Y-45500D02*
X68250Y-45109D01*
X68653Y-40545D02*
X68585Y-40477D01*
X68653Y-44706D02*
X68653Y-40545D01*
X68250Y-45109D02*
X68653Y-44706D01*
X67750Y-45500D02*
X67750Y-45109D01*
X68465Y-41115D02*
X68323Y-40973D01*
X68465Y-44394D02*
X68465Y-41115D01*
X67750Y-45109D02*
X68465Y-44394D01*
X68813Y-38510D02*
X68813Y-39474D01*
X67750Y-37446D02*
X68813Y-38510D01*
X67750Y-36750D02*
X67750Y-37446D01*
X83568Y-49561D02*
X85459Y-47671D01*
X64766Y-49561D02*
X83568Y-49561D01*
X63180Y-51147D02*
X64766Y-49561D01*
X61804Y-51147D02*
X63180Y-51147D01*
X61537Y-50880D02*
X61804Y-51147D01*
X61537Y-47103D02*
X61537Y-50880D01*
X62750Y-45890D02*
X61537Y-47103D01*
X62750Y-45500D02*
X62750Y-45890D01*
X63250Y-32750D02*
X63250Y-32359D01*
X63430Y-32179D02*
X63250Y-32359D01*
X69490Y-32179D02*
X63430Y-32179D01*
X81226Y-43915D02*
X69490Y-32179D01*
X81226Y-45359D02*
X81226Y-43915D01*
X81866Y-46000D02*
X81226Y-45359D01*
X82500Y-46000D02*
X81866Y-46000D01*
X83000Y-46500D02*
X82500Y-46000D01*
G54D25*
X66750Y-33258D02*
X66723Y-33284D01*
X66750Y-32750D02*
X66750Y-33258D01*
X67250Y-34820D02*
X67250Y-32750D01*
X68545Y-36415D02*
X70024Y-37894D01*
X68545Y-36115D02*
X68545Y-36415D01*
X67250Y-34820D02*
X68545Y-36115D01*
X67250Y-46076D02*
X67250Y-45500D01*
X67571Y-46398D02*
X67250Y-46076D01*
X66739Y-45970D02*
X66750Y-45970D01*
X66660Y-46048D02*
X66739Y-45970D01*
X66750Y-45500D02*
X66750Y-45970D01*
X64250Y-45500D02*
X64250Y-45970D01*
X64252Y-45970D02*
X64328Y-46046D01*
X64250Y-45970D02*
X64252Y-45970D01*
X63750Y-45500D02*
X63750Y-45970D01*
X62280Y-47439D02*
X62280Y-47665D01*
X63750Y-45970D02*
X62280Y-47439D01*
X56229Y-41970D02*
X63750Y-41970D01*
X51450Y-46750D02*
X56229Y-41970D01*
X63750Y-41500D02*
X63750Y-41970D01*
X64250Y-41500D02*
X64250Y-41970D01*
X62478Y-43741D02*
X64250Y-41970D01*
X55458Y-43741D02*
X62478Y-43741D01*
X51450Y-47750D02*
X55458Y-43741D01*
X67250Y-37827D02*
X68337Y-38915D01*
X67250Y-36750D02*
X67250Y-37827D01*
X66750Y-37225D02*
X66294Y-37680D01*
X66750Y-36750D02*
X66750Y-37225D01*
X64250Y-37322D02*
X64250Y-36750D01*
X64255Y-37327D02*
X64250Y-37322D01*
X51450Y-36000D02*
X51450Y-35750D01*
X50911Y-36538D02*
X51450Y-36000D01*
X50911Y-36947D02*
X50911Y-36538D01*
X50989Y-37025D02*
X50911Y-36947D01*
X50989Y-37474D02*
X50989Y-37025D01*
X50918Y-37546D02*
X50989Y-37474D01*
X50918Y-37983D02*
X50918Y-37546D01*
X52157Y-39222D02*
X50918Y-37983D01*
X59635Y-39222D02*
X52157Y-39222D01*
X62578Y-36279D02*
X59635Y-39222D01*
X63750Y-36279D02*
X62578Y-36279D01*
X63750Y-36750D02*
X63750Y-36279D01*
X60220Y-36750D02*
X63750Y-33220D01*
X51450Y-36750D02*
X60220Y-36750D01*
X63750Y-32750D02*
X63750Y-33220D01*
X60290Y-37179D02*
X64250Y-33220D01*
X52020Y-37179D02*
X60290Y-37179D01*
X51450Y-37750D02*
X52020Y-37179D01*
X64250Y-32750D02*
X64250Y-33220D01*
X66750Y-41500D02*
X66750Y-41970D01*
X66750Y-43558D02*
X66750Y-41970D01*
X67080Y-43889D02*
X66750Y-43558D01*
X49697Y-45447D02*
X49697Y-47150D01*
X49000Y-44750D02*
X49697Y-45447D01*
X67250Y-43353D02*
X67250Y-41500D01*
X67431Y-43534D02*
X67250Y-43353D01*
G54D24*
X68250Y-41500D02*
X68250Y-41890D01*
X67534Y-45810D02*
X68141Y-46416D01*
X67534Y-44690D02*
X67534Y-45810D01*
X68250Y-43975D02*
X67534Y-44690D01*
X68250Y-41890D02*
X68250Y-43975D01*
X69941Y-33140D02*
X68250Y-33140D01*
X71285Y-34484D02*
X69941Y-33140D01*
X71285Y-45052D02*
X71285Y-34484D01*
X70473Y-45864D02*
X71285Y-45052D01*
X68250Y-32750D02*
X68250Y-33140D01*
X62750Y-40975D02*
X62754Y-40970D01*
X62750Y-41500D02*
X62750Y-40975D01*
X62750Y-32750D02*
X62750Y-33140D01*
X63419Y-33140D02*
X62750Y-33140D01*
X63465Y-33094D02*
X63419Y-33140D01*
X63465Y-32486D02*
X63465Y-33094D01*
X63591Y-32359D02*
X63465Y-32486D01*
X69415Y-32359D02*
X63591Y-32359D01*
X72205Y-35149D02*
X69415Y-32359D01*
X72205Y-37705D02*
X72205Y-35149D01*
X82000Y-47500D02*
X72205Y-37705D01*
X63250Y-41500D02*
X63250Y-41109D01*
X62750Y-36750D02*
X62750Y-37140D01*
X62750Y-40105D02*
X62750Y-37140D01*
X63250Y-40605D02*
X62750Y-40105D01*
X63250Y-41109D02*
X63250Y-40605D01*
G54D23*
X50450Y-47250D02*
X50450Y-46250D01*
X50450Y-37250D02*
X50450Y-36250D01*
X48000Y-37250D02*
X48000Y-36250D01*
X65250Y-32750D02*
X64750Y-32750D01*
X70000Y-35350D02*
X70000Y-35880D01*
X70000Y-44100D02*
X70000Y-43569D01*
X66250Y-32750D02*
X65750Y-32750D01*
X66250Y-41500D02*
X66250Y-40969D01*
X65250Y-41500D02*
X65250Y-41632D01*
X64750Y-41500D02*
X64750Y-42030D01*
X64951Y-42030D02*
X64750Y-42030D01*
X65250Y-41731D02*
X64951Y-42030D01*
X65250Y-41632D02*
X65250Y-41731D01*
X65750Y-41500D02*
X65750Y-41234D01*
X65750Y-41234D02*
X65750Y-40969D01*
X65484Y-40969D02*
X65250Y-40969D01*
X65750Y-41234D02*
X65484Y-40969D01*
X65250Y-41500D02*
X65250Y-40969D01*
X65750Y-36750D02*
X65750Y-36882D01*
X64750Y-36750D02*
X64750Y-37280D01*
X65750Y-32750D02*
X65250Y-32750D01*
X65750Y-36750D02*
X65750Y-36219D01*
X64879Y-37280D02*
X64750Y-37280D01*
X65048Y-37216D02*
X65250Y-37015D01*
X64921Y-37216D02*
X65048Y-37216D01*
X64921Y-37216D02*
X64921Y-37216D01*
X64879Y-37216D02*
X64921Y-37216D01*
X64879Y-37216D02*
X64879Y-37216D01*
X64879Y-37280D02*
X64879Y-37216D01*
X66117Y-36882D02*
X65750Y-36882D01*
X66250Y-36750D02*
X66117Y-36882D01*
X65750Y-36882D02*
X65250Y-36882D01*
X65250Y-36750D02*
X65250Y-36882D01*
X65250Y-36882D02*
X65250Y-37015D01*
X65750Y-32750D02*
X65750Y-36219D01*
X66250Y-40969D02*
X65750Y-40969D01*
X48000Y-47250D02*
X48000Y-46250D01*
X48000Y-47571D02*
X48000Y-47250D01*
X48781Y-48352D02*
X48000Y-47571D01*
X49669Y-48352D02*
X48781Y-48352D01*
X50450Y-47572D02*
X49669Y-48352D01*
X50450Y-47572D02*
X50450Y-47250D01*
X51213Y-48336D02*
X50450Y-47572D01*
X51696Y-48336D02*
X51213Y-48336D01*
X52122Y-47910D02*
X51696Y-48336D01*
X52122Y-47749D02*
X52122Y-47910D01*
X55461Y-44411D02*
X52122Y-47749D01*
X62383Y-44411D02*
X55461Y-44411D01*
X64750Y-42044D02*
X62383Y-44411D01*
X64750Y-42030D02*
X64750Y-42044D01*
X66250Y-45500D02*
X65750Y-45500D01*
X65250Y-45500D02*
X65750Y-45500D01*
X70483Y-38748D02*
X69215Y-40016D01*
X70483Y-36363D02*
X70483Y-38748D01*
X70000Y-35880D02*
X70483Y-36363D01*
X69215Y-43282D02*
X69215Y-40016D01*
X69503Y-43569D02*
X69215Y-43282D01*
X70000Y-43569D02*
X69503Y-43569D01*
X62000Y-49407D02*
X62000Y-50500D01*
X64808Y-46598D02*
X62000Y-49407D01*
X64808Y-45500D02*
X64808Y-46598D01*
X64750Y-45500D02*
X64808Y-45500D01*
X64808Y-45500D02*
X65250Y-45500D01*
X48000Y-38347D02*
X48000Y-37250D01*
X49352Y-38347D02*
X50450Y-37250D01*
X48000Y-38347D02*
X49352Y-38347D01*
X48000Y-40702D02*
X48000Y-38347D01*
X47410Y-41292D02*
X48000Y-40702D01*
X47410Y-45660D02*
X47410Y-41292D01*
X48000Y-46250D02*
X47410Y-45660D01*
X67785Y-39090D02*
X66388Y-39090D01*
X68711Y-40016D02*
X67785Y-39090D01*
X69215Y-40016D02*
X68711Y-40016D01*
X66388Y-40831D02*
X66388Y-39090D01*
X66250Y-40969D02*
X66388Y-40831D01*
X66388Y-38788D02*
X64879Y-37280D01*
X66388Y-39090D02*
X66388Y-38788D01*
X85850Y-42290D02*
X85850Y-43250D01*
X87140Y-41000D02*
X85850Y-42290D01*
X70000Y-44100D02*
X70000Y-44630D01*
X66205Y-45544D02*
X66250Y-45500D01*
X66205Y-46249D02*
X66205Y-45544D01*
X66836Y-46880D02*
X66205Y-46249D01*
X70000Y-46880D02*
X66836Y-46880D01*
X72208Y-49089D02*
X70000Y-46880D01*
X83230Y-49089D02*
X72208Y-49089D01*
X85850Y-46470D02*
X83230Y-49089D01*
X85850Y-43250D02*
X85850Y-46470D01*
X70000Y-46880D02*
X70000Y-44630D01*
X48000Y-45250D02*
X48000Y-44250D01*
X48000Y-35250D02*
X48000Y-34250D01*
X48094Y-34155D02*
X48000Y-34250D01*
X50355Y-34155D02*
X48094Y-34155D01*
X50450Y-34250D02*
X50355Y-34155D01*
X57670Y-32700D02*
X59329Y-34360D01*
X51999Y-32700D02*
X57670Y-32700D01*
X50450Y-34250D02*
X51999Y-32700D01*
X50450Y-45250D02*
X50450Y-44250D01*
X48089Y-44160D02*
X48000Y-44250D01*
X50360Y-44160D02*
X48089Y-44160D01*
X50450Y-44250D02*
X50360Y-44160D01*
X50450Y-35250D02*
X50450Y-34250D01*
X84650Y-46966D02*
X84650Y-43250D01*
X83580Y-48036D02*
X84650Y-46966D01*
X84650Y-41130D02*
X84780Y-41000D01*
X84650Y-43250D02*
X84650Y-41130D01*
G54D10*
G36*
X89335Y-51335D02*
X88840Y-51335D01*
X88840Y-40897D01*
X88761Y-40705D01*
X88614Y-40559D01*
X88423Y-40480D01*
X88370Y-40480D01*
X88370Y-39063D01*
X88242Y-38754D01*
X88006Y-38518D01*
X87697Y-38390D01*
X87363Y-38389D01*
X87054Y-38517D01*
X86818Y-38753D01*
X86690Y-39062D01*
X86689Y-39396D01*
X86817Y-39705D01*
X87053Y-39941D01*
X87362Y-40069D01*
X87696Y-40070D01*
X88005Y-39942D01*
X88241Y-39706D01*
X88369Y-39397D01*
X88370Y-39063D01*
X88370Y-40480D01*
X88217Y-40479D01*
X88025Y-40558D01*
X87992Y-40591D01*
X87949Y-40486D01*
X87816Y-40408D01*
X87731Y-40493D01*
X87731Y-40323D01*
X87653Y-40190D01*
X87304Y-40055D01*
X86931Y-40064D01*
X86626Y-40190D01*
X86548Y-40323D01*
X87140Y-40915D01*
X87731Y-40323D01*
X87731Y-40493D01*
X87224Y-41000D01*
X87816Y-41591D01*
X87949Y-41513D01*
X87990Y-41406D01*
X88025Y-41440D01*
X88216Y-41519D01*
X88422Y-41520D01*
X88614Y-41441D01*
X88760Y-41294D01*
X88839Y-41103D01*
X88840Y-40897D01*
X88840Y-51335D01*
X88370Y-51335D01*
X88370Y-42603D01*
X88242Y-42294D01*
X88006Y-42058D01*
X87731Y-41944D01*
X87731Y-41676D01*
X87140Y-41084D01*
X87055Y-41169D01*
X87055Y-41000D01*
X86463Y-40408D01*
X86330Y-40486D01*
X86195Y-40835D01*
X86204Y-41208D01*
X86330Y-41513D01*
X86463Y-41591D01*
X87055Y-41000D01*
X87055Y-41169D01*
X86548Y-41676D01*
X86626Y-41809D01*
X86975Y-41944D01*
X87348Y-41935D01*
X87653Y-41809D01*
X87731Y-41676D01*
X87731Y-41944D01*
X87697Y-41930D01*
X87363Y-41929D01*
X87054Y-42057D01*
X86818Y-42293D01*
X86690Y-42602D01*
X86689Y-42936D01*
X86817Y-43245D01*
X87053Y-43481D01*
X87362Y-43609D01*
X87696Y-43610D01*
X88005Y-43482D01*
X88241Y-43246D01*
X88369Y-42937D01*
X88370Y-42603D01*
X88370Y-51335D01*
X86340Y-51335D01*
X86340Y-43702D01*
X86340Y-42797D01*
X86339Y-42702D01*
X86303Y-42613D01*
X86235Y-42546D01*
X86147Y-42509D01*
X85970Y-42510D01*
X85910Y-42570D01*
X85910Y-43190D01*
X86280Y-43190D01*
X86340Y-43130D01*
X86340Y-42797D01*
X86340Y-43702D01*
X86340Y-43370D01*
X86280Y-43310D01*
X85910Y-43310D01*
X85910Y-43930D01*
X85970Y-43990D01*
X86147Y-43990D01*
X86235Y-43953D01*
X86303Y-43886D01*
X86339Y-43797D01*
X86340Y-43702D01*
X86340Y-51335D01*
X85790Y-51335D01*
X85790Y-43930D01*
X85790Y-43310D01*
X85790Y-43190D01*
X85790Y-42570D01*
X85730Y-42510D01*
X85720Y-42509D01*
X85720Y-40813D01*
X85577Y-40468D01*
X85313Y-40203D01*
X84967Y-40060D01*
X84593Y-40059D01*
X84248Y-40202D01*
X83983Y-40466D01*
X83840Y-40812D01*
X83839Y-41186D01*
X83982Y-41531D01*
X84246Y-41796D01*
X84330Y-41830D01*
X84330Y-42627D01*
X84320Y-42631D01*
X84281Y-42670D01*
X84260Y-42722D01*
X84259Y-42777D01*
X84259Y-43777D01*
X84281Y-43829D01*
X84320Y-43868D01*
X84330Y-43872D01*
X84330Y-46833D01*
X83440Y-47723D01*
X83440Y-47412D01*
X83440Y-46412D01*
X83440Y-45412D01*
X83440Y-44412D01*
X83440Y-43412D01*
X83440Y-42412D01*
X83440Y-41412D01*
X83440Y-40412D01*
X83440Y-39412D01*
X83440Y-38412D01*
X83440Y-37412D01*
X83440Y-36412D01*
X83440Y-35412D01*
X83440Y-34412D01*
X83440Y-33412D01*
X83440Y-32412D01*
X83440Y-31412D01*
X83373Y-31251D01*
X83249Y-31127D01*
X83087Y-31060D01*
X82912Y-31059D01*
X82751Y-31126D01*
X82627Y-31250D01*
X82560Y-31412D01*
X82559Y-31587D01*
X82626Y-31748D01*
X82750Y-31872D01*
X82912Y-31939D01*
X83087Y-31940D01*
X83248Y-31873D01*
X83372Y-31749D01*
X83439Y-31587D01*
X83440Y-31412D01*
X83440Y-32412D01*
X83373Y-32251D01*
X83249Y-32127D01*
X83087Y-32060D01*
X82912Y-32059D01*
X82751Y-32126D01*
X82627Y-32250D01*
X82560Y-32412D01*
X82559Y-32587D01*
X82626Y-32748D01*
X82750Y-32872D01*
X82912Y-32939D01*
X83087Y-32940D01*
X83248Y-32873D01*
X83372Y-32749D01*
X83439Y-32587D01*
X83440Y-32412D01*
X83440Y-33412D01*
X83373Y-33251D01*
X83249Y-33127D01*
X83087Y-33060D01*
X82912Y-33059D01*
X82751Y-33126D01*
X82627Y-33250D01*
X82560Y-33412D01*
X82559Y-33587D01*
X82626Y-33748D01*
X82750Y-33872D01*
X82912Y-33939D01*
X83087Y-33940D01*
X83248Y-33873D01*
X83372Y-33749D01*
X83439Y-33587D01*
X83440Y-33412D01*
X83440Y-34412D01*
X83373Y-34251D01*
X83249Y-34127D01*
X83087Y-34060D01*
X82912Y-34059D01*
X82751Y-34126D01*
X82627Y-34250D01*
X82560Y-34412D01*
X82559Y-34587D01*
X82626Y-34748D01*
X82750Y-34872D01*
X82912Y-34939D01*
X83087Y-34940D01*
X83248Y-34873D01*
X83372Y-34749D01*
X83439Y-34587D01*
X83440Y-34412D01*
X83440Y-35412D01*
X83373Y-35251D01*
X83249Y-35127D01*
X83087Y-35060D01*
X82912Y-35059D01*
X82751Y-35126D01*
X82627Y-35250D01*
X82560Y-35412D01*
X82559Y-35587D01*
X82626Y-35748D01*
X82750Y-35872D01*
X82912Y-35939D01*
X83087Y-35940D01*
X83248Y-35873D01*
X83372Y-35749D01*
X83439Y-35587D01*
X83440Y-35412D01*
X83440Y-36412D01*
X83373Y-36251D01*
X83249Y-36127D01*
X83087Y-36060D01*
X82912Y-36059D01*
X82751Y-36126D01*
X82627Y-36250D01*
X82560Y-36412D01*
X82559Y-36587D01*
X82626Y-36748D01*
X82750Y-36872D01*
X82912Y-36939D01*
X83087Y-36940D01*
X83248Y-36873D01*
X83372Y-36749D01*
X83439Y-36587D01*
X83440Y-36412D01*
X83440Y-37412D01*
X83373Y-37251D01*
X83249Y-37127D01*
X83087Y-37060D01*
X82912Y-37059D01*
X82751Y-37126D01*
X82627Y-37250D01*
X82560Y-37412D01*
X82559Y-37587D01*
X82626Y-37748D01*
X82750Y-37872D01*
X82912Y-37939D01*
X83087Y-37940D01*
X83248Y-37873D01*
X83372Y-37749D01*
X83439Y-37587D01*
X83440Y-37412D01*
X83440Y-38412D01*
X83373Y-38251D01*
X83249Y-38127D01*
X83087Y-38060D01*
X82912Y-38059D01*
X82751Y-38126D01*
X82627Y-38250D01*
X82560Y-38412D01*
X82559Y-38587D01*
X82626Y-38748D01*
X82750Y-38872D01*
X82912Y-38939D01*
X83087Y-38940D01*
X83248Y-38873D01*
X83372Y-38749D01*
X83439Y-38587D01*
X83440Y-38412D01*
X83440Y-39412D01*
X83373Y-39251D01*
X83249Y-39127D01*
X83087Y-39060D01*
X82912Y-39059D01*
X82751Y-39126D01*
X82627Y-39250D01*
X82560Y-39412D01*
X82559Y-39587D01*
X82626Y-39748D01*
X82750Y-39872D01*
X82912Y-39939D01*
X83087Y-39940D01*
X83248Y-39873D01*
X83372Y-39749D01*
X83439Y-39587D01*
X83440Y-39412D01*
X83440Y-40412D01*
X83373Y-40251D01*
X83249Y-40127D01*
X83087Y-40060D01*
X82912Y-40059D01*
X82751Y-40126D01*
X82627Y-40250D01*
X82560Y-40412D01*
X82559Y-40587D01*
X82626Y-40748D01*
X82750Y-40872D01*
X82912Y-40939D01*
X83087Y-40940D01*
X83248Y-40873D01*
X83372Y-40749D01*
X83439Y-40587D01*
X83440Y-40412D01*
X83440Y-41412D01*
X83373Y-41251D01*
X83249Y-41127D01*
X83087Y-41060D01*
X82912Y-41059D01*
X82751Y-41126D01*
X82627Y-41250D01*
X82560Y-41412D01*
X82559Y-41587D01*
X82626Y-41748D01*
X82750Y-41872D01*
X82912Y-41939D01*
X83087Y-41940D01*
X83248Y-41873D01*
X83372Y-41749D01*
X83439Y-41587D01*
X83440Y-41412D01*
X83440Y-42412D01*
X83373Y-42251D01*
X83249Y-42127D01*
X83087Y-42060D01*
X82912Y-42059D01*
X82751Y-42126D01*
X82627Y-42250D01*
X82560Y-42412D01*
X82559Y-42587D01*
X82626Y-42748D01*
X82750Y-42872D01*
X82912Y-42939D01*
X83087Y-42940D01*
X83248Y-42873D01*
X83372Y-42749D01*
X83439Y-42587D01*
X83440Y-42412D01*
X83440Y-43412D01*
X83373Y-43251D01*
X83249Y-43127D01*
X83087Y-43060D01*
X82912Y-43059D01*
X82751Y-43126D01*
X82627Y-43250D01*
X82560Y-43412D01*
X82559Y-43587D01*
X82626Y-43748D01*
X82750Y-43872D01*
X82912Y-43939D01*
X83087Y-43940D01*
X83248Y-43873D01*
X83372Y-43749D01*
X83439Y-43587D01*
X83440Y-43412D01*
X83440Y-44412D01*
X83373Y-44251D01*
X83249Y-44127D01*
X83087Y-44060D01*
X82912Y-44059D01*
X82751Y-44126D01*
X82627Y-44250D01*
X82560Y-44412D01*
X82559Y-44587D01*
X82626Y-44748D01*
X82750Y-44872D01*
X82912Y-44939D01*
X83087Y-44940D01*
X83248Y-44873D01*
X83372Y-44749D01*
X83439Y-44587D01*
X83440Y-44412D01*
X83440Y-45412D01*
X83373Y-45251D01*
X83249Y-45127D01*
X83087Y-45060D01*
X82912Y-45059D01*
X82751Y-45126D01*
X82627Y-45250D01*
X82560Y-45412D01*
X82559Y-45587D01*
X82626Y-45748D01*
X82750Y-45872D01*
X82912Y-45939D01*
X83087Y-45940D01*
X83248Y-45873D01*
X83372Y-45749D01*
X83439Y-45587D01*
X83440Y-45412D01*
X83440Y-46412D01*
X83373Y-46251D01*
X83249Y-46127D01*
X83087Y-46060D01*
X82912Y-46059D01*
X82843Y-46088D01*
X82627Y-45872D01*
X82568Y-45833D01*
X82500Y-45820D01*
X82302Y-45820D01*
X82372Y-45749D01*
X82439Y-45587D01*
X82440Y-45412D01*
X82440Y-44412D01*
X82440Y-43412D01*
X82440Y-42412D01*
X82440Y-41412D01*
X82440Y-40412D01*
X82440Y-39412D01*
X82440Y-38412D01*
X82440Y-37412D01*
X82440Y-36412D01*
X82440Y-35412D01*
X82440Y-34412D01*
X82440Y-33412D01*
X82440Y-32412D01*
X82440Y-31412D01*
X82373Y-31251D01*
X82249Y-31127D01*
X82087Y-31060D01*
X81912Y-31059D01*
X81751Y-31126D01*
X81627Y-31250D01*
X81560Y-31412D01*
X81559Y-31587D01*
X81626Y-31748D01*
X81750Y-31872D01*
X81912Y-31939D01*
X82087Y-31940D01*
X82248Y-31873D01*
X82372Y-31749D01*
X82439Y-31587D01*
X82440Y-31412D01*
X82440Y-32412D01*
X82373Y-32251D01*
X82249Y-32127D01*
X82087Y-32060D01*
X81912Y-32059D01*
X81751Y-32126D01*
X81627Y-32250D01*
X81560Y-32412D01*
X81559Y-32587D01*
X81626Y-32748D01*
X81750Y-32872D01*
X81912Y-32939D01*
X82087Y-32940D01*
X82248Y-32873D01*
X82372Y-32749D01*
X82439Y-32587D01*
X82440Y-32412D01*
X82440Y-33412D01*
X82373Y-33251D01*
X82249Y-33127D01*
X82087Y-33060D01*
X81912Y-33059D01*
X81751Y-33126D01*
X81627Y-33250D01*
X81560Y-33412D01*
X81559Y-33587D01*
X81626Y-33748D01*
X81750Y-33872D01*
X81912Y-33939D01*
X82087Y-33940D01*
X82248Y-33873D01*
X82372Y-33749D01*
X82439Y-33587D01*
X82440Y-33412D01*
X82440Y-34412D01*
X82373Y-34251D01*
X82249Y-34127D01*
X82087Y-34060D01*
X81912Y-34059D01*
X81751Y-34126D01*
X81627Y-34250D01*
X81560Y-34412D01*
X81559Y-34587D01*
X81626Y-34748D01*
X81750Y-34872D01*
X81912Y-34939D01*
X82087Y-34940D01*
X82248Y-34873D01*
X82372Y-34749D01*
X82439Y-34587D01*
X82440Y-34412D01*
X82440Y-35412D01*
X82373Y-35251D01*
X82249Y-35127D01*
X82087Y-35060D01*
X81912Y-35059D01*
X81751Y-35126D01*
X81627Y-35250D01*
X81560Y-35412D01*
X81559Y-35587D01*
X81626Y-35748D01*
X81750Y-35872D01*
X81912Y-35939D01*
X82087Y-35940D01*
X82248Y-35873D01*
X82372Y-35749D01*
X82439Y-35587D01*
X82440Y-35412D01*
X82440Y-36412D01*
X82373Y-36251D01*
X82249Y-36127D01*
X82087Y-36060D01*
X81912Y-36059D01*
X81751Y-36126D01*
X81627Y-36250D01*
X81560Y-36412D01*
X81559Y-36587D01*
X81626Y-36748D01*
X81750Y-36872D01*
X81912Y-36939D01*
X82087Y-36940D01*
X82248Y-36873D01*
X82372Y-36749D01*
X82439Y-36587D01*
X82440Y-36412D01*
X82440Y-37412D01*
X82373Y-37251D01*
X82249Y-37127D01*
X82087Y-37060D01*
X81912Y-37059D01*
X81751Y-37126D01*
X81627Y-37250D01*
X81560Y-37412D01*
X81559Y-37587D01*
X81626Y-37748D01*
X81750Y-37872D01*
X81912Y-37939D01*
X82087Y-37940D01*
X82248Y-37873D01*
X82372Y-37749D01*
X82439Y-37587D01*
X82440Y-37412D01*
X82440Y-38412D01*
X82373Y-38251D01*
X82249Y-38127D01*
X82087Y-38060D01*
X81912Y-38059D01*
X81751Y-38126D01*
X81627Y-38250D01*
X81560Y-38412D01*
X81559Y-38587D01*
X81626Y-38748D01*
X81750Y-38872D01*
X81912Y-38939D01*
X82087Y-38940D01*
X82248Y-38873D01*
X82372Y-38749D01*
X82439Y-38587D01*
X82440Y-38412D01*
X82440Y-39412D01*
X82373Y-39251D01*
X82249Y-39127D01*
X82087Y-39060D01*
X81912Y-39059D01*
X81751Y-39126D01*
X81627Y-39250D01*
X81560Y-39412D01*
X81559Y-39587D01*
X81626Y-39748D01*
X81750Y-39872D01*
X81912Y-39939D01*
X82087Y-39940D01*
X82248Y-39873D01*
X82372Y-39749D01*
X82439Y-39587D01*
X82440Y-39412D01*
X82440Y-40412D01*
X82373Y-40251D01*
X82249Y-40127D01*
X82087Y-40060D01*
X81912Y-40059D01*
X81751Y-40126D01*
X81627Y-40250D01*
X81560Y-40412D01*
X81559Y-40587D01*
X81626Y-40748D01*
X81750Y-40872D01*
X81912Y-40939D01*
X82087Y-40940D01*
X82248Y-40873D01*
X82372Y-40749D01*
X82439Y-40587D01*
X82440Y-40412D01*
X82440Y-41412D01*
X82373Y-41251D01*
X82249Y-41127D01*
X82087Y-41060D01*
X81912Y-41059D01*
X81751Y-41126D01*
X81627Y-41250D01*
X81560Y-41412D01*
X81559Y-41587D01*
X81626Y-41748D01*
X81750Y-41872D01*
X81912Y-41939D01*
X82087Y-41940D01*
X82248Y-41873D01*
X82372Y-41749D01*
X82439Y-41587D01*
X82440Y-41412D01*
X82440Y-42412D01*
X82373Y-42251D01*
X82249Y-42127D01*
X82087Y-42060D01*
X81912Y-42059D01*
X81751Y-42126D01*
X81627Y-42250D01*
X81560Y-42412D01*
X81559Y-42587D01*
X81626Y-42748D01*
X81750Y-42872D01*
X81912Y-42939D01*
X82087Y-42940D01*
X82248Y-42873D01*
X82372Y-42749D01*
X82439Y-42587D01*
X82440Y-42412D01*
X82440Y-43412D01*
X82373Y-43251D01*
X82249Y-43127D01*
X82087Y-43060D01*
X81912Y-43059D01*
X81751Y-43126D01*
X81627Y-43250D01*
X81560Y-43412D01*
X81559Y-43587D01*
X81626Y-43748D01*
X81750Y-43872D01*
X81912Y-43939D01*
X82087Y-43940D01*
X82248Y-43873D01*
X82372Y-43749D01*
X82439Y-43587D01*
X82440Y-43412D01*
X82440Y-44412D01*
X82373Y-44251D01*
X82249Y-44127D01*
X82087Y-44060D01*
X81912Y-44059D01*
X81751Y-44126D01*
X81627Y-44250D01*
X81560Y-44412D01*
X81559Y-44587D01*
X81626Y-44748D01*
X81750Y-44872D01*
X81912Y-44939D01*
X82087Y-44940D01*
X82248Y-44873D01*
X82372Y-44749D01*
X82439Y-44587D01*
X82440Y-44412D01*
X82440Y-45412D01*
X82373Y-45251D01*
X82249Y-45127D01*
X82087Y-45060D01*
X81912Y-45059D01*
X81751Y-45126D01*
X81627Y-45250D01*
X81560Y-45412D01*
X81560Y-45439D01*
X81406Y-45285D01*
X81406Y-43915D01*
X81392Y-43846D01*
X81353Y-43788D01*
X79440Y-41875D01*
X79440Y-31712D01*
X79440Y-31287D01*
X79406Y-31119D01*
X79311Y-30976D01*
X79168Y-30880D01*
X79000Y-30847D01*
X78831Y-30880D01*
X78688Y-30976D01*
X78593Y-31119D01*
X78560Y-31287D01*
X78560Y-31712D01*
X78593Y-31880D01*
X78688Y-32023D01*
X78831Y-32119D01*
X79000Y-32152D01*
X79168Y-32119D01*
X79311Y-32023D01*
X79406Y-31880D01*
X79440Y-31712D01*
X79440Y-41875D01*
X78440Y-40875D01*
X78440Y-31712D01*
X78440Y-31287D01*
X78406Y-31119D01*
X78311Y-30976D01*
X78168Y-30880D01*
X78000Y-30847D01*
X77831Y-30880D01*
X77688Y-30976D01*
X77593Y-31119D01*
X77560Y-31287D01*
X77560Y-31712D01*
X77593Y-31880D01*
X77688Y-32023D01*
X77831Y-32119D01*
X78000Y-32152D01*
X78168Y-32119D01*
X78311Y-32023D01*
X78406Y-31880D01*
X78440Y-31712D01*
X78440Y-40875D01*
X77440Y-39875D01*
X77440Y-31712D01*
X77440Y-31287D01*
X77406Y-31119D01*
X77311Y-30976D01*
X77168Y-30880D01*
X77000Y-30847D01*
X76831Y-30880D01*
X76688Y-30976D01*
X76593Y-31119D01*
X76560Y-31287D01*
X76560Y-31712D01*
X76593Y-31880D01*
X76688Y-32023D01*
X76831Y-32119D01*
X77000Y-32152D01*
X77168Y-32119D01*
X77311Y-32023D01*
X77406Y-31880D01*
X77440Y-31712D01*
X77440Y-39875D01*
X76440Y-38875D01*
X76440Y-31712D01*
X76440Y-31287D01*
X76406Y-31119D01*
X76311Y-30976D01*
X76168Y-30880D01*
X76000Y-30847D01*
X75831Y-30880D01*
X75688Y-30976D01*
X75593Y-31119D01*
X75560Y-31287D01*
X75560Y-31712D01*
X75593Y-31880D01*
X75688Y-32023D01*
X75831Y-32119D01*
X76000Y-32152D01*
X76168Y-32119D01*
X76311Y-32023D01*
X76406Y-31880D01*
X76440Y-31712D01*
X76440Y-38875D01*
X75440Y-37875D01*
X75440Y-31712D01*
X75440Y-31287D01*
X75406Y-31119D01*
X75311Y-30976D01*
X75168Y-30880D01*
X75000Y-30847D01*
X74831Y-30880D01*
X74688Y-30976D01*
X74593Y-31119D01*
X74560Y-31287D01*
X74560Y-31712D01*
X74593Y-31880D01*
X74688Y-32023D01*
X74831Y-32119D01*
X75000Y-32152D01*
X75168Y-32119D01*
X75311Y-32023D01*
X75406Y-31880D01*
X75440Y-31712D01*
X75440Y-37875D01*
X74440Y-36875D01*
X74440Y-31712D01*
X74440Y-31287D01*
X74406Y-31119D01*
X74311Y-30976D01*
X74168Y-30880D01*
X74000Y-30847D01*
X73831Y-30880D01*
X73688Y-30976D01*
X73593Y-31119D01*
X73560Y-31287D01*
X73560Y-31712D01*
X73593Y-31880D01*
X73688Y-32023D01*
X73831Y-32119D01*
X74000Y-32152D01*
X74168Y-32119D01*
X74311Y-32023D01*
X74406Y-31880D01*
X74440Y-31712D01*
X74440Y-36875D01*
X73440Y-35875D01*
X73440Y-31712D01*
X73440Y-31287D01*
X73406Y-31119D01*
X73311Y-30976D01*
X73168Y-30880D01*
X73000Y-30847D01*
X72831Y-30880D01*
X72688Y-30976D01*
X72593Y-31119D01*
X72560Y-31287D01*
X72560Y-31712D01*
X72593Y-31880D01*
X72688Y-32023D01*
X72831Y-32119D01*
X73000Y-32152D01*
X73168Y-32119D01*
X73311Y-32023D01*
X73406Y-31880D01*
X73440Y-31712D01*
X73440Y-35875D01*
X72440Y-34875D01*
X72440Y-31712D01*
X72440Y-31287D01*
X72406Y-31119D01*
X72311Y-30976D01*
X72168Y-30880D01*
X72000Y-30847D01*
X71831Y-30880D01*
X71688Y-30976D01*
X71593Y-31119D01*
X71560Y-31287D01*
X71560Y-31712D01*
X71593Y-31880D01*
X71688Y-32023D01*
X71831Y-32119D01*
X72000Y-32152D01*
X72168Y-32119D01*
X72311Y-32023D01*
X72406Y-31880D01*
X72440Y-31712D01*
X72440Y-34875D01*
X70440Y-32875D01*
X70440Y-31712D01*
X70440Y-31287D01*
X70406Y-31119D01*
X70311Y-30976D01*
X70168Y-30880D01*
X70000Y-30847D01*
X69831Y-30880D01*
X69688Y-30976D01*
X69593Y-31119D01*
X69560Y-31287D01*
X69560Y-31712D01*
X69593Y-31880D01*
X69688Y-32023D01*
X69831Y-32119D01*
X70000Y-32152D01*
X70168Y-32119D01*
X70311Y-32023D01*
X70406Y-31880D01*
X70440Y-31712D01*
X70440Y-32875D01*
X69617Y-32052D01*
X69559Y-32013D01*
X69490Y-31999D01*
X69327Y-31999D01*
X69406Y-31880D01*
X69440Y-31712D01*
X69440Y-31287D01*
X69406Y-31119D01*
X69311Y-30976D01*
X69168Y-30880D01*
X69000Y-30847D01*
X68831Y-30880D01*
X68688Y-30976D01*
X68593Y-31119D01*
X68560Y-31287D01*
X68560Y-31712D01*
X68593Y-31880D01*
X68672Y-31999D01*
X68327Y-31999D01*
X68406Y-31880D01*
X68440Y-31712D01*
X68440Y-31287D01*
X68406Y-31119D01*
X68311Y-30976D01*
X68168Y-30880D01*
X68000Y-30847D01*
X67831Y-30880D01*
X67688Y-30976D01*
X67593Y-31119D01*
X67560Y-31287D01*
X67560Y-31712D01*
X67593Y-31880D01*
X67672Y-31999D01*
X67327Y-31999D01*
X67406Y-31880D01*
X67440Y-31712D01*
X67440Y-31287D01*
X67406Y-31119D01*
X67311Y-30976D01*
X67168Y-30880D01*
X67000Y-30847D01*
X66831Y-30880D01*
X66688Y-30976D01*
X66593Y-31119D01*
X66560Y-31287D01*
X66560Y-31712D01*
X66593Y-31880D01*
X66672Y-31999D01*
X66327Y-31999D01*
X66406Y-31880D01*
X66440Y-31712D01*
X66440Y-31287D01*
X66406Y-31119D01*
X66311Y-30976D01*
X66168Y-30880D01*
X66000Y-30847D01*
X65831Y-30880D01*
X65688Y-30976D01*
X65593Y-31119D01*
X65560Y-31287D01*
X65560Y-31712D01*
X65593Y-31880D01*
X65672Y-31999D01*
X65327Y-31999D01*
X65406Y-31880D01*
X65440Y-31712D01*
X65440Y-31287D01*
X65406Y-31119D01*
X65311Y-30976D01*
X65168Y-30880D01*
X65000Y-30847D01*
X64831Y-30880D01*
X64688Y-30976D01*
X64593Y-31119D01*
X64560Y-31287D01*
X64560Y-31712D01*
X64593Y-31880D01*
X64672Y-31999D01*
X64327Y-31999D01*
X64406Y-31880D01*
X64440Y-31712D01*
X64440Y-31287D01*
X64406Y-31119D01*
X64311Y-30976D01*
X64168Y-30880D01*
X64000Y-30847D01*
X63831Y-30880D01*
X63688Y-30976D01*
X63593Y-31119D01*
X63560Y-31287D01*
X63560Y-31712D01*
X63593Y-31880D01*
X63672Y-31999D01*
X63440Y-31999D01*
X63440Y-31712D01*
X63440Y-31287D01*
X63406Y-31119D01*
X63311Y-30976D01*
X63168Y-30880D01*
X63000Y-30847D01*
X62831Y-30880D01*
X62688Y-30976D01*
X62593Y-31119D01*
X62560Y-31287D01*
X62560Y-31712D01*
X62593Y-31880D01*
X62688Y-32023D01*
X62831Y-32119D01*
X63000Y-32152D01*
X63168Y-32119D01*
X63311Y-32023D01*
X63406Y-31880D01*
X63440Y-31712D01*
X63440Y-31999D01*
X63430Y-31999D01*
X63361Y-32013D01*
X63302Y-32052D01*
X63122Y-32232D01*
X63083Y-32290D01*
X63070Y-32359D01*
X63070Y-32406D01*
X63056Y-32420D01*
X63035Y-32472D01*
X63034Y-32527D01*
X63034Y-32960D01*
X62965Y-32960D01*
X62965Y-32472D01*
X62943Y-32420D01*
X62904Y-32381D01*
X62852Y-32360D01*
X62797Y-32359D01*
X62647Y-32359D01*
X62595Y-32381D01*
X62556Y-32420D01*
X62535Y-32472D01*
X62534Y-32527D01*
X62534Y-33027D01*
X62556Y-33079D01*
X62570Y-33092D01*
X62570Y-33140D01*
X62583Y-33209D01*
X62622Y-33267D01*
X62681Y-33306D01*
X62750Y-33320D01*
X63282Y-33320D01*
X61840Y-34762D01*
X61840Y-31712D01*
X61840Y-31287D01*
X61806Y-31119D01*
X61711Y-30976D01*
X61568Y-30880D01*
X61400Y-30847D01*
X61231Y-30880D01*
X61088Y-30976D01*
X60993Y-31119D01*
X60960Y-31287D01*
X60960Y-31712D01*
X60993Y-31880D01*
X61088Y-32023D01*
X61231Y-32119D01*
X61400Y-32152D01*
X61568Y-32119D01*
X61711Y-32023D01*
X61806Y-31880D01*
X61840Y-31712D01*
X61840Y-34762D01*
X60840Y-35762D01*
X60840Y-31712D01*
X60840Y-31287D01*
X60806Y-31119D01*
X60711Y-30976D01*
X60568Y-30880D01*
X60400Y-30847D01*
X60231Y-30880D01*
X60088Y-30976D01*
X59993Y-31119D01*
X59960Y-31287D01*
X59960Y-31712D01*
X59993Y-31880D01*
X60088Y-32023D01*
X60231Y-32119D01*
X60400Y-32152D01*
X60568Y-32119D01*
X60711Y-32023D01*
X60806Y-31880D01*
X60840Y-31712D01*
X60840Y-35762D01*
X60112Y-36490D01*
X59840Y-36490D01*
X59840Y-31712D01*
X59840Y-31287D01*
X59806Y-31119D01*
X59711Y-30976D01*
X59568Y-30880D01*
X59400Y-30847D01*
X59231Y-30880D01*
X59088Y-30976D01*
X58993Y-31119D01*
X58960Y-31287D01*
X58960Y-31712D01*
X58993Y-31880D01*
X59088Y-32023D01*
X59231Y-32119D01*
X59400Y-32152D01*
X59568Y-32119D01*
X59711Y-32023D01*
X59806Y-31880D01*
X59840Y-31712D01*
X59840Y-36490D01*
X59649Y-36490D01*
X59649Y-34360D01*
X59644Y-34334D01*
X59644Y-34297D01*
X59630Y-34262D01*
X59625Y-34237D01*
X59611Y-34216D01*
X59597Y-34181D01*
X59570Y-34155D01*
X59556Y-34133D01*
X58840Y-33417D01*
X58840Y-31712D01*
X58840Y-31287D01*
X58806Y-31119D01*
X58711Y-30976D01*
X58568Y-30880D01*
X58400Y-30847D01*
X58231Y-30880D01*
X58088Y-30976D01*
X57993Y-31119D01*
X57960Y-31287D01*
X57960Y-31712D01*
X57993Y-31880D01*
X58088Y-32023D01*
X58231Y-32119D01*
X58400Y-32152D01*
X58568Y-32119D01*
X58711Y-32023D01*
X58806Y-31880D01*
X58840Y-31712D01*
X58840Y-33417D01*
X57896Y-32474D01*
X57840Y-32436D01*
X57840Y-31712D01*
X57840Y-31287D01*
X57806Y-31119D01*
X57711Y-30976D01*
X57568Y-30880D01*
X57400Y-30847D01*
X57231Y-30880D01*
X57088Y-30976D01*
X56993Y-31119D01*
X56960Y-31287D01*
X56960Y-31712D01*
X56993Y-31880D01*
X57088Y-32023D01*
X57231Y-32119D01*
X57400Y-32152D01*
X57568Y-32119D01*
X57711Y-32023D01*
X57806Y-31880D01*
X57840Y-31712D01*
X57840Y-32436D01*
X57792Y-32404D01*
X57670Y-32380D01*
X56840Y-32380D01*
X56840Y-31712D01*
X56840Y-31287D01*
X56806Y-31119D01*
X56711Y-30976D01*
X56568Y-30880D01*
X56400Y-30847D01*
X56231Y-30880D01*
X56088Y-30976D01*
X55993Y-31119D01*
X55960Y-31287D01*
X55960Y-31712D01*
X55993Y-31880D01*
X56088Y-32023D01*
X56231Y-32119D01*
X56400Y-32152D01*
X56568Y-32119D01*
X56711Y-32023D01*
X56806Y-31880D01*
X56840Y-31712D01*
X56840Y-32380D01*
X55840Y-32380D01*
X55840Y-31712D01*
X55840Y-31287D01*
X55806Y-31119D01*
X55711Y-30976D01*
X55568Y-30880D01*
X55400Y-30847D01*
X55231Y-30880D01*
X55088Y-30976D01*
X54993Y-31119D01*
X54960Y-31287D01*
X54960Y-31712D01*
X54993Y-31880D01*
X55088Y-32023D01*
X55231Y-32119D01*
X55400Y-32152D01*
X55568Y-32119D01*
X55711Y-32023D01*
X55806Y-31880D01*
X55840Y-31712D01*
X55840Y-32380D01*
X54840Y-32380D01*
X54840Y-31712D01*
X54840Y-31287D01*
X54806Y-31119D01*
X54711Y-30976D01*
X54568Y-30880D01*
X54400Y-30847D01*
X54231Y-30880D01*
X54088Y-30976D01*
X53993Y-31119D01*
X53960Y-31287D01*
X53960Y-31712D01*
X53993Y-31880D01*
X54088Y-32023D01*
X54231Y-32119D01*
X54400Y-32152D01*
X54568Y-32119D01*
X54711Y-32023D01*
X54806Y-31880D01*
X54840Y-31712D01*
X54840Y-32380D01*
X53840Y-32380D01*
X53840Y-31712D01*
X53840Y-31287D01*
X53806Y-31119D01*
X53711Y-30976D01*
X53568Y-30880D01*
X53400Y-30847D01*
X53231Y-30880D01*
X53088Y-30976D01*
X52993Y-31119D01*
X52960Y-31287D01*
X52960Y-31712D01*
X52993Y-31880D01*
X53088Y-32023D01*
X53231Y-32119D01*
X53400Y-32152D01*
X53568Y-32119D01*
X53711Y-32023D01*
X53806Y-31880D01*
X53840Y-31712D01*
X53840Y-32380D01*
X52840Y-32380D01*
X52840Y-31712D01*
X52840Y-31287D01*
X52806Y-31119D01*
X52711Y-30976D01*
X52568Y-30880D01*
X52400Y-30847D01*
X52231Y-30880D01*
X52088Y-30976D01*
X51993Y-31119D01*
X51960Y-31287D01*
X51960Y-31712D01*
X51993Y-31880D01*
X52088Y-32023D01*
X52231Y-32119D01*
X52400Y-32152D01*
X52568Y-32119D01*
X52711Y-32023D01*
X52806Y-31880D01*
X52840Y-31712D01*
X52840Y-32380D01*
X51999Y-32380D01*
X51876Y-32404D01*
X51842Y-32427D01*
X51773Y-32474D01*
X50437Y-33809D01*
X50362Y-33809D01*
X50301Y-33835D01*
X48148Y-33835D01*
X48087Y-33810D01*
X47912Y-33809D01*
X47751Y-33876D01*
X47627Y-34000D01*
X47560Y-34162D01*
X47559Y-34337D01*
X47626Y-34498D01*
X47680Y-34552D01*
X47680Y-34947D01*
X47627Y-35000D01*
X47560Y-35162D01*
X47559Y-35337D01*
X47626Y-35498D01*
X47750Y-35622D01*
X47912Y-35689D01*
X48087Y-35690D01*
X48248Y-35623D01*
X48372Y-35499D01*
X48439Y-35337D01*
X48440Y-35162D01*
X48373Y-35001D01*
X48320Y-34947D01*
X48320Y-34552D01*
X48372Y-34499D01*
X48382Y-34475D01*
X48652Y-34475D01*
X48627Y-34500D01*
X48560Y-34662D01*
X48559Y-34837D01*
X48626Y-34998D01*
X48750Y-35122D01*
X48912Y-35189D01*
X49087Y-35190D01*
X49248Y-35123D01*
X49372Y-34999D01*
X49439Y-34837D01*
X49440Y-34662D01*
X49373Y-34501D01*
X49347Y-34475D01*
X50066Y-34475D01*
X50076Y-34498D01*
X50130Y-34552D01*
X50130Y-34947D01*
X50077Y-35000D01*
X50010Y-35162D01*
X50009Y-35337D01*
X50076Y-35498D01*
X50200Y-35622D01*
X50362Y-35689D01*
X50537Y-35690D01*
X50698Y-35623D01*
X50822Y-35499D01*
X50889Y-35337D01*
X50890Y-35162D01*
X50823Y-35001D01*
X50770Y-34947D01*
X50770Y-34552D01*
X50822Y-34499D01*
X50889Y-34337D01*
X50889Y-34262D01*
X52131Y-33020D01*
X52657Y-33020D01*
X52627Y-33050D01*
X52560Y-33212D01*
X52559Y-33387D01*
X52626Y-33548D01*
X52750Y-33672D01*
X52912Y-33739D01*
X53087Y-33740D01*
X53248Y-33673D01*
X53372Y-33549D01*
X53439Y-33387D01*
X53440Y-33212D01*
X53373Y-33051D01*
X53342Y-33020D01*
X57537Y-33020D01*
X59103Y-34586D01*
X59124Y-34600D01*
X59151Y-34626D01*
X59186Y-34641D01*
X59207Y-34655D01*
X59232Y-34660D01*
X59266Y-34674D01*
X59304Y-34674D01*
X59329Y-34679D01*
X59354Y-34675D01*
X59392Y-34675D01*
X59427Y-34660D01*
X59452Y-34655D01*
X59473Y-34641D01*
X59508Y-34627D01*
X59534Y-34600D01*
X59556Y-34586D01*
X59570Y-34565D01*
X59596Y-34538D01*
X59611Y-34503D01*
X59625Y-34482D01*
X59630Y-34457D01*
X59644Y-34422D01*
X59644Y-34385D01*
X59649Y-34360D01*
X59649Y-36490D01*
X53440Y-36490D01*
X53440Y-34212D01*
X53373Y-34051D01*
X53249Y-33927D01*
X53087Y-33860D01*
X52912Y-33859D01*
X52751Y-33926D01*
X52627Y-34050D01*
X52560Y-34212D01*
X52559Y-34387D01*
X52626Y-34548D01*
X52750Y-34672D01*
X52912Y-34739D01*
X53087Y-34740D01*
X53248Y-34673D01*
X53372Y-34549D01*
X53439Y-34387D01*
X53440Y-34212D01*
X53440Y-36490D01*
X51812Y-36490D01*
X51699Y-36377D01*
X51537Y-36310D01*
X51507Y-36310D01*
X51633Y-36183D01*
X51633Y-36183D01*
X51664Y-36137D01*
X51698Y-36123D01*
X51822Y-35999D01*
X51889Y-35837D01*
X51890Y-35662D01*
X51890Y-34662D01*
X51823Y-34501D01*
X51699Y-34377D01*
X51537Y-34310D01*
X51362Y-34309D01*
X51201Y-34376D01*
X51077Y-34500D01*
X51010Y-34662D01*
X51009Y-34837D01*
X51076Y-34998D01*
X51200Y-35122D01*
X51362Y-35189D01*
X51537Y-35190D01*
X51698Y-35123D01*
X51822Y-34999D01*
X51889Y-34837D01*
X51890Y-34662D01*
X51890Y-35662D01*
X51823Y-35501D01*
X51699Y-35377D01*
X51537Y-35310D01*
X51362Y-35309D01*
X51201Y-35376D01*
X51077Y-35500D01*
X51010Y-35662D01*
X51009Y-35837D01*
X51076Y-35998D01*
X51080Y-36002D01*
X50980Y-36102D01*
X50928Y-35976D01*
X50836Y-35948D01*
X50751Y-36032D01*
X50751Y-35863D01*
X50723Y-35771D01*
X50519Y-35703D01*
X50305Y-35718D01*
X50176Y-35771D01*
X50148Y-35863D01*
X50450Y-36165D01*
X50751Y-35863D01*
X50751Y-36032D01*
X50534Y-36250D01*
X50540Y-36255D01*
X50455Y-36340D01*
X50450Y-36334D01*
X50365Y-36419D01*
X50365Y-36250D01*
X50063Y-35948D01*
X49971Y-35976D01*
X49903Y-36180D01*
X49918Y-36394D01*
X49971Y-36523D01*
X50063Y-36551D01*
X50365Y-36250D01*
X50365Y-36419D01*
X50148Y-36636D01*
X50176Y-36728D01*
X50235Y-36747D01*
X50176Y-36771D01*
X50148Y-36863D01*
X50450Y-37165D01*
X50455Y-37159D01*
X50540Y-37244D01*
X50534Y-37250D01*
X50540Y-37255D01*
X50455Y-37340D01*
X50450Y-37334D01*
X50365Y-37419D01*
X50365Y-37250D01*
X50063Y-36948D01*
X49971Y-36976D01*
X49903Y-37180D01*
X49918Y-37394D01*
X49971Y-37523D01*
X50063Y-37551D01*
X50365Y-37250D01*
X50365Y-37419D01*
X50148Y-37636D01*
X50176Y-37728D01*
X50380Y-37796D01*
X50594Y-37781D01*
X50658Y-37754D01*
X50658Y-37983D01*
X50677Y-38082D01*
X50734Y-38167D01*
X51973Y-39406D01*
X52058Y-39462D01*
X52157Y-39482D01*
X59635Y-39482D01*
X59734Y-39462D01*
X59819Y-39406D01*
X62534Y-36690D01*
X62534Y-37027D01*
X62556Y-37079D01*
X62570Y-37092D01*
X62570Y-37140D01*
X62570Y-40105D01*
X62583Y-40174D01*
X62622Y-40233D01*
X63070Y-40680D01*
X63070Y-41109D01*
X63070Y-41156D01*
X63056Y-41170D01*
X63035Y-41222D01*
X63034Y-41277D01*
X63034Y-41710D01*
X62965Y-41710D01*
X62965Y-41222D01*
X62960Y-41210D01*
X63021Y-41149D01*
X63069Y-41033D01*
X63069Y-40908D01*
X63021Y-40792D01*
X62933Y-40703D01*
X62817Y-40655D01*
X62692Y-40655D01*
X62576Y-40703D01*
X62487Y-40791D01*
X62439Y-40907D01*
X62439Y-41032D01*
X62487Y-41148D01*
X62542Y-41203D01*
X62535Y-41222D01*
X62534Y-41277D01*
X62534Y-41710D01*
X56229Y-41710D01*
X56146Y-41726D01*
X56130Y-41729D01*
X56046Y-41786D01*
X53436Y-44395D01*
X53439Y-44387D01*
X53440Y-44212D01*
X53440Y-43212D01*
X53373Y-43051D01*
X53249Y-42927D01*
X53087Y-42860D01*
X52912Y-42859D01*
X52751Y-42926D01*
X52627Y-43050D01*
X52560Y-43212D01*
X52559Y-43387D01*
X52626Y-43548D01*
X52750Y-43672D01*
X52912Y-43739D01*
X53087Y-43740D01*
X53248Y-43673D01*
X53372Y-43549D01*
X53439Y-43387D01*
X53440Y-43212D01*
X53440Y-44212D01*
X53373Y-44051D01*
X53249Y-43927D01*
X53087Y-43860D01*
X52912Y-43859D01*
X52751Y-43926D01*
X52627Y-44050D01*
X52560Y-44212D01*
X52559Y-44387D01*
X52626Y-44548D01*
X52750Y-44672D01*
X52912Y-44739D01*
X53087Y-44740D01*
X53095Y-44736D01*
X51890Y-45942D01*
X51890Y-45662D01*
X51890Y-44662D01*
X51823Y-44501D01*
X51699Y-44377D01*
X51537Y-44310D01*
X51362Y-44309D01*
X51201Y-44376D01*
X51077Y-44500D01*
X51010Y-44662D01*
X51009Y-44837D01*
X51076Y-44998D01*
X51200Y-45122D01*
X51362Y-45189D01*
X51537Y-45190D01*
X51698Y-45123D01*
X51822Y-44999D01*
X51889Y-44837D01*
X51890Y-44662D01*
X51890Y-45662D01*
X51823Y-45501D01*
X51699Y-45377D01*
X51537Y-45310D01*
X51362Y-45309D01*
X51201Y-45376D01*
X51077Y-45500D01*
X51010Y-45662D01*
X51009Y-45837D01*
X51076Y-45998D01*
X51200Y-46122D01*
X51362Y-46189D01*
X51537Y-46190D01*
X51698Y-46123D01*
X51822Y-45999D01*
X51889Y-45837D01*
X51890Y-45662D01*
X51890Y-45942D01*
X51522Y-46310D01*
X51362Y-46309D01*
X51201Y-46376D01*
X51077Y-46500D01*
X51010Y-46662D01*
X51009Y-46837D01*
X51076Y-46998D01*
X51200Y-47122D01*
X51362Y-47189D01*
X51537Y-47190D01*
X51698Y-47123D01*
X51822Y-46999D01*
X51889Y-46837D01*
X51890Y-46677D01*
X56337Y-42230D01*
X63622Y-42230D01*
X62371Y-43481D01*
X55458Y-43481D01*
X55359Y-43501D01*
X55331Y-43519D01*
X55274Y-43557D01*
X51522Y-47310D01*
X51362Y-47309D01*
X51201Y-47376D01*
X51077Y-47500D01*
X51010Y-47662D01*
X51009Y-47837D01*
X51076Y-47998D01*
X51200Y-48122D01*
X51362Y-48189D01*
X51537Y-48190D01*
X51698Y-48123D01*
X51822Y-47999D01*
X51889Y-47837D01*
X51890Y-47677D01*
X55566Y-44001D01*
X62478Y-44001D01*
X62578Y-43981D01*
X62662Y-43925D01*
X64433Y-42153D01*
X64490Y-42069D01*
X64509Y-41970D01*
X64510Y-41970D01*
X64510Y-41924D01*
X64539Y-41953D01*
X64627Y-41990D01*
X64652Y-41990D01*
X64712Y-41930D01*
X64712Y-41560D01*
X64682Y-41560D01*
X64682Y-41440D01*
X64712Y-41440D01*
X64712Y-41070D01*
X64652Y-41010D01*
X64627Y-41009D01*
X64539Y-41046D01*
X64471Y-41113D01*
X64445Y-41175D01*
X64443Y-41170D01*
X64404Y-41131D01*
X64352Y-41110D01*
X64297Y-41109D01*
X64147Y-41109D01*
X64095Y-41131D01*
X64056Y-41170D01*
X64035Y-41222D01*
X64034Y-41277D01*
X64034Y-41362D01*
X64009Y-41400D01*
X64000Y-41449D01*
X63990Y-41400D01*
X63965Y-41362D01*
X63965Y-41222D01*
X63943Y-41170D01*
X63904Y-41131D01*
X63852Y-41110D01*
X63797Y-41109D01*
X63647Y-41109D01*
X63595Y-41131D01*
X63556Y-41170D01*
X63535Y-41222D01*
X63534Y-41277D01*
X63534Y-41362D01*
X63509Y-41400D01*
X63490Y-41500D01*
X63490Y-41710D01*
X63465Y-41710D01*
X63465Y-41222D01*
X63443Y-41170D01*
X63430Y-41157D01*
X63430Y-41109D01*
X63430Y-40605D01*
X63416Y-40537D01*
X63377Y-40478D01*
X62930Y-40031D01*
X62930Y-37280D01*
X62954Y-37402D01*
X63023Y-37506D01*
X63127Y-37575D01*
X63250Y-37600D01*
X63262Y-37600D01*
X65410Y-39748D01*
X65431Y-39762D01*
X65458Y-39788D01*
X65492Y-39803D01*
X65514Y-39817D01*
X65539Y-39822D01*
X65573Y-39836D01*
X65611Y-39836D01*
X65636Y-39842D01*
X65661Y-39837D01*
X65699Y-39837D01*
X65734Y-39822D01*
X65759Y-39817D01*
X65780Y-39803D01*
X65815Y-39789D01*
X65841Y-39762D01*
X65863Y-39748D01*
X65877Y-39727D01*
X65903Y-39700D01*
X65918Y-39665D01*
X65932Y-39644D01*
X65937Y-39619D01*
X65951Y-39584D01*
X65951Y-39547D01*
X65956Y-39522D01*
X65951Y-39496D01*
X65951Y-39459D01*
X65937Y-39424D01*
X65932Y-39399D01*
X65918Y-39378D01*
X65904Y-39343D01*
X65877Y-39317D01*
X65863Y-39295D01*
X65712Y-39145D01*
X65712Y-37180D01*
X65712Y-36810D01*
X65712Y-36690D01*
X65712Y-36320D01*
X65712Y-33180D01*
X65712Y-32810D01*
X65505Y-32810D01*
X65495Y-32810D01*
X65287Y-32810D01*
X65287Y-33180D01*
X65347Y-33240D01*
X65372Y-33240D01*
X65460Y-33203D01*
X65500Y-33164D01*
X65539Y-33203D01*
X65627Y-33240D01*
X65652Y-33240D01*
X65712Y-33180D01*
X65712Y-36320D01*
X65652Y-36260D01*
X65627Y-36259D01*
X65539Y-36296D01*
X65500Y-36335D01*
X65460Y-36296D01*
X65372Y-36259D01*
X65347Y-36260D01*
X65287Y-36320D01*
X65287Y-36690D01*
X65495Y-36690D01*
X65505Y-36690D01*
X65712Y-36690D01*
X65712Y-36810D01*
X65505Y-36810D01*
X65495Y-36810D01*
X65287Y-36810D01*
X65287Y-37180D01*
X65347Y-37240D01*
X65372Y-37240D01*
X65460Y-37203D01*
X65500Y-37164D01*
X65539Y-37203D01*
X65627Y-37240D01*
X65652Y-37240D01*
X65712Y-37180D01*
X65712Y-39145D01*
X65212Y-38645D01*
X65212Y-37180D01*
X65212Y-36810D01*
X65212Y-36690D01*
X65212Y-36320D01*
X65212Y-33180D01*
X65212Y-32810D01*
X65005Y-32810D01*
X64995Y-32810D01*
X64787Y-32810D01*
X64787Y-33180D01*
X64847Y-33240D01*
X64872Y-33240D01*
X64960Y-33203D01*
X65000Y-33164D01*
X65039Y-33203D01*
X65127Y-33240D01*
X65152Y-33240D01*
X65212Y-33180D01*
X65212Y-36320D01*
X65152Y-36260D01*
X65127Y-36259D01*
X65039Y-36296D01*
X65000Y-36335D01*
X64960Y-36296D01*
X64872Y-36259D01*
X64847Y-36260D01*
X64787Y-36320D01*
X64787Y-36690D01*
X64995Y-36690D01*
X65005Y-36690D01*
X65212Y-36690D01*
X65212Y-36810D01*
X65005Y-36810D01*
X64995Y-36810D01*
X64787Y-36810D01*
X64787Y-37180D01*
X64847Y-37240D01*
X64872Y-37240D01*
X64960Y-37203D01*
X65000Y-37164D01*
X65039Y-37203D01*
X65127Y-37240D01*
X65152Y-37240D01*
X65212Y-37180D01*
X65212Y-38645D01*
X64209Y-37642D01*
X64317Y-37642D01*
X64433Y-37594D01*
X64522Y-37506D01*
X64570Y-37390D01*
X64570Y-37265D01*
X64545Y-37206D01*
X64627Y-37240D01*
X64652Y-37240D01*
X64712Y-37180D01*
X64712Y-36810D01*
X64682Y-36810D01*
X64682Y-36690D01*
X64712Y-36690D01*
X64712Y-36320D01*
X64652Y-36260D01*
X64627Y-36259D01*
X64539Y-36296D01*
X64471Y-36363D01*
X64445Y-36425D01*
X64443Y-36420D01*
X64404Y-36381D01*
X64352Y-36360D01*
X64297Y-36359D01*
X64147Y-36359D01*
X64095Y-36381D01*
X64056Y-36420D01*
X64035Y-36472D01*
X64034Y-36527D01*
X64034Y-36612D01*
X64010Y-36650D01*
X64010Y-36279D01*
X63990Y-36180D01*
X63933Y-36096D01*
X63849Y-36039D01*
X63750Y-36019D01*
X62578Y-36019D01*
X62478Y-36039D01*
X62450Y-36058D01*
X62394Y-36096D01*
X59527Y-38962D01*
X53359Y-38962D01*
X53372Y-38949D01*
X53439Y-38787D01*
X53440Y-38612D01*
X53373Y-38451D01*
X53249Y-38327D01*
X53087Y-38260D01*
X52912Y-38259D01*
X52751Y-38326D01*
X52627Y-38450D01*
X52560Y-38612D01*
X52559Y-38787D01*
X52626Y-38948D01*
X52640Y-38962D01*
X52265Y-38962D01*
X51492Y-38190D01*
X51537Y-38190D01*
X51698Y-38123D01*
X51822Y-37999D01*
X51889Y-37837D01*
X51890Y-37677D01*
X52127Y-37439D01*
X52637Y-37439D01*
X52627Y-37450D01*
X52560Y-37612D01*
X52559Y-37787D01*
X52626Y-37948D01*
X52750Y-38072D01*
X52912Y-38139D01*
X53087Y-38140D01*
X53248Y-38073D01*
X53372Y-37949D01*
X53439Y-37787D01*
X53440Y-37612D01*
X53373Y-37451D01*
X53362Y-37439D01*
X60290Y-37439D01*
X60389Y-37420D01*
X60474Y-37363D01*
X64433Y-33403D01*
X64433Y-33403D01*
X64471Y-33347D01*
X64490Y-33319D01*
X64490Y-33319D01*
X64509Y-33220D01*
X64510Y-33220D01*
X64510Y-33174D01*
X64539Y-33203D01*
X64627Y-33240D01*
X64652Y-33240D01*
X64712Y-33180D01*
X64712Y-32810D01*
X64682Y-32810D01*
X64682Y-32690D01*
X64712Y-32690D01*
X64712Y-32682D01*
X64787Y-32682D01*
X64787Y-32690D01*
X64995Y-32690D01*
X65005Y-32690D01*
X65212Y-32690D01*
X65212Y-32682D01*
X65287Y-32682D01*
X65287Y-32690D01*
X65495Y-32690D01*
X65505Y-32690D01*
X65712Y-32690D01*
X65712Y-32682D01*
X65787Y-32682D01*
X65787Y-32690D01*
X65995Y-32690D01*
X66005Y-32690D01*
X66212Y-32690D01*
X66212Y-32682D01*
X66287Y-32682D01*
X66287Y-32690D01*
X66317Y-32690D01*
X66317Y-32810D01*
X66287Y-32810D01*
X66287Y-33180D01*
X66347Y-33240D01*
X66372Y-33240D01*
X66408Y-33225D01*
X66408Y-33347D01*
X66456Y-33462D01*
X66544Y-33551D01*
X66660Y-33599D01*
X66785Y-33599D01*
X66901Y-33551D01*
X66990Y-33463D01*
X66990Y-34634D01*
X66983Y-34641D01*
X66935Y-34757D01*
X66934Y-34882D01*
X66982Y-34998D01*
X67071Y-35087D01*
X67187Y-35135D01*
X67197Y-35135D01*
X68285Y-36223D01*
X68285Y-36359D01*
X68147Y-36359D01*
X68095Y-36381D01*
X68056Y-36420D01*
X68035Y-36472D01*
X68034Y-36527D01*
X68034Y-37027D01*
X68056Y-37079D01*
X68070Y-37092D01*
X68070Y-37140D01*
X68083Y-37209D01*
X68122Y-37267D01*
X68464Y-37608D01*
X68450Y-37641D01*
X68450Y-37766D01*
X68498Y-37882D01*
X68587Y-37970D01*
X68702Y-38018D01*
X68828Y-38018D01*
X68944Y-37971D01*
X69032Y-37882D01*
X69080Y-37766D01*
X69080Y-37641D01*
X69033Y-37525D01*
X68944Y-37437D01*
X68828Y-37388D01*
X68753Y-37388D01*
X68443Y-37079D01*
X68464Y-37027D01*
X68465Y-36972D01*
X68465Y-36702D01*
X69709Y-37947D01*
X69709Y-37956D01*
X69757Y-38072D01*
X69845Y-38161D01*
X69961Y-38209D01*
X70086Y-38209D01*
X70202Y-38161D01*
X70291Y-38073D01*
X70339Y-37957D01*
X70339Y-37832D01*
X70291Y-37716D01*
X70202Y-37627D01*
X70087Y-37579D01*
X70077Y-37579D01*
X69315Y-36817D01*
X69336Y-36813D01*
X69357Y-36799D01*
X69392Y-36785D01*
X69418Y-36758D01*
X69440Y-36744D01*
X69454Y-36723D01*
X69480Y-36696D01*
X69495Y-36662D01*
X69509Y-36640D01*
X69514Y-36615D01*
X69528Y-36581D01*
X69528Y-36543D01*
X69533Y-36518D01*
X69533Y-35840D01*
X69547Y-35840D01*
X69880Y-35840D01*
X69940Y-35780D01*
X69940Y-35410D01*
X69932Y-35410D01*
X69932Y-35290D01*
X69940Y-35290D01*
X69940Y-35282D01*
X70060Y-35282D01*
X70060Y-35290D01*
X70067Y-35290D01*
X70067Y-35410D01*
X70060Y-35410D01*
X70060Y-35780D01*
X70120Y-35840D01*
X70452Y-35840D01*
X70547Y-35839D01*
X70625Y-35807D01*
X70625Y-41291D01*
X69773Y-42143D01*
X69704Y-42247D01*
X69680Y-42369D01*
X69680Y-42509D01*
X69472Y-42509D01*
X69420Y-42531D01*
X69381Y-42570D01*
X69360Y-42622D01*
X69359Y-42677D01*
X69359Y-43177D01*
X69381Y-43229D01*
X69420Y-43268D01*
X69472Y-43289D01*
X69527Y-43290D01*
X70527Y-43290D01*
X70579Y-43268D01*
X70618Y-43229D01*
X70639Y-43177D01*
X70640Y-43122D01*
X70640Y-42622D01*
X70618Y-42570D01*
X70579Y-42531D01*
X70527Y-42510D01*
X70472Y-42509D01*
X70320Y-42509D01*
X70320Y-42502D01*
X71105Y-41716D01*
X71105Y-44977D01*
X70740Y-45343D01*
X70740Y-44397D01*
X70740Y-43802D01*
X70703Y-43714D01*
X70636Y-43646D01*
X70547Y-43610D01*
X70452Y-43609D01*
X70120Y-43610D01*
X70060Y-43670D01*
X70060Y-44040D01*
X70680Y-44040D01*
X70740Y-43980D01*
X70740Y-43802D01*
X70740Y-44397D01*
X70740Y-44220D01*
X70680Y-44160D01*
X70060Y-44160D01*
X70060Y-44530D01*
X70120Y-44590D01*
X70452Y-44590D01*
X70547Y-44589D01*
X70636Y-44553D01*
X70703Y-44485D01*
X70740Y-44397D01*
X70740Y-45343D01*
X70533Y-45549D01*
X70411Y-45549D01*
X70295Y-45597D01*
X70206Y-45685D01*
X70158Y-45801D01*
X70158Y-45926D01*
X70206Y-46042D01*
X70294Y-46131D01*
X70410Y-46179D01*
X70535Y-46179D01*
X70651Y-46131D01*
X70740Y-46042D01*
X70788Y-45927D01*
X70788Y-45803D01*
X71412Y-45179D01*
X71412Y-45179D01*
X71451Y-45121D01*
X71465Y-45052D01*
X71465Y-45052D01*
X71465Y-34664D01*
X72025Y-35224D01*
X72025Y-37705D01*
X72038Y-37774D01*
X72077Y-37832D01*
X81588Y-47343D01*
X81560Y-47412D01*
X81559Y-47587D01*
X81626Y-47748D01*
X81750Y-47872D01*
X81912Y-47939D01*
X82087Y-47940D01*
X82248Y-47873D01*
X82372Y-47749D01*
X82439Y-47587D01*
X82440Y-47412D01*
X82373Y-47251D01*
X82249Y-47127D01*
X82087Y-47060D01*
X81912Y-47059D01*
X81843Y-47088D01*
X72385Y-37630D01*
X72385Y-35329D01*
X81046Y-43990D01*
X81046Y-45359D01*
X81059Y-45428D01*
X81098Y-45486D01*
X81739Y-46127D01*
X81739Y-46127D01*
X81746Y-46131D01*
X81746Y-46131D01*
X81627Y-46250D01*
X81560Y-46412D01*
X81559Y-46587D01*
X81626Y-46748D01*
X81750Y-46872D01*
X81912Y-46939D01*
X82087Y-46940D01*
X82248Y-46873D01*
X82372Y-46749D01*
X82439Y-46587D01*
X82440Y-46412D01*
X82373Y-46251D01*
X82302Y-46180D01*
X82425Y-46180D01*
X82588Y-46343D01*
X82560Y-46412D01*
X82559Y-46587D01*
X82626Y-46748D01*
X82750Y-46872D01*
X82912Y-46939D01*
X83087Y-46940D01*
X83248Y-46873D01*
X83372Y-46749D01*
X83439Y-46587D01*
X83440Y-46412D01*
X83440Y-47412D01*
X83373Y-47251D01*
X83249Y-47127D01*
X83087Y-47060D01*
X82912Y-47059D01*
X82751Y-47126D01*
X82627Y-47250D01*
X82560Y-47412D01*
X82559Y-47587D01*
X82626Y-47748D01*
X82750Y-47872D01*
X82912Y-47939D01*
X83087Y-47940D01*
X83248Y-47873D01*
X83372Y-47749D01*
X83439Y-47587D01*
X83440Y-47412D01*
X83440Y-47723D01*
X83353Y-47810D01*
X83339Y-47831D01*
X83313Y-47857D01*
X83298Y-47892D01*
X83284Y-47913D01*
X83279Y-47938D01*
X83265Y-47973D01*
X83265Y-48011D01*
X83260Y-48036D01*
X83265Y-48061D01*
X83265Y-48098D01*
X83279Y-48133D01*
X83284Y-48158D01*
X83291Y-48169D01*
X83249Y-48127D01*
X83087Y-48060D01*
X82912Y-48059D01*
X82751Y-48126D01*
X82627Y-48250D01*
X82560Y-48412D01*
X82559Y-48587D01*
X82626Y-48748D01*
X82750Y-48872D01*
X82912Y-48939D01*
X83087Y-48940D01*
X83248Y-48873D01*
X83372Y-48749D01*
X83439Y-48587D01*
X83440Y-48412D01*
X83390Y-48291D01*
X83401Y-48303D01*
X83436Y-48317D01*
X83457Y-48331D01*
X83482Y-48336D01*
X83517Y-48351D01*
X83554Y-48351D01*
X83580Y-48356D01*
X83605Y-48351D01*
X83642Y-48351D01*
X83677Y-48336D01*
X83702Y-48331D01*
X83723Y-48317D01*
X83758Y-48303D01*
X83785Y-48276D01*
X83806Y-48262D01*
X84876Y-47192D01*
X84876Y-47192D01*
X84922Y-47123D01*
X84945Y-47088D01*
X84945Y-47088D01*
X84969Y-46966D01*
X84970Y-46966D01*
X84970Y-43872D01*
X84979Y-43868D01*
X85018Y-43829D01*
X85039Y-43777D01*
X85040Y-43722D01*
X85040Y-42722D01*
X85018Y-42670D01*
X84979Y-42631D01*
X84970Y-42627D01*
X84970Y-41938D01*
X85311Y-41797D01*
X85576Y-41533D01*
X85719Y-41187D01*
X85720Y-40813D01*
X85720Y-42509D01*
X85552Y-42509D01*
X85464Y-42546D01*
X85396Y-42613D01*
X85360Y-42702D01*
X85359Y-42797D01*
X85360Y-43130D01*
X85420Y-43190D01*
X85790Y-43190D01*
X85790Y-43310D01*
X85420Y-43310D01*
X85360Y-43370D01*
X85359Y-43702D01*
X85360Y-43797D01*
X85396Y-43886D01*
X85464Y-43953D01*
X85552Y-43990D01*
X85730Y-43990D01*
X85790Y-43930D01*
X85790Y-51335D01*
X83375Y-51335D01*
X83517Y-51276D01*
X83775Y-51018D01*
X83914Y-50682D01*
X83915Y-50318D01*
X83776Y-49982D01*
X83535Y-49741D01*
X83568Y-49741D01*
X83637Y-49727D01*
X83696Y-49688D01*
X85398Y-47986D01*
X85521Y-47986D01*
X85637Y-47938D01*
X85725Y-47849D01*
X85773Y-47734D01*
X85774Y-47608D01*
X85726Y-47492D01*
X85637Y-47404D01*
X85521Y-47356D01*
X85396Y-47356D01*
X85280Y-47403D01*
X85192Y-47492D01*
X85144Y-47608D01*
X85143Y-47731D01*
X83494Y-49381D01*
X82440Y-49381D01*
X82440Y-48412D01*
X82373Y-48251D01*
X82249Y-48127D01*
X82087Y-48060D01*
X81912Y-48059D01*
X81751Y-48126D01*
X81627Y-48250D01*
X81560Y-48412D01*
X81559Y-48587D01*
X81626Y-48748D01*
X81750Y-48872D01*
X81912Y-48939D01*
X82087Y-48940D01*
X82248Y-48873D01*
X82372Y-48749D01*
X82439Y-48587D01*
X82440Y-48412D01*
X82440Y-49381D01*
X69940Y-49381D01*
X69940Y-44530D01*
X69940Y-44160D01*
X69940Y-44040D01*
X69940Y-43670D01*
X69880Y-43610D01*
X69547Y-43609D01*
X69452Y-43610D01*
X69363Y-43646D01*
X69296Y-43714D01*
X69259Y-43802D01*
X69260Y-43980D01*
X69320Y-44040D01*
X69940Y-44040D01*
X69940Y-44160D01*
X69320Y-44160D01*
X69260Y-44220D01*
X69259Y-44397D01*
X69296Y-44485D01*
X69363Y-44553D01*
X69452Y-44589D01*
X69547Y-44590D01*
X69880Y-44590D01*
X69940Y-44530D01*
X69940Y-49381D01*
X69128Y-49381D01*
X69128Y-39412D01*
X69081Y-39296D01*
X68993Y-39209D01*
X68993Y-38510D01*
X68993Y-38510D01*
X68980Y-38441D01*
X68956Y-38406D01*
X68941Y-38383D01*
X68941Y-38383D01*
X67930Y-37372D01*
X67930Y-37093D01*
X67943Y-37079D01*
X67964Y-37027D01*
X67965Y-36972D01*
X67965Y-36472D01*
X67943Y-36420D01*
X67904Y-36381D01*
X67852Y-36360D01*
X67797Y-36359D01*
X67647Y-36359D01*
X67595Y-36381D01*
X67556Y-36420D01*
X67535Y-36472D01*
X67534Y-36527D01*
X67534Y-37027D01*
X67556Y-37079D01*
X67570Y-37092D01*
X67570Y-37446D01*
X67583Y-37515D01*
X67622Y-37573D01*
X68633Y-38585D01*
X68633Y-38806D01*
X68605Y-38736D01*
X68516Y-38648D01*
X68400Y-38600D01*
X68390Y-38600D01*
X67510Y-37719D01*
X67510Y-36750D01*
X67490Y-36650D01*
X67465Y-36612D01*
X67465Y-36472D01*
X67443Y-36420D01*
X67404Y-36381D01*
X67352Y-36360D01*
X67297Y-36359D01*
X67147Y-36359D01*
X67095Y-36381D01*
X67056Y-36420D01*
X67035Y-36472D01*
X67034Y-36527D01*
X67034Y-36612D01*
X67009Y-36650D01*
X67000Y-36699D01*
X66990Y-36650D01*
X66965Y-36612D01*
X66965Y-36472D01*
X66943Y-36420D01*
X66904Y-36381D01*
X66852Y-36360D01*
X66797Y-36359D01*
X66647Y-36359D01*
X66595Y-36381D01*
X66556Y-36420D01*
X66554Y-36425D01*
X66528Y-36363D01*
X66460Y-36296D01*
X66372Y-36259D01*
X66347Y-36260D01*
X66287Y-36320D01*
X66287Y-36690D01*
X66317Y-36690D01*
X66317Y-36810D01*
X66287Y-36810D01*
X66287Y-37180D01*
X66347Y-37240D01*
X66367Y-37240D01*
X66242Y-37365D01*
X66232Y-37365D01*
X66212Y-37373D01*
X66212Y-37180D01*
X66212Y-36810D01*
X66212Y-36690D01*
X66212Y-36320D01*
X66212Y-33180D01*
X66212Y-32810D01*
X66005Y-32810D01*
X65995Y-32810D01*
X65787Y-32810D01*
X65787Y-33180D01*
X65847Y-33240D01*
X65872Y-33240D01*
X65960Y-33203D01*
X66000Y-33164D01*
X66039Y-33203D01*
X66127Y-33240D01*
X66152Y-33240D01*
X66212Y-33180D01*
X66212Y-36320D01*
X66152Y-36260D01*
X66127Y-36259D01*
X66039Y-36296D01*
X66000Y-36335D01*
X65960Y-36296D01*
X65872Y-36259D01*
X65847Y-36260D01*
X65787Y-36320D01*
X65787Y-36690D01*
X65995Y-36690D01*
X66005Y-36690D01*
X66212Y-36690D01*
X66212Y-36810D01*
X66005Y-36810D01*
X65995Y-36810D01*
X65787Y-36810D01*
X65787Y-37180D01*
X65847Y-37240D01*
X65872Y-37240D01*
X65960Y-37203D01*
X66000Y-37164D01*
X66039Y-37203D01*
X66127Y-37240D01*
X66152Y-37240D01*
X66212Y-37180D01*
X66212Y-37373D01*
X66116Y-37413D01*
X66027Y-37502D01*
X65979Y-37617D01*
X65979Y-37743D01*
X66027Y-37858D01*
X66116Y-37947D01*
X66231Y-37995D01*
X66357Y-37995D01*
X66473Y-37947D01*
X66561Y-37859D01*
X66609Y-37743D01*
X66609Y-37733D01*
X66933Y-37409D01*
X66933Y-37409D01*
X66990Y-37325D01*
X66990Y-37827D01*
X67009Y-37926D01*
X67066Y-38010D01*
X68022Y-38967D01*
X68022Y-38977D01*
X68070Y-39093D01*
X68159Y-39181D01*
X68274Y-39229D01*
X68400Y-39230D01*
X68516Y-39182D01*
X68604Y-39093D01*
X68633Y-39023D01*
X68633Y-39209D01*
X68547Y-39296D01*
X68498Y-39411D01*
X68498Y-39537D01*
X68546Y-39653D01*
X68635Y-39741D01*
X68751Y-39789D01*
X68876Y-39789D01*
X68992Y-39742D01*
X69080Y-39653D01*
X69128Y-39537D01*
X69128Y-39412D01*
X69128Y-49381D01*
X66212Y-49381D01*
X66212Y-45930D01*
X66212Y-45560D01*
X66005Y-45560D01*
X65995Y-45560D01*
X65787Y-45560D01*
X65787Y-45930D01*
X65847Y-45990D01*
X65872Y-45990D01*
X65960Y-45953D01*
X66000Y-45914D01*
X66039Y-45953D01*
X66127Y-45990D01*
X66152Y-45990D01*
X66212Y-45930D01*
X66212Y-49381D01*
X65712Y-49381D01*
X65712Y-45930D01*
X65712Y-45560D01*
X65505Y-45560D01*
X65495Y-45560D01*
X65287Y-45560D01*
X65287Y-45930D01*
X65347Y-45990D01*
X65372Y-45990D01*
X65460Y-45953D01*
X65500Y-45914D01*
X65539Y-45953D01*
X65627Y-45990D01*
X65652Y-45990D01*
X65712Y-45930D01*
X65712Y-49381D01*
X65212Y-49381D01*
X65212Y-45930D01*
X65212Y-45560D01*
X65005Y-45560D01*
X64995Y-45560D01*
X64787Y-45560D01*
X64787Y-45930D01*
X64847Y-45990D01*
X64872Y-45990D01*
X64960Y-45953D01*
X65000Y-45914D01*
X65039Y-45953D01*
X65127Y-45990D01*
X65152Y-45990D01*
X65212Y-45930D01*
X65212Y-49381D01*
X64766Y-49381D01*
X64697Y-49395D01*
X64639Y-49434D01*
X63440Y-50633D01*
X63440Y-50287D01*
X63406Y-50119D01*
X63311Y-49976D01*
X63168Y-49880D01*
X63000Y-49847D01*
X62831Y-49880D01*
X62688Y-49976D01*
X62593Y-50119D01*
X62560Y-50287D01*
X62560Y-50712D01*
X62593Y-50880D01*
X62651Y-50967D01*
X62470Y-50967D01*
X62475Y-50962D01*
X62540Y-50760D01*
X62540Y-50560D01*
X62540Y-50440D01*
X62540Y-50240D01*
X62475Y-50037D01*
X62339Y-49875D01*
X62143Y-49779D01*
X62060Y-49823D01*
X62060Y-50440D01*
X62540Y-50440D01*
X62540Y-50560D01*
X62060Y-50560D01*
X62060Y-50567D01*
X61940Y-50567D01*
X61940Y-50560D01*
X61932Y-50560D01*
X61932Y-50440D01*
X61940Y-50440D01*
X61940Y-49823D01*
X61856Y-49779D01*
X61717Y-49847D01*
X61717Y-47177D01*
X62877Y-46017D01*
X62916Y-45959D01*
X62930Y-45890D01*
X62930Y-45843D01*
X62943Y-45829D01*
X62964Y-45777D01*
X62965Y-45722D01*
X62965Y-45638D01*
X63023Y-45726D01*
X63034Y-45733D01*
X63034Y-45777D01*
X63056Y-45829D01*
X63095Y-45868D01*
X63147Y-45889D01*
X63202Y-45890D01*
X63352Y-45890D01*
X63404Y-45868D01*
X63443Y-45829D01*
X63464Y-45777D01*
X63465Y-45733D01*
X63476Y-45726D01*
X63490Y-45705D01*
X63490Y-45862D01*
X62096Y-47255D01*
X62040Y-47339D01*
X62020Y-47439D01*
X62020Y-47479D01*
X62013Y-47486D01*
X61965Y-47602D01*
X61965Y-47727D01*
X62013Y-47843D01*
X62102Y-47931D01*
X62217Y-47979D01*
X62343Y-47980D01*
X62458Y-47932D01*
X62547Y-47843D01*
X62595Y-47727D01*
X62595Y-47602D01*
X62563Y-47524D01*
X63933Y-46153D01*
X63933Y-46153D01*
X63971Y-46097D01*
X63990Y-46069D01*
X63990Y-46069D01*
X64000Y-46020D01*
X64009Y-46069D01*
X64013Y-46075D01*
X64013Y-46108D01*
X64061Y-46224D01*
X64150Y-46313D01*
X64265Y-46361D01*
X64391Y-46361D01*
X64506Y-46313D01*
X64595Y-46225D01*
X64643Y-46109D01*
X64643Y-45990D01*
X64652Y-45990D01*
X64712Y-45930D01*
X64712Y-45560D01*
X64682Y-45560D01*
X64682Y-45440D01*
X64712Y-45440D01*
X64712Y-45432D01*
X64787Y-45432D01*
X64787Y-45440D01*
X64995Y-45440D01*
X65005Y-45440D01*
X65212Y-45440D01*
X65212Y-45432D01*
X65287Y-45432D01*
X65287Y-45440D01*
X65495Y-45440D01*
X65505Y-45440D01*
X65712Y-45440D01*
X65712Y-45432D01*
X65787Y-45432D01*
X65787Y-45440D01*
X65995Y-45440D01*
X66005Y-45440D01*
X66212Y-45440D01*
X66212Y-45432D01*
X66287Y-45432D01*
X66287Y-45440D01*
X66317Y-45440D01*
X66317Y-45560D01*
X66287Y-45560D01*
X66287Y-45930D01*
X66345Y-45988D01*
X66345Y-46111D01*
X66393Y-46227D01*
X66481Y-46315D01*
X66597Y-46363D01*
X66723Y-46363D01*
X66838Y-46316D01*
X66927Y-46227D01*
X66975Y-46111D01*
X66975Y-46091D01*
X66990Y-46069D01*
X66990Y-46076D01*
X67009Y-46175D01*
X67066Y-46260D01*
X67256Y-46451D01*
X67256Y-46460D01*
X67304Y-46576D01*
X67393Y-46665D01*
X67508Y-46713D01*
X67634Y-46713D01*
X67750Y-46665D01*
X67838Y-46577D01*
X67852Y-46543D01*
X67873Y-46594D01*
X67962Y-46683D01*
X68078Y-46731D01*
X68203Y-46731D01*
X68319Y-46683D01*
X68408Y-46595D01*
X68456Y-46479D01*
X68456Y-46354D01*
X68408Y-46238D01*
X68319Y-46149D01*
X68204Y-46101D01*
X68080Y-46101D01*
X67864Y-45885D01*
X67904Y-45868D01*
X67943Y-45829D01*
X67964Y-45777D01*
X67965Y-45722D01*
X67965Y-45222D01*
X67943Y-45170D01*
X67943Y-45170D01*
X68104Y-45010D01*
X68083Y-45040D01*
X68070Y-45109D01*
X68070Y-45156D01*
X68056Y-45170D01*
X68035Y-45222D01*
X68034Y-45277D01*
X68034Y-45777D01*
X68056Y-45829D01*
X68095Y-45868D01*
X68147Y-45889D01*
X68202Y-45890D01*
X68352Y-45890D01*
X68404Y-45868D01*
X68443Y-45829D01*
X68464Y-45777D01*
X68465Y-45722D01*
X68465Y-45222D01*
X68443Y-45170D01*
X68443Y-45170D01*
X68780Y-44833D01*
X68819Y-44775D01*
X68833Y-44706D01*
X68833Y-44706D01*
X68833Y-40675D01*
X68852Y-40656D01*
X68900Y-40540D01*
X68900Y-40415D01*
X68853Y-40299D01*
X68764Y-40210D01*
X68648Y-40162D01*
X68523Y-40162D01*
X68407Y-40210D01*
X68319Y-40299D01*
X68270Y-40414D01*
X68270Y-40540D01*
X68318Y-40656D01*
X68320Y-40658D01*
X68260Y-40658D01*
X68144Y-40705D01*
X68070Y-40780D01*
X68070Y-40346D01*
X68045Y-40223D01*
X67976Y-40120D01*
X67976Y-40120D01*
X67180Y-39324D01*
X67159Y-39310D01*
X67133Y-39284D01*
X67098Y-39269D01*
X67077Y-39255D01*
X67052Y-39250D01*
X67017Y-39236D01*
X66979Y-39236D01*
X66954Y-39231D01*
X66929Y-39236D01*
X66892Y-39235D01*
X66857Y-39250D01*
X66832Y-39255D01*
X66810Y-39269D01*
X66776Y-39283D01*
X66749Y-39310D01*
X66728Y-39324D01*
X66714Y-39345D01*
X66687Y-39372D01*
X66673Y-39407D01*
X66659Y-39428D01*
X66654Y-39453D01*
X66639Y-39488D01*
X66639Y-39525D01*
X66634Y-39551D01*
X66639Y-39576D01*
X66639Y-39613D01*
X66653Y-39648D01*
X66659Y-39673D01*
X66673Y-39694D01*
X66687Y-39729D01*
X66714Y-39755D01*
X66728Y-39777D01*
X67430Y-40478D01*
X67430Y-41157D01*
X67404Y-41131D01*
X67352Y-41110D01*
X67297Y-41109D01*
X67147Y-41109D01*
X67095Y-41131D01*
X67056Y-41170D01*
X67035Y-41222D01*
X67034Y-41277D01*
X67034Y-41362D01*
X67009Y-41400D01*
X67000Y-41449D01*
X66990Y-41400D01*
X66965Y-41362D01*
X66965Y-41222D01*
X66943Y-41170D01*
X66904Y-41131D01*
X66852Y-41110D01*
X66797Y-41109D01*
X66647Y-41109D01*
X66595Y-41131D01*
X66556Y-41170D01*
X66554Y-41175D01*
X66528Y-41113D01*
X66460Y-41046D01*
X66372Y-41009D01*
X66347Y-41010D01*
X66287Y-41070D01*
X66287Y-41440D01*
X66317Y-41440D01*
X66317Y-41560D01*
X66287Y-41560D01*
X66287Y-41930D01*
X66347Y-41990D01*
X66372Y-41990D01*
X66460Y-41953D01*
X66490Y-41924D01*
X66490Y-41970D01*
X66490Y-43558D01*
X66509Y-43657D01*
X66566Y-43742D01*
X66765Y-43941D01*
X66765Y-43951D01*
X66813Y-44067D01*
X66902Y-44155D01*
X66978Y-44187D01*
X66516Y-44649D01*
X66212Y-44649D01*
X66212Y-41930D01*
X66212Y-41560D01*
X66212Y-41440D01*
X66212Y-41070D01*
X66152Y-41010D01*
X66127Y-41009D01*
X66039Y-41046D01*
X66000Y-41085D01*
X65960Y-41046D01*
X65872Y-41009D01*
X65847Y-41010D01*
X65787Y-41070D01*
X65787Y-41440D01*
X65995Y-41440D01*
X66005Y-41440D01*
X66212Y-41440D01*
X66212Y-41560D01*
X66005Y-41560D01*
X65995Y-41560D01*
X65787Y-41560D01*
X65787Y-41930D01*
X65847Y-41990D01*
X65872Y-41990D01*
X65960Y-41953D01*
X66000Y-41914D01*
X66039Y-41953D01*
X66127Y-41990D01*
X66152Y-41990D01*
X66212Y-41930D01*
X66212Y-44649D01*
X65712Y-44649D01*
X65712Y-41930D01*
X65712Y-41560D01*
X65712Y-41440D01*
X65712Y-41070D01*
X65652Y-41010D01*
X65627Y-41009D01*
X65539Y-41046D01*
X65500Y-41085D01*
X65460Y-41046D01*
X65372Y-41009D01*
X65347Y-41010D01*
X65287Y-41070D01*
X65287Y-41440D01*
X65495Y-41440D01*
X65505Y-41440D01*
X65712Y-41440D01*
X65712Y-41560D01*
X65505Y-41560D01*
X65495Y-41560D01*
X65287Y-41560D01*
X65287Y-41930D01*
X65347Y-41990D01*
X65372Y-41990D01*
X65460Y-41953D01*
X65500Y-41914D01*
X65539Y-41953D01*
X65627Y-41990D01*
X65652Y-41990D01*
X65712Y-41930D01*
X65712Y-44649D01*
X65212Y-44649D01*
X65212Y-41930D01*
X65212Y-41560D01*
X65212Y-41440D01*
X65212Y-41070D01*
X65152Y-41010D01*
X65127Y-41009D01*
X65039Y-41046D01*
X65000Y-41085D01*
X64960Y-41046D01*
X64872Y-41009D01*
X64847Y-41010D01*
X64787Y-41070D01*
X64787Y-41440D01*
X64995Y-41440D01*
X65005Y-41440D01*
X65212Y-41440D01*
X65212Y-41560D01*
X65005Y-41560D01*
X64995Y-41560D01*
X64787Y-41560D01*
X64787Y-41930D01*
X64847Y-41990D01*
X64872Y-41990D01*
X64960Y-41953D01*
X65000Y-41914D01*
X65039Y-41953D01*
X65127Y-41990D01*
X65152Y-41990D01*
X65212Y-41930D01*
X65212Y-44649D01*
X63250Y-44649D01*
X62538Y-44649D01*
X62416Y-44674D01*
X62312Y-44743D01*
X59773Y-47282D01*
X59704Y-47385D01*
X59680Y-47508D01*
X59680Y-49989D01*
X59593Y-50119D01*
X59560Y-50287D01*
X59560Y-50712D01*
X59593Y-50880D01*
X59688Y-51023D01*
X59831Y-51119D01*
X60000Y-51152D01*
X60168Y-51119D01*
X60311Y-51023D01*
X60406Y-50880D01*
X60440Y-50712D01*
X60440Y-50287D01*
X60406Y-50119D01*
X60320Y-49989D01*
X60320Y-47640D01*
X62534Y-45425D01*
X62534Y-45777D01*
X62556Y-45829D01*
X62556Y-45829D01*
X61409Y-46975D01*
X61370Y-47034D01*
X61357Y-47103D01*
X61357Y-49896D01*
X61339Y-49875D01*
X61143Y-49779D01*
X61060Y-49823D01*
X61060Y-50440D01*
X61067Y-50440D01*
X61067Y-50560D01*
X61060Y-50560D01*
X61060Y-51176D01*
X61143Y-51220D01*
X61339Y-51124D01*
X61424Y-51022D01*
X61677Y-51275D01*
X61677Y-51275D01*
X61735Y-51314D01*
X61804Y-51327D01*
X63180Y-51327D01*
X63248Y-51314D01*
X63307Y-51275D01*
X64841Y-49741D01*
X82464Y-49741D01*
X82224Y-49981D01*
X82085Y-50317D01*
X82084Y-50681D01*
X82223Y-51017D01*
X82481Y-51275D01*
X82624Y-51335D01*
X81440Y-51335D01*
X81440Y-50712D01*
X81440Y-50287D01*
X81406Y-50119D01*
X81311Y-49976D01*
X81168Y-49880D01*
X81000Y-49847D01*
X80831Y-49880D01*
X80688Y-49976D01*
X80593Y-50119D01*
X80560Y-50287D01*
X80560Y-50712D01*
X80593Y-50880D01*
X80688Y-51023D01*
X80831Y-51119D01*
X81000Y-51152D01*
X81168Y-51119D01*
X81311Y-51023D01*
X81406Y-50880D01*
X81440Y-50712D01*
X81440Y-51335D01*
X80440Y-51335D01*
X80440Y-50712D01*
X80440Y-50287D01*
X80406Y-50119D01*
X80311Y-49976D01*
X80168Y-49880D01*
X80000Y-49847D01*
X79831Y-49880D01*
X79688Y-49976D01*
X79593Y-50119D01*
X79560Y-50287D01*
X79560Y-50712D01*
X79593Y-50880D01*
X79688Y-51023D01*
X79831Y-51119D01*
X80000Y-51152D01*
X80168Y-51119D01*
X80311Y-51023D01*
X80406Y-50880D01*
X80440Y-50712D01*
X80440Y-51335D01*
X79440Y-51335D01*
X79440Y-50712D01*
X79440Y-50287D01*
X79406Y-50119D01*
X79311Y-49976D01*
X79168Y-49880D01*
X79000Y-49847D01*
X78831Y-49880D01*
X78688Y-49976D01*
X78593Y-50119D01*
X78560Y-50287D01*
X78560Y-50712D01*
X78593Y-50880D01*
X78688Y-51023D01*
X78831Y-51119D01*
X79000Y-51152D01*
X79168Y-51119D01*
X79311Y-51023D01*
X79406Y-50880D01*
X79440Y-50712D01*
X79440Y-51335D01*
X78440Y-51335D01*
X78440Y-50712D01*
X78440Y-50287D01*
X78406Y-50119D01*
X78311Y-49976D01*
X78168Y-49880D01*
X78000Y-49847D01*
X77831Y-49880D01*
X77688Y-49976D01*
X77593Y-50119D01*
X77560Y-50287D01*
X77560Y-50712D01*
X77593Y-50880D01*
X77688Y-51023D01*
X77831Y-51119D01*
X78000Y-51152D01*
X78168Y-51119D01*
X78311Y-51023D01*
X78406Y-50880D01*
X78440Y-50712D01*
X78440Y-51335D01*
X77440Y-51335D01*
X77440Y-50712D01*
X77440Y-50287D01*
X77406Y-50119D01*
X77311Y-49976D01*
X77168Y-49880D01*
X77000Y-49847D01*
X76831Y-49880D01*
X76688Y-49976D01*
X76593Y-50119D01*
X76560Y-50287D01*
X76560Y-50712D01*
X76593Y-50880D01*
X76688Y-51023D01*
X76831Y-51119D01*
X77000Y-51152D01*
X77168Y-51119D01*
X77311Y-51023D01*
X77406Y-50880D01*
X77440Y-50712D01*
X77440Y-51335D01*
X76440Y-51335D01*
X76440Y-50712D01*
X76440Y-50287D01*
X76406Y-50119D01*
X76311Y-49976D01*
X76168Y-49880D01*
X76000Y-49847D01*
X75831Y-49880D01*
X75688Y-49976D01*
X75593Y-50119D01*
X75560Y-50287D01*
X75560Y-50712D01*
X75593Y-50880D01*
X75688Y-51023D01*
X75831Y-51119D01*
X76000Y-51152D01*
X76168Y-51119D01*
X76311Y-51023D01*
X76406Y-50880D01*
X76440Y-50712D01*
X76440Y-51335D01*
X75440Y-51335D01*
X75440Y-50712D01*
X75440Y-50287D01*
X75406Y-50119D01*
X75311Y-49976D01*
X75168Y-49880D01*
X75000Y-49847D01*
X74831Y-49880D01*
X74688Y-49976D01*
X74593Y-50119D01*
X74560Y-50287D01*
X74560Y-50712D01*
X74593Y-50880D01*
X74688Y-51023D01*
X74831Y-51119D01*
X75000Y-51152D01*
X75168Y-51119D01*
X75311Y-51023D01*
X75406Y-50880D01*
X75440Y-50712D01*
X75440Y-51335D01*
X74440Y-51335D01*
X74440Y-50712D01*
X74440Y-50287D01*
X74406Y-50119D01*
X74311Y-49976D01*
X74168Y-49880D01*
X74000Y-49847D01*
X73831Y-49880D01*
X73688Y-49976D01*
X73593Y-50119D01*
X73560Y-50287D01*
X73560Y-50712D01*
X73593Y-50880D01*
X73688Y-51023D01*
X73831Y-51119D01*
X74000Y-51152D01*
X74168Y-51119D01*
X74311Y-51023D01*
X74406Y-50880D01*
X74440Y-50712D01*
X74440Y-51335D01*
X72440Y-51335D01*
X72440Y-50712D01*
X72440Y-50287D01*
X72406Y-50119D01*
X72311Y-49976D01*
X72168Y-49880D01*
X72000Y-49847D01*
X71831Y-49880D01*
X71688Y-49976D01*
X71593Y-50119D01*
X71560Y-50287D01*
X71560Y-50712D01*
X71593Y-50880D01*
X71688Y-51023D01*
X71831Y-51119D01*
X72000Y-51152D01*
X72168Y-51119D01*
X72311Y-51023D01*
X72406Y-50880D01*
X72440Y-50712D01*
X72440Y-51335D01*
X71440Y-51335D01*
X71440Y-50712D01*
X71440Y-50287D01*
X71406Y-50119D01*
X71311Y-49976D01*
X71168Y-49880D01*
X71000Y-49847D01*
X70831Y-49880D01*
X70688Y-49976D01*
X70593Y-50119D01*
X70560Y-50287D01*
X70560Y-50712D01*
X70593Y-50880D01*
X70688Y-51023D01*
X70831Y-51119D01*
X71000Y-51152D01*
X71168Y-51119D01*
X71311Y-51023D01*
X71406Y-50880D01*
X71440Y-50712D01*
X71440Y-51335D01*
X70440Y-51335D01*
X70440Y-50712D01*
X70440Y-50287D01*
X70406Y-50119D01*
X70311Y-49976D01*
X70168Y-49880D01*
X70000Y-49847D01*
X69831Y-49880D01*
X69688Y-49976D01*
X69593Y-50119D01*
X69560Y-50287D01*
X69560Y-50712D01*
X69593Y-50880D01*
X69688Y-51023D01*
X69831Y-51119D01*
X70000Y-51152D01*
X70168Y-51119D01*
X70311Y-51023D01*
X70406Y-50880D01*
X70440Y-50712D01*
X70440Y-51335D01*
X69440Y-51335D01*
X69440Y-50712D01*
X69440Y-50287D01*
X69406Y-50119D01*
X69311Y-49976D01*
X69168Y-49880D01*
X69000Y-49847D01*
X68831Y-49880D01*
X68688Y-49976D01*
X68593Y-50119D01*
X68560Y-50287D01*
X68560Y-50712D01*
X68593Y-50880D01*
X68688Y-51023D01*
X68831Y-51119D01*
X69000Y-51152D01*
X69168Y-51119D01*
X69311Y-51023D01*
X69406Y-50880D01*
X69440Y-50712D01*
X69440Y-51335D01*
X68440Y-51335D01*
X68440Y-50712D01*
X68440Y-50287D01*
X68406Y-50119D01*
X68311Y-49976D01*
X68168Y-49880D01*
X68000Y-49847D01*
X67831Y-49880D01*
X67688Y-49976D01*
X67593Y-50119D01*
X67560Y-50287D01*
X67560Y-50712D01*
X67593Y-50880D01*
X67688Y-51023D01*
X67831Y-51119D01*
X68000Y-51152D01*
X68168Y-51119D01*
X68311Y-51023D01*
X68406Y-50880D01*
X68440Y-50712D01*
X68440Y-51335D01*
X67440Y-51335D01*
X67440Y-50712D01*
X67440Y-50287D01*
X67406Y-50119D01*
X67311Y-49976D01*
X67168Y-49880D01*
X67000Y-49847D01*
X66831Y-49880D01*
X66688Y-49976D01*
X66593Y-50119D01*
X66560Y-50287D01*
X66560Y-50712D01*
X66593Y-50880D01*
X66688Y-51023D01*
X66831Y-51119D01*
X67000Y-51152D01*
X67168Y-51119D01*
X67311Y-51023D01*
X67406Y-50880D01*
X67440Y-50712D01*
X67440Y-51335D01*
X66440Y-51335D01*
X66440Y-50712D01*
X66440Y-50287D01*
X66406Y-50119D01*
X66311Y-49976D01*
X66168Y-49880D01*
X66000Y-49847D01*
X65831Y-49880D01*
X65688Y-49976D01*
X65593Y-50119D01*
X65560Y-50287D01*
X65560Y-50712D01*
X65593Y-50880D01*
X65688Y-51023D01*
X65831Y-51119D01*
X66000Y-51152D01*
X66168Y-51119D01*
X66311Y-51023D01*
X66406Y-50880D01*
X66440Y-50712D01*
X66440Y-51335D01*
X65440Y-51335D01*
X65440Y-50712D01*
X65440Y-50287D01*
X65406Y-50119D01*
X65311Y-49976D01*
X65168Y-49880D01*
X65000Y-49847D01*
X64831Y-49880D01*
X64688Y-49976D01*
X64593Y-50119D01*
X64560Y-50287D01*
X64560Y-50712D01*
X64593Y-50880D01*
X64688Y-51023D01*
X64831Y-51119D01*
X65000Y-51152D01*
X65168Y-51119D01*
X65311Y-51023D01*
X65406Y-50880D01*
X65440Y-50712D01*
X65440Y-51335D01*
X60940Y-51335D01*
X60940Y-51176D01*
X60940Y-50560D01*
X60940Y-50440D01*
X60940Y-49823D01*
X60856Y-49779D01*
X60660Y-49875D01*
X60524Y-50037D01*
X60460Y-50240D01*
X60460Y-50440D01*
X60940Y-50440D01*
X60940Y-50560D01*
X60460Y-50560D01*
X60460Y-50760D01*
X60524Y-50962D01*
X60660Y-51124D01*
X60856Y-51220D01*
X60940Y-51176D01*
X60940Y-51335D01*
X59440Y-51335D01*
X59440Y-50712D01*
X59440Y-50287D01*
X59406Y-50119D01*
X59311Y-49976D01*
X59168Y-49880D01*
X59000Y-49847D01*
X58831Y-49880D01*
X58688Y-49976D01*
X58593Y-50119D01*
X58560Y-50287D01*
X58560Y-50712D01*
X58593Y-50880D01*
X58688Y-51023D01*
X58831Y-51119D01*
X59000Y-51152D01*
X59168Y-51119D01*
X59311Y-51023D01*
X59406Y-50880D01*
X59440Y-50712D01*
X59440Y-51335D01*
X58440Y-51335D01*
X58440Y-50712D01*
X58440Y-50287D01*
X58406Y-50119D01*
X58311Y-49976D01*
X58168Y-49880D01*
X58000Y-49847D01*
X57831Y-49880D01*
X57688Y-49976D01*
X57593Y-50119D01*
X57560Y-50287D01*
X57560Y-50712D01*
X57593Y-50880D01*
X57688Y-51023D01*
X57831Y-51119D01*
X58000Y-51152D01*
X58168Y-51119D01*
X58311Y-51023D01*
X58406Y-50880D01*
X58440Y-50712D01*
X58440Y-51335D01*
X57440Y-51335D01*
X57440Y-50712D01*
X57440Y-50287D01*
X57406Y-50119D01*
X57311Y-49976D01*
X57168Y-49880D01*
X57000Y-49847D01*
X56831Y-49880D01*
X56688Y-49976D01*
X56593Y-50119D01*
X56560Y-50287D01*
X56560Y-50712D01*
X56593Y-50880D01*
X56688Y-51023D01*
X56831Y-51119D01*
X57000Y-51152D01*
X57168Y-51119D01*
X57311Y-51023D01*
X57406Y-50880D01*
X57440Y-50712D01*
X57440Y-51335D01*
X56440Y-51335D01*
X56440Y-50712D01*
X56440Y-50287D01*
X56406Y-50119D01*
X56311Y-49976D01*
X56168Y-49880D01*
X56000Y-49847D01*
X55831Y-49880D01*
X55688Y-49976D01*
X55593Y-50119D01*
X55560Y-50287D01*
X55560Y-50712D01*
X55593Y-50880D01*
X55688Y-51023D01*
X55831Y-51119D01*
X56000Y-51152D01*
X56168Y-51119D01*
X56311Y-51023D01*
X56406Y-50880D01*
X56440Y-50712D01*
X56440Y-51335D01*
X53440Y-51335D01*
X53440Y-48612D01*
X53440Y-47612D01*
X53373Y-47451D01*
X53249Y-47327D01*
X53087Y-47260D01*
X52912Y-47259D01*
X52751Y-47326D01*
X52627Y-47450D01*
X52560Y-47612D01*
X52559Y-47787D01*
X52626Y-47948D01*
X52750Y-48072D01*
X52912Y-48139D01*
X53087Y-48140D01*
X53248Y-48073D01*
X53372Y-47949D01*
X53439Y-47787D01*
X53440Y-47612D01*
X53440Y-48612D01*
X53373Y-48451D01*
X53249Y-48327D01*
X53087Y-48260D01*
X52912Y-48259D01*
X52751Y-48326D01*
X52627Y-48450D01*
X52560Y-48612D01*
X52559Y-48787D01*
X52626Y-48948D01*
X52750Y-49072D01*
X52912Y-49139D01*
X53087Y-49140D01*
X53248Y-49073D01*
X53372Y-48949D01*
X53439Y-48787D01*
X53440Y-48612D01*
X53440Y-51335D01*
X50875Y-51335D01*
X51017Y-51276D01*
X51275Y-51018D01*
X51414Y-50682D01*
X51415Y-50318D01*
X51276Y-49982D01*
X51018Y-49724D01*
X50996Y-49715D01*
X50996Y-47319D01*
X50996Y-46319D01*
X50981Y-46105D01*
X50928Y-45976D01*
X50890Y-45964D01*
X50890Y-45162D01*
X50823Y-45001D01*
X50770Y-44947D01*
X50770Y-44552D01*
X50822Y-44499D01*
X50889Y-44337D01*
X50890Y-44162D01*
X50823Y-44001D01*
X50699Y-43877D01*
X50537Y-43810D01*
X50362Y-43809D01*
X50288Y-43840D01*
X49440Y-43840D01*
X49440Y-37662D01*
X49440Y-36662D01*
X49440Y-35662D01*
X49373Y-35501D01*
X49249Y-35377D01*
X49087Y-35310D01*
X48912Y-35309D01*
X48751Y-35376D01*
X48627Y-35500D01*
X48560Y-35662D01*
X48559Y-35837D01*
X48626Y-35998D01*
X48750Y-36122D01*
X48912Y-36189D01*
X49087Y-36190D01*
X49248Y-36123D01*
X49372Y-35999D01*
X49439Y-35837D01*
X49440Y-35662D01*
X49440Y-36662D01*
X49373Y-36501D01*
X49249Y-36377D01*
X49087Y-36310D01*
X48912Y-36309D01*
X48751Y-36376D01*
X48627Y-36500D01*
X48560Y-36662D01*
X48559Y-36837D01*
X48626Y-36998D01*
X48750Y-37122D01*
X48912Y-37189D01*
X49087Y-37190D01*
X49248Y-37123D01*
X49372Y-36999D01*
X49439Y-36837D01*
X49440Y-36662D01*
X49440Y-37662D01*
X49373Y-37501D01*
X49249Y-37377D01*
X49087Y-37310D01*
X48912Y-37309D01*
X48751Y-37376D01*
X48627Y-37500D01*
X48560Y-37662D01*
X48559Y-37837D01*
X48626Y-37998D01*
X48750Y-38122D01*
X48912Y-38189D01*
X49087Y-38190D01*
X49248Y-38123D01*
X49372Y-37999D01*
X49439Y-37837D01*
X49440Y-37662D01*
X49440Y-43840D01*
X48546Y-43840D01*
X48546Y-37319D01*
X48546Y-36319D01*
X48531Y-36105D01*
X48478Y-35976D01*
X48386Y-35948D01*
X48301Y-36032D01*
X48301Y-35863D01*
X48273Y-35771D01*
X48069Y-35703D01*
X47855Y-35718D01*
X47726Y-35771D01*
X47698Y-35863D01*
X48000Y-36165D01*
X48301Y-35863D01*
X48301Y-36032D01*
X48084Y-36250D01*
X48386Y-36551D01*
X48478Y-36523D01*
X48546Y-36319D01*
X48546Y-37319D01*
X48531Y-37105D01*
X48478Y-36976D01*
X48386Y-36948D01*
X48301Y-37032D01*
X48301Y-36863D01*
X48273Y-36771D01*
X48214Y-36752D01*
X48273Y-36728D01*
X48301Y-36636D01*
X48000Y-36334D01*
X47915Y-36419D01*
X47915Y-36250D01*
X47613Y-35948D01*
X47521Y-35976D01*
X47453Y-36180D01*
X47468Y-36394D01*
X47521Y-36523D01*
X47613Y-36551D01*
X47915Y-36250D01*
X47915Y-36419D01*
X47698Y-36636D01*
X47726Y-36728D01*
X47785Y-36747D01*
X47726Y-36771D01*
X47698Y-36863D01*
X48000Y-37165D01*
X48301Y-36863D01*
X48301Y-37032D01*
X48084Y-37250D01*
X48386Y-37551D01*
X48478Y-37523D01*
X48546Y-37319D01*
X48546Y-43840D01*
X48301Y-43840D01*
X48301Y-37636D01*
X48000Y-37334D01*
X47915Y-37419D01*
X47915Y-37250D01*
X47613Y-36948D01*
X47521Y-36976D01*
X47453Y-37180D01*
X47468Y-37394D01*
X47521Y-37523D01*
X47613Y-37551D01*
X47915Y-37250D01*
X47915Y-37419D01*
X47698Y-37636D01*
X47726Y-37728D01*
X47930Y-37796D01*
X48144Y-37781D01*
X48273Y-37728D01*
X48301Y-37636D01*
X48301Y-43840D01*
X48161Y-43840D01*
X48087Y-43810D01*
X47912Y-43809D01*
X47751Y-43876D01*
X47627Y-44000D01*
X47560Y-44162D01*
X47559Y-44337D01*
X47626Y-44498D01*
X47680Y-44552D01*
X47680Y-44947D01*
X47627Y-45000D01*
X47560Y-45162D01*
X47559Y-45337D01*
X47626Y-45498D01*
X47750Y-45622D01*
X47912Y-45689D01*
X48087Y-45690D01*
X48248Y-45623D01*
X48372Y-45499D01*
X48439Y-45337D01*
X48440Y-45162D01*
X48373Y-45001D01*
X48320Y-44947D01*
X48320Y-44552D01*
X48372Y-44499D01*
X48380Y-44480D01*
X48646Y-44480D01*
X48627Y-44500D01*
X48560Y-44662D01*
X48559Y-44837D01*
X48626Y-44998D01*
X48750Y-45122D01*
X48912Y-45189D01*
X49072Y-45190D01*
X49437Y-45554D01*
X49437Y-45656D01*
X49373Y-45501D01*
X49249Y-45377D01*
X49087Y-45310D01*
X48912Y-45309D01*
X48751Y-45376D01*
X48627Y-45500D01*
X48560Y-45662D01*
X48559Y-45837D01*
X48626Y-45998D01*
X48750Y-46122D01*
X48912Y-46189D01*
X49087Y-46190D01*
X49248Y-46123D01*
X49372Y-45999D01*
X49437Y-45844D01*
X49437Y-46656D01*
X49373Y-46501D01*
X49249Y-46377D01*
X49087Y-46310D01*
X48912Y-46309D01*
X48751Y-46376D01*
X48627Y-46500D01*
X48560Y-46662D01*
X48559Y-46837D01*
X48626Y-46998D01*
X48750Y-47122D01*
X48912Y-47189D01*
X49087Y-47190D01*
X49248Y-47123D01*
X49372Y-46999D01*
X49437Y-46844D01*
X49437Y-46964D01*
X49430Y-46971D01*
X49382Y-47087D01*
X49382Y-47212D01*
X49430Y-47328D01*
X49518Y-47417D01*
X49634Y-47465D01*
X49759Y-47465D01*
X49875Y-47417D01*
X49917Y-47375D01*
X49918Y-47394D01*
X49971Y-47523D01*
X50063Y-47551D01*
X50365Y-47250D01*
X50063Y-46948D01*
X49971Y-46976D01*
X49969Y-46984D01*
X49964Y-46972D01*
X49957Y-46964D01*
X49957Y-46487D01*
X49971Y-46523D01*
X50063Y-46551D01*
X50365Y-46250D01*
X50063Y-45948D01*
X49971Y-45976D01*
X49957Y-46020D01*
X49957Y-45447D01*
X49937Y-45347D01*
X49881Y-45263D01*
X49439Y-44822D01*
X49440Y-44662D01*
X49373Y-44501D01*
X49352Y-44480D01*
X50069Y-44480D01*
X50076Y-44498D01*
X50130Y-44552D01*
X50130Y-44947D01*
X50077Y-45000D01*
X50010Y-45162D01*
X50009Y-45337D01*
X50076Y-45498D01*
X50200Y-45622D01*
X50362Y-45689D01*
X50537Y-45690D01*
X50698Y-45623D01*
X50822Y-45499D01*
X50889Y-45337D01*
X50890Y-45162D01*
X50890Y-45964D01*
X50836Y-45948D01*
X50751Y-46032D01*
X50751Y-45863D01*
X50723Y-45771D01*
X50519Y-45703D01*
X50305Y-45718D01*
X50176Y-45771D01*
X50148Y-45863D01*
X50450Y-46165D01*
X50751Y-45863D01*
X50751Y-46032D01*
X50534Y-46250D01*
X50836Y-46551D01*
X50928Y-46523D01*
X50996Y-46319D01*
X50996Y-47319D01*
X50981Y-47105D01*
X50928Y-46976D01*
X50836Y-46948D01*
X50751Y-47032D01*
X50751Y-46863D01*
X50723Y-46771D01*
X50664Y-46752D01*
X50723Y-46728D01*
X50751Y-46636D01*
X50450Y-46334D01*
X50148Y-46636D01*
X50176Y-46728D01*
X50235Y-46747D01*
X50176Y-46771D01*
X50148Y-46863D01*
X50450Y-47165D01*
X50751Y-46863D01*
X50751Y-47032D01*
X50534Y-47250D01*
X50836Y-47551D01*
X50928Y-47523D01*
X50996Y-47319D01*
X50996Y-49715D01*
X50751Y-49613D01*
X50751Y-47636D01*
X50450Y-47334D01*
X50148Y-47636D01*
X50176Y-47728D01*
X50380Y-47796D01*
X50594Y-47781D01*
X50723Y-47728D01*
X50751Y-47636D01*
X50751Y-49613D01*
X50682Y-49585D01*
X50318Y-49584D01*
X49982Y-49723D01*
X49724Y-49981D01*
X49585Y-50317D01*
X49584Y-50681D01*
X49723Y-51017D01*
X49981Y-51275D01*
X50124Y-51335D01*
X49440Y-51335D01*
X49440Y-47662D01*
X49373Y-47501D01*
X49249Y-47377D01*
X49087Y-47310D01*
X48912Y-47309D01*
X48751Y-47376D01*
X48627Y-47500D01*
X48560Y-47662D01*
X48559Y-47837D01*
X48626Y-47998D01*
X48750Y-48122D01*
X48912Y-48189D01*
X49087Y-48190D01*
X49248Y-48123D01*
X49372Y-47999D01*
X49439Y-47837D01*
X49440Y-47662D01*
X49440Y-51335D01*
X48546Y-51335D01*
X48546Y-47319D01*
X48546Y-46319D01*
X48531Y-46105D01*
X48478Y-45976D01*
X48386Y-45948D01*
X48301Y-46032D01*
X48301Y-45863D01*
X48273Y-45771D01*
X48069Y-45703D01*
X47855Y-45718D01*
X47726Y-45771D01*
X47698Y-45863D01*
X48000Y-46165D01*
X48301Y-45863D01*
X48301Y-46032D01*
X48084Y-46250D01*
X48386Y-46551D01*
X48478Y-46523D01*
X48546Y-46319D01*
X48546Y-47319D01*
X48531Y-47105D01*
X48478Y-46976D01*
X48386Y-46948D01*
X48301Y-47032D01*
X48301Y-46863D01*
X48273Y-46771D01*
X48214Y-46752D01*
X48273Y-46728D01*
X48301Y-46636D01*
X48000Y-46334D01*
X47915Y-46419D01*
X47915Y-46250D01*
X47613Y-45948D01*
X47521Y-45976D01*
X47453Y-46180D01*
X47468Y-46394D01*
X47521Y-46523D01*
X47613Y-46551D01*
X47915Y-46250D01*
X47915Y-46419D01*
X47698Y-46636D01*
X47726Y-46728D01*
X47785Y-46747D01*
X47726Y-46771D01*
X47698Y-46863D01*
X48000Y-47165D01*
X48301Y-46863D01*
X48301Y-47032D01*
X48084Y-47250D01*
X48386Y-47551D01*
X48478Y-47523D01*
X48546Y-47319D01*
X48546Y-51335D01*
X48301Y-51335D01*
X48301Y-47636D01*
X48000Y-47334D01*
X47915Y-47419D01*
X47915Y-47250D01*
X47613Y-46948D01*
X47521Y-46976D01*
X47453Y-47180D01*
X47468Y-47394D01*
X47521Y-47523D01*
X47613Y-47551D01*
X47915Y-47250D01*
X47915Y-47419D01*
X47698Y-47636D01*
X47726Y-47728D01*
X47930Y-47796D01*
X48144Y-47781D01*
X48273Y-47728D01*
X48301Y-47636D01*
X48301Y-51335D01*
X46840Y-51335D01*
X46840Y-48612D01*
X46840Y-47612D01*
X46840Y-44212D01*
X46840Y-43212D01*
X46840Y-38612D01*
X46840Y-37612D01*
X46840Y-34212D01*
X46840Y-33212D01*
X46773Y-33051D01*
X46649Y-32927D01*
X46487Y-32860D01*
X46312Y-32859D01*
X46151Y-32926D01*
X46027Y-33050D01*
X45960Y-33212D01*
X45959Y-33387D01*
X46026Y-33548D01*
X46150Y-33672D01*
X46312Y-33739D01*
X46487Y-33740D01*
X46648Y-33673D01*
X46772Y-33549D01*
X46839Y-33387D01*
X46840Y-33212D01*
X46840Y-34212D01*
X46773Y-34051D01*
X46649Y-33927D01*
X46487Y-33860D01*
X46312Y-33859D01*
X46151Y-33926D01*
X46027Y-34050D01*
X45960Y-34212D01*
X45959Y-34387D01*
X46026Y-34548D01*
X46150Y-34672D01*
X46312Y-34739D01*
X46487Y-34740D01*
X46648Y-34673D01*
X46772Y-34549D01*
X46839Y-34387D01*
X46840Y-34212D01*
X46840Y-37612D01*
X46773Y-37451D01*
X46649Y-37327D01*
X46487Y-37260D01*
X46312Y-37259D01*
X46151Y-37326D01*
X46027Y-37450D01*
X45960Y-37612D01*
X45959Y-37787D01*
X46026Y-37948D01*
X46150Y-38072D01*
X46312Y-38139D01*
X46487Y-38140D01*
X46648Y-38073D01*
X46772Y-37949D01*
X46839Y-37787D01*
X46840Y-37612D01*
X46840Y-38612D01*
X46773Y-38451D01*
X46649Y-38327D01*
X46487Y-38260D01*
X46312Y-38259D01*
X46151Y-38326D01*
X46027Y-38450D01*
X45960Y-38612D01*
X45959Y-38787D01*
X46026Y-38948D01*
X46150Y-39072D01*
X46312Y-39139D01*
X46487Y-39140D01*
X46648Y-39073D01*
X46772Y-38949D01*
X46839Y-38787D01*
X46840Y-38612D01*
X46840Y-43212D01*
X46773Y-43051D01*
X46649Y-42927D01*
X46487Y-42860D01*
X46312Y-42859D01*
X46151Y-42926D01*
X46027Y-43050D01*
X45960Y-43212D01*
X45959Y-43387D01*
X46026Y-43548D01*
X46150Y-43672D01*
X46312Y-43739D01*
X46487Y-43740D01*
X46648Y-43673D01*
X46772Y-43549D01*
X46839Y-43387D01*
X46840Y-43212D01*
X46840Y-44212D01*
X46773Y-44051D01*
X46649Y-43927D01*
X46487Y-43860D01*
X46312Y-43859D01*
X46151Y-43926D01*
X46027Y-44050D01*
X45960Y-44212D01*
X45959Y-44387D01*
X46026Y-44548D01*
X46150Y-44672D01*
X46312Y-44739D01*
X46487Y-44740D01*
X46648Y-44673D01*
X46772Y-44549D01*
X46839Y-44387D01*
X46840Y-44212D01*
X46840Y-47612D01*
X46773Y-47451D01*
X46649Y-47327D01*
X46487Y-47260D01*
X46312Y-47259D01*
X46151Y-47326D01*
X46027Y-47450D01*
X45960Y-47612D01*
X45959Y-47787D01*
X46026Y-47948D01*
X46150Y-48072D01*
X46312Y-48139D01*
X46487Y-48140D01*
X46648Y-48073D01*
X46772Y-47949D01*
X46839Y-47787D01*
X46840Y-47612D01*
X46840Y-48612D01*
X46773Y-48451D01*
X46649Y-48327D01*
X46487Y-48260D01*
X46312Y-48259D01*
X46151Y-48326D01*
X46027Y-48450D01*
X45960Y-48612D01*
X45959Y-48787D01*
X46026Y-48948D01*
X46150Y-49072D01*
X46312Y-49139D01*
X46487Y-49140D01*
X46648Y-49073D01*
X46772Y-48949D01*
X46839Y-48787D01*
X46840Y-48612D01*
X46840Y-51335D01*
X45640Y-51335D01*
X45640Y-48323D01*
X45640Y-43323D01*
X45640Y-38323D01*
X45640Y-33323D01*
X45504Y-32996D01*
X45254Y-32745D01*
X44927Y-32610D01*
X44573Y-32609D01*
X44246Y-32745D01*
X43995Y-32995D01*
X43860Y-33322D01*
X43859Y-33676D01*
X43995Y-34003D01*
X44245Y-34254D01*
X44572Y-34389D01*
X44926Y-34390D01*
X45253Y-34254D01*
X45504Y-34004D01*
X45639Y-33677D01*
X45640Y-33323D01*
X45640Y-38323D01*
X45504Y-37996D01*
X45254Y-37745D01*
X44927Y-37610D01*
X44573Y-37609D01*
X44246Y-37745D01*
X43995Y-37995D01*
X43860Y-38322D01*
X43859Y-38676D01*
X43995Y-39003D01*
X44245Y-39254D01*
X44572Y-39389D01*
X44926Y-39390D01*
X45253Y-39254D01*
X45504Y-39004D01*
X45639Y-38677D01*
X45640Y-38323D01*
X45640Y-43323D01*
X45504Y-42996D01*
X45254Y-42745D01*
X44927Y-42610D01*
X44573Y-42609D01*
X44246Y-42745D01*
X43995Y-42995D01*
X43860Y-43322D01*
X43859Y-43676D01*
X43995Y-44003D01*
X44245Y-44254D01*
X44572Y-44389D01*
X44926Y-44390D01*
X45253Y-44254D01*
X45504Y-44004D01*
X45639Y-43677D01*
X45640Y-43323D01*
X45640Y-48323D01*
X45504Y-47996D01*
X45254Y-47745D01*
X44927Y-47610D01*
X44573Y-47609D01*
X44246Y-47745D01*
X43995Y-47995D01*
X43860Y-48322D01*
X43859Y-48676D01*
X43995Y-49003D01*
X44245Y-49254D01*
X44572Y-49389D01*
X44926Y-49390D01*
X45253Y-49254D01*
X45504Y-49004D01*
X45639Y-48677D01*
X45640Y-48323D01*
X45640Y-51335D01*
X43665Y-51335D01*
X43665Y-30665D01*
X50624Y-30665D01*
X50482Y-30723D01*
X50224Y-30981D01*
X50085Y-31317D01*
X50084Y-31681D01*
X50223Y-32017D01*
X50481Y-32275D01*
X50817Y-32414D01*
X51181Y-32415D01*
X51517Y-32276D01*
X51775Y-32018D01*
X51914Y-31682D01*
X51915Y-31318D01*
X51776Y-30982D01*
X51518Y-30724D01*
X51375Y-30665D01*
X80124Y-30665D01*
X79982Y-30723D01*
X79724Y-30981D01*
X79585Y-31317D01*
X79584Y-31681D01*
X79723Y-32017D01*
X79981Y-32275D01*
X80317Y-32414D01*
X80681Y-32415D01*
X81017Y-32276D01*
X81275Y-32018D01*
X81414Y-31682D01*
X81415Y-31318D01*
X81276Y-30982D01*
X81018Y-30724D01*
X80875Y-30665D01*
X89335Y-30665D01*
X89335Y-51335D01*
X89335Y-51335D01*
G37*
G54D24*
X89335Y-51335D02*
X88840Y-51335D01*
X88840Y-40897D01*
X88761Y-40705D01*
X88614Y-40559D01*
X88423Y-40480D01*
X88370Y-40480D01*
X88370Y-39063D01*
X88242Y-38754D01*
X88006Y-38518D01*
X87697Y-38390D01*
X87363Y-38389D01*
X87054Y-38517D01*
X86818Y-38753D01*
X86690Y-39062D01*
X86689Y-39396D01*
X86817Y-39705D01*
X87053Y-39941D01*
X87362Y-40069D01*
X87696Y-40070D01*
X88005Y-39942D01*
X88241Y-39706D01*
X88369Y-39397D01*
X88370Y-39063D01*
X88370Y-40480D01*
X88217Y-40479D01*
X88025Y-40558D01*
X87992Y-40591D01*
X87949Y-40486D01*
X87816Y-40408D01*
X87731Y-40493D01*
X87731Y-40323D01*
X87653Y-40190D01*
X87304Y-40055D01*
X86931Y-40064D01*
X86626Y-40190D01*
X86548Y-40323D01*
X87140Y-40915D01*
X87731Y-40323D01*
X87731Y-40493D01*
X87224Y-41000D01*
X87816Y-41591D01*
X87949Y-41513D01*
X87990Y-41406D01*
X88025Y-41440D01*
X88216Y-41519D01*
X88422Y-41520D01*
X88614Y-41441D01*
X88760Y-41294D01*
X88839Y-41103D01*
X88840Y-40897D01*
X88840Y-51335D01*
X88370Y-51335D01*
X88370Y-42603D01*
X88242Y-42294D01*
X88006Y-42058D01*
X87731Y-41944D01*
X87731Y-41676D01*
X87140Y-41084D01*
X87055Y-41169D01*
X87055Y-41000D01*
X86463Y-40408D01*
X86330Y-40486D01*
X86195Y-40835D01*
X86204Y-41208D01*
X86330Y-41513D01*
X86463Y-41591D01*
X87055Y-41000D01*
X87055Y-41169D01*
X86548Y-41676D01*
X86626Y-41809D01*
X86975Y-41944D01*
X87348Y-41935D01*
X87653Y-41809D01*
X87731Y-41676D01*
X87731Y-41944D01*
X87697Y-41930D01*
X87363Y-41929D01*
X87054Y-42057D01*
X86818Y-42293D01*
X86690Y-42602D01*
X86689Y-42936D01*
X86817Y-43245D01*
X87053Y-43481D01*
X87362Y-43609D01*
X87696Y-43610D01*
X88005Y-43482D01*
X88241Y-43246D01*
X88369Y-42937D01*
X88370Y-42603D01*
X88370Y-51335D01*
X86340Y-51335D01*
X86340Y-43702D01*
X86340Y-42797D01*
X86339Y-42702D01*
X86303Y-42613D01*
X86235Y-42546D01*
X86147Y-42509D01*
X85970Y-42510D01*
X85910Y-42570D01*
X85910Y-43190D01*
X86280Y-43190D01*
X86340Y-43130D01*
X86340Y-42797D01*
X86340Y-43702D01*
X86340Y-43370D01*
X86280Y-43310D01*
X85910Y-43310D01*
X85910Y-43930D01*
X85970Y-43990D01*
X86147Y-43990D01*
X86235Y-43953D01*
X86303Y-43886D01*
X86339Y-43797D01*
X86340Y-43702D01*
X86340Y-51335D01*
X85790Y-51335D01*
X85790Y-43930D01*
X85790Y-43310D01*
X85790Y-43190D01*
X85790Y-42570D01*
X85730Y-42510D01*
X85720Y-42509D01*
X85720Y-40813D01*
X85577Y-40468D01*
X85313Y-40203D01*
X84967Y-40060D01*
X84593Y-40059D01*
X84248Y-40202D01*
X83983Y-40466D01*
X83840Y-40812D01*
X83839Y-41186D01*
X83982Y-41531D01*
X84246Y-41796D01*
X84330Y-41830D01*
X84330Y-42627D01*
X84320Y-42631D01*
X84281Y-42670D01*
X84260Y-42722D01*
X84259Y-42777D01*
X84259Y-43777D01*
X84281Y-43829D01*
X84320Y-43868D01*
X84330Y-43872D01*
X84330Y-46833D01*
X83440Y-47723D01*
X83440Y-47412D01*
X83440Y-46412D01*
X83440Y-45412D01*
X83440Y-44412D01*
X83440Y-43412D01*
X83440Y-42412D01*
X83440Y-41412D01*
X83440Y-40412D01*
X83440Y-39412D01*
X83440Y-38412D01*
X83440Y-37412D01*
X83440Y-36412D01*
X83440Y-35412D01*
X83440Y-34412D01*
X83440Y-33412D01*
X83440Y-32412D01*
X83440Y-31412D01*
X83373Y-31251D01*
X83249Y-31127D01*
X83087Y-31060D01*
X82912Y-31059D01*
X82751Y-31126D01*
X82627Y-31250D01*
X82560Y-31412D01*
X82559Y-31587D01*
X82626Y-31748D01*
X82750Y-31872D01*
X82912Y-31939D01*
X83087Y-31940D01*
X83248Y-31873D01*
X83372Y-31749D01*
X83439Y-31587D01*
X83440Y-31412D01*
X83440Y-32412D01*
X83373Y-32251D01*
X83249Y-32127D01*
X83087Y-32060D01*
X82912Y-32059D01*
X82751Y-32126D01*
X82627Y-32250D01*
X82560Y-32412D01*
X82559Y-32587D01*
X82626Y-32748D01*
X82750Y-32872D01*
X82912Y-32939D01*
X83087Y-32940D01*
X83248Y-32873D01*
X83372Y-32749D01*
X83439Y-32587D01*
X83440Y-32412D01*
X83440Y-33412D01*
X83373Y-33251D01*
X83249Y-33127D01*
X83087Y-33060D01*
X82912Y-33059D01*
X82751Y-33126D01*
X82627Y-33250D01*
X82560Y-33412D01*
X82559Y-33587D01*
X82626Y-33748D01*
X82750Y-33872D01*
X82912Y-33939D01*
X83087Y-33940D01*
X83248Y-33873D01*
X83372Y-33749D01*
X83439Y-33587D01*
X83440Y-33412D01*
X83440Y-34412D01*
X83373Y-34251D01*
X83249Y-34127D01*
X83087Y-34060D01*
X82912Y-34059D01*
X82751Y-34126D01*
X82627Y-34250D01*
X82560Y-34412D01*
X82559Y-34587D01*
X82626Y-34748D01*
X82750Y-34872D01*
X82912Y-34939D01*
X83087Y-34940D01*
X83248Y-34873D01*
X83372Y-34749D01*
X83439Y-34587D01*
X83440Y-34412D01*
X83440Y-35412D01*
X83373Y-35251D01*
X83249Y-35127D01*
X83087Y-35060D01*
X82912Y-35059D01*
X82751Y-35126D01*
X82627Y-35250D01*
X82560Y-35412D01*
X82559Y-35587D01*
X82626Y-35748D01*
X82750Y-35872D01*
X82912Y-35939D01*
X83087Y-35940D01*
X83248Y-35873D01*
X83372Y-35749D01*
X83439Y-35587D01*
X83440Y-35412D01*
X83440Y-36412D01*
X83373Y-36251D01*
X83249Y-36127D01*
X83087Y-36060D01*
X82912Y-36059D01*
X82751Y-36126D01*
X82627Y-36250D01*
X82560Y-36412D01*
X82559Y-36587D01*
X82626Y-36748D01*
X82750Y-36872D01*
X82912Y-36939D01*
X83087Y-36940D01*
X83248Y-36873D01*
X83372Y-36749D01*
X83439Y-36587D01*
X83440Y-36412D01*
X83440Y-37412D01*
X83373Y-37251D01*
X83249Y-37127D01*
X83087Y-37060D01*
X82912Y-37059D01*
X82751Y-37126D01*
X82627Y-37250D01*
X82560Y-37412D01*
X82559Y-37587D01*
X82626Y-37748D01*
X82750Y-37872D01*
X82912Y-37939D01*
X83087Y-37940D01*
X83248Y-37873D01*
X83372Y-37749D01*
X83439Y-37587D01*
X83440Y-37412D01*
X83440Y-38412D01*
X83373Y-38251D01*
X83249Y-38127D01*
X83087Y-38060D01*
X82912Y-38059D01*
X82751Y-38126D01*
X82627Y-38250D01*
X82560Y-38412D01*
X82559Y-38587D01*
X82626Y-38748D01*
X82750Y-38872D01*
X82912Y-38939D01*
X83087Y-38940D01*
X83248Y-38873D01*
X83372Y-38749D01*
X83439Y-38587D01*
X83440Y-38412D01*
X83440Y-39412D01*
X83373Y-39251D01*
X83249Y-39127D01*
X83087Y-39060D01*
X82912Y-39059D01*
X82751Y-39126D01*
X82627Y-39250D01*
X82560Y-39412D01*
X82559Y-39587D01*
X82626Y-39748D01*
X82750Y-39872D01*
X82912Y-39939D01*
X83087Y-39940D01*
X83248Y-39873D01*
X83372Y-39749D01*
X83439Y-39587D01*
X83440Y-39412D01*
X83440Y-40412D01*
X83373Y-40251D01*
X83249Y-40127D01*
X83087Y-40060D01*
X82912Y-40059D01*
X82751Y-40126D01*
X82627Y-40250D01*
X82560Y-40412D01*
X82559Y-40587D01*
X82626Y-40748D01*
X82750Y-40872D01*
X82912Y-40939D01*
X83087Y-40940D01*
X83248Y-40873D01*
X83372Y-40749D01*
X83439Y-40587D01*
X83440Y-40412D01*
X83440Y-41412D01*
X83373Y-41251D01*
X83249Y-41127D01*
X83087Y-41060D01*
X82912Y-41059D01*
X82751Y-41126D01*
X82627Y-41250D01*
X82560Y-41412D01*
X82559Y-41587D01*
X82626Y-41748D01*
X82750Y-41872D01*
X82912Y-41939D01*
X83087Y-41940D01*
X83248Y-41873D01*
X83372Y-41749D01*
X83439Y-41587D01*
X83440Y-41412D01*
X83440Y-42412D01*
X83373Y-42251D01*
X83249Y-42127D01*
X83087Y-42060D01*
X82912Y-42059D01*
X82751Y-42126D01*
X82627Y-42250D01*
X82560Y-42412D01*
X82559Y-42587D01*
X82626Y-42748D01*
X82750Y-42872D01*
X82912Y-42939D01*
X83087Y-42940D01*
X83248Y-42873D01*
X83372Y-42749D01*
X83439Y-42587D01*
X83440Y-42412D01*
X83440Y-43412D01*
X83373Y-43251D01*
X83249Y-43127D01*
X83087Y-43060D01*
X82912Y-43059D01*
X82751Y-43126D01*
X82627Y-43250D01*
X82560Y-43412D01*
X82559Y-43587D01*
X82626Y-43748D01*
X82750Y-43872D01*
X82912Y-43939D01*
X83087Y-43940D01*
X83248Y-43873D01*
X83372Y-43749D01*
X83439Y-43587D01*
X83440Y-43412D01*
X83440Y-44412D01*
X83373Y-44251D01*
X83249Y-44127D01*
X83087Y-44060D01*
X82912Y-44059D01*
X82751Y-44126D01*
X82627Y-44250D01*
X82560Y-44412D01*
X82559Y-44587D01*
X82626Y-44748D01*
X82750Y-44872D01*
X82912Y-44939D01*
X83087Y-44940D01*
X83248Y-44873D01*
X83372Y-44749D01*
X83439Y-44587D01*
X83440Y-44412D01*
X83440Y-45412D01*
X83373Y-45251D01*
X83249Y-45127D01*
X83087Y-45060D01*
X82912Y-45059D01*
X82751Y-45126D01*
X82627Y-45250D01*
X82560Y-45412D01*
X82559Y-45587D01*
X82626Y-45748D01*
X82750Y-45872D01*
X82912Y-45939D01*
X83087Y-45940D01*
X83248Y-45873D01*
X83372Y-45749D01*
X83439Y-45587D01*
X83440Y-45412D01*
X83440Y-46412D01*
X83373Y-46251D01*
X83249Y-46127D01*
X83087Y-46060D01*
X82912Y-46059D01*
X82843Y-46088D01*
X82627Y-45872D01*
X82568Y-45833D01*
X82500Y-45820D01*
X82302Y-45820D01*
X82372Y-45749D01*
X82439Y-45587D01*
X82440Y-45412D01*
X82440Y-44412D01*
X82440Y-43412D01*
X82440Y-42412D01*
X82440Y-41412D01*
X82440Y-40412D01*
X82440Y-39412D01*
X82440Y-38412D01*
X82440Y-37412D01*
X82440Y-36412D01*
X82440Y-35412D01*
X82440Y-34412D01*
X82440Y-33412D01*
X82440Y-32412D01*
X82440Y-31412D01*
X82373Y-31251D01*
X82249Y-31127D01*
X82087Y-31060D01*
X81912Y-31059D01*
X81751Y-31126D01*
X81627Y-31250D01*
X81560Y-31412D01*
X81559Y-31587D01*
X81626Y-31748D01*
X81750Y-31872D01*
X81912Y-31939D01*
X82087Y-31940D01*
X82248Y-31873D01*
X82372Y-31749D01*
X82439Y-31587D01*
X82440Y-31412D01*
X82440Y-32412D01*
X82373Y-32251D01*
X82249Y-32127D01*
X82087Y-32060D01*
X81912Y-32059D01*
X81751Y-32126D01*
X81627Y-32250D01*
X81560Y-32412D01*
X81559Y-32587D01*
X81626Y-32748D01*
X81750Y-32872D01*
X81912Y-32939D01*
X82087Y-32940D01*
X82248Y-32873D01*
X82372Y-32749D01*
X82439Y-32587D01*
X82440Y-32412D01*
X82440Y-33412D01*
X82373Y-33251D01*
X82249Y-33127D01*
X82087Y-33060D01*
X81912Y-33059D01*
X81751Y-33126D01*
X81627Y-33250D01*
X81560Y-33412D01*
X81559Y-33587D01*
X81626Y-33748D01*
X81750Y-33872D01*
X81912Y-33939D01*
X82087Y-33940D01*
X82248Y-33873D01*
X82372Y-33749D01*
X82439Y-33587D01*
X82440Y-33412D01*
X82440Y-34412D01*
X82373Y-34251D01*
X82249Y-34127D01*
X82087Y-34060D01*
X81912Y-34059D01*
X81751Y-34126D01*
X81627Y-34250D01*
X81560Y-34412D01*
X81559Y-34587D01*
X81626Y-34748D01*
X81750Y-34872D01*
X81912Y-34939D01*
X82087Y-34940D01*
X82248Y-34873D01*
X82372Y-34749D01*
X82439Y-34587D01*
X82440Y-34412D01*
X82440Y-35412D01*
X82373Y-35251D01*
X82249Y-35127D01*
X82087Y-35060D01*
X81912Y-35059D01*
X81751Y-35126D01*
X81627Y-35250D01*
X81560Y-35412D01*
X81559Y-35587D01*
X81626Y-35748D01*
X81750Y-35872D01*
X81912Y-35939D01*
X82087Y-35940D01*
X82248Y-35873D01*
X82372Y-35749D01*
X82439Y-35587D01*
X82440Y-35412D01*
X82440Y-36412D01*
X82373Y-36251D01*
X82249Y-36127D01*
X82087Y-36060D01*
X81912Y-36059D01*
X81751Y-36126D01*
X81627Y-36250D01*
X81560Y-36412D01*
X81559Y-36587D01*
X81626Y-36748D01*
X81750Y-36872D01*
X81912Y-36939D01*
X82087Y-36940D01*
X82248Y-36873D01*
X82372Y-36749D01*
X82439Y-36587D01*
X82440Y-36412D01*
X82440Y-37412D01*
X82373Y-37251D01*
X82249Y-37127D01*
X82087Y-37060D01*
X81912Y-37059D01*
X81751Y-37126D01*
X81627Y-37250D01*
X81560Y-37412D01*
X81559Y-37587D01*
X81626Y-37748D01*
X81750Y-37872D01*
X81912Y-37939D01*
X82087Y-37940D01*
X82248Y-37873D01*
X82372Y-37749D01*
X82439Y-37587D01*
X82440Y-37412D01*
X82440Y-38412D01*
X82373Y-38251D01*
X82249Y-38127D01*
X82087Y-38060D01*
X81912Y-38059D01*
X81751Y-38126D01*
X81627Y-38250D01*
X81560Y-38412D01*
X81559Y-38587D01*
X81626Y-38748D01*
X81750Y-38872D01*
X81912Y-38939D01*
X82087Y-38940D01*
X82248Y-38873D01*
X82372Y-38749D01*
X82439Y-38587D01*
X82440Y-38412D01*
X82440Y-39412D01*
X82373Y-39251D01*
X82249Y-39127D01*
X82087Y-39060D01*
X81912Y-39059D01*
X81751Y-39126D01*
X81627Y-39250D01*
X81560Y-39412D01*
X81559Y-39587D01*
X81626Y-39748D01*
X81750Y-39872D01*
X81912Y-39939D01*
X82087Y-39940D01*
X82248Y-39873D01*
X82372Y-39749D01*
X82439Y-39587D01*
X82440Y-39412D01*
X82440Y-40412D01*
X82373Y-40251D01*
X82249Y-40127D01*
X82087Y-40060D01*
X81912Y-40059D01*
X81751Y-40126D01*
X81627Y-40250D01*
X81560Y-40412D01*
X81559Y-40587D01*
X81626Y-40748D01*
X81750Y-40872D01*
X81912Y-40939D01*
X82087Y-40940D01*
X82248Y-40873D01*
X82372Y-40749D01*
X82439Y-40587D01*
X82440Y-40412D01*
X82440Y-41412D01*
X82373Y-41251D01*
X82249Y-41127D01*
X82087Y-41060D01*
X81912Y-41059D01*
X81751Y-41126D01*
X81627Y-41250D01*
X81560Y-41412D01*
X81559Y-41587D01*
X81626Y-41748D01*
X81750Y-41872D01*
X81912Y-41939D01*
X82087Y-41940D01*
X82248Y-41873D01*
X82372Y-41749D01*
X82439Y-41587D01*
X82440Y-41412D01*
X82440Y-42412D01*
X82373Y-42251D01*
X82249Y-42127D01*
X82087Y-42060D01*
X81912Y-42059D01*
X81751Y-42126D01*
X81627Y-42250D01*
X81560Y-42412D01*
X81559Y-42587D01*
X81626Y-42748D01*
X81750Y-42872D01*
X81912Y-42939D01*
X82087Y-42940D01*
X82248Y-42873D01*
X82372Y-42749D01*
X82439Y-42587D01*
X82440Y-42412D01*
X82440Y-43412D01*
X82373Y-43251D01*
X82249Y-43127D01*
X82087Y-43060D01*
X81912Y-43059D01*
X81751Y-43126D01*
X81627Y-43250D01*
X81560Y-43412D01*
X81559Y-43587D01*
X81626Y-43748D01*
X81750Y-43872D01*
X81912Y-43939D01*
X82087Y-43940D01*
X82248Y-43873D01*
X82372Y-43749D01*
X82439Y-43587D01*
X82440Y-43412D01*
X82440Y-44412D01*
X82373Y-44251D01*
X82249Y-44127D01*
X82087Y-44060D01*
X81912Y-44059D01*
X81751Y-44126D01*
X81627Y-44250D01*
X81560Y-44412D01*
X81559Y-44587D01*
X81626Y-44748D01*
X81750Y-44872D01*
X81912Y-44939D01*
X82087Y-44940D01*
X82248Y-44873D01*
X82372Y-44749D01*
X82439Y-44587D01*
X82440Y-44412D01*
X82440Y-45412D01*
X82373Y-45251D01*
X82249Y-45127D01*
X82087Y-45060D01*
X81912Y-45059D01*
X81751Y-45126D01*
X81627Y-45250D01*
X81560Y-45412D01*
X81560Y-45439D01*
X81406Y-45285D01*
X81406Y-43915D01*
X81392Y-43846D01*
X81353Y-43788D01*
X79440Y-41875D01*
X79440Y-31712D01*
X79440Y-31287D01*
X79406Y-31119D01*
X79311Y-30976D01*
X79168Y-30880D01*
X79000Y-30847D01*
X78831Y-30880D01*
X78688Y-30976D01*
X78593Y-31119D01*
X78560Y-31287D01*
X78560Y-31712D01*
X78593Y-31880D01*
X78688Y-32023D01*
X78831Y-32119D01*
X79000Y-32152D01*
X79168Y-32119D01*
X79311Y-32023D01*
X79406Y-31880D01*
X79440Y-31712D01*
X79440Y-41875D01*
X78440Y-40875D01*
X78440Y-31712D01*
X78440Y-31287D01*
X78406Y-31119D01*
X78311Y-30976D01*
X78168Y-30880D01*
X78000Y-30847D01*
X77831Y-30880D01*
X77688Y-30976D01*
X77593Y-31119D01*
X77560Y-31287D01*
X77560Y-31712D01*
X77593Y-31880D01*
X77688Y-32023D01*
X77831Y-32119D01*
X78000Y-32152D01*
X78168Y-32119D01*
X78311Y-32023D01*
X78406Y-31880D01*
X78440Y-31712D01*
X78440Y-40875D01*
X77440Y-39875D01*
X77440Y-31712D01*
X77440Y-31287D01*
X77406Y-31119D01*
X77311Y-30976D01*
X77168Y-30880D01*
X77000Y-30847D01*
X76831Y-30880D01*
X76688Y-30976D01*
X76593Y-31119D01*
X76560Y-31287D01*
X76560Y-31712D01*
X76593Y-31880D01*
X76688Y-32023D01*
X76831Y-32119D01*
X77000Y-32152D01*
X77168Y-32119D01*
X77311Y-32023D01*
X77406Y-31880D01*
X77440Y-31712D01*
X77440Y-39875D01*
X76440Y-38875D01*
X76440Y-31712D01*
X76440Y-31287D01*
X76406Y-31119D01*
X76311Y-30976D01*
X76168Y-30880D01*
X76000Y-30847D01*
X75831Y-30880D01*
X75688Y-30976D01*
X75593Y-31119D01*
X75560Y-31287D01*
X75560Y-31712D01*
X75593Y-31880D01*
X75688Y-32023D01*
X75831Y-32119D01*
X76000Y-32152D01*
X76168Y-32119D01*
X76311Y-32023D01*
X76406Y-31880D01*
X76440Y-31712D01*
X76440Y-38875D01*
X75440Y-37875D01*
X75440Y-31712D01*
X75440Y-31287D01*
X75406Y-31119D01*
X75311Y-30976D01*
X75168Y-30880D01*
X75000Y-30847D01*
X74831Y-30880D01*
X74688Y-30976D01*
X74593Y-31119D01*
X74560Y-31287D01*
X74560Y-31712D01*
X74593Y-31880D01*
X74688Y-32023D01*
X74831Y-32119D01*
X75000Y-32152D01*
X75168Y-32119D01*
X75311Y-32023D01*
X75406Y-31880D01*
X75440Y-31712D01*
X75440Y-37875D01*
X74440Y-36875D01*
X74440Y-31712D01*
X74440Y-31287D01*
X74406Y-31119D01*
X74311Y-30976D01*
X74168Y-30880D01*
X74000Y-30847D01*
X73831Y-30880D01*
X73688Y-30976D01*
X73593Y-31119D01*
X73560Y-31287D01*
X73560Y-31712D01*
X73593Y-31880D01*
X73688Y-32023D01*
X73831Y-32119D01*
X74000Y-32152D01*
X74168Y-32119D01*
X74311Y-32023D01*
X74406Y-31880D01*
X74440Y-31712D01*
X74440Y-36875D01*
X73440Y-35875D01*
X73440Y-31712D01*
X73440Y-31287D01*
X73406Y-31119D01*
X73311Y-30976D01*
X73168Y-30880D01*
X73000Y-30847D01*
X72831Y-30880D01*
X72688Y-30976D01*
X72593Y-31119D01*
X72560Y-31287D01*
X72560Y-31712D01*
X72593Y-31880D01*
X72688Y-32023D01*
X72831Y-32119D01*
X73000Y-32152D01*
X73168Y-32119D01*
X73311Y-32023D01*
X73406Y-31880D01*
X73440Y-31712D01*
X73440Y-35875D01*
X72440Y-34875D01*
X72440Y-31712D01*
X72440Y-31287D01*
X72406Y-31119D01*
X72311Y-30976D01*
X72168Y-30880D01*
X72000Y-30847D01*
X71831Y-30880D01*
X71688Y-30976D01*
X71593Y-31119D01*
X71560Y-31287D01*
X71560Y-31712D01*
X71593Y-31880D01*
X71688Y-32023D01*
X71831Y-32119D01*
X72000Y-32152D01*
X72168Y-32119D01*
X72311Y-32023D01*
X72406Y-31880D01*
X72440Y-31712D01*
X72440Y-34875D01*
X70440Y-32875D01*
X70440Y-31712D01*
X70440Y-31287D01*
X70406Y-31119D01*
X70311Y-30976D01*
X70168Y-30880D01*
X70000Y-30847D01*
X69831Y-30880D01*
X69688Y-30976D01*
X69593Y-31119D01*
X69560Y-31287D01*
X69560Y-31712D01*
X69593Y-31880D01*
X69688Y-32023D01*
X69831Y-32119D01*
X70000Y-32152D01*
X70168Y-32119D01*
X70311Y-32023D01*
X70406Y-31880D01*
X70440Y-31712D01*
X70440Y-32875D01*
X69617Y-32052D01*
X69559Y-32013D01*
X69490Y-31999D01*
X69327Y-31999D01*
X69406Y-31880D01*
X69440Y-31712D01*
X69440Y-31287D01*
X69406Y-31119D01*
X69311Y-30976D01*
X69168Y-30880D01*
X69000Y-30847D01*
X68831Y-30880D01*
X68688Y-30976D01*
X68593Y-31119D01*
X68560Y-31287D01*
X68560Y-31712D01*
X68593Y-31880D01*
X68672Y-31999D01*
X68327Y-31999D01*
X68406Y-31880D01*
X68440Y-31712D01*
X68440Y-31287D01*
X68406Y-31119D01*
X68311Y-30976D01*
X68168Y-30880D01*
X68000Y-30847D01*
X67831Y-30880D01*
X67688Y-30976D01*
X67593Y-31119D01*
X67560Y-31287D01*
X67560Y-31712D01*
X67593Y-31880D01*
X67672Y-31999D01*
X67327Y-31999D01*
X67406Y-31880D01*
X67440Y-31712D01*
X67440Y-31287D01*
X67406Y-31119D01*
X67311Y-30976D01*
X67168Y-30880D01*
X67000Y-30847D01*
X66831Y-30880D01*
X66688Y-30976D01*
X66593Y-31119D01*
X66560Y-31287D01*
X66560Y-31712D01*
X66593Y-31880D01*
X66672Y-31999D01*
X66327Y-31999D01*
X66406Y-31880D01*
X66440Y-31712D01*
X66440Y-31287D01*
X66406Y-31119D01*
X66311Y-30976D01*
X66168Y-30880D01*
X66000Y-30847D01*
X65831Y-30880D01*
X65688Y-30976D01*
X65593Y-31119D01*
X65560Y-31287D01*
X65560Y-31712D01*
X65593Y-31880D01*
X65672Y-31999D01*
X65327Y-31999D01*
X65406Y-31880D01*
X65440Y-31712D01*
X65440Y-31287D01*
X65406Y-31119D01*
X65311Y-30976D01*
X65168Y-30880D01*
X65000Y-30847D01*
X64831Y-30880D01*
X64688Y-30976D01*
X64593Y-31119D01*
X64560Y-31287D01*
X64560Y-31712D01*
X64593Y-31880D01*
X64672Y-31999D01*
X64327Y-31999D01*
X64406Y-31880D01*
X64440Y-31712D01*
X64440Y-31287D01*
X64406Y-31119D01*
X64311Y-30976D01*
X64168Y-30880D01*
X64000Y-30847D01*
X63831Y-30880D01*
X63688Y-30976D01*
X63593Y-31119D01*
X63560Y-31287D01*
X63560Y-31712D01*
X63593Y-31880D01*
X63672Y-31999D01*
X63440Y-31999D01*
X63440Y-31712D01*
X63440Y-31287D01*
X63406Y-31119D01*
X63311Y-30976D01*
X63168Y-30880D01*
X63000Y-30847D01*
X62831Y-30880D01*
X62688Y-30976D01*
X62593Y-31119D01*
X62560Y-31287D01*
X62560Y-31712D01*
X62593Y-31880D01*
X62688Y-32023D01*
X62831Y-32119D01*
X63000Y-32152D01*
X63168Y-32119D01*
X63311Y-32023D01*
X63406Y-31880D01*
X63440Y-31712D01*
X63440Y-31999D01*
X63430Y-31999D01*
X63361Y-32013D01*
X63302Y-32052D01*
X63122Y-32232D01*
X63083Y-32290D01*
X63070Y-32359D01*
X63070Y-32406D01*
X63056Y-32420D01*
X63035Y-32472D01*
X63034Y-32527D01*
X63034Y-32960D01*
X62965Y-32960D01*
X62965Y-32472D01*
X62943Y-32420D01*
X62904Y-32381D01*
X62852Y-32360D01*
X62797Y-32359D01*
X62647Y-32359D01*
X62595Y-32381D01*
X62556Y-32420D01*
X62535Y-32472D01*
X62534Y-32527D01*
X62534Y-33027D01*
X62556Y-33079D01*
X62570Y-33092D01*
X62570Y-33140D01*
X62583Y-33209D01*
X62622Y-33267D01*
X62681Y-33306D01*
X62750Y-33320D01*
X63282Y-33320D01*
X61840Y-34762D01*
X61840Y-31712D01*
X61840Y-31287D01*
X61806Y-31119D01*
X61711Y-30976D01*
X61568Y-30880D01*
X61400Y-30847D01*
X61231Y-30880D01*
X61088Y-30976D01*
X60993Y-31119D01*
X60960Y-31287D01*
X60960Y-31712D01*
X60993Y-31880D01*
X61088Y-32023D01*
X61231Y-32119D01*
X61400Y-32152D01*
X61568Y-32119D01*
X61711Y-32023D01*
X61806Y-31880D01*
X61840Y-31712D01*
X61840Y-34762D01*
X60840Y-35762D01*
X60840Y-31712D01*
X60840Y-31287D01*
X60806Y-31119D01*
X60711Y-30976D01*
X60568Y-30880D01*
X60400Y-30847D01*
X60231Y-30880D01*
X60088Y-30976D01*
X59993Y-31119D01*
X59960Y-31287D01*
X59960Y-31712D01*
X59993Y-31880D01*
X60088Y-32023D01*
X60231Y-32119D01*
X60400Y-32152D01*
X60568Y-32119D01*
X60711Y-32023D01*
X60806Y-31880D01*
X60840Y-31712D01*
X60840Y-35762D01*
X60112Y-36490D01*
X59840Y-36490D01*
X59840Y-31712D01*
X59840Y-31287D01*
X59806Y-31119D01*
X59711Y-30976D01*
X59568Y-30880D01*
X59400Y-30847D01*
X59231Y-30880D01*
X59088Y-30976D01*
X58993Y-31119D01*
X58960Y-31287D01*
X58960Y-31712D01*
X58993Y-31880D01*
X59088Y-32023D01*
X59231Y-32119D01*
X59400Y-32152D01*
X59568Y-32119D01*
X59711Y-32023D01*
X59806Y-31880D01*
X59840Y-31712D01*
X59840Y-36490D01*
X59649Y-36490D01*
X59649Y-34360D01*
X59644Y-34334D01*
X59644Y-34297D01*
X59630Y-34262D01*
X59625Y-34237D01*
X59611Y-34216D01*
X59597Y-34181D01*
X59570Y-34155D01*
X59556Y-34133D01*
X58840Y-33417D01*
X58840Y-31712D01*
X58840Y-31287D01*
X58806Y-31119D01*
X58711Y-30976D01*
X58568Y-30880D01*
X58400Y-30847D01*
X58231Y-30880D01*
X58088Y-30976D01*
X57993Y-31119D01*
X57960Y-31287D01*
X57960Y-31712D01*
X57993Y-31880D01*
X58088Y-32023D01*
X58231Y-32119D01*
X58400Y-32152D01*
X58568Y-32119D01*
X58711Y-32023D01*
X58806Y-31880D01*
X58840Y-31712D01*
X58840Y-33417D01*
X57896Y-32474D01*
X57840Y-32436D01*
X57840Y-31712D01*
X57840Y-31287D01*
X57806Y-31119D01*
X57711Y-30976D01*
X57568Y-30880D01*
X57400Y-30847D01*
X57231Y-30880D01*
X57088Y-30976D01*
X56993Y-31119D01*
X56960Y-31287D01*
X56960Y-31712D01*
X56993Y-31880D01*
X57088Y-32023D01*
X57231Y-32119D01*
X57400Y-32152D01*
X57568Y-32119D01*
X57711Y-32023D01*
X57806Y-31880D01*
X57840Y-31712D01*
X57840Y-32436D01*
X57792Y-32404D01*
X57670Y-32380D01*
X56840Y-32380D01*
X56840Y-31712D01*
X56840Y-31287D01*
X56806Y-31119D01*
X56711Y-30976D01*
X56568Y-30880D01*
X56400Y-30847D01*
X56231Y-30880D01*
X56088Y-30976D01*
X55993Y-31119D01*
X55960Y-31287D01*
X55960Y-31712D01*
X55993Y-31880D01*
X56088Y-32023D01*
X56231Y-32119D01*
X56400Y-32152D01*
X56568Y-32119D01*
X56711Y-32023D01*
X56806Y-31880D01*
X56840Y-31712D01*
X56840Y-32380D01*
X55840Y-32380D01*
X55840Y-31712D01*
X55840Y-31287D01*
X55806Y-31119D01*
X55711Y-30976D01*
X55568Y-30880D01*
X55400Y-30847D01*
X55231Y-30880D01*
X55088Y-30976D01*
X54993Y-31119D01*
X54960Y-31287D01*
X54960Y-31712D01*
X54993Y-31880D01*
X55088Y-32023D01*
X55231Y-32119D01*
X55400Y-32152D01*
X55568Y-32119D01*
X55711Y-32023D01*
X55806Y-31880D01*
X55840Y-31712D01*
X55840Y-32380D01*
X54840Y-32380D01*
X54840Y-31712D01*
X54840Y-31287D01*
X54806Y-31119D01*
X54711Y-30976D01*
X54568Y-30880D01*
X54400Y-30847D01*
X54231Y-30880D01*
X54088Y-30976D01*
X53993Y-31119D01*
X53960Y-31287D01*
X53960Y-31712D01*
X53993Y-31880D01*
X54088Y-32023D01*
X54231Y-32119D01*
X54400Y-32152D01*
X54568Y-32119D01*
X54711Y-32023D01*
X54806Y-31880D01*
X54840Y-31712D01*
X54840Y-32380D01*
X53840Y-32380D01*
X53840Y-31712D01*
X53840Y-31287D01*
X53806Y-31119D01*
X53711Y-30976D01*
X53568Y-30880D01*
X53400Y-30847D01*
X53231Y-30880D01*
X53088Y-30976D01*
X52993Y-31119D01*
X52960Y-31287D01*
X52960Y-31712D01*
X52993Y-31880D01*
X53088Y-32023D01*
X53231Y-32119D01*
X53400Y-32152D01*
X53568Y-32119D01*
X53711Y-32023D01*
X53806Y-31880D01*
X53840Y-31712D01*
X53840Y-32380D01*
X52840Y-32380D01*
X52840Y-31712D01*
X52840Y-31287D01*
X52806Y-31119D01*
X52711Y-30976D01*
X52568Y-30880D01*
X52400Y-30847D01*
X52231Y-30880D01*
X52088Y-30976D01*
X51993Y-31119D01*
X51960Y-31287D01*
X51960Y-31712D01*
X51993Y-31880D01*
X52088Y-32023D01*
X52231Y-32119D01*
X52400Y-32152D01*
X52568Y-32119D01*
X52711Y-32023D01*
X52806Y-31880D01*
X52840Y-31712D01*
X52840Y-32380D01*
X51999Y-32380D01*
X51876Y-32404D01*
X51842Y-32427D01*
X51773Y-32474D01*
X50437Y-33809D01*
X50362Y-33809D01*
X50301Y-33835D01*
X48148Y-33835D01*
X48087Y-33810D01*
X47912Y-33809D01*
X47751Y-33876D01*
X47627Y-34000D01*
X47560Y-34162D01*
X47559Y-34337D01*
X47626Y-34498D01*
X47680Y-34552D01*
X47680Y-34947D01*
X47627Y-35000D01*
X47560Y-35162D01*
X47559Y-35337D01*
X47626Y-35498D01*
X47750Y-35622D01*
X47912Y-35689D01*
X48087Y-35690D01*
X48248Y-35623D01*
X48372Y-35499D01*
X48439Y-35337D01*
X48440Y-35162D01*
X48373Y-35001D01*
X48320Y-34947D01*
X48320Y-34552D01*
X48372Y-34499D01*
X48382Y-34475D01*
X48652Y-34475D01*
X48627Y-34500D01*
X48560Y-34662D01*
X48559Y-34837D01*
X48626Y-34998D01*
X48750Y-35122D01*
X48912Y-35189D01*
X49087Y-35190D01*
X49248Y-35123D01*
X49372Y-34999D01*
X49439Y-34837D01*
X49440Y-34662D01*
X49373Y-34501D01*
X49347Y-34475D01*
X50066Y-34475D01*
X50076Y-34498D01*
X50130Y-34552D01*
X50130Y-34947D01*
X50077Y-35000D01*
X50010Y-35162D01*
X50009Y-35337D01*
X50076Y-35498D01*
X50200Y-35622D01*
X50362Y-35689D01*
X50537Y-35690D01*
X50698Y-35623D01*
X50822Y-35499D01*
X50889Y-35337D01*
X50890Y-35162D01*
X50823Y-35001D01*
X50770Y-34947D01*
X50770Y-34552D01*
X50822Y-34499D01*
X50889Y-34337D01*
X50889Y-34262D01*
X52131Y-33020D01*
X52657Y-33020D01*
X52627Y-33050D01*
X52560Y-33212D01*
X52559Y-33387D01*
X52626Y-33548D01*
X52750Y-33672D01*
X52912Y-33739D01*
X53087Y-33740D01*
X53248Y-33673D01*
X53372Y-33549D01*
X53439Y-33387D01*
X53440Y-33212D01*
X53373Y-33051D01*
X53342Y-33020D01*
X57537Y-33020D01*
X59103Y-34586D01*
X59124Y-34600D01*
X59151Y-34626D01*
X59186Y-34641D01*
X59207Y-34655D01*
X59232Y-34660D01*
X59266Y-34674D01*
X59304Y-34674D01*
X59329Y-34679D01*
X59354Y-34675D01*
X59392Y-34675D01*
X59427Y-34660D01*
X59452Y-34655D01*
X59473Y-34641D01*
X59508Y-34627D01*
X59534Y-34600D01*
X59556Y-34586D01*
X59570Y-34565D01*
X59596Y-34538D01*
X59611Y-34503D01*
X59625Y-34482D01*
X59630Y-34457D01*
X59644Y-34422D01*
X59644Y-34385D01*
X59649Y-34360D01*
X59649Y-36490D01*
X53440Y-36490D01*
X53440Y-34212D01*
X53373Y-34051D01*
X53249Y-33927D01*
X53087Y-33860D01*
X52912Y-33859D01*
X52751Y-33926D01*
X52627Y-34050D01*
X52560Y-34212D01*
X52559Y-34387D01*
X52626Y-34548D01*
X52750Y-34672D01*
X52912Y-34739D01*
X53087Y-34740D01*
X53248Y-34673D01*
X53372Y-34549D01*
X53439Y-34387D01*
X53440Y-34212D01*
X53440Y-36490D01*
X51812Y-36490D01*
X51699Y-36377D01*
X51537Y-36310D01*
X51507Y-36310D01*
X51633Y-36183D01*
X51633Y-36183D01*
X51664Y-36137D01*
X51698Y-36123D01*
X51822Y-35999D01*
X51889Y-35837D01*
X51890Y-35662D01*
X51890Y-34662D01*
X51823Y-34501D01*
X51699Y-34377D01*
X51537Y-34310D01*
X51362Y-34309D01*
X51201Y-34376D01*
X51077Y-34500D01*
X51010Y-34662D01*
X51009Y-34837D01*
X51076Y-34998D01*
X51200Y-35122D01*
X51362Y-35189D01*
X51537Y-35190D01*
X51698Y-35123D01*
X51822Y-34999D01*
X51889Y-34837D01*
X51890Y-34662D01*
X51890Y-35662D01*
X51823Y-35501D01*
X51699Y-35377D01*
X51537Y-35310D01*
X51362Y-35309D01*
X51201Y-35376D01*
X51077Y-35500D01*
X51010Y-35662D01*
X51009Y-35837D01*
X51076Y-35998D01*
X51080Y-36002D01*
X50980Y-36102D01*
X50928Y-35976D01*
X50836Y-35948D01*
X50751Y-36032D01*
X50751Y-35863D01*
X50723Y-35771D01*
X50519Y-35703D01*
X50305Y-35718D01*
X50176Y-35771D01*
X50148Y-35863D01*
X50450Y-36165D01*
X50751Y-35863D01*
X50751Y-36032D01*
X50534Y-36250D01*
X50540Y-36255D01*
X50455Y-36340D01*
X50450Y-36334D01*
X50365Y-36419D01*
X50365Y-36250D01*
X50063Y-35948D01*
X49971Y-35976D01*
X49903Y-36180D01*
X49918Y-36394D01*
X49971Y-36523D01*
X50063Y-36551D01*
X50365Y-36250D01*
X50365Y-36419D01*
X50148Y-36636D01*
X50176Y-36728D01*
X50235Y-36747D01*
X50176Y-36771D01*
X50148Y-36863D01*
X50450Y-37165D01*
X50455Y-37159D01*
X50540Y-37244D01*
X50534Y-37250D01*
X50540Y-37255D01*
X50455Y-37340D01*
X50450Y-37334D01*
X50365Y-37419D01*
X50365Y-37250D01*
X50063Y-36948D01*
X49971Y-36976D01*
X49903Y-37180D01*
X49918Y-37394D01*
X49971Y-37523D01*
X50063Y-37551D01*
X50365Y-37250D01*
X50365Y-37419D01*
X50148Y-37636D01*
X50176Y-37728D01*
X50380Y-37796D01*
X50594Y-37781D01*
X50658Y-37754D01*
X50658Y-37983D01*
X50677Y-38082D01*
X50734Y-38167D01*
X51973Y-39406D01*
X52058Y-39462D01*
X52157Y-39482D01*
X59635Y-39482D01*
X59734Y-39462D01*
X59819Y-39406D01*
X62534Y-36690D01*
X62534Y-37027D01*
X62556Y-37079D01*
X62570Y-37092D01*
X62570Y-37140D01*
X62570Y-40105D01*
X62583Y-40174D01*
X62622Y-40233D01*
X63070Y-40680D01*
X63070Y-41109D01*
X63070Y-41156D01*
X63056Y-41170D01*
X63035Y-41222D01*
X63034Y-41277D01*
X63034Y-41710D01*
X62965Y-41710D01*
X62965Y-41222D01*
X62960Y-41210D01*
X63021Y-41149D01*
X63069Y-41033D01*
X63069Y-40908D01*
X63021Y-40792D01*
X62933Y-40703D01*
X62817Y-40655D01*
X62692Y-40655D01*
X62576Y-40703D01*
X62487Y-40791D01*
X62439Y-40907D01*
X62439Y-41032D01*
X62487Y-41148D01*
X62542Y-41203D01*
X62535Y-41222D01*
X62534Y-41277D01*
X62534Y-41710D01*
X56229Y-41710D01*
X56146Y-41726D01*
X56130Y-41729D01*
X56046Y-41786D01*
X53436Y-44395D01*
X53439Y-44387D01*
X53440Y-44212D01*
X53440Y-43212D01*
X53373Y-43051D01*
X53249Y-42927D01*
X53087Y-42860D01*
X52912Y-42859D01*
X52751Y-42926D01*
X52627Y-43050D01*
X52560Y-43212D01*
X52559Y-43387D01*
X52626Y-43548D01*
X52750Y-43672D01*
X52912Y-43739D01*
X53087Y-43740D01*
X53248Y-43673D01*
X53372Y-43549D01*
X53439Y-43387D01*
X53440Y-43212D01*
X53440Y-44212D01*
X53373Y-44051D01*
X53249Y-43927D01*
X53087Y-43860D01*
X52912Y-43859D01*
X52751Y-43926D01*
X52627Y-44050D01*
X52560Y-44212D01*
X52559Y-44387D01*
X52626Y-44548D01*
X52750Y-44672D01*
X52912Y-44739D01*
X53087Y-44740D01*
X53095Y-44736D01*
X51890Y-45942D01*
X51890Y-45662D01*
X51890Y-44662D01*
X51823Y-44501D01*
X51699Y-44377D01*
X51537Y-44310D01*
X51362Y-44309D01*
X51201Y-44376D01*
X51077Y-44500D01*
X51010Y-44662D01*
X51009Y-44837D01*
X51076Y-44998D01*
X51200Y-45122D01*
X51362Y-45189D01*
X51537Y-45190D01*
X51698Y-45123D01*
X51822Y-44999D01*
X51889Y-44837D01*
X51890Y-44662D01*
X51890Y-45662D01*
X51823Y-45501D01*
X51699Y-45377D01*
X51537Y-45310D01*
X51362Y-45309D01*
X51201Y-45376D01*
X51077Y-45500D01*
X51010Y-45662D01*
X51009Y-45837D01*
X51076Y-45998D01*
X51200Y-46122D01*
X51362Y-46189D01*
X51537Y-46190D01*
X51698Y-46123D01*
X51822Y-45999D01*
X51889Y-45837D01*
X51890Y-45662D01*
X51890Y-45942D01*
X51522Y-46310D01*
X51362Y-46309D01*
X51201Y-46376D01*
X51077Y-46500D01*
X51010Y-46662D01*
X51009Y-46837D01*
X51076Y-46998D01*
X51200Y-47122D01*
X51362Y-47189D01*
X51537Y-47190D01*
X51698Y-47123D01*
X51822Y-46999D01*
X51889Y-46837D01*
X51890Y-46677D01*
X56337Y-42230D01*
X63622Y-42230D01*
X62371Y-43481D01*
X55458Y-43481D01*
X55359Y-43501D01*
X55331Y-43519D01*
X55274Y-43557D01*
X51522Y-47310D01*
X51362Y-47309D01*
X51201Y-47376D01*
X51077Y-47500D01*
X51010Y-47662D01*
X51009Y-47837D01*
X51076Y-47998D01*
X51200Y-48122D01*
X51362Y-48189D01*
X51537Y-48190D01*
X51698Y-48123D01*
X51822Y-47999D01*
X51889Y-47837D01*
X51890Y-47677D01*
X55566Y-44001D01*
X62478Y-44001D01*
X62578Y-43981D01*
X62662Y-43925D01*
X64433Y-42153D01*
X64490Y-42069D01*
X64509Y-41970D01*
X64510Y-41970D01*
X64510Y-41924D01*
X64539Y-41953D01*
X64627Y-41990D01*
X64652Y-41990D01*
X64712Y-41930D01*
X64712Y-41560D01*
X64682Y-41560D01*
X64682Y-41440D01*
X64712Y-41440D01*
X64712Y-41070D01*
X64652Y-41010D01*
X64627Y-41009D01*
X64539Y-41046D01*
X64471Y-41113D01*
X64445Y-41175D01*
X64443Y-41170D01*
X64404Y-41131D01*
X64352Y-41110D01*
X64297Y-41109D01*
X64147Y-41109D01*
X64095Y-41131D01*
X64056Y-41170D01*
X64035Y-41222D01*
X64034Y-41277D01*
X64034Y-41362D01*
X64009Y-41400D01*
X64000Y-41449D01*
X63990Y-41400D01*
X63965Y-41362D01*
X63965Y-41222D01*
X63943Y-41170D01*
X63904Y-41131D01*
X63852Y-41110D01*
X63797Y-41109D01*
X63647Y-41109D01*
X63595Y-41131D01*
X63556Y-41170D01*
X63535Y-41222D01*
X63534Y-41277D01*
X63534Y-41362D01*
X63509Y-41400D01*
X63490Y-41500D01*
X63490Y-41710D01*
X63465Y-41710D01*
X63465Y-41222D01*
X63443Y-41170D01*
X63430Y-41157D01*
X63430Y-41109D01*
X63430Y-40605D01*
X63416Y-40537D01*
X63377Y-40478D01*
X62930Y-40031D01*
X62930Y-37280D01*
X62954Y-37402D01*
X63023Y-37506D01*
X63127Y-37575D01*
X63250Y-37600D01*
X63262Y-37600D01*
X65410Y-39748D01*
X65431Y-39762D01*
X65458Y-39788D01*
X65492Y-39803D01*
X65514Y-39817D01*
X65539Y-39822D01*
X65573Y-39836D01*
X65611Y-39836D01*
X65636Y-39842D01*
X65661Y-39837D01*
X65699Y-39837D01*
X65734Y-39822D01*
X65759Y-39817D01*
X65780Y-39803D01*
X65815Y-39789D01*
X65841Y-39762D01*
X65863Y-39748D01*
X65877Y-39727D01*
X65903Y-39700D01*
X65918Y-39665D01*
X65932Y-39644D01*
X65937Y-39619D01*
X65951Y-39584D01*
X65951Y-39547D01*
X65956Y-39522D01*
X65951Y-39496D01*
X65951Y-39459D01*
X65937Y-39424D01*
X65932Y-39399D01*
X65918Y-39378D01*
X65904Y-39343D01*
X65877Y-39317D01*
X65863Y-39295D01*
X65712Y-39145D01*
X65712Y-37180D01*
X65712Y-36810D01*
X65712Y-36690D01*
X65712Y-36320D01*
X65712Y-33180D01*
X65712Y-32810D01*
X65505Y-32810D01*
X65495Y-32810D01*
X65287Y-32810D01*
X65287Y-33180D01*
X65347Y-33240D01*
X65372Y-33240D01*
X65460Y-33203D01*
X65500Y-33164D01*
X65539Y-33203D01*
X65627Y-33240D01*
X65652Y-33240D01*
X65712Y-33180D01*
X65712Y-36320D01*
X65652Y-36260D01*
X65627Y-36259D01*
X65539Y-36296D01*
X65500Y-36335D01*
X65460Y-36296D01*
X65372Y-36259D01*
X65347Y-36260D01*
X65287Y-36320D01*
X65287Y-36690D01*
X65495Y-36690D01*
X65505Y-36690D01*
X65712Y-36690D01*
X65712Y-36810D01*
X65505Y-36810D01*
X65495Y-36810D01*
X65287Y-36810D01*
X65287Y-37180D01*
X65347Y-37240D01*
X65372Y-37240D01*
X65460Y-37203D01*
X65500Y-37164D01*
X65539Y-37203D01*
X65627Y-37240D01*
X65652Y-37240D01*
X65712Y-37180D01*
X65712Y-39145D01*
X65212Y-38645D01*
X65212Y-37180D01*
X65212Y-36810D01*
X65212Y-36690D01*
X65212Y-36320D01*
X65212Y-33180D01*
X65212Y-32810D01*
X65005Y-32810D01*
X64995Y-32810D01*
X64787Y-32810D01*
X64787Y-33180D01*
X64847Y-33240D01*
X64872Y-33240D01*
X64960Y-33203D01*
X65000Y-33164D01*
X65039Y-33203D01*
X65127Y-33240D01*
X65152Y-33240D01*
X65212Y-33180D01*
X65212Y-36320D01*
X65152Y-36260D01*
X65127Y-36259D01*
X65039Y-36296D01*
X65000Y-36335D01*
X64960Y-36296D01*
X64872Y-36259D01*
X64847Y-36260D01*
X64787Y-36320D01*
X64787Y-36690D01*
X64995Y-36690D01*
X65005Y-36690D01*
X65212Y-36690D01*
X65212Y-36810D01*
X65005Y-36810D01*
X64995Y-36810D01*
X64787Y-36810D01*
X64787Y-37180D01*
X64847Y-37240D01*
X64872Y-37240D01*
X64960Y-37203D01*
X65000Y-37164D01*
X65039Y-37203D01*
X65127Y-37240D01*
X65152Y-37240D01*
X65212Y-37180D01*
X65212Y-38645D01*
X64209Y-37642D01*
X64317Y-37642D01*
X64433Y-37594D01*
X64522Y-37506D01*
X64570Y-37390D01*
X64570Y-37265D01*
X64545Y-37206D01*
X64627Y-37240D01*
X64652Y-37240D01*
X64712Y-37180D01*
X64712Y-36810D01*
X64682Y-36810D01*
X64682Y-36690D01*
X64712Y-36690D01*
X64712Y-36320D01*
X64652Y-36260D01*
X64627Y-36259D01*
X64539Y-36296D01*
X64471Y-36363D01*
X64445Y-36425D01*
X64443Y-36420D01*
X64404Y-36381D01*
X64352Y-36360D01*
X64297Y-36359D01*
X64147Y-36359D01*
X64095Y-36381D01*
X64056Y-36420D01*
X64035Y-36472D01*
X64034Y-36527D01*
X64034Y-36612D01*
X64010Y-36650D01*
X64010Y-36279D01*
X63990Y-36180D01*
X63933Y-36096D01*
X63849Y-36039D01*
X63750Y-36019D01*
X62578Y-36019D01*
X62478Y-36039D01*
X62450Y-36058D01*
X62394Y-36096D01*
X59527Y-38962D01*
X53359Y-38962D01*
X53372Y-38949D01*
X53439Y-38787D01*
X53440Y-38612D01*
X53373Y-38451D01*
X53249Y-38327D01*
X53087Y-38260D01*
X52912Y-38259D01*
X52751Y-38326D01*
X52627Y-38450D01*
X52560Y-38612D01*
X52559Y-38787D01*
X52626Y-38948D01*
X52640Y-38962D01*
X52265Y-38962D01*
X51492Y-38190D01*
X51537Y-38190D01*
X51698Y-38123D01*
X51822Y-37999D01*
X51889Y-37837D01*
X51890Y-37677D01*
X52127Y-37439D01*
X52637Y-37439D01*
X52627Y-37450D01*
X52560Y-37612D01*
X52559Y-37787D01*
X52626Y-37948D01*
X52750Y-38072D01*
X52912Y-38139D01*
X53087Y-38140D01*
X53248Y-38073D01*
X53372Y-37949D01*
X53439Y-37787D01*
X53440Y-37612D01*
X53373Y-37451D01*
X53362Y-37439D01*
X60290Y-37439D01*
X60389Y-37420D01*
X60474Y-37363D01*
X64433Y-33403D01*
X64433Y-33403D01*
X64471Y-33347D01*
X64490Y-33319D01*
X64490Y-33319D01*
X64509Y-33220D01*
X64510Y-33220D01*
X64510Y-33174D01*
X64539Y-33203D01*
X64627Y-33240D01*
X64652Y-33240D01*
X64712Y-33180D01*
X64712Y-32810D01*
X64682Y-32810D01*
X64682Y-32690D01*
X64712Y-32690D01*
X64712Y-32682D01*
X64787Y-32682D01*
X64787Y-32690D01*
X64995Y-32690D01*
X65005Y-32690D01*
X65212Y-32690D01*
X65212Y-32682D01*
X65287Y-32682D01*
X65287Y-32690D01*
X65495Y-32690D01*
X65505Y-32690D01*
X65712Y-32690D01*
X65712Y-32682D01*
X65787Y-32682D01*
X65787Y-32690D01*
X65995Y-32690D01*
X66005Y-32690D01*
X66212Y-32690D01*
X66212Y-32682D01*
X66287Y-32682D01*
X66287Y-32690D01*
X66317Y-32690D01*
X66317Y-32810D01*
X66287Y-32810D01*
X66287Y-33180D01*
X66347Y-33240D01*
X66372Y-33240D01*
X66408Y-33225D01*
X66408Y-33347D01*
X66456Y-33462D01*
X66544Y-33551D01*
X66660Y-33599D01*
X66785Y-33599D01*
X66901Y-33551D01*
X66990Y-33463D01*
X66990Y-34634D01*
X66983Y-34641D01*
X66935Y-34757D01*
X66934Y-34882D01*
X66982Y-34998D01*
X67071Y-35087D01*
X67187Y-35135D01*
X67197Y-35135D01*
X68285Y-36223D01*
X68285Y-36359D01*
X68147Y-36359D01*
X68095Y-36381D01*
X68056Y-36420D01*
X68035Y-36472D01*
X68034Y-36527D01*
X68034Y-37027D01*
X68056Y-37079D01*
X68070Y-37092D01*
X68070Y-37140D01*
X68083Y-37209D01*
X68122Y-37267D01*
X68464Y-37608D01*
X68450Y-37641D01*
X68450Y-37766D01*
X68498Y-37882D01*
X68587Y-37970D01*
X68702Y-38018D01*
X68828Y-38018D01*
X68944Y-37971D01*
X69032Y-37882D01*
X69080Y-37766D01*
X69080Y-37641D01*
X69033Y-37525D01*
X68944Y-37437D01*
X68828Y-37388D01*
X68753Y-37388D01*
X68443Y-37079D01*
X68464Y-37027D01*
X68465Y-36972D01*
X68465Y-36702D01*
X69709Y-37947D01*
X69709Y-37956D01*
X69757Y-38072D01*
X69845Y-38161D01*
X69961Y-38209D01*
X70086Y-38209D01*
X70202Y-38161D01*
X70291Y-38073D01*
X70339Y-37957D01*
X70339Y-37832D01*
X70291Y-37716D01*
X70202Y-37627D01*
X70087Y-37579D01*
X70077Y-37579D01*
X69315Y-36817D01*
X69336Y-36813D01*
X69357Y-36799D01*
X69392Y-36785D01*
X69418Y-36758D01*
X69440Y-36744D01*
X69454Y-36723D01*
X69480Y-36696D01*
X69495Y-36662D01*
X69509Y-36640D01*
X69514Y-36615D01*
X69528Y-36581D01*
X69528Y-36543D01*
X69533Y-36518D01*
X69533Y-35840D01*
X69547Y-35840D01*
X69880Y-35840D01*
X69940Y-35780D01*
X69940Y-35410D01*
X69932Y-35410D01*
X69932Y-35290D01*
X69940Y-35290D01*
X69940Y-35282D01*
X70060Y-35282D01*
X70060Y-35290D01*
X70067Y-35290D01*
X70067Y-35410D01*
X70060Y-35410D01*
X70060Y-35780D01*
X70120Y-35840D01*
X70452Y-35840D01*
X70547Y-35839D01*
X70625Y-35807D01*
X70625Y-41291D01*
X69773Y-42143D01*
X69704Y-42247D01*
X69680Y-42369D01*
X69680Y-42509D01*
X69472Y-42509D01*
X69420Y-42531D01*
X69381Y-42570D01*
X69360Y-42622D01*
X69359Y-42677D01*
X69359Y-43177D01*
X69381Y-43229D01*
X69420Y-43268D01*
X69472Y-43289D01*
X69527Y-43290D01*
X70527Y-43290D01*
X70579Y-43268D01*
X70618Y-43229D01*
X70639Y-43177D01*
X70640Y-43122D01*
X70640Y-42622D01*
X70618Y-42570D01*
X70579Y-42531D01*
X70527Y-42510D01*
X70472Y-42509D01*
X70320Y-42509D01*
X70320Y-42502D01*
X71105Y-41716D01*
X71105Y-44977D01*
X70740Y-45343D01*
X70740Y-44397D01*
X70740Y-43802D01*
X70703Y-43714D01*
X70636Y-43646D01*
X70547Y-43610D01*
X70452Y-43609D01*
X70120Y-43610D01*
X70060Y-43670D01*
X70060Y-44040D01*
X70680Y-44040D01*
X70740Y-43980D01*
X70740Y-43802D01*
X70740Y-44397D01*
X70740Y-44220D01*
X70680Y-44160D01*
X70060Y-44160D01*
X70060Y-44530D01*
X70120Y-44590D01*
X70452Y-44590D01*
X70547Y-44589D01*
X70636Y-44553D01*
X70703Y-44485D01*
X70740Y-44397D01*
X70740Y-45343D01*
X70533Y-45549D01*
X70411Y-45549D01*
X70295Y-45597D01*
X70206Y-45685D01*
X70158Y-45801D01*
X70158Y-45926D01*
X70206Y-46042D01*
X70294Y-46131D01*
X70410Y-46179D01*
X70535Y-46179D01*
X70651Y-46131D01*
X70740Y-46042D01*
X70788Y-45927D01*
X70788Y-45803D01*
X71412Y-45179D01*
X71412Y-45179D01*
X71451Y-45121D01*
X71465Y-45052D01*
X71465Y-45052D01*
X71465Y-34664D01*
X72025Y-35224D01*
X72025Y-37705D01*
X72038Y-37774D01*
X72077Y-37832D01*
X81588Y-47343D01*
X81560Y-47412D01*
X81559Y-47587D01*
X81626Y-47748D01*
X81750Y-47872D01*
X81912Y-47939D01*
X82087Y-47940D01*
X82248Y-47873D01*
X82372Y-47749D01*
X82439Y-47587D01*
X82440Y-47412D01*
X82373Y-47251D01*
X82249Y-47127D01*
X82087Y-47060D01*
X81912Y-47059D01*
X81843Y-47088D01*
X72385Y-37630D01*
X72385Y-35329D01*
X81046Y-43990D01*
X81046Y-45359D01*
X81059Y-45428D01*
X81098Y-45486D01*
X81739Y-46127D01*
X81739Y-46127D01*
X81746Y-46131D01*
X81746Y-46131D01*
X81627Y-46250D01*
X81560Y-46412D01*
X81559Y-46587D01*
X81626Y-46748D01*
X81750Y-46872D01*
X81912Y-46939D01*
X82087Y-46940D01*
X82248Y-46873D01*
X82372Y-46749D01*
X82439Y-46587D01*
X82440Y-46412D01*
X82373Y-46251D01*
X82302Y-46180D01*
X82425Y-46180D01*
X82588Y-46343D01*
X82560Y-46412D01*
X82559Y-46587D01*
X82626Y-46748D01*
X82750Y-46872D01*
X82912Y-46939D01*
X83087Y-46940D01*
X83248Y-46873D01*
X83372Y-46749D01*
X83439Y-46587D01*
X83440Y-46412D01*
X83440Y-47412D01*
X83373Y-47251D01*
X83249Y-47127D01*
X83087Y-47060D01*
X82912Y-47059D01*
X82751Y-47126D01*
X82627Y-47250D01*
X82560Y-47412D01*
X82559Y-47587D01*
X82626Y-47748D01*
X82750Y-47872D01*
X82912Y-47939D01*
X83087Y-47940D01*
X83248Y-47873D01*
X83372Y-47749D01*
X83439Y-47587D01*
X83440Y-47412D01*
X83440Y-47723D01*
X83353Y-47810D01*
X83339Y-47831D01*
X83313Y-47857D01*
X83298Y-47892D01*
X83284Y-47913D01*
X83279Y-47938D01*
X83265Y-47973D01*
X83265Y-48011D01*
X83260Y-48036D01*
X83265Y-48061D01*
X83265Y-48098D01*
X83279Y-48133D01*
X83284Y-48158D01*
X83291Y-48169D01*
X83249Y-48127D01*
X83087Y-48060D01*
X82912Y-48059D01*
X82751Y-48126D01*
X82627Y-48250D01*
X82560Y-48412D01*
X82559Y-48587D01*
X82626Y-48748D01*
X82750Y-48872D01*
X82912Y-48939D01*
X83087Y-48940D01*
X83248Y-48873D01*
X83372Y-48749D01*
X83439Y-48587D01*
X83440Y-48412D01*
X83390Y-48291D01*
X83401Y-48303D01*
X83436Y-48317D01*
X83457Y-48331D01*
X83482Y-48336D01*
X83517Y-48351D01*
X83554Y-48351D01*
X83580Y-48356D01*
X83605Y-48351D01*
X83642Y-48351D01*
X83677Y-48336D01*
X83702Y-48331D01*
X83723Y-48317D01*
X83758Y-48303D01*
X83785Y-48276D01*
X83806Y-48262D01*
X84876Y-47192D01*
X84876Y-47192D01*
X84922Y-47123D01*
X84945Y-47088D01*
X84945Y-47088D01*
X84969Y-46966D01*
X84970Y-46966D01*
X84970Y-43872D01*
X84979Y-43868D01*
X85018Y-43829D01*
X85039Y-43777D01*
X85040Y-43722D01*
X85040Y-42722D01*
X85018Y-42670D01*
X84979Y-42631D01*
X84970Y-42627D01*
X84970Y-41938D01*
X85311Y-41797D01*
X85576Y-41533D01*
X85719Y-41187D01*
X85720Y-40813D01*
X85720Y-42509D01*
X85552Y-42509D01*
X85464Y-42546D01*
X85396Y-42613D01*
X85360Y-42702D01*
X85359Y-42797D01*
X85360Y-43130D01*
X85420Y-43190D01*
X85790Y-43190D01*
X85790Y-43310D01*
X85420Y-43310D01*
X85360Y-43370D01*
X85359Y-43702D01*
X85360Y-43797D01*
X85396Y-43886D01*
X85464Y-43953D01*
X85552Y-43990D01*
X85730Y-43990D01*
X85790Y-43930D01*
X85790Y-51335D01*
X83375Y-51335D01*
X83517Y-51276D01*
X83775Y-51018D01*
X83914Y-50682D01*
X83915Y-50318D01*
X83776Y-49982D01*
X83535Y-49741D01*
X83568Y-49741D01*
X83637Y-49727D01*
X83696Y-49688D01*
X85398Y-47986D01*
X85521Y-47986D01*
X85637Y-47938D01*
X85725Y-47849D01*
X85773Y-47734D01*
X85774Y-47608D01*
X85726Y-47492D01*
X85637Y-47404D01*
X85521Y-47356D01*
X85396Y-47356D01*
X85280Y-47403D01*
X85192Y-47492D01*
X85144Y-47608D01*
X85143Y-47731D01*
X83494Y-49381D01*
X82440Y-49381D01*
X82440Y-48412D01*
X82373Y-48251D01*
X82249Y-48127D01*
X82087Y-48060D01*
X81912Y-48059D01*
X81751Y-48126D01*
X81627Y-48250D01*
X81560Y-48412D01*
X81559Y-48587D01*
X81626Y-48748D01*
X81750Y-48872D01*
X81912Y-48939D01*
X82087Y-48940D01*
X82248Y-48873D01*
X82372Y-48749D01*
X82439Y-48587D01*
X82440Y-48412D01*
X82440Y-49381D01*
X69940Y-49381D01*
X69940Y-44530D01*
X69940Y-44160D01*
X69940Y-44040D01*
X69940Y-43670D01*
X69880Y-43610D01*
X69547Y-43609D01*
X69452Y-43610D01*
X69363Y-43646D01*
X69296Y-43714D01*
X69259Y-43802D01*
X69260Y-43980D01*
X69320Y-44040D01*
X69940Y-44040D01*
X69940Y-44160D01*
X69320Y-44160D01*
X69260Y-44220D01*
X69259Y-44397D01*
X69296Y-44485D01*
X69363Y-44553D01*
X69452Y-44589D01*
X69547Y-44590D01*
X69880Y-44590D01*
X69940Y-44530D01*
X69940Y-49381D01*
X69128Y-49381D01*
X69128Y-39412D01*
X69081Y-39296D01*
X68993Y-39209D01*
X68993Y-38510D01*
X68993Y-38510D01*
X68980Y-38441D01*
X68956Y-38406D01*
X68941Y-38383D01*
X68941Y-38383D01*
X67930Y-37372D01*
X67930Y-37093D01*
X67943Y-37079D01*
X67964Y-37027D01*
X67965Y-36972D01*
X67965Y-36472D01*
X67943Y-36420D01*
X67904Y-36381D01*
X67852Y-36360D01*
X67797Y-36359D01*
X67647Y-36359D01*
X67595Y-36381D01*
X67556Y-36420D01*
X67535Y-36472D01*
X67534Y-36527D01*
X67534Y-37027D01*
X67556Y-37079D01*
X67570Y-37092D01*
X67570Y-37446D01*
X67583Y-37515D01*
X67622Y-37573D01*
X68633Y-38585D01*
X68633Y-38806D01*
X68605Y-38736D01*
X68516Y-38648D01*
X68400Y-38600D01*
X68390Y-38600D01*
X67510Y-37719D01*
X67510Y-36750D01*
X67490Y-36650D01*
X67465Y-36612D01*
X67465Y-36472D01*
X67443Y-36420D01*
X67404Y-36381D01*
X67352Y-36360D01*
X67297Y-36359D01*
X67147Y-36359D01*
X67095Y-36381D01*
X67056Y-36420D01*
X67035Y-36472D01*
X67034Y-36527D01*
X67034Y-36612D01*
X67009Y-36650D01*
X67000Y-36699D01*
X66990Y-36650D01*
X66965Y-36612D01*
X66965Y-36472D01*
X66943Y-36420D01*
X66904Y-36381D01*
X66852Y-36360D01*
X66797Y-36359D01*
X66647Y-36359D01*
X66595Y-36381D01*
X66556Y-36420D01*
X66554Y-36425D01*
X66528Y-36363D01*
X66460Y-36296D01*
X66372Y-36259D01*
X66347Y-36260D01*
X66287Y-36320D01*
X66287Y-36690D01*
X66317Y-36690D01*
X66317Y-36810D01*
X66287Y-36810D01*
X66287Y-37180D01*
X66347Y-37240D01*
X66367Y-37240D01*
X66242Y-37365D01*
X66232Y-37365D01*
X66212Y-37373D01*
X66212Y-37180D01*
X66212Y-36810D01*
X66212Y-36690D01*
X66212Y-36320D01*
X66212Y-33180D01*
X66212Y-32810D01*
X66005Y-32810D01*
X65995Y-32810D01*
X65787Y-32810D01*
X65787Y-33180D01*
X65847Y-33240D01*
X65872Y-33240D01*
X65960Y-33203D01*
X66000Y-33164D01*
X66039Y-33203D01*
X66127Y-33240D01*
X66152Y-33240D01*
X66212Y-33180D01*
X66212Y-36320D01*
X66152Y-36260D01*
X66127Y-36259D01*
X66039Y-36296D01*
X66000Y-36335D01*
X65960Y-36296D01*
X65872Y-36259D01*
X65847Y-36260D01*
X65787Y-36320D01*
X65787Y-36690D01*
X65995Y-36690D01*
X66005Y-36690D01*
X66212Y-36690D01*
X66212Y-36810D01*
X66005Y-36810D01*
X65995Y-36810D01*
X65787Y-36810D01*
X65787Y-37180D01*
X65847Y-37240D01*
X65872Y-37240D01*
X65960Y-37203D01*
X66000Y-37164D01*
X66039Y-37203D01*
X66127Y-37240D01*
X66152Y-37240D01*
X66212Y-37180D01*
X66212Y-37373D01*
X66116Y-37413D01*
X66027Y-37502D01*
X65979Y-37617D01*
X65979Y-37743D01*
X66027Y-37858D01*
X66116Y-37947D01*
X66231Y-37995D01*
X66357Y-37995D01*
X66473Y-37947D01*
X66561Y-37859D01*
X66609Y-37743D01*
X66609Y-37733D01*
X66933Y-37409D01*
X66933Y-37409D01*
X66990Y-37325D01*
X66990Y-37827D01*
X67009Y-37926D01*
X67066Y-38010D01*
X68022Y-38967D01*
X68022Y-38977D01*
X68070Y-39093D01*
X68159Y-39181D01*
X68274Y-39229D01*
X68400Y-39230D01*
X68516Y-39182D01*
X68604Y-39093D01*
X68633Y-39023D01*
X68633Y-39209D01*
X68547Y-39296D01*
X68498Y-39411D01*
X68498Y-39537D01*
X68546Y-39653D01*
X68635Y-39741D01*
X68751Y-39789D01*
X68876Y-39789D01*
X68992Y-39742D01*
X69080Y-39653D01*
X69128Y-39537D01*
X69128Y-39412D01*
X69128Y-49381D01*
X66212Y-49381D01*
X66212Y-45930D01*
X66212Y-45560D01*
X66005Y-45560D01*
X65995Y-45560D01*
X65787Y-45560D01*
X65787Y-45930D01*
X65847Y-45990D01*
X65872Y-45990D01*
X65960Y-45953D01*
X66000Y-45914D01*
X66039Y-45953D01*
X66127Y-45990D01*
X66152Y-45990D01*
X66212Y-45930D01*
X66212Y-49381D01*
X65712Y-49381D01*
X65712Y-45930D01*
X65712Y-45560D01*
X65505Y-45560D01*
X65495Y-45560D01*
X65287Y-45560D01*
X65287Y-45930D01*
X65347Y-45990D01*
X65372Y-45990D01*
X65460Y-45953D01*
X65500Y-45914D01*
X65539Y-45953D01*
X65627Y-45990D01*
X65652Y-45990D01*
X65712Y-45930D01*
X65712Y-49381D01*
X65212Y-49381D01*
X65212Y-45930D01*
X65212Y-45560D01*
X65005Y-45560D01*
X64995Y-45560D01*
X64787Y-45560D01*
X64787Y-45930D01*
X64847Y-45990D01*
X64872Y-45990D01*
X64960Y-45953D01*
X65000Y-45914D01*
X65039Y-45953D01*
X65127Y-45990D01*
X65152Y-45990D01*
X65212Y-45930D01*
X65212Y-49381D01*
X64766Y-49381D01*
X64697Y-49395D01*
X64639Y-49434D01*
X63440Y-50633D01*
X63440Y-50287D01*
X63406Y-50119D01*
X63311Y-49976D01*
X63168Y-49880D01*
X63000Y-49847D01*
X62831Y-49880D01*
X62688Y-49976D01*
X62593Y-50119D01*
X62560Y-50287D01*
X62560Y-50712D01*
X62593Y-50880D01*
X62651Y-50967D01*
X62470Y-50967D01*
X62475Y-50962D01*
X62540Y-50760D01*
X62540Y-50560D01*
X62540Y-50440D01*
X62540Y-50240D01*
X62475Y-50037D01*
X62339Y-49875D01*
X62143Y-49779D01*
X62060Y-49823D01*
X62060Y-50440D01*
X62540Y-50440D01*
X62540Y-50560D01*
X62060Y-50560D01*
X62060Y-50567D01*
X61940Y-50567D01*
X61940Y-50560D01*
X61932Y-50560D01*
X61932Y-50440D01*
X61940Y-50440D01*
X61940Y-49823D01*
X61856Y-49779D01*
X61717Y-49847D01*
X61717Y-47177D01*
X62877Y-46017D01*
X62916Y-45959D01*
X62930Y-45890D01*
X62930Y-45843D01*
X62943Y-45829D01*
X62964Y-45777D01*
X62965Y-45722D01*
X62965Y-45638D01*
X63023Y-45726D01*
X63034Y-45733D01*
X63034Y-45777D01*
X63056Y-45829D01*
X63095Y-45868D01*
X63147Y-45889D01*
X63202Y-45890D01*
X63352Y-45890D01*
X63404Y-45868D01*
X63443Y-45829D01*
X63464Y-45777D01*
X63465Y-45733D01*
X63476Y-45726D01*
X63490Y-45705D01*
X63490Y-45862D01*
X62096Y-47255D01*
X62040Y-47339D01*
X62020Y-47439D01*
X62020Y-47479D01*
X62013Y-47486D01*
X61965Y-47602D01*
X61965Y-47727D01*
X62013Y-47843D01*
X62102Y-47931D01*
X62217Y-47979D01*
X62343Y-47980D01*
X62458Y-47932D01*
X62547Y-47843D01*
X62595Y-47727D01*
X62595Y-47602D01*
X62563Y-47524D01*
X63933Y-46153D01*
X63933Y-46153D01*
X63971Y-46097D01*
X63990Y-46069D01*
X63990Y-46069D01*
X64000Y-46020D01*
X64009Y-46069D01*
X64013Y-46075D01*
X64013Y-46108D01*
X64061Y-46224D01*
X64150Y-46313D01*
X64265Y-46361D01*
X64391Y-46361D01*
X64506Y-46313D01*
X64595Y-46225D01*
X64643Y-46109D01*
X64643Y-45990D01*
X64652Y-45990D01*
X64712Y-45930D01*
X64712Y-45560D01*
X64682Y-45560D01*
X64682Y-45440D01*
X64712Y-45440D01*
X64712Y-45432D01*
X64787Y-45432D01*
X64787Y-45440D01*
X64995Y-45440D01*
X65005Y-45440D01*
X65212Y-45440D01*
X65212Y-45432D01*
X65287Y-45432D01*
X65287Y-45440D01*
X65495Y-45440D01*
X65505Y-45440D01*
X65712Y-45440D01*
X65712Y-45432D01*
X65787Y-45432D01*
X65787Y-45440D01*
X65995Y-45440D01*
X66005Y-45440D01*
X66212Y-45440D01*
X66212Y-45432D01*
X66287Y-45432D01*
X66287Y-45440D01*
X66317Y-45440D01*
X66317Y-45560D01*
X66287Y-45560D01*
X66287Y-45930D01*
X66345Y-45988D01*
X66345Y-46111D01*
X66393Y-46227D01*
X66481Y-46315D01*
X66597Y-46363D01*
X66723Y-46363D01*
X66838Y-46316D01*
X66927Y-46227D01*
X66975Y-46111D01*
X66975Y-46091D01*
X66990Y-46069D01*
X66990Y-46076D01*
X67009Y-46175D01*
X67066Y-46260D01*
X67256Y-46451D01*
X67256Y-46460D01*
X67304Y-46576D01*
X67393Y-46665D01*
X67508Y-46713D01*
X67634Y-46713D01*
X67750Y-46665D01*
X67838Y-46577D01*
X67852Y-46543D01*
X67873Y-46594D01*
X67962Y-46683D01*
X68078Y-46731D01*
X68203Y-46731D01*
X68319Y-46683D01*
X68408Y-46595D01*
X68456Y-46479D01*
X68456Y-46354D01*
X68408Y-46238D01*
X68319Y-46149D01*
X68204Y-46101D01*
X68080Y-46101D01*
X67864Y-45885D01*
X67904Y-45868D01*
X67943Y-45829D01*
X67964Y-45777D01*
X67965Y-45722D01*
X67965Y-45222D01*
X67943Y-45170D01*
X67943Y-45170D01*
X68104Y-45010D01*
X68083Y-45040D01*
X68070Y-45109D01*
X68070Y-45156D01*
X68056Y-45170D01*
X68035Y-45222D01*
X68034Y-45277D01*
X68034Y-45777D01*
X68056Y-45829D01*
X68095Y-45868D01*
X68147Y-45889D01*
X68202Y-45890D01*
X68352Y-45890D01*
X68404Y-45868D01*
X68443Y-45829D01*
X68464Y-45777D01*
X68465Y-45722D01*
X68465Y-45222D01*
X68443Y-45170D01*
X68443Y-45170D01*
X68780Y-44833D01*
X68819Y-44775D01*
X68833Y-44706D01*
X68833Y-44706D01*
X68833Y-40675D01*
X68852Y-40656D01*
X68900Y-40540D01*
X68900Y-40415D01*
X68853Y-40299D01*
X68764Y-40210D01*
X68648Y-40162D01*
X68523Y-40162D01*
X68407Y-40210D01*
X68319Y-40299D01*
X68270Y-40414D01*
X68270Y-40540D01*
X68318Y-40656D01*
X68320Y-40658D01*
X68260Y-40658D01*
X68144Y-40705D01*
X68070Y-40780D01*
X68070Y-40346D01*
X68045Y-40223D01*
X67976Y-40120D01*
X67976Y-40120D01*
X67180Y-39324D01*
X67159Y-39310D01*
X67133Y-39284D01*
X67098Y-39269D01*
X67077Y-39255D01*
X67052Y-39250D01*
X67017Y-39236D01*
X66979Y-39236D01*
X66954Y-39231D01*
X66929Y-39236D01*
X66892Y-39235D01*
X66857Y-39250D01*
X66832Y-39255D01*
X66810Y-39269D01*
X66776Y-39283D01*
X66749Y-39310D01*
X66728Y-39324D01*
X66714Y-39345D01*
X66687Y-39372D01*
X66673Y-39407D01*
X66659Y-39428D01*
X66654Y-39453D01*
X66639Y-39488D01*
X66639Y-39525D01*
X66634Y-39551D01*
X66639Y-39576D01*
X66639Y-39613D01*
X66653Y-39648D01*
X66659Y-39673D01*
X66673Y-39694D01*
X66687Y-39729D01*
X66714Y-39755D01*
X66728Y-39777D01*
X67430Y-40478D01*
X67430Y-41157D01*
X67404Y-41131D01*
X67352Y-41110D01*
X67297Y-41109D01*
X67147Y-41109D01*
X67095Y-41131D01*
X67056Y-41170D01*
X67035Y-41222D01*
X67034Y-41277D01*
X67034Y-41362D01*
X67009Y-41400D01*
X67000Y-41449D01*
X66990Y-41400D01*
X66965Y-41362D01*
X66965Y-41222D01*
X66943Y-41170D01*
X66904Y-41131D01*
X66852Y-41110D01*
X66797Y-41109D01*
X66647Y-41109D01*
X66595Y-41131D01*
X66556Y-41170D01*
X66554Y-41175D01*
X66528Y-41113D01*
X66460Y-41046D01*
X66372Y-41009D01*
X66347Y-41010D01*
X66287Y-41070D01*
X66287Y-41440D01*
X66317Y-41440D01*
X66317Y-41560D01*
X66287Y-41560D01*
X66287Y-41930D01*
X66347Y-41990D01*
X66372Y-41990D01*
X66460Y-41953D01*
X66490Y-41924D01*
X66490Y-41970D01*
X66490Y-43558D01*
X66509Y-43657D01*
X66566Y-43742D01*
X66765Y-43941D01*
X66765Y-43951D01*
X66813Y-44067D01*
X66902Y-44155D01*
X66978Y-44187D01*
X66516Y-44649D01*
X66212Y-44649D01*
X66212Y-41930D01*
X66212Y-41560D01*
X66212Y-41440D01*
X66212Y-41070D01*
X66152Y-41010D01*
X66127Y-41009D01*
X66039Y-41046D01*
X66000Y-41085D01*
X65960Y-41046D01*
X65872Y-41009D01*
X65847Y-41010D01*
X65787Y-41070D01*
X65787Y-41440D01*
X65995Y-41440D01*
X66005Y-41440D01*
X66212Y-41440D01*
X66212Y-41560D01*
X66005Y-41560D01*
X65995Y-41560D01*
X65787Y-41560D01*
X65787Y-41930D01*
X65847Y-41990D01*
X65872Y-41990D01*
X65960Y-41953D01*
X66000Y-41914D01*
X66039Y-41953D01*
X66127Y-41990D01*
X66152Y-41990D01*
X66212Y-41930D01*
X66212Y-44649D01*
X65712Y-44649D01*
X65712Y-41930D01*
X65712Y-41560D01*
X65712Y-41440D01*
X65712Y-41070D01*
X65652Y-41010D01*
X65627Y-41009D01*
X65539Y-41046D01*
X65500Y-41085D01*
X65460Y-41046D01*
X65372Y-41009D01*
X65347Y-41010D01*
X65287Y-41070D01*
X65287Y-41440D01*
X65495Y-41440D01*
X65505Y-41440D01*
X65712Y-41440D01*
X65712Y-41560D01*
X65505Y-41560D01*
X65495Y-41560D01*
X65287Y-41560D01*
X65287Y-41930D01*
X65347Y-41990D01*
X65372Y-41990D01*
X65460Y-41953D01*
X65500Y-41914D01*
X65539Y-41953D01*
X65627Y-41990D01*
X65652Y-41990D01*
X65712Y-41930D01*
X65712Y-44649D01*
X65212Y-44649D01*
X65212Y-41930D01*
X65212Y-41560D01*
X65212Y-41440D01*
X65212Y-41070D01*
X65152Y-41010D01*
X65127Y-41009D01*
X65039Y-41046D01*
X65000Y-41085D01*
X64960Y-41046D01*
X64872Y-41009D01*
X64847Y-41010D01*
X64787Y-41070D01*
X64787Y-41440D01*
X64995Y-41440D01*
X65005Y-41440D01*
X65212Y-41440D01*
X65212Y-41560D01*
X65005Y-41560D01*
X64995Y-41560D01*
X64787Y-41560D01*
X64787Y-41930D01*
X64847Y-41990D01*
X64872Y-41990D01*
X64960Y-41953D01*
X65000Y-41914D01*
X65039Y-41953D01*
X65127Y-41990D01*
X65152Y-41990D01*
X65212Y-41930D01*
X65212Y-44649D01*
X63250Y-44649D01*
X62538Y-44649D01*
X62416Y-44674D01*
X62312Y-44743D01*
X59773Y-47282D01*
X59704Y-47385D01*
X59680Y-47508D01*
X59680Y-49989D01*
X59593Y-50119D01*
X59560Y-50287D01*
X59560Y-50712D01*
X59593Y-50880D01*
X59688Y-51023D01*
X59831Y-51119D01*
X60000Y-51152D01*
X60168Y-51119D01*
X60311Y-51023D01*
X60406Y-50880D01*
X60440Y-50712D01*
X60440Y-50287D01*
X60406Y-50119D01*
X60320Y-49989D01*
X60320Y-47640D01*
X62534Y-45425D01*
X62534Y-45777D01*
X62556Y-45829D01*
X62556Y-45829D01*
X61409Y-46975D01*
X61370Y-47034D01*
X61357Y-47103D01*
X61357Y-49896D01*
X61339Y-49875D01*
X61143Y-49779D01*
X61060Y-49823D01*
X61060Y-50440D01*
X61067Y-50440D01*
X61067Y-50560D01*
X61060Y-50560D01*
X61060Y-51176D01*
X61143Y-51220D01*
X61339Y-51124D01*
X61424Y-51022D01*
X61677Y-51275D01*
X61677Y-51275D01*
X61735Y-51314D01*
X61804Y-51327D01*
X63180Y-51327D01*
X63248Y-51314D01*
X63307Y-51275D01*
X64841Y-49741D01*
X82464Y-49741D01*
X82224Y-49981D01*
X82085Y-50317D01*
X82084Y-50681D01*
X82223Y-51017D01*
X82481Y-51275D01*
X82624Y-51335D01*
X81440Y-51335D01*
X81440Y-50712D01*
X81440Y-50287D01*
X81406Y-50119D01*
X81311Y-49976D01*
X81168Y-49880D01*
X81000Y-49847D01*
X80831Y-49880D01*
X80688Y-49976D01*
X80593Y-50119D01*
X80560Y-50287D01*
X80560Y-50712D01*
X80593Y-50880D01*
X80688Y-51023D01*
X80831Y-51119D01*
X81000Y-51152D01*
X81168Y-51119D01*
X81311Y-51023D01*
X81406Y-50880D01*
X81440Y-50712D01*
X81440Y-51335D01*
X80440Y-51335D01*
X80440Y-50712D01*
X80440Y-50287D01*
X80406Y-50119D01*
X80311Y-49976D01*
X80168Y-49880D01*
X80000Y-49847D01*
X79831Y-49880D01*
X79688Y-49976D01*
X79593Y-50119D01*
X79560Y-50287D01*
X79560Y-50712D01*
X79593Y-50880D01*
X79688Y-51023D01*
X79831Y-51119D01*
X80000Y-51152D01*
X80168Y-51119D01*
X80311Y-51023D01*
X80406Y-50880D01*
X80440Y-50712D01*
X80440Y-51335D01*
X79440Y-51335D01*
X79440Y-50712D01*
X79440Y-50287D01*
X79406Y-50119D01*
X79311Y-49976D01*
X79168Y-49880D01*
X79000Y-49847D01*
X78831Y-49880D01*
X78688Y-49976D01*
X78593Y-50119D01*
X78560Y-50287D01*
X78560Y-50712D01*
X78593Y-50880D01*
X78688Y-51023D01*
X78831Y-51119D01*
X79000Y-51152D01*
X79168Y-51119D01*
X79311Y-51023D01*
X79406Y-50880D01*
X79440Y-50712D01*
X79440Y-51335D01*
X78440Y-51335D01*
X78440Y-50712D01*
X78440Y-50287D01*
X78406Y-50119D01*
X78311Y-49976D01*
X78168Y-49880D01*
X78000Y-49847D01*
X77831Y-49880D01*
X77688Y-49976D01*
X77593Y-50119D01*
X77560Y-50287D01*
X77560Y-50712D01*
X77593Y-50880D01*
X77688Y-51023D01*
X77831Y-51119D01*
X78000Y-51152D01*
X78168Y-51119D01*
X78311Y-51023D01*
X78406Y-50880D01*
X78440Y-50712D01*
X78440Y-51335D01*
X77440Y-51335D01*
X77440Y-50712D01*
X77440Y-50287D01*
X77406Y-50119D01*
X77311Y-49976D01*
X77168Y-49880D01*
X77000Y-49847D01*
X76831Y-49880D01*
X76688Y-49976D01*
X76593Y-50119D01*
X76560Y-50287D01*
X76560Y-50712D01*
X76593Y-50880D01*
X76688Y-51023D01*
X76831Y-51119D01*
X77000Y-51152D01*
X77168Y-51119D01*
X77311Y-51023D01*
X77406Y-50880D01*
X77440Y-50712D01*
X77440Y-51335D01*
X76440Y-51335D01*
X76440Y-50712D01*
X76440Y-50287D01*
X76406Y-50119D01*
X76311Y-49976D01*
X76168Y-49880D01*
X76000Y-49847D01*
X75831Y-49880D01*
X75688Y-49976D01*
X75593Y-50119D01*
X75560Y-50287D01*
X75560Y-50712D01*
X75593Y-50880D01*
X75688Y-51023D01*
X75831Y-51119D01*
X76000Y-51152D01*
X76168Y-51119D01*
X76311Y-51023D01*
X76406Y-50880D01*
X76440Y-50712D01*
X76440Y-51335D01*
X75440Y-51335D01*
X75440Y-50712D01*
X75440Y-50287D01*
X75406Y-50119D01*
X75311Y-49976D01*
X75168Y-49880D01*
X75000Y-49847D01*
X74831Y-49880D01*
X74688Y-49976D01*
X74593Y-50119D01*
X74560Y-50287D01*
X74560Y-50712D01*
X74593Y-50880D01*
X74688Y-51023D01*
X74831Y-51119D01*
X75000Y-51152D01*
X75168Y-51119D01*
X75311Y-51023D01*
X75406Y-50880D01*
X75440Y-50712D01*
X75440Y-51335D01*
X74440Y-51335D01*
X74440Y-50712D01*
X74440Y-50287D01*
X74406Y-50119D01*
X74311Y-49976D01*
X74168Y-49880D01*
X74000Y-49847D01*
X73831Y-49880D01*
X73688Y-49976D01*
X73593Y-50119D01*
X73560Y-50287D01*
X73560Y-50712D01*
X73593Y-50880D01*
X73688Y-51023D01*
X73831Y-51119D01*
X74000Y-51152D01*
X74168Y-51119D01*
X74311Y-51023D01*
X74406Y-50880D01*
X74440Y-50712D01*
X74440Y-51335D01*
X72440Y-51335D01*
X72440Y-50712D01*
X72440Y-50287D01*
X72406Y-50119D01*
X72311Y-49976D01*
X72168Y-49880D01*
X72000Y-49847D01*
X71831Y-49880D01*
X71688Y-49976D01*
X71593Y-50119D01*
X71560Y-50287D01*
X71560Y-50712D01*
X71593Y-50880D01*
X71688Y-51023D01*
X71831Y-51119D01*
X72000Y-51152D01*
X72168Y-51119D01*
X72311Y-51023D01*
X72406Y-50880D01*
X72440Y-50712D01*
X72440Y-51335D01*
X71440Y-51335D01*
X71440Y-50712D01*
X71440Y-50287D01*
X71406Y-50119D01*
X71311Y-49976D01*
X71168Y-49880D01*
X71000Y-49847D01*
X70831Y-49880D01*
X70688Y-49976D01*
X70593Y-50119D01*
X70560Y-50287D01*
X70560Y-50712D01*
X70593Y-50880D01*
X70688Y-51023D01*
X70831Y-51119D01*
X71000Y-51152D01*
X71168Y-51119D01*
X71311Y-51023D01*
X71406Y-50880D01*
X71440Y-50712D01*
X71440Y-51335D01*
X70440Y-51335D01*
X70440Y-50712D01*
X70440Y-50287D01*
X70406Y-50119D01*
X70311Y-49976D01*
X70168Y-49880D01*
X70000Y-49847D01*
X69831Y-49880D01*
X69688Y-49976D01*
X69593Y-50119D01*
X69560Y-50287D01*
X69560Y-50712D01*
X69593Y-50880D01*
X69688Y-51023D01*
X69831Y-51119D01*
X70000Y-51152D01*
X70168Y-51119D01*
X70311Y-51023D01*
X70406Y-50880D01*
X70440Y-50712D01*
X70440Y-51335D01*
X69440Y-51335D01*
X69440Y-50712D01*
X69440Y-50287D01*
X69406Y-50119D01*
X69311Y-49976D01*
X69168Y-49880D01*
X69000Y-49847D01*
X68831Y-49880D01*
X68688Y-49976D01*
X68593Y-50119D01*
X68560Y-50287D01*
X68560Y-50712D01*
X68593Y-50880D01*
X68688Y-51023D01*
X68831Y-51119D01*
X69000Y-51152D01*
X69168Y-51119D01*
X69311Y-51023D01*
X69406Y-50880D01*
X69440Y-50712D01*
X69440Y-51335D01*
X68440Y-51335D01*
X68440Y-50712D01*
X68440Y-50287D01*
X68406Y-50119D01*
X68311Y-49976D01*
X68168Y-49880D01*
X68000Y-49847D01*
X67831Y-49880D01*
X67688Y-49976D01*
X67593Y-50119D01*
X67560Y-50287D01*
X67560Y-50712D01*
X67593Y-50880D01*
X67688Y-51023D01*
X67831Y-51119D01*
X68000Y-51152D01*
X68168Y-51119D01*
X68311Y-51023D01*
X68406Y-50880D01*
X68440Y-50712D01*
X68440Y-51335D01*
X67440Y-51335D01*
X67440Y-50712D01*
X67440Y-50287D01*
X67406Y-50119D01*
X67311Y-49976D01*
X67168Y-49880D01*
X67000Y-49847D01*
X66831Y-49880D01*
X66688Y-49976D01*
X66593Y-50119D01*
X66560Y-50287D01*
X66560Y-50712D01*
X66593Y-50880D01*
X66688Y-51023D01*
X66831Y-51119D01*
X67000Y-51152D01*
X67168Y-51119D01*
X67311Y-51023D01*
X67406Y-50880D01*
X67440Y-50712D01*
X67440Y-51335D01*
X66440Y-51335D01*
X66440Y-50712D01*
X66440Y-50287D01*
X66406Y-50119D01*
X66311Y-49976D01*
X66168Y-49880D01*
X66000Y-49847D01*
X65831Y-49880D01*
X65688Y-49976D01*
X65593Y-50119D01*
X65560Y-50287D01*
X65560Y-50712D01*
X65593Y-50880D01*
X65688Y-51023D01*
X65831Y-51119D01*
X66000Y-51152D01*
X66168Y-51119D01*
X66311Y-51023D01*
X66406Y-50880D01*
X66440Y-50712D01*
X66440Y-51335D01*
X65440Y-51335D01*
X65440Y-50712D01*
X65440Y-50287D01*
X65406Y-50119D01*
X65311Y-49976D01*
X65168Y-49880D01*
X65000Y-49847D01*
X64831Y-49880D01*
X64688Y-49976D01*
X64593Y-50119D01*
X64560Y-50287D01*
X64560Y-50712D01*
X64593Y-50880D01*
X64688Y-51023D01*
X64831Y-51119D01*
X65000Y-51152D01*
X65168Y-51119D01*
X65311Y-51023D01*
X65406Y-50880D01*
X65440Y-50712D01*
X65440Y-51335D01*
X60940Y-51335D01*
X60940Y-51176D01*
X60940Y-50560D01*
X60940Y-50440D01*
X60940Y-49823D01*
X60856Y-49779D01*
X60660Y-49875D01*
X60524Y-50037D01*
X60460Y-50240D01*
X60460Y-50440D01*
X60940Y-50440D01*
X60940Y-50560D01*
X60460Y-50560D01*
X60460Y-50760D01*
X60524Y-50962D01*
X60660Y-51124D01*
X60856Y-51220D01*
X60940Y-51176D01*
X60940Y-51335D01*
X59440Y-51335D01*
X59440Y-50712D01*
X59440Y-50287D01*
X59406Y-50119D01*
X59311Y-49976D01*
X59168Y-49880D01*
X59000Y-49847D01*
X58831Y-49880D01*
X58688Y-49976D01*
X58593Y-50119D01*
X58560Y-50287D01*
X58560Y-50712D01*
X58593Y-50880D01*
X58688Y-51023D01*
X58831Y-51119D01*
X59000Y-51152D01*
X59168Y-51119D01*
X59311Y-51023D01*
X59406Y-50880D01*
X59440Y-50712D01*
X59440Y-51335D01*
X58440Y-51335D01*
X58440Y-50712D01*
X58440Y-50287D01*
X58406Y-50119D01*
X58311Y-49976D01*
X58168Y-49880D01*
X58000Y-49847D01*
X57831Y-49880D01*
X57688Y-49976D01*
X57593Y-50119D01*
X57560Y-50287D01*
X57560Y-50712D01*
X57593Y-50880D01*
X57688Y-51023D01*
X57831Y-51119D01*
X58000Y-51152D01*
X58168Y-51119D01*
X58311Y-51023D01*
X58406Y-50880D01*
X58440Y-50712D01*
X58440Y-51335D01*
X57440Y-51335D01*
X57440Y-50712D01*
X57440Y-50287D01*
X57406Y-50119D01*
X57311Y-49976D01*
X57168Y-49880D01*
X57000Y-49847D01*
X56831Y-49880D01*
X56688Y-49976D01*
X56593Y-50119D01*
X56560Y-50287D01*
X56560Y-50712D01*
X56593Y-50880D01*
X56688Y-51023D01*
X56831Y-51119D01*
X57000Y-51152D01*
X57168Y-51119D01*
X57311Y-51023D01*
X57406Y-50880D01*
X57440Y-50712D01*
X57440Y-51335D01*
X56440Y-51335D01*
X56440Y-50712D01*
X56440Y-50287D01*
X56406Y-50119D01*
X56311Y-49976D01*
X56168Y-49880D01*
X56000Y-49847D01*
X55831Y-49880D01*
X55688Y-49976D01*
X55593Y-50119D01*
X55560Y-50287D01*
X55560Y-50712D01*
X55593Y-50880D01*
X55688Y-51023D01*
X55831Y-51119D01*
X56000Y-51152D01*
X56168Y-51119D01*
X56311Y-51023D01*
X56406Y-50880D01*
X56440Y-50712D01*
X56440Y-51335D01*
X53440Y-51335D01*
X53440Y-48612D01*
X53440Y-47612D01*
X53373Y-47451D01*
X53249Y-47327D01*
X53087Y-47260D01*
X52912Y-47259D01*
X52751Y-47326D01*
X52627Y-47450D01*
X52560Y-47612D01*
X52559Y-47787D01*
X52626Y-47948D01*
X52750Y-48072D01*
X52912Y-48139D01*
X53087Y-48140D01*
X53248Y-48073D01*
X53372Y-47949D01*
X53439Y-47787D01*
X53440Y-47612D01*
X53440Y-48612D01*
X53373Y-48451D01*
X53249Y-48327D01*
X53087Y-48260D01*
X52912Y-48259D01*
X52751Y-48326D01*
X52627Y-48450D01*
X52560Y-48612D01*
X52559Y-48787D01*
X52626Y-48948D01*
X52750Y-49072D01*
X52912Y-49139D01*
X53087Y-49140D01*
X53248Y-49073D01*
X53372Y-48949D01*
X53439Y-48787D01*
X53440Y-48612D01*
X53440Y-51335D01*
X50875Y-51335D01*
X51017Y-51276D01*
X51275Y-51018D01*
X51414Y-50682D01*
X51415Y-50318D01*
X51276Y-49982D01*
X51018Y-49724D01*
X50996Y-49715D01*
X50996Y-47319D01*
X50996Y-46319D01*
X50981Y-46105D01*
X50928Y-45976D01*
X50890Y-45964D01*
X50890Y-45162D01*
X50823Y-45001D01*
X50770Y-44947D01*
X50770Y-44552D01*
X50822Y-44499D01*
X50889Y-44337D01*
X50890Y-44162D01*
X50823Y-44001D01*
X50699Y-43877D01*
X50537Y-43810D01*
X50362Y-43809D01*
X50288Y-43840D01*
X49440Y-43840D01*
X49440Y-37662D01*
X49440Y-36662D01*
X49440Y-35662D01*
X49373Y-35501D01*
X49249Y-35377D01*
X49087Y-35310D01*
X48912Y-35309D01*
X48751Y-35376D01*
X48627Y-35500D01*
X48560Y-35662D01*
X48559Y-35837D01*
X48626Y-35998D01*
X48750Y-36122D01*
X48912Y-36189D01*
X49087Y-36190D01*
X49248Y-36123D01*
X49372Y-35999D01*
X49439Y-35837D01*
X49440Y-35662D01*
X49440Y-36662D01*
X49373Y-36501D01*
X49249Y-36377D01*
X49087Y-36310D01*
X48912Y-36309D01*
X48751Y-36376D01*
X48627Y-36500D01*
X48560Y-36662D01*
X48559Y-36837D01*
X48626Y-36998D01*
X48750Y-37122D01*
X48912Y-37189D01*
X49087Y-37190D01*
X49248Y-37123D01*
X49372Y-36999D01*
X49439Y-36837D01*
X49440Y-36662D01*
X49440Y-37662D01*
X49373Y-37501D01*
X49249Y-37377D01*
X49087Y-37310D01*
X48912Y-37309D01*
X48751Y-37376D01*
X48627Y-37500D01*
X48560Y-37662D01*
X48559Y-37837D01*
X48626Y-37998D01*
X48750Y-38122D01*
X48912Y-38189D01*
X49087Y-38190D01*
X49248Y-38123D01*
X49372Y-37999D01*
X49439Y-37837D01*
X49440Y-37662D01*
X49440Y-43840D01*
X48546Y-43840D01*
X48546Y-37319D01*
X48546Y-36319D01*
X48531Y-36105D01*
X48478Y-35976D01*
X48386Y-35948D01*
X48301Y-36032D01*
X48301Y-35863D01*
X48273Y-35771D01*
X48069Y-35703D01*
X47855Y-35718D01*
X47726Y-35771D01*
X47698Y-35863D01*
X48000Y-36165D01*
X48301Y-35863D01*
X48301Y-36032D01*
X48084Y-36250D01*
X48386Y-36551D01*
X48478Y-36523D01*
X48546Y-36319D01*
X48546Y-37319D01*
X48531Y-37105D01*
X48478Y-36976D01*
X48386Y-36948D01*
X48301Y-37032D01*
X48301Y-36863D01*
X48273Y-36771D01*
X48214Y-36752D01*
X48273Y-36728D01*
X48301Y-36636D01*
X48000Y-36334D01*
X47915Y-36419D01*
X47915Y-36250D01*
X47613Y-35948D01*
X47521Y-35976D01*
X47453Y-36180D01*
X47468Y-36394D01*
X47521Y-36523D01*
X47613Y-36551D01*
X47915Y-36250D01*
X47915Y-36419D01*
X47698Y-36636D01*
X47726Y-36728D01*
X47785Y-36747D01*
X47726Y-36771D01*
X47698Y-36863D01*
X48000Y-37165D01*
X48301Y-36863D01*
X48301Y-37032D01*
X48084Y-37250D01*
X48386Y-37551D01*
X48478Y-37523D01*
X48546Y-37319D01*
X48546Y-43840D01*
X48301Y-43840D01*
X48301Y-37636D01*
X48000Y-37334D01*
X47915Y-37419D01*
X47915Y-37250D01*
X47613Y-36948D01*
X47521Y-36976D01*
X47453Y-37180D01*
X47468Y-37394D01*
X47521Y-37523D01*
X47613Y-37551D01*
X47915Y-37250D01*
X47915Y-37419D01*
X47698Y-37636D01*
X47726Y-37728D01*
X47930Y-37796D01*
X48144Y-37781D01*
X48273Y-37728D01*
X48301Y-37636D01*
X48301Y-43840D01*
X48161Y-43840D01*
X48087Y-43810D01*
X47912Y-43809D01*
X47751Y-43876D01*
X47627Y-44000D01*
X47560Y-44162D01*
X47559Y-44337D01*
X47626Y-44498D01*
X47680Y-44552D01*
X47680Y-44947D01*
X47627Y-45000D01*
X47560Y-45162D01*
X47559Y-45337D01*
X47626Y-45498D01*
X47750Y-45622D01*
X47912Y-45689D01*
X48087Y-45690D01*
X48248Y-45623D01*
X48372Y-45499D01*
X48439Y-45337D01*
X48440Y-45162D01*
X48373Y-45001D01*
X48320Y-44947D01*
X48320Y-44552D01*
X48372Y-44499D01*
X48380Y-44480D01*
X48646Y-44480D01*
X48627Y-44500D01*
X48560Y-44662D01*
X48559Y-44837D01*
X48626Y-44998D01*
X48750Y-45122D01*
X48912Y-45189D01*
X49072Y-45190D01*
X49437Y-45554D01*
X49437Y-45656D01*
X49373Y-45501D01*
X49249Y-45377D01*
X49087Y-45310D01*
X48912Y-45309D01*
X48751Y-45376D01*
X48627Y-45500D01*
X48560Y-45662D01*
X48559Y-45837D01*
X48626Y-45998D01*
X48750Y-46122D01*
X48912Y-46189D01*
X49087Y-46190D01*
X49248Y-46123D01*
X49372Y-45999D01*
X49437Y-45844D01*
X49437Y-46656D01*
X49373Y-46501D01*
X49249Y-46377D01*
X49087Y-46310D01*
X48912Y-46309D01*
X48751Y-46376D01*
X48627Y-46500D01*
X48560Y-46662D01*
X48559Y-46837D01*
X48626Y-46998D01*
X48750Y-47122D01*
X48912Y-47189D01*
X49087Y-47190D01*
X49248Y-47123D01*
X49372Y-46999D01*
X49437Y-46844D01*
X49437Y-46964D01*
X49430Y-46971D01*
X49382Y-47087D01*
X49382Y-47212D01*
X49430Y-47328D01*
X49518Y-47417D01*
X49634Y-47465D01*
X49759Y-47465D01*
X49875Y-47417D01*
X49917Y-47375D01*
X49918Y-47394D01*
X49971Y-47523D01*
X50063Y-47551D01*
X50365Y-47250D01*
X50063Y-46948D01*
X49971Y-46976D01*
X49969Y-46984D01*
X49964Y-46972D01*
X49957Y-46964D01*
X49957Y-46487D01*
X49971Y-46523D01*
X50063Y-46551D01*
X50365Y-46250D01*
X50063Y-45948D01*
X49971Y-45976D01*
X49957Y-46020D01*
X49957Y-45447D01*
X49937Y-45347D01*
X49881Y-45263D01*
X49439Y-44822D01*
X49440Y-44662D01*
X49373Y-44501D01*
X49352Y-44480D01*
X50069Y-44480D01*
X50076Y-44498D01*
X50130Y-44552D01*
X50130Y-44947D01*
X50077Y-45000D01*
X50010Y-45162D01*
X50009Y-45337D01*
X50076Y-45498D01*
X50200Y-45622D01*
X50362Y-45689D01*
X50537Y-45690D01*
X50698Y-45623D01*
X50822Y-45499D01*
X50889Y-45337D01*
X50890Y-45162D01*
X50890Y-45964D01*
X50836Y-45948D01*
X50751Y-46032D01*
X50751Y-45863D01*
X50723Y-45771D01*
X50519Y-45703D01*
X50305Y-45718D01*
X50176Y-45771D01*
X50148Y-45863D01*
X50450Y-46165D01*
X50751Y-45863D01*
X50751Y-46032D01*
X50534Y-46250D01*
X50836Y-46551D01*
X50928Y-46523D01*
X50996Y-46319D01*
X50996Y-47319D01*
X50981Y-47105D01*
X50928Y-46976D01*
X50836Y-46948D01*
X50751Y-47032D01*
X50751Y-46863D01*
X50723Y-46771D01*
X50664Y-46752D01*
X50723Y-46728D01*
X50751Y-46636D01*
X50450Y-46334D01*
X50148Y-46636D01*
X50176Y-46728D01*
X50235Y-46747D01*
X50176Y-46771D01*
X50148Y-46863D01*
X50450Y-47165D01*
X50751Y-46863D01*
X50751Y-47032D01*
X50534Y-47250D01*
X50836Y-47551D01*
X50928Y-47523D01*
X50996Y-47319D01*
X50996Y-49715D01*
X50751Y-49613D01*
X50751Y-47636D01*
X50450Y-47334D01*
X50148Y-47636D01*
X50176Y-47728D01*
X50380Y-47796D01*
X50594Y-47781D01*
X50723Y-47728D01*
X50751Y-47636D01*
X50751Y-49613D01*
X50682Y-49585D01*
X50318Y-49584D01*
X49982Y-49723D01*
X49724Y-49981D01*
X49585Y-50317D01*
X49584Y-50681D01*
X49723Y-51017D01*
X49981Y-51275D01*
X50124Y-51335D01*
X49440Y-51335D01*
X49440Y-47662D01*
X49373Y-47501D01*
X49249Y-47377D01*
X49087Y-47310D01*
X48912Y-47309D01*
X48751Y-47376D01*
X48627Y-47500D01*
X48560Y-47662D01*
X48559Y-47837D01*
X48626Y-47998D01*
X48750Y-48122D01*
X48912Y-48189D01*
X49087Y-48190D01*
X49248Y-48123D01*
X49372Y-47999D01*
X49439Y-47837D01*
X49440Y-47662D01*
X49440Y-51335D01*
X48546Y-51335D01*
X48546Y-47319D01*
X48546Y-46319D01*
X48531Y-46105D01*
X48478Y-45976D01*
X48386Y-45948D01*
X48301Y-46032D01*
X48301Y-45863D01*
X48273Y-45771D01*
X48069Y-45703D01*
X47855Y-45718D01*
X47726Y-45771D01*
X47698Y-45863D01*
X48000Y-46165D01*
X48301Y-45863D01*
X48301Y-46032D01*
X48084Y-46250D01*
X48386Y-46551D01*
X48478Y-46523D01*
X48546Y-46319D01*
X48546Y-47319D01*
X48531Y-47105D01*
X48478Y-46976D01*
X48386Y-46948D01*
X48301Y-47032D01*
X48301Y-46863D01*
X48273Y-46771D01*
X48214Y-46752D01*
X48273Y-46728D01*
X48301Y-46636D01*
X48000Y-46334D01*
X47915Y-46419D01*
X47915Y-46250D01*
X47613Y-45948D01*
X47521Y-45976D01*
X47453Y-46180D01*
X47468Y-46394D01*
X47521Y-46523D01*
X47613Y-46551D01*
X47915Y-46250D01*
X47915Y-46419D01*
X47698Y-46636D01*
X47726Y-46728D01*
X47785Y-46747D01*
X47726Y-46771D01*
X47698Y-46863D01*
X48000Y-47165D01*
X48301Y-46863D01*
X48301Y-47032D01*
X48084Y-47250D01*
X48386Y-47551D01*
X48478Y-47523D01*
X48546Y-47319D01*
X48546Y-51335D01*
X48301Y-51335D01*
X48301Y-47636D01*
X48000Y-47334D01*
X47915Y-47419D01*
X47915Y-47250D01*
X47613Y-46948D01*
X47521Y-46976D01*
X47453Y-47180D01*
X47468Y-47394D01*
X47521Y-47523D01*
X47613Y-47551D01*
X47915Y-47250D01*
X47915Y-47419D01*
X47698Y-47636D01*
X47726Y-47728D01*
X47930Y-47796D01*
X48144Y-47781D01*
X48273Y-47728D01*
X48301Y-47636D01*
X48301Y-51335D01*
X46840Y-51335D01*
X46840Y-48612D01*
X46840Y-47612D01*
X46840Y-44212D01*
X46840Y-43212D01*
X46840Y-38612D01*
X46840Y-37612D01*
X46840Y-34212D01*
X46840Y-33212D01*
X46773Y-33051D01*
X46649Y-32927D01*
X46487Y-32860D01*
X46312Y-32859D01*
X46151Y-32926D01*
X46027Y-33050D01*
X45960Y-33212D01*
X45959Y-33387D01*
X46026Y-33548D01*
X46150Y-33672D01*
X46312Y-33739D01*
X46487Y-33740D01*
X46648Y-33673D01*
X46772Y-33549D01*
X46839Y-33387D01*
X46840Y-33212D01*
X46840Y-34212D01*
X46773Y-34051D01*
X46649Y-33927D01*
X46487Y-33860D01*
X46312Y-33859D01*
X46151Y-33926D01*
X46027Y-34050D01*
X45960Y-34212D01*
X45959Y-34387D01*
X46026Y-34548D01*
X46150Y-34672D01*
X46312Y-34739D01*
X46487Y-34740D01*
X46648Y-34673D01*
X46772Y-34549D01*
X46839Y-34387D01*
X46840Y-34212D01*
X46840Y-37612D01*
X46773Y-37451D01*
X46649Y-37327D01*
X46487Y-37260D01*
X46312Y-37259D01*
X46151Y-37326D01*
X46027Y-37450D01*
X45960Y-37612D01*
X45959Y-37787D01*
X46026Y-37948D01*
X46150Y-38072D01*
X46312Y-38139D01*
X46487Y-38140D01*
X46648Y-38073D01*
X46772Y-37949D01*
X46839Y-37787D01*
X46840Y-37612D01*
X46840Y-38612D01*
X46773Y-38451D01*
X46649Y-38327D01*
X46487Y-38260D01*
X46312Y-38259D01*
X46151Y-38326D01*
X46027Y-38450D01*
X45960Y-38612D01*
X45959Y-38787D01*
X46026Y-38948D01*
X46150Y-39072D01*
X46312Y-39139D01*
X46487Y-39140D01*
X46648Y-39073D01*
X46772Y-38949D01*
X46839Y-38787D01*
X46840Y-38612D01*
X46840Y-43212D01*
X46773Y-43051D01*
X46649Y-42927D01*
X46487Y-42860D01*
X46312Y-42859D01*
X46151Y-42926D01*
X46027Y-43050D01*
X45960Y-43212D01*
X45959Y-43387D01*
X46026Y-43548D01*
X46150Y-43672D01*
X46312Y-43739D01*
X46487Y-43740D01*
X46648Y-43673D01*
X46772Y-43549D01*
X46839Y-43387D01*
X46840Y-43212D01*
X46840Y-44212D01*
X46773Y-44051D01*
X46649Y-43927D01*
X46487Y-43860D01*
X46312Y-43859D01*
X46151Y-43926D01*
X46027Y-44050D01*
X45960Y-44212D01*
X45959Y-44387D01*
X46026Y-44548D01*
X46150Y-44672D01*
X46312Y-44739D01*
X46487Y-44740D01*
X46648Y-44673D01*
X46772Y-44549D01*
X46839Y-44387D01*
X46840Y-44212D01*
X46840Y-47612D01*
X46773Y-47451D01*
X46649Y-47327D01*
X46487Y-47260D01*
X46312Y-47259D01*
X46151Y-47326D01*
X46027Y-47450D01*
X45960Y-47612D01*
X45959Y-47787D01*
X46026Y-47948D01*
X46150Y-48072D01*
X46312Y-48139D01*
X46487Y-48140D01*
X46648Y-48073D01*
X46772Y-47949D01*
X46839Y-47787D01*
X46840Y-47612D01*
X46840Y-48612D01*
X46773Y-48451D01*
X46649Y-48327D01*
X46487Y-48260D01*
X46312Y-48259D01*
X46151Y-48326D01*
X46027Y-48450D01*
X45960Y-48612D01*
X45959Y-48787D01*
X46026Y-48948D01*
X46150Y-49072D01*
X46312Y-49139D01*
X46487Y-49140D01*
X46648Y-49073D01*
X46772Y-48949D01*
X46839Y-48787D01*
X46840Y-48612D01*
X46840Y-51335D01*
X45640Y-51335D01*
X45640Y-48323D01*
X45640Y-43323D01*
X45640Y-38323D01*
X45640Y-33323D01*
X45504Y-32996D01*
X45254Y-32745D01*
X44927Y-32610D01*
X44573Y-32609D01*
X44246Y-32745D01*
X43995Y-32995D01*
X43860Y-33322D01*
X43859Y-33676D01*
X43995Y-34003D01*
X44245Y-34254D01*
X44572Y-34389D01*
X44926Y-34390D01*
X45253Y-34254D01*
X45504Y-34004D01*
X45639Y-33677D01*
X45640Y-33323D01*
X45640Y-38323D01*
X45504Y-37996D01*
X45254Y-37745D01*
X44927Y-37610D01*
X44573Y-37609D01*
X44246Y-37745D01*
X43995Y-37995D01*
X43860Y-38322D01*
X43859Y-38676D01*
X43995Y-39003D01*
X44245Y-39254D01*
X44572Y-39389D01*
X44926Y-39390D01*
X45253Y-39254D01*
X45504Y-39004D01*
X45639Y-38677D01*
X45640Y-38323D01*
X45640Y-43323D01*
X45504Y-42996D01*
X45254Y-42745D01*
X44927Y-42610D01*
X44573Y-42609D01*
X44246Y-42745D01*
X43995Y-42995D01*
X43860Y-43322D01*
X43859Y-43676D01*
X43995Y-44003D01*
X44245Y-44254D01*
X44572Y-44389D01*
X44926Y-44390D01*
X45253Y-44254D01*
X45504Y-44004D01*
X45639Y-43677D01*
X45640Y-43323D01*
X45640Y-48323D01*
X45504Y-47996D01*
X45254Y-47745D01*
X44927Y-47610D01*
X44573Y-47609D01*
X44246Y-47745D01*
X43995Y-47995D01*
X43860Y-48322D01*
X43859Y-48676D01*
X43995Y-49003D01*
X44245Y-49254D01*
X44572Y-49389D01*
X44926Y-49390D01*
X45253Y-49254D01*
X45504Y-49004D01*
X45639Y-48677D01*
X45640Y-48323D01*
X45640Y-51335D01*
X43665Y-51335D01*
X43665Y-30665D01*
X50624Y-30665D01*
X50482Y-30723D01*
X50224Y-30981D01*
X50085Y-31317D01*
X50084Y-31681D01*
X50223Y-32017D01*
X50481Y-32275D01*
X50817Y-32414D01*
X51181Y-32415D01*
X51517Y-32276D01*
X51775Y-32018D01*
X51914Y-31682D01*
X51915Y-31318D01*
X51776Y-30982D01*
X51518Y-30724D01*
X51375Y-30665D01*
X80124Y-30665D01*
X79982Y-30723D01*
X79724Y-30981D01*
X79585Y-31317D01*
X79584Y-31681D01*
X79723Y-32017D01*
X79981Y-32275D01*
X80317Y-32414D01*
X80681Y-32415D01*
X81017Y-32276D01*
X81275Y-32018D01*
X81414Y-31682D01*
X81415Y-31318D01*
X81276Y-30982D01*
X81018Y-30724D01*
X80875Y-30665D01*
X89335Y-30665D01*
X89335Y-51335D01*
M02*
