G04 (created by PCBNEW (2013-jul-07)-stable) date Thu 07 Aug 2014 10:44:51 AM EDT*
%MOIN*%
G04 Gerber Fmt 3.4, Leading zero omitted, Abs format*
%FSLAX34Y34*%
G01*
G70*
G90*
G04 APERTURE LIST*
%ADD10C,0.00590551*%
%ADD11C,0.009*%
%ADD12C,0.155*%
%ADD13O,0.06X0.1*%
%ADD14C,0.06*%
%ADD15C,0.076*%
%ADD16C,0.14*%
%ADD17C,0.16*%
%ADD18R,0.05X0.1*%
%ADD19R,0.028X0.041*%
%ADD20C,0.15*%
%ADD21R,0.047X0.047*%
%ADD22C,0.035*%
%ADD23C,0.036*%
%ADD24C,0.008*%
%ADD25C,0.024*%
G04 APERTURE END LIST*
G54D10*
G54D11*
X89500Y-51500D02*
X43500Y-51500D01*
X43500Y-30500D02*
X89500Y-30500D01*
X43500Y-30500D02*
X43500Y-51500D01*
X89500Y-51500D02*
X89500Y-30500D01*
G54D12*
X50500Y-50500D03*
X51000Y-31500D03*
X83000Y-50500D03*
X80500Y-31500D03*
G54D13*
X56000Y-50500D03*
X57000Y-50500D03*
X58000Y-50500D03*
X59000Y-50500D03*
X60000Y-50500D03*
X61000Y-50500D03*
X62000Y-50500D03*
X63000Y-50500D03*
X65000Y-50500D03*
X66000Y-50500D03*
X67000Y-50500D03*
X68000Y-50500D03*
X69000Y-50500D03*
X70000Y-50500D03*
X71000Y-50500D03*
X72000Y-50500D03*
X74000Y-50500D03*
X75000Y-50500D03*
X76000Y-50500D03*
X77000Y-50500D03*
X78000Y-50500D03*
X79000Y-50500D03*
X80000Y-50500D03*
X81000Y-50500D03*
X52400Y-31500D03*
X53400Y-31500D03*
X54400Y-31500D03*
X55400Y-31500D03*
X56400Y-31500D03*
X57400Y-31500D03*
X58400Y-31500D03*
X59400Y-31500D03*
X60400Y-31500D03*
X61400Y-31500D03*
X63000Y-31500D03*
X70000Y-31500D03*
X69000Y-31500D03*
X68000Y-31500D03*
X67000Y-31500D03*
X66000Y-31500D03*
X65000Y-31500D03*
X64000Y-31500D03*
X72000Y-31500D03*
X73000Y-31500D03*
X74000Y-31500D03*
X75000Y-31500D03*
X76000Y-31500D03*
X77000Y-31500D03*
X78000Y-31500D03*
X79000Y-31500D03*
G54D14*
X82000Y-31500D03*
X83000Y-31500D03*
X82000Y-32500D03*
X83000Y-32500D03*
X82000Y-33500D03*
X83000Y-33500D03*
X82000Y-34500D03*
X83000Y-34500D03*
X82000Y-35500D03*
X83000Y-35500D03*
X82000Y-36500D03*
X83000Y-36500D03*
X82000Y-37500D03*
X83000Y-37500D03*
X82000Y-38500D03*
X83000Y-38500D03*
X82000Y-39500D03*
X83000Y-39500D03*
X82000Y-40500D03*
X83000Y-40500D03*
X82000Y-41500D03*
X83000Y-41500D03*
X82000Y-42500D03*
X83000Y-42500D03*
X82000Y-43500D03*
X83000Y-43500D03*
X82000Y-44500D03*
X83000Y-44500D03*
X82000Y-45500D03*
X83000Y-45500D03*
X82000Y-46500D03*
X83000Y-46500D03*
X82000Y-47500D03*
X83000Y-47500D03*
X82000Y-48500D03*
X83000Y-48500D03*
G54D15*
X88320Y-41000D03*
G54D16*
X87140Y-41000D03*
G54D17*
X84780Y-41000D03*
G54D16*
X87530Y-39230D03*
X87530Y-42770D03*
G54D18*
X84150Y-35750D03*
X85350Y-35750D03*
G54D19*
X59750Y-35640D03*
X60250Y-35640D03*
X60750Y-35640D03*
X61250Y-35640D03*
X61250Y-34360D03*
X60750Y-34360D03*
X60250Y-34360D03*
X59750Y-34360D03*
X69750Y-44390D03*
X70250Y-44390D03*
X70750Y-44390D03*
X71250Y-44390D03*
X71250Y-43110D03*
X70750Y-43110D03*
X70250Y-43110D03*
X69750Y-43110D03*
X59750Y-44390D03*
X60250Y-44390D03*
X60750Y-44390D03*
X61250Y-44390D03*
X61250Y-43110D03*
X60750Y-43110D03*
X60250Y-43110D03*
X59750Y-43110D03*
G54D20*
X44750Y-33500D03*
X44750Y-38500D03*
G54D14*
X46400Y-33300D03*
X46400Y-34300D03*
X46400Y-37700D03*
X46400Y-38700D03*
X48000Y-34250D03*
X48000Y-35250D03*
X48000Y-36250D03*
X48000Y-37250D03*
X49000Y-34750D03*
X49000Y-35750D03*
X49000Y-36750D03*
X49000Y-37750D03*
X50450Y-34250D03*
X50450Y-35250D03*
X51450Y-34750D03*
X51450Y-35750D03*
X50450Y-36250D03*
X51450Y-36750D03*
X50450Y-37250D03*
X51450Y-37750D03*
X53000Y-33300D03*
X53000Y-34300D03*
X53000Y-37700D03*
X53000Y-38700D03*
G54D20*
X44750Y-43500D03*
X44750Y-48500D03*
G54D14*
X46400Y-43300D03*
X46400Y-44300D03*
X46400Y-47700D03*
X46400Y-48700D03*
X48000Y-44250D03*
X48000Y-45250D03*
X48000Y-46250D03*
X48000Y-47250D03*
X49000Y-44750D03*
X49000Y-45750D03*
X49000Y-46750D03*
X49000Y-47750D03*
X50450Y-44250D03*
X50450Y-45250D03*
X51450Y-44750D03*
X51450Y-45750D03*
X50450Y-46250D03*
X51450Y-46750D03*
X50450Y-47250D03*
X51450Y-47750D03*
X53000Y-43300D03*
X53000Y-44300D03*
X53000Y-47700D03*
X53000Y-48700D03*
G54D19*
X69750Y-35640D03*
X70250Y-35640D03*
X70750Y-35640D03*
X71250Y-35640D03*
X71250Y-34360D03*
X70750Y-34360D03*
X70250Y-34360D03*
X69750Y-34360D03*
G54D21*
X56750Y-38085D03*
X56750Y-38915D03*
X56750Y-46835D03*
X56750Y-47665D03*
X59250Y-46835D03*
X59250Y-47665D03*
X61750Y-46835D03*
X61750Y-47665D03*
X64250Y-46835D03*
X64250Y-47665D03*
X66750Y-46835D03*
X66750Y-47665D03*
X69250Y-46835D03*
X69250Y-47665D03*
X71750Y-46835D03*
X71750Y-47665D03*
X74250Y-46835D03*
X74250Y-47665D03*
X61750Y-38085D03*
X61750Y-38915D03*
X64250Y-38085D03*
X64250Y-38915D03*
X66750Y-38085D03*
X66750Y-38915D03*
X69250Y-38085D03*
X69250Y-38915D03*
X59250Y-38085D03*
X59250Y-38915D03*
X74250Y-38085D03*
X74250Y-38915D03*
X86835Y-35750D03*
X87665Y-35750D03*
X71750Y-38085D03*
X71750Y-38915D03*
G54D22*
X69213Y-36518D03*
X66954Y-39551D03*
X65636Y-39522D03*
X68765Y-37703D03*
X68585Y-40477D03*
X68323Y-40973D03*
X68813Y-39474D03*
X85459Y-47671D03*
X66723Y-33284D03*
X70024Y-37894D03*
X67250Y-34820D03*
X67571Y-46398D03*
X66660Y-46048D03*
X64328Y-46046D03*
X62280Y-47665D03*
X68337Y-38915D03*
X66294Y-37680D03*
X64255Y-37327D03*
X67080Y-43889D03*
X49697Y-47150D03*
X67431Y-43534D03*
X68141Y-46416D03*
X70473Y-45864D03*
X62754Y-40970D03*
X59329Y-34360D03*
X83580Y-48036D03*
G54D23*
X66954Y-39522D02*
X65636Y-39522D01*
X67618Y-38113D02*
X69213Y-36518D01*
X67618Y-38914D02*
X67618Y-38113D01*
X67010Y-39522D02*
X67618Y-38914D01*
X66954Y-39522D02*
X67010Y-39522D01*
X66954Y-39551D02*
X66954Y-39522D01*
G54D24*
X69515Y-38500D02*
X70039Y-39024D01*
X68964Y-38500D02*
X69515Y-38500D01*
X68765Y-38300D02*
X68964Y-38500D01*
X68765Y-37703D02*
X68765Y-38300D01*
X70305Y-39290D02*
X70039Y-39024D01*
X76044Y-39290D02*
X70305Y-39290D01*
X81754Y-45000D02*
X76044Y-39290D01*
X82500Y-45000D02*
X81754Y-45000D01*
X83000Y-45500D02*
X82500Y-45000D01*
X70039Y-39024D02*
X68585Y-40477D01*
X77473Y-40973D02*
X68323Y-40973D01*
X82000Y-45500D02*
X77473Y-40973D01*
X68270Y-40018D02*
X68813Y-39474D01*
X68270Y-40920D02*
X68270Y-40018D01*
X68323Y-40973D02*
X68270Y-40920D01*
X82440Y-46940D02*
X82000Y-46500D01*
X84728Y-46940D02*
X82440Y-46940D01*
X85459Y-47671D02*
X84728Y-46940D01*
G54D25*
X49000Y-34445D02*
X49000Y-34750D01*
X50685Y-32760D02*
X49000Y-34445D01*
X66198Y-32760D02*
X50685Y-32760D01*
X66723Y-33284D02*
X66198Y-32760D01*
X68653Y-35214D02*
X66723Y-33284D01*
X72181Y-35214D02*
X68653Y-35214D01*
X74714Y-37747D02*
X72181Y-35214D01*
X74714Y-38450D02*
X74714Y-37747D01*
X74250Y-38915D02*
X74714Y-38450D01*
X52568Y-34820D02*
X67250Y-34820D01*
X51474Y-33726D02*
X52568Y-34820D01*
X50218Y-33726D02*
X51474Y-33726D01*
X49623Y-34322D02*
X50218Y-33726D01*
X49623Y-35126D02*
X49623Y-34322D01*
X49000Y-35750D02*
X49623Y-35126D01*
X71044Y-38915D02*
X70024Y-37894D01*
X71750Y-38915D02*
X71044Y-38915D01*
X69250Y-47665D02*
X68794Y-47665D01*
X67571Y-47665D02*
X67571Y-46398D01*
X65662Y-49574D02*
X67571Y-47665D01*
X53972Y-49574D02*
X65662Y-49574D01*
X53631Y-49914D02*
X53972Y-49574D01*
X51321Y-49914D02*
X53631Y-49914D01*
X50905Y-49497D02*
X51321Y-49914D01*
X50010Y-49497D02*
X50905Y-49497D01*
X48476Y-47963D02*
X50010Y-49497D01*
X48476Y-47509D02*
X48476Y-47963D01*
X49000Y-46985D02*
X48476Y-47509D01*
X49000Y-46750D02*
X49000Y-46985D01*
X67571Y-47665D02*
X68794Y-47665D01*
X66750Y-47665D02*
X66379Y-47665D01*
X66379Y-47665D02*
X66294Y-47665D01*
X66294Y-46414D02*
X66660Y-46048D01*
X66294Y-47665D02*
X66294Y-46414D01*
X64725Y-49234D02*
X66294Y-47665D01*
X53831Y-49234D02*
X64725Y-49234D01*
X53491Y-49574D02*
X53831Y-49234D01*
X51557Y-49574D02*
X53491Y-49574D01*
X49733Y-47750D02*
X51557Y-49574D01*
X49000Y-47750D02*
X49733Y-47750D01*
X64720Y-46438D02*
X64328Y-46046D01*
X64720Y-47194D02*
X64720Y-46438D01*
X64250Y-47665D02*
X64720Y-47194D01*
X51539Y-44839D02*
X51450Y-44750D01*
X53506Y-44839D02*
X51539Y-44839D01*
X54382Y-43964D02*
X53506Y-44839D01*
X62247Y-43964D02*
X54382Y-43964D01*
X64328Y-46046D02*
X62247Y-43964D01*
X61522Y-47665D02*
X61294Y-47665D01*
X61522Y-47665D02*
X61750Y-47665D01*
X61750Y-47665D02*
X62205Y-47665D01*
X62205Y-47665D02*
X62280Y-47665D01*
X51450Y-46000D02*
X51450Y-45750D01*
X50925Y-46524D02*
X51450Y-46000D01*
X50925Y-46990D02*
X50925Y-46524D01*
X50991Y-47056D02*
X50925Y-46990D01*
X50991Y-47472D02*
X50991Y-47056D01*
X50918Y-47546D02*
X50991Y-47472D01*
X50918Y-47961D02*
X50918Y-47546D01*
X51242Y-48285D02*
X50918Y-47961D01*
X51664Y-48285D02*
X51242Y-48285D01*
X52786Y-47163D02*
X51664Y-48285D01*
X54180Y-47163D02*
X52786Y-47163D01*
X55325Y-48308D02*
X54180Y-47163D01*
X60651Y-48308D02*
X55325Y-48308D01*
X61294Y-47665D02*
X60651Y-48308D01*
X59250Y-47665D02*
X58794Y-47665D01*
X51823Y-46376D02*
X51450Y-46750D01*
X57506Y-46376D02*
X51823Y-46376D01*
X58794Y-47665D02*
X57506Y-46376D01*
X56750Y-47665D02*
X56294Y-47665D01*
X52380Y-46819D02*
X51450Y-47750D01*
X55448Y-46819D02*
X52380Y-46819D01*
X56294Y-47665D02*
X55448Y-46819D01*
X69250Y-38915D02*
X68337Y-38915D01*
X67299Y-39953D02*
X68337Y-38915D01*
X50462Y-39953D02*
X67299Y-39953D01*
X48471Y-37963D02*
X50462Y-39953D01*
X48471Y-37513D02*
X48471Y-37963D01*
X49000Y-36985D02*
X48471Y-37513D01*
X49000Y-36750D02*
X49000Y-36985D01*
X66750Y-38915D02*
X66294Y-38459D01*
X66294Y-38459D02*
X66294Y-37680D01*
X50821Y-39571D02*
X49000Y-37750D01*
X64596Y-39571D02*
X50821Y-39571D01*
X65707Y-38459D02*
X64596Y-39571D01*
X66294Y-38459D02*
X65707Y-38459D01*
X64292Y-37327D02*
X64255Y-37327D01*
X64705Y-37740D02*
X64292Y-37327D01*
X64705Y-38459D02*
X64705Y-37740D01*
X64250Y-38915D02*
X64705Y-38459D01*
X62087Y-35160D02*
X64255Y-37327D01*
X51860Y-35160D02*
X62087Y-35160D01*
X51450Y-34750D02*
X51860Y-35160D01*
X58129Y-35750D02*
X51450Y-35750D01*
X61294Y-38915D02*
X58129Y-35750D01*
X61750Y-38915D02*
X61294Y-38915D01*
X59250Y-38915D02*
X58794Y-38915D01*
X56629Y-36750D02*
X58794Y-38915D01*
X51450Y-36750D02*
X56629Y-36750D01*
X51450Y-37889D02*
X51450Y-37750D01*
X52786Y-39225D02*
X51450Y-37889D01*
X55984Y-39225D02*
X52786Y-39225D01*
X56294Y-38915D02*
X55984Y-39225D01*
X56750Y-38915D02*
X56294Y-38915D01*
X74705Y-47209D02*
X74250Y-47665D01*
X74705Y-46492D02*
X74705Y-47209D01*
X72177Y-43964D02*
X74705Y-46492D01*
X67192Y-43964D02*
X72177Y-43964D01*
X67174Y-43982D02*
X67192Y-43964D01*
X67080Y-43889D02*
X67174Y-43982D01*
X49697Y-47232D02*
X49697Y-47150D01*
X51698Y-49234D02*
X49697Y-47232D01*
X53222Y-49234D02*
X51698Y-49234D01*
X53807Y-48648D02*
X53222Y-49234D01*
X64068Y-48648D02*
X53807Y-48648D01*
X65152Y-47565D02*
X64068Y-48648D01*
X65152Y-46005D02*
X65152Y-47565D01*
X67174Y-43982D02*
X65152Y-46005D01*
X71750Y-47665D02*
X72205Y-47665D01*
X67484Y-43587D02*
X67431Y-43534D01*
X72281Y-43587D02*
X67484Y-43587D01*
X75048Y-46354D02*
X72281Y-43587D01*
X75048Y-47667D02*
X75048Y-46354D01*
X74576Y-48140D02*
X75048Y-47667D01*
X72680Y-48140D02*
X74576Y-48140D01*
X72205Y-47665D02*
X72680Y-48140D01*
X67377Y-43481D02*
X67431Y-43534D01*
X64227Y-43481D02*
X67377Y-43481D01*
X64169Y-43538D02*
X64227Y-43481D01*
X56308Y-43538D02*
X64169Y-43538D01*
X55549Y-42779D02*
X56308Y-43538D01*
X51150Y-42779D02*
X55549Y-42779D01*
X49622Y-44308D02*
X51150Y-42779D01*
X49622Y-45127D02*
X49622Y-44308D01*
X49000Y-45750D02*
X49622Y-45127D01*
G54D24*
X58000Y-50500D02*
X58000Y-49859D01*
X70473Y-45864D02*
X70473Y-45864D01*
X70473Y-46382D02*
X70473Y-45864D01*
X69632Y-47223D02*
X70473Y-46382D01*
X68948Y-47223D02*
X69632Y-47223D01*
X68141Y-46416D02*
X68948Y-47223D01*
X67734Y-49859D02*
X58000Y-49859D01*
X69632Y-47961D02*
X67734Y-49859D01*
X69632Y-47223D02*
X69632Y-47961D01*
X75810Y-41310D02*
X82000Y-47500D01*
X63094Y-41310D02*
X75810Y-41310D01*
X62754Y-40970D02*
X63094Y-41310D01*
G54D23*
X87160Y-41000D02*
X87140Y-41000D01*
X88520Y-39639D02*
X87160Y-41000D01*
X88520Y-37120D02*
X88520Y-39639D01*
X87665Y-36265D02*
X88520Y-37120D01*
X87665Y-35750D02*
X87665Y-36265D01*
X62000Y-50500D02*
X61000Y-50500D01*
G54D24*
X69250Y-46835D02*
X69250Y-46459D01*
X69250Y-45735D02*
X69250Y-46459D01*
X70250Y-44735D02*
X69250Y-45735D01*
X70250Y-44390D02*
X70250Y-44735D01*
X71750Y-46835D02*
X71750Y-46459D01*
X71750Y-45735D02*
X70750Y-44735D01*
X71750Y-46459D02*
X71750Y-45735D01*
X70750Y-44390D02*
X70750Y-44735D01*
X74250Y-46835D02*
X73874Y-46835D01*
X71250Y-44390D02*
X71530Y-44390D01*
X71530Y-44490D02*
X71530Y-44390D01*
X73874Y-46835D02*
X71530Y-44490D01*
X69750Y-44390D02*
X69469Y-44390D01*
X66750Y-46835D02*
X66750Y-46459D01*
X68819Y-44390D02*
X66750Y-46459D01*
X69469Y-44390D02*
X68819Y-44390D01*
X59250Y-35420D02*
X59469Y-35640D01*
X51742Y-35420D02*
X59250Y-35420D01*
X51630Y-35307D02*
X51742Y-35420D01*
X51242Y-35307D02*
X51630Y-35307D01*
X51009Y-35540D02*
X51242Y-35307D01*
X51009Y-36949D02*
X51009Y-35540D01*
X51310Y-37250D02*
X51009Y-36949D01*
X55539Y-37250D02*
X51310Y-37250D01*
X56374Y-38085D02*
X55539Y-37250D01*
X56750Y-38085D02*
X56374Y-38085D01*
X59750Y-35640D02*
X59469Y-35640D01*
X61750Y-38085D02*
X61750Y-37709D01*
X61750Y-36985D02*
X60750Y-35985D01*
X61750Y-37709D02*
X61750Y-36985D01*
X60750Y-35640D02*
X60750Y-35985D01*
X61530Y-44490D02*
X61530Y-44390D01*
X63874Y-46835D02*
X61530Y-44490D01*
X64250Y-46835D02*
X63874Y-46835D01*
X61250Y-44390D02*
X61530Y-44390D01*
X56750Y-46835D02*
X57125Y-46835D01*
X59750Y-44390D02*
X59469Y-44390D01*
X58335Y-48045D02*
X57125Y-46835D01*
X59538Y-48045D02*
X58335Y-48045D01*
X59625Y-47957D02*
X59538Y-48045D01*
X59625Y-47369D02*
X59625Y-47957D01*
X59545Y-47289D02*
X59625Y-47369D01*
X59034Y-47289D02*
X59545Y-47289D01*
X58874Y-47130D02*
X59034Y-47289D01*
X58874Y-44985D02*
X58874Y-47130D01*
X59469Y-44390D02*
X58874Y-44985D01*
X60250Y-45459D02*
X59250Y-46459D01*
X60250Y-44390D02*
X60250Y-45459D01*
X59250Y-46835D02*
X59250Y-46459D01*
X60750Y-45459D02*
X61750Y-46459D01*
X60750Y-44390D02*
X60750Y-45459D01*
X61750Y-46835D02*
X61750Y-46459D01*
X69469Y-35740D02*
X69469Y-35640D01*
X67125Y-38085D02*
X69469Y-35740D01*
X66750Y-38085D02*
X67125Y-38085D01*
X69750Y-35640D02*
X69469Y-35640D01*
X63874Y-37984D02*
X61530Y-35640D01*
X63874Y-38085D02*
X63874Y-37984D01*
X61250Y-35640D02*
X61530Y-35640D01*
X64250Y-38085D02*
X63874Y-38085D01*
X71530Y-35740D02*
X71530Y-35640D01*
X73874Y-38085D02*
X71530Y-35740D01*
X74250Y-38085D02*
X73874Y-38085D01*
X71250Y-35640D02*
X71530Y-35640D01*
X70750Y-36709D02*
X70750Y-35640D01*
X71750Y-37709D02*
X70750Y-36709D01*
X71750Y-38085D02*
X71750Y-37709D01*
X69250Y-38085D02*
X69250Y-37709D01*
X70250Y-36709D02*
X69250Y-37709D01*
X70250Y-35640D02*
X70250Y-36709D01*
X60250Y-37255D02*
X60250Y-35640D01*
X61534Y-38539D02*
X60250Y-37255D01*
X62045Y-38539D02*
X61534Y-38539D01*
X62125Y-38619D02*
X62045Y-38539D01*
X62125Y-39210D02*
X62125Y-38619D01*
X62034Y-39300D02*
X62125Y-39210D01*
X60840Y-39300D02*
X62034Y-39300D01*
X59625Y-38085D02*
X60840Y-39300D01*
X59250Y-38085D02*
X59625Y-38085D01*
X70750Y-34360D02*
X71250Y-34360D01*
X69750Y-34360D02*
X70250Y-34360D01*
X70250Y-34360D02*
X70750Y-34360D01*
X86835Y-35750D02*
X85350Y-35750D01*
G54D23*
X59750Y-43110D02*
X60250Y-43110D01*
X60250Y-43110D02*
X60750Y-43110D01*
X69750Y-43110D02*
X69829Y-43110D01*
X70039Y-43110D02*
X69829Y-43110D01*
X70039Y-43110D02*
X70250Y-43110D01*
X59750Y-34360D02*
X60250Y-34360D01*
X60250Y-34360D02*
X60750Y-34360D01*
X60750Y-34360D02*
X61250Y-34360D01*
X59750Y-34360D02*
X59329Y-34360D01*
X70250Y-43110D02*
X70750Y-43110D01*
X70750Y-43110D02*
X71250Y-43110D01*
X83580Y-48748D02*
X83580Y-48036D01*
X83237Y-49090D02*
X83580Y-48748D01*
X79520Y-49090D02*
X83237Y-49090D01*
X73539Y-43110D02*
X79520Y-49090D01*
X71250Y-43110D02*
X73539Y-43110D01*
X84150Y-40370D02*
X84150Y-35750D01*
X84780Y-41000D02*
X84150Y-40370D01*
X69750Y-43110D02*
X69329Y-43110D01*
X60750Y-43110D02*
X61250Y-43110D01*
X61250Y-43110D02*
X61670Y-43110D01*
X61700Y-43079D02*
X61670Y-43110D01*
X69299Y-43079D02*
X61700Y-43079D01*
X69329Y-43110D02*
X69299Y-43079D01*
X59750Y-43110D02*
X59329Y-43110D01*
X58594Y-42374D02*
X59329Y-43110D01*
X48000Y-42374D02*
X58594Y-42374D01*
X48000Y-44250D02*
X48000Y-42374D01*
X47416Y-35833D02*
X48000Y-35250D01*
X47416Y-41790D02*
X47416Y-35833D01*
X48000Y-42374D02*
X47416Y-41790D01*
G54D10*
G36*
X69399Y-35474D02*
X69342Y-35512D01*
X69303Y-35571D01*
X69289Y-35640D01*
X69289Y-35665D01*
X67125Y-37830D01*
X67125Y-37822D01*
X67103Y-37770D01*
X67064Y-37731D01*
X67012Y-37710D01*
X66957Y-37709D01*
X66609Y-37709D01*
X66609Y-37618D01*
X66562Y-37502D01*
X66473Y-37413D01*
X66357Y-37365D01*
X66232Y-37365D01*
X66116Y-37413D01*
X66027Y-37502D01*
X65979Y-37617D01*
X65979Y-37743D01*
X66027Y-37858D01*
X66034Y-37866D01*
X66034Y-38199D01*
X65707Y-38199D01*
X65607Y-38219D01*
X65523Y-38275D01*
X64624Y-39174D01*
X64625Y-39122D01*
X64625Y-38907D01*
X64889Y-38643D01*
X64889Y-38643D01*
X64945Y-38559D01*
X64965Y-38459D01*
X64965Y-38459D01*
X64965Y-37740D01*
X64945Y-37641D01*
X64945Y-37641D01*
X64926Y-37613D01*
X64889Y-37556D01*
X64889Y-37556D01*
X64551Y-37218D01*
X64522Y-37149D01*
X64433Y-37060D01*
X64318Y-37012D01*
X64307Y-37012D01*
X62375Y-35080D01*
X67064Y-35080D01*
X67071Y-35087D01*
X67187Y-35135D01*
X67312Y-35135D01*
X67428Y-35087D01*
X67516Y-34998D01*
X67564Y-34883D01*
X67565Y-34757D01*
X67517Y-34641D01*
X67428Y-34553D01*
X67312Y-34505D01*
X67187Y-34505D01*
X67071Y-34552D01*
X67064Y-34560D01*
X61630Y-34560D01*
X61630Y-34517D01*
X61630Y-34202D01*
X61629Y-34107D01*
X61593Y-34018D01*
X61525Y-33951D01*
X61437Y-33914D01*
X61370Y-33915D01*
X61310Y-33975D01*
X61310Y-34300D01*
X61570Y-34300D01*
X61630Y-34240D01*
X61630Y-34202D01*
X61630Y-34517D01*
X61630Y-34480D01*
X61570Y-34420D01*
X61310Y-34420D01*
X61310Y-34427D01*
X61190Y-34427D01*
X61190Y-34420D01*
X61190Y-34300D01*
X61190Y-33975D01*
X61130Y-33915D01*
X61062Y-33914D01*
X61000Y-33940D01*
X60937Y-33914D01*
X60870Y-33915D01*
X60810Y-33975D01*
X60810Y-34300D01*
X60930Y-34300D01*
X61070Y-34300D01*
X61190Y-34300D01*
X61190Y-34420D01*
X61070Y-34420D01*
X60930Y-34420D01*
X60810Y-34420D01*
X60810Y-34427D01*
X60690Y-34427D01*
X60690Y-34420D01*
X60690Y-34300D01*
X60690Y-33975D01*
X60630Y-33915D01*
X60562Y-33914D01*
X60500Y-33940D01*
X60437Y-33914D01*
X60370Y-33915D01*
X60310Y-33975D01*
X60310Y-34300D01*
X60430Y-34300D01*
X60570Y-34300D01*
X60690Y-34300D01*
X60690Y-34420D01*
X60570Y-34420D01*
X60430Y-34420D01*
X60310Y-34420D01*
X60310Y-34427D01*
X60190Y-34427D01*
X60190Y-34420D01*
X60190Y-34300D01*
X60190Y-33975D01*
X60130Y-33915D01*
X60062Y-33914D01*
X60000Y-33940D01*
X59937Y-33914D01*
X59870Y-33915D01*
X59810Y-33975D01*
X59810Y-34300D01*
X59930Y-34300D01*
X60070Y-34300D01*
X60190Y-34300D01*
X60190Y-34420D01*
X60070Y-34420D01*
X59930Y-34420D01*
X59810Y-34420D01*
X59810Y-34427D01*
X59690Y-34427D01*
X59690Y-34420D01*
X59690Y-34300D01*
X59690Y-33975D01*
X59630Y-33915D01*
X59562Y-33914D01*
X59474Y-33951D01*
X59406Y-34018D01*
X59370Y-34107D01*
X59369Y-34202D01*
X59370Y-34240D01*
X59430Y-34300D01*
X59690Y-34300D01*
X59690Y-34420D01*
X59430Y-34420D01*
X59370Y-34480D01*
X59369Y-34517D01*
X59369Y-34560D01*
X53362Y-34560D01*
X53372Y-34549D01*
X53439Y-34387D01*
X53440Y-34212D01*
X53373Y-34051D01*
X53249Y-33927D01*
X53087Y-33860D01*
X52912Y-33859D01*
X52751Y-33926D01*
X52627Y-34050D01*
X52560Y-34212D01*
X52559Y-34387D01*
X52600Y-34484D01*
X51658Y-33542D01*
X51573Y-33486D01*
X51474Y-33466D01*
X50346Y-33466D01*
X50792Y-33020D01*
X52657Y-33020D01*
X52627Y-33050D01*
X52560Y-33212D01*
X52559Y-33387D01*
X52626Y-33548D01*
X52750Y-33672D01*
X52912Y-33739D01*
X53087Y-33740D01*
X53248Y-33673D01*
X53372Y-33549D01*
X53439Y-33387D01*
X53440Y-33212D01*
X53373Y-33051D01*
X53342Y-33020D01*
X66091Y-33020D01*
X66408Y-33337D01*
X66408Y-33347D01*
X66456Y-33462D01*
X66544Y-33551D01*
X66660Y-33599D01*
X66670Y-33599D01*
X68469Y-35398D01*
X68469Y-35398D01*
X68554Y-35455D01*
X68653Y-35474D01*
X69399Y-35474D01*
X69399Y-35474D01*
G37*
G54D24*
X69399Y-35474D02*
X69342Y-35512D01*
X69303Y-35571D01*
X69289Y-35640D01*
X69289Y-35665D01*
X67125Y-37830D01*
X67125Y-37822D01*
X67103Y-37770D01*
X67064Y-37731D01*
X67012Y-37710D01*
X66957Y-37709D01*
X66609Y-37709D01*
X66609Y-37618D01*
X66562Y-37502D01*
X66473Y-37413D01*
X66357Y-37365D01*
X66232Y-37365D01*
X66116Y-37413D01*
X66027Y-37502D01*
X65979Y-37617D01*
X65979Y-37743D01*
X66027Y-37858D01*
X66034Y-37866D01*
X66034Y-38199D01*
X65707Y-38199D01*
X65607Y-38219D01*
X65523Y-38275D01*
X64624Y-39174D01*
X64625Y-39122D01*
X64625Y-38907D01*
X64889Y-38643D01*
X64889Y-38643D01*
X64945Y-38559D01*
X64965Y-38459D01*
X64965Y-38459D01*
X64965Y-37740D01*
X64945Y-37641D01*
X64945Y-37641D01*
X64926Y-37613D01*
X64889Y-37556D01*
X64889Y-37556D01*
X64551Y-37218D01*
X64522Y-37149D01*
X64433Y-37060D01*
X64318Y-37012D01*
X64307Y-37012D01*
X62375Y-35080D01*
X67064Y-35080D01*
X67071Y-35087D01*
X67187Y-35135D01*
X67312Y-35135D01*
X67428Y-35087D01*
X67516Y-34998D01*
X67564Y-34883D01*
X67565Y-34757D01*
X67517Y-34641D01*
X67428Y-34553D01*
X67312Y-34505D01*
X67187Y-34505D01*
X67071Y-34552D01*
X67064Y-34560D01*
X61630Y-34560D01*
X61630Y-34517D01*
X61630Y-34202D01*
X61629Y-34107D01*
X61593Y-34018D01*
X61525Y-33951D01*
X61437Y-33914D01*
X61370Y-33915D01*
X61310Y-33975D01*
X61310Y-34300D01*
X61570Y-34300D01*
X61630Y-34240D01*
X61630Y-34202D01*
X61630Y-34517D01*
X61630Y-34480D01*
X61570Y-34420D01*
X61310Y-34420D01*
X61310Y-34427D01*
X61190Y-34427D01*
X61190Y-34420D01*
X61190Y-34300D01*
X61190Y-33975D01*
X61130Y-33915D01*
X61062Y-33914D01*
X61000Y-33940D01*
X60937Y-33914D01*
X60870Y-33915D01*
X60810Y-33975D01*
X60810Y-34300D01*
X60930Y-34300D01*
X61070Y-34300D01*
X61190Y-34300D01*
X61190Y-34420D01*
X61070Y-34420D01*
X60930Y-34420D01*
X60810Y-34420D01*
X60810Y-34427D01*
X60690Y-34427D01*
X60690Y-34420D01*
X60690Y-34300D01*
X60690Y-33975D01*
X60630Y-33915D01*
X60562Y-33914D01*
X60500Y-33940D01*
X60437Y-33914D01*
X60370Y-33915D01*
X60310Y-33975D01*
X60310Y-34300D01*
X60430Y-34300D01*
X60570Y-34300D01*
X60690Y-34300D01*
X60690Y-34420D01*
X60570Y-34420D01*
X60430Y-34420D01*
X60310Y-34420D01*
X60310Y-34427D01*
X60190Y-34427D01*
X60190Y-34420D01*
X60190Y-34300D01*
X60190Y-33975D01*
X60130Y-33915D01*
X60062Y-33914D01*
X60000Y-33940D01*
X59937Y-33914D01*
X59870Y-33915D01*
X59810Y-33975D01*
X59810Y-34300D01*
X59930Y-34300D01*
X60070Y-34300D01*
X60190Y-34300D01*
X60190Y-34420D01*
X60070Y-34420D01*
X59930Y-34420D01*
X59810Y-34420D01*
X59810Y-34427D01*
X59690Y-34427D01*
X59690Y-34420D01*
X59690Y-34300D01*
X59690Y-33975D01*
X59630Y-33915D01*
X59562Y-33914D01*
X59474Y-33951D01*
X59406Y-34018D01*
X59370Y-34107D01*
X59369Y-34202D01*
X59370Y-34240D01*
X59430Y-34300D01*
X59690Y-34300D01*
X59690Y-34420D01*
X59430Y-34420D01*
X59370Y-34480D01*
X59369Y-34517D01*
X59369Y-34560D01*
X53362Y-34560D01*
X53372Y-34549D01*
X53439Y-34387D01*
X53440Y-34212D01*
X53373Y-34051D01*
X53249Y-33927D01*
X53087Y-33860D01*
X52912Y-33859D01*
X52751Y-33926D01*
X52627Y-34050D01*
X52560Y-34212D01*
X52559Y-34387D01*
X52600Y-34484D01*
X51658Y-33542D01*
X51573Y-33486D01*
X51474Y-33466D01*
X50346Y-33466D01*
X50792Y-33020D01*
X52657Y-33020D01*
X52627Y-33050D01*
X52560Y-33212D01*
X52559Y-33387D01*
X52626Y-33548D01*
X52750Y-33672D01*
X52912Y-33739D01*
X53087Y-33740D01*
X53248Y-33673D01*
X53372Y-33549D01*
X53439Y-33387D01*
X53440Y-33212D01*
X53373Y-33051D01*
X53342Y-33020D01*
X66091Y-33020D01*
X66408Y-33337D01*
X66408Y-33347D01*
X66456Y-33462D01*
X66544Y-33551D01*
X66660Y-33599D01*
X66670Y-33599D01*
X68469Y-35398D01*
X68469Y-35398D01*
X68554Y-35455D01*
X68653Y-35474D01*
X69399Y-35474D01*
G54D10*
G36*
X89335Y-51335D02*
X88840Y-51335D01*
X88840Y-39639D01*
X88840Y-37120D01*
X88816Y-36998D01*
X88747Y-36894D01*
X87985Y-36132D01*
X87985Y-36097D01*
X88018Y-36064D01*
X88039Y-36012D01*
X88040Y-35957D01*
X88040Y-35487D01*
X88018Y-35435D01*
X87979Y-35396D01*
X87927Y-35375D01*
X87872Y-35374D01*
X87402Y-35374D01*
X87350Y-35396D01*
X87311Y-35435D01*
X87290Y-35487D01*
X87289Y-35542D01*
X87289Y-36012D01*
X87311Y-36064D01*
X87345Y-36098D01*
X87345Y-36265D01*
X87369Y-36387D01*
X87438Y-36491D01*
X88200Y-37253D01*
X88200Y-38712D01*
X88006Y-38518D01*
X87697Y-38390D01*
X87363Y-38389D01*
X87210Y-38453D01*
X87210Y-35957D01*
X87210Y-35487D01*
X87188Y-35435D01*
X87149Y-35396D01*
X87097Y-35375D01*
X87042Y-35374D01*
X86572Y-35374D01*
X86520Y-35396D01*
X86481Y-35435D01*
X86460Y-35487D01*
X86459Y-35542D01*
X86459Y-35570D01*
X85740Y-35570D01*
X85740Y-35222D01*
X85718Y-35170D01*
X85679Y-35131D01*
X85627Y-35110D01*
X85572Y-35109D01*
X85072Y-35109D01*
X85020Y-35131D01*
X84981Y-35170D01*
X84960Y-35222D01*
X84959Y-35277D01*
X84959Y-36277D01*
X84981Y-36329D01*
X85020Y-36368D01*
X85072Y-36389D01*
X85127Y-36390D01*
X85627Y-36390D01*
X85679Y-36368D01*
X85718Y-36329D01*
X85739Y-36277D01*
X85740Y-36222D01*
X85740Y-35930D01*
X86459Y-35930D01*
X86459Y-36012D01*
X86481Y-36064D01*
X86520Y-36103D01*
X86572Y-36124D01*
X86627Y-36125D01*
X87097Y-36125D01*
X87149Y-36103D01*
X87188Y-36064D01*
X87209Y-36012D01*
X87210Y-35957D01*
X87210Y-38453D01*
X87054Y-38517D01*
X86818Y-38753D01*
X86690Y-39062D01*
X86689Y-39396D01*
X86817Y-39705D01*
X87053Y-39941D01*
X87362Y-40069D01*
X87637Y-40070D01*
X87477Y-40230D01*
X87307Y-40160D01*
X86973Y-40159D01*
X86664Y-40287D01*
X86428Y-40523D01*
X86300Y-40832D01*
X86299Y-41166D01*
X86427Y-41475D01*
X86663Y-41711D01*
X86972Y-41839D01*
X87306Y-41840D01*
X87615Y-41712D01*
X87851Y-41476D01*
X87913Y-41328D01*
X88025Y-41440D01*
X88216Y-41519D01*
X88422Y-41520D01*
X88614Y-41441D01*
X88760Y-41294D01*
X88839Y-41103D01*
X88840Y-40897D01*
X88761Y-40705D01*
X88614Y-40559D01*
X88423Y-40480D01*
X88217Y-40479D01*
X88074Y-40538D01*
X88747Y-39865D01*
X88747Y-39865D01*
X88816Y-39762D01*
X88840Y-39639D01*
X88840Y-39639D01*
X88840Y-51335D01*
X88370Y-51335D01*
X88370Y-42603D01*
X88242Y-42294D01*
X88006Y-42058D01*
X87697Y-41930D01*
X87363Y-41929D01*
X87054Y-42057D01*
X86818Y-42293D01*
X86690Y-42602D01*
X86689Y-42936D01*
X86817Y-43245D01*
X87053Y-43481D01*
X87362Y-43609D01*
X87696Y-43610D01*
X88005Y-43482D01*
X88241Y-43246D01*
X88369Y-42937D01*
X88370Y-42603D01*
X88370Y-51335D01*
X85823Y-51335D01*
X85823Y-41188D01*
X85816Y-40775D01*
X85671Y-40426D01*
X85528Y-40336D01*
X85443Y-40421D01*
X85443Y-40251D01*
X85353Y-40108D01*
X84968Y-39956D01*
X84640Y-39962D01*
X84640Y-36202D01*
X84640Y-35297D01*
X84639Y-35202D01*
X84603Y-35113D01*
X84535Y-35046D01*
X84447Y-35009D01*
X84270Y-35010D01*
X84210Y-35070D01*
X84210Y-35690D01*
X84580Y-35690D01*
X84640Y-35630D01*
X84640Y-35297D01*
X84640Y-36202D01*
X84640Y-35870D01*
X84580Y-35810D01*
X84210Y-35810D01*
X84210Y-36430D01*
X84270Y-36490D01*
X84447Y-36490D01*
X84535Y-36453D01*
X84603Y-36386D01*
X84639Y-36297D01*
X84640Y-36202D01*
X84640Y-39962D01*
X84555Y-39963D01*
X84206Y-40108D01*
X84116Y-40251D01*
X84780Y-40915D01*
X85443Y-40251D01*
X85443Y-40421D01*
X84864Y-41000D01*
X85528Y-41663D01*
X85671Y-41573D01*
X85823Y-41188D01*
X85823Y-51335D01*
X85774Y-51335D01*
X85774Y-47608D01*
X85726Y-47492D01*
X85637Y-47404D01*
X85521Y-47356D01*
X85443Y-47356D01*
X85443Y-41748D01*
X84780Y-41084D01*
X84695Y-41169D01*
X84695Y-41000D01*
X84090Y-40394D01*
X84090Y-36430D01*
X84090Y-35810D01*
X84090Y-35690D01*
X84090Y-35070D01*
X84030Y-35010D01*
X83852Y-35009D01*
X83764Y-35046D01*
X83696Y-35113D01*
X83660Y-35202D01*
X83659Y-35297D01*
X83660Y-35630D01*
X83720Y-35690D01*
X84090Y-35690D01*
X84090Y-35810D01*
X83720Y-35810D01*
X83660Y-35870D01*
X83659Y-36202D01*
X83660Y-36297D01*
X83696Y-36386D01*
X83764Y-36453D01*
X83852Y-36490D01*
X84030Y-36490D01*
X84090Y-36430D01*
X84090Y-40394D01*
X84031Y-40336D01*
X83888Y-40426D01*
X83736Y-40811D01*
X83743Y-41224D01*
X83888Y-41573D01*
X84031Y-41663D01*
X84695Y-41000D01*
X84695Y-41169D01*
X84116Y-41748D01*
X84206Y-41891D01*
X84591Y-42043D01*
X85004Y-42036D01*
X85353Y-41891D01*
X85443Y-41748D01*
X85443Y-47356D01*
X85398Y-47356D01*
X84855Y-46812D01*
X84796Y-46773D01*
X84728Y-46760D01*
X83362Y-46760D01*
X83372Y-46749D01*
X83439Y-46587D01*
X83440Y-46412D01*
X83440Y-45412D01*
X83440Y-44412D01*
X83440Y-43412D01*
X83440Y-42412D01*
X83440Y-41412D01*
X83440Y-40412D01*
X83440Y-39412D01*
X83440Y-38412D01*
X83440Y-37412D01*
X83440Y-36412D01*
X83440Y-35412D01*
X83440Y-34412D01*
X83440Y-33412D01*
X83440Y-32412D01*
X83440Y-31412D01*
X83373Y-31251D01*
X83249Y-31127D01*
X83087Y-31060D01*
X82912Y-31059D01*
X82751Y-31126D01*
X82627Y-31250D01*
X82560Y-31412D01*
X82559Y-31587D01*
X82626Y-31748D01*
X82750Y-31872D01*
X82912Y-31939D01*
X83087Y-31940D01*
X83248Y-31873D01*
X83372Y-31749D01*
X83439Y-31587D01*
X83440Y-31412D01*
X83440Y-32412D01*
X83373Y-32251D01*
X83249Y-32127D01*
X83087Y-32060D01*
X82912Y-32059D01*
X82751Y-32126D01*
X82627Y-32250D01*
X82560Y-32412D01*
X82559Y-32587D01*
X82626Y-32748D01*
X82750Y-32872D01*
X82912Y-32939D01*
X83087Y-32940D01*
X83248Y-32873D01*
X83372Y-32749D01*
X83439Y-32587D01*
X83440Y-32412D01*
X83440Y-33412D01*
X83373Y-33251D01*
X83249Y-33127D01*
X83087Y-33060D01*
X82912Y-33059D01*
X82751Y-33126D01*
X82627Y-33250D01*
X82560Y-33412D01*
X82559Y-33587D01*
X82626Y-33748D01*
X82750Y-33872D01*
X82912Y-33939D01*
X83087Y-33940D01*
X83248Y-33873D01*
X83372Y-33749D01*
X83439Y-33587D01*
X83440Y-33412D01*
X83440Y-34412D01*
X83373Y-34251D01*
X83249Y-34127D01*
X83087Y-34060D01*
X82912Y-34059D01*
X82751Y-34126D01*
X82627Y-34250D01*
X82560Y-34412D01*
X82559Y-34587D01*
X82626Y-34748D01*
X82750Y-34872D01*
X82912Y-34939D01*
X83087Y-34940D01*
X83248Y-34873D01*
X83372Y-34749D01*
X83439Y-34587D01*
X83440Y-34412D01*
X83440Y-35412D01*
X83373Y-35251D01*
X83249Y-35127D01*
X83087Y-35060D01*
X82912Y-35059D01*
X82751Y-35126D01*
X82627Y-35250D01*
X82560Y-35412D01*
X82559Y-35587D01*
X82626Y-35748D01*
X82750Y-35872D01*
X82912Y-35939D01*
X83087Y-35940D01*
X83248Y-35873D01*
X83372Y-35749D01*
X83439Y-35587D01*
X83440Y-35412D01*
X83440Y-36412D01*
X83373Y-36251D01*
X83249Y-36127D01*
X83087Y-36060D01*
X82912Y-36059D01*
X82751Y-36126D01*
X82627Y-36250D01*
X82560Y-36412D01*
X82559Y-36587D01*
X82626Y-36748D01*
X82750Y-36872D01*
X82912Y-36939D01*
X83087Y-36940D01*
X83248Y-36873D01*
X83372Y-36749D01*
X83439Y-36587D01*
X83440Y-36412D01*
X83440Y-37412D01*
X83373Y-37251D01*
X83249Y-37127D01*
X83087Y-37060D01*
X82912Y-37059D01*
X82751Y-37126D01*
X82627Y-37250D01*
X82560Y-37412D01*
X82559Y-37587D01*
X82626Y-37748D01*
X82750Y-37872D01*
X82912Y-37939D01*
X83087Y-37940D01*
X83248Y-37873D01*
X83372Y-37749D01*
X83439Y-37587D01*
X83440Y-37412D01*
X83440Y-38412D01*
X83373Y-38251D01*
X83249Y-38127D01*
X83087Y-38060D01*
X82912Y-38059D01*
X82751Y-38126D01*
X82627Y-38250D01*
X82560Y-38412D01*
X82559Y-38587D01*
X82626Y-38748D01*
X82750Y-38872D01*
X82912Y-38939D01*
X83087Y-38940D01*
X83248Y-38873D01*
X83372Y-38749D01*
X83439Y-38587D01*
X83440Y-38412D01*
X83440Y-39412D01*
X83373Y-39251D01*
X83249Y-39127D01*
X83087Y-39060D01*
X82912Y-39059D01*
X82751Y-39126D01*
X82627Y-39250D01*
X82560Y-39412D01*
X82559Y-39587D01*
X82626Y-39748D01*
X82750Y-39872D01*
X82912Y-39939D01*
X83087Y-39940D01*
X83248Y-39873D01*
X83372Y-39749D01*
X83439Y-39587D01*
X83440Y-39412D01*
X83440Y-40412D01*
X83373Y-40251D01*
X83249Y-40127D01*
X83087Y-40060D01*
X82912Y-40059D01*
X82751Y-40126D01*
X82627Y-40250D01*
X82560Y-40412D01*
X82559Y-40587D01*
X82626Y-40748D01*
X82750Y-40872D01*
X82912Y-40939D01*
X83087Y-40940D01*
X83248Y-40873D01*
X83372Y-40749D01*
X83439Y-40587D01*
X83440Y-40412D01*
X83440Y-41412D01*
X83373Y-41251D01*
X83249Y-41127D01*
X83087Y-41060D01*
X82912Y-41059D01*
X82751Y-41126D01*
X82627Y-41250D01*
X82560Y-41412D01*
X82559Y-41587D01*
X82626Y-41748D01*
X82750Y-41872D01*
X82912Y-41939D01*
X83087Y-41940D01*
X83248Y-41873D01*
X83372Y-41749D01*
X83439Y-41587D01*
X83440Y-41412D01*
X83440Y-42412D01*
X83373Y-42251D01*
X83249Y-42127D01*
X83087Y-42060D01*
X82912Y-42059D01*
X82751Y-42126D01*
X82627Y-42250D01*
X82560Y-42412D01*
X82559Y-42587D01*
X82626Y-42748D01*
X82750Y-42872D01*
X82912Y-42939D01*
X83087Y-42940D01*
X83248Y-42873D01*
X83372Y-42749D01*
X83439Y-42587D01*
X83440Y-42412D01*
X83440Y-43412D01*
X83373Y-43251D01*
X83249Y-43127D01*
X83087Y-43060D01*
X82912Y-43059D01*
X82751Y-43126D01*
X82627Y-43250D01*
X82560Y-43412D01*
X82559Y-43587D01*
X82626Y-43748D01*
X82750Y-43872D01*
X82912Y-43939D01*
X83087Y-43940D01*
X83248Y-43873D01*
X83372Y-43749D01*
X83439Y-43587D01*
X83440Y-43412D01*
X83440Y-44412D01*
X83373Y-44251D01*
X83249Y-44127D01*
X83087Y-44060D01*
X82912Y-44059D01*
X82751Y-44126D01*
X82627Y-44250D01*
X82560Y-44412D01*
X82559Y-44587D01*
X82626Y-44748D01*
X82750Y-44872D01*
X82912Y-44939D01*
X83087Y-44940D01*
X83248Y-44873D01*
X83372Y-44749D01*
X83439Y-44587D01*
X83440Y-44412D01*
X83440Y-45412D01*
X83373Y-45251D01*
X83249Y-45127D01*
X83087Y-45060D01*
X82912Y-45059D01*
X82843Y-45088D01*
X82627Y-44872D01*
X82568Y-44833D01*
X82500Y-44820D01*
X82302Y-44820D01*
X82372Y-44749D01*
X82439Y-44587D01*
X82440Y-44412D01*
X82440Y-43412D01*
X82440Y-42412D01*
X82440Y-41412D01*
X82440Y-40412D01*
X82440Y-39412D01*
X82440Y-38412D01*
X82440Y-37412D01*
X82440Y-36412D01*
X82440Y-35412D01*
X82440Y-34412D01*
X82440Y-33412D01*
X82440Y-32412D01*
X82440Y-31412D01*
X82373Y-31251D01*
X82249Y-31127D01*
X82087Y-31060D01*
X81912Y-31059D01*
X81751Y-31126D01*
X81627Y-31250D01*
X81560Y-31412D01*
X81559Y-31587D01*
X81626Y-31748D01*
X81750Y-31872D01*
X81912Y-31939D01*
X82087Y-31940D01*
X82248Y-31873D01*
X82372Y-31749D01*
X82439Y-31587D01*
X82440Y-31412D01*
X82440Y-32412D01*
X82373Y-32251D01*
X82249Y-32127D01*
X82087Y-32060D01*
X81912Y-32059D01*
X81751Y-32126D01*
X81627Y-32250D01*
X81560Y-32412D01*
X81559Y-32587D01*
X81626Y-32748D01*
X81750Y-32872D01*
X81912Y-32939D01*
X82087Y-32940D01*
X82248Y-32873D01*
X82372Y-32749D01*
X82439Y-32587D01*
X82440Y-32412D01*
X82440Y-33412D01*
X82373Y-33251D01*
X82249Y-33127D01*
X82087Y-33060D01*
X81912Y-33059D01*
X81751Y-33126D01*
X81627Y-33250D01*
X81560Y-33412D01*
X81559Y-33587D01*
X81626Y-33748D01*
X81750Y-33872D01*
X81912Y-33939D01*
X82087Y-33940D01*
X82248Y-33873D01*
X82372Y-33749D01*
X82439Y-33587D01*
X82440Y-33412D01*
X82440Y-34412D01*
X82373Y-34251D01*
X82249Y-34127D01*
X82087Y-34060D01*
X81912Y-34059D01*
X81751Y-34126D01*
X81627Y-34250D01*
X81560Y-34412D01*
X81559Y-34587D01*
X81626Y-34748D01*
X81750Y-34872D01*
X81912Y-34939D01*
X82087Y-34940D01*
X82248Y-34873D01*
X82372Y-34749D01*
X82439Y-34587D01*
X82440Y-34412D01*
X82440Y-35412D01*
X82373Y-35251D01*
X82249Y-35127D01*
X82087Y-35060D01*
X81912Y-35059D01*
X81751Y-35126D01*
X81627Y-35250D01*
X81560Y-35412D01*
X81559Y-35587D01*
X81626Y-35748D01*
X81750Y-35872D01*
X81912Y-35939D01*
X82087Y-35940D01*
X82248Y-35873D01*
X82372Y-35749D01*
X82439Y-35587D01*
X82440Y-35412D01*
X82440Y-36412D01*
X82373Y-36251D01*
X82249Y-36127D01*
X82087Y-36060D01*
X81912Y-36059D01*
X81751Y-36126D01*
X81627Y-36250D01*
X81560Y-36412D01*
X81559Y-36587D01*
X81626Y-36748D01*
X81750Y-36872D01*
X81912Y-36939D01*
X82087Y-36940D01*
X82248Y-36873D01*
X82372Y-36749D01*
X82439Y-36587D01*
X82440Y-36412D01*
X82440Y-37412D01*
X82373Y-37251D01*
X82249Y-37127D01*
X82087Y-37060D01*
X81912Y-37059D01*
X81751Y-37126D01*
X81627Y-37250D01*
X81560Y-37412D01*
X81559Y-37587D01*
X81626Y-37748D01*
X81750Y-37872D01*
X81912Y-37939D01*
X82087Y-37940D01*
X82248Y-37873D01*
X82372Y-37749D01*
X82439Y-37587D01*
X82440Y-37412D01*
X82440Y-38412D01*
X82373Y-38251D01*
X82249Y-38127D01*
X82087Y-38060D01*
X81912Y-38059D01*
X81751Y-38126D01*
X81627Y-38250D01*
X81560Y-38412D01*
X81559Y-38587D01*
X81626Y-38748D01*
X81750Y-38872D01*
X81912Y-38939D01*
X82087Y-38940D01*
X82248Y-38873D01*
X82372Y-38749D01*
X82439Y-38587D01*
X82440Y-38412D01*
X82440Y-39412D01*
X82373Y-39251D01*
X82249Y-39127D01*
X82087Y-39060D01*
X81912Y-39059D01*
X81751Y-39126D01*
X81627Y-39250D01*
X81560Y-39412D01*
X81559Y-39587D01*
X81626Y-39748D01*
X81750Y-39872D01*
X81912Y-39939D01*
X82087Y-39940D01*
X82248Y-39873D01*
X82372Y-39749D01*
X82439Y-39587D01*
X82440Y-39412D01*
X82440Y-40412D01*
X82373Y-40251D01*
X82249Y-40127D01*
X82087Y-40060D01*
X81912Y-40059D01*
X81751Y-40126D01*
X81627Y-40250D01*
X81560Y-40412D01*
X81559Y-40587D01*
X81626Y-40748D01*
X81750Y-40872D01*
X81912Y-40939D01*
X82087Y-40940D01*
X82248Y-40873D01*
X82372Y-40749D01*
X82439Y-40587D01*
X82440Y-40412D01*
X82440Y-41412D01*
X82373Y-41251D01*
X82249Y-41127D01*
X82087Y-41060D01*
X81912Y-41059D01*
X81751Y-41126D01*
X81627Y-41250D01*
X81560Y-41412D01*
X81559Y-41587D01*
X81626Y-41748D01*
X81750Y-41872D01*
X81912Y-41939D01*
X82087Y-41940D01*
X82248Y-41873D01*
X82372Y-41749D01*
X82439Y-41587D01*
X82440Y-41412D01*
X82440Y-42412D01*
X82373Y-42251D01*
X82249Y-42127D01*
X82087Y-42060D01*
X81912Y-42059D01*
X81751Y-42126D01*
X81627Y-42250D01*
X81560Y-42412D01*
X81559Y-42587D01*
X81626Y-42748D01*
X81750Y-42872D01*
X81912Y-42939D01*
X82087Y-42940D01*
X82248Y-42873D01*
X82372Y-42749D01*
X82439Y-42587D01*
X82440Y-42412D01*
X82440Y-43412D01*
X82373Y-43251D01*
X82249Y-43127D01*
X82087Y-43060D01*
X81912Y-43059D01*
X81751Y-43126D01*
X81627Y-43250D01*
X81560Y-43412D01*
X81559Y-43587D01*
X81626Y-43748D01*
X81750Y-43872D01*
X81912Y-43939D01*
X82087Y-43940D01*
X82248Y-43873D01*
X82372Y-43749D01*
X82439Y-43587D01*
X82440Y-43412D01*
X82440Y-44412D01*
X82373Y-44251D01*
X82249Y-44127D01*
X82087Y-44060D01*
X81912Y-44059D01*
X81751Y-44126D01*
X81627Y-44250D01*
X81560Y-44412D01*
X81559Y-44550D01*
X79440Y-42430D01*
X79440Y-31712D01*
X79440Y-31287D01*
X79406Y-31119D01*
X79311Y-30976D01*
X79168Y-30880D01*
X79000Y-30847D01*
X78831Y-30880D01*
X78688Y-30976D01*
X78593Y-31119D01*
X78560Y-31287D01*
X78560Y-31712D01*
X78593Y-31880D01*
X78688Y-32023D01*
X78831Y-32119D01*
X79000Y-32152D01*
X79168Y-32119D01*
X79311Y-32023D01*
X79406Y-31880D01*
X79440Y-31712D01*
X79440Y-42430D01*
X78440Y-41430D01*
X78440Y-31712D01*
X78440Y-31287D01*
X78406Y-31119D01*
X78311Y-30976D01*
X78168Y-30880D01*
X78000Y-30847D01*
X77831Y-30880D01*
X77688Y-30976D01*
X77593Y-31119D01*
X77560Y-31287D01*
X77560Y-31712D01*
X77593Y-31880D01*
X77688Y-32023D01*
X77831Y-32119D01*
X78000Y-32152D01*
X78168Y-32119D01*
X78311Y-32023D01*
X78406Y-31880D01*
X78440Y-31712D01*
X78440Y-41430D01*
X77440Y-40430D01*
X77440Y-31712D01*
X77440Y-31287D01*
X77406Y-31119D01*
X77311Y-30976D01*
X77168Y-30880D01*
X77000Y-30847D01*
X76831Y-30880D01*
X76688Y-30976D01*
X76593Y-31119D01*
X76560Y-31287D01*
X76560Y-31712D01*
X76593Y-31880D01*
X76688Y-32023D01*
X76831Y-32119D01*
X77000Y-32152D01*
X77168Y-32119D01*
X77311Y-32023D01*
X77406Y-31880D01*
X77440Y-31712D01*
X77440Y-40430D01*
X76440Y-39430D01*
X76440Y-31712D01*
X76440Y-31287D01*
X76406Y-31119D01*
X76311Y-30976D01*
X76168Y-30880D01*
X76000Y-30847D01*
X75831Y-30880D01*
X75688Y-30976D01*
X75593Y-31119D01*
X75560Y-31287D01*
X75560Y-31712D01*
X75593Y-31880D01*
X75688Y-32023D01*
X75831Y-32119D01*
X76000Y-32152D01*
X76168Y-32119D01*
X76311Y-32023D01*
X76406Y-31880D01*
X76440Y-31712D01*
X76440Y-39430D01*
X76172Y-39162D01*
X76113Y-39123D01*
X76044Y-39110D01*
X75440Y-39110D01*
X75440Y-31712D01*
X75440Y-31287D01*
X75406Y-31119D01*
X75311Y-30976D01*
X75168Y-30880D01*
X75000Y-30847D01*
X74831Y-30880D01*
X74688Y-30976D01*
X74593Y-31119D01*
X74560Y-31287D01*
X74560Y-31712D01*
X74593Y-31880D01*
X74688Y-32023D01*
X74831Y-32119D01*
X75000Y-32152D01*
X75168Y-32119D01*
X75311Y-32023D01*
X75406Y-31880D01*
X75440Y-31712D01*
X75440Y-39110D01*
X74625Y-39110D01*
X74625Y-38907D01*
X74898Y-38634D01*
X74954Y-38550D01*
X74974Y-38450D01*
X74974Y-38450D01*
X74974Y-37747D01*
X74954Y-37648D01*
X74954Y-37648D01*
X74935Y-37620D01*
X74898Y-37564D01*
X74898Y-37564D01*
X74440Y-37105D01*
X74440Y-31712D01*
X74440Y-31287D01*
X74406Y-31119D01*
X74311Y-30976D01*
X74168Y-30880D01*
X74000Y-30847D01*
X73831Y-30880D01*
X73688Y-30976D01*
X73593Y-31119D01*
X73560Y-31287D01*
X73560Y-31712D01*
X73593Y-31880D01*
X73688Y-32023D01*
X73831Y-32119D01*
X74000Y-32152D01*
X74168Y-32119D01*
X74311Y-32023D01*
X74406Y-31880D01*
X74440Y-31712D01*
X74440Y-37105D01*
X73440Y-36105D01*
X73440Y-31712D01*
X73440Y-31287D01*
X73406Y-31119D01*
X73311Y-30976D01*
X73168Y-30880D01*
X73000Y-30847D01*
X72831Y-30880D01*
X72688Y-30976D01*
X72593Y-31119D01*
X72560Y-31287D01*
X72560Y-31712D01*
X72593Y-31880D01*
X72688Y-32023D01*
X72831Y-32119D01*
X73000Y-32152D01*
X73168Y-32119D01*
X73311Y-32023D01*
X73406Y-31880D01*
X73440Y-31712D01*
X73440Y-36105D01*
X72440Y-35105D01*
X72440Y-31712D01*
X72440Y-31287D01*
X72406Y-31119D01*
X72311Y-30976D01*
X72168Y-30880D01*
X72000Y-30847D01*
X71831Y-30880D01*
X71688Y-30976D01*
X71593Y-31119D01*
X71560Y-31287D01*
X71560Y-31712D01*
X71593Y-31880D01*
X71688Y-32023D01*
X71831Y-32119D01*
X72000Y-32152D01*
X72168Y-32119D01*
X72311Y-32023D01*
X72406Y-31880D01*
X72440Y-31712D01*
X72440Y-35105D01*
X72365Y-35030D01*
X72280Y-34974D01*
X72181Y-34954D01*
X71510Y-34954D01*
X71510Y-34541D01*
X71510Y-34131D01*
X71491Y-34087D01*
X71458Y-34053D01*
X71413Y-34035D01*
X71366Y-34034D01*
X71086Y-34034D01*
X71042Y-34053D01*
X71008Y-34086D01*
X71000Y-34106D01*
X70991Y-34087D01*
X70958Y-34053D01*
X70913Y-34035D01*
X70866Y-34034D01*
X70586Y-34034D01*
X70542Y-34053D01*
X70508Y-34086D01*
X70500Y-34106D01*
X70491Y-34087D01*
X70458Y-34053D01*
X70440Y-34045D01*
X70440Y-31712D01*
X70440Y-31287D01*
X70406Y-31119D01*
X70311Y-30976D01*
X70168Y-30880D01*
X70000Y-30847D01*
X69831Y-30880D01*
X69688Y-30976D01*
X69593Y-31119D01*
X69560Y-31287D01*
X69560Y-31712D01*
X69593Y-31880D01*
X69688Y-32023D01*
X69831Y-32119D01*
X70000Y-32152D01*
X70168Y-32119D01*
X70311Y-32023D01*
X70406Y-31880D01*
X70440Y-31712D01*
X70440Y-34045D01*
X70413Y-34035D01*
X70366Y-34034D01*
X70086Y-34034D01*
X70042Y-34053D01*
X70008Y-34086D01*
X70000Y-34106D01*
X69991Y-34087D01*
X69958Y-34053D01*
X69913Y-34035D01*
X69866Y-34034D01*
X69586Y-34034D01*
X69542Y-34053D01*
X69508Y-34086D01*
X69490Y-34131D01*
X69489Y-34178D01*
X69489Y-34588D01*
X69508Y-34632D01*
X69541Y-34666D01*
X69586Y-34684D01*
X69633Y-34685D01*
X69913Y-34685D01*
X69957Y-34666D01*
X69991Y-34633D01*
X69999Y-34613D01*
X70008Y-34632D01*
X70041Y-34666D01*
X70086Y-34684D01*
X70133Y-34685D01*
X70413Y-34685D01*
X70457Y-34666D01*
X70491Y-34633D01*
X70499Y-34613D01*
X70508Y-34632D01*
X70541Y-34666D01*
X70586Y-34684D01*
X70633Y-34685D01*
X70913Y-34685D01*
X70957Y-34666D01*
X70991Y-34633D01*
X70999Y-34613D01*
X71008Y-34632D01*
X71041Y-34666D01*
X71086Y-34684D01*
X71133Y-34685D01*
X71413Y-34685D01*
X71457Y-34666D01*
X71491Y-34633D01*
X71509Y-34588D01*
X71510Y-34541D01*
X71510Y-34954D01*
X69440Y-34954D01*
X69440Y-31712D01*
X69440Y-31287D01*
X69406Y-31119D01*
X69311Y-30976D01*
X69168Y-30880D01*
X69000Y-30847D01*
X68831Y-30880D01*
X68688Y-30976D01*
X68593Y-31119D01*
X68560Y-31287D01*
X68560Y-31712D01*
X68593Y-31880D01*
X68688Y-32023D01*
X68831Y-32119D01*
X69000Y-32152D01*
X69168Y-32119D01*
X69311Y-32023D01*
X69406Y-31880D01*
X69440Y-31712D01*
X69440Y-34954D01*
X68761Y-34954D01*
X68440Y-34633D01*
X68440Y-31712D01*
X68440Y-31287D01*
X68406Y-31119D01*
X68311Y-30976D01*
X68168Y-30880D01*
X68000Y-30847D01*
X67831Y-30880D01*
X67688Y-30976D01*
X67593Y-31119D01*
X67560Y-31287D01*
X67560Y-31712D01*
X67593Y-31880D01*
X67688Y-32023D01*
X67831Y-32119D01*
X68000Y-32152D01*
X68168Y-32119D01*
X68311Y-32023D01*
X68406Y-31880D01*
X68440Y-31712D01*
X68440Y-34633D01*
X67440Y-33633D01*
X67440Y-31712D01*
X67440Y-31287D01*
X67406Y-31119D01*
X67311Y-30976D01*
X67168Y-30880D01*
X67000Y-30847D01*
X66831Y-30880D01*
X66688Y-30976D01*
X66593Y-31119D01*
X66560Y-31287D01*
X66560Y-31712D01*
X66593Y-31880D01*
X66688Y-32023D01*
X66831Y-32119D01*
X67000Y-32152D01*
X67168Y-32119D01*
X67311Y-32023D01*
X67406Y-31880D01*
X67440Y-31712D01*
X67440Y-33633D01*
X67038Y-33232D01*
X67038Y-33222D01*
X66990Y-33106D01*
X66902Y-33017D01*
X66786Y-32969D01*
X66776Y-32969D01*
X66440Y-32633D01*
X66440Y-31712D01*
X66440Y-31287D01*
X66406Y-31119D01*
X66311Y-30976D01*
X66168Y-30880D01*
X66000Y-30847D01*
X65831Y-30880D01*
X65688Y-30976D01*
X65593Y-31119D01*
X65560Y-31287D01*
X65560Y-31712D01*
X65593Y-31880D01*
X65688Y-32023D01*
X65831Y-32119D01*
X66000Y-32152D01*
X66168Y-32119D01*
X66311Y-32023D01*
X66406Y-31880D01*
X66440Y-31712D01*
X66440Y-32633D01*
X66382Y-32576D01*
X66298Y-32519D01*
X66198Y-32500D01*
X65440Y-32500D01*
X65440Y-31712D01*
X65440Y-31287D01*
X65406Y-31119D01*
X65311Y-30976D01*
X65168Y-30880D01*
X65000Y-30847D01*
X64831Y-30880D01*
X64688Y-30976D01*
X64593Y-31119D01*
X64560Y-31287D01*
X64560Y-31712D01*
X64593Y-31880D01*
X64688Y-32023D01*
X64831Y-32119D01*
X65000Y-32152D01*
X65168Y-32119D01*
X65311Y-32023D01*
X65406Y-31880D01*
X65440Y-31712D01*
X65440Y-32500D01*
X64440Y-32500D01*
X64440Y-31712D01*
X64440Y-31287D01*
X64406Y-31119D01*
X64311Y-30976D01*
X64168Y-30880D01*
X64000Y-30847D01*
X63831Y-30880D01*
X63688Y-30976D01*
X63593Y-31119D01*
X63560Y-31287D01*
X63560Y-31712D01*
X63593Y-31880D01*
X63688Y-32023D01*
X63831Y-32119D01*
X64000Y-32152D01*
X64168Y-32119D01*
X64311Y-32023D01*
X64406Y-31880D01*
X64440Y-31712D01*
X64440Y-32500D01*
X63440Y-32500D01*
X63440Y-31712D01*
X63440Y-31287D01*
X63406Y-31119D01*
X63311Y-30976D01*
X63168Y-30880D01*
X63000Y-30847D01*
X62831Y-30880D01*
X62688Y-30976D01*
X62593Y-31119D01*
X62560Y-31287D01*
X62560Y-31712D01*
X62593Y-31880D01*
X62688Y-32023D01*
X62831Y-32119D01*
X63000Y-32152D01*
X63168Y-32119D01*
X63311Y-32023D01*
X63406Y-31880D01*
X63440Y-31712D01*
X63440Y-32500D01*
X61840Y-32500D01*
X61840Y-31712D01*
X61840Y-31287D01*
X61806Y-31119D01*
X61711Y-30976D01*
X61568Y-30880D01*
X61400Y-30847D01*
X61231Y-30880D01*
X61088Y-30976D01*
X60993Y-31119D01*
X60960Y-31287D01*
X60960Y-31712D01*
X60993Y-31880D01*
X61088Y-32023D01*
X61231Y-32119D01*
X61400Y-32152D01*
X61568Y-32119D01*
X61711Y-32023D01*
X61806Y-31880D01*
X61840Y-31712D01*
X61840Y-32500D01*
X60840Y-32500D01*
X60840Y-31712D01*
X60840Y-31287D01*
X60806Y-31119D01*
X60711Y-30976D01*
X60568Y-30880D01*
X60400Y-30847D01*
X60231Y-30880D01*
X60088Y-30976D01*
X59993Y-31119D01*
X59960Y-31287D01*
X59960Y-31712D01*
X59993Y-31880D01*
X60088Y-32023D01*
X60231Y-32119D01*
X60400Y-32152D01*
X60568Y-32119D01*
X60711Y-32023D01*
X60806Y-31880D01*
X60840Y-31712D01*
X60840Y-32500D01*
X59840Y-32500D01*
X59840Y-31712D01*
X59840Y-31287D01*
X59806Y-31119D01*
X59711Y-30976D01*
X59568Y-30880D01*
X59400Y-30847D01*
X59231Y-30880D01*
X59088Y-30976D01*
X58993Y-31119D01*
X58960Y-31287D01*
X58960Y-31712D01*
X58993Y-31880D01*
X59088Y-32023D01*
X59231Y-32119D01*
X59400Y-32152D01*
X59568Y-32119D01*
X59711Y-32023D01*
X59806Y-31880D01*
X59840Y-31712D01*
X59840Y-32500D01*
X58840Y-32500D01*
X58840Y-31712D01*
X58840Y-31287D01*
X58806Y-31119D01*
X58711Y-30976D01*
X58568Y-30880D01*
X58400Y-30847D01*
X58231Y-30880D01*
X58088Y-30976D01*
X57993Y-31119D01*
X57960Y-31287D01*
X57960Y-31712D01*
X57993Y-31880D01*
X58088Y-32023D01*
X58231Y-32119D01*
X58400Y-32152D01*
X58568Y-32119D01*
X58711Y-32023D01*
X58806Y-31880D01*
X58840Y-31712D01*
X58840Y-32500D01*
X57840Y-32500D01*
X57840Y-31712D01*
X57840Y-31287D01*
X57806Y-31119D01*
X57711Y-30976D01*
X57568Y-30880D01*
X57400Y-30847D01*
X57231Y-30880D01*
X57088Y-30976D01*
X56993Y-31119D01*
X56960Y-31287D01*
X56960Y-31712D01*
X56993Y-31880D01*
X57088Y-32023D01*
X57231Y-32119D01*
X57400Y-32152D01*
X57568Y-32119D01*
X57711Y-32023D01*
X57806Y-31880D01*
X57840Y-31712D01*
X57840Y-32500D01*
X56840Y-32500D01*
X56840Y-31712D01*
X56840Y-31287D01*
X56806Y-31119D01*
X56711Y-30976D01*
X56568Y-30880D01*
X56400Y-30847D01*
X56231Y-30880D01*
X56088Y-30976D01*
X55993Y-31119D01*
X55960Y-31287D01*
X55960Y-31712D01*
X55993Y-31880D01*
X56088Y-32023D01*
X56231Y-32119D01*
X56400Y-32152D01*
X56568Y-32119D01*
X56711Y-32023D01*
X56806Y-31880D01*
X56840Y-31712D01*
X56840Y-32500D01*
X55840Y-32500D01*
X55840Y-31712D01*
X55840Y-31287D01*
X55806Y-31119D01*
X55711Y-30976D01*
X55568Y-30880D01*
X55400Y-30847D01*
X55231Y-30880D01*
X55088Y-30976D01*
X54993Y-31119D01*
X54960Y-31287D01*
X54960Y-31712D01*
X54993Y-31880D01*
X55088Y-32023D01*
X55231Y-32119D01*
X55400Y-32152D01*
X55568Y-32119D01*
X55711Y-32023D01*
X55806Y-31880D01*
X55840Y-31712D01*
X55840Y-32500D01*
X54840Y-32500D01*
X54840Y-31712D01*
X54840Y-31287D01*
X54806Y-31119D01*
X54711Y-30976D01*
X54568Y-30880D01*
X54400Y-30847D01*
X54231Y-30880D01*
X54088Y-30976D01*
X53993Y-31119D01*
X53960Y-31287D01*
X53960Y-31712D01*
X53993Y-31880D01*
X54088Y-32023D01*
X54231Y-32119D01*
X54400Y-32152D01*
X54568Y-32119D01*
X54711Y-32023D01*
X54806Y-31880D01*
X54840Y-31712D01*
X54840Y-32500D01*
X53840Y-32500D01*
X53840Y-31712D01*
X53840Y-31287D01*
X53806Y-31119D01*
X53711Y-30976D01*
X53568Y-30880D01*
X53400Y-30847D01*
X53231Y-30880D01*
X53088Y-30976D01*
X52993Y-31119D01*
X52960Y-31287D01*
X52960Y-31712D01*
X52993Y-31880D01*
X53088Y-32023D01*
X53231Y-32119D01*
X53400Y-32152D01*
X53568Y-32119D01*
X53711Y-32023D01*
X53806Y-31880D01*
X53840Y-31712D01*
X53840Y-32500D01*
X52840Y-32500D01*
X52840Y-31712D01*
X52840Y-31287D01*
X52806Y-31119D01*
X52711Y-30976D01*
X52568Y-30880D01*
X52400Y-30847D01*
X52231Y-30880D01*
X52088Y-30976D01*
X51993Y-31119D01*
X51960Y-31287D01*
X51960Y-31712D01*
X51993Y-31880D01*
X52088Y-32023D01*
X52231Y-32119D01*
X52400Y-32152D01*
X52568Y-32119D01*
X52711Y-32023D01*
X52806Y-31880D01*
X52840Y-31712D01*
X52840Y-32500D01*
X50685Y-32500D01*
X50585Y-32519D01*
X50501Y-32576D01*
X48816Y-34261D01*
X48759Y-34345D01*
X48753Y-34375D01*
X48751Y-34376D01*
X48627Y-34500D01*
X48560Y-34662D01*
X48559Y-34837D01*
X48626Y-34998D01*
X48750Y-35122D01*
X48912Y-35189D01*
X49087Y-35190D01*
X49248Y-35123D01*
X49363Y-35009D01*
X49363Y-35019D01*
X49072Y-35310D01*
X48912Y-35309D01*
X48751Y-35376D01*
X48627Y-35500D01*
X48560Y-35662D01*
X48559Y-35837D01*
X48626Y-35998D01*
X48750Y-36122D01*
X48912Y-36189D01*
X49087Y-36190D01*
X49248Y-36123D01*
X49372Y-35999D01*
X49439Y-35837D01*
X49440Y-35677D01*
X49806Y-35310D01*
X49806Y-35310D01*
X49844Y-35254D01*
X49863Y-35226D01*
X49863Y-35226D01*
X49883Y-35126D01*
X49883Y-35126D01*
X49883Y-34429D01*
X49918Y-34394D01*
X49918Y-34394D01*
X49971Y-34523D01*
X50063Y-34551D01*
X50365Y-34250D01*
X50359Y-34244D01*
X50444Y-34159D01*
X50450Y-34165D01*
X50455Y-34159D01*
X50540Y-34244D01*
X50534Y-34250D01*
X50836Y-34551D01*
X50928Y-34523D01*
X50996Y-34319D01*
X50981Y-34105D01*
X50932Y-33986D01*
X51366Y-33986D01*
X52280Y-34900D01*
X51968Y-34900D01*
X51889Y-34822D01*
X51890Y-34662D01*
X51823Y-34501D01*
X51699Y-34377D01*
X51537Y-34310D01*
X51362Y-34309D01*
X51201Y-34376D01*
X51077Y-34500D01*
X51010Y-34662D01*
X51009Y-34837D01*
X51076Y-34998D01*
X51200Y-35122D01*
X51222Y-35131D01*
X51173Y-35141D01*
X51114Y-35180D01*
X50994Y-35300D01*
X50981Y-35105D01*
X50928Y-34976D01*
X50836Y-34948D01*
X50751Y-35032D01*
X50751Y-34863D01*
X50723Y-34771D01*
X50664Y-34752D01*
X50723Y-34728D01*
X50751Y-34636D01*
X50450Y-34334D01*
X50148Y-34636D01*
X50176Y-34728D01*
X50235Y-34747D01*
X50176Y-34771D01*
X50148Y-34863D01*
X50450Y-35165D01*
X50751Y-34863D01*
X50751Y-35032D01*
X50534Y-35250D01*
X50540Y-35255D01*
X50455Y-35340D01*
X50450Y-35334D01*
X50365Y-35419D01*
X50365Y-35250D01*
X50063Y-34948D01*
X49971Y-34976D01*
X49903Y-35180D01*
X49918Y-35394D01*
X49971Y-35523D01*
X50063Y-35551D01*
X50365Y-35250D01*
X50365Y-35419D01*
X50148Y-35636D01*
X50176Y-35728D01*
X50380Y-35796D01*
X50594Y-35781D01*
X50723Y-35728D01*
X50751Y-35636D01*
X50751Y-35636D01*
X50796Y-35681D01*
X50829Y-35647D01*
X50829Y-36017D01*
X50823Y-36001D01*
X50751Y-35929D01*
X50699Y-35877D01*
X50537Y-35810D01*
X50362Y-35809D01*
X50201Y-35876D01*
X50077Y-36000D01*
X50010Y-36162D01*
X50009Y-36337D01*
X50076Y-36498D01*
X50200Y-36622D01*
X50362Y-36689D01*
X50537Y-36690D01*
X50698Y-36623D01*
X50822Y-36499D01*
X50829Y-36482D01*
X50829Y-36949D01*
X50843Y-37018D01*
X50882Y-37076D01*
X51182Y-37377D01*
X51193Y-37384D01*
X51077Y-37500D01*
X51010Y-37662D01*
X51009Y-37837D01*
X51076Y-37998D01*
X51200Y-38122D01*
X51362Y-38189D01*
X51382Y-38189D01*
X52504Y-39311D01*
X50928Y-39311D01*
X50890Y-39272D01*
X50890Y-37162D01*
X50823Y-37001D01*
X50699Y-36877D01*
X50537Y-36810D01*
X50362Y-36809D01*
X50201Y-36876D01*
X50077Y-37000D01*
X50010Y-37162D01*
X50009Y-37337D01*
X50076Y-37498D01*
X50200Y-37622D01*
X50362Y-37689D01*
X50537Y-37690D01*
X50698Y-37623D01*
X50822Y-37499D01*
X50889Y-37337D01*
X50890Y-37162D01*
X50890Y-39272D01*
X49439Y-37822D01*
X49440Y-37662D01*
X49373Y-37501D01*
X49249Y-37377D01*
X49087Y-37310D01*
X49043Y-37310D01*
X49183Y-37169D01*
X49201Y-37142D01*
X49248Y-37123D01*
X49372Y-36999D01*
X49439Y-36837D01*
X49440Y-36662D01*
X49373Y-36501D01*
X49249Y-36377D01*
X49087Y-36310D01*
X48912Y-36309D01*
X48751Y-36376D01*
X48627Y-36500D01*
X48560Y-36662D01*
X48559Y-36837D01*
X48624Y-36993D01*
X48546Y-37071D01*
X48546Y-35319D01*
X48546Y-34319D01*
X48531Y-34105D01*
X48478Y-33976D01*
X48386Y-33948D01*
X48301Y-34032D01*
X48301Y-33863D01*
X48273Y-33771D01*
X48069Y-33703D01*
X47855Y-33718D01*
X47726Y-33771D01*
X47698Y-33863D01*
X48000Y-34165D01*
X48301Y-33863D01*
X48301Y-34032D01*
X48084Y-34250D01*
X48386Y-34551D01*
X48478Y-34523D01*
X48546Y-34319D01*
X48546Y-35319D01*
X48531Y-35105D01*
X48478Y-34976D01*
X48386Y-34948D01*
X48301Y-35032D01*
X48301Y-34863D01*
X48273Y-34771D01*
X48214Y-34752D01*
X48273Y-34728D01*
X48301Y-34636D01*
X48000Y-34334D01*
X47915Y-34419D01*
X47915Y-34250D01*
X47613Y-33948D01*
X47521Y-33976D01*
X47453Y-34180D01*
X47468Y-34394D01*
X47521Y-34523D01*
X47613Y-34551D01*
X47915Y-34250D01*
X47915Y-34419D01*
X47698Y-34636D01*
X47726Y-34728D01*
X47785Y-34747D01*
X47726Y-34771D01*
X47698Y-34863D01*
X48000Y-35165D01*
X48301Y-34863D01*
X48301Y-35032D01*
X48084Y-35250D01*
X48386Y-35551D01*
X48478Y-35523D01*
X48546Y-35319D01*
X48546Y-37071D01*
X48440Y-37177D01*
X48440Y-37162D01*
X48440Y-36162D01*
X48373Y-36001D01*
X48301Y-35929D01*
X48301Y-35636D01*
X48000Y-35334D01*
X47915Y-35419D01*
X47915Y-35250D01*
X47613Y-34948D01*
X47521Y-34976D01*
X47453Y-35180D01*
X47468Y-35394D01*
X47521Y-35523D01*
X47613Y-35551D01*
X47915Y-35250D01*
X47915Y-35419D01*
X47698Y-35636D01*
X47726Y-35728D01*
X47930Y-35796D01*
X48144Y-35781D01*
X48273Y-35728D01*
X48301Y-35636D01*
X48301Y-35929D01*
X48249Y-35877D01*
X48087Y-35810D01*
X47912Y-35809D01*
X47751Y-35876D01*
X47627Y-36000D01*
X47560Y-36162D01*
X47559Y-36337D01*
X47626Y-36498D01*
X47750Y-36622D01*
X47912Y-36689D01*
X48087Y-36690D01*
X48248Y-36623D01*
X48372Y-36499D01*
X48439Y-36337D01*
X48440Y-36162D01*
X48440Y-37162D01*
X48373Y-37001D01*
X48249Y-36877D01*
X48087Y-36810D01*
X47912Y-36809D01*
X47751Y-36876D01*
X47627Y-37000D01*
X47560Y-37162D01*
X47559Y-37337D01*
X47626Y-37498D01*
X47750Y-37622D01*
X47912Y-37689D01*
X48087Y-37690D01*
X48211Y-37638D01*
X48211Y-37963D01*
X48231Y-38062D01*
X48288Y-38146D01*
X50278Y-40137D01*
X50278Y-40137D01*
X50362Y-40193D01*
X50362Y-40193D01*
X50379Y-40196D01*
X50462Y-40213D01*
X67299Y-40213D01*
X67398Y-40193D01*
X67483Y-40137D01*
X68390Y-39230D01*
X68400Y-39230D01*
X68516Y-39182D01*
X68523Y-39175D01*
X68714Y-39175D01*
X68635Y-39207D01*
X68547Y-39296D01*
X68498Y-39411D01*
X68498Y-39535D01*
X68143Y-39890D01*
X68104Y-39949D01*
X68090Y-40018D01*
X68090Y-40759D01*
X68056Y-40794D01*
X68008Y-40910D01*
X68007Y-41035D01*
X68047Y-41130D01*
X63169Y-41130D01*
X63069Y-41030D01*
X63069Y-40908D01*
X63021Y-40792D01*
X62933Y-40703D01*
X62817Y-40655D01*
X62692Y-40655D01*
X62576Y-40703D01*
X62487Y-40791D01*
X62439Y-40907D01*
X62439Y-41032D01*
X62487Y-41148D01*
X62576Y-41237D01*
X62691Y-41285D01*
X62815Y-41285D01*
X62967Y-41437D01*
X63025Y-41476D01*
X63094Y-41490D01*
X75735Y-41490D01*
X81588Y-47343D01*
X81560Y-47412D01*
X81559Y-47587D01*
X81626Y-47748D01*
X81750Y-47872D01*
X81912Y-47939D01*
X82087Y-47940D01*
X82248Y-47873D01*
X82372Y-47749D01*
X82439Y-47587D01*
X82440Y-47412D01*
X82373Y-47251D01*
X82249Y-47127D01*
X82087Y-47060D01*
X81912Y-47059D01*
X81843Y-47088D01*
X75937Y-41183D01*
X75892Y-41153D01*
X77398Y-41153D01*
X81588Y-45343D01*
X81560Y-45412D01*
X81559Y-45587D01*
X81626Y-45748D01*
X81750Y-45872D01*
X81912Y-45939D01*
X82087Y-45940D01*
X82248Y-45873D01*
X82372Y-45749D01*
X82439Y-45587D01*
X82440Y-45412D01*
X82373Y-45251D01*
X82302Y-45180D01*
X82425Y-45180D01*
X82588Y-45343D01*
X82560Y-45412D01*
X82559Y-45587D01*
X82626Y-45748D01*
X82750Y-45872D01*
X82912Y-45939D01*
X83087Y-45940D01*
X83248Y-45873D01*
X83372Y-45749D01*
X83439Y-45587D01*
X83440Y-45412D01*
X83440Y-46412D01*
X83373Y-46251D01*
X83249Y-46127D01*
X83087Y-46060D01*
X82912Y-46059D01*
X82751Y-46126D01*
X82627Y-46250D01*
X82560Y-46412D01*
X82559Y-46587D01*
X82626Y-46748D01*
X82637Y-46760D01*
X82514Y-46760D01*
X82411Y-46656D01*
X82439Y-46587D01*
X82440Y-46412D01*
X82373Y-46251D01*
X82249Y-46127D01*
X82087Y-46060D01*
X81912Y-46059D01*
X81751Y-46126D01*
X81627Y-46250D01*
X81560Y-46412D01*
X81559Y-46587D01*
X81626Y-46748D01*
X81750Y-46872D01*
X81912Y-46939D01*
X82087Y-46940D01*
X82156Y-46911D01*
X82312Y-47067D01*
X82312Y-47067D01*
X82351Y-47093D01*
X82371Y-47106D01*
X82371Y-47106D01*
X82440Y-47120D01*
X82440Y-47120D01*
X82767Y-47120D01*
X82751Y-47126D01*
X82627Y-47250D01*
X82560Y-47412D01*
X82559Y-47587D01*
X82626Y-47748D01*
X82750Y-47872D01*
X82912Y-47939D01*
X83087Y-47940D01*
X83248Y-47873D01*
X83372Y-47749D01*
X83439Y-47587D01*
X83440Y-47412D01*
X83373Y-47251D01*
X83249Y-47127D01*
X83232Y-47120D01*
X84653Y-47120D01*
X85144Y-47610D01*
X85143Y-47733D01*
X85191Y-47849D01*
X85280Y-47937D01*
X85396Y-47986D01*
X85521Y-47986D01*
X85637Y-47938D01*
X85725Y-47849D01*
X85773Y-47734D01*
X85774Y-47608D01*
X85774Y-51335D01*
X83375Y-51335D01*
X83517Y-51276D01*
X83775Y-51018D01*
X83914Y-50682D01*
X83915Y-50318D01*
X83776Y-49982D01*
X83518Y-49724D01*
X83440Y-49691D01*
X83440Y-48412D01*
X83373Y-48251D01*
X83249Y-48127D01*
X83087Y-48060D01*
X82912Y-48059D01*
X82751Y-48126D01*
X82627Y-48250D01*
X82560Y-48412D01*
X82559Y-48587D01*
X82626Y-48748D01*
X82750Y-48872D01*
X82912Y-48939D01*
X83087Y-48940D01*
X83248Y-48873D01*
X83372Y-48749D01*
X83439Y-48587D01*
X83440Y-48412D01*
X83440Y-49691D01*
X83182Y-49585D01*
X82818Y-49584D01*
X82482Y-49723D01*
X82440Y-49766D01*
X82440Y-48412D01*
X82373Y-48251D01*
X82249Y-48127D01*
X82087Y-48060D01*
X81912Y-48059D01*
X81751Y-48126D01*
X81627Y-48250D01*
X81560Y-48412D01*
X81559Y-48587D01*
X81626Y-48748D01*
X81750Y-48872D01*
X81912Y-48939D01*
X82087Y-48940D01*
X82248Y-48873D01*
X82372Y-48749D01*
X82439Y-48587D01*
X82440Y-48412D01*
X82440Y-49766D01*
X82224Y-49981D01*
X82085Y-50317D01*
X82084Y-50681D01*
X82223Y-51017D01*
X82481Y-51275D01*
X82624Y-51335D01*
X81440Y-51335D01*
X81440Y-50712D01*
X81440Y-50287D01*
X81406Y-50119D01*
X81311Y-49976D01*
X81168Y-49880D01*
X81000Y-49847D01*
X80831Y-49880D01*
X80688Y-49976D01*
X80593Y-50119D01*
X80560Y-50287D01*
X80560Y-50712D01*
X80593Y-50880D01*
X80688Y-51023D01*
X80831Y-51119D01*
X81000Y-51152D01*
X81168Y-51119D01*
X81311Y-51023D01*
X81406Y-50880D01*
X81440Y-50712D01*
X81440Y-51335D01*
X80440Y-51335D01*
X80440Y-50712D01*
X80440Y-50287D01*
X80406Y-50119D01*
X80311Y-49976D01*
X80168Y-49880D01*
X80000Y-49847D01*
X79831Y-49880D01*
X79688Y-49976D01*
X79593Y-50119D01*
X79560Y-50287D01*
X79560Y-50712D01*
X79593Y-50880D01*
X79688Y-51023D01*
X79831Y-51119D01*
X80000Y-51152D01*
X80168Y-51119D01*
X80311Y-51023D01*
X80406Y-50880D01*
X80440Y-50712D01*
X80440Y-51335D01*
X79440Y-51335D01*
X79440Y-50712D01*
X79440Y-50287D01*
X79406Y-50119D01*
X79311Y-49976D01*
X79168Y-49880D01*
X79000Y-49847D01*
X78831Y-49880D01*
X78688Y-49976D01*
X78593Y-50119D01*
X78560Y-50287D01*
X78560Y-50712D01*
X78593Y-50880D01*
X78688Y-51023D01*
X78831Y-51119D01*
X79000Y-51152D01*
X79168Y-51119D01*
X79311Y-51023D01*
X79406Y-50880D01*
X79440Y-50712D01*
X79440Y-51335D01*
X78440Y-51335D01*
X78440Y-50712D01*
X78440Y-50287D01*
X78406Y-50119D01*
X78311Y-49976D01*
X78168Y-49880D01*
X78000Y-49847D01*
X77831Y-49880D01*
X77688Y-49976D01*
X77593Y-50119D01*
X77560Y-50287D01*
X77560Y-50712D01*
X77593Y-50880D01*
X77688Y-51023D01*
X77831Y-51119D01*
X78000Y-51152D01*
X78168Y-51119D01*
X78311Y-51023D01*
X78406Y-50880D01*
X78440Y-50712D01*
X78440Y-51335D01*
X77440Y-51335D01*
X77440Y-50712D01*
X77440Y-50287D01*
X77406Y-50119D01*
X77311Y-49976D01*
X77168Y-49880D01*
X77000Y-49847D01*
X76831Y-49880D01*
X76688Y-49976D01*
X76593Y-50119D01*
X76560Y-50287D01*
X76560Y-50712D01*
X76593Y-50880D01*
X76688Y-51023D01*
X76831Y-51119D01*
X77000Y-51152D01*
X77168Y-51119D01*
X77311Y-51023D01*
X77406Y-50880D01*
X77440Y-50712D01*
X77440Y-51335D01*
X76440Y-51335D01*
X76440Y-50712D01*
X76440Y-50287D01*
X76406Y-50119D01*
X76311Y-49976D01*
X76168Y-49880D01*
X76000Y-49847D01*
X75831Y-49880D01*
X75688Y-49976D01*
X75593Y-50119D01*
X75560Y-50287D01*
X75560Y-50712D01*
X75593Y-50880D01*
X75688Y-51023D01*
X75831Y-51119D01*
X76000Y-51152D01*
X76168Y-51119D01*
X76311Y-51023D01*
X76406Y-50880D01*
X76440Y-50712D01*
X76440Y-51335D01*
X75440Y-51335D01*
X75440Y-50712D01*
X75440Y-50287D01*
X75406Y-50119D01*
X75311Y-49976D01*
X75168Y-49880D01*
X75000Y-49847D01*
X74831Y-49880D01*
X74688Y-49976D01*
X74593Y-50119D01*
X74560Y-50287D01*
X74560Y-50712D01*
X74593Y-50880D01*
X74688Y-51023D01*
X74831Y-51119D01*
X75000Y-51152D01*
X75168Y-51119D01*
X75311Y-51023D01*
X75406Y-50880D01*
X75440Y-50712D01*
X75440Y-51335D01*
X74440Y-51335D01*
X74440Y-50712D01*
X74440Y-50287D01*
X74406Y-50119D01*
X74311Y-49976D01*
X74168Y-49880D01*
X74000Y-49847D01*
X73831Y-49880D01*
X73688Y-49976D01*
X73593Y-50119D01*
X73560Y-50287D01*
X73560Y-50712D01*
X73593Y-50880D01*
X73688Y-51023D01*
X73831Y-51119D01*
X74000Y-51152D01*
X74168Y-51119D01*
X74311Y-51023D01*
X74406Y-50880D01*
X74440Y-50712D01*
X74440Y-51335D01*
X72440Y-51335D01*
X72440Y-50712D01*
X72440Y-50287D01*
X72406Y-50119D01*
X72311Y-49976D01*
X72168Y-49880D01*
X72000Y-49847D01*
X71831Y-49880D01*
X71688Y-49976D01*
X71593Y-50119D01*
X71560Y-50287D01*
X71560Y-50712D01*
X71593Y-50880D01*
X71688Y-51023D01*
X71831Y-51119D01*
X72000Y-51152D01*
X72168Y-51119D01*
X72311Y-51023D01*
X72406Y-50880D01*
X72440Y-50712D01*
X72440Y-51335D01*
X71440Y-51335D01*
X71440Y-50712D01*
X71440Y-50287D01*
X71406Y-50119D01*
X71311Y-49976D01*
X71168Y-49880D01*
X71000Y-49847D01*
X70831Y-49880D01*
X70688Y-49976D01*
X70593Y-50119D01*
X70560Y-50287D01*
X70560Y-50712D01*
X70593Y-50880D01*
X70688Y-51023D01*
X70831Y-51119D01*
X71000Y-51152D01*
X71168Y-51119D01*
X71311Y-51023D01*
X71406Y-50880D01*
X71440Y-50712D01*
X71440Y-51335D01*
X70440Y-51335D01*
X70440Y-50712D01*
X70440Y-50287D01*
X70406Y-50119D01*
X70311Y-49976D01*
X70168Y-49880D01*
X70000Y-49847D01*
X69831Y-49880D01*
X69688Y-49976D01*
X69593Y-50119D01*
X69560Y-50287D01*
X69560Y-50712D01*
X69593Y-50880D01*
X69688Y-51023D01*
X69831Y-51119D01*
X70000Y-51152D01*
X70168Y-51119D01*
X70311Y-51023D01*
X70406Y-50880D01*
X70440Y-50712D01*
X70440Y-51335D01*
X69440Y-51335D01*
X69440Y-50712D01*
X69440Y-50287D01*
X69406Y-50119D01*
X69311Y-49976D01*
X69168Y-49880D01*
X69000Y-49847D01*
X68831Y-49880D01*
X68688Y-49976D01*
X68593Y-50119D01*
X68560Y-50287D01*
X68560Y-50712D01*
X68593Y-50880D01*
X68688Y-51023D01*
X68831Y-51119D01*
X69000Y-51152D01*
X69168Y-51119D01*
X69311Y-51023D01*
X69406Y-50880D01*
X69440Y-50712D01*
X69440Y-51335D01*
X57440Y-51335D01*
X57440Y-50712D01*
X57440Y-50287D01*
X57406Y-50119D01*
X57311Y-49976D01*
X57168Y-49880D01*
X57000Y-49847D01*
X56831Y-49880D01*
X56688Y-49976D01*
X56593Y-50119D01*
X56560Y-50287D01*
X56560Y-50712D01*
X56593Y-50880D01*
X56688Y-51023D01*
X56831Y-51119D01*
X57000Y-51152D01*
X57168Y-51119D01*
X57311Y-51023D01*
X57406Y-50880D01*
X57440Y-50712D01*
X57440Y-51335D01*
X56440Y-51335D01*
X56440Y-50712D01*
X56440Y-50287D01*
X56406Y-50119D01*
X56311Y-49976D01*
X56168Y-49880D01*
X56000Y-49847D01*
X55831Y-49880D01*
X55688Y-49976D01*
X55593Y-50119D01*
X55560Y-50287D01*
X55560Y-50712D01*
X55593Y-50880D01*
X55688Y-51023D01*
X55831Y-51119D01*
X56000Y-51152D01*
X56168Y-51119D01*
X56311Y-51023D01*
X56406Y-50880D01*
X56440Y-50712D01*
X56440Y-51335D01*
X50875Y-51335D01*
X51017Y-51276D01*
X51275Y-51018D01*
X51414Y-50682D01*
X51415Y-50318D01*
X51355Y-50174D01*
X53631Y-50174D01*
X53731Y-50154D01*
X53815Y-50098D01*
X54079Y-49834D01*
X57825Y-49834D01*
X57820Y-49859D01*
X57820Y-49888D01*
X57688Y-49976D01*
X57593Y-50119D01*
X57560Y-50287D01*
X57560Y-50712D01*
X57593Y-50880D01*
X57688Y-51023D01*
X57831Y-51119D01*
X58000Y-51152D01*
X58168Y-51119D01*
X58311Y-51023D01*
X58406Y-50880D01*
X58440Y-50712D01*
X58440Y-50287D01*
X58406Y-50119D01*
X58353Y-50039D01*
X58646Y-50039D01*
X58593Y-50119D01*
X58560Y-50287D01*
X58560Y-50712D01*
X58593Y-50880D01*
X58688Y-51023D01*
X58831Y-51119D01*
X59000Y-51152D01*
X59168Y-51119D01*
X59311Y-51023D01*
X59406Y-50880D01*
X59440Y-50712D01*
X59440Y-50287D01*
X59406Y-50119D01*
X59353Y-50039D01*
X59646Y-50039D01*
X59593Y-50119D01*
X59560Y-50287D01*
X59560Y-50712D01*
X59593Y-50880D01*
X59688Y-51023D01*
X59831Y-51119D01*
X60000Y-51152D01*
X60168Y-51119D01*
X60311Y-51023D01*
X60406Y-50880D01*
X60440Y-50712D01*
X60440Y-50287D01*
X60406Y-50119D01*
X60353Y-50039D01*
X60646Y-50039D01*
X60593Y-50119D01*
X60560Y-50287D01*
X60560Y-50712D01*
X60593Y-50880D01*
X60688Y-51023D01*
X60831Y-51119D01*
X61000Y-51152D01*
X61168Y-51119D01*
X61311Y-51023D01*
X61406Y-50880D01*
X61418Y-50820D01*
X61581Y-50820D01*
X61593Y-50880D01*
X61688Y-51023D01*
X61831Y-51119D01*
X62000Y-51152D01*
X62168Y-51119D01*
X62311Y-51023D01*
X62406Y-50880D01*
X62440Y-50712D01*
X62440Y-50287D01*
X62406Y-50119D01*
X62353Y-50039D01*
X62646Y-50039D01*
X62593Y-50119D01*
X62560Y-50287D01*
X62560Y-50712D01*
X62593Y-50880D01*
X62688Y-51023D01*
X62831Y-51119D01*
X63000Y-51152D01*
X63168Y-51119D01*
X63311Y-51023D01*
X63406Y-50880D01*
X63440Y-50712D01*
X63440Y-50287D01*
X63406Y-50119D01*
X63353Y-50039D01*
X64646Y-50039D01*
X64593Y-50119D01*
X64560Y-50287D01*
X64560Y-50712D01*
X64593Y-50880D01*
X64688Y-51023D01*
X64831Y-51119D01*
X65000Y-51152D01*
X65168Y-51119D01*
X65311Y-51023D01*
X65406Y-50880D01*
X65440Y-50712D01*
X65440Y-50287D01*
X65406Y-50119D01*
X65353Y-50039D01*
X65646Y-50039D01*
X65593Y-50119D01*
X65560Y-50287D01*
X65560Y-50712D01*
X65593Y-50880D01*
X65688Y-51023D01*
X65831Y-51119D01*
X66000Y-51152D01*
X66168Y-51119D01*
X66311Y-51023D01*
X66406Y-50880D01*
X66440Y-50712D01*
X66440Y-50287D01*
X66406Y-50119D01*
X66353Y-50039D01*
X66646Y-50039D01*
X66593Y-50119D01*
X66560Y-50287D01*
X66560Y-50712D01*
X66593Y-50880D01*
X66688Y-51023D01*
X66831Y-51119D01*
X67000Y-51152D01*
X67168Y-51119D01*
X67311Y-51023D01*
X67406Y-50880D01*
X67440Y-50712D01*
X67440Y-50287D01*
X67406Y-50119D01*
X67353Y-50039D01*
X67646Y-50039D01*
X67593Y-50119D01*
X67560Y-50287D01*
X67560Y-50712D01*
X67593Y-50880D01*
X67688Y-51023D01*
X67831Y-51119D01*
X68000Y-51152D01*
X68168Y-51119D01*
X68311Y-51023D01*
X68406Y-50880D01*
X68440Y-50712D01*
X68440Y-50287D01*
X68406Y-50119D01*
X68311Y-49976D01*
X68168Y-49880D01*
X68001Y-49847D01*
X69760Y-48088D01*
X69760Y-48088D01*
X69786Y-48049D01*
X69799Y-48030D01*
X69799Y-48030D01*
X69812Y-47961D01*
X69812Y-47961D01*
X69812Y-47297D01*
X70600Y-46510D01*
X70600Y-46510D01*
X70639Y-46451D01*
X70653Y-46382D01*
X70653Y-46382D01*
X70653Y-46129D01*
X70740Y-46042D01*
X70788Y-45927D01*
X70788Y-45801D01*
X70740Y-45686D01*
X70652Y-45597D01*
X70536Y-45549D01*
X70411Y-45549D01*
X70295Y-45597D01*
X70206Y-45685D01*
X70158Y-45801D01*
X70158Y-45926D01*
X70206Y-46042D01*
X70293Y-46129D01*
X70293Y-46308D01*
X69625Y-46976D01*
X69625Y-46572D01*
X69603Y-46520D01*
X69564Y-46481D01*
X69512Y-46460D01*
X69457Y-46459D01*
X69430Y-46459D01*
X69430Y-46459D01*
X69430Y-45809D01*
X70377Y-44862D01*
X70377Y-44862D01*
X70416Y-44804D01*
X70429Y-44735D01*
X70430Y-44735D01*
X70430Y-44708D01*
X70457Y-44696D01*
X70491Y-44663D01*
X70499Y-44643D01*
X70508Y-44662D01*
X70541Y-44696D01*
X70570Y-44708D01*
X70570Y-44735D01*
X70583Y-44804D01*
X70622Y-44862D01*
X71570Y-45809D01*
X71570Y-46459D01*
X71570Y-46459D01*
X71487Y-46459D01*
X71435Y-46481D01*
X71396Y-46520D01*
X71375Y-46572D01*
X71374Y-46627D01*
X71374Y-47097D01*
X71396Y-47149D01*
X71435Y-47188D01*
X71487Y-47209D01*
X71542Y-47210D01*
X72012Y-47210D01*
X72064Y-47188D01*
X72103Y-47149D01*
X72124Y-47097D01*
X72125Y-47042D01*
X72125Y-46572D01*
X72103Y-46520D01*
X72064Y-46481D01*
X72012Y-46460D01*
X71957Y-46459D01*
X71930Y-46459D01*
X71930Y-46459D01*
X71930Y-45735D01*
X71916Y-45666D01*
X71877Y-45607D01*
X71877Y-45607D01*
X70962Y-44692D01*
X70991Y-44663D01*
X70999Y-44643D01*
X71008Y-44662D01*
X71041Y-44696D01*
X71086Y-44714D01*
X71133Y-44715D01*
X71413Y-44715D01*
X71457Y-44696D01*
X71470Y-44684D01*
X73747Y-46962D01*
X73747Y-46962D01*
X73805Y-47001D01*
X73874Y-47014D01*
X73874Y-47015D01*
X73874Y-47015D01*
X73874Y-47097D01*
X73896Y-47149D01*
X73935Y-47188D01*
X73987Y-47209D01*
X74042Y-47210D01*
X74337Y-47210D01*
X74257Y-47289D01*
X73987Y-47289D01*
X73935Y-47311D01*
X73896Y-47350D01*
X73875Y-47402D01*
X73874Y-47457D01*
X73874Y-47880D01*
X72787Y-47880D01*
X72388Y-47481D01*
X72304Y-47424D01*
X72205Y-47405D01*
X72125Y-47405D01*
X72125Y-47402D01*
X72103Y-47350D01*
X72064Y-47311D01*
X72012Y-47290D01*
X71957Y-47289D01*
X71487Y-47289D01*
X71435Y-47311D01*
X71396Y-47350D01*
X71375Y-47402D01*
X71374Y-47457D01*
X71374Y-47927D01*
X71396Y-47979D01*
X71435Y-48018D01*
X71487Y-48039D01*
X71542Y-48040D01*
X72012Y-48040D01*
X72064Y-48018D01*
X72103Y-47979D01*
X72117Y-47945D01*
X72496Y-48323D01*
X72496Y-48323D01*
X72552Y-48361D01*
X72580Y-48380D01*
X72580Y-48380D01*
X72680Y-48400D01*
X74576Y-48400D01*
X74675Y-48380D01*
X74760Y-48323D01*
X75232Y-47851D01*
X75232Y-47851D01*
X75288Y-47767D01*
X75288Y-47767D01*
X75291Y-47750D01*
X75308Y-47667D01*
X75308Y-47667D01*
X75308Y-46354D01*
X75308Y-46354D01*
X75288Y-46254D01*
X75288Y-46254D01*
X75269Y-46226D01*
X75232Y-46170D01*
X75232Y-46170D01*
X72465Y-43403D01*
X72381Y-43347D01*
X72281Y-43327D01*
X71629Y-43327D01*
X71630Y-43267D01*
X71630Y-42952D01*
X71629Y-42857D01*
X71593Y-42768D01*
X71525Y-42701D01*
X71437Y-42664D01*
X71370Y-42665D01*
X71310Y-42725D01*
X71310Y-43050D01*
X71570Y-43050D01*
X71630Y-42990D01*
X71630Y-42952D01*
X71630Y-43267D01*
X71630Y-43230D01*
X71570Y-43170D01*
X71310Y-43170D01*
X71310Y-43177D01*
X71190Y-43177D01*
X71190Y-43170D01*
X71190Y-43050D01*
X71190Y-42725D01*
X71130Y-42665D01*
X71062Y-42664D01*
X71000Y-42690D01*
X70937Y-42664D01*
X70870Y-42665D01*
X70810Y-42725D01*
X70810Y-43050D01*
X70930Y-43050D01*
X71070Y-43050D01*
X71190Y-43050D01*
X71190Y-43170D01*
X71070Y-43170D01*
X70930Y-43170D01*
X70810Y-43170D01*
X70810Y-43177D01*
X70690Y-43177D01*
X70690Y-43170D01*
X70690Y-43050D01*
X70690Y-42725D01*
X70630Y-42665D01*
X70562Y-42664D01*
X70500Y-42690D01*
X70437Y-42664D01*
X70370Y-42665D01*
X70310Y-42725D01*
X70310Y-43050D01*
X70430Y-43050D01*
X70570Y-43050D01*
X70690Y-43050D01*
X70690Y-43170D01*
X70570Y-43170D01*
X70430Y-43170D01*
X70310Y-43170D01*
X70310Y-43177D01*
X70190Y-43177D01*
X70190Y-43170D01*
X70190Y-43050D01*
X70190Y-42725D01*
X70130Y-42665D01*
X70062Y-42664D01*
X70000Y-42690D01*
X69937Y-42664D01*
X69870Y-42665D01*
X69810Y-42725D01*
X69810Y-43050D01*
X69930Y-43050D01*
X70070Y-43050D01*
X70190Y-43050D01*
X70190Y-43170D01*
X70070Y-43170D01*
X69930Y-43170D01*
X69810Y-43170D01*
X69810Y-43177D01*
X69690Y-43177D01*
X69690Y-43170D01*
X69690Y-43050D01*
X69690Y-42725D01*
X69630Y-42665D01*
X69562Y-42664D01*
X69474Y-42701D01*
X69406Y-42768D01*
X69370Y-42857D01*
X69369Y-42952D01*
X69370Y-42990D01*
X69430Y-43050D01*
X69690Y-43050D01*
X69690Y-43170D01*
X69430Y-43170D01*
X69370Y-43230D01*
X69369Y-43267D01*
X69370Y-43327D01*
X67669Y-43327D01*
X67610Y-43267D01*
X67494Y-43219D01*
X67369Y-43219D01*
X67365Y-43221D01*
X64227Y-43221D01*
X64127Y-43240D01*
X64071Y-43278D01*
X61630Y-43278D01*
X61630Y-43267D01*
X61630Y-42952D01*
X61629Y-42857D01*
X61593Y-42768D01*
X61525Y-42701D01*
X61437Y-42664D01*
X61370Y-42665D01*
X61310Y-42725D01*
X61310Y-43050D01*
X61570Y-43050D01*
X61630Y-42990D01*
X61630Y-42952D01*
X61630Y-43267D01*
X61630Y-43230D01*
X61570Y-43170D01*
X61310Y-43170D01*
X61310Y-43177D01*
X61190Y-43177D01*
X61190Y-43170D01*
X61190Y-43050D01*
X61190Y-42725D01*
X61130Y-42665D01*
X61062Y-42664D01*
X61000Y-42690D01*
X60937Y-42664D01*
X60870Y-42665D01*
X60810Y-42725D01*
X60810Y-43050D01*
X60930Y-43050D01*
X61070Y-43050D01*
X61190Y-43050D01*
X61190Y-43170D01*
X61070Y-43170D01*
X60930Y-43170D01*
X60810Y-43170D01*
X60810Y-43177D01*
X60690Y-43177D01*
X60690Y-43170D01*
X60690Y-43050D01*
X60690Y-42725D01*
X60630Y-42665D01*
X60562Y-42664D01*
X60500Y-42690D01*
X60437Y-42664D01*
X60370Y-42665D01*
X60310Y-42725D01*
X60310Y-43050D01*
X60430Y-43050D01*
X60570Y-43050D01*
X60690Y-43050D01*
X60690Y-43170D01*
X60570Y-43170D01*
X60430Y-43170D01*
X60310Y-43170D01*
X60310Y-43177D01*
X60190Y-43177D01*
X60190Y-43170D01*
X60190Y-43050D01*
X60190Y-42725D01*
X60130Y-42665D01*
X60062Y-42664D01*
X60000Y-42690D01*
X59937Y-42664D01*
X59870Y-42665D01*
X59810Y-42725D01*
X59810Y-43050D01*
X59930Y-43050D01*
X60070Y-43050D01*
X60190Y-43050D01*
X60190Y-43170D01*
X60070Y-43170D01*
X59930Y-43170D01*
X59810Y-43170D01*
X59810Y-43177D01*
X59690Y-43177D01*
X59690Y-43170D01*
X59690Y-43050D01*
X59690Y-42725D01*
X59630Y-42665D01*
X59562Y-42664D01*
X59474Y-42701D01*
X59406Y-42768D01*
X59370Y-42857D01*
X59369Y-42952D01*
X59370Y-42990D01*
X59430Y-43050D01*
X59690Y-43050D01*
X59690Y-43170D01*
X59430Y-43170D01*
X59370Y-43230D01*
X59369Y-43267D01*
X59369Y-43278D01*
X56415Y-43278D01*
X55733Y-42595D01*
X55649Y-42539D01*
X55549Y-42519D01*
X51150Y-42519D01*
X51051Y-42539D01*
X50966Y-42595D01*
X49438Y-44124D01*
X49382Y-44208D01*
X49362Y-44308D01*
X49362Y-44490D01*
X49249Y-44377D01*
X49087Y-44310D01*
X48912Y-44309D01*
X48751Y-44376D01*
X48627Y-44500D01*
X48560Y-44662D01*
X48559Y-44837D01*
X48626Y-44998D01*
X48750Y-45122D01*
X48912Y-45189D01*
X49087Y-45190D01*
X49248Y-45123D01*
X49362Y-45009D01*
X49362Y-45019D01*
X49072Y-45310D01*
X48912Y-45309D01*
X48751Y-45376D01*
X48627Y-45500D01*
X48560Y-45662D01*
X48559Y-45837D01*
X48626Y-45998D01*
X48750Y-46122D01*
X48912Y-46189D01*
X49087Y-46190D01*
X49248Y-46123D01*
X49372Y-45999D01*
X49439Y-45837D01*
X49440Y-45677D01*
X49806Y-45311D01*
X49862Y-45227D01*
X49882Y-45127D01*
X49882Y-44415D01*
X49917Y-44380D01*
X49918Y-44394D01*
X49971Y-44523D01*
X50063Y-44551D01*
X50365Y-44250D01*
X50359Y-44244D01*
X50444Y-44159D01*
X50450Y-44165D01*
X50751Y-43863D01*
X50723Y-43771D01*
X50575Y-43722D01*
X51258Y-43039D01*
X52637Y-43039D01*
X52627Y-43050D01*
X52560Y-43212D01*
X52559Y-43387D01*
X52626Y-43548D01*
X52750Y-43672D01*
X52912Y-43739D01*
X53087Y-43740D01*
X53248Y-43673D01*
X53372Y-43549D01*
X53439Y-43387D01*
X53440Y-43212D01*
X53373Y-43051D01*
X53362Y-43039D01*
X55441Y-43039D01*
X56106Y-43704D01*
X54382Y-43704D01*
X54282Y-43724D01*
X54254Y-43743D01*
X54198Y-43780D01*
X53399Y-44579D01*
X53342Y-44579D01*
X53372Y-44549D01*
X53439Y-44387D01*
X53440Y-44212D01*
X53373Y-44051D01*
X53249Y-43927D01*
X53087Y-43860D01*
X52912Y-43859D01*
X52751Y-43926D01*
X52627Y-44050D01*
X52560Y-44212D01*
X52559Y-44387D01*
X52626Y-44548D01*
X52657Y-44579D01*
X51855Y-44579D01*
X51823Y-44501D01*
X51699Y-44377D01*
X51537Y-44310D01*
X51362Y-44309D01*
X51201Y-44376D01*
X51077Y-44500D01*
X51010Y-44662D01*
X51009Y-44837D01*
X51076Y-44998D01*
X51200Y-45122D01*
X51362Y-45189D01*
X51537Y-45190D01*
X51698Y-45123D01*
X51722Y-45099D01*
X53506Y-45099D01*
X53606Y-45080D01*
X53690Y-45023D01*
X54489Y-44224D01*
X59399Y-44224D01*
X59342Y-44262D01*
X58747Y-44857D01*
X58708Y-44916D01*
X58694Y-44985D01*
X58694Y-47130D01*
X58708Y-47199D01*
X58732Y-47235D01*
X57690Y-46192D01*
X57605Y-46136D01*
X57506Y-46116D01*
X51823Y-46116D01*
X51724Y-46136D01*
X51639Y-46192D01*
X51522Y-46310D01*
X51507Y-46310D01*
X51633Y-46183D01*
X51664Y-46137D01*
X51698Y-46123D01*
X51822Y-45999D01*
X51889Y-45837D01*
X51890Y-45662D01*
X51823Y-45501D01*
X51699Y-45377D01*
X51537Y-45310D01*
X51362Y-45309D01*
X51201Y-45376D01*
X51077Y-45500D01*
X51010Y-45662D01*
X51009Y-45837D01*
X51076Y-45998D01*
X51080Y-46002D01*
X50996Y-46086D01*
X50996Y-45319D01*
X50996Y-44319D01*
X50981Y-44105D01*
X50928Y-43976D01*
X50836Y-43948D01*
X50534Y-44250D01*
X50836Y-44551D01*
X50928Y-44523D01*
X50996Y-44319D01*
X50996Y-45319D01*
X50981Y-45105D01*
X50928Y-44976D01*
X50836Y-44948D01*
X50751Y-45032D01*
X50751Y-44863D01*
X50723Y-44771D01*
X50664Y-44752D01*
X50723Y-44728D01*
X50751Y-44636D01*
X50450Y-44334D01*
X50148Y-44636D01*
X50176Y-44728D01*
X50235Y-44747D01*
X50176Y-44771D01*
X50148Y-44863D01*
X50450Y-45165D01*
X50751Y-44863D01*
X50751Y-45032D01*
X50534Y-45250D01*
X50836Y-45551D01*
X50928Y-45523D01*
X50996Y-45319D01*
X50996Y-46086D01*
X50890Y-46192D01*
X50890Y-46162D01*
X50823Y-46001D01*
X50751Y-45929D01*
X50751Y-45636D01*
X50450Y-45334D01*
X50365Y-45419D01*
X50365Y-45250D01*
X50063Y-44948D01*
X49971Y-44976D01*
X49903Y-45180D01*
X49918Y-45394D01*
X49971Y-45523D01*
X50063Y-45551D01*
X50365Y-45250D01*
X50365Y-45419D01*
X50148Y-45636D01*
X50176Y-45728D01*
X50380Y-45796D01*
X50594Y-45781D01*
X50723Y-45728D01*
X50751Y-45636D01*
X50751Y-45929D01*
X50699Y-45877D01*
X50537Y-45810D01*
X50362Y-45809D01*
X50201Y-45876D01*
X50077Y-46000D01*
X50010Y-46162D01*
X50009Y-46337D01*
X50076Y-46498D01*
X50200Y-46622D01*
X50362Y-46689D01*
X50537Y-46690D01*
X50665Y-46636D01*
X50665Y-46863D01*
X50537Y-46810D01*
X50362Y-46809D01*
X50201Y-46876D01*
X50077Y-47000D01*
X50012Y-47156D01*
X50012Y-47087D01*
X49964Y-46972D01*
X49875Y-46883D01*
X49760Y-46835D01*
X49634Y-46835D01*
X49519Y-46883D01*
X49430Y-46971D01*
X49382Y-47087D01*
X49382Y-47212D01*
X49430Y-47328D01*
X49504Y-47402D01*
X49513Y-47416D01*
X49586Y-47490D01*
X49362Y-47490D01*
X49249Y-47377D01*
X49087Y-47310D01*
X49043Y-47310D01*
X49183Y-47169D01*
X49183Y-47169D01*
X49201Y-47142D01*
X49201Y-47142D01*
X49248Y-47123D01*
X49372Y-46999D01*
X49439Y-46837D01*
X49440Y-46662D01*
X49373Y-46501D01*
X49249Y-46377D01*
X49087Y-46310D01*
X48912Y-46309D01*
X48751Y-46376D01*
X48627Y-46500D01*
X48560Y-46662D01*
X48559Y-46837D01*
X48624Y-46993D01*
X48546Y-47071D01*
X48546Y-45319D01*
X48546Y-44319D01*
X48531Y-44105D01*
X48478Y-43976D01*
X48386Y-43948D01*
X48301Y-44032D01*
X48301Y-43863D01*
X48273Y-43771D01*
X48069Y-43703D01*
X47855Y-43718D01*
X47726Y-43771D01*
X47698Y-43863D01*
X48000Y-44165D01*
X48301Y-43863D01*
X48301Y-44032D01*
X48084Y-44250D01*
X48386Y-44551D01*
X48478Y-44523D01*
X48546Y-44319D01*
X48546Y-45319D01*
X48531Y-45105D01*
X48478Y-44976D01*
X48386Y-44948D01*
X48301Y-45032D01*
X48301Y-44863D01*
X48273Y-44771D01*
X48214Y-44752D01*
X48273Y-44728D01*
X48301Y-44636D01*
X48000Y-44334D01*
X47915Y-44419D01*
X47915Y-44250D01*
X47613Y-43948D01*
X47521Y-43976D01*
X47453Y-44180D01*
X47468Y-44394D01*
X47521Y-44523D01*
X47613Y-44551D01*
X47915Y-44250D01*
X47915Y-44419D01*
X47698Y-44636D01*
X47726Y-44728D01*
X47785Y-44747D01*
X47726Y-44771D01*
X47698Y-44863D01*
X48000Y-45165D01*
X48301Y-44863D01*
X48301Y-45032D01*
X48084Y-45250D01*
X48386Y-45551D01*
X48478Y-45523D01*
X48546Y-45319D01*
X48546Y-47071D01*
X48440Y-47177D01*
X48440Y-47162D01*
X48440Y-46162D01*
X48373Y-46001D01*
X48301Y-45929D01*
X48301Y-45636D01*
X48000Y-45334D01*
X47915Y-45419D01*
X47915Y-45250D01*
X47613Y-44948D01*
X47521Y-44976D01*
X47453Y-45180D01*
X47468Y-45394D01*
X47521Y-45523D01*
X47613Y-45551D01*
X47915Y-45250D01*
X47915Y-45419D01*
X47698Y-45636D01*
X47726Y-45728D01*
X47930Y-45796D01*
X48144Y-45781D01*
X48273Y-45728D01*
X48301Y-45636D01*
X48301Y-45929D01*
X48249Y-45877D01*
X48087Y-45810D01*
X47912Y-45809D01*
X47751Y-45876D01*
X47627Y-46000D01*
X47560Y-46162D01*
X47559Y-46337D01*
X47626Y-46498D01*
X47750Y-46622D01*
X47912Y-46689D01*
X48087Y-46690D01*
X48248Y-46623D01*
X48372Y-46499D01*
X48439Y-46337D01*
X48440Y-46162D01*
X48440Y-47162D01*
X48373Y-47001D01*
X48249Y-46877D01*
X48087Y-46810D01*
X47912Y-46809D01*
X47751Y-46876D01*
X47627Y-47000D01*
X47560Y-47162D01*
X47559Y-47337D01*
X47626Y-47498D01*
X47750Y-47622D01*
X47912Y-47689D01*
X48087Y-47690D01*
X48216Y-47636D01*
X48216Y-47963D01*
X48235Y-48062D01*
X48292Y-48146D01*
X49827Y-49681D01*
X49827Y-49681D01*
X49883Y-49719D01*
X49911Y-49738D01*
X49911Y-49738D01*
X49958Y-49747D01*
X49724Y-49981D01*
X49585Y-50317D01*
X49584Y-50681D01*
X49723Y-51017D01*
X49981Y-51275D01*
X50124Y-51335D01*
X46840Y-51335D01*
X46840Y-48612D01*
X46840Y-47612D01*
X46840Y-44212D01*
X46840Y-43212D01*
X46840Y-38612D01*
X46840Y-37612D01*
X46840Y-34212D01*
X46840Y-33212D01*
X46773Y-33051D01*
X46649Y-32927D01*
X46487Y-32860D01*
X46312Y-32859D01*
X46151Y-32926D01*
X46027Y-33050D01*
X45960Y-33212D01*
X45959Y-33387D01*
X46026Y-33548D01*
X46150Y-33672D01*
X46312Y-33739D01*
X46487Y-33740D01*
X46648Y-33673D01*
X46772Y-33549D01*
X46839Y-33387D01*
X46840Y-33212D01*
X46840Y-34212D01*
X46773Y-34051D01*
X46649Y-33927D01*
X46487Y-33860D01*
X46312Y-33859D01*
X46151Y-33926D01*
X46027Y-34050D01*
X45960Y-34212D01*
X45959Y-34387D01*
X46026Y-34548D01*
X46150Y-34672D01*
X46312Y-34739D01*
X46487Y-34740D01*
X46648Y-34673D01*
X46772Y-34549D01*
X46839Y-34387D01*
X46840Y-34212D01*
X46840Y-37612D01*
X46773Y-37451D01*
X46649Y-37327D01*
X46487Y-37260D01*
X46312Y-37259D01*
X46151Y-37326D01*
X46027Y-37450D01*
X45960Y-37612D01*
X45959Y-37787D01*
X46026Y-37948D01*
X46150Y-38072D01*
X46312Y-38139D01*
X46487Y-38140D01*
X46648Y-38073D01*
X46772Y-37949D01*
X46839Y-37787D01*
X46840Y-37612D01*
X46840Y-38612D01*
X46773Y-38451D01*
X46649Y-38327D01*
X46487Y-38260D01*
X46312Y-38259D01*
X46151Y-38326D01*
X46027Y-38450D01*
X45960Y-38612D01*
X45959Y-38787D01*
X46026Y-38948D01*
X46150Y-39072D01*
X46312Y-39139D01*
X46487Y-39140D01*
X46648Y-39073D01*
X46772Y-38949D01*
X46839Y-38787D01*
X46840Y-38612D01*
X46840Y-43212D01*
X46773Y-43051D01*
X46649Y-42927D01*
X46487Y-42860D01*
X46312Y-42859D01*
X46151Y-42926D01*
X46027Y-43050D01*
X45960Y-43212D01*
X45959Y-43387D01*
X46026Y-43548D01*
X46150Y-43672D01*
X46312Y-43739D01*
X46487Y-43740D01*
X46648Y-43673D01*
X46772Y-43549D01*
X46839Y-43387D01*
X46840Y-43212D01*
X46840Y-44212D01*
X46773Y-44051D01*
X46649Y-43927D01*
X46487Y-43860D01*
X46312Y-43859D01*
X46151Y-43926D01*
X46027Y-44050D01*
X45960Y-44212D01*
X45959Y-44387D01*
X46026Y-44548D01*
X46150Y-44672D01*
X46312Y-44739D01*
X46487Y-44740D01*
X46648Y-44673D01*
X46772Y-44549D01*
X46839Y-44387D01*
X46840Y-44212D01*
X46840Y-47612D01*
X46773Y-47451D01*
X46649Y-47327D01*
X46487Y-47260D01*
X46312Y-47259D01*
X46151Y-47326D01*
X46027Y-47450D01*
X45960Y-47612D01*
X45959Y-47787D01*
X46026Y-47948D01*
X46150Y-48072D01*
X46312Y-48139D01*
X46487Y-48140D01*
X46648Y-48073D01*
X46772Y-47949D01*
X46839Y-47787D01*
X46840Y-47612D01*
X46840Y-48612D01*
X46773Y-48451D01*
X46649Y-48327D01*
X46487Y-48260D01*
X46312Y-48259D01*
X46151Y-48326D01*
X46027Y-48450D01*
X45960Y-48612D01*
X45959Y-48787D01*
X46026Y-48948D01*
X46150Y-49072D01*
X46312Y-49139D01*
X46487Y-49140D01*
X46648Y-49073D01*
X46772Y-48949D01*
X46839Y-48787D01*
X46840Y-48612D01*
X46840Y-51335D01*
X45640Y-51335D01*
X45640Y-48323D01*
X45640Y-43323D01*
X45640Y-38323D01*
X45640Y-33323D01*
X45504Y-32996D01*
X45254Y-32745D01*
X44927Y-32610D01*
X44573Y-32609D01*
X44246Y-32745D01*
X43995Y-32995D01*
X43860Y-33322D01*
X43859Y-33676D01*
X43995Y-34003D01*
X44245Y-34254D01*
X44572Y-34389D01*
X44926Y-34390D01*
X45253Y-34254D01*
X45504Y-34004D01*
X45639Y-33677D01*
X45640Y-33323D01*
X45640Y-38323D01*
X45504Y-37996D01*
X45254Y-37745D01*
X44927Y-37610D01*
X44573Y-37609D01*
X44246Y-37745D01*
X43995Y-37995D01*
X43860Y-38322D01*
X43859Y-38676D01*
X43995Y-39003D01*
X44245Y-39254D01*
X44572Y-39389D01*
X44926Y-39390D01*
X45253Y-39254D01*
X45504Y-39004D01*
X45639Y-38677D01*
X45640Y-38323D01*
X45640Y-43323D01*
X45504Y-42996D01*
X45254Y-42745D01*
X44927Y-42610D01*
X44573Y-42609D01*
X44246Y-42745D01*
X43995Y-42995D01*
X43860Y-43322D01*
X43859Y-43676D01*
X43995Y-44003D01*
X44245Y-44254D01*
X44572Y-44389D01*
X44926Y-44390D01*
X45253Y-44254D01*
X45504Y-44004D01*
X45639Y-43677D01*
X45640Y-43323D01*
X45640Y-48323D01*
X45504Y-47996D01*
X45254Y-47745D01*
X44927Y-47610D01*
X44573Y-47609D01*
X44246Y-47745D01*
X43995Y-47995D01*
X43860Y-48322D01*
X43859Y-48676D01*
X43995Y-49003D01*
X44245Y-49254D01*
X44572Y-49389D01*
X44926Y-49390D01*
X45253Y-49254D01*
X45504Y-49004D01*
X45639Y-48677D01*
X45640Y-48323D01*
X45640Y-51335D01*
X43665Y-51335D01*
X43665Y-30665D01*
X50624Y-30665D01*
X50482Y-30723D01*
X50224Y-30981D01*
X50085Y-31317D01*
X50084Y-31681D01*
X50223Y-32017D01*
X50481Y-32275D01*
X50817Y-32414D01*
X51181Y-32415D01*
X51517Y-32276D01*
X51775Y-32018D01*
X51914Y-31682D01*
X51915Y-31318D01*
X51776Y-30982D01*
X51518Y-30724D01*
X51375Y-30665D01*
X80124Y-30665D01*
X79982Y-30723D01*
X79724Y-30981D01*
X79585Y-31317D01*
X79584Y-31681D01*
X79723Y-32017D01*
X79981Y-32275D01*
X80317Y-32414D01*
X80681Y-32415D01*
X81017Y-32276D01*
X81275Y-32018D01*
X81414Y-31682D01*
X81415Y-31318D01*
X81276Y-30982D01*
X81018Y-30724D01*
X80875Y-30665D01*
X89335Y-30665D01*
X89335Y-51335D01*
X89335Y-51335D01*
G37*
G54D24*
X89335Y-51335D02*
X88840Y-51335D01*
X88840Y-39639D01*
X88840Y-37120D01*
X88816Y-36998D01*
X88747Y-36894D01*
X87985Y-36132D01*
X87985Y-36097D01*
X88018Y-36064D01*
X88039Y-36012D01*
X88040Y-35957D01*
X88040Y-35487D01*
X88018Y-35435D01*
X87979Y-35396D01*
X87927Y-35375D01*
X87872Y-35374D01*
X87402Y-35374D01*
X87350Y-35396D01*
X87311Y-35435D01*
X87290Y-35487D01*
X87289Y-35542D01*
X87289Y-36012D01*
X87311Y-36064D01*
X87345Y-36098D01*
X87345Y-36265D01*
X87369Y-36387D01*
X87438Y-36491D01*
X88200Y-37253D01*
X88200Y-38712D01*
X88006Y-38518D01*
X87697Y-38390D01*
X87363Y-38389D01*
X87210Y-38453D01*
X87210Y-35957D01*
X87210Y-35487D01*
X87188Y-35435D01*
X87149Y-35396D01*
X87097Y-35375D01*
X87042Y-35374D01*
X86572Y-35374D01*
X86520Y-35396D01*
X86481Y-35435D01*
X86460Y-35487D01*
X86459Y-35542D01*
X86459Y-35570D01*
X85740Y-35570D01*
X85740Y-35222D01*
X85718Y-35170D01*
X85679Y-35131D01*
X85627Y-35110D01*
X85572Y-35109D01*
X85072Y-35109D01*
X85020Y-35131D01*
X84981Y-35170D01*
X84960Y-35222D01*
X84959Y-35277D01*
X84959Y-36277D01*
X84981Y-36329D01*
X85020Y-36368D01*
X85072Y-36389D01*
X85127Y-36390D01*
X85627Y-36390D01*
X85679Y-36368D01*
X85718Y-36329D01*
X85739Y-36277D01*
X85740Y-36222D01*
X85740Y-35930D01*
X86459Y-35930D01*
X86459Y-36012D01*
X86481Y-36064D01*
X86520Y-36103D01*
X86572Y-36124D01*
X86627Y-36125D01*
X87097Y-36125D01*
X87149Y-36103D01*
X87188Y-36064D01*
X87209Y-36012D01*
X87210Y-35957D01*
X87210Y-38453D01*
X87054Y-38517D01*
X86818Y-38753D01*
X86690Y-39062D01*
X86689Y-39396D01*
X86817Y-39705D01*
X87053Y-39941D01*
X87362Y-40069D01*
X87637Y-40070D01*
X87477Y-40230D01*
X87307Y-40160D01*
X86973Y-40159D01*
X86664Y-40287D01*
X86428Y-40523D01*
X86300Y-40832D01*
X86299Y-41166D01*
X86427Y-41475D01*
X86663Y-41711D01*
X86972Y-41839D01*
X87306Y-41840D01*
X87615Y-41712D01*
X87851Y-41476D01*
X87913Y-41328D01*
X88025Y-41440D01*
X88216Y-41519D01*
X88422Y-41520D01*
X88614Y-41441D01*
X88760Y-41294D01*
X88839Y-41103D01*
X88840Y-40897D01*
X88761Y-40705D01*
X88614Y-40559D01*
X88423Y-40480D01*
X88217Y-40479D01*
X88074Y-40538D01*
X88747Y-39865D01*
X88747Y-39865D01*
X88816Y-39762D01*
X88840Y-39639D01*
X88840Y-39639D01*
X88840Y-51335D01*
X88370Y-51335D01*
X88370Y-42603D01*
X88242Y-42294D01*
X88006Y-42058D01*
X87697Y-41930D01*
X87363Y-41929D01*
X87054Y-42057D01*
X86818Y-42293D01*
X86690Y-42602D01*
X86689Y-42936D01*
X86817Y-43245D01*
X87053Y-43481D01*
X87362Y-43609D01*
X87696Y-43610D01*
X88005Y-43482D01*
X88241Y-43246D01*
X88369Y-42937D01*
X88370Y-42603D01*
X88370Y-51335D01*
X85823Y-51335D01*
X85823Y-41188D01*
X85816Y-40775D01*
X85671Y-40426D01*
X85528Y-40336D01*
X85443Y-40421D01*
X85443Y-40251D01*
X85353Y-40108D01*
X84968Y-39956D01*
X84640Y-39962D01*
X84640Y-36202D01*
X84640Y-35297D01*
X84639Y-35202D01*
X84603Y-35113D01*
X84535Y-35046D01*
X84447Y-35009D01*
X84270Y-35010D01*
X84210Y-35070D01*
X84210Y-35690D01*
X84580Y-35690D01*
X84640Y-35630D01*
X84640Y-35297D01*
X84640Y-36202D01*
X84640Y-35870D01*
X84580Y-35810D01*
X84210Y-35810D01*
X84210Y-36430D01*
X84270Y-36490D01*
X84447Y-36490D01*
X84535Y-36453D01*
X84603Y-36386D01*
X84639Y-36297D01*
X84640Y-36202D01*
X84640Y-39962D01*
X84555Y-39963D01*
X84206Y-40108D01*
X84116Y-40251D01*
X84780Y-40915D01*
X85443Y-40251D01*
X85443Y-40421D01*
X84864Y-41000D01*
X85528Y-41663D01*
X85671Y-41573D01*
X85823Y-41188D01*
X85823Y-51335D01*
X85774Y-51335D01*
X85774Y-47608D01*
X85726Y-47492D01*
X85637Y-47404D01*
X85521Y-47356D01*
X85443Y-47356D01*
X85443Y-41748D01*
X84780Y-41084D01*
X84695Y-41169D01*
X84695Y-41000D01*
X84090Y-40394D01*
X84090Y-36430D01*
X84090Y-35810D01*
X84090Y-35690D01*
X84090Y-35070D01*
X84030Y-35010D01*
X83852Y-35009D01*
X83764Y-35046D01*
X83696Y-35113D01*
X83660Y-35202D01*
X83659Y-35297D01*
X83660Y-35630D01*
X83720Y-35690D01*
X84090Y-35690D01*
X84090Y-35810D01*
X83720Y-35810D01*
X83660Y-35870D01*
X83659Y-36202D01*
X83660Y-36297D01*
X83696Y-36386D01*
X83764Y-36453D01*
X83852Y-36490D01*
X84030Y-36490D01*
X84090Y-36430D01*
X84090Y-40394D01*
X84031Y-40336D01*
X83888Y-40426D01*
X83736Y-40811D01*
X83743Y-41224D01*
X83888Y-41573D01*
X84031Y-41663D01*
X84695Y-41000D01*
X84695Y-41169D01*
X84116Y-41748D01*
X84206Y-41891D01*
X84591Y-42043D01*
X85004Y-42036D01*
X85353Y-41891D01*
X85443Y-41748D01*
X85443Y-47356D01*
X85398Y-47356D01*
X84855Y-46812D01*
X84796Y-46773D01*
X84728Y-46760D01*
X83362Y-46760D01*
X83372Y-46749D01*
X83439Y-46587D01*
X83440Y-46412D01*
X83440Y-45412D01*
X83440Y-44412D01*
X83440Y-43412D01*
X83440Y-42412D01*
X83440Y-41412D01*
X83440Y-40412D01*
X83440Y-39412D01*
X83440Y-38412D01*
X83440Y-37412D01*
X83440Y-36412D01*
X83440Y-35412D01*
X83440Y-34412D01*
X83440Y-33412D01*
X83440Y-32412D01*
X83440Y-31412D01*
X83373Y-31251D01*
X83249Y-31127D01*
X83087Y-31060D01*
X82912Y-31059D01*
X82751Y-31126D01*
X82627Y-31250D01*
X82560Y-31412D01*
X82559Y-31587D01*
X82626Y-31748D01*
X82750Y-31872D01*
X82912Y-31939D01*
X83087Y-31940D01*
X83248Y-31873D01*
X83372Y-31749D01*
X83439Y-31587D01*
X83440Y-31412D01*
X83440Y-32412D01*
X83373Y-32251D01*
X83249Y-32127D01*
X83087Y-32060D01*
X82912Y-32059D01*
X82751Y-32126D01*
X82627Y-32250D01*
X82560Y-32412D01*
X82559Y-32587D01*
X82626Y-32748D01*
X82750Y-32872D01*
X82912Y-32939D01*
X83087Y-32940D01*
X83248Y-32873D01*
X83372Y-32749D01*
X83439Y-32587D01*
X83440Y-32412D01*
X83440Y-33412D01*
X83373Y-33251D01*
X83249Y-33127D01*
X83087Y-33060D01*
X82912Y-33059D01*
X82751Y-33126D01*
X82627Y-33250D01*
X82560Y-33412D01*
X82559Y-33587D01*
X82626Y-33748D01*
X82750Y-33872D01*
X82912Y-33939D01*
X83087Y-33940D01*
X83248Y-33873D01*
X83372Y-33749D01*
X83439Y-33587D01*
X83440Y-33412D01*
X83440Y-34412D01*
X83373Y-34251D01*
X83249Y-34127D01*
X83087Y-34060D01*
X82912Y-34059D01*
X82751Y-34126D01*
X82627Y-34250D01*
X82560Y-34412D01*
X82559Y-34587D01*
X82626Y-34748D01*
X82750Y-34872D01*
X82912Y-34939D01*
X83087Y-34940D01*
X83248Y-34873D01*
X83372Y-34749D01*
X83439Y-34587D01*
X83440Y-34412D01*
X83440Y-35412D01*
X83373Y-35251D01*
X83249Y-35127D01*
X83087Y-35060D01*
X82912Y-35059D01*
X82751Y-35126D01*
X82627Y-35250D01*
X82560Y-35412D01*
X82559Y-35587D01*
X82626Y-35748D01*
X82750Y-35872D01*
X82912Y-35939D01*
X83087Y-35940D01*
X83248Y-35873D01*
X83372Y-35749D01*
X83439Y-35587D01*
X83440Y-35412D01*
X83440Y-36412D01*
X83373Y-36251D01*
X83249Y-36127D01*
X83087Y-36060D01*
X82912Y-36059D01*
X82751Y-36126D01*
X82627Y-36250D01*
X82560Y-36412D01*
X82559Y-36587D01*
X82626Y-36748D01*
X82750Y-36872D01*
X82912Y-36939D01*
X83087Y-36940D01*
X83248Y-36873D01*
X83372Y-36749D01*
X83439Y-36587D01*
X83440Y-36412D01*
X83440Y-37412D01*
X83373Y-37251D01*
X83249Y-37127D01*
X83087Y-37060D01*
X82912Y-37059D01*
X82751Y-37126D01*
X82627Y-37250D01*
X82560Y-37412D01*
X82559Y-37587D01*
X82626Y-37748D01*
X82750Y-37872D01*
X82912Y-37939D01*
X83087Y-37940D01*
X83248Y-37873D01*
X83372Y-37749D01*
X83439Y-37587D01*
X83440Y-37412D01*
X83440Y-38412D01*
X83373Y-38251D01*
X83249Y-38127D01*
X83087Y-38060D01*
X82912Y-38059D01*
X82751Y-38126D01*
X82627Y-38250D01*
X82560Y-38412D01*
X82559Y-38587D01*
X82626Y-38748D01*
X82750Y-38872D01*
X82912Y-38939D01*
X83087Y-38940D01*
X83248Y-38873D01*
X83372Y-38749D01*
X83439Y-38587D01*
X83440Y-38412D01*
X83440Y-39412D01*
X83373Y-39251D01*
X83249Y-39127D01*
X83087Y-39060D01*
X82912Y-39059D01*
X82751Y-39126D01*
X82627Y-39250D01*
X82560Y-39412D01*
X82559Y-39587D01*
X82626Y-39748D01*
X82750Y-39872D01*
X82912Y-39939D01*
X83087Y-39940D01*
X83248Y-39873D01*
X83372Y-39749D01*
X83439Y-39587D01*
X83440Y-39412D01*
X83440Y-40412D01*
X83373Y-40251D01*
X83249Y-40127D01*
X83087Y-40060D01*
X82912Y-40059D01*
X82751Y-40126D01*
X82627Y-40250D01*
X82560Y-40412D01*
X82559Y-40587D01*
X82626Y-40748D01*
X82750Y-40872D01*
X82912Y-40939D01*
X83087Y-40940D01*
X83248Y-40873D01*
X83372Y-40749D01*
X83439Y-40587D01*
X83440Y-40412D01*
X83440Y-41412D01*
X83373Y-41251D01*
X83249Y-41127D01*
X83087Y-41060D01*
X82912Y-41059D01*
X82751Y-41126D01*
X82627Y-41250D01*
X82560Y-41412D01*
X82559Y-41587D01*
X82626Y-41748D01*
X82750Y-41872D01*
X82912Y-41939D01*
X83087Y-41940D01*
X83248Y-41873D01*
X83372Y-41749D01*
X83439Y-41587D01*
X83440Y-41412D01*
X83440Y-42412D01*
X83373Y-42251D01*
X83249Y-42127D01*
X83087Y-42060D01*
X82912Y-42059D01*
X82751Y-42126D01*
X82627Y-42250D01*
X82560Y-42412D01*
X82559Y-42587D01*
X82626Y-42748D01*
X82750Y-42872D01*
X82912Y-42939D01*
X83087Y-42940D01*
X83248Y-42873D01*
X83372Y-42749D01*
X83439Y-42587D01*
X83440Y-42412D01*
X83440Y-43412D01*
X83373Y-43251D01*
X83249Y-43127D01*
X83087Y-43060D01*
X82912Y-43059D01*
X82751Y-43126D01*
X82627Y-43250D01*
X82560Y-43412D01*
X82559Y-43587D01*
X82626Y-43748D01*
X82750Y-43872D01*
X82912Y-43939D01*
X83087Y-43940D01*
X83248Y-43873D01*
X83372Y-43749D01*
X83439Y-43587D01*
X83440Y-43412D01*
X83440Y-44412D01*
X83373Y-44251D01*
X83249Y-44127D01*
X83087Y-44060D01*
X82912Y-44059D01*
X82751Y-44126D01*
X82627Y-44250D01*
X82560Y-44412D01*
X82559Y-44587D01*
X82626Y-44748D01*
X82750Y-44872D01*
X82912Y-44939D01*
X83087Y-44940D01*
X83248Y-44873D01*
X83372Y-44749D01*
X83439Y-44587D01*
X83440Y-44412D01*
X83440Y-45412D01*
X83373Y-45251D01*
X83249Y-45127D01*
X83087Y-45060D01*
X82912Y-45059D01*
X82843Y-45088D01*
X82627Y-44872D01*
X82568Y-44833D01*
X82500Y-44820D01*
X82302Y-44820D01*
X82372Y-44749D01*
X82439Y-44587D01*
X82440Y-44412D01*
X82440Y-43412D01*
X82440Y-42412D01*
X82440Y-41412D01*
X82440Y-40412D01*
X82440Y-39412D01*
X82440Y-38412D01*
X82440Y-37412D01*
X82440Y-36412D01*
X82440Y-35412D01*
X82440Y-34412D01*
X82440Y-33412D01*
X82440Y-32412D01*
X82440Y-31412D01*
X82373Y-31251D01*
X82249Y-31127D01*
X82087Y-31060D01*
X81912Y-31059D01*
X81751Y-31126D01*
X81627Y-31250D01*
X81560Y-31412D01*
X81559Y-31587D01*
X81626Y-31748D01*
X81750Y-31872D01*
X81912Y-31939D01*
X82087Y-31940D01*
X82248Y-31873D01*
X82372Y-31749D01*
X82439Y-31587D01*
X82440Y-31412D01*
X82440Y-32412D01*
X82373Y-32251D01*
X82249Y-32127D01*
X82087Y-32060D01*
X81912Y-32059D01*
X81751Y-32126D01*
X81627Y-32250D01*
X81560Y-32412D01*
X81559Y-32587D01*
X81626Y-32748D01*
X81750Y-32872D01*
X81912Y-32939D01*
X82087Y-32940D01*
X82248Y-32873D01*
X82372Y-32749D01*
X82439Y-32587D01*
X82440Y-32412D01*
X82440Y-33412D01*
X82373Y-33251D01*
X82249Y-33127D01*
X82087Y-33060D01*
X81912Y-33059D01*
X81751Y-33126D01*
X81627Y-33250D01*
X81560Y-33412D01*
X81559Y-33587D01*
X81626Y-33748D01*
X81750Y-33872D01*
X81912Y-33939D01*
X82087Y-33940D01*
X82248Y-33873D01*
X82372Y-33749D01*
X82439Y-33587D01*
X82440Y-33412D01*
X82440Y-34412D01*
X82373Y-34251D01*
X82249Y-34127D01*
X82087Y-34060D01*
X81912Y-34059D01*
X81751Y-34126D01*
X81627Y-34250D01*
X81560Y-34412D01*
X81559Y-34587D01*
X81626Y-34748D01*
X81750Y-34872D01*
X81912Y-34939D01*
X82087Y-34940D01*
X82248Y-34873D01*
X82372Y-34749D01*
X82439Y-34587D01*
X82440Y-34412D01*
X82440Y-35412D01*
X82373Y-35251D01*
X82249Y-35127D01*
X82087Y-35060D01*
X81912Y-35059D01*
X81751Y-35126D01*
X81627Y-35250D01*
X81560Y-35412D01*
X81559Y-35587D01*
X81626Y-35748D01*
X81750Y-35872D01*
X81912Y-35939D01*
X82087Y-35940D01*
X82248Y-35873D01*
X82372Y-35749D01*
X82439Y-35587D01*
X82440Y-35412D01*
X82440Y-36412D01*
X82373Y-36251D01*
X82249Y-36127D01*
X82087Y-36060D01*
X81912Y-36059D01*
X81751Y-36126D01*
X81627Y-36250D01*
X81560Y-36412D01*
X81559Y-36587D01*
X81626Y-36748D01*
X81750Y-36872D01*
X81912Y-36939D01*
X82087Y-36940D01*
X82248Y-36873D01*
X82372Y-36749D01*
X82439Y-36587D01*
X82440Y-36412D01*
X82440Y-37412D01*
X82373Y-37251D01*
X82249Y-37127D01*
X82087Y-37060D01*
X81912Y-37059D01*
X81751Y-37126D01*
X81627Y-37250D01*
X81560Y-37412D01*
X81559Y-37587D01*
X81626Y-37748D01*
X81750Y-37872D01*
X81912Y-37939D01*
X82087Y-37940D01*
X82248Y-37873D01*
X82372Y-37749D01*
X82439Y-37587D01*
X82440Y-37412D01*
X82440Y-38412D01*
X82373Y-38251D01*
X82249Y-38127D01*
X82087Y-38060D01*
X81912Y-38059D01*
X81751Y-38126D01*
X81627Y-38250D01*
X81560Y-38412D01*
X81559Y-38587D01*
X81626Y-38748D01*
X81750Y-38872D01*
X81912Y-38939D01*
X82087Y-38940D01*
X82248Y-38873D01*
X82372Y-38749D01*
X82439Y-38587D01*
X82440Y-38412D01*
X82440Y-39412D01*
X82373Y-39251D01*
X82249Y-39127D01*
X82087Y-39060D01*
X81912Y-39059D01*
X81751Y-39126D01*
X81627Y-39250D01*
X81560Y-39412D01*
X81559Y-39587D01*
X81626Y-39748D01*
X81750Y-39872D01*
X81912Y-39939D01*
X82087Y-39940D01*
X82248Y-39873D01*
X82372Y-39749D01*
X82439Y-39587D01*
X82440Y-39412D01*
X82440Y-40412D01*
X82373Y-40251D01*
X82249Y-40127D01*
X82087Y-40060D01*
X81912Y-40059D01*
X81751Y-40126D01*
X81627Y-40250D01*
X81560Y-40412D01*
X81559Y-40587D01*
X81626Y-40748D01*
X81750Y-40872D01*
X81912Y-40939D01*
X82087Y-40940D01*
X82248Y-40873D01*
X82372Y-40749D01*
X82439Y-40587D01*
X82440Y-40412D01*
X82440Y-41412D01*
X82373Y-41251D01*
X82249Y-41127D01*
X82087Y-41060D01*
X81912Y-41059D01*
X81751Y-41126D01*
X81627Y-41250D01*
X81560Y-41412D01*
X81559Y-41587D01*
X81626Y-41748D01*
X81750Y-41872D01*
X81912Y-41939D01*
X82087Y-41940D01*
X82248Y-41873D01*
X82372Y-41749D01*
X82439Y-41587D01*
X82440Y-41412D01*
X82440Y-42412D01*
X82373Y-42251D01*
X82249Y-42127D01*
X82087Y-42060D01*
X81912Y-42059D01*
X81751Y-42126D01*
X81627Y-42250D01*
X81560Y-42412D01*
X81559Y-42587D01*
X81626Y-42748D01*
X81750Y-42872D01*
X81912Y-42939D01*
X82087Y-42940D01*
X82248Y-42873D01*
X82372Y-42749D01*
X82439Y-42587D01*
X82440Y-42412D01*
X82440Y-43412D01*
X82373Y-43251D01*
X82249Y-43127D01*
X82087Y-43060D01*
X81912Y-43059D01*
X81751Y-43126D01*
X81627Y-43250D01*
X81560Y-43412D01*
X81559Y-43587D01*
X81626Y-43748D01*
X81750Y-43872D01*
X81912Y-43939D01*
X82087Y-43940D01*
X82248Y-43873D01*
X82372Y-43749D01*
X82439Y-43587D01*
X82440Y-43412D01*
X82440Y-44412D01*
X82373Y-44251D01*
X82249Y-44127D01*
X82087Y-44060D01*
X81912Y-44059D01*
X81751Y-44126D01*
X81627Y-44250D01*
X81560Y-44412D01*
X81559Y-44550D01*
X79440Y-42430D01*
X79440Y-31712D01*
X79440Y-31287D01*
X79406Y-31119D01*
X79311Y-30976D01*
X79168Y-30880D01*
X79000Y-30847D01*
X78831Y-30880D01*
X78688Y-30976D01*
X78593Y-31119D01*
X78560Y-31287D01*
X78560Y-31712D01*
X78593Y-31880D01*
X78688Y-32023D01*
X78831Y-32119D01*
X79000Y-32152D01*
X79168Y-32119D01*
X79311Y-32023D01*
X79406Y-31880D01*
X79440Y-31712D01*
X79440Y-42430D01*
X78440Y-41430D01*
X78440Y-31712D01*
X78440Y-31287D01*
X78406Y-31119D01*
X78311Y-30976D01*
X78168Y-30880D01*
X78000Y-30847D01*
X77831Y-30880D01*
X77688Y-30976D01*
X77593Y-31119D01*
X77560Y-31287D01*
X77560Y-31712D01*
X77593Y-31880D01*
X77688Y-32023D01*
X77831Y-32119D01*
X78000Y-32152D01*
X78168Y-32119D01*
X78311Y-32023D01*
X78406Y-31880D01*
X78440Y-31712D01*
X78440Y-41430D01*
X77440Y-40430D01*
X77440Y-31712D01*
X77440Y-31287D01*
X77406Y-31119D01*
X77311Y-30976D01*
X77168Y-30880D01*
X77000Y-30847D01*
X76831Y-30880D01*
X76688Y-30976D01*
X76593Y-31119D01*
X76560Y-31287D01*
X76560Y-31712D01*
X76593Y-31880D01*
X76688Y-32023D01*
X76831Y-32119D01*
X77000Y-32152D01*
X77168Y-32119D01*
X77311Y-32023D01*
X77406Y-31880D01*
X77440Y-31712D01*
X77440Y-40430D01*
X76440Y-39430D01*
X76440Y-31712D01*
X76440Y-31287D01*
X76406Y-31119D01*
X76311Y-30976D01*
X76168Y-30880D01*
X76000Y-30847D01*
X75831Y-30880D01*
X75688Y-30976D01*
X75593Y-31119D01*
X75560Y-31287D01*
X75560Y-31712D01*
X75593Y-31880D01*
X75688Y-32023D01*
X75831Y-32119D01*
X76000Y-32152D01*
X76168Y-32119D01*
X76311Y-32023D01*
X76406Y-31880D01*
X76440Y-31712D01*
X76440Y-39430D01*
X76172Y-39162D01*
X76113Y-39123D01*
X76044Y-39110D01*
X75440Y-39110D01*
X75440Y-31712D01*
X75440Y-31287D01*
X75406Y-31119D01*
X75311Y-30976D01*
X75168Y-30880D01*
X75000Y-30847D01*
X74831Y-30880D01*
X74688Y-30976D01*
X74593Y-31119D01*
X74560Y-31287D01*
X74560Y-31712D01*
X74593Y-31880D01*
X74688Y-32023D01*
X74831Y-32119D01*
X75000Y-32152D01*
X75168Y-32119D01*
X75311Y-32023D01*
X75406Y-31880D01*
X75440Y-31712D01*
X75440Y-39110D01*
X74625Y-39110D01*
X74625Y-38907D01*
X74898Y-38634D01*
X74954Y-38550D01*
X74974Y-38450D01*
X74974Y-38450D01*
X74974Y-37747D01*
X74954Y-37648D01*
X74954Y-37648D01*
X74935Y-37620D01*
X74898Y-37564D01*
X74898Y-37564D01*
X74440Y-37105D01*
X74440Y-31712D01*
X74440Y-31287D01*
X74406Y-31119D01*
X74311Y-30976D01*
X74168Y-30880D01*
X74000Y-30847D01*
X73831Y-30880D01*
X73688Y-30976D01*
X73593Y-31119D01*
X73560Y-31287D01*
X73560Y-31712D01*
X73593Y-31880D01*
X73688Y-32023D01*
X73831Y-32119D01*
X74000Y-32152D01*
X74168Y-32119D01*
X74311Y-32023D01*
X74406Y-31880D01*
X74440Y-31712D01*
X74440Y-37105D01*
X73440Y-36105D01*
X73440Y-31712D01*
X73440Y-31287D01*
X73406Y-31119D01*
X73311Y-30976D01*
X73168Y-30880D01*
X73000Y-30847D01*
X72831Y-30880D01*
X72688Y-30976D01*
X72593Y-31119D01*
X72560Y-31287D01*
X72560Y-31712D01*
X72593Y-31880D01*
X72688Y-32023D01*
X72831Y-32119D01*
X73000Y-32152D01*
X73168Y-32119D01*
X73311Y-32023D01*
X73406Y-31880D01*
X73440Y-31712D01*
X73440Y-36105D01*
X72440Y-35105D01*
X72440Y-31712D01*
X72440Y-31287D01*
X72406Y-31119D01*
X72311Y-30976D01*
X72168Y-30880D01*
X72000Y-30847D01*
X71831Y-30880D01*
X71688Y-30976D01*
X71593Y-31119D01*
X71560Y-31287D01*
X71560Y-31712D01*
X71593Y-31880D01*
X71688Y-32023D01*
X71831Y-32119D01*
X72000Y-32152D01*
X72168Y-32119D01*
X72311Y-32023D01*
X72406Y-31880D01*
X72440Y-31712D01*
X72440Y-35105D01*
X72365Y-35030D01*
X72280Y-34974D01*
X72181Y-34954D01*
X71510Y-34954D01*
X71510Y-34541D01*
X71510Y-34131D01*
X71491Y-34087D01*
X71458Y-34053D01*
X71413Y-34035D01*
X71366Y-34034D01*
X71086Y-34034D01*
X71042Y-34053D01*
X71008Y-34086D01*
X71000Y-34106D01*
X70991Y-34087D01*
X70958Y-34053D01*
X70913Y-34035D01*
X70866Y-34034D01*
X70586Y-34034D01*
X70542Y-34053D01*
X70508Y-34086D01*
X70500Y-34106D01*
X70491Y-34087D01*
X70458Y-34053D01*
X70440Y-34045D01*
X70440Y-31712D01*
X70440Y-31287D01*
X70406Y-31119D01*
X70311Y-30976D01*
X70168Y-30880D01*
X70000Y-30847D01*
X69831Y-30880D01*
X69688Y-30976D01*
X69593Y-31119D01*
X69560Y-31287D01*
X69560Y-31712D01*
X69593Y-31880D01*
X69688Y-32023D01*
X69831Y-32119D01*
X70000Y-32152D01*
X70168Y-32119D01*
X70311Y-32023D01*
X70406Y-31880D01*
X70440Y-31712D01*
X70440Y-34045D01*
X70413Y-34035D01*
X70366Y-34034D01*
X70086Y-34034D01*
X70042Y-34053D01*
X70008Y-34086D01*
X70000Y-34106D01*
X69991Y-34087D01*
X69958Y-34053D01*
X69913Y-34035D01*
X69866Y-34034D01*
X69586Y-34034D01*
X69542Y-34053D01*
X69508Y-34086D01*
X69490Y-34131D01*
X69489Y-34178D01*
X69489Y-34588D01*
X69508Y-34632D01*
X69541Y-34666D01*
X69586Y-34684D01*
X69633Y-34685D01*
X69913Y-34685D01*
X69957Y-34666D01*
X69991Y-34633D01*
X69999Y-34613D01*
X70008Y-34632D01*
X70041Y-34666D01*
X70086Y-34684D01*
X70133Y-34685D01*
X70413Y-34685D01*
X70457Y-34666D01*
X70491Y-34633D01*
X70499Y-34613D01*
X70508Y-34632D01*
X70541Y-34666D01*
X70586Y-34684D01*
X70633Y-34685D01*
X70913Y-34685D01*
X70957Y-34666D01*
X70991Y-34633D01*
X70999Y-34613D01*
X71008Y-34632D01*
X71041Y-34666D01*
X71086Y-34684D01*
X71133Y-34685D01*
X71413Y-34685D01*
X71457Y-34666D01*
X71491Y-34633D01*
X71509Y-34588D01*
X71510Y-34541D01*
X71510Y-34954D01*
X69440Y-34954D01*
X69440Y-31712D01*
X69440Y-31287D01*
X69406Y-31119D01*
X69311Y-30976D01*
X69168Y-30880D01*
X69000Y-30847D01*
X68831Y-30880D01*
X68688Y-30976D01*
X68593Y-31119D01*
X68560Y-31287D01*
X68560Y-31712D01*
X68593Y-31880D01*
X68688Y-32023D01*
X68831Y-32119D01*
X69000Y-32152D01*
X69168Y-32119D01*
X69311Y-32023D01*
X69406Y-31880D01*
X69440Y-31712D01*
X69440Y-34954D01*
X68761Y-34954D01*
X68440Y-34633D01*
X68440Y-31712D01*
X68440Y-31287D01*
X68406Y-31119D01*
X68311Y-30976D01*
X68168Y-30880D01*
X68000Y-30847D01*
X67831Y-30880D01*
X67688Y-30976D01*
X67593Y-31119D01*
X67560Y-31287D01*
X67560Y-31712D01*
X67593Y-31880D01*
X67688Y-32023D01*
X67831Y-32119D01*
X68000Y-32152D01*
X68168Y-32119D01*
X68311Y-32023D01*
X68406Y-31880D01*
X68440Y-31712D01*
X68440Y-34633D01*
X67440Y-33633D01*
X67440Y-31712D01*
X67440Y-31287D01*
X67406Y-31119D01*
X67311Y-30976D01*
X67168Y-30880D01*
X67000Y-30847D01*
X66831Y-30880D01*
X66688Y-30976D01*
X66593Y-31119D01*
X66560Y-31287D01*
X66560Y-31712D01*
X66593Y-31880D01*
X66688Y-32023D01*
X66831Y-32119D01*
X67000Y-32152D01*
X67168Y-32119D01*
X67311Y-32023D01*
X67406Y-31880D01*
X67440Y-31712D01*
X67440Y-33633D01*
X67038Y-33232D01*
X67038Y-33222D01*
X66990Y-33106D01*
X66902Y-33017D01*
X66786Y-32969D01*
X66776Y-32969D01*
X66440Y-32633D01*
X66440Y-31712D01*
X66440Y-31287D01*
X66406Y-31119D01*
X66311Y-30976D01*
X66168Y-30880D01*
X66000Y-30847D01*
X65831Y-30880D01*
X65688Y-30976D01*
X65593Y-31119D01*
X65560Y-31287D01*
X65560Y-31712D01*
X65593Y-31880D01*
X65688Y-32023D01*
X65831Y-32119D01*
X66000Y-32152D01*
X66168Y-32119D01*
X66311Y-32023D01*
X66406Y-31880D01*
X66440Y-31712D01*
X66440Y-32633D01*
X66382Y-32576D01*
X66298Y-32519D01*
X66198Y-32500D01*
X65440Y-32500D01*
X65440Y-31712D01*
X65440Y-31287D01*
X65406Y-31119D01*
X65311Y-30976D01*
X65168Y-30880D01*
X65000Y-30847D01*
X64831Y-30880D01*
X64688Y-30976D01*
X64593Y-31119D01*
X64560Y-31287D01*
X64560Y-31712D01*
X64593Y-31880D01*
X64688Y-32023D01*
X64831Y-32119D01*
X65000Y-32152D01*
X65168Y-32119D01*
X65311Y-32023D01*
X65406Y-31880D01*
X65440Y-31712D01*
X65440Y-32500D01*
X64440Y-32500D01*
X64440Y-31712D01*
X64440Y-31287D01*
X64406Y-31119D01*
X64311Y-30976D01*
X64168Y-30880D01*
X64000Y-30847D01*
X63831Y-30880D01*
X63688Y-30976D01*
X63593Y-31119D01*
X63560Y-31287D01*
X63560Y-31712D01*
X63593Y-31880D01*
X63688Y-32023D01*
X63831Y-32119D01*
X64000Y-32152D01*
X64168Y-32119D01*
X64311Y-32023D01*
X64406Y-31880D01*
X64440Y-31712D01*
X64440Y-32500D01*
X63440Y-32500D01*
X63440Y-31712D01*
X63440Y-31287D01*
X63406Y-31119D01*
X63311Y-30976D01*
X63168Y-30880D01*
X63000Y-30847D01*
X62831Y-30880D01*
X62688Y-30976D01*
X62593Y-31119D01*
X62560Y-31287D01*
X62560Y-31712D01*
X62593Y-31880D01*
X62688Y-32023D01*
X62831Y-32119D01*
X63000Y-32152D01*
X63168Y-32119D01*
X63311Y-32023D01*
X63406Y-31880D01*
X63440Y-31712D01*
X63440Y-32500D01*
X61840Y-32500D01*
X61840Y-31712D01*
X61840Y-31287D01*
X61806Y-31119D01*
X61711Y-30976D01*
X61568Y-30880D01*
X61400Y-30847D01*
X61231Y-30880D01*
X61088Y-30976D01*
X60993Y-31119D01*
X60960Y-31287D01*
X60960Y-31712D01*
X60993Y-31880D01*
X61088Y-32023D01*
X61231Y-32119D01*
X61400Y-32152D01*
X61568Y-32119D01*
X61711Y-32023D01*
X61806Y-31880D01*
X61840Y-31712D01*
X61840Y-32500D01*
X60840Y-32500D01*
X60840Y-31712D01*
X60840Y-31287D01*
X60806Y-31119D01*
X60711Y-30976D01*
X60568Y-30880D01*
X60400Y-30847D01*
X60231Y-30880D01*
X60088Y-30976D01*
X59993Y-31119D01*
X59960Y-31287D01*
X59960Y-31712D01*
X59993Y-31880D01*
X60088Y-32023D01*
X60231Y-32119D01*
X60400Y-32152D01*
X60568Y-32119D01*
X60711Y-32023D01*
X60806Y-31880D01*
X60840Y-31712D01*
X60840Y-32500D01*
X59840Y-32500D01*
X59840Y-31712D01*
X59840Y-31287D01*
X59806Y-31119D01*
X59711Y-30976D01*
X59568Y-30880D01*
X59400Y-30847D01*
X59231Y-30880D01*
X59088Y-30976D01*
X58993Y-31119D01*
X58960Y-31287D01*
X58960Y-31712D01*
X58993Y-31880D01*
X59088Y-32023D01*
X59231Y-32119D01*
X59400Y-32152D01*
X59568Y-32119D01*
X59711Y-32023D01*
X59806Y-31880D01*
X59840Y-31712D01*
X59840Y-32500D01*
X58840Y-32500D01*
X58840Y-31712D01*
X58840Y-31287D01*
X58806Y-31119D01*
X58711Y-30976D01*
X58568Y-30880D01*
X58400Y-30847D01*
X58231Y-30880D01*
X58088Y-30976D01*
X57993Y-31119D01*
X57960Y-31287D01*
X57960Y-31712D01*
X57993Y-31880D01*
X58088Y-32023D01*
X58231Y-32119D01*
X58400Y-32152D01*
X58568Y-32119D01*
X58711Y-32023D01*
X58806Y-31880D01*
X58840Y-31712D01*
X58840Y-32500D01*
X57840Y-32500D01*
X57840Y-31712D01*
X57840Y-31287D01*
X57806Y-31119D01*
X57711Y-30976D01*
X57568Y-30880D01*
X57400Y-30847D01*
X57231Y-30880D01*
X57088Y-30976D01*
X56993Y-31119D01*
X56960Y-31287D01*
X56960Y-31712D01*
X56993Y-31880D01*
X57088Y-32023D01*
X57231Y-32119D01*
X57400Y-32152D01*
X57568Y-32119D01*
X57711Y-32023D01*
X57806Y-31880D01*
X57840Y-31712D01*
X57840Y-32500D01*
X56840Y-32500D01*
X56840Y-31712D01*
X56840Y-31287D01*
X56806Y-31119D01*
X56711Y-30976D01*
X56568Y-30880D01*
X56400Y-30847D01*
X56231Y-30880D01*
X56088Y-30976D01*
X55993Y-31119D01*
X55960Y-31287D01*
X55960Y-31712D01*
X55993Y-31880D01*
X56088Y-32023D01*
X56231Y-32119D01*
X56400Y-32152D01*
X56568Y-32119D01*
X56711Y-32023D01*
X56806Y-31880D01*
X56840Y-31712D01*
X56840Y-32500D01*
X55840Y-32500D01*
X55840Y-31712D01*
X55840Y-31287D01*
X55806Y-31119D01*
X55711Y-30976D01*
X55568Y-30880D01*
X55400Y-30847D01*
X55231Y-30880D01*
X55088Y-30976D01*
X54993Y-31119D01*
X54960Y-31287D01*
X54960Y-31712D01*
X54993Y-31880D01*
X55088Y-32023D01*
X55231Y-32119D01*
X55400Y-32152D01*
X55568Y-32119D01*
X55711Y-32023D01*
X55806Y-31880D01*
X55840Y-31712D01*
X55840Y-32500D01*
X54840Y-32500D01*
X54840Y-31712D01*
X54840Y-31287D01*
X54806Y-31119D01*
X54711Y-30976D01*
X54568Y-30880D01*
X54400Y-30847D01*
X54231Y-30880D01*
X54088Y-30976D01*
X53993Y-31119D01*
X53960Y-31287D01*
X53960Y-31712D01*
X53993Y-31880D01*
X54088Y-32023D01*
X54231Y-32119D01*
X54400Y-32152D01*
X54568Y-32119D01*
X54711Y-32023D01*
X54806Y-31880D01*
X54840Y-31712D01*
X54840Y-32500D01*
X53840Y-32500D01*
X53840Y-31712D01*
X53840Y-31287D01*
X53806Y-31119D01*
X53711Y-30976D01*
X53568Y-30880D01*
X53400Y-30847D01*
X53231Y-30880D01*
X53088Y-30976D01*
X52993Y-31119D01*
X52960Y-31287D01*
X52960Y-31712D01*
X52993Y-31880D01*
X53088Y-32023D01*
X53231Y-32119D01*
X53400Y-32152D01*
X53568Y-32119D01*
X53711Y-32023D01*
X53806Y-31880D01*
X53840Y-31712D01*
X53840Y-32500D01*
X52840Y-32500D01*
X52840Y-31712D01*
X52840Y-31287D01*
X52806Y-31119D01*
X52711Y-30976D01*
X52568Y-30880D01*
X52400Y-30847D01*
X52231Y-30880D01*
X52088Y-30976D01*
X51993Y-31119D01*
X51960Y-31287D01*
X51960Y-31712D01*
X51993Y-31880D01*
X52088Y-32023D01*
X52231Y-32119D01*
X52400Y-32152D01*
X52568Y-32119D01*
X52711Y-32023D01*
X52806Y-31880D01*
X52840Y-31712D01*
X52840Y-32500D01*
X50685Y-32500D01*
X50585Y-32519D01*
X50501Y-32576D01*
X48816Y-34261D01*
X48759Y-34345D01*
X48753Y-34375D01*
X48751Y-34376D01*
X48627Y-34500D01*
X48560Y-34662D01*
X48559Y-34837D01*
X48626Y-34998D01*
X48750Y-35122D01*
X48912Y-35189D01*
X49087Y-35190D01*
X49248Y-35123D01*
X49363Y-35009D01*
X49363Y-35019D01*
X49072Y-35310D01*
X48912Y-35309D01*
X48751Y-35376D01*
X48627Y-35500D01*
X48560Y-35662D01*
X48559Y-35837D01*
X48626Y-35998D01*
X48750Y-36122D01*
X48912Y-36189D01*
X49087Y-36190D01*
X49248Y-36123D01*
X49372Y-35999D01*
X49439Y-35837D01*
X49440Y-35677D01*
X49806Y-35310D01*
X49806Y-35310D01*
X49844Y-35254D01*
X49863Y-35226D01*
X49863Y-35226D01*
X49883Y-35126D01*
X49883Y-35126D01*
X49883Y-34429D01*
X49918Y-34394D01*
X49918Y-34394D01*
X49971Y-34523D01*
X50063Y-34551D01*
X50365Y-34250D01*
X50359Y-34244D01*
X50444Y-34159D01*
X50450Y-34165D01*
X50455Y-34159D01*
X50540Y-34244D01*
X50534Y-34250D01*
X50836Y-34551D01*
X50928Y-34523D01*
X50996Y-34319D01*
X50981Y-34105D01*
X50932Y-33986D01*
X51366Y-33986D01*
X52280Y-34900D01*
X51968Y-34900D01*
X51889Y-34822D01*
X51890Y-34662D01*
X51823Y-34501D01*
X51699Y-34377D01*
X51537Y-34310D01*
X51362Y-34309D01*
X51201Y-34376D01*
X51077Y-34500D01*
X51010Y-34662D01*
X51009Y-34837D01*
X51076Y-34998D01*
X51200Y-35122D01*
X51222Y-35131D01*
X51173Y-35141D01*
X51114Y-35180D01*
X50994Y-35300D01*
X50981Y-35105D01*
X50928Y-34976D01*
X50836Y-34948D01*
X50751Y-35032D01*
X50751Y-34863D01*
X50723Y-34771D01*
X50664Y-34752D01*
X50723Y-34728D01*
X50751Y-34636D01*
X50450Y-34334D01*
X50148Y-34636D01*
X50176Y-34728D01*
X50235Y-34747D01*
X50176Y-34771D01*
X50148Y-34863D01*
X50450Y-35165D01*
X50751Y-34863D01*
X50751Y-35032D01*
X50534Y-35250D01*
X50540Y-35255D01*
X50455Y-35340D01*
X50450Y-35334D01*
X50365Y-35419D01*
X50365Y-35250D01*
X50063Y-34948D01*
X49971Y-34976D01*
X49903Y-35180D01*
X49918Y-35394D01*
X49971Y-35523D01*
X50063Y-35551D01*
X50365Y-35250D01*
X50365Y-35419D01*
X50148Y-35636D01*
X50176Y-35728D01*
X50380Y-35796D01*
X50594Y-35781D01*
X50723Y-35728D01*
X50751Y-35636D01*
X50751Y-35636D01*
X50796Y-35681D01*
X50829Y-35647D01*
X50829Y-36017D01*
X50823Y-36001D01*
X50751Y-35929D01*
X50699Y-35877D01*
X50537Y-35810D01*
X50362Y-35809D01*
X50201Y-35876D01*
X50077Y-36000D01*
X50010Y-36162D01*
X50009Y-36337D01*
X50076Y-36498D01*
X50200Y-36622D01*
X50362Y-36689D01*
X50537Y-36690D01*
X50698Y-36623D01*
X50822Y-36499D01*
X50829Y-36482D01*
X50829Y-36949D01*
X50843Y-37018D01*
X50882Y-37076D01*
X51182Y-37377D01*
X51193Y-37384D01*
X51077Y-37500D01*
X51010Y-37662D01*
X51009Y-37837D01*
X51076Y-37998D01*
X51200Y-38122D01*
X51362Y-38189D01*
X51382Y-38189D01*
X52504Y-39311D01*
X50928Y-39311D01*
X50890Y-39272D01*
X50890Y-37162D01*
X50823Y-37001D01*
X50699Y-36877D01*
X50537Y-36810D01*
X50362Y-36809D01*
X50201Y-36876D01*
X50077Y-37000D01*
X50010Y-37162D01*
X50009Y-37337D01*
X50076Y-37498D01*
X50200Y-37622D01*
X50362Y-37689D01*
X50537Y-37690D01*
X50698Y-37623D01*
X50822Y-37499D01*
X50889Y-37337D01*
X50890Y-37162D01*
X50890Y-39272D01*
X49439Y-37822D01*
X49440Y-37662D01*
X49373Y-37501D01*
X49249Y-37377D01*
X49087Y-37310D01*
X49043Y-37310D01*
X49183Y-37169D01*
X49201Y-37142D01*
X49248Y-37123D01*
X49372Y-36999D01*
X49439Y-36837D01*
X49440Y-36662D01*
X49373Y-36501D01*
X49249Y-36377D01*
X49087Y-36310D01*
X48912Y-36309D01*
X48751Y-36376D01*
X48627Y-36500D01*
X48560Y-36662D01*
X48559Y-36837D01*
X48624Y-36993D01*
X48546Y-37071D01*
X48546Y-35319D01*
X48546Y-34319D01*
X48531Y-34105D01*
X48478Y-33976D01*
X48386Y-33948D01*
X48301Y-34032D01*
X48301Y-33863D01*
X48273Y-33771D01*
X48069Y-33703D01*
X47855Y-33718D01*
X47726Y-33771D01*
X47698Y-33863D01*
X48000Y-34165D01*
X48301Y-33863D01*
X48301Y-34032D01*
X48084Y-34250D01*
X48386Y-34551D01*
X48478Y-34523D01*
X48546Y-34319D01*
X48546Y-35319D01*
X48531Y-35105D01*
X48478Y-34976D01*
X48386Y-34948D01*
X48301Y-35032D01*
X48301Y-34863D01*
X48273Y-34771D01*
X48214Y-34752D01*
X48273Y-34728D01*
X48301Y-34636D01*
X48000Y-34334D01*
X47915Y-34419D01*
X47915Y-34250D01*
X47613Y-33948D01*
X47521Y-33976D01*
X47453Y-34180D01*
X47468Y-34394D01*
X47521Y-34523D01*
X47613Y-34551D01*
X47915Y-34250D01*
X47915Y-34419D01*
X47698Y-34636D01*
X47726Y-34728D01*
X47785Y-34747D01*
X47726Y-34771D01*
X47698Y-34863D01*
X48000Y-35165D01*
X48301Y-34863D01*
X48301Y-35032D01*
X48084Y-35250D01*
X48386Y-35551D01*
X48478Y-35523D01*
X48546Y-35319D01*
X48546Y-37071D01*
X48440Y-37177D01*
X48440Y-37162D01*
X48440Y-36162D01*
X48373Y-36001D01*
X48301Y-35929D01*
X48301Y-35636D01*
X48000Y-35334D01*
X47915Y-35419D01*
X47915Y-35250D01*
X47613Y-34948D01*
X47521Y-34976D01*
X47453Y-35180D01*
X47468Y-35394D01*
X47521Y-35523D01*
X47613Y-35551D01*
X47915Y-35250D01*
X47915Y-35419D01*
X47698Y-35636D01*
X47726Y-35728D01*
X47930Y-35796D01*
X48144Y-35781D01*
X48273Y-35728D01*
X48301Y-35636D01*
X48301Y-35929D01*
X48249Y-35877D01*
X48087Y-35810D01*
X47912Y-35809D01*
X47751Y-35876D01*
X47627Y-36000D01*
X47560Y-36162D01*
X47559Y-36337D01*
X47626Y-36498D01*
X47750Y-36622D01*
X47912Y-36689D01*
X48087Y-36690D01*
X48248Y-36623D01*
X48372Y-36499D01*
X48439Y-36337D01*
X48440Y-36162D01*
X48440Y-37162D01*
X48373Y-37001D01*
X48249Y-36877D01*
X48087Y-36810D01*
X47912Y-36809D01*
X47751Y-36876D01*
X47627Y-37000D01*
X47560Y-37162D01*
X47559Y-37337D01*
X47626Y-37498D01*
X47750Y-37622D01*
X47912Y-37689D01*
X48087Y-37690D01*
X48211Y-37638D01*
X48211Y-37963D01*
X48231Y-38062D01*
X48288Y-38146D01*
X50278Y-40137D01*
X50278Y-40137D01*
X50362Y-40193D01*
X50362Y-40193D01*
X50379Y-40196D01*
X50462Y-40213D01*
X67299Y-40213D01*
X67398Y-40193D01*
X67483Y-40137D01*
X68390Y-39230D01*
X68400Y-39230D01*
X68516Y-39182D01*
X68523Y-39175D01*
X68714Y-39175D01*
X68635Y-39207D01*
X68547Y-39296D01*
X68498Y-39411D01*
X68498Y-39535D01*
X68143Y-39890D01*
X68104Y-39949D01*
X68090Y-40018D01*
X68090Y-40759D01*
X68056Y-40794D01*
X68008Y-40910D01*
X68007Y-41035D01*
X68047Y-41130D01*
X63169Y-41130D01*
X63069Y-41030D01*
X63069Y-40908D01*
X63021Y-40792D01*
X62933Y-40703D01*
X62817Y-40655D01*
X62692Y-40655D01*
X62576Y-40703D01*
X62487Y-40791D01*
X62439Y-40907D01*
X62439Y-41032D01*
X62487Y-41148D01*
X62576Y-41237D01*
X62691Y-41285D01*
X62815Y-41285D01*
X62967Y-41437D01*
X63025Y-41476D01*
X63094Y-41490D01*
X75735Y-41490D01*
X81588Y-47343D01*
X81560Y-47412D01*
X81559Y-47587D01*
X81626Y-47748D01*
X81750Y-47872D01*
X81912Y-47939D01*
X82087Y-47940D01*
X82248Y-47873D01*
X82372Y-47749D01*
X82439Y-47587D01*
X82440Y-47412D01*
X82373Y-47251D01*
X82249Y-47127D01*
X82087Y-47060D01*
X81912Y-47059D01*
X81843Y-47088D01*
X75937Y-41183D01*
X75892Y-41153D01*
X77398Y-41153D01*
X81588Y-45343D01*
X81560Y-45412D01*
X81559Y-45587D01*
X81626Y-45748D01*
X81750Y-45872D01*
X81912Y-45939D01*
X82087Y-45940D01*
X82248Y-45873D01*
X82372Y-45749D01*
X82439Y-45587D01*
X82440Y-45412D01*
X82373Y-45251D01*
X82302Y-45180D01*
X82425Y-45180D01*
X82588Y-45343D01*
X82560Y-45412D01*
X82559Y-45587D01*
X82626Y-45748D01*
X82750Y-45872D01*
X82912Y-45939D01*
X83087Y-45940D01*
X83248Y-45873D01*
X83372Y-45749D01*
X83439Y-45587D01*
X83440Y-45412D01*
X83440Y-46412D01*
X83373Y-46251D01*
X83249Y-46127D01*
X83087Y-46060D01*
X82912Y-46059D01*
X82751Y-46126D01*
X82627Y-46250D01*
X82560Y-46412D01*
X82559Y-46587D01*
X82626Y-46748D01*
X82637Y-46760D01*
X82514Y-46760D01*
X82411Y-46656D01*
X82439Y-46587D01*
X82440Y-46412D01*
X82373Y-46251D01*
X82249Y-46127D01*
X82087Y-46060D01*
X81912Y-46059D01*
X81751Y-46126D01*
X81627Y-46250D01*
X81560Y-46412D01*
X81559Y-46587D01*
X81626Y-46748D01*
X81750Y-46872D01*
X81912Y-46939D01*
X82087Y-46940D01*
X82156Y-46911D01*
X82312Y-47067D01*
X82312Y-47067D01*
X82351Y-47093D01*
X82371Y-47106D01*
X82371Y-47106D01*
X82440Y-47120D01*
X82440Y-47120D01*
X82767Y-47120D01*
X82751Y-47126D01*
X82627Y-47250D01*
X82560Y-47412D01*
X82559Y-47587D01*
X82626Y-47748D01*
X82750Y-47872D01*
X82912Y-47939D01*
X83087Y-47940D01*
X83248Y-47873D01*
X83372Y-47749D01*
X83439Y-47587D01*
X83440Y-47412D01*
X83373Y-47251D01*
X83249Y-47127D01*
X83232Y-47120D01*
X84653Y-47120D01*
X85144Y-47610D01*
X85143Y-47733D01*
X85191Y-47849D01*
X85280Y-47937D01*
X85396Y-47986D01*
X85521Y-47986D01*
X85637Y-47938D01*
X85725Y-47849D01*
X85773Y-47734D01*
X85774Y-47608D01*
X85774Y-51335D01*
X83375Y-51335D01*
X83517Y-51276D01*
X83775Y-51018D01*
X83914Y-50682D01*
X83915Y-50318D01*
X83776Y-49982D01*
X83518Y-49724D01*
X83440Y-49691D01*
X83440Y-48412D01*
X83373Y-48251D01*
X83249Y-48127D01*
X83087Y-48060D01*
X82912Y-48059D01*
X82751Y-48126D01*
X82627Y-48250D01*
X82560Y-48412D01*
X82559Y-48587D01*
X82626Y-48748D01*
X82750Y-48872D01*
X82912Y-48939D01*
X83087Y-48940D01*
X83248Y-48873D01*
X83372Y-48749D01*
X83439Y-48587D01*
X83440Y-48412D01*
X83440Y-49691D01*
X83182Y-49585D01*
X82818Y-49584D01*
X82482Y-49723D01*
X82440Y-49766D01*
X82440Y-48412D01*
X82373Y-48251D01*
X82249Y-48127D01*
X82087Y-48060D01*
X81912Y-48059D01*
X81751Y-48126D01*
X81627Y-48250D01*
X81560Y-48412D01*
X81559Y-48587D01*
X81626Y-48748D01*
X81750Y-48872D01*
X81912Y-48939D01*
X82087Y-48940D01*
X82248Y-48873D01*
X82372Y-48749D01*
X82439Y-48587D01*
X82440Y-48412D01*
X82440Y-49766D01*
X82224Y-49981D01*
X82085Y-50317D01*
X82084Y-50681D01*
X82223Y-51017D01*
X82481Y-51275D01*
X82624Y-51335D01*
X81440Y-51335D01*
X81440Y-50712D01*
X81440Y-50287D01*
X81406Y-50119D01*
X81311Y-49976D01*
X81168Y-49880D01*
X81000Y-49847D01*
X80831Y-49880D01*
X80688Y-49976D01*
X80593Y-50119D01*
X80560Y-50287D01*
X80560Y-50712D01*
X80593Y-50880D01*
X80688Y-51023D01*
X80831Y-51119D01*
X81000Y-51152D01*
X81168Y-51119D01*
X81311Y-51023D01*
X81406Y-50880D01*
X81440Y-50712D01*
X81440Y-51335D01*
X80440Y-51335D01*
X80440Y-50712D01*
X80440Y-50287D01*
X80406Y-50119D01*
X80311Y-49976D01*
X80168Y-49880D01*
X80000Y-49847D01*
X79831Y-49880D01*
X79688Y-49976D01*
X79593Y-50119D01*
X79560Y-50287D01*
X79560Y-50712D01*
X79593Y-50880D01*
X79688Y-51023D01*
X79831Y-51119D01*
X80000Y-51152D01*
X80168Y-51119D01*
X80311Y-51023D01*
X80406Y-50880D01*
X80440Y-50712D01*
X80440Y-51335D01*
X79440Y-51335D01*
X79440Y-50712D01*
X79440Y-50287D01*
X79406Y-50119D01*
X79311Y-49976D01*
X79168Y-49880D01*
X79000Y-49847D01*
X78831Y-49880D01*
X78688Y-49976D01*
X78593Y-50119D01*
X78560Y-50287D01*
X78560Y-50712D01*
X78593Y-50880D01*
X78688Y-51023D01*
X78831Y-51119D01*
X79000Y-51152D01*
X79168Y-51119D01*
X79311Y-51023D01*
X79406Y-50880D01*
X79440Y-50712D01*
X79440Y-51335D01*
X78440Y-51335D01*
X78440Y-50712D01*
X78440Y-50287D01*
X78406Y-50119D01*
X78311Y-49976D01*
X78168Y-49880D01*
X78000Y-49847D01*
X77831Y-49880D01*
X77688Y-49976D01*
X77593Y-50119D01*
X77560Y-50287D01*
X77560Y-50712D01*
X77593Y-50880D01*
X77688Y-51023D01*
X77831Y-51119D01*
X78000Y-51152D01*
X78168Y-51119D01*
X78311Y-51023D01*
X78406Y-50880D01*
X78440Y-50712D01*
X78440Y-51335D01*
X77440Y-51335D01*
X77440Y-50712D01*
X77440Y-50287D01*
X77406Y-50119D01*
X77311Y-49976D01*
X77168Y-49880D01*
X77000Y-49847D01*
X76831Y-49880D01*
X76688Y-49976D01*
X76593Y-50119D01*
X76560Y-50287D01*
X76560Y-50712D01*
X76593Y-50880D01*
X76688Y-51023D01*
X76831Y-51119D01*
X77000Y-51152D01*
X77168Y-51119D01*
X77311Y-51023D01*
X77406Y-50880D01*
X77440Y-50712D01*
X77440Y-51335D01*
X76440Y-51335D01*
X76440Y-50712D01*
X76440Y-50287D01*
X76406Y-50119D01*
X76311Y-49976D01*
X76168Y-49880D01*
X76000Y-49847D01*
X75831Y-49880D01*
X75688Y-49976D01*
X75593Y-50119D01*
X75560Y-50287D01*
X75560Y-50712D01*
X75593Y-50880D01*
X75688Y-51023D01*
X75831Y-51119D01*
X76000Y-51152D01*
X76168Y-51119D01*
X76311Y-51023D01*
X76406Y-50880D01*
X76440Y-50712D01*
X76440Y-51335D01*
X75440Y-51335D01*
X75440Y-50712D01*
X75440Y-50287D01*
X75406Y-50119D01*
X75311Y-49976D01*
X75168Y-49880D01*
X75000Y-49847D01*
X74831Y-49880D01*
X74688Y-49976D01*
X74593Y-50119D01*
X74560Y-50287D01*
X74560Y-50712D01*
X74593Y-50880D01*
X74688Y-51023D01*
X74831Y-51119D01*
X75000Y-51152D01*
X75168Y-51119D01*
X75311Y-51023D01*
X75406Y-50880D01*
X75440Y-50712D01*
X75440Y-51335D01*
X74440Y-51335D01*
X74440Y-50712D01*
X74440Y-50287D01*
X74406Y-50119D01*
X74311Y-49976D01*
X74168Y-49880D01*
X74000Y-49847D01*
X73831Y-49880D01*
X73688Y-49976D01*
X73593Y-50119D01*
X73560Y-50287D01*
X73560Y-50712D01*
X73593Y-50880D01*
X73688Y-51023D01*
X73831Y-51119D01*
X74000Y-51152D01*
X74168Y-51119D01*
X74311Y-51023D01*
X74406Y-50880D01*
X74440Y-50712D01*
X74440Y-51335D01*
X72440Y-51335D01*
X72440Y-50712D01*
X72440Y-50287D01*
X72406Y-50119D01*
X72311Y-49976D01*
X72168Y-49880D01*
X72000Y-49847D01*
X71831Y-49880D01*
X71688Y-49976D01*
X71593Y-50119D01*
X71560Y-50287D01*
X71560Y-50712D01*
X71593Y-50880D01*
X71688Y-51023D01*
X71831Y-51119D01*
X72000Y-51152D01*
X72168Y-51119D01*
X72311Y-51023D01*
X72406Y-50880D01*
X72440Y-50712D01*
X72440Y-51335D01*
X71440Y-51335D01*
X71440Y-50712D01*
X71440Y-50287D01*
X71406Y-50119D01*
X71311Y-49976D01*
X71168Y-49880D01*
X71000Y-49847D01*
X70831Y-49880D01*
X70688Y-49976D01*
X70593Y-50119D01*
X70560Y-50287D01*
X70560Y-50712D01*
X70593Y-50880D01*
X70688Y-51023D01*
X70831Y-51119D01*
X71000Y-51152D01*
X71168Y-51119D01*
X71311Y-51023D01*
X71406Y-50880D01*
X71440Y-50712D01*
X71440Y-51335D01*
X70440Y-51335D01*
X70440Y-50712D01*
X70440Y-50287D01*
X70406Y-50119D01*
X70311Y-49976D01*
X70168Y-49880D01*
X70000Y-49847D01*
X69831Y-49880D01*
X69688Y-49976D01*
X69593Y-50119D01*
X69560Y-50287D01*
X69560Y-50712D01*
X69593Y-50880D01*
X69688Y-51023D01*
X69831Y-51119D01*
X70000Y-51152D01*
X70168Y-51119D01*
X70311Y-51023D01*
X70406Y-50880D01*
X70440Y-50712D01*
X70440Y-51335D01*
X69440Y-51335D01*
X69440Y-50712D01*
X69440Y-50287D01*
X69406Y-50119D01*
X69311Y-49976D01*
X69168Y-49880D01*
X69000Y-49847D01*
X68831Y-49880D01*
X68688Y-49976D01*
X68593Y-50119D01*
X68560Y-50287D01*
X68560Y-50712D01*
X68593Y-50880D01*
X68688Y-51023D01*
X68831Y-51119D01*
X69000Y-51152D01*
X69168Y-51119D01*
X69311Y-51023D01*
X69406Y-50880D01*
X69440Y-50712D01*
X69440Y-51335D01*
X57440Y-51335D01*
X57440Y-50712D01*
X57440Y-50287D01*
X57406Y-50119D01*
X57311Y-49976D01*
X57168Y-49880D01*
X57000Y-49847D01*
X56831Y-49880D01*
X56688Y-49976D01*
X56593Y-50119D01*
X56560Y-50287D01*
X56560Y-50712D01*
X56593Y-50880D01*
X56688Y-51023D01*
X56831Y-51119D01*
X57000Y-51152D01*
X57168Y-51119D01*
X57311Y-51023D01*
X57406Y-50880D01*
X57440Y-50712D01*
X57440Y-51335D01*
X56440Y-51335D01*
X56440Y-50712D01*
X56440Y-50287D01*
X56406Y-50119D01*
X56311Y-49976D01*
X56168Y-49880D01*
X56000Y-49847D01*
X55831Y-49880D01*
X55688Y-49976D01*
X55593Y-50119D01*
X55560Y-50287D01*
X55560Y-50712D01*
X55593Y-50880D01*
X55688Y-51023D01*
X55831Y-51119D01*
X56000Y-51152D01*
X56168Y-51119D01*
X56311Y-51023D01*
X56406Y-50880D01*
X56440Y-50712D01*
X56440Y-51335D01*
X50875Y-51335D01*
X51017Y-51276D01*
X51275Y-51018D01*
X51414Y-50682D01*
X51415Y-50318D01*
X51355Y-50174D01*
X53631Y-50174D01*
X53731Y-50154D01*
X53815Y-50098D01*
X54079Y-49834D01*
X57825Y-49834D01*
X57820Y-49859D01*
X57820Y-49888D01*
X57688Y-49976D01*
X57593Y-50119D01*
X57560Y-50287D01*
X57560Y-50712D01*
X57593Y-50880D01*
X57688Y-51023D01*
X57831Y-51119D01*
X58000Y-51152D01*
X58168Y-51119D01*
X58311Y-51023D01*
X58406Y-50880D01*
X58440Y-50712D01*
X58440Y-50287D01*
X58406Y-50119D01*
X58353Y-50039D01*
X58646Y-50039D01*
X58593Y-50119D01*
X58560Y-50287D01*
X58560Y-50712D01*
X58593Y-50880D01*
X58688Y-51023D01*
X58831Y-51119D01*
X59000Y-51152D01*
X59168Y-51119D01*
X59311Y-51023D01*
X59406Y-50880D01*
X59440Y-50712D01*
X59440Y-50287D01*
X59406Y-50119D01*
X59353Y-50039D01*
X59646Y-50039D01*
X59593Y-50119D01*
X59560Y-50287D01*
X59560Y-50712D01*
X59593Y-50880D01*
X59688Y-51023D01*
X59831Y-51119D01*
X60000Y-51152D01*
X60168Y-51119D01*
X60311Y-51023D01*
X60406Y-50880D01*
X60440Y-50712D01*
X60440Y-50287D01*
X60406Y-50119D01*
X60353Y-50039D01*
X60646Y-50039D01*
X60593Y-50119D01*
X60560Y-50287D01*
X60560Y-50712D01*
X60593Y-50880D01*
X60688Y-51023D01*
X60831Y-51119D01*
X61000Y-51152D01*
X61168Y-51119D01*
X61311Y-51023D01*
X61406Y-50880D01*
X61418Y-50820D01*
X61581Y-50820D01*
X61593Y-50880D01*
X61688Y-51023D01*
X61831Y-51119D01*
X62000Y-51152D01*
X62168Y-51119D01*
X62311Y-51023D01*
X62406Y-50880D01*
X62440Y-50712D01*
X62440Y-50287D01*
X62406Y-50119D01*
X62353Y-50039D01*
X62646Y-50039D01*
X62593Y-50119D01*
X62560Y-50287D01*
X62560Y-50712D01*
X62593Y-50880D01*
X62688Y-51023D01*
X62831Y-51119D01*
X63000Y-51152D01*
X63168Y-51119D01*
X63311Y-51023D01*
X63406Y-50880D01*
X63440Y-50712D01*
X63440Y-50287D01*
X63406Y-50119D01*
X63353Y-50039D01*
X64646Y-50039D01*
X64593Y-50119D01*
X64560Y-50287D01*
X64560Y-50712D01*
X64593Y-50880D01*
X64688Y-51023D01*
X64831Y-51119D01*
X65000Y-51152D01*
X65168Y-51119D01*
X65311Y-51023D01*
X65406Y-50880D01*
X65440Y-50712D01*
X65440Y-50287D01*
X65406Y-50119D01*
X65353Y-50039D01*
X65646Y-50039D01*
X65593Y-50119D01*
X65560Y-50287D01*
X65560Y-50712D01*
X65593Y-50880D01*
X65688Y-51023D01*
X65831Y-51119D01*
X66000Y-51152D01*
X66168Y-51119D01*
X66311Y-51023D01*
X66406Y-50880D01*
X66440Y-50712D01*
X66440Y-50287D01*
X66406Y-50119D01*
X66353Y-50039D01*
X66646Y-50039D01*
X66593Y-50119D01*
X66560Y-50287D01*
X66560Y-50712D01*
X66593Y-50880D01*
X66688Y-51023D01*
X66831Y-51119D01*
X67000Y-51152D01*
X67168Y-51119D01*
X67311Y-51023D01*
X67406Y-50880D01*
X67440Y-50712D01*
X67440Y-50287D01*
X67406Y-50119D01*
X67353Y-50039D01*
X67646Y-50039D01*
X67593Y-50119D01*
X67560Y-50287D01*
X67560Y-50712D01*
X67593Y-50880D01*
X67688Y-51023D01*
X67831Y-51119D01*
X68000Y-51152D01*
X68168Y-51119D01*
X68311Y-51023D01*
X68406Y-50880D01*
X68440Y-50712D01*
X68440Y-50287D01*
X68406Y-50119D01*
X68311Y-49976D01*
X68168Y-49880D01*
X68001Y-49847D01*
X69760Y-48088D01*
X69760Y-48088D01*
X69786Y-48049D01*
X69799Y-48030D01*
X69799Y-48030D01*
X69812Y-47961D01*
X69812Y-47961D01*
X69812Y-47297D01*
X70600Y-46510D01*
X70600Y-46510D01*
X70639Y-46451D01*
X70653Y-46382D01*
X70653Y-46382D01*
X70653Y-46129D01*
X70740Y-46042D01*
X70788Y-45927D01*
X70788Y-45801D01*
X70740Y-45686D01*
X70652Y-45597D01*
X70536Y-45549D01*
X70411Y-45549D01*
X70295Y-45597D01*
X70206Y-45685D01*
X70158Y-45801D01*
X70158Y-45926D01*
X70206Y-46042D01*
X70293Y-46129D01*
X70293Y-46308D01*
X69625Y-46976D01*
X69625Y-46572D01*
X69603Y-46520D01*
X69564Y-46481D01*
X69512Y-46460D01*
X69457Y-46459D01*
X69430Y-46459D01*
X69430Y-46459D01*
X69430Y-45809D01*
X70377Y-44862D01*
X70377Y-44862D01*
X70416Y-44804D01*
X70429Y-44735D01*
X70430Y-44735D01*
X70430Y-44708D01*
X70457Y-44696D01*
X70491Y-44663D01*
X70499Y-44643D01*
X70508Y-44662D01*
X70541Y-44696D01*
X70570Y-44708D01*
X70570Y-44735D01*
X70583Y-44804D01*
X70622Y-44862D01*
X71570Y-45809D01*
X71570Y-46459D01*
X71570Y-46459D01*
X71487Y-46459D01*
X71435Y-46481D01*
X71396Y-46520D01*
X71375Y-46572D01*
X71374Y-46627D01*
X71374Y-47097D01*
X71396Y-47149D01*
X71435Y-47188D01*
X71487Y-47209D01*
X71542Y-47210D01*
X72012Y-47210D01*
X72064Y-47188D01*
X72103Y-47149D01*
X72124Y-47097D01*
X72125Y-47042D01*
X72125Y-46572D01*
X72103Y-46520D01*
X72064Y-46481D01*
X72012Y-46460D01*
X71957Y-46459D01*
X71930Y-46459D01*
X71930Y-46459D01*
X71930Y-45735D01*
X71916Y-45666D01*
X71877Y-45607D01*
X71877Y-45607D01*
X70962Y-44692D01*
X70991Y-44663D01*
X70999Y-44643D01*
X71008Y-44662D01*
X71041Y-44696D01*
X71086Y-44714D01*
X71133Y-44715D01*
X71413Y-44715D01*
X71457Y-44696D01*
X71470Y-44684D01*
X73747Y-46962D01*
X73747Y-46962D01*
X73805Y-47001D01*
X73874Y-47014D01*
X73874Y-47015D01*
X73874Y-47015D01*
X73874Y-47097D01*
X73896Y-47149D01*
X73935Y-47188D01*
X73987Y-47209D01*
X74042Y-47210D01*
X74337Y-47210D01*
X74257Y-47289D01*
X73987Y-47289D01*
X73935Y-47311D01*
X73896Y-47350D01*
X73875Y-47402D01*
X73874Y-47457D01*
X73874Y-47880D01*
X72787Y-47880D01*
X72388Y-47481D01*
X72304Y-47424D01*
X72205Y-47405D01*
X72125Y-47405D01*
X72125Y-47402D01*
X72103Y-47350D01*
X72064Y-47311D01*
X72012Y-47290D01*
X71957Y-47289D01*
X71487Y-47289D01*
X71435Y-47311D01*
X71396Y-47350D01*
X71375Y-47402D01*
X71374Y-47457D01*
X71374Y-47927D01*
X71396Y-47979D01*
X71435Y-48018D01*
X71487Y-48039D01*
X71542Y-48040D01*
X72012Y-48040D01*
X72064Y-48018D01*
X72103Y-47979D01*
X72117Y-47945D01*
X72496Y-48323D01*
X72496Y-48323D01*
X72552Y-48361D01*
X72580Y-48380D01*
X72580Y-48380D01*
X72680Y-48400D01*
X74576Y-48400D01*
X74675Y-48380D01*
X74760Y-48323D01*
X75232Y-47851D01*
X75232Y-47851D01*
X75288Y-47767D01*
X75288Y-47767D01*
X75291Y-47750D01*
X75308Y-47667D01*
X75308Y-47667D01*
X75308Y-46354D01*
X75308Y-46354D01*
X75288Y-46254D01*
X75288Y-46254D01*
X75269Y-46226D01*
X75232Y-46170D01*
X75232Y-46170D01*
X72465Y-43403D01*
X72381Y-43347D01*
X72281Y-43327D01*
X71629Y-43327D01*
X71630Y-43267D01*
X71630Y-42952D01*
X71629Y-42857D01*
X71593Y-42768D01*
X71525Y-42701D01*
X71437Y-42664D01*
X71370Y-42665D01*
X71310Y-42725D01*
X71310Y-43050D01*
X71570Y-43050D01*
X71630Y-42990D01*
X71630Y-42952D01*
X71630Y-43267D01*
X71630Y-43230D01*
X71570Y-43170D01*
X71310Y-43170D01*
X71310Y-43177D01*
X71190Y-43177D01*
X71190Y-43170D01*
X71190Y-43050D01*
X71190Y-42725D01*
X71130Y-42665D01*
X71062Y-42664D01*
X71000Y-42690D01*
X70937Y-42664D01*
X70870Y-42665D01*
X70810Y-42725D01*
X70810Y-43050D01*
X70930Y-43050D01*
X71070Y-43050D01*
X71190Y-43050D01*
X71190Y-43170D01*
X71070Y-43170D01*
X70930Y-43170D01*
X70810Y-43170D01*
X70810Y-43177D01*
X70690Y-43177D01*
X70690Y-43170D01*
X70690Y-43050D01*
X70690Y-42725D01*
X70630Y-42665D01*
X70562Y-42664D01*
X70500Y-42690D01*
X70437Y-42664D01*
X70370Y-42665D01*
X70310Y-42725D01*
X70310Y-43050D01*
X70430Y-43050D01*
X70570Y-43050D01*
X70690Y-43050D01*
X70690Y-43170D01*
X70570Y-43170D01*
X70430Y-43170D01*
X70310Y-43170D01*
X70310Y-43177D01*
X70190Y-43177D01*
X70190Y-43170D01*
X70190Y-43050D01*
X70190Y-42725D01*
X70130Y-42665D01*
X70062Y-42664D01*
X70000Y-42690D01*
X69937Y-42664D01*
X69870Y-42665D01*
X69810Y-42725D01*
X69810Y-43050D01*
X69930Y-43050D01*
X70070Y-43050D01*
X70190Y-43050D01*
X70190Y-43170D01*
X70070Y-43170D01*
X69930Y-43170D01*
X69810Y-43170D01*
X69810Y-43177D01*
X69690Y-43177D01*
X69690Y-43170D01*
X69690Y-43050D01*
X69690Y-42725D01*
X69630Y-42665D01*
X69562Y-42664D01*
X69474Y-42701D01*
X69406Y-42768D01*
X69370Y-42857D01*
X69369Y-42952D01*
X69370Y-42990D01*
X69430Y-43050D01*
X69690Y-43050D01*
X69690Y-43170D01*
X69430Y-43170D01*
X69370Y-43230D01*
X69369Y-43267D01*
X69370Y-43327D01*
X67669Y-43327D01*
X67610Y-43267D01*
X67494Y-43219D01*
X67369Y-43219D01*
X67365Y-43221D01*
X64227Y-43221D01*
X64127Y-43240D01*
X64071Y-43278D01*
X61630Y-43278D01*
X61630Y-43267D01*
X61630Y-42952D01*
X61629Y-42857D01*
X61593Y-42768D01*
X61525Y-42701D01*
X61437Y-42664D01*
X61370Y-42665D01*
X61310Y-42725D01*
X61310Y-43050D01*
X61570Y-43050D01*
X61630Y-42990D01*
X61630Y-42952D01*
X61630Y-43267D01*
X61630Y-43230D01*
X61570Y-43170D01*
X61310Y-43170D01*
X61310Y-43177D01*
X61190Y-43177D01*
X61190Y-43170D01*
X61190Y-43050D01*
X61190Y-42725D01*
X61130Y-42665D01*
X61062Y-42664D01*
X61000Y-42690D01*
X60937Y-42664D01*
X60870Y-42665D01*
X60810Y-42725D01*
X60810Y-43050D01*
X60930Y-43050D01*
X61070Y-43050D01*
X61190Y-43050D01*
X61190Y-43170D01*
X61070Y-43170D01*
X60930Y-43170D01*
X60810Y-43170D01*
X60810Y-43177D01*
X60690Y-43177D01*
X60690Y-43170D01*
X60690Y-43050D01*
X60690Y-42725D01*
X60630Y-42665D01*
X60562Y-42664D01*
X60500Y-42690D01*
X60437Y-42664D01*
X60370Y-42665D01*
X60310Y-42725D01*
X60310Y-43050D01*
X60430Y-43050D01*
X60570Y-43050D01*
X60690Y-43050D01*
X60690Y-43170D01*
X60570Y-43170D01*
X60430Y-43170D01*
X60310Y-43170D01*
X60310Y-43177D01*
X60190Y-43177D01*
X60190Y-43170D01*
X60190Y-43050D01*
X60190Y-42725D01*
X60130Y-42665D01*
X60062Y-42664D01*
X60000Y-42690D01*
X59937Y-42664D01*
X59870Y-42665D01*
X59810Y-42725D01*
X59810Y-43050D01*
X59930Y-43050D01*
X60070Y-43050D01*
X60190Y-43050D01*
X60190Y-43170D01*
X60070Y-43170D01*
X59930Y-43170D01*
X59810Y-43170D01*
X59810Y-43177D01*
X59690Y-43177D01*
X59690Y-43170D01*
X59690Y-43050D01*
X59690Y-42725D01*
X59630Y-42665D01*
X59562Y-42664D01*
X59474Y-42701D01*
X59406Y-42768D01*
X59370Y-42857D01*
X59369Y-42952D01*
X59370Y-42990D01*
X59430Y-43050D01*
X59690Y-43050D01*
X59690Y-43170D01*
X59430Y-43170D01*
X59370Y-43230D01*
X59369Y-43267D01*
X59369Y-43278D01*
X56415Y-43278D01*
X55733Y-42595D01*
X55649Y-42539D01*
X55549Y-42519D01*
X51150Y-42519D01*
X51051Y-42539D01*
X50966Y-42595D01*
X49438Y-44124D01*
X49382Y-44208D01*
X49362Y-44308D01*
X49362Y-44490D01*
X49249Y-44377D01*
X49087Y-44310D01*
X48912Y-44309D01*
X48751Y-44376D01*
X48627Y-44500D01*
X48560Y-44662D01*
X48559Y-44837D01*
X48626Y-44998D01*
X48750Y-45122D01*
X48912Y-45189D01*
X49087Y-45190D01*
X49248Y-45123D01*
X49362Y-45009D01*
X49362Y-45019D01*
X49072Y-45310D01*
X48912Y-45309D01*
X48751Y-45376D01*
X48627Y-45500D01*
X48560Y-45662D01*
X48559Y-45837D01*
X48626Y-45998D01*
X48750Y-46122D01*
X48912Y-46189D01*
X49087Y-46190D01*
X49248Y-46123D01*
X49372Y-45999D01*
X49439Y-45837D01*
X49440Y-45677D01*
X49806Y-45311D01*
X49862Y-45227D01*
X49882Y-45127D01*
X49882Y-44415D01*
X49917Y-44380D01*
X49918Y-44394D01*
X49971Y-44523D01*
X50063Y-44551D01*
X50365Y-44250D01*
X50359Y-44244D01*
X50444Y-44159D01*
X50450Y-44165D01*
X50751Y-43863D01*
X50723Y-43771D01*
X50575Y-43722D01*
X51258Y-43039D01*
X52637Y-43039D01*
X52627Y-43050D01*
X52560Y-43212D01*
X52559Y-43387D01*
X52626Y-43548D01*
X52750Y-43672D01*
X52912Y-43739D01*
X53087Y-43740D01*
X53248Y-43673D01*
X53372Y-43549D01*
X53439Y-43387D01*
X53440Y-43212D01*
X53373Y-43051D01*
X53362Y-43039D01*
X55441Y-43039D01*
X56106Y-43704D01*
X54382Y-43704D01*
X54282Y-43724D01*
X54254Y-43743D01*
X54198Y-43780D01*
X53399Y-44579D01*
X53342Y-44579D01*
X53372Y-44549D01*
X53439Y-44387D01*
X53440Y-44212D01*
X53373Y-44051D01*
X53249Y-43927D01*
X53087Y-43860D01*
X52912Y-43859D01*
X52751Y-43926D01*
X52627Y-44050D01*
X52560Y-44212D01*
X52559Y-44387D01*
X52626Y-44548D01*
X52657Y-44579D01*
X51855Y-44579D01*
X51823Y-44501D01*
X51699Y-44377D01*
X51537Y-44310D01*
X51362Y-44309D01*
X51201Y-44376D01*
X51077Y-44500D01*
X51010Y-44662D01*
X51009Y-44837D01*
X51076Y-44998D01*
X51200Y-45122D01*
X51362Y-45189D01*
X51537Y-45190D01*
X51698Y-45123D01*
X51722Y-45099D01*
X53506Y-45099D01*
X53606Y-45080D01*
X53690Y-45023D01*
X54489Y-44224D01*
X59399Y-44224D01*
X59342Y-44262D01*
X58747Y-44857D01*
X58708Y-44916D01*
X58694Y-44985D01*
X58694Y-47130D01*
X58708Y-47199D01*
X58732Y-47235D01*
X57690Y-46192D01*
X57605Y-46136D01*
X57506Y-46116D01*
X51823Y-46116D01*
X51724Y-46136D01*
X51639Y-46192D01*
X51522Y-46310D01*
X51507Y-46310D01*
X51633Y-46183D01*
X51664Y-46137D01*
X51698Y-46123D01*
X51822Y-45999D01*
X51889Y-45837D01*
X51890Y-45662D01*
X51823Y-45501D01*
X51699Y-45377D01*
X51537Y-45310D01*
X51362Y-45309D01*
X51201Y-45376D01*
X51077Y-45500D01*
X51010Y-45662D01*
X51009Y-45837D01*
X51076Y-45998D01*
X51080Y-46002D01*
X50996Y-46086D01*
X50996Y-45319D01*
X50996Y-44319D01*
X50981Y-44105D01*
X50928Y-43976D01*
X50836Y-43948D01*
X50534Y-44250D01*
X50836Y-44551D01*
X50928Y-44523D01*
X50996Y-44319D01*
X50996Y-45319D01*
X50981Y-45105D01*
X50928Y-44976D01*
X50836Y-44948D01*
X50751Y-45032D01*
X50751Y-44863D01*
X50723Y-44771D01*
X50664Y-44752D01*
X50723Y-44728D01*
X50751Y-44636D01*
X50450Y-44334D01*
X50148Y-44636D01*
X50176Y-44728D01*
X50235Y-44747D01*
X50176Y-44771D01*
X50148Y-44863D01*
X50450Y-45165D01*
X50751Y-44863D01*
X50751Y-45032D01*
X50534Y-45250D01*
X50836Y-45551D01*
X50928Y-45523D01*
X50996Y-45319D01*
X50996Y-46086D01*
X50890Y-46192D01*
X50890Y-46162D01*
X50823Y-46001D01*
X50751Y-45929D01*
X50751Y-45636D01*
X50450Y-45334D01*
X50365Y-45419D01*
X50365Y-45250D01*
X50063Y-44948D01*
X49971Y-44976D01*
X49903Y-45180D01*
X49918Y-45394D01*
X49971Y-45523D01*
X50063Y-45551D01*
X50365Y-45250D01*
X50365Y-45419D01*
X50148Y-45636D01*
X50176Y-45728D01*
X50380Y-45796D01*
X50594Y-45781D01*
X50723Y-45728D01*
X50751Y-45636D01*
X50751Y-45929D01*
X50699Y-45877D01*
X50537Y-45810D01*
X50362Y-45809D01*
X50201Y-45876D01*
X50077Y-46000D01*
X50010Y-46162D01*
X50009Y-46337D01*
X50076Y-46498D01*
X50200Y-46622D01*
X50362Y-46689D01*
X50537Y-46690D01*
X50665Y-46636D01*
X50665Y-46863D01*
X50537Y-46810D01*
X50362Y-46809D01*
X50201Y-46876D01*
X50077Y-47000D01*
X50012Y-47156D01*
X50012Y-47087D01*
X49964Y-46972D01*
X49875Y-46883D01*
X49760Y-46835D01*
X49634Y-46835D01*
X49519Y-46883D01*
X49430Y-46971D01*
X49382Y-47087D01*
X49382Y-47212D01*
X49430Y-47328D01*
X49504Y-47402D01*
X49513Y-47416D01*
X49586Y-47490D01*
X49362Y-47490D01*
X49249Y-47377D01*
X49087Y-47310D01*
X49043Y-47310D01*
X49183Y-47169D01*
X49183Y-47169D01*
X49201Y-47142D01*
X49201Y-47142D01*
X49248Y-47123D01*
X49372Y-46999D01*
X49439Y-46837D01*
X49440Y-46662D01*
X49373Y-46501D01*
X49249Y-46377D01*
X49087Y-46310D01*
X48912Y-46309D01*
X48751Y-46376D01*
X48627Y-46500D01*
X48560Y-46662D01*
X48559Y-46837D01*
X48624Y-46993D01*
X48546Y-47071D01*
X48546Y-45319D01*
X48546Y-44319D01*
X48531Y-44105D01*
X48478Y-43976D01*
X48386Y-43948D01*
X48301Y-44032D01*
X48301Y-43863D01*
X48273Y-43771D01*
X48069Y-43703D01*
X47855Y-43718D01*
X47726Y-43771D01*
X47698Y-43863D01*
X48000Y-44165D01*
X48301Y-43863D01*
X48301Y-44032D01*
X48084Y-44250D01*
X48386Y-44551D01*
X48478Y-44523D01*
X48546Y-44319D01*
X48546Y-45319D01*
X48531Y-45105D01*
X48478Y-44976D01*
X48386Y-44948D01*
X48301Y-45032D01*
X48301Y-44863D01*
X48273Y-44771D01*
X48214Y-44752D01*
X48273Y-44728D01*
X48301Y-44636D01*
X48000Y-44334D01*
X47915Y-44419D01*
X47915Y-44250D01*
X47613Y-43948D01*
X47521Y-43976D01*
X47453Y-44180D01*
X47468Y-44394D01*
X47521Y-44523D01*
X47613Y-44551D01*
X47915Y-44250D01*
X47915Y-44419D01*
X47698Y-44636D01*
X47726Y-44728D01*
X47785Y-44747D01*
X47726Y-44771D01*
X47698Y-44863D01*
X48000Y-45165D01*
X48301Y-44863D01*
X48301Y-45032D01*
X48084Y-45250D01*
X48386Y-45551D01*
X48478Y-45523D01*
X48546Y-45319D01*
X48546Y-47071D01*
X48440Y-47177D01*
X48440Y-47162D01*
X48440Y-46162D01*
X48373Y-46001D01*
X48301Y-45929D01*
X48301Y-45636D01*
X48000Y-45334D01*
X47915Y-45419D01*
X47915Y-45250D01*
X47613Y-44948D01*
X47521Y-44976D01*
X47453Y-45180D01*
X47468Y-45394D01*
X47521Y-45523D01*
X47613Y-45551D01*
X47915Y-45250D01*
X47915Y-45419D01*
X47698Y-45636D01*
X47726Y-45728D01*
X47930Y-45796D01*
X48144Y-45781D01*
X48273Y-45728D01*
X48301Y-45636D01*
X48301Y-45929D01*
X48249Y-45877D01*
X48087Y-45810D01*
X47912Y-45809D01*
X47751Y-45876D01*
X47627Y-46000D01*
X47560Y-46162D01*
X47559Y-46337D01*
X47626Y-46498D01*
X47750Y-46622D01*
X47912Y-46689D01*
X48087Y-46690D01*
X48248Y-46623D01*
X48372Y-46499D01*
X48439Y-46337D01*
X48440Y-46162D01*
X48440Y-47162D01*
X48373Y-47001D01*
X48249Y-46877D01*
X48087Y-46810D01*
X47912Y-46809D01*
X47751Y-46876D01*
X47627Y-47000D01*
X47560Y-47162D01*
X47559Y-47337D01*
X47626Y-47498D01*
X47750Y-47622D01*
X47912Y-47689D01*
X48087Y-47690D01*
X48216Y-47636D01*
X48216Y-47963D01*
X48235Y-48062D01*
X48292Y-48146D01*
X49827Y-49681D01*
X49827Y-49681D01*
X49883Y-49719D01*
X49911Y-49738D01*
X49911Y-49738D01*
X49958Y-49747D01*
X49724Y-49981D01*
X49585Y-50317D01*
X49584Y-50681D01*
X49723Y-51017D01*
X49981Y-51275D01*
X50124Y-51335D01*
X46840Y-51335D01*
X46840Y-48612D01*
X46840Y-47612D01*
X46840Y-44212D01*
X46840Y-43212D01*
X46840Y-38612D01*
X46840Y-37612D01*
X46840Y-34212D01*
X46840Y-33212D01*
X46773Y-33051D01*
X46649Y-32927D01*
X46487Y-32860D01*
X46312Y-32859D01*
X46151Y-32926D01*
X46027Y-33050D01*
X45960Y-33212D01*
X45959Y-33387D01*
X46026Y-33548D01*
X46150Y-33672D01*
X46312Y-33739D01*
X46487Y-33740D01*
X46648Y-33673D01*
X46772Y-33549D01*
X46839Y-33387D01*
X46840Y-33212D01*
X46840Y-34212D01*
X46773Y-34051D01*
X46649Y-33927D01*
X46487Y-33860D01*
X46312Y-33859D01*
X46151Y-33926D01*
X46027Y-34050D01*
X45960Y-34212D01*
X45959Y-34387D01*
X46026Y-34548D01*
X46150Y-34672D01*
X46312Y-34739D01*
X46487Y-34740D01*
X46648Y-34673D01*
X46772Y-34549D01*
X46839Y-34387D01*
X46840Y-34212D01*
X46840Y-37612D01*
X46773Y-37451D01*
X46649Y-37327D01*
X46487Y-37260D01*
X46312Y-37259D01*
X46151Y-37326D01*
X46027Y-37450D01*
X45960Y-37612D01*
X45959Y-37787D01*
X46026Y-37948D01*
X46150Y-38072D01*
X46312Y-38139D01*
X46487Y-38140D01*
X46648Y-38073D01*
X46772Y-37949D01*
X46839Y-37787D01*
X46840Y-37612D01*
X46840Y-38612D01*
X46773Y-38451D01*
X46649Y-38327D01*
X46487Y-38260D01*
X46312Y-38259D01*
X46151Y-38326D01*
X46027Y-38450D01*
X45960Y-38612D01*
X45959Y-38787D01*
X46026Y-38948D01*
X46150Y-39072D01*
X46312Y-39139D01*
X46487Y-39140D01*
X46648Y-39073D01*
X46772Y-38949D01*
X46839Y-38787D01*
X46840Y-38612D01*
X46840Y-43212D01*
X46773Y-43051D01*
X46649Y-42927D01*
X46487Y-42860D01*
X46312Y-42859D01*
X46151Y-42926D01*
X46027Y-43050D01*
X45960Y-43212D01*
X45959Y-43387D01*
X46026Y-43548D01*
X46150Y-43672D01*
X46312Y-43739D01*
X46487Y-43740D01*
X46648Y-43673D01*
X46772Y-43549D01*
X46839Y-43387D01*
X46840Y-43212D01*
X46840Y-44212D01*
X46773Y-44051D01*
X46649Y-43927D01*
X46487Y-43860D01*
X46312Y-43859D01*
X46151Y-43926D01*
X46027Y-44050D01*
X45960Y-44212D01*
X45959Y-44387D01*
X46026Y-44548D01*
X46150Y-44672D01*
X46312Y-44739D01*
X46487Y-44740D01*
X46648Y-44673D01*
X46772Y-44549D01*
X46839Y-44387D01*
X46840Y-44212D01*
X46840Y-47612D01*
X46773Y-47451D01*
X46649Y-47327D01*
X46487Y-47260D01*
X46312Y-47259D01*
X46151Y-47326D01*
X46027Y-47450D01*
X45960Y-47612D01*
X45959Y-47787D01*
X46026Y-47948D01*
X46150Y-48072D01*
X46312Y-48139D01*
X46487Y-48140D01*
X46648Y-48073D01*
X46772Y-47949D01*
X46839Y-47787D01*
X46840Y-47612D01*
X46840Y-48612D01*
X46773Y-48451D01*
X46649Y-48327D01*
X46487Y-48260D01*
X46312Y-48259D01*
X46151Y-48326D01*
X46027Y-48450D01*
X45960Y-48612D01*
X45959Y-48787D01*
X46026Y-48948D01*
X46150Y-49072D01*
X46312Y-49139D01*
X46487Y-49140D01*
X46648Y-49073D01*
X46772Y-48949D01*
X46839Y-48787D01*
X46840Y-48612D01*
X46840Y-51335D01*
X45640Y-51335D01*
X45640Y-48323D01*
X45640Y-43323D01*
X45640Y-38323D01*
X45640Y-33323D01*
X45504Y-32996D01*
X45254Y-32745D01*
X44927Y-32610D01*
X44573Y-32609D01*
X44246Y-32745D01*
X43995Y-32995D01*
X43860Y-33322D01*
X43859Y-33676D01*
X43995Y-34003D01*
X44245Y-34254D01*
X44572Y-34389D01*
X44926Y-34390D01*
X45253Y-34254D01*
X45504Y-34004D01*
X45639Y-33677D01*
X45640Y-33323D01*
X45640Y-38323D01*
X45504Y-37996D01*
X45254Y-37745D01*
X44927Y-37610D01*
X44573Y-37609D01*
X44246Y-37745D01*
X43995Y-37995D01*
X43860Y-38322D01*
X43859Y-38676D01*
X43995Y-39003D01*
X44245Y-39254D01*
X44572Y-39389D01*
X44926Y-39390D01*
X45253Y-39254D01*
X45504Y-39004D01*
X45639Y-38677D01*
X45640Y-38323D01*
X45640Y-43323D01*
X45504Y-42996D01*
X45254Y-42745D01*
X44927Y-42610D01*
X44573Y-42609D01*
X44246Y-42745D01*
X43995Y-42995D01*
X43860Y-43322D01*
X43859Y-43676D01*
X43995Y-44003D01*
X44245Y-44254D01*
X44572Y-44389D01*
X44926Y-44390D01*
X45253Y-44254D01*
X45504Y-44004D01*
X45639Y-43677D01*
X45640Y-43323D01*
X45640Y-48323D01*
X45504Y-47996D01*
X45254Y-47745D01*
X44927Y-47610D01*
X44573Y-47609D01*
X44246Y-47745D01*
X43995Y-47995D01*
X43860Y-48322D01*
X43859Y-48676D01*
X43995Y-49003D01*
X44245Y-49254D01*
X44572Y-49389D01*
X44926Y-49390D01*
X45253Y-49254D01*
X45504Y-49004D01*
X45639Y-48677D01*
X45640Y-48323D01*
X45640Y-51335D01*
X43665Y-51335D01*
X43665Y-30665D01*
X50624Y-30665D01*
X50482Y-30723D01*
X50224Y-30981D01*
X50085Y-31317D01*
X50084Y-31681D01*
X50223Y-32017D01*
X50481Y-32275D01*
X50817Y-32414D01*
X51181Y-32415D01*
X51517Y-32276D01*
X51775Y-32018D01*
X51914Y-31682D01*
X51915Y-31318D01*
X51776Y-30982D01*
X51518Y-30724D01*
X51375Y-30665D01*
X80124Y-30665D01*
X79982Y-30723D01*
X79724Y-30981D01*
X79585Y-31317D01*
X79584Y-31681D01*
X79723Y-32017D01*
X79981Y-32275D01*
X80317Y-32414D01*
X80681Y-32415D01*
X81017Y-32276D01*
X81275Y-32018D01*
X81414Y-31682D01*
X81415Y-31318D01*
X81276Y-30982D01*
X81018Y-30724D01*
X80875Y-30665D01*
X89335Y-30665D01*
X89335Y-51335D01*
M02*
