G04 (created by PCBNEW (2013-jul-07)-stable) date Wed 06 Aug 2014 01:53:19 PM EDT*
%MOIN*%
G04 Gerber Fmt 3.4, Leading zero omitted, Abs format*
%FSLAX34Y34*%
G01*
G70*
G90*
G04 APERTURE LIST*
%ADD10C,0.00590551*%
%ADD11C,0.009*%
%ADD12C,0.155*%
%ADD13O,0.06X0.1*%
%ADD14C,0.06*%
%ADD15C,0.076*%
%ADD16C,0.14*%
%ADD17C,0.16*%
%ADD18R,0.05X0.1*%
%ADD19R,0.1X0.05*%
%ADD20R,0.015X0.05*%
%ADD21C,0.15*%
%ADD22C,0.035*%
%ADD23C,0.036*%
%ADD24C,0.008*%
%ADD25C,0.024*%
%ADD26C,0.016*%
G04 APERTURE END LIST*
G54D10*
G54D11*
X89500Y-51500D02*
X43500Y-51500D01*
X43500Y-30500D02*
X89500Y-30500D01*
X43500Y-30500D02*
X43500Y-51500D01*
X89500Y-51500D02*
X89500Y-30500D01*
G54D12*
X50500Y-50500D03*
X51000Y-31500D03*
X83000Y-50500D03*
X80500Y-31500D03*
G54D13*
X56000Y-50500D03*
X57000Y-50500D03*
X58000Y-50500D03*
X59000Y-50500D03*
X60000Y-50500D03*
X61000Y-50500D03*
X62000Y-50500D03*
X63000Y-50500D03*
X65000Y-50500D03*
X66000Y-50500D03*
X67000Y-50500D03*
X68000Y-50500D03*
X69000Y-50500D03*
X70000Y-50500D03*
X71000Y-50500D03*
X72000Y-50500D03*
X74000Y-50500D03*
X75000Y-50500D03*
X76000Y-50500D03*
X77000Y-50500D03*
X78000Y-50500D03*
X79000Y-50500D03*
X80000Y-50500D03*
X81000Y-50500D03*
X52400Y-31500D03*
X53400Y-31500D03*
X54400Y-31500D03*
X55400Y-31500D03*
X56400Y-31500D03*
X57400Y-31500D03*
X58400Y-31500D03*
X59400Y-31500D03*
X60400Y-31500D03*
X61400Y-31500D03*
X63000Y-31500D03*
X70000Y-31500D03*
X69000Y-31500D03*
X68000Y-31500D03*
X67000Y-31500D03*
X66000Y-31500D03*
X65000Y-31500D03*
X64000Y-31500D03*
X72000Y-31500D03*
X73000Y-31500D03*
X74000Y-31500D03*
X75000Y-31500D03*
X76000Y-31500D03*
X77000Y-31500D03*
X78000Y-31500D03*
X79000Y-31500D03*
G54D14*
X82000Y-31500D03*
X83000Y-31500D03*
X82000Y-32500D03*
X83000Y-32500D03*
X82000Y-33500D03*
X83000Y-33500D03*
X82000Y-34500D03*
X83000Y-34500D03*
X82000Y-35500D03*
X83000Y-35500D03*
X82000Y-36500D03*
X83000Y-36500D03*
X82000Y-37500D03*
X83000Y-37500D03*
X82000Y-38500D03*
X83000Y-38500D03*
X82000Y-39500D03*
X83000Y-39500D03*
X82000Y-40500D03*
X83000Y-40500D03*
X82000Y-41500D03*
X83000Y-41500D03*
X82000Y-42500D03*
X83000Y-42500D03*
X82000Y-43500D03*
X83000Y-43500D03*
X82000Y-44500D03*
X83000Y-44500D03*
X82000Y-45500D03*
X83000Y-45500D03*
X82000Y-46500D03*
X83000Y-46500D03*
X82000Y-47500D03*
X83000Y-47500D03*
X82000Y-48500D03*
X83000Y-48500D03*
G54D15*
X88320Y-41000D03*
G54D16*
X87140Y-41000D03*
G54D17*
X84780Y-41000D03*
G54D16*
X87530Y-39230D03*
X87530Y-42770D03*
G54D18*
X84650Y-43250D03*
X85850Y-43250D03*
G54D19*
X70000Y-34150D03*
X70000Y-35350D03*
X70000Y-42900D03*
X70000Y-44100D03*
G54D20*
X65750Y-36750D03*
X66250Y-36750D03*
X66750Y-36750D03*
X67250Y-36750D03*
X67750Y-36750D03*
X68250Y-36750D03*
X65250Y-36750D03*
X64750Y-36750D03*
X64250Y-36750D03*
X63750Y-36750D03*
X63250Y-36750D03*
X62750Y-36750D03*
X62750Y-32750D03*
X63250Y-32750D03*
X63750Y-32750D03*
X64250Y-32750D03*
X64750Y-32750D03*
X65250Y-32750D03*
X65750Y-32750D03*
X66250Y-32750D03*
X66750Y-32750D03*
X67250Y-32750D03*
X67750Y-32750D03*
X68250Y-32750D03*
G54D21*
X44750Y-33500D03*
X44750Y-38500D03*
G54D14*
X46400Y-33300D03*
X46400Y-34300D03*
X46400Y-37700D03*
X46400Y-38700D03*
X48000Y-34250D03*
X48000Y-35250D03*
X48000Y-36250D03*
X48000Y-37250D03*
X49000Y-34750D03*
X49000Y-35750D03*
X49000Y-36750D03*
X49000Y-37750D03*
X50450Y-34250D03*
X50450Y-35250D03*
X51450Y-34750D03*
X51450Y-35750D03*
X50450Y-36250D03*
X51450Y-36750D03*
X50450Y-37250D03*
X51450Y-37750D03*
X53000Y-33300D03*
X53000Y-34300D03*
X53000Y-37700D03*
X53000Y-38700D03*
G54D21*
X44750Y-43500D03*
X44750Y-48500D03*
G54D14*
X46400Y-43300D03*
X46400Y-44300D03*
X46400Y-47700D03*
X46400Y-48700D03*
X48000Y-44250D03*
X48000Y-45250D03*
X48000Y-46250D03*
X48000Y-47250D03*
X49000Y-44750D03*
X49000Y-45750D03*
X49000Y-46750D03*
X49000Y-47750D03*
X50450Y-44250D03*
X50450Y-45250D03*
X51450Y-44750D03*
X51450Y-45750D03*
X50450Y-46250D03*
X51450Y-46750D03*
X50450Y-47250D03*
X51450Y-47750D03*
X53000Y-43300D03*
X53000Y-44300D03*
X53000Y-47700D03*
X53000Y-48700D03*
G54D20*
X65750Y-45500D03*
X66250Y-45500D03*
X66750Y-45500D03*
X67250Y-45500D03*
X67750Y-45500D03*
X68250Y-45500D03*
X65250Y-45500D03*
X64750Y-45500D03*
X64250Y-45500D03*
X63750Y-45500D03*
X63250Y-45500D03*
X62750Y-45500D03*
X62750Y-41500D03*
X63250Y-41500D03*
X63750Y-41500D03*
X64250Y-41500D03*
X64750Y-41500D03*
X65250Y-41500D03*
X65750Y-41500D03*
X66250Y-41500D03*
X66750Y-41500D03*
X67250Y-41500D03*
X67750Y-41500D03*
X68250Y-41500D03*
G54D22*
X67750Y-33467D03*
X65841Y-38298D03*
X63749Y-36215D03*
X66256Y-42645D03*
X66750Y-33288D03*
X69029Y-35034D03*
X67728Y-47639D03*
X66222Y-47665D03*
X64305Y-46175D03*
X63175Y-46529D03*
X68542Y-38662D03*
X66323Y-37645D03*
X64130Y-37280D03*
X63187Y-37909D03*
X66750Y-43575D03*
X67237Y-44079D03*
X73500Y-42250D03*
X76000Y-40250D03*
X71859Y-41884D03*
X65062Y-42029D03*
X53434Y-34781D03*
G54D23*
X67750Y-32750D02*
X67750Y-33280D01*
X70000Y-34150D02*
X69219Y-34150D01*
X63250Y-45762D02*
X63250Y-45500D01*
X60000Y-49012D02*
X63250Y-45762D01*
X60000Y-50500D02*
X60000Y-49012D01*
X67750Y-33280D02*
X67750Y-33467D01*
X68432Y-34150D02*
X69219Y-34150D01*
X67750Y-33467D02*
X68432Y-34150D01*
X67750Y-41500D02*
X67750Y-42030D01*
X70000Y-42900D02*
X70000Y-42369D01*
X63250Y-45500D02*
X63250Y-44969D01*
X63673Y-44546D02*
X63250Y-44969D01*
X67416Y-44546D02*
X63673Y-44546D01*
X68089Y-43873D02*
X67416Y-44546D01*
X68089Y-42369D02*
X68089Y-43873D01*
X67750Y-42030D02*
X68089Y-42369D01*
X68089Y-42369D02*
X68613Y-42369D01*
X68613Y-42369D02*
X70000Y-42369D01*
X68613Y-41070D02*
X65841Y-38298D01*
X68613Y-42369D02*
X68613Y-41070D01*
X63744Y-36219D02*
X63749Y-36215D01*
X63250Y-36219D02*
X63744Y-36219D01*
X63250Y-36750D02*
X63250Y-36219D01*
G54D24*
X68250Y-36750D02*
X68250Y-37140D01*
X69551Y-45500D02*
X72174Y-42877D01*
X68250Y-45500D02*
X69551Y-45500D01*
X72174Y-41064D02*
X72174Y-42877D01*
X68250Y-37140D02*
X72174Y-41064D01*
X83651Y-46151D02*
X83000Y-45500D01*
X83651Y-48478D02*
X83651Y-46151D01*
X82988Y-49141D02*
X83651Y-48478D01*
X78439Y-49141D02*
X82988Y-49141D01*
X72174Y-42877D02*
X78439Y-49141D01*
X67750Y-45500D02*
X67750Y-45890D01*
X67750Y-36750D02*
X67750Y-36359D01*
X82559Y-45317D02*
X82559Y-45500D01*
X82817Y-45059D02*
X82559Y-45317D01*
X83186Y-45059D02*
X82817Y-45059D01*
X83837Y-45711D02*
X83186Y-45059D01*
X83837Y-48548D02*
X83837Y-45711D01*
X83062Y-49323D02*
X83837Y-48548D01*
X71183Y-49323D02*
X83062Y-49323D01*
X67750Y-45890D02*
X71183Y-49323D01*
X68651Y-36359D02*
X67750Y-36359D01*
X81251Y-48959D02*
X68651Y-36359D01*
X82191Y-48959D02*
X81251Y-48959D01*
X82559Y-48591D02*
X82191Y-48959D01*
X82559Y-48317D02*
X82559Y-48591D01*
X82892Y-47985D02*
X82559Y-48317D01*
X83168Y-47985D02*
X82892Y-47985D01*
X83456Y-47697D02*
X83168Y-47985D01*
X83456Y-46302D02*
X83456Y-47697D01*
X83093Y-45940D02*
X83456Y-46302D01*
X82817Y-45940D02*
X83093Y-45940D01*
X82559Y-45682D02*
X82817Y-45940D01*
X82559Y-45500D02*
X82559Y-45682D01*
X82559Y-45500D02*
X82000Y-45500D01*
X64810Y-44091D02*
X66256Y-42645D01*
X63675Y-44091D02*
X64810Y-44091D01*
X62750Y-45017D02*
X63675Y-44091D01*
X62750Y-45500D02*
X62750Y-45017D01*
X82440Y-45940D02*
X83000Y-46500D01*
X81817Y-45940D02*
X82440Y-45940D01*
X81559Y-45682D02*
X81817Y-45940D01*
X81559Y-44206D02*
X81559Y-45682D01*
X69532Y-32179D02*
X81559Y-44206D01*
X63430Y-32179D02*
X69532Y-32179D01*
X63250Y-32359D02*
X63430Y-32179D01*
X63250Y-32750D02*
X63250Y-32359D01*
G54D25*
X66750Y-32750D02*
X66750Y-33288D01*
X67250Y-32750D02*
X67250Y-33220D01*
X68724Y-35034D02*
X69029Y-35034D01*
X67250Y-33559D02*
X68724Y-35034D01*
X67250Y-33220D02*
X67250Y-33559D01*
X67250Y-45500D02*
X67250Y-45970D01*
X67287Y-47198D02*
X67728Y-47639D01*
X63261Y-51224D02*
X67287Y-47198D01*
X53474Y-51224D02*
X63261Y-51224D01*
X49000Y-46750D02*
X53474Y-51224D01*
X67287Y-46007D02*
X67250Y-45970D01*
X67287Y-47198D02*
X67287Y-46007D01*
X66750Y-47137D02*
X66750Y-45500D01*
X66222Y-47665D02*
X66750Y-47137D01*
X64250Y-46119D02*
X64250Y-45500D01*
X64305Y-46175D02*
X64250Y-46119D01*
X63734Y-45970D02*
X63750Y-45970D01*
X63175Y-46529D02*
X63734Y-45970D01*
X63750Y-45500D02*
X63750Y-45970D01*
X56229Y-41970D02*
X63750Y-41970D01*
X51450Y-46750D02*
X56229Y-41970D01*
X63750Y-41500D02*
X63750Y-41970D01*
X63892Y-42328D02*
X64250Y-41970D01*
X56871Y-42328D02*
X63892Y-42328D01*
X51450Y-47750D02*
X56871Y-42328D01*
X64250Y-41500D02*
X64250Y-41970D01*
X67250Y-36750D02*
X67250Y-37220D01*
X68542Y-38512D02*
X68542Y-38662D01*
X67250Y-37220D02*
X68542Y-38512D01*
X66750Y-36750D02*
X66750Y-37220D01*
X66748Y-37220D02*
X66323Y-37645D01*
X66750Y-37220D02*
X66748Y-37220D01*
X64190Y-37220D02*
X64130Y-37280D01*
X64250Y-37220D02*
X64190Y-37220D01*
X64250Y-36750D02*
X64250Y-37220D01*
X63732Y-36767D02*
X63750Y-36750D01*
X63732Y-37363D02*
X63732Y-36767D01*
X63187Y-37909D02*
X63732Y-37363D01*
X60220Y-36750D02*
X63750Y-33220D01*
X51450Y-36750D02*
X60220Y-36750D01*
X63750Y-32750D02*
X63750Y-33220D01*
X64250Y-32750D02*
X64250Y-33220D01*
X60293Y-37176D02*
X64250Y-33220D01*
X52023Y-37176D02*
X60293Y-37176D01*
X51450Y-37750D02*
X52023Y-37176D01*
X66750Y-41500D02*
X66750Y-41970D01*
X66750Y-41970D02*
X66750Y-43575D01*
X67237Y-41982D02*
X67237Y-44079D01*
X67250Y-41970D02*
X67237Y-41982D01*
X67250Y-41500D02*
X67250Y-41970D01*
G54D24*
X67700Y-40914D02*
X66777Y-40914D01*
X68250Y-41464D02*
X67700Y-40914D01*
X68250Y-41500D02*
X68250Y-41464D01*
X58000Y-49500D02*
X58000Y-50500D01*
X63786Y-43714D02*
X58000Y-49500D01*
X64559Y-43714D02*
X63786Y-43714D01*
X66489Y-41784D02*
X64559Y-43714D01*
X66489Y-41201D02*
X66489Y-41784D01*
X66777Y-40914D02*
X66489Y-41201D01*
X69952Y-33140D02*
X68250Y-33140D01*
X70640Y-33827D02*
X69952Y-33140D01*
X70640Y-35672D02*
X70640Y-33827D01*
X70295Y-36017D02*
X70640Y-35672D01*
X66953Y-36017D02*
X70295Y-36017D01*
X66470Y-36501D02*
X66953Y-36017D01*
X66470Y-37052D02*
X66470Y-36501D01*
X65508Y-38014D02*
X66470Y-37052D01*
X65508Y-39645D02*
X65508Y-38014D01*
X66777Y-40914D02*
X65508Y-39645D01*
X68250Y-32750D02*
X68250Y-33140D01*
X62750Y-41500D02*
X62750Y-41109D01*
X62750Y-32750D02*
X62750Y-33140D01*
X64528Y-34192D02*
X64528Y-32359D01*
X62534Y-36186D02*
X64528Y-34192D01*
X62534Y-40894D02*
X62534Y-36186D01*
X62750Y-41109D02*
X62534Y-40894D01*
X63587Y-32359D02*
X64528Y-32359D01*
X63489Y-32457D02*
X63587Y-32359D01*
X63489Y-33048D02*
X63489Y-32457D01*
X63398Y-33140D02*
X63489Y-33048D01*
X62750Y-33140D02*
X63398Y-33140D01*
X70890Y-36390D02*
X82000Y-47500D01*
X70890Y-33822D02*
X70890Y-36390D01*
X69427Y-32359D02*
X70890Y-33822D01*
X64528Y-32359D02*
X69427Y-32359D01*
X62750Y-40609D02*
X63250Y-41109D01*
X62750Y-36750D02*
X62750Y-40609D01*
X63250Y-41500D02*
X63250Y-41109D01*
G54D26*
X65062Y-41930D02*
X65062Y-42029D01*
X85850Y-42290D02*
X87140Y-41000D01*
X85850Y-43250D02*
X85850Y-42290D01*
X66250Y-32750D02*
X65750Y-32750D01*
X65750Y-32750D02*
X65250Y-32750D01*
X65250Y-32750D02*
X64750Y-32750D01*
X65750Y-45500D02*
X65750Y-45446D01*
X65250Y-45500D02*
X65250Y-45486D01*
X65250Y-45446D02*
X65750Y-45446D01*
X65250Y-45486D02*
X65250Y-45446D01*
G54D23*
X50450Y-47250D02*
X50450Y-46250D01*
X50450Y-46250D02*
X50450Y-45250D01*
X48000Y-47250D02*
X48000Y-46250D01*
X48000Y-46250D02*
X48000Y-45250D01*
X50450Y-36250D02*
X50450Y-35250D01*
X48000Y-36250D02*
X48000Y-35250D01*
X48000Y-35250D02*
X48000Y-34250D01*
X48000Y-36250D02*
X48000Y-37250D01*
X50450Y-35250D02*
X50450Y-34250D01*
X50450Y-45250D02*
X50450Y-44250D01*
X50450Y-44250D02*
X50352Y-44152D01*
X48094Y-34155D02*
X48000Y-34250D01*
X50355Y-34155D02*
X48094Y-34155D01*
X50450Y-34250D02*
X50355Y-34155D01*
X53325Y-34890D02*
X53434Y-34781D01*
X52721Y-34890D02*
X53325Y-34890D01*
X51990Y-34160D02*
X52721Y-34890D01*
X50539Y-34160D02*
X51990Y-34160D01*
X50450Y-34250D02*
X50539Y-34160D01*
X48097Y-44152D02*
X48000Y-44250D01*
X50352Y-44152D02*
X48097Y-44152D01*
X48000Y-44250D02*
X48000Y-45250D01*
X84650Y-41130D02*
X84650Y-43250D01*
X84780Y-41000D02*
X84650Y-41130D01*
X50352Y-37347D02*
X50450Y-37250D01*
X50352Y-44152D02*
X50352Y-37347D01*
X50450Y-37250D02*
X50450Y-36250D01*
G54D10*
G36*
X80998Y-48961D02*
X78513Y-48961D01*
X72354Y-42802D01*
X72354Y-41064D01*
X72341Y-40995D01*
X72302Y-40937D01*
X68443Y-37079D01*
X68464Y-37027D01*
X68465Y-36972D01*
X68465Y-36539D01*
X68577Y-36539D01*
X80998Y-48961D01*
X80998Y-48961D01*
G37*
G54D24*
X80998Y-48961D02*
X78513Y-48961D01*
X72354Y-42802D01*
X72354Y-41064D01*
X72341Y-40995D01*
X72302Y-40937D01*
X68443Y-37079D01*
X68464Y-37027D01*
X68465Y-36972D01*
X68465Y-36539D01*
X68577Y-36539D01*
X80998Y-48961D01*
G54D10*
G36*
X83276Y-47153D02*
X83249Y-47127D01*
X83087Y-47060D01*
X82912Y-47059D01*
X82751Y-47126D01*
X82627Y-47250D01*
X82560Y-47412D01*
X82559Y-47587D01*
X82626Y-47748D01*
X82750Y-47872D01*
X82432Y-48190D01*
X82393Y-48248D01*
X82386Y-48283D01*
X82373Y-48251D01*
X82249Y-48127D01*
X82087Y-48060D01*
X81912Y-48059D01*
X81751Y-48126D01*
X81627Y-48250D01*
X81560Y-48412D01*
X81559Y-48587D01*
X81626Y-48748D01*
X81657Y-48779D01*
X81325Y-48779D01*
X68779Y-36232D01*
X68726Y-36197D01*
X70295Y-36197D01*
X70363Y-36184D01*
X70422Y-36145D01*
X70710Y-35857D01*
X70710Y-36390D01*
X70723Y-36459D01*
X70762Y-36517D01*
X81588Y-47343D01*
X81560Y-47412D01*
X81559Y-47587D01*
X81626Y-47748D01*
X81750Y-47872D01*
X81912Y-47939D01*
X82087Y-47940D01*
X82248Y-47873D01*
X82372Y-47749D01*
X82439Y-47587D01*
X82440Y-47412D01*
X82373Y-47251D01*
X82249Y-47127D01*
X82087Y-47060D01*
X81912Y-47059D01*
X81843Y-47088D01*
X71070Y-36315D01*
X71070Y-33971D01*
X81379Y-44281D01*
X81379Y-45682D01*
X81393Y-45751D01*
X81432Y-45809D01*
X81690Y-46067D01*
X81690Y-46067D01*
X81729Y-46093D01*
X81748Y-46106D01*
X81748Y-46106D01*
X81783Y-46113D01*
X81751Y-46126D01*
X81627Y-46250D01*
X81560Y-46412D01*
X81559Y-46587D01*
X81626Y-46748D01*
X81750Y-46872D01*
X81912Y-46939D01*
X82087Y-46940D01*
X82248Y-46873D01*
X82372Y-46749D01*
X82439Y-46587D01*
X82440Y-46412D01*
X82373Y-46251D01*
X82249Y-46127D01*
X82232Y-46120D01*
X82365Y-46120D01*
X82588Y-46343D01*
X82560Y-46412D01*
X82559Y-46587D01*
X82626Y-46748D01*
X82750Y-46872D01*
X82912Y-46939D01*
X83087Y-46940D01*
X83248Y-46873D01*
X83276Y-46846D01*
X83276Y-47153D01*
X83276Y-47153D01*
G37*
G54D24*
X83276Y-47153D02*
X83249Y-47127D01*
X83087Y-47060D01*
X82912Y-47059D01*
X82751Y-47126D01*
X82627Y-47250D01*
X82560Y-47412D01*
X82559Y-47587D01*
X82626Y-47748D01*
X82750Y-47872D01*
X82432Y-48190D01*
X82393Y-48248D01*
X82386Y-48283D01*
X82373Y-48251D01*
X82249Y-48127D01*
X82087Y-48060D01*
X81912Y-48059D01*
X81751Y-48126D01*
X81627Y-48250D01*
X81560Y-48412D01*
X81559Y-48587D01*
X81626Y-48748D01*
X81657Y-48779D01*
X81325Y-48779D01*
X68779Y-36232D01*
X68726Y-36197D01*
X70295Y-36197D01*
X70363Y-36184D01*
X70422Y-36145D01*
X70710Y-35857D01*
X70710Y-36390D01*
X70723Y-36459D01*
X70762Y-36517D01*
X81588Y-47343D01*
X81560Y-47412D01*
X81559Y-47587D01*
X81626Y-47748D01*
X81750Y-47872D01*
X81912Y-47939D01*
X82087Y-47940D01*
X82248Y-47873D01*
X82372Y-47749D01*
X82439Y-47587D01*
X82440Y-47412D01*
X82373Y-47251D01*
X82249Y-47127D01*
X82087Y-47060D01*
X81912Y-47059D01*
X81843Y-47088D01*
X71070Y-36315D01*
X71070Y-33971D01*
X81379Y-44281D01*
X81379Y-45682D01*
X81393Y-45751D01*
X81432Y-45809D01*
X81690Y-46067D01*
X81690Y-46067D01*
X81729Y-46093D01*
X81748Y-46106D01*
X81748Y-46106D01*
X81783Y-46113D01*
X81751Y-46126D01*
X81627Y-46250D01*
X81560Y-46412D01*
X81559Y-46587D01*
X81626Y-46748D01*
X81750Y-46872D01*
X81912Y-46939D01*
X82087Y-46940D01*
X82248Y-46873D01*
X82372Y-46749D01*
X82439Y-46587D01*
X82440Y-46412D01*
X82373Y-46251D01*
X82249Y-46127D01*
X82232Y-46120D01*
X82365Y-46120D01*
X82588Y-46343D01*
X82560Y-46412D01*
X82559Y-46587D01*
X82626Y-46748D01*
X82750Y-46872D01*
X82912Y-46939D01*
X83087Y-46940D01*
X83248Y-46873D01*
X83276Y-46846D01*
X83276Y-47153D01*
G54D10*
G36*
X89335Y-51335D02*
X88840Y-51335D01*
X88840Y-40897D01*
X88761Y-40705D01*
X88614Y-40559D01*
X88423Y-40480D01*
X88370Y-40480D01*
X88370Y-39063D01*
X88242Y-38754D01*
X88006Y-38518D01*
X87697Y-38390D01*
X87363Y-38389D01*
X87054Y-38517D01*
X86818Y-38753D01*
X86690Y-39062D01*
X86689Y-39396D01*
X86817Y-39705D01*
X87053Y-39941D01*
X87362Y-40069D01*
X87696Y-40070D01*
X88005Y-39942D01*
X88241Y-39706D01*
X88369Y-39397D01*
X88370Y-39063D01*
X88370Y-40480D01*
X88217Y-40479D01*
X88025Y-40558D01*
X87992Y-40591D01*
X87949Y-40486D01*
X87816Y-40408D01*
X87731Y-40493D01*
X87731Y-40323D01*
X87653Y-40190D01*
X87304Y-40055D01*
X86931Y-40064D01*
X86626Y-40190D01*
X86548Y-40323D01*
X87140Y-40915D01*
X87731Y-40323D01*
X87731Y-40493D01*
X87224Y-41000D01*
X87816Y-41591D01*
X87949Y-41513D01*
X87990Y-41406D01*
X88025Y-41440D01*
X88216Y-41519D01*
X88422Y-41520D01*
X88614Y-41441D01*
X88760Y-41294D01*
X88839Y-41103D01*
X88840Y-40897D01*
X88840Y-51335D01*
X88370Y-51335D01*
X88370Y-42603D01*
X88242Y-42294D01*
X88006Y-42058D01*
X87731Y-41944D01*
X87731Y-41676D01*
X87140Y-41084D01*
X87055Y-41169D01*
X87055Y-41000D01*
X86463Y-40408D01*
X86330Y-40486D01*
X86195Y-40835D01*
X86204Y-41208D01*
X86330Y-41513D01*
X86463Y-41591D01*
X87055Y-41000D01*
X87055Y-41169D01*
X86548Y-41676D01*
X86626Y-41809D01*
X86975Y-41944D01*
X87348Y-41935D01*
X87653Y-41809D01*
X87731Y-41676D01*
X87731Y-41944D01*
X87697Y-41930D01*
X87363Y-41929D01*
X87054Y-42057D01*
X86818Y-42293D01*
X86690Y-42602D01*
X86689Y-42936D01*
X86817Y-43245D01*
X87053Y-43481D01*
X87362Y-43609D01*
X87696Y-43610D01*
X88005Y-43482D01*
X88241Y-43246D01*
X88369Y-42937D01*
X88370Y-42603D01*
X88370Y-51335D01*
X86340Y-51335D01*
X86340Y-43702D01*
X86340Y-42797D01*
X86339Y-42702D01*
X86303Y-42613D01*
X86235Y-42546D01*
X86147Y-42509D01*
X85970Y-42510D01*
X85910Y-42570D01*
X85910Y-43190D01*
X86280Y-43190D01*
X86340Y-43130D01*
X86340Y-42797D01*
X86340Y-43702D01*
X86340Y-43370D01*
X86280Y-43310D01*
X85910Y-43310D01*
X85910Y-43930D01*
X85970Y-43990D01*
X86147Y-43990D01*
X86235Y-43953D01*
X86303Y-43886D01*
X86339Y-43797D01*
X86340Y-43702D01*
X86340Y-51335D01*
X85790Y-51335D01*
X85790Y-43930D01*
X85790Y-43310D01*
X85790Y-43190D01*
X85790Y-42570D01*
X85730Y-42510D01*
X85720Y-42509D01*
X85720Y-40813D01*
X85577Y-40468D01*
X85313Y-40203D01*
X84967Y-40060D01*
X84593Y-40059D01*
X84248Y-40202D01*
X83983Y-40466D01*
X83840Y-40812D01*
X83839Y-41186D01*
X83982Y-41531D01*
X84246Y-41796D01*
X84330Y-41830D01*
X84330Y-42627D01*
X84320Y-42631D01*
X84281Y-42670D01*
X84260Y-42722D01*
X84259Y-42777D01*
X84259Y-43777D01*
X84281Y-43829D01*
X84320Y-43868D01*
X84372Y-43889D01*
X84427Y-43890D01*
X84927Y-43890D01*
X84979Y-43868D01*
X85018Y-43829D01*
X85039Y-43777D01*
X85040Y-43722D01*
X85040Y-42722D01*
X85018Y-42670D01*
X84979Y-42631D01*
X84970Y-42627D01*
X84970Y-41938D01*
X85311Y-41797D01*
X85576Y-41533D01*
X85719Y-41187D01*
X85720Y-40813D01*
X85720Y-42509D01*
X85552Y-42509D01*
X85464Y-42546D01*
X85396Y-42613D01*
X85360Y-42702D01*
X85359Y-42797D01*
X85360Y-43130D01*
X85420Y-43190D01*
X85790Y-43190D01*
X85790Y-43310D01*
X85420Y-43310D01*
X85360Y-43370D01*
X85359Y-43702D01*
X85360Y-43797D01*
X85396Y-43886D01*
X85464Y-43953D01*
X85552Y-43990D01*
X85730Y-43990D01*
X85790Y-43930D01*
X85790Y-51335D01*
X83375Y-51335D01*
X83517Y-51276D01*
X83775Y-51018D01*
X83914Y-50682D01*
X83915Y-50318D01*
X83776Y-49982D01*
X83518Y-49724D01*
X83182Y-49585D01*
X82818Y-49584D01*
X82482Y-49723D01*
X82224Y-49981D01*
X82085Y-50317D01*
X82084Y-50681D01*
X82223Y-51017D01*
X82481Y-51275D01*
X82624Y-51335D01*
X81440Y-51335D01*
X81440Y-50712D01*
X81440Y-50287D01*
X81406Y-50119D01*
X81311Y-49976D01*
X81168Y-49880D01*
X81000Y-49847D01*
X80831Y-49880D01*
X80688Y-49976D01*
X80593Y-50119D01*
X80560Y-50287D01*
X80560Y-50712D01*
X80593Y-50880D01*
X80688Y-51023D01*
X80831Y-51119D01*
X81000Y-51152D01*
X81168Y-51119D01*
X81311Y-51023D01*
X81406Y-50880D01*
X81440Y-50712D01*
X81440Y-51335D01*
X80440Y-51335D01*
X80440Y-50712D01*
X80440Y-50287D01*
X80406Y-50119D01*
X80311Y-49976D01*
X80168Y-49880D01*
X80000Y-49847D01*
X79831Y-49880D01*
X79688Y-49976D01*
X79593Y-50119D01*
X79560Y-50287D01*
X79560Y-50712D01*
X79593Y-50880D01*
X79688Y-51023D01*
X79831Y-51119D01*
X80000Y-51152D01*
X80168Y-51119D01*
X80311Y-51023D01*
X80406Y-50880D01*
X80440Y-50712D01*
X80440Y-51335D01*
X79440Y-51335D01*
X79440Y-50712D01*
X79440Y-50287D01*
X79406Y-50119D01*
X79311Y-49976D01*
X79168Y-49880D01*
X79000Y-49847D01*
X78831Y-49880D01*
X78688Y-49976D01*
X78593Y-50119D01*
X78560Y-50287D01*
X78560Y-50712D01*
X78593Y-50880D01*
X78688Y-51023D01*
X78831Y-51119D01*
X79000Y-51152D01*
X79168Y-51119D01*
X79311Y-51023D01*
X79406Y-50880D01*
X79440Y-50712D01*
X79440Y-51335D01*
X78440Y-51335D01*
X78440Y-50712D01*
X78440Y-50287D01*
X78406Y-50119D01*
X78311Y-49976D01*
X78168Y-49880D01*
X78000Y-49847D01*
X77831Y-49880D01*
X77688Y-49976D01*
X77593Y-50119D01*
X77560Y-50287D01*
X77560Y-50712D01*
X77593Y-50880D01*
X77688Y-51023D01*
X77831Y-51119D01*
X78000Y-51152D01*
X78168Y-51119D01*
X78311Y-51023D01*
X78406Y-50880D01*
X78440Y-50712D01*
X78440Y-51335D01*
X77440Y-51335D01*
X77440Y-50712D01*
X77440Y-50287D01*
X77406Y-50119D01*
X77311Y-49976D01*
X77168Y-49880D01*
X77000Y-49847D01*
X76831Y-49880D01*
X76688Y-49976D01*
X76593Y-50119D01*
X76560Y-50287D01*
X76560Y-50712D01*
X76593Y-50880D01*
X76688Y-51023D01*
X76831Y-51119D01*
X77000Y-51152D01*
X77168Y-51119D01*
X77311Y-51023D01*
X77406Y-50880D01*
X77440Y-50712D01*
X77440Y-51335D01*
X76440Y-51335D01*
X76440Y-50712D01*
X76440Y-50287D01*
X76406Y-50119D01*
X76311Y-49976D01*
X76168Y-49880D01*
X76000Y-49847D01*
X75831Y-49880D01*
X75688Y-49976D01*
X75593Y-50119D01*
X75560Y-50287D01*
X75560Y-50712D01*
X75593Y-50880D01*
X75688Y-51023D01*
X75831Y-51119D01*
X76000Y-51152D01*
X76168Y-51119D01*
X76311Y-51023D01*
X76406Y-50880D01*
X76440Y-50712D01*
X76440Y-51335D01*
X75440Y-51335D01*
X75440Y-50712D01*
X75440Y-50287D01*
X75406Y-50119D01*
X75311Y-49976D01*
X75168Y-49880D01*
X75000Y-49847D01*
X74831Y-49880D01*
X74688Y-49976D01*
X74593Y-50119D01*
X74560Y-50287D01*
X74560Y-50712D01*
X74593Y-50880D01*
X74688Y-51023D01*
X74831Y-51119D01*
X75000Y-51152D01*
X75168Y-51119D01*
X75311Y-51023D01*
X75406Y-50880D01*
X75440Y-50712D01*
X75440Y-51335D01*
X74440Y-51335D01*
X74440Y-50712D01*
X74440Y-50287D01*
X74406Y-50119D01*
X74311Y-49976D01*
X74168Y-49880D01*
X74000Y-49847D01*
X73831Y-49880D01*
X73688Y-49976D01*
X73593Y-50119D01*
X73560Y-50287D01*
X73560Y-50712D01*
X73593Y-50880D01*
X73688Y-51023D01*
X73831Y-51119D01*
X74000Y-51152D01*
X74168Y-51119D01*
X74311Y-51023D01*
X74406Y-50880D01*
X74440Y-50712D01*
X74440Y-51335D01*
X72440Y-51335D01*
X72440Y-50712D01*
X72440Y-50287D01*
X72406Y-50119D01*
X72311Y-49976D01*
X72168Y-49880D01*
X72000Y-49847D01*
X71831Y-49880D01*
X71688Y-49976D01*
X71593Y-50119D01*
X71560Y-50287D01*
X71560Y-50712D01*
X71593Y-50880D01*
X71688Y-51023D01*
X71831Y-51119D01*
X72000Y-51152D01*
X72168Y-51119D01*
X72311Y-51023D01*
X72406Y-50880D01*
X72440Y-50712D01*
X72440Y-51335D01*
X71440Y-51335D01*
X71440Y-50712D01*
X71440Y-50287D01*
X71406Y-50119D01*
X71311Y-49976D01*
X71168Y-49880D01*
X71000Y-49847D01*
X70831Y-49880D01*
X70688Y-49976D01*
X70593Y-50119D01*
X70560Y-50287D01*
X70560Y-50712D01*
X70593Y-50880D01*
X70688Y-51023D01*
X70831Y-51119D01*
X71000Y-51152D01*
X71168Y-51119D01*
X71311Y-51023D01*
X71406Y-50880D01*
X71440Y-50712D01*
X71440Y-51335D01*
X70440Y-51335D01*
X70440Y-50712D01*
X70440Y-50287D01*
X70406Y-50119D01*
X70311Y-49976D01*
X70168Y-49880D01*
X70000Y-49847D01*
X69831Y-49880D01*
X69688Y-49976D01*
X69593Y-50119D01*
X69560Y-50287D01*
X69560Y-50712D01*
X69593Y-50880D01*
X69688Y-51023D01*
X69831Y-51119D01*
X70000Y-51152D01*
X70168Y-51119D01*
X70311Y-51023D01*
X70406Y-50880D01*
X70440Y-50712D01*
X70440Y-51335D01*
X69440Y-51335D01*
X69440Y-50712D01*
X69440Y-50287D01*
X69406Y-50119D01*
X69311Y-49976D01*
X69168Y-49880D01*
X69000Y-49847D01*
X68831Y-49880D01*
X68688Y-49976D01*
X68593Y-50119D01*
X68560Y-50287D01*
X68560Y-50712D01*
X68593Y-50880D01*
X68688Y-51023D01*
X68831Y-51119D01*
X69000Y-51152D01*
X69168Y-51119D01*
X69311Y-51023D01*
X69406Y-50880D01*
X69440Y-50712D01*
X69440Y-51335D01*
X68440Y-51335D01*
X68440Y-50712D01*
X68440Y-50287D01*
X68406Y-50119D01*
X68311Y-49976D01*
X68168Y-49880D01*
X68000Y-49847D01*
X67831Y-49880D01*
X67688Y-49976D01*
X67593Y-50119D01*
X67560Y-50287D01*
X67560Y-50712D01*
X67593Y-50880D01*
X67688Y-51023D01*
X67831Y-51119D01*
X68000Y-51152D01*
X68168Y-51119D01*
X68311Y-51023D01*
X68406Y-50880D01*
X68440Y-50712D01*
X68440Y-51335D01*
X67440Y-51335D01*
X67440Y-50712D01*
X67440Y-50287D01*
X67406Y-50119D01*
X67311Y-49976D01*
X67168Y-49880D01*
X67000Y-49847D01*
X66831Y-49880D01*
X66688Y-49976D01*
X66593Y-50119D01*
X66560Y-50287D01*
X66560Y-50712D01*
X66593Y-50880D01*
X66688Y-51023D01*
X66831Y-51119D01*
X67000Y-51152D01*
X67168Y-51119D01*
X67311Y-51023D01*
X67406Y-50880D01*
X67440Y-50712D01*
X67440Y-51335D01*
X66440Y-51335D01*
X66440Y-50712D01*
X66440Y-50287D01*
X66406Y-50119D01*
X66311Y-49976D01*
X66168Y-49880D01*
X66000Y-49847D01*
X65831Y-49880D01*
X65688Y-49976D01*
X65593Y-50119D01*
X65560Y-50287D01*
X65560Y-50712D01*
X65593Y-50880D01*
X65688Y-51023D01*
X65831Y-51119D01*
X66000Y-51152D01*
X66168Y-51119D01*
X66311Y-51023D01*
X66406Y-50880D01*
X66440Y-50712D01*
X66440Y-51335D01*
X63518Y-51335D01*
X64560Y-50293D01*
X64560Y-50712D01*
X64593Y-50880D01*
X64688Y-51023D01*
X64831Y-51119D01*
X65000Y-51152D01*
X65168Y-51119D01*
X65311Y-51023D01*
X65406Y-50880D01*
X65440Y-50712D01*
X65440Y-50287D01*
X65406Y-50119D01*
X65311Y-49976D01*
X65168Y-49880D01*
X65004Y-49848D01*
X67287Y-47565D01*
X67413Y-47691D01*
X67413Y-47701D01*
X67461Y-47817D01*
X67550Y-47906D01*
X67665Y-47954D01*
X67791Y-47954D01*
X67906Y-47906D01*
X67995Y-47817D01*
X68043Y-47702D01*
X68043Y-47576D01*
X67995Y-47461D01*
X67907Y-47372D01*
X67791Y-47324D01*
X67781Y-47324D01*
X67547Y-47090D01*
X67547Y-46007D01*
X67547Y-46007D01*
X67527Y-45908D01*
X67527Y-45908D01*
X67510Y-45881D01*
X67510Y-45500D01*
X67490Y-45400D01*
X67465Y-45362D01*
X67465Y-45222D01*
X67443Y-45170D01*
X67404Y-45131D01*
X67352Y-45110D01*
X67297Y-45109D01*
X67147Y-45109D01*
X67095Y-45131D01*
X67056Y-45170D01*
X67035Y-45222D01*
X67034Y-45277D01*
X67034Y-45362D01*
X67009Y-45400D01*
X67000Y-45449D01*
X66990Y-45400D01*
X66965Y-45362D01*
X66965Y-45222D01*
X66943Y-45170D01*
X66904Y-45131D01*
X66852Y-45110D01*
X66797Y-45109D01*
X66647Y-45109D01*
X66595Y-45131D01*
X66556Y-45170D01*
X66554Y-45175D01*
X66528Y-45113D01*
X66460Y-45046D01*
X66372Y-45009D01*
X66347Y-45010D01*
X66287Y-45070D01*
X66287Y-45440D01*
X66317Y-45440D01*
X66317Y-45560D01*
X66287Y-45560D01*
X66287Y-45930D01*
X66347Y-45990D01*
X66372Y-45990D01*
X66460Y-45953D01*
X66490Y-45924D01*
X66490Y-47030D01*
X66212Y-47307D01*
X66212Y-45930D01*
X66212Y-45560D01*
X66212Y-45440D01*
X66212Y-45070D01*
X66152Y-45010D01*
X66127Y-45009D01*
X66039Y-45046D01*
X66000Y-45085D01*
X65960Y-45046D01*
X65872Y-45009D01*
X65847Y-45010D01*
X65787Y-45070D01*
X65787Y-45440D01*
X65995Y-45440D01*
X66005Y-45440D01*
X66212Y-45440D01*
X66212Y-45560D01*
X66005Y-45560D01*
X65995Y-45560D01*
X65787Y-45560D01*
X65787Y-45930D01*
X65847Y-45990D01*
X65872Y-45990D01*
X65960Y-45953D01*
X66000Y-45914D01*
X66039Y-45953D01*
X66127Y-45990D01*
X66152Y-45990D01*
X66212Y-45930D01*
X66212Y-47307D01*
X66170Y-47349D01*
X66160Y-47349D01*
X66044Y-47397D01*
X65955Y-47486D01*
X65907Y-47602D01*
X65907Y-47727D01*
X65955Y-47843D01*
X66044Y-47931D01*
X66144Y-47973D01*
X65712Y-48405D01*
X65712Y-45930D01*
X65712Y-45560D01*
X65712Y-45440D01*
X65712Y-45070D01*
X65652Y-45010D01*
X65627Y-45009D01*
X65539Y-45046D01*
X65500Y-45085D01*
X65460Y-45046D01*
X65372Y-45009D01*
X65347Y-45010D01*
X65287Y-45070D01*
X65287Y-45440D01*
X65495Y-45440D01*
X65505Y-45440D01*
X65712Y-45440D01*
X65712Y-45560D01*
X65505Y-45560D01*
X65495Y-45560D01*
X65287Y-45560D01*
X65287Y-45930D01*
X65347Y-45990D01*
X65372Y-45990D01*
X65460Y-45953D01*
X65500Y-45914D01*
X65539Y-45953D01*
X65627Y-45990D01*
X65652Y-45990D01*
X65712Y-45930D01*
X65712Y-48405D01*
X65212Y-48905D01*
X65212Y-45930D01*
X65212Y-45560D01*
X65212Y-45440D01*
X65212Y-45070D01*
X65152Y-45010D01*
X65127Y-45009D01*
X65039Y-45046D01*
X65000Y-45085D01*
X64960Y-45046D01*
X64872Y-45009D01*
X64847Y-45010D01*
X64787Y-45070D01*
X64787Y-45440D01*
X64995Y-45440D01*
X65005Y-45440D01*
X65212Y-45440D01*
X65212Y-45560D01*
X65005Y-45560D01*
X64995Y-45560D01*
X64787Y-45560D01*
X64787Y-45930D01*
X64847Y-45990D01*
X64872Y-45990D01*
X64960Y-45953D01*
X65000Y-45914D01*
X65039Y-45953D01*
X65127Y-45990D01*
X65152Y-45990D01*
X65212Y-45930D01*
X65212Y-48905D01*
X63440Y-50677D01*
X63440Y-50287D01*
X63406Y-50119D01*
X63311Y-49976D01*
X63168Y-49880D01*
X63000Y-49847D01*
X62831Y-49880D01*
X62688Y-49976D01*
X62593Y-50119D01*
X62560Y-50287D01*
X62560Y-50712D01*
X62593Y-50880D01*
X62649Y-50964D01*
X62473Y-50964D01*
X62475Y-50962D01*
X62540Y-50760D01*
X62540Y-50560D01*
X62540Y-50440D01*
X62540Y-50240D01*
X62475Y-50037D01*
X62339Y-49875D01*
X62143Y-49779D01*
X62060Y-49823D01*
X62060Y-50440D01*
X62540Y-50440D01*
X62540Y-50560D01*
X62060Y-50560D01*
X62060Y-50567D01*
X61940Y-50567D01*
X61940Y-50560D01*
X61940Y-50440D01*
X61940Y-49823D01*
X61856Y-49779D01*
X61660Y-49875D01*
X61524Y-50037D01*
X61500Y-50113D01*
X61475Y-50037D01*
X61339Y-49875D01*
X61143Y-49779D01*
X61060Y-49823D01*
X61060Y-50440D01*
X61460Y-50440D01*
X61540Y-50440D01*
X61940Y-50440D01*
X61940Y-50560D01*
X61540Y-50560D01*
X61460Y-50560D01*
X61060Y-50560D01*
X61060Y-50567D01*
X60940Y-50567D01*
X60940Y-50560D01*
X60940Y-50440D01*
X60940Y-49823D01*
X60856Y-49779D01*
X60660Y-49875D01*
X60524Y-50037D01*
X60460Y-50240D01*
X60460Y-50440D01*
X60940Y-50440D01*
X60940Y-50560D01*
X60460Y-50560D01*
X60460Y-50760D01*
X60524Y-50962D01*
X60526Y-50964D01*
X60350Y-50964D01*
X60406Y-50880D01*
X60440Y-50712D01*
X60440Y-50287D01*
X60406Y-50119D01*
X60320Y-49989D01*
X60320Y-49144D01*
X62864Y-46600D01*
X62908Y-46707D01*
X62996Y-46796D01*
X63112Y-46844D01*
X63237Y-46844D01*
X63353Y-46796D01*
X63442Y-46707D01*
X63490Y-46592D01*
X63490Y-46581D01*
X63886Y-46185D01*
X63933Y-46153D01*
X63990Y-46069D01*
X63990Y-46119D01*
X63990Y-46121D01*
X63990Y-46237D01*
X64038Y-46353D01*
X64126Y-46441D01*
X64242Y-46489D01*
X64367Y-46490D01*
X64483Y-46442D01*
X64572Y-46353D01*
X64620Y-46237D01*
X64620Y-46112D01*
X64572Y-45996D01*
X64510Y-45934D01*
X64510Y-45924D01*
X64539Y-45953D01*
X64627Y-45990D01*
X64652Y-45990D01*
X64712Y-45930D01*
X64712Y-45560D01*
X64682Y-45560D01*
X64682Y-45440D01*
X64712Y-45440D01*
X64712Y-45070D01*
X64652Y-45010D01*
X64627Y-45009D01*
X64539Y-45046D01*
X64471Y-45113D01*
X64445Y-45175D01*
X64443Y-45170D01*
X64404Y-45131D01*
X64352Y-45110D01*
X64297Y-45109D01*
X64147Y-45109D01*
X64095Y-45131D01*
X64056Y-45170D01*
X64035Y-45222D01*
X64034Y-45277D01*
X64034Y-45362D01*
X64009Y-45400D01*
X64000Y-45449D01*
X63990Y-45400D01*
X63965Y-45362D01*
X63965Y-45222D01*
X63943Y-45170D01*
X63904Y-45131D01*
X63852Y-45110D01*
X63797Y-45109D01*
X63647Y-45109D01*
X63595Y-45131D01*
X63570Y-45156D01*
X63570Y-45102D01*
X63805Y-44866D01*
X67416Y-44866D01*
X67416Y-44866D01*
X67539Y-44842D01*
X67643Y-44773D01*
X68316Y-44099D01*
X68385Y-43996D01*
X68409Y-43873D01*
X68409Y-43873D01*
X68409Y-42689D01*
X68613Y-42689D01*
X69359Y-42689D01*
X69359Y-43177D01*
X69381Y-43229D01*
X69420Y-43268D01*
X69472Y-43289D01*
X69527Y-43290D01*
X70527Y-43290D01*
X70579Y-43268D01*
X70618Y-43229D01*
X70639Y-43177D01*
X70640Y-43122D01*
X70640Y-42622D01*
X70618Y-42570D01*
X70579Y-42531D01*
X70527Y-42510D01*
X70472Y-42509D01*
X70320Y-42509D01*
X70320Y-42369D01*
X70295Y-42247D01*
X70226Y-42143D01*
X70122Y-42074D01*
X70000Y-42049D01*
X68933Y-42049D01*
X68933Y-41070D01*
X68933Y-41070D01*
X68909Y-40947D01*
X68909Y-40947D01*
X68886Y-40913D01*
X68839Y-40843D01*
X68839Y-40843D01*
X66068Y-38071D01*
X66046Y-38057D01*
X66020Y-38031D01*
X65985Y-38016D01*
X65964Y-38002D01*
X65939Y-37997D01*
X65904Y-37983D01*
X65866Y-37983D01*
X65841Y-37978D01*
X65816Y-37983D01*
X65794Y-37983D01*
X66026Y-37751D01*
X66056Y-37823D01*
X66145Y-37912D01*
X66260Y-37960D01*
X66386Y-37960D01*
X66501Y-37912D01*
X66590Y-37823D01*
X66638Y-37708D01*
X66638Y-37697D01*
X66930Y-37406D01*
X66933Y-37403D01*
X66990Y-37319D01*
X67000Y-37270D01*
X67009Y-37319D01*
X67066Y-37403D01*
X68237Y-38575D01*
X68227Y-38599D01*
X68227Y-38725D01*
X68275Y-38841D01*
X68364Y-38929D01*
X68479Y-38977D01*
X68605Y-38977D01*
X68720Y-38930D01*
X68809Y-38841D01*
X68857Y-38725D01*
X68857Y-38600D01*
X68809Y-38484D01*
X68793Y-38468D01*
X68793Y-38468D01*
X68782Y-38413D01*
X68726Y-38328D01*
X67510Y-37112D01*
X67510Y-36750D01*
X67490Y-36650D01*
X67465Y-36612D01*
X67465Y-36472D01*
X67443Y-36420D01*
X67404Y-36381D01*
X67352Y-36360D01*
X67297Y-36359D01*
X67147Y-36359D01*
X67095Y-36381D01*
X67056Y-36420D01*
X67035Y-36472D01*
X67034Y-36527D01*
X67034Y-36612D01*
X67009Y-36650D01*
X67000Y-36699D01*
X66990Y-36650D01*
X66965Y-36612D01*
X66965Y-36472D01*
X66943Y-36420D01*
X66904Y-36381D01*
X66862Y-36363D01*
X67028Y-36197D01*
X67674Y-36197D01*
X67622Y-36232D01*
X67583Y-36290D01*
X67570Y-36359D01*
X67570Y-36406D01*
X67556Y-36420D01*
X67535Y-36472D01*
X67534Y-36527D01*
X67534Y-37027D01*
X67556Y-37079D01*
X67595Y-37118D01*
X67647Y-37139D01*
X67702Y-37140D01*
X67852Y-37140D01*
X67904Y-37118D01*
X67943Y-37079D01*
X67964Y-37027D01*
X67965Y-36972D01*
X67965Y-36539D01*
X68034Y-36539D01*
X68034Y-37027D01*
X68056Y-37079D01*
X68070Y-37092D01*
X68070Y-37140D01*
X68083Y-37209D01*
X68122Y-37267D01*
X71994Y-41139D01*
X71994Y-42802D01*
X70740Y-44057D01*
X70740Y-44057D01*
X70740Y-44039D01*
X70680Y-44039D01*
X70740Y-43980D01*
X70740Y-43802D01*
X70703Y-43714D01*
X70636Y-43646D01*
X70547Y-43610D01*
X70452Y-43609D01*
X70120Y-43610D01*
X70060Y-43670D01*
X70060Y-44040D01*
X70067Y-44040D01*
X70067Y-44160D01*
X70060Y-44160D01*
X70060Y-44530D01*
X70120Y-44590D01*
X70207Y-44590D01*
X69940Y-44857D01*
X69940Y-44530D01*
X69940Y-44160D01*
X69940Y-44040D01*
X69940Y-43670D01*
X69880Y-43610D01*
X69547Y-43609D01*
X69452Y-43610D01*
X69363Y-43646D01*
X69296Y-43714D01*
X69259Y-43802D01*
X69260Y-43980D01*
X69320Y-44040D01*
X69940Y-44040D01*
X69940Y-44160D01*
X69320Y-44160D01*
X69260Y-44220D01*
X69259Y-44397D01*
X69296Y-44485D01*
X69363Y-44553D01*
X69452Y-44589D01*
X69547Y-44590D01*
X69880Y-44590D01*
X69940Y-44530D01*
X69940Y-44857D01*
X69477Y-45320D01*
X68465Y-45320D01*
X68465Y-45222D01*
X68443Y-45170D01*
X68404Y-45131D01*
X68352Y-45110D01*
X68297Y-45109D01*
X68147Y-45109D01*
X68095Y-45131D01*
X68056Y-45170D01*
X68035Y-45222D01*
X68034Y-45277D01*
X68034Y-45777D01*
X68056Y-45829D01*
X68095Y-45868D01*
X68147Y-45889D01*
X68202Y-45890D01*
X68352Y-45890D01*
X68404Y-45868D01*
X68443Y-45829D01*
X68464Y-45777D01*
X68465Y-45722D01*
X68465Y-45680D01*
X69551Y-45680D01*
X69620Y-45666D01*
X69679Y-45627D01*
X72174Y-43131D01*
X78187Y-49143D01*
X71258Y-49143D01*
X67943Y-45829D01*
X67964Y-45777D01*
X67965Y-45722D01*
X67965Y-45222D01*
X67943Y-45170D01*
X67904Y-45131D01*
X67852Y-45110D01*
X67797Y-45109D01*
X67647Y-45109D01*
X67595Y-45131D01*
X67556Y-45170D01*
X67535Y-45222D01*
X67534Y-45277D01*
X67534Y-45777D01*
X67556Y-45829D01*
X67570Y-45842D01*
X67570Y-45890D01*
X67583Y-45959D01*
X67622Y-46017D01*
X71056Y-49451D01*
X71056Y-49451D01*
X71095Y-49477D01*
X71114Y-49490D01*
X71114Y-49490D01*
X71183Y-49503D01*
X71183Y-49503D01*
X83062Y-49503D01*
X83131Y-49490D01*
X83189Y-49451D01*
X83965Y-48675D01*
X83965Y-48675D01*
X84004Y-48617D01*
X84017Y-48548D01*
X84017Y-48548D01*
X84017Y-45711D01*
X84017Y-45711D01*
X84004Y-45642D01*
X84004Y-45642D01*
X83991Y-45623D01*
X83965Y-45584D01*
X83965Y-45584D01*
X83313Y-44932D01*
X83255Y-44893D01*
X83217Y-44886D01*
X83248Y-44873D01*
X83372Y-44749D01*
X83439Y-44587D01*
X83440Y-44412D01*
X83440Y-43412D01*
X83440Y-42412D01*
X83440Y-41412D01*
X83440Y-40412D01*
X83440Y-39412D01*
X83440Y-38412D01*
X83440Y-37412D01*
X83440Y-36412D01*
X83440Y-35412D01*
X83440Y-34412D01*
X83440Y-33412D01*
X83440Y-32412D01*
X83440Y-31412D01*
X83373Y-31251D01*
X83249Y-31127D01*
X83087Y-31060D01*
X82912Y-31059D01*
X82751Y-31126D01*
X82627Y-31250D01*
X82560Y-31412D01*
X82559Y-31587D01*
X82626Y-31748D01*
X82750Y-31872D01*
X82912Y-31939D01*
X83087Y-31940D01*
X83248Y-31873D01*
X83372Y-31749D01*
X83439Y-31587D01*
X83440Y-31412D01*
X83440Y-32412D01*
X83373Y-32251D01*
X83249Y-32127D01*
X83087Y-32060D01*
X82912Y-32059D01*
X82751Y-32126D01*
X82627Y-32250D01*
X82560Y-32412D01*
X82559Y-32587D01*
X82626Y-32748D01*
X82750Y-32872D01*
X82912Y-32939D01*
X83087Y-32940D01*
X83248Y-32873D01*
X83372Y-32749D01*
X83439Y-32587D01*
X83440Y-32412D01*
X83440Y-33412D01*
X83373Y-33251D01*
X83249Y-33127D01*
X83087Y-33060D01*
X82912Y-33059D01*
X82751Y-33126D01*
X82627Y-33250D01*
X82560Y-33412D01*
X82559Y-33587D01*
X82626Y-33748D01*
X82750Y-33872D01*
X82912Y-33939D01*
X83087Y-33940D01*
X83248Y-33873D01*
X83372Y-33749D01*
X83439Y-33587D01*
X83440Y-33412D01*
X83440Y-34412D01*
X83373Y-34251D01*
X83249Y-34127D01*
X83087Y-34060D01*
X82912Y-34059D01*
X82751Y-34126D01*
X82627Y-34250D01*
X82560Y-34412D01*
X82559Y-34587D01*
X82626Y-34748D01*
X82750Y-34872D01*
X82912Y-34939D01*
X83087Y-34940D01*
X83248Y-34873D01*
X83372Y-34749D01*
X83439Y-34587D01*
X83440Y-34412D01*
X83440Y-35412D01*
X83373Y-35251D01*
X83249Y-35127D01*
X83087Y-35060D01*
X82912Y-35059D01*
X82751Y-35126D01*
X82627Y-35250D01*
X82560Y-35412D01*
X82559Y-35587D01*
X82626Y-35748D01*
X82750Y-35872D01*
X82912Y-35939D01*
X83087Y-35940D01*
X83248Y-35873D01*
X83372Y-35749D01*
X83439Y-35587D01*
X83440Y-35412D01*
X83440Y-36412D01*
X83373Y-36251D01*
X83249Y-36127D01*
X83087Y-36060D01*
X82912Y-36059D01*
X82751Y-36126D01*
X82627Y-36250D01*
X82560Y-36412D01*
X82559Y-36587D01*
X82626Y-36748D01*
X82750Y-36872D01*
X82912Y-36939D01*
X83087Y-36940D01*
X83248Y-36873D01*
X83372Y-36749D01*
X83439Y-36587D01*
X83440Y-36412D01*
X83440Y-37412D01*
X83373Y-37251D01*
X83249Y-37127D01*
X83087Y-37060D01*
X82912Y-37059D01*
X82751Y-37126D01*
X82627Y-37250D01*
X82560Y-37412D01*
X82559Y-37587D01*
X82626Y-37748D01*
X82750Y-37872D01*
X82912Y-37939D01*
X83087Y-37940D01*
X83248Y-37873D01*
X83372Y-37749D01*
X83439Y-37587D01*
X83440Y-37412D01*
X83440Y-38412D01*
X83373Y-38251D01*
X83249Y-38127D01*
X83087Y-38060D01*
X82912Y-38059D01*
X82751Y-38126D01*
X82627Y-38250D01*
X82560Y-38412D01*
X82559Y-38587D01*
X82626Y-38748D01*
X82750Y-38872D01*
X82912Y-38939D01*
X83087Y-38940D01*
X83248Y-38873D01*
X83372Y-38749D01*
X83439Y-38587D01*
X83440Y-38412D01*
X83440Y-39412D01*
X83373Y-39251D01*
X83249Y-39127D01*
X83087Y-39060D01*
X82912Y-39059D01*
X82751Y-39126D01*
X82627Y-39250D01*
X82560Y-39412D01*
X82559Y-39587D01*
X82626Y-39748D01*
X82750Y-39872D01*
X82912Y-39939D01*
X83087Y-39940D01*
X83248Y-39873D01*
X83372Y-39749D01*
X83439Y-39587D01*
X83440Y-39412D01*
X83440Y-40412D01*
X83373Y-40251D01*
X83249Y-40127D01*
X83087Y-40060D01*
X82912Y-40059D01*
X82751Y-40126D01*
X82627Y-40250D01*
X82560Y-40412D01*
X82559Y-40587D01*
X82626Y-40748D01*
X82750Y-40872D01*
X82912Y-40939D01*
X83087Y-40940D01*
X83248Y-40873D01*
X83372Y-40749D01*
X83439Y-40587D01*
X83440Y-40412D01*
X83440Y-41412D01*
X83373Y-41251D01*
X83249Y-41127D01*
X83087Y-41060D01*
X82912Y-41059D01*
X82751Y-41126D01*
X82627Y-41250D01*
X82560Y-41412D01*
X82559Y-41587D01*
X82626Y-41748D01*
X82750Y-41872D01*
X82912Y-41939D01*
X83087Y-41940D01*
X83248Y-41873D01*
X83372Y-41749D01*
X83439Y-41587D01*
X83440Y-41412D01*
X83440Y-42412D01*
X83373Y-42251D01*
X83249Y-42127D01*
X83087Y-42060D01*
X82912Y-42059D01*
X82751Y-42126D01*
X82627Y-42250D01*
X82560Y-42412D01*
X82559Y-42587D01*
X82626Y-42748D01*
X82750Y-42872D01*
X82912Y-42939D01*
X83087Y-42940D01*
X83248Y-42873D01*
X83372Y-42749D01*
X83439Y-42587D01*
X83440Y-42412D01*
X83440Y-43412D01*
X83373Y-43251D01*
X83249Y-43127D01*
X83087Y-43060D01*
X82912Y-43059D01*
X82751Y-43126D01*
X82627Y-43250D01*
X82560Y-43412D01*
X82559Y-43587D01*
X82626Y-43748D01*
X82750Y-43872D01*
X82912Y-43939D01*
X83087Y-43940D01*
X83248Y-43873D01*
X83372Y-43749D01*
X83439Y-43587D01*
X83440Y-43412D01*
X83440Y-44412D01*
X83373Y-44251D01*
X83249Y-44127D01*
X83087Y-44060D01*
X82912Y-44059D01*
X82751Y-44126D01*
X82627Y-44250D01*
X82560Y-44412D01*
X82559Y-44587D01*
X82626Y-44748D01*
X82750Y-44872D01*
X82783Y-44886D01*
X82748Y-44893D01*
X82690Y-44932D01*
X82432Y-45190D01*
X82393Y-45248D01*
X82386Y-45283D01*
X82373Y-45251D01*
X82249Y-45127D01*
X82087Y-45060D01*
X81912Y-45059D01*
X81751Y-45126D01*
X81739Y-45137D01*
X81739Y-44862D01*
X81750Y-44872D01*
X81912Y-44939D01*
X82087Y-44940D01*
X82248Y-44873D01*
X82372Y-44749D01*
X82439Y-44587D01*
X82440Y-44412D01*
X82440Y-43412D01*
X82440Y-42412D01*
X82440Y-41412D01*
X82440Y-40412D01*
X82440Y-39412D01*
X82440Y-38412D01*
X82440Y-37412D01*
X82440Y-36412D01*
X82440Y-35412D01*
X82440Y-34412D01*
X82440Y-33412D01*
X82440Y-32412D01*
X82440Y-31412D01*
X82373Y-31251D01*
X82249Y-31127D01*
X82087Y-31060D01*
X81912Y-31059D01*
X81751Y-31126D01*
X81627Y-31250D01*
X81560Y-31412D01*
X81559Y-31587D01*
X81626Y-31748D01*
X81750Y-31872D01*
X81912Y-31939D01*
X82087Y-31940D01*
X82248Y-31873D01*
X82372Y-31749D01*
X82439Y-31587D01*
X82440Y-31412D01*
X82440Y-32412D01*
X82373Y-32251D01*
X82249Y-32127D01*
X82087Y-32060D01*
X81912Y-32059D01*
X81751Y-32126D01*
X81627Y-32250D01*
X81560Y-32412D01*
X81559Y-32587D01*
X81626Y-32748D01*
X81750Y-32872D01*
X81912Y-32939D01*
X82087Y-32940D01*
X82248Y-32873D01*
X82372Y-32749D01*
X82439Y-32587D01*
X82440Y-32412D01*
X82440Y-33412D01*
X82373Y-33251D01*
X82249Y-33127D01*
X82087Y-33060D01*
X81912Y-33059D01*
X81751Y-33126D01*
X81627Y-33250D01*
X81560Y-33412D01*
X81559Y-33587D01*
X81626Y-33748D01*
X81750Y-33872D01*
X81912Y-33939D01*
X82087Y-33940D01*
X82248Y-33873D01*
X82372Y-33749D01*
X82439Y-33587D01*
X82440Y-33412D01*
X82440Y-34412D01*
X82373Y-34251D01*
X82249Y-34127D01*
X82087Y-34060D01*
X81912Y-34059D01*
X81751Y-34126D01*
X81627Y-34250D01*
X81560Y-34412D01*
X81559Y-34587D01*
X81626Y-34748D01*
X81750Y-34872D01*
X81912Y-34939D01*
X82087Y-34940D01*
X82248Y-34873D01*
X82372Y-34749D01*
X82439Y-34587D01*
X82440Y-34412D01*
X82440Y-35412D01*
X82373Y-35251D01*
X82249Y-35127D01*
X82087Y-35060D01*
X81912Y-35059D01*
X81751Y-35126D01*
X81627Y-35250D01*
X81560Y-35412D01*
X81559Y-35587D01*
X81626Y-35748D01*
X81750Y-35872D01*
X81912Y-35939D01*
X82087Y-35940D01*
X82248Y-35873D01*
X82372Y-35749D01*
X82439Y-35587D01*
X82440Y-35412D01*
X82440Y-36412D01*
X82373Y-36251D01*
X82249Y-36127D01*
X82087Y-36060D01*
X81912Y-36059D01*
X81751Y-36126D01*
X81627Y-36250D01*
X81560Y-36412D01*
X81559Y-36587D01*
X81626Y-36748D01*
X81750Y-36872D01*
X81912Y-36939D01*
X82087Y-36940D01*
X82248Y-36873D01*
X82372Y-36749D01*
X82439Y-36587D01*
X82440Y-36412D01*
X82440Y-37412D01*
X82373Y-37251D01*
X82249Y-37127D01*
X82087Y-37060D01*
X81912Y-37059D01*
X81751Y-37126D01*
X81627Y-37250D01*
X81560Y-37412D01*
X81559Y-37587D01*
X81626Y-37748D01*
X81750Y-37872D01*
X81912Y-37939D01*
X82087Y-37940D01*
X82248Y-37873D01*
X82372Y-37749D01*
X82439Y-37587D01*
X82440Y-37412D01*
X82440Y-38412D01*
X82373Y-38251D01*
X82249Y-38127D01*
X82087Y-38060D01*
X81912Y-38059D01*
X81751Y-38126D01*
X81627Y-38250D01*
X81560Y-38412D01*
X81559Y-38587D01*
X81626Y-38748D01*
X81750Y-38872D01*
X81912Y-38939D01*
X82087Y-38940D01*
X82248Y-38873D01*
X82372Y-38749D01*
X82439Y-38587D01*
X82440Y-38412D01*
X82440Y-39412D01*
X82373Y-39251D01*
X82249Y-39127D01*
X82087Y-39060D01*
X81912Y-39059D01*
X81751Y-39126D01*
X81627Y-39250D01*
X81560Y-39412D01*
X81559Y-39587D01*
X81626Y-39748D01*
X81750Y-39872D01*
X81912Y-39939D01*
X82087Y-39940D01*
X82248Y-39873D01*
X82372Y-39749D01*
X82439Y-39587D01*
X82440Y-39412D01*
X82440Y-40412D01*
X82373Y-40251D01*
X82249Y-40127D01*
X82087Y-40060D01*
X81912Y-40059D01*
X81751Y-40126D01*
X81627Y-40250D01*
X81560Y-40412D01*
X81559Y-40587D01*
X81626Y-40748D01*
X81750Y-40872D01*
X81912Y-40939D01*
X82087Y-40940D01*
X82248Y-40873D01*
X82372Y-40749D01*
X82439Y-40587D01*
X82440Y-40412D01*
X82440Y-41412D01*
X82373Y-41251D01*
X82249Y-41127D01*
X82087Y-41060D01*
X81912Y-41059D01*
X81751Y-41126D01*
X81627Y-41250D01*
X81560Y-41412D01*
X81559Y-41587D01*
X81626Y-41748D01*
X81750Y-41872D01*
X81912Y-41939D01*
X82087Y-41940D01*
X82248Y-41873D01*
X82372Y-41749D01*
X82439Y-41587D01*
X82440Y-41412D01*
X82440Y-42412D01*
X82373Y-42251D01*
X82249Y-42127D01*
X82087Y-42060D01*
X81912Y-42059D01*
X81751Y-42126D01*
X81627Y-42250D01*
X81560Y-42412D01*
X81559Y-42587D01*
X81626Y-42748D01*
X81750Y-42872D01*
X81912Y-42939D01*
X82087Y-42940D01*
X82248Y-42873D01*
X82372Y-42749D01*
X82439Y-42587D01*
X82440Y-42412D01*
X82440Y-43412D01*
X82373Y-43251D01*
X82249Y-43127D01*
X82087Y-43060D01*
X81912Y-43059D01*
X81751Y-43126D01*
X81627Y-43250D01*
X81560Y-43412D01*
X81559Y-43587D01*
X81626Y-43748D01*
X81750Y-43872D01*
X81912Y-43939D01*
X82087Y-43940D01*
X82248Y-43873D01*
X82372Y-43749D01*
X82439Y-43587D01*
X82440Y-43412D01*
X82440Y-44412D01*
X82373Y-44251D01*
X82249Y-44127D01*
X82087Y-44060D01*
X81912Y-44059D01*
X81751Y-44126D01*
X81728Y-44149D01*
X81726Y-44137D01*
X81687Y-44079D01*
X79440Y-41832D01*
X79440Y-31712D01*
X79440Y-31287D01*
X79406Y-31119D01*
X79311Y-30976D01*
X79168Y-30880D01*
X79000Y-30847D01*
X78831Y-30880D01*
X78688Y-30976D01*
X78593Y-31119D01*
X78560Y-31287D01*
X78560Y-31712D01*
X78593Y-31880D01*
X78688Y-32023D01*
X78831Y-32119D01*
X79000Y-32152D01*
X79168Y-32119D01*
X79311Y-32023D01*
X79406Y-31880D01*
X79440Y-31712D01*
X79440Y-41832D01*
X78440Y-40832D01*
X78440Y-31712D01*
X78440Y-31287D01*
X78406Y-31119D01*
X78311Y-30976D01*
X78168Y-30880D01*
X78000Y-30847D01*
X77831Y-30880D01*
X77688Y-30976D01*
X77593Y-31119D01*
X77560Y-31287D01*
X77560Y-31712D01*
X77593Y-31880D01*
X77688Y-32023D01*
X77831Y-32119D01*
X78000Y-32152D01*
X78168Y-32119D01*
X78311Y-32023D01*
X78406Y-31880D01*
X78440Y-31712D01*
X78440Y-40832D01*
X77440Y-39832D01*
X77440Y-31712D01*
X77440Y-31287D01*
X77406Y-31119D01*
X77311Y-30976D01*
X77168Y-30880D01*
X77000Y-30847D01*
X76831Y-30880D01*
X76688Y-30976D01*
X76593Y-31119D01*
X76560Y-31287D01*
X76560Y-31712D01*
X76593Y-31880D01*
X76688Y-32023D01*
X76831Y-32119D01*
X77000Y-32152D01*
X77168Y-32119D01*
X77311Y-32023D01*
X77406Y-31880D01*
X77440Y-31712D01*
X77440Y-39832D01*
X76440Y-38832D01*
X76440Y-31712D01*
X76440Y-31287D01*
X76406Y-31119D01*
X76311Y-30976D01*
X76168Y-30880D01*
X76000Y-30847D01*
X75831Y-30880D01*
X75688Y-30976D01*
X75593Y-31119D01*
X75560Y-31287D01*
X75560Y-31712D01*
X75593Y-31880D01*
X75688Y-32023D01*
X75831Y-32119D01*
X76000Y-32152D01*
X76168Y-32119D01*
X76311Y-32023D01*
X76406Y-31880D01*
X76440Y-31712D01*
X76440Y-38832D01*
X75440Y-37832D01*
X75440Y-31712D01*
X75440Y-31287D01*
X75406Y-31119D01*
X75311Y-30976D01*
X75168Y-30880D01*
X75000Y-30847D01*
X74831Y-30880D01*
X74688Y-30976D01*
X74593Y-31119D01*
X74560Y-31287D01*
X74560Y-31712D01*
X74593Y-31880D01*
X74688Y-32023D01*
X74831Y-32119D01*
X75000Y-32152D01*
X75168Y-32119D01*
X75311Y-32023D01*
X75406Y-31880D01*
X75440Y-31712D01*
X75440Y-37832D01*
X74440Y-36832D01*
X74440Y-31712D01*
X74440Y-31287D01*
X74406Y-31119D01*
X74311Y-30976D01*
X74168Y-30880D01*
X74000Y-30847D01*
X73831Y-30880D01*
X73688Y-30976D01*
X73593Y-31119D01*
X73560Y-31287D01*
X73560Y-31712D01*
X73593Y-31880D01*
X73688Y-32023D01*
X73831Y-32119D01*
X74000Y-32152D01*
X74168Y-32119D01*
X74311Y-32023D01*
X74406Y-31880D01*
X74440Y-31712D01*
X74440Y-36832D01*
X73440Y-35832D01*
X73440Y-31712D01*
X73440Y-31287D01*
X73406Y-31119D01*
X73311Y-30976D01*
X73168Y-30880D01*
X73000Y-30847D01*
X72831Y-30880D01*
X72688Y-30976D01*
X72593Y-31119D01*
X72560Y-31287D01*
X72560Y-31712D01*
X72593Y-31880D01*
X72688Y-32023D01*
X72831Y-32119D01*
X73000Y-32152D01*
X73168Y-32119D01*
X73311Y-32023D01*
X73406Y-31880D01*
X73440Y-31712D01*
X73440Y-35832D01*
X72440Y-34832D01*
X72440Y-31712D01*
X72440Y-31287D01*
X72406Y-31119D01*
X72311Y-30976D01*
X72168Y-30880D01*
X72000Y-30847D01*
X71831Y-30880D01*
X71688Y-30976D01*
X71593Y-31119D01*
X71560Y-31287D01*
X71560Y-31712D01*
X71593Y-31880D01*
X71688Y-32023D01*
X71831Y-32119D01*
X72000Y-32152D01*
X72168Y-32119D01*
X72311Y-32023D01*
X72406Y-31880D01*
X72440Y-31712D01*
X72440Y-34832D01*
X70440Y-32832D01*
X70440Y-31712D01*
X70440Y-31287D01*
X70406Y-31119D01*
X70311Y-30976D01*
X70168Y-30880D01*
X70000Y-30847D01*
X69831Y-30880D01*
X69688Y-30976D01*
X69593Y-31119D01*
X69560Y-31287D01*
X69560Y-31712D01*
X69593Y-31880D01*
X69688Y-32023D01*
X69831Y-32119D01*
X70000Y-32152D01*
X70168Y-32119D01*
X70311Y-32023D01*
X70406Y-31880D01*
X70440Y-31712D01*
X70440Y-32832D01*
X69660Y-32052D01*
X69601Y-32013D01*
X69532Y-31999D01*
X69327Y-31999D01*
X69406Y-31880D01*
X69440Y-31712D01*
X69440Y-31287D01*
X69406Y-31119D01*
X69311Y-30976D01*
X69168Y-30880D01*
X69000Y-30847D01*
X68831Y-30880D01*
X68688Y-30976D01*
X68593Y-31119D01*
X68560Y-31287D01*
X68560Y-31712D01*
X68593Y-31880D01*
X68672Y-31999D01*
X68327Y-31999D01*
X68406Y-31880D01*
X68440Y-31712D01*
X68440Y-31287D01*
X68406Y-31119D01*
X68311Y-30976D01*
X68168Y-30880D01*
X68000Y-30847D01*
X67831Y-30880D01*
X67688Y-30976D01*
X67593Y-31119D01*
X67560Y-31287D01*
X67560Y-31712D01*
X67593Y-31880D01*
X67672Y-31999D01*
X67327Y-31999D01*
X67406Y-31880D01*
X67440Y-31712D01*
X67440Y-31287D01*
X67406Y-31119D01*
X67311Y-30976D01*
X67168Y-30880D01*
X67000Y-30847D01*
X66831Y-30880D01*
X66688Y-30976D01*
X66593Y-31119D01*
X66560Y-31287D01*
X66560Y-31712D01*
X66593Y-31880D01*
X66672Y-31999D01*
X66327Y-31999D01*
X66406Y-31880D01*
X66440Y-31712D01*
X66440Y-31287D01*
X66406Y-31119D01*
X66311Y-30976D01*
X66168Y-30880D01*
X66000Y-30847D01*
X65831Y-30880D01*
X65688Y-30976D01*
X65593Y-31119D01*
X65560Y-31287D01*
X65560Y-31712D01*
X65593Y-31880D01*
X65672Y-31999D01*
X65327Y-31999D01*
X65406Y-31880D01*
X65440Y-31712D01*
X65440Y-31287D01*
X65406Y-31119D01*
X65311Y-30976D01*
X65168Y-30880D01*
X65000Y-30847D01*
X64831Y-30880D01*
X64688Y-30976D01*
X64593Y-31119D01*
X64560Y-31287D01*
X64560Y-31712D01*
X64593Y-31880D01*
X64672Y-31999D01*
X64327Y-31999D01*
X64406Y-31880D01*
X64440Y-31712D01*
X64440Y-31287D01*
X64406Y-31119D01*
X64311Y-30976D01*
X64168Y-30880D01*
X64000Y-30847D01*
X63831Y-30880D01*
X63688Y-30976D01*
X63593Y-31119D01*
X63560Y-31287D01*
X63560Y-31712D01*
X63593Y-31880D01*
X63672Y-31999D01*
X63440Y-31999D01*
X63440Y-31712D01*
X63440Y-31287D01*
X63406Y-31119D01*
X63311Y-30976D01*
X63168Y-30880D01*
X63000Y-30847D01*
X62831Y-30880D01*
X62688Y-30976D01*
X62593Y-31119D01*
X62560Y-31287D01*
X62560Y-31712D01*
X62593Y-31880D01*
X62688Y-32023D01*
X62831Y-32119D01*
X63000Y-32152D01*
X63168Y-32119D01*
X63311Y-32023D01*
X63406Y-31880D01*
X63440Y-31712D01*
X63440Y-31999D01*
X63430Y-31999D01*
X63361Y-32013D01*
X63302Y-32052D01*
X63122Y-32232D01*
X63083Y-32290D01*
X63070Y-32359D01*
X63070Y-32406D01*
X63056Y-32420D01*
X63035Y-32472D01*
X63034Y-32527D01*
X63034Y-32960D01*
X62965Y-32960D01*
X62965Y-32472D01*
X62943Y-32420D01*
X62904Y-32381D01*
X62852Y-32360D01*
X62797Y-32359D01*
X62647Y-32359D01*
X62595Y-32381D01*
X62556Y-32420D01*
X62535Y-32472D01*
X62534Y-32527D01*
X62534Y-33027D01*
X62556Y-33079D01*
X62570Y-33092D01*
X62570Y-33140D01*
X62583Y-33209D01*
X62622Y-33267D01*
X62681Y-33306D01*
X62750Y-33320D01*
X63282Y-33320D01*
X61840Y-34762D01*
X61840Y-31712D01*
X61840Y-31287D01*
X61806Y-31119D01*
X61711Y-30976D01*
X61568Y-30880D01*
X61400Y-30847D01*
X61231Y-30880D01*
X61088Y-30976D01*
X60993Y-31119D01*
X60960Y-31287D01*
X60960Y-31712D01*
X60993Y-31880D01*
X61088Y-32023D01*
X61231Y-32119D01*
X61400Y-32152D01*
X61568Y-32119D01*
X61711Y-32023D01*
X61806Y-31880D01*
X61840Y-31712D01*
X61840Y-34762D01*
X60840Y-35762D01*
X60840Y-31712D01*
X60840Y-31287D01*
X60806Y-31119D01*
X60711Y-30976D01*
X60568Y-30880D01*
X60400Y-30847D01*
X60231Y-30880D01*
X60088Y-30976D01*
X59993Y-31119D01*
X59960Y-31287D01*
X59960Y-31712D01*
X59993Y-31880D01*
X60088Y-32023D01*
X60231Y-32119D01*
X60400Y-32152D01*
X60568Y-32119D01*
X60711Y-32023D01*
X60806Y-31880D01*
X60840Y-31712D01*
X60840Y-35762D01*
X60112Y-36490D01*
X59840Y-36490D01*
X59840Y-31712D01*
X59840Y-31287D01*
X59806Y-31119D01*
X59711Y-30976D01*
X59568Y-30880D01*
X59400Y-30847D01*
X59231Y-30880D01*
X59088Y-30976D01*
X58993Y-31119D01*
X58960Y-31287D01*
X58960Y-31712D01*
X58993Y-31880D01*
X59088Y-32023D01*
X59231Y-32119D01*
X59400Y-32152D01*
X59568Y-32119D01*
X59711Y-32023D01*
X59806Y-31880D01*
X59840Y-31712D01*
X59840Y-36490D01*
X58840Y-36490D01*
X58840Y-31712D01*
X58840Y-31287D01*
X58806Y-31119D01*
X58711Y-30976D01*
X58568Y-30880D01*
X58400Y-30847D01*
X58231Y-30880D01*
X58088Y-30976D01*
X57993Y-31119D01*
X57960Y-31287D01*
X57960Y-31712D01*
X57993Y-31880D01*
X58088Y-32023D01*
X58231Y-32119D01*
X58400Y-32152D01*
X58568Y-32119D01*
X58711Y-32023D01*
X58806Y-31880D01*
X58840Y-31712D01*
X58840Y-36490D01*
X57840Y-36490D01*
X57840Y-31712D01*
X57840Y-31287D01*
X57806Y-31119D01*
X57711Y-30976D01*
X57568Y-30880D01*
X57400Y-30847D01*
X57231Y-30880D01*
X57088Y-30976D01*
X56993Y-31119D01*
X56960Y-31287D01*
X56960Y-31712D01*
X56993Y-31880D01*
X57088Y-32023D01*
X57231Y-32119D01*
X57400Y-32152D01*
X57568Y-32119D01*
X57711Y-32023D01*
X57806Y-31880D01*
X57840Y-31712D01*
X57840Y-36490D01*
X56840Y-36490D01*
X56840Y-31712D01*
X56840Y-31287D01*
X56806Y-31119D01*
X56711Y-30976D01*
X56568Y-30880D01*
X56400Y-30847D01*
X56231Y-30880D01*
X56088Y-30976D01*
X55993Y-31119D01*
X55960Y-31287D01*
X55960Y-31712D01*
X55993Y-31880D01*
X56088Y-32023D01*
X56231Y-32119D01*
X56400Y-32152D01*
X56568Y-32119D01*
X56711Y-32023D01*
X56806Y-31880D01*
X56840Y-31712D01*
X56840Y-36490D01*
X55840Y-36490D01*
X55840Y-31712D01*
X55840Y-31287D01*
X55806Y-31119D01*
X55711Y-30976D01*
X55568Y-30880D01*
X55400Y-30847D01*
X55231Y-30880D01*
X55088Y-30976D01*
X54993Y-31119D01*
X54960Y-31287D01*
X54960Y-31712D01*
X54993Y-31880D01*
X55088Y-32023D01*
X55231Y-32119D01*
X55400Y-32152D01*
X55568Y-32119D01*
X55711Y-32023D01*
X55806Y-31880D01*
X55840Y-31712D01*
X55840Y-36490D01*
X54840Y-36490D01*
X54840Y-31712D01*
X54840Y-31287D01*
X54806Y-31119D01*
X54711Y-30976D01*
X54568Y-30880D01*
X54400Y-30847D01*
X54231Y-30880D01*
X54088Y-30976D01*
X53993Y-31119D01*
X53960Y-31287D01*
X53960Y-31712D01*
X53993Y-31880D01*
X54088Y-32023D01*
X54231Y-32119D01*
X54400Y-32152D01*
X54568Y-32119D01*
X54711Y-32023D01*
X54806Y-31880D01*
X54840Y-31712D01*
X54840Y-36490D01*
X53840Y-36490D01*
X53840Y-31712D01*
X53840Y-31287D01*
X53806Y-31119D01*
X53711Y-30976D01*
X53568Y-30880D01*
X53400Y-30847D01*
X53231Y-30880D01*
X53088Y-30976D01*
X52993Y-31119D01*
X52960Y-31287D01*
X52960Y-31712D01*
X52993Y-31880D01*
X53088Y-32023D01*
X53231Y-32119D01*
X53400Y-32152D01*
X53568Y-32119D01*
X53711Y-32023D01*
X53806Y-31880D01*
X53840Y-31712D01*
X53840Y-36490D01*
X51890Y-36490D01*
X51890Y-35662D01*
X51823Y-35501D01*
X51699Y-35377D01*
X51537Y-35310D01*
X51362Y-35309D01*
X51201Y-35376D01*
X51077Y-35500D01*
X51010Y-35662D01*
X51009Y-35837D01*
X51076Y-35998D01*
X51200Y-36122D01*
X51362Y-36189D01*
X51537Y-36190D01*
X51698Y-36123D01*
X51822Y-35999D01*
X51889Y-35837D01*
X51890Y-35662D01*
X51890Y-36490D01*
X51812Y-36490D01*
X51699Y-36377D01*
X51537Y-36310D01*
X51362Y-36309D01*
X51201Y-36376D01*
X51077Y-36500D01*
X51010Y-36662D01*
X51009Y-36837D01*
X51076Y-36998D01*
X51200Y-37122D01*
X51362Y-37189D01*
X51537Y-37190D01*
X51698Y-37123D01*
X51812Y-37010D01*
X51822Y-37010D01*
X51522Y-37310D01*
X51362Y-37309D01*
X51201Y-37376D01*
X51077Y-37500D01*
X51010Y-37662D01*
X51009Y-37837D01*
X51076Y-37998D01*
X51200Y-38122D01*
X51362Y-38189D01*
X51537Y-38190D01*
X51698Y-38123D01*
X51822Y-37999D01*
X51889Y-37837D01*
X51890Y-37677D01*
X52130Y-37436D01*
X52640Y-37436D01*
X52627Y-37450D01*
X52560Y-37612D01*
X52559Y-37787D01*
X52626Y-37948D01*
X52750Y-38072D01*
X52912Y-38139D01*
X53087Y-38140D01*
X53248Y-38073D01*
X53372Y-37949D01*
X53439Y-37787D01*
X53440Y-37612D01*
X53373Y-37451D01*
X53359Y-37436D01*
X60293Y-37436D01*
X60392Y-37417D01*
X60477Y-37360D01*
X64348Y-33489D01*
X64348Y-34118D01*
X62407Y-36058D01*
X62368Y-36117D01*
X62354Y-36186D01*
X62354Y-40894D01*
X62368Y-40963D01*
X62407Y-41022D01*
X62556Y-41170D01*
X62535Y-41222D01*
X62534Y-41277D01*
X62534Y-41710D01*
X56229Y-41710D01*
X56146Y-41726D01*
X56130Y-41729D01*
X56046Y-41786D01*
X53436Y-44395D01*
X53439Y-44387D01*
X53440Y-44212D01*
X53440Y-43212D01*
X53440Y-38612D01*
X53373Y-38451D01*
X53249Y-38327D01*
X53087Y-38260D01*
X52912Y-38259D01*
X52751Y-38326D01*
X52627Y-38450D01*
X52560Y-38612D01*
X52559Y-38787D01*
X52626Y-38948D01*
X52750Y-39072D01*
X52912Y-39139D01*
X53087Y-39140D01*
X53248Y-39073D01*
X53372Y-38949D01*
X53439Y-38787D01*
X53440Y-38612D01*
X53440Y-43212D01*
X53373Y-43051D01*
X53249Y-42927D01*
X53087Y-42860D01*
X52912Y-42859D01*
X52751Y-42926D01*
X52627Y-43050D01*
X52560Y-43212D01*
X52559Y-43387D01*
X52626Y-43548D01*
X52750Y-43672D01*
X52912Y-43739D01*
X53087Y-43740D01*
X53248Y-43673D01*
X53372Y-43549D01*
X53439Y-43387D01*
X53440Y-43212D01*
X53440Y-44212D01*
X53373Y-44051D01*
X53249Y-43927D01*
X53087Y-43860D01*
X52912Y-43859D01*
X52751Y-43926D01*
X52627Y-44050D01*
X52560Y-44212D01*
X52559Y-44387D01*
X52626Y-44548D01*
X52750Y-44672D01*
X52912Y-44739D01*
X53087Y-44740D01*
X53095Y-44736D01*
X51890Y-45942D01*
X51890Y-45662D01*
X51890Y-44662D01*
X51823Y-44501D01*
X51699Y-44377D01*
X51537Y-44310D01*
X51362Y-44309D01*
X51201Y-44376D01*
X51077Y-44500D01*
X51010Y-44662D01*
X51009Y-44837D01*
X51076Y-44998D01*
X51200Y-45122D01*
X51362Y-45189D01*
X51537Y-45190D01*
X51698Y-45123D01*
X51822Y-44999D01*
X51889Y-44837D01*
X51890Y-44662D01*
X51890Y-45662D01*
X51823Y-45501D01*
X51699Y-45377D01*
X51537Y-45310D01*
X51362Y-45309D01*
X51201Y-45376D01*
X51077Y-45500D01*
X51010Y-45662D01*
X51009Y-45837D01*
X51076Y-45998D01*
X51200Y-46122D01*
X51362Y-46189D01*
X51537Y-46190D01*
X51698Y-46123D01*
X51822Y-45999D01*
X51889Y-45837D01*
X51890Y-45662D01*
X51890Y-45942D01*
X51522Y-46310D01*
X51362Y-46309D01*
X51201Y-46376D01*
X51077Y-46500D01*
X51010Y-46662D01*
X51009Y-46837D01*
X51076Y-46998D01*
X51200Y-47122D01*
X51362Y-47189D01*
X51537Y-47190D01*
X51698Y-47123D01*
X51822Y-46999D01*
X51889Y-46837D01*
X51890Y-46677D01*
X56337Y-42230D01*
X56602Y-42230D01*
X51522Y-47310D01*
X51362Y-47309D01*
X51201Y-47376D01*
X51077Y-47500D01*
X51010Y-47662D01*
X51009Y-47837D01*
X51076Y-47998D01*
X51200Y-48122D01*
X51362Y-48189D01*
X51537Y-48190D01*
X51698Y-48123D01*
X51822Y-47999D01*
X51889Y-47837D01*
X51890Y-47677D01*
X56979Y-42588D01*
X63892Y-42588D01*
X63991Y-42568D01*
X64075Y-42511D01*
X64433Y-42153D01*
X64433Y-42153D01*
X64471Y-42097D01*
X64490Y-42069D01*
X64490Y-42069D01*
X64509Y-41970D01*
X64510Y-41970D01*
X64510Y-41924D01*
X64539Y-41953D01*
X64627Y-41990D01*
X64652Y-41990D01*
X64712Y-41930D01*
X64712Y-41560D01*
X64682Y-41560D01*
X64682Y-41440D01*
X64712Y-41440D01*
X64712Y-41070D01*
X64652Y-41010D01*
X64627Y-41009D01*
X64539Y-41046D01*
X64471Y-41113D01*
X64445Y-41175D01*
X64443Y-41170D01*
X64404Y-41131D01*
X64352Y-41110D01*
X64297Y-41109D01*
X64147Y-41109D01*
X64095Y-41131D01*
X64056Y-41170D01*
X64035Y-41222D01*
X64034Y-41277D01*
X64034Y-41362D01*
X64009Y-41400D01*
X64000Y-41449D01*
X63990Y-41400D01*
X63965Y-41362D01*
X63965Y-41222D01*
X63943Y-41170D01*
X63904Y-41131D01*
X63852Y-41110D01*
X63797Y-41109D01*
X63647Y-41109D01*
X63595Y-41131D01*
X63556Y-41170D01*
X63535Y-41222D01*
X63534Y-41277D01*
X63534Y-41362D01*
X63509Y-41400D01*
X63490Y-41500D01*
X63490Y-41710D01*
X63465Y-41710D01*
X63465Y-41222D01*
X63443Y-41170D01*
X63430Y-41157D01*
X63430Y-41109D01*
X63416Y-41040D01*
X63377Y-40982D01*
X62930Y-40535D01*
X62930Y-38097D01*
X63008Y-38175D01*
X63124Y-38223D01*
X63249Y-38224D01*
X63365Y-38176D01*
X63454Y-38087D01*
X63502Y-37971D01*
X63502Y-37961D01*
X63916Y-37547D01*
X63916Y-37547D01*
X63930Y-37526D01*
X63951Y-37547D01*
X64067Y-37595D01*
X64192Y-37595D01*
X64308Y-37547D01*
X64397Y-37459D01*
X64414Y-37416D01*
X64433Y-37403D01*
X64490Y-37319D01*
X64510Y-37220D01*
X64510Y-37174D01*
X64539Y-37203D01*
X64627Y-37240D01*
X64652Y-37240D01*
X64712Y-37180D01*
X64712Y-36810D01*
X64682Y-36810D01*
X64682Y-36690D01*
X64712Y-36690D01*
X64712Y-36320D01*
X64652Y-36260D01*
X64627Y-36259D01*
X64539Y-36296D01*
X64471Y-36363D01*
X64445Y-36425D01*
X64443Y-36420D01*
X64404Y-36381D01*
X64352Y-36360D01*
X64297Y-36359D01*
X64147Y-36359D01*
X64095Y-36381D01*
X64056Y-36420D01*
X64035Y-36472D01*
X64034Y-36527D01*
X64034Y-36612D01*
X64009Y-36650D01*
X63999Y-36699D01*
X63990Y-36650D01*
X63965Y-36612D01*
X63965Y-36472D01*
X63957Y-36454D01*
X63970Y-36446D01*
X63975Y-36441D01*
X63989Y-36420D01*
X64015Y-36394D01*
X64030Y-36359D01*
X64044Y-36337D01*
X64049Y-36312D01*
X64063Y-36278D01*
X64063Y-36240D01*
X64069Y-36215D01*
X64064Y-36190D01*
X64064Y-36153D01*
X64049Y-36118D01*
X64044Y-36093D01*
X64030Y-36071D01*
X64016Y-36037D01*
X63989Y-36010D01*
X63975Y-35989D01*
X63954Y-35975D01*
X63927Y-35948D01*
X63892Y-35934D01*
X63871Y-35919D01*
X63846Y-35914D01*
X63811Y-35900D01*
X63774Y-35900D01*
X63749Y-35895D01*
X63727Y-35899D01*
X63250Y-35899D01*
X63127Y-35924D01*
X63023Y-35993D01*
X62954Y-36097D01*
X62930Y-36219D01*
X62930Y-36407D01*
X62904Y-36381D01*
X62852Y-36360D01*
X62797Y-36359D01*
X62714Y-36359D01*
X62714Y-36260D01*
X64655Y-34319D01*
X64655Y-34319D01*
X64694Y-34261D01*
X64708Y-34192D01*
X64708Y-34192D01*
X64708Y-33184D01*
X64712Y-33180D01*
X64712Y-32810D01*
X64708Y-32810D01*
X64708Y-32690D01*
X64712Y-32690D01*
X64712Y-32682D01*
X64787Y-32682D01*
X64787Y-32690D01*
X64995Y-32690D01*
X65005Y-32690D01*
X65212Y-32690D01*
X65212Y-32682D01*
X65287Y-32682D01*
X65287Y-32690D01*
X65495Y-32690D01*
X65505Y-32690D01*
X65712Y-32690D01*
X65712Y-32682D01*
X65787Y-32682D01*
X65787Y-32690D01*
X65995Y-32690D01*
X66005Y-32690D01*
X66212Y-32690D01*
X66212Y-32682D01*
X66287Y-32682D01*
X66287Y-32690D01*
X66317Y-32690D01*
X66317Y-32810D01*
X66287Y-32810D01*
X66287Y-33180D01*
X66347Y-33240D01*
X66372Y-33240D01*
X66440Y-33211D01*
X66435Y-33225D01*
X66434Y-33351D01*
X66482Y-33467D01*
X66571Y-33555D01*
X66687Y-33603D01*
X66812Y-33603D01*
X66928Y-33556D01*
X66990Y-33494D01*
X66990Y-33559D01*
X67009Y-33659D01*
X67066Y-33743D01*
X68540Y-35218D01*
X68540Y-35218D01*
X68625Y-35274D01*
X68625Y-35274D01*
X68641Y-35278D01*
X68724Y-35294D01*
X68844Y-35294D01*
X68850Y-35301D01*
X68966Y-35349D01*
X69092Y-35349D01*
X69207Y-35301D01*
X69269Y-35239D01*
X69320Y-35290D01*
X69940Y-35290D01*
X69940Y-34920D01*
X69880Y-34860D01*
X69547Y-34859D01*
X69452Y-34860D01*
X69363Y-34896D01*
X69328Y-34932D01*
X69296Y-34856D01*
X69208Y-34767D01*
X69092Y-34719D01*
X68967Y-34719D01*
X68851Y-34767D01*
X68844Y-34774D01*
X68832Y-34774D01*
X68527Y-34470D01*
X69219Y-34470D01*
X69377Y-34470D01*
X69381Y-34479D01*
X69420Y-34518D01*
X69472Y-34539D01*
X69527Y-34540D01*
X70460Y-34540D01*
X70460Y-34859D01*
X70452Y-34859D01*
X70120Y-34860D01*
X70060Y-34920D01*
X70060Y-35290D01*
X70067Y-35290D01*
X70067Y-35410D01*
X70060Y-35410D01*
X70060Y-35417D01*
X69940Y-35417D01*
X69940Y-35410D01*
X69320Y-35410D01*
X69260Y-35470D01*
X69259Y-35647D01*
X69296Y-35735D01*
X69363Y-35803D01*
X69446Y-35837D01*
X66953Y-35837D01*
X66884Y-35851D01*
X66865Y-35864D01*
X66826Y-35890D01*
X66432Y-36284D01*
X66372Y-36259D01*
X66347Y-36260D01*
X66287Y-36320D01*
X66287Y-36690D01*
X66290Y-36690D01*
X66290Y-36810D01*
X66287Y-36810D01*
X66287Y-36817D01*
X66212Y-36817D01*
X66212Y-36810D01*
X66212Y-36690D01*
X66212Y-36320D01*
X66212Y-33180D01*
X66212Y-32810D01*
X66005Y-32810D01*
X65995Y-32810D01*
X65787Y-32810D01*
X65787Y-33180D01*
X65847Y-33240D01*
X65872Y-33240D01*
X65960Y-33203D01*
X66000Y-33164D01*
X66039Y-33203D01*
X66127Y-33240D01*
X66152Y-33240D01*
X66212Y-33180D01*
X66212Y-36320D01*
X66152Y-36260D01*
X66127Y-36259D01*
X66039Y-36296D01*
X66000Y-36335D01*
X65960Y-36296D01*
X65872Y-36259D01*
X65847Y-36260D01*
X65787Y-36320D01*
X65787Y-36690D01*
X65995Y-36690D01*
X66005Y-36690D01*
X66212Y-36690D01*
X66212Y-36810D01*
X66005Y-36810D01*
X65995Y-36810D01*
X65787Y-36810D01*
X65787Y-37180D01*
X65847Y-37240D01*
X65872Y-37240D01*
X65960Y-37203D01*
X66000Y-37164D01*
X66039Y-37203D01*
X66057Y-37211D01*
X65712Y-37556D01*
X65712Y-37180D01*
X65712Y-36810D01*
X65712Y-36690D01*
X65712Y-36320D01*
X65712Y-33180D01*
X65712Y-32810D01*
X65505Y-32810D01*
X65495Y-32810D01*
X65287Y-32810D01*
X65287Y-33180D01*
X65347Y-33240D01*
X65372Y-33240D01*
X65460Y-33203D01*
X65500Y-33164D01*
X65539Y-33203D01*
X65627Y-33240D01*
X65652Y-33240D01*
X65712Y-33180D01*
X65712Y-36320D01*
X65652Y-36260D01*
X65627Y-36259D01*
X65539Y-36296D01*
X65500Y-36335D01*
X65460Y-36296D01*
X65372Y-36259D01*
X65347Y-36260D01*
X65287Y-36320D01*
X65287Y-36690D01*
X65495Y-36690D01*
X65505Y-36690D01*
X65712Y-36690D01*
X65712Y-36810D01*
X65505Y-36810D01*
X65495Y-36810D01*
X65287Y-36810D01*
X65287Y-37180D01*
X65347Y-37240D01*
X65372Y-37240D01*
X65460Y-37203D01*
X65500Y-37164D01*
X65539Y-37203D01*
X65627Y-37240D01*
X65652Y-37240D01*
X65712Y-37180D01*
X65712Y-37556D01*
X65381Y-37887D01*
X65342Y-37945D01*
X65328Y-38014D01*
X65328Y-39645D01*
X65342Y-39714D01*
X65381Y-39773D01*
X66522Y-40914D01*
X66411Y-41025D01*
X66372Y-41009D01*
X66347Y-41010D01*
X66287Y-41070D01*
X66287Y-41440D01*
X66309Y-41440D01*
X66309Y-41560D01*
X66287Y-41560D01*
X66287Y-41567D01*
X66212Y-41567D01*
X66212Y-41560D01*
X66212Y-41440D01*
X66212Y-41070D01*
X66152Y-41010D01*
X66127Y-41009D01*
X66039Y-41046D01*
X66000Y-41085D01*
X65960Y-41046D01*
X65872Y-41009D01*
X65847Y-41010D01*
X65787Y-41070D01*
X65787Y-41440D01*
X65995Y-41440D01*
X66005Y-41440D01*
X66212Y-41440D01*
X66212Y-41560D01*
X66005Y-41560D01*
X65995Y-41560D01*
X65787Y-41560D01*
X65787Y-41930D01*
X65847Y-41990D01*
X65872Y-41990D01*
X65960Y-41953D01*
X66000Y-41914D01*
X66039Y-41953D01*
X66058Y-41961D01*
X65712Y-42306D01*
X65712Y-41930D01*
X65712Y-41560D01*
X65712Y-41440D01*
X65712Y-41070D01*
X65652Y-41010D01*
X65627Y-41009D01*
X65539Y-41046D01*
X65500Y-41085D01*
X65460Y-41046D01*
X65372Y-41009D01*
X65347Y-41010D01*
X65287Y-41070D01*
X65287Y-41440D01*
X65495Y-41440D01*
X65505Y-41440D01*
X65712Y-41440D01*
X65712Y-41560D01*
X65505Y-41560D01*
X65495Y-41560D01*
X65287Y-41560D01*
X65287Y-41930D01*
X65347Y-41990D01*
X65372Y-41990D01*
X65460Y-41953D01*
X65500Y-41914D01*
X65539Y-41953D01*
X65627Y-41990D01*
X65652Y-41990D01*
X65712Y-41930D01*
X65712Y-42306D01*
X65212Y-42806D01*
X65212Y-41930D01*
X65212Y-41560D01*
X65212Y-41440D01*
X65212Y-41070D01*
X65212Y-37180D01*
X65212Y-36810D01*
X65212Y-36690D01*
X65212Y-36320D01*
X65212Y-33180D01*
X65212Y-32810D01*
X65005Y-32810D01*
X64995Y-32810D01*
X64787Y-32810D01*
X64787Y-33180D01*
X64847Y-33240D01*
X64872Y-33240D01*
X64960Y-33203D01*
X65000Y-33164D01*
X65039Y-33203D01*
X65127Y-33240D01*
X65152Y-33240D01*
X65212Y-33180D01*
X65212Y-36320D01*
X65152Y-36260D01*
X65127Y-36259D01*
X65039Y-36296D01*
X65000Y-36335D01*
X64960Y-36296D01*
X64872Y-36259D01*
X64847Y-36260D01*
X64787Y-36320D01*
X64787Y-36690D01*
X64995Y-36690D01*
X65005Y-36690D01*
X65212Y-36690D01*
X65212Y-36810D01*
X65005Y-36810D01*
X64995Y-36810D01*
X64787Y-36810D01*
X64787Y-37180D01*
X64847Y-37240D01*
X64872Y-37240D01*
X64960Y-37203D01*
X65000Y-37164D01*
X65039Y-37203D01*
X65127Y-37240D01*
X65152Y-37240D01*
X65212Y-37180D01*
X65212Y-41070D01*
X65152Y-41010D01*
X65127Y-41009D01*
X65039Y-41046D01*
X65000Y-41085D01*
X64960Y-41046D01*
X64872Y-41009D01*
X64847Y-41010D01*
X64787Y-41070D01*
X64787Y-41440D01*
X64995Y-41440D01*
X65005Y-41440D01*
X65212Y-41440D01*
X65212Y-41560D01*
X65005Y-41560D01*
X64995Y-41560D01*
X64787Y-41560D01*
X64787Y-41930D01*
X64847Y-41990D01*
X64872Y-41990D01*
X64960Y-41953D01*
X65000Y-41914D01*
X65039Y-41953D01*
X65127Y-41990D01*
X65152Y-41990D01*
X65212Y-41930D01*
X65212Y-42806D01*
X64485Y-43534D01*
X63786Y-43534D01*
X63717Y-43547D01*
X63658Y-43586D01*
X57872Y-49372D01*
X57833Y-49431D01*
X57820Y-49500D01*
X57820Y-49888D01*
X57688Y-49976D01*
X57593Y-50119D01*
X57560Y-50287D01*
X57560Y-50712D01*
X57593Y-50880D01*
X57649Y-50964D01*
X57350Y-50964D01*
X57406Y-50880D01*
X57440Y-50712D01*
X57440Y-50287D01*
X57406Y-50119D01*
X57311Y-49976D01*
X57168Y-49880D01*
X57000Y-49847D01*
X56831Y-49880D01*
X56688Y-49976D01*
X56593Y-50119D01*
X56560Y-50287D01*
X56560Y-50712D01*
X56593Y-50880D01*
X56649Y-50964D01*
X56350Y-50964D01*
X56406Y-50880D01*
X56440Y-50712D01*
X56440Y-50287D01*
X56406Y-50119D01*
X56311Y-49976D01*
X56168Y-49880D01*
X56000Y-49847D01*
X55831Y-49880D01*
X55688Y-49976D01*
X55593Y-50119D01*
X55560Y-50287D01*
X55560Y-50712D01*
X55593Y-50880D01*
X55649Y-50964D01*
X53582Y-50964D01*
X53440Y-50822D01*
X53440Y-48612D01*
X53440Y-47612D01*
X53373Y-47451D01*
X53249Y-47327D01*
X53087Y-47260D01*
X52912Y-47259D01*
X52751Y-47326D01*
X52627Y-47450D01*
X52560Y-47612D01*
X52559Y-47787D01*
X52626Y-47948D01*
X52750Y-48072D01*
X52912Y-48139D01*
X53087Y-48140D01*
X53248Y-48073D01*
X53372Y-47949D01*
X53439Y-47787D01*
X53440Y-47612D01*
X53440Y-48612D01*
X53373Y-48451D01*
X53249Y-48327D01*
X53087Y-48260D01*
X52912Y-48259D01*
X52751Y-48326D01*
X52627Y-48450D01*
X52560Y-48612D01*
X52559Y-48787D01*
X52626Y-48948D01*
X52750Y-49072D01*
X52912Y-49139D01*
X53087Y-49140D01*
X53248Y-49073D01*
X53372Y-48949D01*
X53439Y-48787D01*
X53440Y-48612D01*
X53440Y-50822D01*
X50268Y-47651D01*
X50362Y-47689D01*
X50537Y-47690D01*
X50698Y-47623D01*
X50822Y-47499D01*
X50889Y-47337D01*
X50890Y-47162D01*
X50823Y-47001D01*
X50770Y-46947D01*
X50770Y-46552D01*
X50822Y-46499D01*
X50889Y-46337D01*
X50890Y-46162D01*
X50823Y-46001D01*
X50770Y-45947D01*
X50770Y-45552D01*
X50822Y-45499D01*
X50889Y-45337D01*
X50890Y-45162D01*
X50823Y-45001D01*
X50770Y-44947D01*
X50770Y-44552D01*
X50822Y-44499D01*
X50889Y-44337D01*
X50890Y-44162D01*
X50823Y-44001D01*
X50699Y-43877D01*
X50672Y-43865D01*
X50672Y-37634D01*
X50698Y-37623D01*
X50822Y-37499D01*
X50889Y-37337D01*
X50890Y-37162D01*
X50823Y-37001D01*
X50770Y-36947D01*
X50770Y-36552D01*
X50822Y-36499D01*
X50889Y-36337D01*
X50890Y-36162D01*
X50823Y-36001D01*
X50770Y-35947D01*
X50770Y-35552D01*
X50822Y-35499D01*
X50889Y-35337D01*
X50890Y-35162D01*
X50823Y-35001D01*
X50770Y-34947D01*
X50770Y-34552D01*
X50822Y-34499D01*
X50830Y-34480D01*
X51097Y-34480D01*
X51077Y-34500D01*
X51010Y-34662D01*
X51009Y-34837D01*
X51076Y-34998D01*
X51200Y-35122D01*
X51362Y-35189D01*
X51537Y-35190D01*
X51698Y-35123D01*
X51822Y-34999D01*
X51889Y-34837D01*
X51890Y-34662D01*
X51823Y-34501D01*
X51802Y-34480D01*
X51858Y-34480D01*
X52494Y-35117D01*
X52598Y-35186D01*
X52721Y-35210D01*
X53325Y-35210D01*
X53325Y-35210D01*
X53447Y-35186D01*
X53551Y-35117D01*
X53660Y-35007D01*
X53674Y-34986D01*
X53701Y-34960D01*
X53715Y-34925D01*
X53730Y-34903D01*
X53734Y-34878D01*
X53749Y-34844D01*
X53749Y-34806D01*
X53754Y-34781D01*
X53749Y-34756D01*
X53749Y-34719D01*
X53735Y-34684D01*
X53730Y-34659D01*
X53715Y-34637D01*
X53701Y-34603D01*
X53674Y-34576D01*
X53660Y-34555D01*
X53639Y-34541D01*
X53613Y-34514D01*
X53578Y-34500D01*
X53556Y-34485D01*
X53531Y-34480D01*
X53497Y-34466D01*
X53459Y-34466D01*
X53434Y-34461D01*
X53409Y-34466D01*
X53407Y-34466D01*
X53439Y-34387D01*
X53440Y-34212D01*
X53440Y-33212D01*
X53373Y-33051D01*
X53249Y-32927D01*
X53087Y-32860D01*
X52912Y-32859D01*
X52840Y-32890D01*
X52840Y-31712D01*
X52840Y-31287D01*
X52806Y-31119D01*
X52711Y-30976D01*
X52568Y-30880D01*
X52400Y-30847D01*
X52231Y-30880D01*
X52088Y-30976D01*
X51993Y-31119D01*
X51960Y-31287D01*
X51960Y-31712D01*
X51993Y-31880D01*
X52088Y-32023D01*
X52231Y-32119D01*
X52400Y-32152D01*
X52568Y-32119D01*
X52711Y-32023D01*
X52806Y-31880D01*
X52840Y-31712D01*
X52840Y-32890D01*
X52751Y-32926D01*
X52627Y-33050D01*
X52560Y-33212D01*
X52559Y-33387D01*
X52626Y-33548D01*
X52750Y-33672D01*
X52912Y-33739D01*
X53087Y-33740D01*
X53248Y-33673D01*
X53372Y-33549D01*
X53439Y-33387D01*
X53440Y-33212D01*
X53440Y-34212D01*
X53373Y-34051D01*
X53249Y-33927D01*
X53087Y-33860D01*
X52912Y-33859D01*
X52751Y-33926D01*
X52627Y-34050D01*
X52560Y-34212D01*
X52560Y-34277D01*
X52216Y-33934D01*
X52113Y-33864D01*
X51990Y-33840D01*
X50610Y-33840D01*
X50537Y-33810D01*
X50362Y-33809D01*
X50301Y-33835D01*
X48148Y-33835D01*
X48087Y-33810D01*
X47912Y-33809D01*
X47751Y-33876D01*
X47627Y-34000D01*
X47560Y-34162D01*
X47559Y-34337D01*
X47626Y-34498D01*
X47680Y-34552D01*
X47680Y-34947D01*
X47627Y-35000D01*
X47560Y-35162D01*
X47559Y-35337D01*
X47626Y-35498D01*
X47680Y-35552D01*
X47680Y-35947D01*
X47627Y-36000D01*
X47560Y-36162D01*
X47559Y-36337D01*
X47626Y-36498D01*
X47680Y-36552D01*
X47680Y-36947D01*
X47627Y-37000D01*
X47560Y-37162D01*
X47559Y-37337D01*
X47626Y-37498D01*
X47750Y-37622D01*
X47912Y-37689D01*
X48087Y-37690D01*
X48248Y-37623D01*
X48372Y-37499D01*
X48439Y-37337D01*
X48440Y-37162D01*
X48373Y-37001D01*
X48320Y-36947D01*
X48320Y-36552D01*
X48372Y-36499D01*
X48439Y-36337D01*
X48440Y-36162D01*
X48373Y-36001D01*
X48320Y-35947D01*
X48320Y-35552D01*
X48372Y-35499D01*
X48439Y-35337D01*
X48440Y-35162D01*
X48373Y-35001D01*
X48320Y-34947D01*
X48320Y-34552D01*
X48372Y-34499D01*
X48382Y-34475D01*
X48652Y-34475D01*
X48627Y-34500D01*
X48560Y-34662D01*
X48559Y-34837D01*
X48626Y-34998D01*
X48750Y-35122D01*
X48912Y-35189D01*
X49087Y-35190D01*
X49248Y-35123D01*
X49372Y-34999D01*
X49439Y-34837D01*
X49440Y-34662D01*
X49373Y-34501D01*
X49347Y-34475D01*
X50066Y-34475D01*
X50076Y-34498D01*
X50130Y-34552D01*
X50130Y-34947D01*
X50077Y-35000D01*
X50010Y-35162D01*
X50009Y-35337D01*
X50076Y-35498D01*
X50130Y-35552D01*
X50130Y-35947D01*
X50077Y-36000D01*
X50010Y-36162D01*
X50009Y-36337D01*
X50076Y-36498D01*
X50130Y-36552D01*
X50130Y-36947D01*
X50077Y-37000D01*
X50010Y-37162D01*
X50009Y-37337D01*
X50032Y-37391D01*
X50032Y-43832D01*
X49440Y-43832D01*
X49440Y-37662D01*
X49440Y-36662D01*
X49440Y-35662D01*
X49373Y-35501D01*
X49249Y-35377D01*
X49087Y-35310D01*
X48912Y-35309D01*
X48751Y-35376D01*
X48627Y-35500D01*
X48560Y-35662D01*
X48559Y-35837D01*
X48626Y-35998D01*
X48750Y-36122D01*
X48912Y-36189D01*
X49087Y-36190D01*
X49248Y-36123D01*
X49372Y-35999D01*
X49439Y-35837D01*
X49440Y-35662D01*
X49440Y-36662D01*
X49373Y-36501D01*
X49249Y-36377D01*
X49087Y-36310D01*
X48912Y-36309D01*
X48751Y-36376D01*
X48627Y-36500D01*
X48560Y-36662D01*
X48559Y-36837D01*
X48626Y-36998D01*
X48750Y-37122D01*
X48912Y-37189D01*
X49087Y-37190D01*
X49248Y-37123D01*
X49372Y-36999D01*
X49439Y-36837D01*
X49440Y-36662D01*
X49440Y-37662D01*
X49373Y-37501D01*
X49249Y-37377D01*
X49087Y-37310D01*
X48912Y-37309D01*
X48751Y-37376D01*
X48627Y-37500D01*
X48560Y-37662D01*
X48559Y-37837D01*
X48626Y-37998D01*
X48750Y-38122D01*
X48912Y-38189D01*
X49087Y-38190D01*
X49248Y-38123D01*
X49372Y-37999D01*
X49439Y-37837D01*
X49440Y-37662D01*
X49440Y-43832D01*
X48141Y-43832D01*
X48087Y-43810D01*
X47912Y-43809D01*
X47751Y-43876D01*
X47627Y-44000D01*
X47560Y-44162D01*
X47559Y-44337D01*
X47626Y-44498D01*
X47680Y-44552D01*
X47680Y-44947D01*
X47627Y-45000D01*
X47560Y-45162D01*
X47559Y-45337D01*
X47626Y-45498D01*
X47680Y-45552D01*
X47680Y-45947D01*
X47627Y-46000D01*
X47560Y-46162D01*
X47559Y-46337D01*
X47626Y-46498D01*
X47680Y-46552D01*
X47680Y-46947D01*
X47627Y-47000D01*
X47560Y-47162D01*
X47559Y-47337D01*
X47626Y-47498D01*
X47750Y-47622D01*
X47912Y-47689D01*
X48087Y-47690D01*
X48248Y-47623D01*
X48372Y-47499D01*
X48439Y-47337D01*
X48440Y-47162D01*
X48373Y-47001D01*
X48320Y-46947D01*
X48320Y-46552D01*
X48372Y-46499D01*
X48439Y-46337D01*
X48440Y-46162D01*
X48373Y-46001D01*
X48320Y-45947D01*
X48320Y-45552D01*
X48372Y-45499D01*
X48439Y-45337D01*
X48440Y-45162D01*
X48373Y-45001D01*
X48320Y-44947D01*
X48320Y-44552D01*
X48372Y-44499D01*
X48384Y-44472D01*
X48655Y-44472D01*
X48627Y-44500D01*
X48560Y-44662D01*
X48559Y-44837D01*
X48626Y-44998D01*
X48750Y-45122D01*
X48912Y-45189D01*
X49087Y-45190D01*
X49248Y-45123D01*
X49372Y-44999D01*
X49439Y-44837D01*
X49440Y-44662D01*
X49373Y-44501D01*
X49344Y-44472D01*
X50065Y-44472D01*
X50076Y-44498D01*
X50130Y-44552D01*
X50130Y-44947D01*
X50077Y-45000D01*
X50010Y-45162D01*
X50009Y-45337D01*
X50076Y-45498D01*
X50130Y-45552D01*
X50130Y-45947D01*
X50077Y-46000D01*
X50010Y-46162D01*
X50009Y-46337D01*
X50076Y-46498D01*
X50130Y-46552D01*
X50130Y-46947D01*
X50077Y-47000D01*
X50010Y-47162D01*
X50009Y-47337D01*
X50048Y-47431D01*
X49439Y-46822D01*
X49440Y-46662D01*
X49440Y-45662D01*
X49373Y-45501D01*
X49249Y-45377D01*
X49087Y-45310D01*
X48912Y-45309D01*
X48751Y-45376D01*
X48627Y-45500D01*
X48560Y-45662D01*
X48559Y-45837D01*
X48626Y-45998D01*
X48750Y-46122D01*
X48912Y-46189D01*
X49087Y-46190D01*
X49248Y-46123D01*
X49372Y-45999D01*
X49439Y-45837D01*
X49440Y-45662D01*
X49440Y-46662D01*
X49373Y-46501D01*
X49249Y-46377D01*
X49087Y-46310D01*
X48912Y-46309D01*
X48751Y-46376D01*
X48627Y-46500D01*
X48560Y-46662D01*
X48559Y-46837D01*
X48626Y-46998D01*
X48750Y-47122D01*
X48912Y-47189D01*
X49072Y-47190D01*
X53217Y-51335D01*
X50875Y-51335D01*
X51017Y-51276D01*
X51275Y-51018D01*
X51414Y-50682D01*
X51415Y-50318D01*
X51276Y-49982D01*
X51018Y-49724D01*
X50682Y-49585D01*
X50318Y-49584D01*
X49982Y-49723D01*
X49724Y-49981D01*
X49585Y-50317D01*
X49584Y-50681D01*
X49723Y-51017D01*
X49981Y-51275D01*
X50124Y-51335D01*
X49440Y-51335D01*
X49440Y-47662D01*
X49373Y-47501D01*
X49249Y-47377D01*
X49087Y-47310D01*
X48912Y-47309D01*
X48751Y-47376D01*
X48627Y-47500D01*
X48560Y-47662D01*
X48559Y-47837D01*
X48626Y-47998D01*
X48750Y-48122D01*
X48912Y-48189D01*
X49087Y-48190D01*
X49248Y-48123D01*
X49372Y-47999D01*
X49439Y-47837D01*
X49440Y-47662D01*
X49440Y-51335D01*
X46840Y-51335D01*
X46840Y-48612D01*
X46840Y-47612D01*
X46840Y-44212D01*
X46840Y-43212D01*
X46840Y-38612D01*
X46840Y-37612D01*
X46840Y-34212D01*
X46840Y-33212D01*
X46773Y-33051D01*
X46649Y-32927D01*
X46487Y-32860D01*
X46312Y-32859D01*
X46151Y-32926D01*
X46027Y-33050D01*
X45960Y-33212D01*
X45959Y-33387D01*
X46026Y-33548D01*
X46150Y-33672D01*
X46312Y-33739D01*
X46487Y-33740D01*
X46648Y-33673D01*
X46772Y-33549D01*
X46839Y-33387D01*
X46840Y-33212D01*
X46840Y-34212D01*
X46773Y-34051D01*
X46649Y-33927D01*
X46487Y-33860D01*
X46312Y-33859D01*
X46151Y-33926D01*
X46027Y-34050D01*
X45960Y-34212D01*
X45959Y-34387D01*
X46026Y-34548D01*
X46150Y-34672D01*
X46312Y-34739D01*
X46487Y-34740D01*
X46648Y-34673D01*
X46772Y-34549D01*
X46839Y-34387D01*
X46840Y-34212D01*
X46840Y-37612D01*
X46773Y-37451D01*
X46649Y-37327D01*
X46487Y-37260D01*
X46312Y-37259D01*
X46151Y-37326D01*
X46027Y-37450D01*
X45960Y-37612D01*
X45959Y-37787D01*
X46026Y-37948D01*
X46150Y-38072D01*
X46312Y-38139D01*
X46487Y-38140D01*
X46648Y-38073D01*
X46772Y-37949D01*
X46839Y-37787D01*
X46840Y-37612D01*
X46840Y-38612D01*
X46773Y-38451D01*
X46649Y-38327D01*
X46487Y-38260D01*
X46312Y-38259D01*
X46151Y-38326D01*
X46027Y-38450D01*
X45960Y-38612D01*
X45959Y-38787D01*
X46026Y-38948D01*
X46150Y-39072D01*
X46312Y-39139D01*
X46487Y-39140D01*
X46648Y-39073D01*
X46772Y-38949D01*
X46839Y-38787D01*
X46840Y-38612D01*
X46840Y-43212D01*
X46773Y-43051D01*
X46649Y-42927D01*
X46487Y-42860D01*
X46312Y-42859D01*
X46151Y-42926D01*
X46027Y-43050D01*
X45960Y-43212D01*
X45959Y-43387D01*
X46026Y-43548D01*
X46150Y-43672D01*
X46312Y-43739D01*
X46487Y-43740D01*
X46648Y-43673D01*
X46772Y-43549D01*
X46839Y-43387D01*
X46840Y-43212D01*
X46840Y-44212D01*
X46773Y-44051D01*
X46649Y-43927D01*
X46487Y-43860D01*
X46312Y-43859D01*
X46151Y-43926D01*
X46027Y-44050D01*
X45960Y-44212D01*
X45959Y-44387D01*
X46026Y-44548D01*
X46150Y-44672D01*
X46312Y-44739D01*
X46487Y-44740D01*
X46648Y-44673D01*
X46772Y-44549D01*
X46839Y-44387D01*
X46840Y-44212D01*
X46840Y-47612D01*
X46773Y-47451D01*
X46649Y-47327D01*
X46487Y-47260D01*
X46312Y-47259D01*
X46151Y-47326D01*
X46027Y-47450D01*
X45960Y-47612D01*
X45959Y-47787D01*
X46026Y-47948D01*
X46150Y-48072D01*
X46312Y-48139D01*
X46487Y-48140D01*
X46648Y-48073D01*
X46772Y-47949D01*
X46839Y-47787D01*
X46840Y-47612D01*
X46840Y-48612D01*
X46773Y-48451D01*
X46649Y-48327D01*
X46487Y-48260D01*
X46312Y-48259D01*
X46151Y-48326D01*
X46027Y-48450D01*
X45960Y-48612D01*
X45959Y-48787D01*
X46026Y-48948D01*
X46150Y-49072D01*
X46312Y-49139D01*
X46487Y-49140D01*
X46648Y-49073D01*
X46772Y-48949D01*
X46839Y-48787D01*
X46840Y-48612D01*
X46840Y-51335D01*
X45640Y-51335D01*
X45640Y-48323D01*
X45640Y-43323D01*
X45640Y-38323D01*
X45640Y-33323D01*
X45504Y-32996D01*
X45254Y-32745D01*
X44927Y-32610D01*
X44573Y-32609D01*
X44246Y-32745D01*
X43995Y-32995D01*
X43860Y-33322D01*
X43859Y-33676D01*
X43995Y-34003D01*
X44245Y-34254D01*
X44572Y-34389D01*
X44926Y-34390D01*
X45253Y-34254D01*
X45504Y-34004D01*
X45639Y-33677D01*
X45640Y-33323D01*
X45640Y-38323D01*
X45504Y-37996D01*
X45254Y-37745D01*
X44927Y-37610D01*
X44573Y-37609D01*
X44246Y-37745D01*
X43995Y-37995D01*
X43860Y-38322D01*
X43859Y-38676D01*
X43995Y-39003D01*
X44245Y-39254D01*
X44572Y-39389D01*
X44926Y-39390D01*
X45253Y-39254D01*
X45504Y-39004D01*
X45639Y-38677D01*
X45640Y-38323D01*
X45640Y-43323D01*
X45504Y-42996D01*
X45254Y-42745D01*
X44927Y-42610D01*
X44573Y-42609D01*
X44246Y-42745D01*
X43995Y-42995D01*
X43860Y-43322D01*
X43859Y-43676D01*
X43995Y-44003D01*
X44245Y-44254D01*
X44572Y-44389D01*
X44926Y-44390D01*
X45253Y-44254D01*
X45504Y-44004D01*
X45639Y-43677D01*
X45640Y-43323D01*
X45640Y-48323D01*
X45504Y-47996D01*
X45254Y-47745D01*
X44927Y-47610D01*
X44573Y-47609D01*
X44246Y-47745D01*
X43995Y-47995D01*
X43860Y-48322D01*
X43859Y-48676D01*
X43995Y-49003D01*
X44245Y-49254D01*
X44572Y-49389D01*
X44926Y-49390D01*
X45253Y-49254D01*
X45504Y-49004D01*
X45639Y-48677D01*
X45640Y-48323D01*
X45640Y-51335D01*
X43665Y-51335D01*
X43665Y-30665D01*
X50624Y-30665D01*
X50482Y-30723D01*
X50224Y-30981D01*
X50085Y-31317D01*
X50084Y-31681D01*
X50223Y-32017D01*
X50481Y-32275D01*
X50817Y-32414D01*
X51181Y-32415D01*
X51517Y-32276D01*
X51775Y-32018D01*
X51914Y-31682D01*
X51915Y-31318D01*
X51776Y-30982D01*
X51518Y-30724D01*
X51375Y-30665D01*
X80124Y-30665D01*
X79982Y-30723D01*
X79724Y-30981D01*
X79585Y-31317D01*
X79584Y-31681D01*
X79723Y-32017D01*
X79981Y-32275D01*
X80317Y-32414D01*
X80681Y-32415D01*
X81017Y-32276D01*
X81275Y-32018D01*
X81414Y-31682D01*
X81415Y-31318D01*
X81276Y-30982D01*
X81018Y-30724D01*
X80875Y-30665D01*
X89335Y-30665D01*
X89335Y-51335D01*
X89335Y-51335D01*
G37*
G54D24*
X89335Y-51335D02*
X88840Y-51335D01*
X88840Y-40897D01*
X88761Y-40705D01*
X88614Y-40559D01*
X88423Y-40480D01*
X88370Y-40480D01*
X88370Y-39063D01*
X88242Y-38754D01*
X88006Y-38518D01*
X87697Y-38390D01*
X87363Y-38389D01*
X87054Y-38517D01*
X86818Y-38753D01*
X86690Y-39062D01*
X86689Y-39396D01*
X86817Y-39705D01*
X87053Y-39941D01*
X87362Y-40069D01*
X87696Y-40070D01*
X88005Y-39942D01*
X88241Y-39706D01*
X88369Y-39397D01*
X88370Y-39063D01*
X88370Y-40480D01*
X88217Y-40479D01*
X88025Y-40558D01*
X87992Y-40591D01*
X87949Y-40486D01*
X87816Y-40408D01*
X87731Y-40493D01*
X87731Y-40323D01*
X87653Y-40190D01*
X87304Y-40055D01*
X86931Y-40064D01*
X86626Y-40190D01*
X86548Y-40323D01*
X87140Y-40915D01*
X87731Y-40323D01*
X87731Y-40493D01*
X87224Y-41000D01*
X87816Y-41591D01*
X87949Y-41513D01*
X87990Y-41406D01*
X88025Y-41440D01*
X88216Y-41519D01*
X88422Y-41520D01*
X88614Y-41441D01*
X88760Y-41294D01*
X88839Y-41103D01*
X88840Y-40897D01*
X88840Y-51335D01*
X88370Y-51335D01*
X88370Y-42603D01*
X88242Y-42294D01*
X88006Y-42058D01*
X87731Y-41944D01*
X87731Y-41676D01*
X87140Y-41084D01*
X87055Y-41169D01*
X87055Y-41000D01*
X86463Y-40408D01*
X86330Y-40486D01*
X86195Y-40835D01*
X86204Y-41208D01*
X86330Y-41513D01*
X86463Y-41591D01*
X87055Y-41000D01*
X87055Y-41169D01*
X86548Y-41676D01*
X86626Y-41809D01*
X86975Y-41944D01*
X87348Y-41935D01*
X87653Y-41809D01*
X87731Y-41676D01*
X87731Y-41944D01*
X87697Y-41930D01*
X87363Y-41929D01*
X87054Y-42057D01*
X86818Y-42293D01*
X86690Y-42602D01*
X86689Y-42936D01*
X86817Y-43245D01*
X87053Y-43481D01*
X87362Y-43609D01*
X87696Y-43610D01*
X88005Y-43482D01*
X88241Y-43246D01*
X88369Y-42937D01*
X88370Y-42603D01*
X88370Y-51335D01*
X86340Y-51335D01*
X86340Y-43702D01*
X86340Y-42797D01*
X86339Y-42702D01*
X86303Y-42613D01*
X86235Y-42546D01*
X86147Y-42509D01*
X85970Y-42510D01*
X85910Y-42570D01*
X85910Y-43190D01*
X86280Y-43190D01*
X86340Y-43130D01*
X86340Y-42797D01*
X86340Y-43702D01*
X86340Y-43370D01*
X86280Y-43310D01*
X85910Y-43310D01*
X85910Y-43930D01*
X85970Y-43990D01*
X86147Y-43990D01*
X86235Y-43953D01*
X86303Y-43886D01*
X86339Y-43797D01*
X86340Y-43702D01*
X86340Y-51335D01*
X85790Y-51335D01*
X85790Y-43930D01*
X85790Y-43310D01*
X85790Y-43190D01*
X85790Y-42570D01*
X85730Y-42510D01*
X85720Y-42509D01*
X85720Y-40813D01*
X85577Y-40468D01*
X85313Y-40203D01*
X84967Y-40060D01*
X84593Y-40059D01*
X84248Y-40202D01*
X83983Y-40466D01*
X83840Y-40812D01*
X83839Y-41186D01*
X83982Y-41531D01*
X84246Y-41796D01*
X84330Y-41830D01*
X84330Y-42627D01*
X84320Y-42631D01*
X84281Y-42670D01*
X84260Y-42722D01*
X84259Y-42777D01*
X84259Y-43777D01*
X84281Y-43829D01*
X84320Y-43868D01*
X84372Y-43889D01*
X84427Y-43890D01*
X84927Y-43890D01*
X84979Y-43868D01*
X85018Y-43829D01*
X85039Y-43777D01*
X85040Y-43722D01*
X85040Y-42722D01*
X85018Y-42670D01*
X84979Y-42631D01*
X84970Y-42627D01*
X84970Y-41938D01*
X85311Y-41797D01*
X85576Y-41533D01*
X85719Y-41187D01*
X85720Y-40813D01*
X85720Y-42509D01*
X85552Y-42509D01*
X85464Y-42546D01*
X85396Y-42613D01*
X85360Y-42702D01*
X85359Y-42797D01*
X85360Y-43130D01*
X85420Y-43190D01*
X85790Y-43190D01*
X85790Y-43310D01*
X85420Y-43310D01*
X85360Y-43370D01*
X85359Y-43702D01*
X85360Y-43797D01*
X85396Y-43886D01*
X85464Y-43953D01*
X85552Y-43990D01*
X85730Y-43990D01*
X85790Y-43930D01*
X85790Y-51335D01*
X83375Y-51335D01*
X83517Y-51276D01*
X83775Y-51018D01*
X83914Y-50682D01*
X83915Y-50318D01*
X83776Y-49982D01*
X83518Y-49724D01*
X83182Y-49585D01*
X82818Y-49584D01*
X82482Y-49723D01*
X82224Y-49981D01*
X82085Y-50317D01*
X82084Y-50681D01*
X82223Y-51017D01*
X82481Y-51275D01*
X82624Y-51335D01*
X81440Y-51335D01*
X81440Y-50712D01*
X81440Y-50287D01*
X81406Y-50119D01*
X81311Y-49976D01*
X81168Y-49880D01*
X81000Y-49847D01*
X80831Y-49880D01*
X80688Y-49976D01*
X80593Y-50119D01*
X80560Y-50287D01*
X80560Y-50712D01*
X80593Y-50880D01*
X80688Y-51023D01*
X80831Y-51119D01*
X81000Y-51152D01*
X81168Y-51119D01*
X81311Y-51023D01*
X81406Y-50880D01*
X81440Y-50712D01*
X81440Y-51335D01*
X80440Y-51335D01*
X80440Y-50712D01*
X80440Y-50287D01*
X80406Y-50119D01*
X80311Y-49976D01*
X80168Y-49880D01*
X80000Y-49847D01*
X79831Y-49880D01*
X79688Y-49976D01*
X79593Y-50119D01*
X79560Y-50287D01*
X79560Y-50712D01*
X79593Y-50880D01*
X79688Y-51023D01*
X79831Y-51119D01*
X80000Y-51152D01*
X80168Y-51119D01*
X80311Y-51023D01*
X80406Y-50880D01*
X80440Y-50712D01*
X80440Y-51335D01*
X79440Y-51335D01*
X79440Y-50712D01*
X79440Y-50287D01*
X79406Y-50119D01*
X79311Y-49976D01*
X79168Y-49880D01*
X79000Y-49847D01*
X78831Y-49880D01*
X78688Y-49976D01*
X78593Y-50119D01*
X78560Y-50287D01*
X78560Y-50712D01*
X78593Y-50880D01*
X78688Y-51023D01*
X78831Y-51119D01*
X79000Y-51152D01*
X79168Y-51119D01*
X79311Y-51023D01*
X79406Y-50880D01*
X79440Y-50712D01*
X79440Y-51335D01*
X78440Y-51335D01*
X78440Y-50712D01*
X78440Y-50287D01*
X78406Y-50119D01*
X78311Y-49976D01*
X78168Y-49880D01*
X78000Y-49847D01*
X77831Y-49880D01*
X77688Y-49976D01*
X77593Y-50119D01*
X77560Y-50287D01*
X77560Y-50712D01*
X77593Y-50880D01*
X77688Y-51023D01*
X77831Y-51119D01*
X78000Y-51152D01*
X78168Y-51119D01*
X78311Y-51023D01*
X78406Y-50880D01*
X78440Y-50712D01*
X78440Y-51335D01*
X77440Y-51335D01*
X77440Y-50712D01*
X77440Y-50287D01*
X77406Y-50119D01*
X77311Y-49976D01*
X77168Y-49880D01*
X77000Y-49847D01*
X76831Y-49880D01*
X76688Y-49976D01*
X76593Y-50119D01*
X76560Y-50287D01*
X76560Y-50712D01*
X76593Y-50880D01*
X76688Y-51023D01*
X76831Y-51119D01*
X77000Y-51152D01*
X77168Y-51119D01*
X77311Y-51023D01*
X77406Y-50880D01*
X77440Y-50712D01*
X77440Y-51335D01*
X76440Y-51335D01*
X76440Y-50712D01*
X76440Y-50287D01*
X76406Y-50119D01*
X76311Y-49976D01*
X76168Y-49880D01*
X76000Y-49847D01*
X75831Y-49880D01*
X75688Y-49976D01*
X75593Y-50119D01*
X75560Y-50287D01*
X75560Y-50712D01*
X75593Y-50880D01*
X75688Y-51023D01*
X75831Y-51119D01*
X76000Y-51152D01*
X76168Y-51119D01*
X76311Y-51023D01*
X76406Y-50880D01*
X76440Y-50712D01*
X76440Y-51335D01*
X75440Y-51335D01*
X75440Y-50712D01*
X75440Y-50287D01*
X75406Y-50119D01*
X75311Y-49976D01*
X75168Y-49880D01*
X75000Y-49847D01*
X74831Y-49880D01*
X74688Y-49976D01*
X74593Y-50119D01*
X74560Y-50287D01*
X74560Y-50712D01*
X74593Y-50880D01*
X74688Y-51023D01*
X74831Y-51119D01*
X75000Y-51152D01*
X75168Y-51119D01*
X75311Y-51023D01*
X75406Y-50880D01*
X75440Y-50712D01*
X75440Y-51335D01*
X74440Y-51335D01*
X74440Y-50712D01*
X74440Y-50287D01*
X74406Y-50119D01*
X74311Y-49976D01*
X74168Y-49880D01*
X74000Y-49847D01*
X73831Y-49880D01*
X73688Y-49976D01*
X73593Y-50119D01*
X73560Y-50287D01*
X73560Y-50712D01*
X73593Y-50880D01*
X73688Y-51023D01*
X73831Y-51119D01*
X74000Y-51152D01*
X74168Y-51119D01*
X74311Y-51023D01*
X74406Y-50880D01*
X74440Y-50712D01*
X74440Y-51335D01*
X72440Y-51335D01*
X72440Y-50712D01*
X72440Y-50287D01*
X72406Y-50119D01*
X72311Y-49976D01*
X72168Y-49880D01*
X72000Y-49847D01*
X71831Y-49880D01*
X71688Y-49976D01*
X71593Y-50119D01*
X71560Y-50287D01*
X71560Y-50712D01*
X71593Y-50880D01*
X71688Y-51023D01*
X71831Y-51119D01*
X72000Y-51152D01*
X72168Y-51119D01*
X72311Y-51023D01*
X72406Y-50880D01*
X72440Y-50712D01*
X72440Y-51335D01*
X71440Y-51335D01*
X71440Y-50712D01*
X71440Y-50287D01*
X71406Y-50119D01*
X71311Y-49976D01*
X71168Y-49880D01*
X71000Y-49847D01*
X70831Y-49880D01*
X70688Y-49976D01*
X70593Y-50119D01*
X70560Y-50287D01*
X70560Y-50712D01*
X70593Y-50880D01*
X70688Y-51023D01*
X70831Y-51119D01*
X71000Y-51152D01*
X71168Y-51119D01*
X71311Y-51023D01*
X71406Y-50880D01*
X71440Y-50712D01*
X71440Y-51335D01*
X70440Y-51335D01*
X70440Y-50712D01*
X70440Y-50287D01*
X70406Y-50119D01*
X70311Y-49976D01*
X70168Y-49880D01*
X70000Y-49847D01*
X69831Y-49880D01*
X69688Y-49976D01*
X69593Y-50119D01*
X69560Y-50287D01*
X69560Y-50712D01*
X69593Y-50880D01*
X69688Y-51023D01*
X69831Y-51119D01*
X70000Y-51152D01*
X70168Y-51119D01*
X70311Y-51023D01*
X70406Y-50880D01*
X70440Y-50712D01*
X70440Y-51335D01*
X69440Y-51335D01*
X69440Y-50712D01*
X69440Y-50287D01*
X69406Y-50119D01*
X69311Y-49976D01*
X69168Y-49880D01*
X69000Y-49847D01*
X68831Y-49880D01*
X68688Y-49976D01*
X68593Y-50119D01*
X68560Y-50287D01*
X68560Y-50712D01*
X68593Y-50880D01*
X68688Y-51023D01*
X68831Y-51119D01*
X69000Y-51152D01*
X69168Y-51119D01*
X69311Y-51023D01*
X69406Y-50880D01*
X69440Y-50712D01*
X69440Y-51335D01*
X68440Y-51335D01*
X68440Y-50712D01*
X68440Y-50287D01*
X68406Y-50119D01*
X68311Y-49976D01*
X68168Y-49880D01*
X68000Y-49847D01*
X67831Y-49880D01*
X67688Y-49976D01*
X67593Y-50119D01*
X67560Y-50287D01*
X67560Y-50712D01*
X67593Y-50880D01*
X67688Y-51023D01*
X67831Y-51119D01*
X68000Y-51152D01*
X68168Y-51119D01*
X68311Y-51023D01*
X68406Y-50880D01*
X68440Y-50712D01*
X68440Y-51335D01*
X67440Y-51335D01*
X67440Y-50712D01*
X67440Y-50287D01*
X67406Y-50119D01*
X67311Y-49976D01*
X67168Y-49880D01*
X67000Y-49847D01*
X66831Y-49880D01*
X66688Y-49976D01*
X66593Y-50119D01*
X66560Y-50287D01*
X66560Y-50712D01*
X66593Y-50880D01*
X66688Y-51023D01*
X66831Y-51119D01*
X67000Y-51152D01*
X67168Y-51119D01*
X67311Y-51023D01*
X67406Y-50880D01*
X67440Y-50712D01*
X67440Y-51335D01*
X66440Y-51335D01*
X66440Y-50712D01*
X66440Y-50287D01*
X66406Y-50119D01*
X66311Y-49976D01*
X66168Y-49880D01*
X66000Y-49847D01*
X65831Y-49880D01*
X65688Y-49976D01*
X65593Y-50119D01*
X65560Y-50287D01*
X65560Y-50712D01*
X65593Y-50880D01*
X65688Y-51023D01*
X65831Y-51119D01*
X66000Y-51152D01*
X66168Y-51119D01*
X66311Y-51023D01*
X66406Y-50880D01*
X66440Y-50712D01*
X66440Y-51335D01*
X63518Y-51335D01*
X64560Y-50293D01*
X64560Y-50712D01*
X64593Y-50880D01*
X64688Y-51023D01*
X64831Y-51119D01*
X65000Y-51152D01*
X65168Y-51119D01*
X65311Y-51023D01*
X65406Y-50880D01*
X65440Y-50712D01*
X65440Y-50287D01*
X65406Y-50119D01*
X65311Y-49976D01*
X65168Y-49880D01*
X65004Y-49848D01*
X67287Y-47565D01*
X67413Y-47691D01*
X67413Y-47701D01*
X67461Y-47817D01*
X67550Y-47906D01*
X67665Y-47954D01*
X67791Y-47954D01*
X67906Y-47906D01*
X67995Y-47817D01*
X68043Y-47702D01*
X68043Y-47576D01*
X67995Y-47461D01*
X67907Y-47372D01*
X67791Y-47324D01*
X67781Y-47324D01*
X67547Y-47090D01*
X67547Y-46007D01*
X67547Y-46007D01*
X67527Y-45908D01*
X67527Y-45908D01*
X67510Y-45881D01*
X67510Y-45500D01*
X67490Y-45400D01*
X67465Y-45362D01*
X67465Y-45222D01*
X67443Y-45170D01*
X67404Y-45131D01*
X67352Y-45110D01*
X67297Y-45109D01*
X67147Y-45109D01*
X67095Y-45131D01*
X67056Y-45170D01*
X67035Y-45222D01*
X67034Y-45277D01*
X67034Y-45362D01*
X67009Y-45400D01*
X67000Y-45449D01*
X66990Y-45400D01*
X66965Y-45362D01*
X66965Y-45222D01*
X66943Y-45170D01*
X66904Y-45131D01*
X66852Y-45110D01*
X66797Y-45109D01*
X66647Y-45109D01*
X66595Y-45131D01*
X66556Y-45170D01*
X66554Y-45175D01*
X66528Y-45113D01*
X66460Y-45046D01*
X66372Y-45009D01*
X66347Y-45010D01*
X66287Y-45070D01*
X66287Y-45440D01*
X66317Y-45440D01*
X66317Y-45560D01*
X66287Y-45560D01*
X66287Y-45930D01*
X66347Y-45990D01*
X66372Y-45990D01*
X66460Y-45953D01*
X66490Y-45924D01*
X66490Y-47030D01*
X66212Y-47307D01*
X66212Y-45930D01*
X66212Y-45560D01*
X66212Y-45440D01*
X66212Y-45070D01*
X66152Y-45010D01*
X66127Y-45009D01*
X66039Y-45046D01*
X66000Y-45085D01*
X65960Y-45046D01*
X65872Y-45009D01*
X65847Y-45010D01*
X65787Y-45070D01*
X65787Y-45440D01*
X65995Y-45440D01*
X66005Y-45440D01*
X66212Y-45440D01*
X66212Y-45560D01*
X66005Y-45560D01*
X65995Y-45560D01*
X65787Y-45560D01*
X65787Y-45930D01*
X65847Y-45990D01*
X65872Y-45990D01*
X65960Y-45953D01*
X66000Y-45914D01*
X66039Y-45953D01*
X66127Y-45990D01*
X66152Y-45990D01*
X66212Y-45930D01*
X66212Y-47307D01*
X66170Y-47349D01*
X66160Y-47349D01*
X66044Y-47397D01*
X65955Y-47486D01*
X65907Y-47602D01*
X65907Y-47727D01*
X65955Y-47843D01*
X66044Y-47931D01*
X66144Y-47973D01*
X65712Y-48405D01*
X65712Y-45930D01*
X65712Y-45560D01*
X65712Y-45440D01*
X65712Y-45070D01*
X65652Y-45010D01*
X65627Y-45009D01*
X65539Y-45046D01*
X65500Y-45085D01*
X65460Y-45046D01*
X65372Y-45009D01*
X65347Y-45010D01*
X65287Y-45070D01*
X65287Y-45440D01*
X65495Y-45440D01*
X65505Y-45440D01*
X65712Y-45440D01*
X65712Y-45560D01*
X65505Y-45560D01*
X65495Y-45560D01*
X65287Y-45560D01*
X65287Y-45930D01*
X65347Y-45990D01*
X65372Y-45990D01*
X65460Y-45953D01*
X65500Y-45914D01*
X65539Y-45953D01*
X65627Y-45990D01*
X65652Y-45990D01*
X65712Y-45930D01*
X65712Y-48405D01*
X65212Y-48905D01*
X65212Y-45930D01*
X65212Y-45560D01*
X65212Y-45440D01*
X65212Y-45070D01*
X65152Y-45010D01*
X65127Y-45009D01*
X65039Y-45046D01*
X65000Y-45085D01*
X64960Y-45046D01*
X64872Y-45009D01*
X64847Y-45010D01*
X64787Y-45070D01*
X64787Y-45440D01*
X64995Y-45440D01*
X65005Y-45440D01*
X65212Y-45440D01*
X65212Y-45560D01*
X65005Y-45560D01*
X64995Y-45560D01*
X64787Y-45560D01*
X64787Y-45930D01*
X64847Y-45990D01*
X64872Y-45990D01*
X64960Y-45953D01*
X65000Y-45914D01*
X65039Y-45953D01*
X65127Y-45990D01*
X65152Y-45990D01*
X65212Y-45930D01*
X65212Y-48905D01*
X63440Y-50677D01*
X63440Y-50287D01*
X63406Y-50119D01*
X63311Y-49976D01*
X63168Y-49880D01*
X63000Y-49847D01*
X62831Y-49880D01*
X62688Y-49976D01*
X62593Y-50119D01*
X62560Y-50287D01*
X62560Y-50712D01*
X62593Y-50880D01*
X62649Y-50964D01*
X62473Y-50964D01*
X62475Y-50962D01*
X62540Y-50760D01*
X62540Y-50560D01*
X62540Y-50440D01*
X62540Y-50240D01*
X62475Y-50037D01*
X62339Y-49875D01*
X62143Y-49779D01*
X62060Y-49823D01*
X62060Y-50440D01*
X62540Y-50440D01*
X62540Y-50560D01*
X62060Y-50560D01*
X62060Y-50567D01*
X61940Y-50567D01*
X61940Y-50560D01*
X61940Y-50440D01*
X61940Y-49823D01*
X61856Y-49779D01*
X61660Y-49875D01*
X61524Y-50037D01*
X61500Y-50113D01*
X61475Y-50037D01*
X61339Y-49875D01*
X61143Y-49779D01*
X61060Y-49823D01*
X61060Y-50440D01*
X61460Y-50440D01*
X61540Y-50440D01*
X61940Y-50440D01*
X61940Y-50560D01*
X61540Y-50560D01*
X61460Y-50560D01*
X61060Y-50560D01*
X61060Y-50567D01*
X60940Y-50567D01*
X60940Y-50560D01*
X60940Y-50440D01*
X60940Y-49823D01*
X60856Y-49779D01*
X60660Y-49875D01*
X60524Y-50037D01*
X60460Y-50240D01*
X60460Y-50440D01*
X60940Y-50440D01*
X60940Y-50560D01*
X60460Y-50560D01*
X60460Y-50760D01*
X60524Y-50962D01*
X60526Y-50964D01*
X60350Y-50964D01*
X60406Y-50880D01*
X60440Y-50712D01*
X60440Y-50287D01*
X60406Y-50119D01*
X60320Y-49989D01*
X60320Y-49144D01*
X62864Y-46600D01*
X62908Y-46707D01*
X62996Y-46796D01*
X63112Y-46844D01*
X63237Y-46844D01*
X63353Y-46796D01*
X63442Y-46707D01*
X63490Y-46592D01*
X63490Y-46581D01*
X63886Y-46185D01*
X63933Y-46153D01*
X63990Y-46069D01*
X63990Y-46119D01*
X63990Y-46121D01*
X63990Y-46237D01*
X64038Y-46353D01*
X64126Y-46441D01*
X64242Y-46489D01*
X64367Y-46490D01*
X64483Y-46442D01*
X64572Y-46353D01*
X64620Y-46237D01*
X64620Y-46112D01*
X64572Y-45996D01*
X64510Y-45934D01*
X64510Y-45924D01*
X64539Y-45953D01*
X64627Y-45990D01*
X64652Y-45990D01*
X64712Y-45930D01*
X64712Y-45560D01*
X64682Y-45560D01*
X64682Y-45440D01*
X64712Y-45440D01*
X64712Y-45070D01*
X64652Y-45010D01*
X64627Y-45009D01*
X64539Y-45046D01*
X64471Y-45113D01*
X64445Y-45175D01*
X64443Y-45170D01*
X64404Y-45131D01*
X64352Y-45110D01*
X64297Y-45109D01*
X64147Y-45109D01*
X64095Y-45131D01*
X64056Y-45170D01*
X64035Y-45222D01*
X64034Y-45277D01*
X64034Y-45362D01*
X64009Y-45400D01*
X64000Y-45449D01*
X63990Y-45400D01*
X63965Y-45362D01*
X63965Y-45222D01*
X63943Y-45170D01*
X63904Y-45131D01*
X63852Y-45110D01*
X63797Y-45109D01*
X63647Y-45109D01*
X63595Y-45131D01*
X63570Y-45156D01*
X63570Y-45102D01*
X63805Y-44866D01*
X67416Y-44866D01*
X67416Y-44866D01*
X67539Y-44842D01*
X67643Y-44773D01*
X68316Y-44099D01*
X68385Y-43996D01*
X68409Y-43873D01*
X68409Y-43873D01*
X68409Y-42689D01*
X68613Y-42689D01*
X69359Y-42689D01*
X69359Y-43177D01*
X69381Y-43229D01*
X69420Y-43268D01*
X69472Y-43289D01*
X69527Y-43290D01*
X70527Y-43290D01*
X70579Y-43268D01*
X70618Y-43229D01*
X70639Y-43177D01*
X70640Y-43122D01*
X70640Y-42622D01*
X70618Y-42570D01*
X70579Y-42531D01*
X70527Y-42510D01*
X70472Y-42509D01*
X70320Y-42509D01*
X70320Y-42369D01*
X70295Y-42247D01*
X70226Y-42143D01*
X70122Y-42074D01*
X70000Y-42049D01*
X68933Y-42049D01*
X68933Y-41070D01*
X68933Y-41070D01*
X68909Y-40947D01*
X68909Y-40947D01*
X68886Y-40913D01*
X68839Y-40843D01*
X68839Y-40843D01*
X66068Y-38071D01*
X66046Y-38057D01*
X66020Y-38031D01*
X65985Y-38016D01*
X65964Y-38002D01*
X65939Y-37997D01*
X65904Y-37983D01*
X65866Y-37983D01*
X65841Y-37978D01*
X65816Y-37983D01*
X65794Y-37983D01*
X66026Y-37751D01*
X66056Y-37823D01*
X66145Y-37912D01*
X66260Y-37960D01*
X66386Y-37960D01*
X66501Y-37912D01*
X66590Y-37823D01*
X66638Y-37708D01*
X66638Y-37697D01*
X66930Y-37406D01*
X66933Y-37403D01*
X66990Y-37319D01*
X67000Y-37270D01*
X67009Y-37319D01*
X67066Y-37403D01*
X68237Y-38575D01*
X68227Y-38599D01*
X68227Y-38725D01*
X68275Y-38841D01*
X68364Y-38929D01*
X68479Y-38977D01*
X68605Y-38977D01*
X68720Y-38930D01*
X68809Y-38841D01*
X68857Y-38725D01*
X68857Y-38600D01*
X68809Y-38484D01*
X68793Y-38468D01*
X68793Y-38468D01*
X68782Y-38413D01*
X68726Y-38328D01*
X67510Y-37112D01*
X67510Y-36750D01*
X67490Y-36650D01*
X67465Y-36612D01*
X67465Y-36472D01*
X67443Y-36420D01*
X67404Y-36381D01*
X67352Y-36360D01*
X67297Y-36359D01*
X67147Y-36359D01*
X67095Y-36381D01*
X67056Y-36420D01*
X67035Y-36472D01*
X67034Y-36527D01*
X67034Y-36612D01*
X67009Y-36650D01*
X67000Y-36699D01*
X66990Y-36650D01*
X66965Y-36612D01*
X66965Y-36472D01*
X66943Y-36420D01*
X66904Y-36381D01*
X66862Y-36363D01*
X67028Y-36197D01*
X67674Y-36197D01*
X67622Y-36232D01*
X67583Y-36290D01*
X67570Y-36359D01*
X67570Y-36406D01*
X67556Y-36420D01*
X67535Y-36472D01*
X67534Y-36527D01*
X67534Y-37027D01*
X67556Y-37079D01*
X67595Y-37118D01*
X67647Y-37139D01*
X67702Y-37140D01*
X67852Y-37140D01*
X67904Y-37118D01*
X67943Y-37079D01*
X67964Y-37027D01*
X67965Y-36972D01*
X67965Y-36539D01*
X68034Y-36539D01*
X68034Y-37027D01*
X68056Y-37079D01*
X68070Y-37092D01*
X68070Y-37140D01*
X68083Y-37209D01*
X68122Y-37267D01*
X71994Y-41139D01*
X71994Y-42802D01*
X70740Y-44057D01*
X70740Y-44057D01*
X70740Y-44039D01*
X70680Y-44039D01*
X70740Y-43980D01*
X70740Y-43802D01*
X70703Y-43714D01*
X70636Y-43646D01*
X70547Y-43610D01*
X70452Y-43609D01*
X70120Y-43610D01*
X70060Y-43670D01*
X70060Y-44040D01*
X70067Y-44040D01*
X70067Y-44160D01*
X70060Y-44160D01*
X70060Y-44530D01*
X70120Y-44590D01*
X70207Y-44590D01*
X69940Y-44857D01*
X69940Y-44530D01*
X69940Y-44160D01*
X69940Y-44040D01*
X69940Y-43670D01*
X69880Y-43610D01*
X69547Y-43609D01*
X69452Y-43610D01*
X69363Y-43646D01*
X69296Y-43714D01*
X69259Y-43802D01*
X69260Y-43980D01*
X69320Y-44040D01*
X69940Y-44040D01*
X69940Y-44160D01*
X69320Y-44160D01*
X69260Y-44220D01*
X69259Y-44397D01*
X69296Y-44485D01*
X69363Y-44553D01*
X69452Y-44589D01*
X69547Y-44590D01*
X69880Y-44590D01*
X69940Y-44530D01*
X69940Y-44857D01*
X69477Y-45320D01*
X68465Y-45320D01*
X68465Y-45222D01*
X68443Y-45170D01*
X68404Y-45131D01*
X68352Y-45110D01*
X68297Y-45109D01*
X68147Y-45109D01*
X68095Y-45131D01*
X68056Y-45170D01*
X68035Y-45222D01*
X68034Y-45277D01*
X68034Y-45777D01*
X68056Y-45829D01*
X68095Y-45868D01*
X68147Y-45889D01*
X68202Y-45890D01*
X68352Y-45890D01*
X68404Y-45868D01*
X68443Y-45829D01*
X68464Y-45777D01*
X68465Y-45722D01*
X68465Y-45680D01*
X69551Y-45680D01*
X69620Y-45666D01*
X69679Y-45627D01*
X72174Y-43131D01*
X78187Y-49143D01*
X71258Y-49143D01*
X67943Y-45829D01*
X67964Y-45777D01*
X67965Y-45722D01*
X67965Y-45222D01*
X67943Y-45170D01*
X67904Y-45131D01*
X67852Y-45110D01*
X67797Y-45109D01*
X67647Y-45109D01*
X67595Y-45131D01*
X67556Y-45170D01*
X67535Y-45222D01*
X67534Y-45277D01*
X67534Y-45777D01*
X67556Y-45829D01*
X67570Y-45842D01*
X67570Y-45890D01*
X67583Y-45959D01*
X67622Y-46017D01*
X71056Y-49451D01*
X71056Y-49451D01*
X71095Y-49477D01*
X71114Y-49490D01*
X71114Y-49490D01*
X71183Y-49503D01*
X71183Y-49503D01*
X83062Y-49503D01*
X83131Y-49490D01*
X83189Y-49451D01*
X83965Y-48675D01*
X83965Y-48675D01*
X84004Y-48617D01*
X84017Y-48548D01*
X84017Y-48548D01*
X84017Y-45711D01*
X84017Y-45711D01*
X84004Y-45642D01*
X84004Y-45642D01*
X83991Y-45623D01*
X83965Y-45584D01*
X83965Y-45584D01*
X83313Y-44932D01*
X83255Y-44893D01*
X83217Y-44886D01*
X83248Y-44873D01*
X83372Y-44749D01*
X83439Y-44587D01*
X83440Y-44412D01*
X83440Y-43412D01*
X83440Y-42412D01*
X83440Y-41412D01*
X83440Y-40412D01*
X83440Y-39412D01*
X83440Y-38412D01*
X83440Y-37412D01*
X83440Y-36412D01*
X83440Y-35412D01*
X83440Y-34412D01*
X83440Y-33412D01*
X83440Y-32412D01*
X83440Y-31412D01*
X83373Y-31251D01*
X83249Y-31127D01*
X83087Y-31060D01*
X82912Y-31059D01*
X82751Y-31126D01*
X82627Y-31250D01*
X82560Y-31412D01*
X82559Y-31587D01*
X82626Y-31748D01*
X82750Y-31872D01*
X82912Y-31939D01*
X83087Y-31940D01*
X83248Y-31873D01*
X83372Y-31749D01*
X83439Y-31587D01*
X83440Y-31412D01*
X83440Y-32412D01*
X83373Y-32251D01*
X83249Y-32127D01*
X83087Y-32060D01*
X82912Y-32059D01*
X82751Y-32126D01*
X82627Y-32250D01*
X82560Y-32412D01*
X82559Y-32587D01*
X82626Y-32748D01*
X82750Y-32872D01*
X82912Y-32939D01*
X83087Y-32940D01*
X83248Y-32873D01*
X83372Y-32749D01*
X83439Y-32587D01*
X83440Y-32412D01*
X83440Y-33412D01*
X83373Y-33251D01*
X83249Y-33127D01*
X83087Y-33060D01*
X82912Y-33059D01*
X82751Y-33126D01*
X82627Y-33250D01*
X82560Y-33412D01*
X82559Y-33587D01*
X82626Y-33748D01*
X82750Y-33872D01*
X82912Y-33939D01*
X83087Y-33940D01*
X83248Y-33873D01*
X83372Y-33749D01*
X83439Y-33587D01*
X83440Y-33412D01*
X83440Y-34412D01*
X83373Y-34251D01*
X83249Y-34127D01*
X83087Y-34060D01*
X82912Y-34059D01*
X82751Y-34126D01*
X82627Y-34250D01*
X82560Y-34412D01*
X82559Y-34587D01*
X82626Y-34748D01*
X82750Y-34872D01*
X82912Y-34939D01*
X83087Y-34940D01*
X83248Y-34873D01*
X83372Y-34749D01*
X83439Y-34587D01*
X83440Y-34412D01*
X83440Y-35412D01*
X83373Y-35251D01*
X83249Y-35127D01*
X83087Y-35060D01*
X82912Y-35059D01*
X82751Y-35126D01*
X82627Y-35250D01*
X82560Y-35412D01*
X82559Y-35587D01*
X82626Y-35748D01*
X82750Y-35872D01*
X82912Y-35939D01*
X83087Y-35940D01*
X83248Y-35873D01*
X83372Y-35749D01*
X83439Y-35587D01*
X83440Y-35412D01*
X83440Y-36412D01*
X83373Y-36251D01*
X83249Y-36127D01*
X83087Y-36060D01*
X82912Y-36059D01*
X82751Y-36126D01*
X82627Y-36250D01*
X82560Y-36412D01*
X82559Y-36587D01*
X82626Y-36748D01*
X82750Y-36872D01*
X82912Y-36939D01*
X83087Y-36940D01*
X83248Y-36873D01*
X83372Y-36749D01*
X83439Y-36587D01*
X83440Y-36412D01*
X83440Y-37412D01*
X83373Y-37251D01*
X83249Y-37127D01*
X83087Y-37060D01*
X82912Y-37059D01*
X82751Y-37126D01*
X82627Y-37250D01*
X82560Y-37412D01*
X82559Y-37587D01*
X82626Y-37748D01*
X82750Y-37872D01*
X82912Y-37939D01*
X83087Y-37940D01*
X83248Y-37873D01*
X83372Y-37749D01*
X83439Y-37587D01*
X83440Y-37412D01*
X83440Y-38412D01*
X83373Y-38251D01*
X83249Y-38127D01*
X83087Y-38060D01*
X82912Y-38059D01*
X82751Y-38126D01*
X82627Y-38250D01*
X82560Y-38412D01*
X82559Y-38587D01*
X82626Y-38748D01*
X82750Y-38872D01*
X82912Y-38939D01*
X83087Y-38940D01*
X83248Y-38873D01*
X83372Y-38749D01*
X83439Y-38587D01*
X83440Y-38412D01*
X83440Y-39412D01*
X83373Y-39251D01*
X83249Y-39127D01*
X83087Y-39060D01*
X82912Y-39059D01*
X82751Y-39126D01*
X82627Y-39250D01*
X82560Y-39412D01*
X82559Y-39587D01*
X82626Y-39748D01*
X82750Y-39872D01*
X82912Y-39939D01*
X83087Y-39940D01*
X83248Y-39873D01*
X83372Y-39749D01*
X83439Y-39587D01*
X83440Y-39412D01*
X83440Y-40412D01*
X83373Y-40251D01*
X83249Y-40127D01*
X83087Y-40060D01*
X82912Y-40059D01*
X82751Y-40126D01*
X82627Y-40250D01*
X82560Y-40412D01*
X82559Y-40587D01*
X82626Y-40748D01*
X82750Y-40872D01*
X82912Y-40939D01*
X83087Y-40940D01*
X83248Y-40873D01*
X83372Y-40749D01*
X83439Y-40587D01*
X83440Y-40412D01*
X83440Y-41412D01*
X83373Y-41251D01*
X83249Y-41127D01*
X83087Y-41060D01*
X82912Y-41059D01*
X82751Y-41126D01*
X82627Y-41250D01*
X82560Y-41412D01*
X82559Y-41587D01*
X82626Y-41748D01*
X82750Y-41872D01*
X82912Y-41939D01*
X83087Y-41940D01*
X83248Y-41873D01*
X83372Y-41749D01*
X83439Y-41587D01*
X83440Y-41412D01*
X83440Y-42412D01*
X83373Y-42251D01*
X83249Y-42127D01*
X83087Y-42060D01*
X82912Y-42059D01*
X82751Y-42126D01*
X82627Y-42250D01*
X82560Y-42412D01*
X82559Y-42587D01*
X82626Y-42748D01*
X82750Y-42872D01*
X82912Y-42939D01*
X83087Y-42940D01*
X83248Y-42873D01*
X83372Y-42749D01*
X83439Y-42587D01*
X83440Y-42412D01*
X83440Y-43412D01*
X83373Y-43251D01*
X83249Y-43127D01*
X83087Y-43060D01*
X82912Y-43059D01*
X82751Y-43126D01*
X82627Y-43250D01*
X82560Y-43412D01*
X82559Y-43587D01*
X82626Y-43748D01*
X82750Y-43872D01*
X82912Y-43939D01*
X83087Y-43940D01*
X83248Y-43873D01*
X83372Y-43749D01*
X83439Y-43587D01*
X83440Y-43412D01*
X83440Y-44412D01*
X83373Y-44251D01*
X83249Y-44127D01*
X83087Y-44060D01*
X82912Y-44059D01*
X82751Y-44126D01*
X82627Y-44250D01*
X82560Y-44412D01*
X82559Y-44587D01*
X82626Y-44748D01*
X82750Y-44872D01*
X82783Y-44886D01*
X82748Y-44893D01*
X82690Y-44932D01*
X82432Y-45190D01*
X82393Y-45248D01*
X82386Y-45283D01*
X82373Y-45251D01*
X82249Y-45127D01*
X82087Y-45060D01*
X81912Y-45059D01*
X81751Y-45126D01*
X81739Y-45137D01*
X81739Y-44862D01*
X81750Y-44872D01*
X81912Y-44939D01*
X82087Y-44940D01*
X82248Y-44873D01*
X82372Y-44749D01*
X82439Y-44587D01*
X82440Y-44412D01*
X82440Y-43412D01*
X82440Y-42412D01*
X82440Y-41412D01*
X82440Y-40412D01*
X82440Y-39412D01*
X82440Y-38412D01*
X82440Y-37412D01*
X82440Y-36412D01*
X82440Y-35412D01*
X82440Y-34412D01*
X82440Y-33412D01*
X82440Y-32412D01*
X82440Y-31412D01*
X82373Y-31251D01*
X82249Y-31127D01*
X82087Y-31060D01*
X81912Y-31059D01*
X81751Y-31126D01*
X81627Y-31250D01*
X81560Y-31412D01*
X81559Y-31587D01*
X81626Y-31748D01*
X81750Y-31872D01*
X81912Y-31939D01*
X82087Y-31940D01*
X82248Y-31873D01*
X82372Y-31749D01*
X82439Y-31587D01*
X82440Y-31412D01*
X82440Y-32412D01*
X82373Y-32251D01*
X82249Y-32127D01*
X82087Y-32060D01*
X81912Y-32059D01*
X81751Y-32126D01*
X81627Y-32250D01*
X81560Y-32412D01*
X81559Y-32587D01*
X81626Y-32748D01*
X81750Y-32872D01*
X81912Y-32939D01*
X82087Y-32940D01*
X82248Y-32873D01*
X82372Y-32749D01*
X82439Y-32587D01*
X82440Y-32412D01*
X82440Y-33412D01*
X82373Y-33251D01*
X82249Y-33127D01*
X82087Y-33060D01*
X81912Y-33059D01*
X81751Y-33126D01*
X81627Y-33250D01*
X81560Y-33412D01*
X81559Y-33587D01*
X81626Y-33748D01*
X81750Y-33872D01*
X81912Y-33939D01*
X82087Y-33940D01*
X82248Y-33873D01*
X82372Y-33749D01*
X82439Y-33587D01*
X82440Y-33412D01*
X82440Y-34412D01*
X82373Y-34251D01*
X82249Y-34127D01*
X82087Y-34060D01*
X81912Y-34059D01*
X81751Y-34126D01*
X81627Y-34250D01*
X81560Y-34412D01*
X81559Y-34587D01*
X81626Y-34748D01*
X81750Y-34872D01*
X81912Y-34939D01*
X82087Y-34940D01*
X82248Y-34873D01*
X82372Y-34749D01*
X82439Y-34587D01*
X82440Y-34412D01*
X82440Y-35412D01*
X82373Y-35251D01*
X82249Y-35127D01*
X82087Y-35060D01*
X81912Y-35059D01*
X81751Y-35126D01*
X81627Y-35250D01*
X81560Y-35412D01*
X81559Y-35587D01*
X81626Y-35748D01*
X81750Y-35872D01*
X81912Y-35939D01*
X82087Y-35940D01*
X82248Y-35873D01*
X82372Y-35749D01*
X82439Y-35587D01*
X82440Y-35412D01*
X82440Y-36412D01*
X82373Y-36251D01*
X82249Y-36127D01*
X82087Y-36060D01*
X81912Y-36059D01*
X81751Y-36126D01*
X81627Y-36250D01*
X81560Y-36412D01*
X81559Y-36587D01*
X81626Y-36748D01*
X81750Y-36872D01*
X81912Y-36939D01*
X82087Y-36940D01*
X82248Y-36873D01*
X82372Y-36749D01*
X82439Y-36587D01*
X82440Y-36412D01*
X82440Y-37412D01*
X82373Y-37251D01*
X82249Y-37127D01*
X82087Y-37060D01*
X81912Y-37059D01*
X81751Y-37126D01*
X81627Y-37250D01*
X81560Y-37412D01*
X81559Y-37587D01*
X81626Y-37748D01*
X81750Y-37872D01*
X81912Y-37939D01*
X82087Y-37940D01*
X82248Y-37873D01*
X82372Y-37749D01*
X82439Y-37587D01*
X82440Y-37412D01*
X82440Y-38412D01*
X82373Y-38251D01*
X82249Y-38127D01*
X82087Y-38060D01*
X81912Y-38059D01*
X81751Y-38126D01*
X81627Y-38250D01*
X81560Y-38412D01*
X81559Y-38587D01*
X81626Y-38748D01*
X81750Y-38872D01*
X81912Y-38939D01*
X82087Y-38940D01*
X82248Y-38873D01*
X82372Y-38749D01*
X82439Y-38587D01*
X82440Y-38412D01*
X82440Y-39412D01*
X82373Y-39251D01*
X82249Y-39127D01*
X82087Y-39060D01*
X81912Y-39059D01*
X81751Y-39126D01*
X81627Y-39250D01*
X81560Y-39412D01*
X81559Y-39587D01*
X81626Y-39748D01*
X81750Y-39872D01*
X81912Y-39939D01*
X82087Y-39940D01*
X82248Y-39873D01*
X82372Y-39749D01*
X82439Y-39587D01*
X82440Y-39412D01*
X82440Y-40412D01*
X82373Y-40251D01*
X82249Y-40127D01*
X82087Y-40060D01*
X81912Y-40059D01*
X81751Y-40126D01*
X81627Y-40250D01*
X81560Y-40412D01*
X81559Y-40587D01*
X81626Y-40748D01*
X81750Y-40872D01*
X81912Y-40939D01*
X82087Y-40940D01*
X82248Y-40873D01*
X82372Y-40749D01*
X82439Y-40587D01*
X82440Y-40412D01*
X82440Y-41412D01*
X82373Y-41251D01*
X82249Y-41127D01*
X82087Y-41060D01*
X81912Y-41059D01*
X81751Y-41126D01*
X81627Y-41250D01*
X81560Y-41412D01*
X81559Y-41587D01*
X81626Y-41748D01*
X81750Y-41872D01*
X81912Y-41939D01*
X82087Y-41940D01*
X82248Y-41873D01*
X82372Y-41749D01*
X82439Y-41587D01*
X82440Y-41412D01*
X82440Y-42412D01*
X82373Y-42251D01*
X82249Y-42127D01*
X82087Y-42060D01*
X81912Y-42059D01*
X81751Y-42126D01*
X81627Y-42250D01*
X81560Y-42412D01*
X81559Y-42587D01*
X81626Y-42748D01*
X81750Y-42872D01*
X81912Y-42939D01*
X82087Y-42940D01*
X82248Y-42873D01*
X82372Y-42749D01*
X82439Y-42587D01*
X82440Y-42412D01*
X82440Y-43412D01*
X82373Y-43251D01*
X82249Y-43127D01*
X82087Y-43060D01*
X81912Y-43059D01*
X81751Y-43126D01*
X81627Y-43250D01*
X81560Y-43412D01*
X81559Y-43587D01*
X81626Y-43748D01*
X81750Y-43872D01*
X81912Y-43939D01*
X82087Y-43940D01*
X82248Y-43873D01*
X82372Y-43749D01*
X82439Y-43587D01*
X82440Y-43412D01*
X82440Y-44412D01*
X82373Y-44251D01*
X82249Y-44127D01*
X82087Y-44060D01*
X81912Y-44059D01*
X81751Y-44126D01*
X81728Y-44149D01*
X81726Y-44137D01*
X81687Y-44079D01*
X79440Y-41832D01*
X79440Y-31712D01*
X79440Y-31287D01*
X79406Y-31119D01*
X79311Y-30976D01*
X79168Y-30880D01*
X79000Y-30847D01*
X78831Y-30880D01*
X78688Y-30976D01*
X78593Y-31119D01*
X78560Y-31287D01*
X78560Y-31712D01*
X78593Y-31880D01*
X78688Y-32023D01*
X78831Y-32119D01*
X79000Y-32152D01*
X79168Y-32119D01*
X79311Y-32023D01*
X79406Y-31880D01*
X79440Y-31712D01*
X79440Y-41832D01*
X78440Y-40832D01*
X78440Y-31712D01*
X78440Y-31287D01*
X78406Y-31119D01*
X78311Y-30976D01*
X78168Y-30880D01*
X78000Y-30847D01*
X77831Y-30880D01*
X77688Y-30976D01*
X77593Y-31119D01*
X77560Y-31287D01*
X77560Y-31712D01*
X77593Y-31880D01*
X77688Y-32023D01*
X77831Y-32119D01*
X78000Y-32152D01*
X78168Y-32119D01*
X78311Y-32023D01*
X78406Y-31880D01*
X78440Y-31712D01*
X78440Y-40832D01*
X77440Y-39832D01*
X77440Y-31712D01*
X77440Y-31287D01*
X77406Y-31119D01*
X77311Y-30976D01*
X77168Y-30880D01*
X77000Y-30847D01*
X76831Y-30880D01*
X76688Y-30976D01*
X76593Y-31119D01*
X76560Y-31287D01*
X76560Y-31712D01*
X76593Y-31880D01*
X76688Y-32023D01*
X76831Y-32119D01*
X77000Y-32152D01*
X77168Y-32119D01*
X77311Y-32023D01*
X77406Y-31880D01*
X77440Y-31712D01*
X77440Y-39832D01*
X76440Y-38832D01*
X76440Y-31712D01*
X76440Y-31287D01*
X76406Y-31119D01*
X76311Y-30976D01*
X76168Y-30880D01*
X76000Y-30847D01*
X75831Y-30880D01*
X75688Y-30976D01*
X75593Y-31119D01*
X75560Y-31287D01*
X75560Y-31712D01*
X75593Y-31880D01*
X75688Y-32023D01*
X75831Y-32119D01*
X76000Y-32152D01*
X76168Y-32119D01*
X76311Y-32023D01*
X76406Y-31880D01*
X76440Y-31712D01*
X76440Y-38832D01*
X75440Y-37832D01*
X75440Y-31712D01*
X75440Y-31287D01*
X75406Y-31119D01*
X75311Y-30976D01*
X75168Y-30880D01*
X75000Y-30847D01*
X74831Y-30880D01*
X74688Y-30976D01*
X74593Y-31119D01*
X74560Y-31287D01*
X74560Y-31712D01*
X74593Y-31880D01*
X74688Y-32023D01*
X74831Y-32119D01*
X75000Y-32152D01*
X75168Y-32119D01*
X75311Y-32023D01*
X75406Y-31880D01*
X75440Y-31712D01*
X75440Y-37832D01*
X74440Y-36832D01*
X74440Y-31712D01*
X74440Y-31287D01*
X74406Y-31119D01*
X74311Y-30976D01*
X74168Y-30880D01*
X74000Y-30847D01*
X73831Y-30880D01*
X73688Y-30976D01*
X73593Y-31119D01*
X73560Y-31287D01*
X73560Y-31712D01*
X73593Y-31880D01*
X73688Y-32023D01*
X73831Y-32119D01*
X74000Y-32152D01*
X74168Y-32119D01*
X74311Y-32023D01*
X74406Y-31880D01*
X74440Y-31712D01*
X74440Y-36832D01*
X73440Y-35832D01*
X73440Y-31712D01*
X73440Y-31287D01*
X73406Y-31119D01*
X73311Y-30976D01*
X73168Y-30880D01*
X73000Y-30847D01*
X72831Y-30880D01*
X72688Y-30976D01*
X72593Y-31119D01*
X72560Y-31287D01*
X72560Y-31712D01*
X72593Y-31880D01*
X72688Y-32023D01*
X72831Y-32119D01*
X73000Y-32152D01*
X73168Y-32119D01*
X73311Y-32023D01*
X73406Y-31880D01*
X73440Y-31712D01*
X73440Y-35832D01*
X72440Y-34832D01*
X72440Y-31712D01*
X72440Y-31287D01*
X72406Y-31119D01*
X72311Y-30976D01*
X72168Y-30880D01*
X72000Y-30847D01*
X71831Y-30880D01*
X71688Y-30976D01*
X71593Y-31119D01*
X71560Y-31287D01*
X71560Y-31712D01*
X71593Y-31880D01*
X71688Y-32023D01*
X71831Y-32119D01*
X72000Y-32152D01*
X72168Y-32119D01*
X72311Y-32023D01*
X72406Y-31880D01*
X72440Y-31712D01*
X72440Y-34832D01*
X70440Y-32832D01*
X70440Y-31712D01*
X70440Y-31287D01*
X70406Y-31119D01*
X70311Y-30976D01*
X70168Y-30880D01*
X70000Y-30847D01*
X69831Y-30880D01*
X69688Y-30976D01*
X69593Y-31119D01*
X69560Y-31287D01*
X69560Y-31712D01*
X69593Y-31880D01*
X69688Y-32023D01*
X69831Y-32119D01*
X70000Y-32152D01*
X70168Y-32119D01*
X70311Y-32023D01*
X70406Y-31880D01*
X70440Y-31712D01*
X70440Y-32832D01*
X69660Y-32052D01*
X69601Y-32013D01*
X69532Y-31999D01*
X69327Y-31999D01*
X69406Y-31880D01*
X69440Y-31712D01*
X69440Y-31287D01*
X69406Y-31119D01*
X69311Y-30976D01*
X69168Y-30880D01*
X69000Y-30847D01*
X68831Y-30880D01*
X68688Y-30976D01*
X68593Y-31119D01*
X68560Y-31287D01*
X68560Y-31712D01*
X68593Y-31880D01*
X68672Y-31999D01*
X68327Y-31999D01*
X68406Y-31880D01*
X68440Y-31712D01*
X68440Y-31287D01*
X68406Y-31119D01*
X68311Y-30976D01*
X68168Y-30880D01*
X68000Y-30847D01*
X67831Y-30880D01*
X67688Y-30976D01*
X67593Y-31119D01*
X67560Y-31287D01*
X67560Y-31712D01*
X67593Y-31880D01*
X67672Y-31999D01*
X67327Y-31999D01*
X67406Y-31880D01*
X67440Y-31712D01*
X67440Y-31287D01*
X67406Y-31119D01*
X67311Y-30976D01*
X67168Y-30880D01*
X67000Y-30847D01*
X66831Y-30880D01*
X66688Y-30976D01*
X66593Y-31119D01*
X66560Y-31287D01*
X66560Y-31712D01*
X66593Y-31880D01*
X66672Y-31999D01*
X66327Y-31999D01*
X66406Y-31880D01*
X66440Y-31712D01*
X66440Y-31287D01*
X66406Y-31119D01*
X66311Y-30976D01*
X66168Y-30880D01*
X66000Y-30847D01*
X65831Y-30880D01*
X65688Y-30976D01*
X65593Y-31119D01*
X65560Y-31287D01*
X65560Y-31712D01*
X65593Y-31880D01*
X65672Y-31999D01*
X65327Y-31999D01*
X65406Y-31880D01*
X65440Y-31712D01*
X65440Y-31287D01*
X65406Y-31119D01*
X65311Y-30976D01*
X65168Y-30880D01*
X65000Y-30847D01*
X64831Y-30880D01*
X64688Y-30976D01*
X64593Y-31119D01*
X64560Y-31287D01*
X64560Y-31712D01*
X64593Y-31880D01*
X64672Y-31999D01*
X64327Y-31999D01*
X64406Y-31880D01*
X64440Y-31712D01*
X64440Y-31287D01*
X64406Y-31119D01*
X64311Y-30976D01*
X64168Y-30880D01*
X64000Y-30847D01*
X63831Y-30880D01*
X63688Y-30976D01*
X63593Y-31119D01*
X63560Y-31287D01*
X63560Y-31712D01*
X63593Y-31880D01*
X63672Y-31999D01*
X63440Y-31999D01*
X63440Y-31712D01*
X63440Y-31287D01*
X63406Y-31119D01*
X63311Y-30976D01*
X63168Y-30880D01*
X63000Y-30847D01*
X62831Y-30880D01*
X62688Y-30976D01*
X62593Y-31119D01*
X62560Y-31287D01*
X62560Y-31712D01*
X62593Y-31880D01*
X62688Y-32023D01*
X62831Y-32119D01*
X63000Y-32152D01*
X63168Y-32119D01*
X63311Y-32023D01*
X63406Y-31880D01*
X63440Y-31712D01*
X63440Y-31999D01*
X63430Y-31999D01*
X63361Y-32013D01*
X63302Y-32052D01*
X63122Y-32232D01*
X63083Y-32290D01*
X63070Y-32359D01*
X63070Y-32406D01*
X63056Y-32420D01*
X63035Y-32472D01*
X63034Y-32527D01*
X63034Y-32960D01*
X62965Y-32960D01*
X62965Y-32472D01*
X62943Y-32420D01*
X62904Y-32381D01*
X62852Y-32360D01*
X62797Y-32359D01*
X62647Y-32359D01*
X62595Y-32381D01*
X62556Y-32420D01*
X62535Y-32472D01*
X62534Y-32527D01*
X62534Y-33027D01*
X62556Y-33079D01*
X62570Y-33092D01*
X62570Y-33140D01*
X62583Y-33209D01*
X62622Y-33267D01*
X62681Y-33306D01*
X62750Y-33320D01*
X63282Y-33320D01*
X61840Y-34762D01*
X61840Y-31712D01*
X61840Y-31287D01*
X61806Y-31119D01*
X61711Y-30976D01*
X61568Y-30880D01*
X61400Y-30847D01*
X61231Y-30880D01*
X61088Y-30976D01*
X60993Y-31119D01*
X60960Y-31287D01*
X60960Y-31712D01*
X60993Y-31880D01*
X61088Y-32023D01*
X61231Y-32119D01*
X61400Y-32152D01*
X61568Y-32119D01*
X61711Y-32023D01*
X61806Y-31880D01*
X61840Y-31712D01*
X61840Y-34762D01*
X60840Y-35762D01*
X60840Y-31712D01*
X60840Y-31287D01*
X60806Y-31119D01*
X60711Y-30976D01*
X60568Y-30880D01*
X60400Y-30847D01*
X60231Y-30880D01*
X60088Y-30976D01*
X59993Y-31119D01*
X59960Y-31287D01*
X59960Y-31712D01*
X59993Y-31880D01*
X60088Y-32023D01*
X60231Y-32119D01*
X60400Y-32152D01*
X60568Y-32119D01*
X60711Y-32023D01*
X60806Y-31880D01*
X60840Y-31712D01*
X60840Y-35762D01*
X60112Y-36490D01*
X59840Y-36490D01*
X59840Y-31712D01*
X59840Y-31287D01*
X59806Y-31119D01*
X59711Y-30976D01*
X59568Y-30880D01*
X59400Y-30847D01*
X59231Y-30880D01*
X59088Y-30976D01*
X58993Y-31119D01*
X58960Y-31287D01*
X58960Y-31712D01*
X58993Y-31880D01*
X59088Y-32023D01*
X59231Y-32119D01*
X59400Y-32152D01*
X59568Y-32119D01*
X59711Y-32023D01*
X59806Y-31880D01*
X59840Y-31712D01*
X59840Y-36490D01*
X58840Y-36490D01*
X58840Y-31712D01*
X58840Y-31287D01*
X58806Y-31119D01*
X58711Y-30976D01*
X58568Y-30880D01*
X58400Y-30847D01*
X58231Y-30880D01*
X58088Y-30976D01*
X57993Y-31119D01*
X57960Y-31287D01*
X57960Y-31712D01*
X57993Y-31880D01*
X58088Y-32023D01*
X58231Y-32119D01*
X58400Y-32152D01*
X58568Y-32119D01*
X58711Y-32023D01*
X58806Y-31880D01*
X58840Y-31712D01*
X58840Y-36490D01*
X57840Y-36490D01*
X57840Y-31712D01*
X57840Y-31287D01*
X57806Y-31119D01*
X57711Y-30976D01*
X57568Y-30880D01*
X57400Y-30847D01*
X57231Y-30880D01*
X57088Y-30976D01*
X56993Y-31119D01*
X56960Y-31287D01*
X56960Y-31712D01*
X56993Y-31880D01*
X57088Y-32023D01*
X57231Y-32119D01*
X57400Y-32152D01*
X57568Y-32119D01*
X57711Y-32023D01*
X57806Y-31880D01*
X57840Y-31712D01*
X57840Y-36490D01*
X56840Y-36490D01*
X56840Y-31712D01*
X56840Y-31287D01*
X56806Y-31119D01*
X56711Y-30976D01*
X56568Y-30880D01*
X56400Y-30847D01*
X56231Y-30880D01*
X56088Y-30976D01*
X55993Y-31119D01*
X55960Y-31287D01*
X55960Y-31712D01*
X55993Y-31880D01*
X56088Y-32023D01*
X56231Y-32119D01*
X56400Y-32152D01*
X56568Y-32119D01*
X56711Y-32023D01*
X56806Y-31880D01*
X56840Y-31712D01*
X56840Y-36490D01*
X55840Y-36490D01*
X55840Y-31712D01*
X55840Y-31287D01*
X55806Y-31119D01*
X55711Y-30976D01*
X55568Y-30880D01*
X55400Y-30847D01*
X55231Y-30880D01*
X55088Y-30976D01*
X54993Y-31119D01*
X54960Y-31287D01*
X54960Y-31712D01*
X54993Y-31880D01*
X55088Y-32023D01*
X55231Y-32119D01*
X55400Y-32152D01*
X55568Y-32119D01*
X55711Y-32023D01*
X55806Y-31880D01*
X55840Y-31712D01*
X55840Y-36490D01*
X54840Y-36490D01*
X54840Y-31712D01*
X54840Y-31287D01*
X54806Y-31119D01*
X54711Y-30976D01*
X54568Y-30880D01*
X54400Y-30847D01*
X54231Y-30880D01*
X54088Y-30976D01*
X53993Y-31119D01*
X53960Y-31287D01*
X53960Y-31712D01*
X53993Y-31880D01*
X54088Y-32023D01*
X54231Y-32119D01*
X54400Y-32152D01*
X54568Y-32119D01*
X54711Y-32023D01*
X54806Y-31880D01*
X54840Y-31712D01*
X54840Y-36490D01*
X53840Y-36490D01*
X53840Y-31712D01*
X53840Y-31287D01*
X53806Y-31119D01*
X53711Y-30976D01*
X53568Y-30880D01*
X53400Y-30847D01*
X53231Y-30880D01*
X53088Y-30976D01*
X52993Y-31119D01*
X52960Y-31287D01*
X52960Y-31712D01*
X52993Y-31880D01*
X53088Y-32023D01*
X53231Y-32119D01*
X53400Y-32152D01*
X53568Y-32119D01*
X53711Y-32023D01*
X53806Y-31880D01*
X53840Y-31712D01*
X53840Y-36490D01*
X51890Y-36490D01*
X51890Y-35662D01*
X51823Y-35501D01*
X51699Y-35377D01*
X51537Y-35310D01*
X51362Y-35309D01*
X51201Y-35376D01*
X51077Y-35500D01*
X51010Y-35662D01*
X51009Y-35837D01*
X51076Y-35998D01*
X51200Y-36122D01*
X51362Y-36189D01*
X51537Y-36190D01*
X51698Y-36123D01*
X51822Y-35999D01*
X51889Y-35837D01*
X51890Y-35662D01*
X51890Y-36490D01*
X51812Y-36490D01*
X51699Y-36377D01*
X51537Y-36310D01*
X51362Y-36309D01*
X51201Y-36376D01*
X51077Y-36500D01*
X51010Y-36662D01*
X51009Y-36837D01*
X51076Y-36998D01*
X51200Y-37122D01*
X51362Y-37189D01*
X51537Y-37190D01*
X51698Y-37123D01*
X51812Y-37010D01*
X51822Y-37010D01*
X51522Y-37310D01*
X51362Y-37309D01*
X51201Y-37376D01*
X51077Y-37500D01*
X51010Y-37662D01*
X51009Y-37837D01*
X51076Y-37998D01*
X51200Y-38122D01*
X51362Y-38189D01*
X51537Y-38190D01*
X51698Y-38123D01*
X51822Y-37999D01*
X51889Y-37837D01*
X51890Y-37677D01*
X52130Y-37436D01*
X52640Y-37436D01*
X52627Y-37450D01*
X52560Y-37612D01*
X52559Y-37787D01*
X52626Y-37948D01*
X52750Y-38072D01*
X52912Y-38139D01*
X53087Y-38140D01*
X53248Y-38073D01*
X53372Y-37949D01*
X53439Y-37787D01*
X53440Y-37612D01*
X53373Y-37451D01*
X53359Y-37436D01*
X60293Y-37436D01*
X60392Y-37417D01*
X60477Y-37360D01*
X64348Y-33489D01*
X64348Y-34118D01*
X62407Y-36058D01*
X62368Y-36117D01*
X62354Y-36186D01*
X62354Y-40894D01*
X62368Y-40963D01*
X62407Y-41022D01*
X62556Y-41170D01*
X62535Y-41222D01*
X62534Y-41277D01*
X62534Y-41710D01*
X56229Y-41710D01*
X56146Y-41726D01*
X56130Y-41729D01*
X56046Y-41786D01*
X53436Y-44395D01*
X53439Y-44387D01*
X53440Y-44212D01*
X53440Y-43212D01*
X53440Y-38612D01*
X53373Y-38451D01*
X53249Y-38327D01*
X53087Y-38260D01*
X52912Y-38259D01*
X52751Y-38326D01*
X52627Y-38450D01*
X52560Y-38612D01*
X52559Y-38787D01*
X52626Y-38948D01*
X52750Y-39072D01*
X52912Y-39139D01*
X53087Y-39140D01*
X53248Y-39073D01*
X53372Y-38949D01*
X53439Y-38787D01*
X53440Y-38612D01*
X53440Y-43212D01*
X53373Y-43051D01*
X53249Y-42927D01*
X53087Y-42860D01*
X52912Y-42859D01*
X52751Y-42926D01*
X52627Y-43050D01*
X52560Y-43212D01*
X52559Y-43387D01*
X52626Y-43548D01*
X52750Y-43672D01*
X52912Y-43739D01*
X53087Y-43740D01*
X53248Y-43673D01*
X53372Y-43549D01*
X53439Y-43387D01*
X53440Y-43212D01*
X53440Y-44212D01*
X53373Y-44051D01*
X53249Y-43927D01*
X53087Y-43860D01*
X52912Y-43859D01*
X52751Y-43926D01*
X52627Y-44050D01*
X52560Y-44212D01*
X52559Y-44387D01*
X52626Y-44548D01*
X52750Y-44672D01*
X52912Y-44739D01*
X53087Y-44740D01*
X53095Y-44736D01*
X51890Y-45942D01*
X51890Y-45662D01*
X51890Y-44662D01*
X51823Y-44501D01*
X51699Y-44377D01*
X51537Y-44310D01*
X51362Y-44309D01*
X51201Y-44376D01*
X51077Y-44500D01*
X51010Y-44662D01*
X51009Y-44837D01*
X51076Y-44998D01*
X51200Y-45122D01*
X51362Y-45189D01*
X51537Y-45190D01*
X51698Y-45123D01*
X51822Y-44999D01*
X51889Y-44837D01*
X51890Y-44662D01*
X51890Y-45662D01*
X51823Y-45501D01*
X51699Y-45377D01*
X51537Y-45310D01*
X51362Y-45309D01*
X51201Y-45376D01*
X51077Y-45500D01*
X51010Y-45662D01*
X51009Y-45837D01*
X51076Y-45998D01*
X51200Y-46122D01*
X51362Y-46189D01*
X51537Y-46190D01*
X51698Y-46123D01*
X51822Y-45999D01*
X51889Y-45837D01*
X51890Y-45662D01*
X51890Y-45942D01*
X51522Y-46310D01*
X51362Y-46309D01*
X51201Y-46376D01*
X51077Y-46500D01*
X51010Y-46662D01*
X51009Y-46837D01*
X51076Y-46998D01*
X51200Y-47122D01*
X51362Y-47189D01*
X51537Y-47190D01*
X51698Y-47123D01*
X51822Y-46999D01*
X51889Y-46837D01*
X51890Y-46677D01*
X56337Y-42230D01*
X56602Y-42230D01*
X51522Y-47310D01*
X51362Y-47309D01*
X51201Y-47376D01*
X51077Y-47500D01*
X51010Y-47662D01*
X51009Y-47837D01*
X51076Y-47998D01*
X51200Y-48122D01*
X51362Y-48189D01*
X51537Y-48190D01*
X51698Y-48123D01*
X51822Y-47999D01*
X51889Y-47837D01*
X51890Y-47677D01*
X56979Y-42588D01*
X63892Y-42588D01*
X63991Y-42568D01*
X64075Y-42511D01*
X64433Y-42153D01*
X64433Y-42153D01*
X64471Y-42097D01*
X64490Y-42069D01*
X64490Y-42069D01*
X64509Y-41970D01*
X64510Y-41970D01*
X64510Y-41924D01*
X64539Y-41953D01*
X64627Y-41990D01*
X64652Y-41990D01*
X64712Y-41930D01*
X64712Y-41560D01*
X64682Y-41560D01*
X64682Y-41440D01*
X64712Y-41440D01*
X64712Y-41070D01*
X64652Y-41010D01*
X64627Y-41009D01*
X64539Y-41046D01*
X64471Y-41113D01*
X64445Y-41175D01*
X64443Y-41170D01*
X64404Y-41131D01*
X64352Y-41110D01*
X64297Y-41109D01*
X64147Y-41109D01*
X64095Y-41131D01*
X64056Y-41170D01*
X64035Y-41222D01*
X64034Y-41277D01*
X64034Y-41362D01*
X64009Y-41400D01*
X64000Y-41449D01*
X63990Y-41400D01*
X63965Y-41362D01*
X63965Y-41222D01*
X63943Y-41170D01*
X63904Y-41131D01*
X63852Y-41110D01*
X63797Y-41109D01*
X63647Y-41109D01*
X63595Y-41131D01*
X63556Y-41170D01*
X63535Y-41222D01*
X63534Y-41277D01*
X63534Y-41362D01*
X63509Y-41400D01*
X63490Y-41500D01*
X63490Y-41710D01*
X63465Y-41710D01*
X63465Y-41222D01*
X63443Y-41170D01*
X63430Y-41157D01*
X63430Y-41109D01*
X63416Y-41040D01*
X63377Y-40982D01*
X62930Y-40535D01*
X62930Y-38097D01*
X63008Y-38175D01*
X63124Y-38223D01*
X63249Y-38224D01*
X63365Y-38176D01*
X63454Y-38087D01*
X63502Y-37971D01*
X63502Y-37961D01*
X63916Y-37547D01*
X63916Y-37547D01*
X63930Y-37526D01*
X63951Y-37547D01*
X64067Y-37595D01*
X64192Y-37595D01*
X64308Y-37547D01*
X64397Y-37459D01*
X64414Y-37416D01*
X64433Y-37403D01*
X64490Y-37319D01*
X64510Y-37220D01*
X64510Y-37174D01*
X64539Y-37203D01*
X64627Y-37240D01*
X64652Y-37240D01*
X64712Y-37180D01*
X64712Y-36810D01*
X64682Y-36810D01*
X64682Y-36690D01*
X64712Y-36690D01*
X64712Y-36320D01*
X64652Y-36260D01*
X64627Y-36259D01*
X64539Y-36296D01*
X64471Y-36363D01*
X64445Y-36425D01*
X64443Y-36420D01*
X64404Y-36381D01*
X64352Y-36360D01*
X64297Y-36359D01*
X64147Y-36359D01*
X64095Y-36381D01*
X64056Y-36420D01*
X64035Y-36472D01*
X64034Y-36527D01*
X64034Y-36612D01*
X64009Y-36650D01*
X63999Y-36699D01*
X63990Y-36650D01*
X63965Y-36612D01*
X63965Y-36472D01*
X63957Y-36454D01*
X63970Y-36446D01*
X63975Y-36441D01*
X63989Y-36420D01*
X64015Y-36394D01*
X64030Y-36359D01*
X64044Y-36337D01*
X64049Y-36312D01*
X64063Y-36278D01*
X64063Y-36240D01*
X64069Y-36215D01*
X64064Y-36190D01*
X64064Y-36153D01*
X64049Y-36118D01*
X64044Y-36093D01*
X64030Y-36071D01*
X64016Y-36037D01*
X63989Y-36010D01*
X63975Y-35989D01*
X63954Y-35975D01*
X63927Y-35948D01*
X63892Y-35934D01*
X63871Y-35919D01*
X63846Y-35914D01*
X63811Y-35900D01*
X63774Y-35900D01*
X63749Y-35895D01*
X63727Y-35899D01*
X63250Y-35899D01*
X63127Y-35924D01*
X63023Y-35993D01*
X62954Y-36097D01*
X62930Y-36219D01*
X62930Y-36407D01*
X62904Y-36381D01*
X62852Y-36360D01*
X62797Y-36359D01*
X62714Y-36359D01*
X62714Y-36260D01*
X64655Y-34319D01*
X64655Y-34319D01*
X64694Y-34261D01*
X64708Y-34192D01*
X64708Y-34192D01*
X64708Y-33184D01*
X64712Y-33180D01*
X64712Y-32810D01*
X64708Y-32810D01*
X64708Y-32690D01*
X64712Y-32690D01*
X64712Y-32682D01*
X64787Y-32682D01*
X64787Y-32690D01*
X64995Y-32690D01*
X65005Y-32690D01*
X65212Y-32690D01*
X65212Y-32682D01*
X65287Y-32682D01*
X65287Y-32690D01*
X65495Y-32690D01*
X65505Y-32690D01*
X65712Y-32690D01*
X65712Y-32682D01*
X65787Y-32682D01*
X65787Y-32690D01*
X65995Y-32690D01*
X66005Y-32690D01*
X66212Y-32690D01*
X66212Y-32682D01*
X66287Y-32682D01*
X66287Y-32690D01*
X66317Y-32690D01*
X66317Y-32810D01*
X66287Y-32810D01*
X66287Y-33180D01*
X66347Y-33240D01*
X66372Y-33240D01*
X66440Y-33211D01*
X66435Y-33225D01*
X66434Y-33351D01*
X66482Y-33467D01*
X66571Y-33555D01*
X66687Y-33603D01*
X66812Y-33603D01*
X66928Y-33556D01*
X66990Y-33494D01*
X66990Y-33559D01*
X67009Y-33659D01*
X67066Y-33743D01*
X68540Y-35218D01*
X68540Y-35218D01*
X68625Y-35274D01*
X68625Y-35274D01*
X68641Y-35278D01*
X68724Y-35294D01*
X68844Y-35294D01*
X68850Y-35301D01*
X68966Y-35349D01*
X69092Y-35349D01*
X69207Y-35301D01*
X69269Y-35239D01*
X69320Y-35290D01*
X69940Y-35290D01*
X69940Y-34920D01*
X69880Y-34860D01*
X69547Y-34859D01*
X69452Y-34860D01*
X69363Y-34896D01*
X69328Y-34932D01*
X69296Y-34856D01*
X69208Y-34767D01*
X69092Y-34719D01*
X68967Y-34719D01*
X68851Y-34767D01*
X68844Y-34774D01*
X68832Y-34774D01*
X68527Y-34470D01*
X69219Y-34470D01*
X69377Y-34470D01*
X69381Y-34479D01*
X69420Y-34518D01*
X69472Y-34539D01*
X69527Y-34540D01*
X70460Y-34540D01*
X70460Y-34859D01*
X70452Y-34859D01*
X70120Y-34860D01*
X70060Y-34920D01*
X70060Y-35290D01*
X70067Y-35290D01*
X70067Y-35410D01*
X70060Y-35410D01*
X70060Y-35417D01*
X69940Y-35417D01*
X69940Y-35410D01*
X69320Y-35410D01*
X69260Y-35470D01*
X69259Y-35647D01*
X69296Y-35735D01*
X69363Y-35803D01*
X69446Y-35837D01*
X66953Y-35837D01*
X66884Y-35851D01*
X66865Y-35864D01*
X66826Y-35890D01*
X66432Y-36284D01*
X66372Y-36259D01*
X66347Y-36260D01*
X66287Y-36320D01*
X66287Y-36690D01*
X66290Y-36690D01*
X66290Y-36810D01*
X66287Y-36810D01*
X66287Y-36817D01*
X66212Y-36817D01*
X66212Y-36810D01*
X66212Y-36690D01*
X66212Y-36320D01*
X66212Y-33180D01*
X66212Y-32810D01*
X66005Y-32810D01*
X65995Y-32810D01*
X65787Y-32810D01*
X65787Y-33180D01*
X65847Y-33240D01*
X65872Y-33240D01*
X65960Y-33203D01*
X66000Y-33164D01*
X66039Y-33203D01*
X66127Y-33240D01*
X66152Y-33240D01*
X66212Y-33180D01*
X66212Y-36320D01*
X66152Y-36260D01*
X66127Y-36259D01*
X66039Y-36296D01*
X66000Y-36335D01*
X65960Y-36296D01*
X65872Y-36259D01*
X65847Y-36260D01*
X65787Y-36320D01*
X65787Y-36690D01*
X65995Y-36690D01*
X66005Y-36690D01*
X66212Y-36690D01*
X66212Y-36810D01*
X66005Y-36810D01*
X65995Y-36810D01*
X65787Y-36810D01*
X65787Y-37180D01*
X65847Y-37240D01*
X65872Y-37240D01*
X65960Y-37203D01*
X66000Y-37164D01*
X66039Y-37203D01*
X66057Y-37211D01*
X65712Y-37556D01*
X65712Y-37180D01*
X65712Y-36810D01*
X65712Y-36690D01*
X65712Y-36320D01*
X65712Y-33180D01*
X65712Y-32810D01*
X65505Y-32810D01*
X65495Y-32810D01*
X65287Y-32810D01*
X65287Y-33180D01*
X65347Y-33240D01*
X65372Y-33240D01*
X65460Y-33203D01*
X65500Y-33164D01*
X65539Y-33203D01*
X65627Y-33240D01*
X65652Y-33240D01*
X65712Y-33180D01*
X65712Y-36320D01*
X65652Y-36260D01*
X65627Y-36259D01*
X65539Y-36296D01*
X65500Y-36335D01*
X65460Y-36296D01*
X65372Y-36259D01*
X65347Y-36260D01*
X65287Y-36320D01*
X65287Y-36690D01*
X65495Y-36690D01*
X65505Y-36690D01*
X65712Y-36690D01*
X65712Y-36810D01*
X65505Y-36810D01*
X65495Y-36810D01*
X65287Y-36810D01*
X65287Y-37180D01*
X65347Y-37240D01*
X65372Y-37240D01*
X65460Y-37203D01*
X65500Y-37164D01*
X65539Y-37203D01*
X65627Y-37240D01*
X65652Y-37240D01*
X65712Y-37180D01*
X65712Y-37556D01*
X65381Y-37887D01*
X65342Y-37945D01*
X65328Y-38014D01*
X65328Y-39645D01*
X65342Y-39714D01*
X65381Y-39773D01*
X66522Y-40914D01*
X66411Y-41025D01*
X66372Y-41009D01*
X66347Y-41010D01*
X66287Y-41070D01*
X66287Y-41440D01*
X66309Y-41440D01*
X66309Y-41560D01*
X66287Y-41560D01*
X66287Y-41567D01*
X66212Y-41567D01*
X66212Y-41560D01*
X66212Y-41440D01*
X66212Y-41070D01*
X66152Y-41010D01*
X66127Y-41009D01*
X66039Y-41046D01*
X66000Y-41085D01*
X65960Y-41046D01*
X65872Y-41009D01*
X65847Y-41010D01*
X65787Y-41070D01*
X65787Y-41440D01*
X65995Y-41440D01*
X66005Y-41440D01*
X66212Y-41440D01*
X66212Y-41560D01*
X66005Y-41560D01*
X65995Y-41560D01*
X65787Y-41560D01*
X65787Y-41930D01*
X65847Y-41990D01*
X65872Y-41990D01*
X65960Y-41953D01*
X66000Y-41914D01*
X66039Y-41953D01*
X66058Y-41961D01*
X65712Y-42306D01*
X65712Y-41930D01*
X65712Y-41560D01*
X65712Y-41440D01*
X65712Y-41070D01*
X65652Y-41010D01*
X65627Y-41009D01*
X65539Y-41046D01*
X65500Y-41085D01*
X65460Y-41046D01*
X65372Y-41009D01*
X65347Y-41010D01*
X65287Y-41070D01*
X65287Y-41440D01*
X65495Y-41440D01*
X65505Y-41440D01*
X65712Y-41440D01*
X65712Y-41560D01*
X65505Y-41560D01*
X65495Y-41560D01*
X65287Y-41560D01*
X65287Y-41930D01*
X65347Y-41990D01*
X65372Y-41990D01*
X65460Y-41953D01*
X65500Y-41914D01*
X65539Y-41953D01*
X65627Y-41990D01*
X65652Y-41990D01*
X65712Y-41930D01*
X65712Y-42306D01*
X65212Y-42806D01*
X65212Y-41930D01*
X65212Y-41560D01*
X65212Y-41440D01*
X65212Y-41070D01*
X65212Y-37180D01*
X65212Y-36810D01*
X65212Y-36690D01*
X65212Y-36320D01*
X65212Y-33180D01*
X65212Y-32810D01*
X65005Y-32810D01*
X64995Y-32810D01*
X64787Y-32810D01*
X64787Y-33180D01*
X64847Y-33240D01*
X64872Y-33240D01*
X64960Y-33203D01*
X65000Y-33164D01*
X65039Y-33203D01*
X65127Y-33240D01*
X65152Y-33240D01*
X65212Y-33180D01*
X65212Y-36320D01*
X65152Y-36260D01*
X65127Y-36259D01*
X65039Y-36296D01*
X65000Y-36335D01*
X64960Y-36296D01*
X64872Y-36259D01*
X64847Y-36260D01*
X64787Y-36320D01*
X64787Y-36690D01*
X64995Y-36690D01*
X65005Y-36690D01*
X65212Y-36690D01*
X65212Y-36810D01*
X65005Y-36810D01*
X64995Y-36810D01*
X64787Y-36810D01*
X64787Y-37180D01*
X64847Y-37240D01*
X64872Y-37240D01*
X64960Y-37203D01*
X65000Y-37164D01*
X65039Y-37203D01*
X65127Y-37240D01*
X65152Y-37240D01*
X65212Y-37180D01*
X65212Y-41070D01*
X65152Y-41010D01*
X65127Y-41009D01*
X65039Y-41046D01*
X65000Y-41085D01*
X64960Y-41046D01*
X64872Y-41009D01*
X64847Y-41010D01*
X64787Y-41070D01*
X64787Y-41440D01*
X64995Y-41440D01*
X65005Y-41440D01*
X65212Y-41440D01*
X65212Y-41560D01*
X65005Y-41560D01*
X64995Y-41560D01*
X64787Y-41560D01*
X64787Y-41930D01*
X64847Y-41990D01*
X64872Y-41990D01*
X64960Y-41953D01*
X65000Y-41914D01*
X65039Y-41953D01*
X65127Y-41990D01*
X65152Y-41990D01*
X65212Y-41930D01*
X65212Y-42806D01*
X64485Y-43534D01*
X63786Y-43534D01*
X63717Y-43547D01*
X63658Y-43586D01*
X57872Y-49372D01*
X57833Y-49431D01*
X57820Y-49500D01*
X57820Y-49888D01*
X57688Y-49976D01*
X57593Y-50119D01*
X57560Y-50287D01*
X57560Y-50712D01*
X57593Y-50880D01*
X57649Y-50964D01*
X57350Y-50964D01*
X57406Y-50880D01*
X57440Y-50712D01*
X57440Y-50287D01*
X57406Y-50119D01*
X57311Y-49976D01*
X57168Y-49880D01*
X57000Y-49847D01*
X56831Y-49880D01*
X56688Y-49976D01*
X56593Y-50119D01*
X56560Y-50287D01*
X56560Y-50712D01*
X56593Y-50880D01*
X56649Y-50964D01*
X56350Y-50964D01*
X56406Y-50880D01*
X56440Y-50712D01*
X56440Y-50287D01*
X56406Y-50119D01*
X56311Y-49976D01*
X56168Y-49880D01*
X56000Y-49847D01*
X55831Y-49880D01*
X55688Y-49976D01*
X55593Y-50119D01*
X55560Y-50287D01*
X55560Y-50712D01*
X55593Y-50880D01*
X55649Y-50964D01*
X53582Y-50964D01*
X53440Y-50822D01*
X53440Y-48612D01*
X53440Y-47612D01*
X53373Y-47451D01*
X53249Y-47327D01*
X53087Y-47260D01*
X52912Y-47259D01*
X52751Y-47326D01*
X52627Y-47450D01*
X52560Y-47612D01*
X52559Y-47787D01*
X52626Y-47948D01*
X52750Y-48072D01*
X52912Y-48139D01*
X53087Y-48140D01*
X53248Y-48073D01*
X53372Y-47949D01*
X53439Y-47787D01*
X53440Y-47612D01*
X53440Y-48612D01*
X53373Y-48451D01*
X53249Y-48327D01*
X53087Y-48260D01*
X52912Y-48259D01*
X52751Y-48326D01*
X52627Y-48450D01*
X52560Y-48612D01*
X52559Y-48787D01*
X52626Y-48948D01*
X52750Y-49072D01*
X52912Y-49139D01*
X53087Y-49140D01*
X53248Y-49073D01*
X53372Y-48949D01*
X53439Y-48787D01*
X53440Y-48612D01*
X53440Y-50822D01*
X50268Y-47651D01*
X50362Y-47689D01*
X50537Y-47690D01*
X50698Y-47623D01*
X50822Y-47499D01*
X50889Y-47337D01*
X50890Y-47162D01*
X50823Y-47001D01*
X50770Y-46947D01*
X50770Y-46552D01*
X50822Y-46499D01*
X50889Y-46337D01*
X50890Y-46162D01*
X50823Y-46001D01*
X50770Y-45947D01*
X50770Y-45552D01*
X50822Y-45499D01*
X50889Y-45337D01*
X50890Y-45162D01*
X50823Y-45001D01*
X50770Y-44947D01*
X50770Y-44552D01*
X50822Y-44499D01*
X50889Y-44337D01*
X50890Y-44162D01*
X50823Y-44001D01*
X50699Y-43877D01*
X50672Y-43865D01*
X50672Y-37634D01*
X50698Y-37623D01*
X50822Y-37499D01*
X50889Y-37337D01*
X50890Y-37162D01*
X50823Y-37001D01*
X50770Y-36947D01*
X50770Y-36552D01*
X50822Y-36499D01*
X50889Y-36337D01*
X50890Y-36162D01*
X50823Y-36001D01*
X50770Y-35947D01*
X50770Y-35552D01*
X50822Y-35499D01*
X50889Y-35337D01*
X50890Y-35162D01*
X50823Y-35001D01*
X50770Y-34947D01*
X50770Y-34552D01*
X50822Y-34499D01*
X50830Y-34480D01*
X51097Y-34480D01*
X51077Y-34500D01*
X51010Y-34662D01*
X51009Y-34837D01*
X51076Y-34998D01*
X51200Y-35122D01*
X51362Y-35189D01*
X51537Y-35190D01*
X51698Y-35123D01*
X51822Y-34999D01*
X51889Y-34837D01*
X51890Y-34662D01*
X51823Y-34501D01*
X51802Y-34480D01*
X51858Y-34480D01*
X52494Y-35117D01*
X52598Y-35186D01*
X52721Y-35210D01*
X53325Y-35210D01*
X53325Y-35210D01*
X53447Y-35186D01*
X53551Y-35117D01*
X53660Y-35007D01*
X53674Y-34986D01*
X53701Y-34960D01*
X53715Y-34925D01*
X53730Y-34903D01*
X53734Y-34878D01*
X53749Y-34844D01*
X53749Y-34806D01*
X53754Y-34781D01*
X53749Y-34756D01*
X53749Y-34719D01*
X53735Y-34684D01*
X53730Y-34659D01*
X53715Y-34637D01*
X53701Y-34603D01*
X53674Y-34576D01*
X53660Y-34555D01*
X53639Y-34541D01*
X53613Y-34514D01*
X53578Y-34500D01*
X53556Y-34485D01*
X53531Y-34480D01*
X53497Y-34466D01*
X53459Y-34466D01*
X53434Y-34461D01*
X53409Y-34466D01*
X53407Y-34466D01*
X53439Y-34387D01*
X53440Y-34212D01*
X53440Y-33212D01*
X53373Y-33051D01*
X53249Y-32927D01*
X53087Y-32860D01*
X52912Y-32859D01*
X52840Y-32890D01*
X52840Y-31712D01*
X52840Y-31287D01*
X52806Y-31119D01*
X52711Y-30976D01*
X52568Y-30880D01*
X52400Y-30847D01*
X52231Y-30880D01*
X52088Y-30976D01*
X51993Y-31119D01*
X51960Y-31287D01*
X51960Y-31712D01*
X51993Y-31880D01*
X52088Y-32023D01*
X52231Y-32119D01*
X52400Y-32152D01*
X52568Y-32119D01*
X52711Y-32023D01*
X52806Y-31880D01*
X52840Y-31712D01*
X52840Y-32890D01*
X52751Y-32926D01*
X52627Y-33050D01*
X52560Y-33212D01*
X52559Y-33387D01*
X52626Y-33548D01*
X52750Y-33672D01*
X52912Y-33739D01*
X53087Y-33740D01*
X53248Y-33673D01*
X53372Y-33549D01*
X53439Y-33387D01*
X53440Y-33212D01*
X53440Y-34212D01*
X53373Y-34051D01*
X53249Y-33927D01*
X53087Y-33860D01*
X52912Y-33859D01*
X52751Y-33926D01*
X52627Y-34050D01*
X52560Y-34212D01*
X52560Y-34277D01*
X52216Y-33934D01*
X52113Y-33864D01*
X51990Y-33840D01*
X50610Y-33840D01*
X50537Y-33810D01*
X50362Y-33809D01*
X50301Y-33835D01*
X48148Y-33835D01*
X48087Y-33810D01*
X47912Y-33809D01*
X47751Y-33876D01*
X47627Y-34000D01*
X47560Y-34162D01*
X47559Y-34337D01*
X47626Y-34498D01*
X47680Y-34552D01*
X47680Y-34947D01*
X47627Y-35000D01*
X47560Y-35162D01*
X47559Y-35337D01*
X47626Y-35498D01*
X47680Y-35552D01*
X47680Y-35947D01*
X47627Y-36000D01*
X47560Y-36162D01*
X47559Y-36337D01*
X47626Y-36498D01*
X47680Y-36552D01*
X47680Y-36947D01*
X47627Y-37000D01*
X47560Y-37162D01*
X47559Y-37337D01*
X47626Y-37498D01*
X47750Y-37622D01*
X47912Y-37689D01*
X48087Y-37690D01*
X48248Y-37623D01*
X48372Y-37499D01*
X48439Y-37337D01*
X48440Y-37162D01*
X48373Y-37001D01*
X48320Y-36947D01*
X48320Y-36552D01*
X48372Y-36499D01*
X48439Y-36337D01*
X48440Y-36162D01*
X48373Y-36001D01*
X48320Y-35947D01*
X48320Y-35552D01*
X48372Y-35499D01*
X48439Y-35337D01*
X48440Y-35162D01*
X48373Y-35001D01*
X48320Y-34947D01*
X48320Y-34552D01*
X48372Y-34499D01*
X48382Y-34475D01*
X48652Y-34475D01*
X48627Y-34500D01*
X48560Y-34662D01*
X48559Y-34837D01*
X48626Y-34998D01*
X48750Y-35122D01*
X48912Y-35189D01*
X49087Y-35190D01*
X49248Y-35123D01*
X49372Y-34999D01*
X49439Y-34837D01*
X49440Y-34662D01*
X49373Y-34501D01*
X49347Y-34475D01*
X50066Y-34475D01*
X50076Y-34498D01*
X50130Y-34552D01*
X50130Y-34947D01*
X50077Y-35000D01*
X50010Y-35162D01*
X50009Y-35337D01*
X50076Y-35498D01*
X50130Y-35552D01*
X50130Y-35947D01*
X50077Y-36000D01*
X50010Y-36162D01*
X50009Y-36337D01*
X50076Y-36498D01*
X50130Y-36552D01*
X50130Y-36947D01*
X50077Y-37000D01*
X50010Y-37162D01*
X50009Y-37337D01*
X50032Y-37391D01*
X50032Y-43832D01*
X49440Y-43832D01*
X49440Y-37662D01*
X49440Y-36662D01*
X49440Y-35662D01*
X49373Y-35501D01*
X49249Y-35377D01*
X49087Y-35310D01*
X48912Y-35309D01*
X48751Y-35376D01*
X48627Y-35500D01*
X48560Y-35662D01*
X48559Y-35837D01*
X48626Y-35998D01*
X48750Y-36122D01*
X48912Y-36189D01*
X49087Y-36190D01*
X49248Y-36123D01*
X49372Y-35999D01*
X49439Y-35837D01*
X49440Y-35662D01*
X49440Y-36662D01*
X49373Y-36501D01*
X49249Y-36377D01*
X49087Y-36310D01*
X48912Y-36309D01*
X48751Y-36376D01*
X48627Y-36500D01*
X48560Y-36662D01*
X48559Y-36837D01*
X48626Y-36998D01*
X48750Y-37122D01*
X48912Y-37189D01*
X49087Y-37190D01*
X49248Y-37123D01*
X49372Y-36999D01*
X49439Y-36837D01*
X49440Y-36662D01*
X49440Y-37662D01*
X49373Y-37501D01*
X49249Y-37377D01*
X49087Y-37310D01*
X48912Y-37309D01*
X48751Y-37376D01*
X48627Y-37500D01*
X48560Y-37662D01*
X48559Y-37837D01*
X48626Y-37998D01*
X48750Y-38122D01*
X48912Y-38189D01*
X49087Y-38190D01*
X49248Y-38123D01*
X49372Y-37999D01*
X49439Y-37837D01*
X49440Y-37662D01*
X49440Y-43832D01*
X48141Y-43832D01*
X48087Y-43810D01*
X47912Y-43809D01*
X47751Y-43876D01*
X47627Y-44000D01*
X47560Y-44162D01*
X47559Y-44337D01*
X47626Y-44498D01*
X47680Y-44552D01*
X47680Y-44947D01*
X47627Y-45000D01*
X47560Y-45162D01*
X47559Y-45337D01*
X47626Y-45498D01*
X47680Y-45552D01*
X47680Y-45947D01*
X47627Y-46000D01*
X47560Y-46162D01*
X47559Y-46337D01*
X47626Y-46498D01*
X47680Y-46552D01*
X47680Y-46947D01*
X47627Y-47000D01*
X47560Y-47162D01*
X47559Y-47337D01*
X47626Y-47498D01*
X47750Y-47622D01*
X47912Y-47689D01*
X48087Y-47690D01*
X48248Y-47623D01*
X48372Y-47499D01*
X48439Y-47337D01*
X48440Y-47162D01*
X48373Y-47001D01*
X48320Y-46947D01*
X48320Y-46552D01*
X48372Y-46499D01*
X48439Y-46337D01*
X48440Y-46162D01*
X48373Y-46001D01*
X48320Y-45947D01*
X48320Y-45552D01*
X48372Y-45499D01*
X48439Y-45337D01*
X48440Y-45162D01*
X48373Y-45001D01*
X48320Y-44947D01*
X48320Y-44552D01*
X48372Y-44499D01*
X48384Y-44472D01*
X48655Y-44472D01*
X48627Y-44500D01*
X48560Y-44662D01*
X48559Y-44837D01*
X48626Y-44998D01*
X48750Y-45122D01*
X48912Y-45189D01*
X49087Y-45190D01*
X49248Y-45123D01*
X49372Y-44999D01*
X49439Y-44837D01*
X49440Y-44662D01*
X49373Y-44501D01*
X49344Y-44472D01*
X50065Y-44472D01*
X50076Y-44498D01*
X50130Y-44552D01*
X50130Y-44947D01*
X50077Y-45000D01*
X50010Y-45162D01*
X50009Y-45337D01*
X50076Y-45498D01*
X50130Y-45552D01*
X50130Y-45947D01*
X50077Y-46000D01*
X50010Y-46162D01*
X50009Y-46337D01*
X50076Y-46498D01*
X50130Y-46552D01*
X50130Y-46947D01*
X50077Y-47000D01*
X50010Y-47162D01*
X50009Y-47337D01*
X50048Y-47431D01*
X49439Y-46822D01*
X49440Y-46662D01*
X49440Y-45662D01*
X49373Y-45501D01*
X49249Y-45377D01*
X49087Y-45310D01*
X48912Y-45309D01*
X48751Y-45376D01*
X48627Y-45500D01*
X48560Y-45662D01*
X48559Y-45837D01*
X48626Y-45998D01*
X48750Y-46122D01*
X48912Y-46189D01*
X49087Y-46190D01*
X49248Y-46123D01*
X49372Y-45999D01*
X49439Y-45837D01*
X49440Y-45662D01*
X49440Y-46662D01*
X49373Y-46501D01*
X49249Y-46377D01*
X49087Y-46310D01*
X48912Y-46309D01*
X48751Y-46376D01*
X48627Y-46500D01*
X48560Y-46662D01*
X48559Y-46837D01*
X48626Y-46998D01*
X48750Y-47122D01*
X48912Y-47189D01*
X49072Y-47190D01*
X53217Y-51335D01*
X50875Y-51335D01*
X51017Y-51276D01*
X51275Y-51018D01*
X51414Y-50682D01*
X51415Y-50318D01*
X51276Y-49982D01*
X51018Y-49724D01*
X50682Y-49585D01*
X50318Y-49584D01*
X49982Y-49723D01*
X49724Y-49981D01*
X49585Y-50317D01*
X49584Y-50681D01*
X49723Y-51017D01*
X49981Y-51275D01*
X50124Y-51335D01*
X49440Y-51335D01*
X49440Y-47662D01*
X49373Y-47501D01*
X49249Y-47377D01*
X49087Y-47310D01*
X48912Y-47309D01*
X48751Y-47376D01*
X48627Y-47500D01*
X48560Y-47662D01*
X48559Y-47837D01*
X48626Y-47998D01*
X48750Y-48122D01*
X48912Y-48189D01*
X49087Y-48190D01*
X49248Y-48123D01*
X49372Y-47999D01*
X49439Y-47837D01*
X49440Y-47662D01*
X49440Y-51335D01*
X46840Y-51335D01*
X46840Y-48612D01*
X46840Y-47612D01*
X46840Y-44212D01*
X46840Y-43212D01*
X46840Y-38612D01*
X46840Y-37612D01*
X46840Y-34212D01*
X46840Y-33212D01*
X46773Y-33051D01*
X46649Y-32927D01*
X46487Y-32860D01*
X46312Y-32859D01*
X46151Y-32926D01*
X46027Y-33050D01*
X45960Y-33212D01*
X45959Y-33387D01*
X46026Y-33548D01*
X46150Y-33672D01*
X46312Y-33739D01*
X46487Y-33740D01*
X46648Y-33673D01*
X46772Y-33549D01*
X46839Y-33387D01*
X46840Y-33212D01*
X46840Y-34212D01*
X46773Y-34051D01*
X46649Y-33927D01*
X46487Y-33860D01*
X46312Y-33859D01*
X46151Y-33926D01*
X46027Y-34050D01*
X45960Y-34212D01*
X45959Y-34387D01*
X46026Y-34548D01*
X46150Y-34672D01*
X46312Y-34739D01*
X46487Y-34740D01*
X46648Y-34673D01*
X46772Y-34549D01*
X46839Y-34387D01*
X46840Y-34212D01*
X46840Y-37612D01*
X46773Y-37451D01*
X46649Y-37327D01*
X46487Y-37260D01*
X46312Y-37259D01*
X46151Y-37326D01*
X46027Y-37450D01*
X45960Y-37612D01*
X45959Y-37787D01*
X46026Y-37948D01*
X46150Y-38072D01*
X46312Y-38139D01*
X46487Y-38140D01*
X46648Y-38073D01*
X46772Y-37949D01*
X46839Y-37787D01*
X46840Y-37612D01*
X46840Y-38612D01*
X46773Y-38451D01*
X46649Y-38327D01*
X46487Y-38260D01*
X46312Y-38259D01*
X46151Y-38326D01*
X46027Y-38450D01*
X45960Y-38612D01*
X45959Y-38787D01*
X46026Y-38948D01*
X46150Y-39072D01*
X46312Y-39139D01*
X46487Y-39140D01*
X46648Y-39073D01*
X46772Y-38949D01*
X46839Y-38787D01*
X46840Y-38612D01*
X46840Y-43212D01*
X46773Y-43051D01*
X46649Y-42927D01*
X46487Y-42860D01*
X46312Y-42859D01*
X46151Y-42926D01*
X46027Y-43050D01*
X45960Y-43212D01*
X45959Y-43387D01*
X46026Y-43548D01*
X46150Y-43672D01*
X46312Y-43739D01*
X46487Y-43740D01*
X46648Y-43673D01*
X46772Y-43549D01*
X46839Y-43387D01*
X46840Y-43212D01*
X46840Y-44212D01*
X46773Y-44051D01*
X46649Y-43927D01*
X46487Y-43860D01*
X46312Y-43859D01*
X46151Y-43926D01*
X46027Y-44050D01*
X45960Y-44212D01*
X45959Y-44387D01*
X46026Y-44548D01*
X46150Y-44672D01*
X46312Y-44739D01*
X46487Y-44740D01*
X46648Y-44673D01*
X46772Y-44549D01*
X46839Y-44387D01*
X46840Y-44212D01*
X46840Y-47612D01*
X46773Y-47451D01*
X46649Y-47327D01*
X46487Y-47260D01*
X46312Y-47259D01*
X46151Y-47326D01*
X46027Y-47450D01*
X45960Y-47612D01*
X45959Y-47787D01*
X46026Y-47948D01*
X46150Y-48072D01*
X46312Y-48139D01*
X46487Y-48140D01*
X46648Y-48073D01*
X46772Y-47949D01*
X46839Y-47787D01*
X46840Y-47612D01*
X46840Y-48612D01*
X46773Y-48451D01*
X46649Y-48327D01*
X46487Y-48260D01*
X46312Y-48259D01*
X46151Y-48326D01*
X46027Y-48450D01*
X45960Y-48612D01*
X45959Y-48787D01*
X46026Y-48948D01*
X46150Y-49072D01*
X46312Y-49139D01*
X46487Y-49140D01*
X46648Y-49073D01*
X46772Y-48949D01*
X46839Y-48787D01*
X46840Y-48612D01*
X46840Y-51335D01*
X45640Y-51335D01*
X45640Y-48323D01*
X45640Y-43323D01*
X45640Y-38323D01*
X45640Y-33323D01*
X45504Y-32996D01*
X45254Y-32745D01*
X44927Y-32610D01*
X44573Y-32609D01*
X44246Y-32745D01*
X43995Y-32995D01*
X43860Y-33322D01*
X43859Y-33676D01*
X43995Y-34003D01*
X44245Y-34254D01*
X44572Y-34389D01*
X44926Y-34390D01*
X45253Y-34254D01*
X45504Y-34004D01*
X45639Y-33677D01*
X45640Y-33323D01*
X45640Y-38323D01*
X45504Y-37996D01*
X45254Y-37745D01*
X44927Y-37610D01*
X44573Y-37609D01*
X44246Y-37745D01*
X43995Y-37995D01*
X43860Y-38322D01*
X43859Y-38676D01*
X43995Y-39003D01*
X44245Y-39254D01*
X44572Y-39389D01*
X44926Y-39390D01*
X45253Y-39254D01*
X45504Y-39004D01*
X45639Y-38677D01*
X45640Y-38323D01*
X45640Y-43323D01*
X45504Y-42996D01*
X45254Y-42745D01*
X44927Y-42610D01*
X44573Y-42609D01*
X44246Y-42745D01*
X43995Y-42995D01*
X43860Y-43322D01*
X43859Y-43676D01*
X43995Y-44003D01*
X44245Y-44254D01*
X44572Y-44389D01*
X44926Y-44390D01*
X45253Y-44254D01*
X45504Y-44004D01*
X45639Y-43677D01*
X45640Y-43323D01*
X45640Y-48323D01*
X45504Y-47996D01*
X45254Y-47745D01*
X44927Y-47610D01*
X44573Y-47609D01*
X44246Y-47745D01*
X43995Y-47995D01*
X43860Y-48322D01*
X43859Y-48676D01*
X43995Y-49003D01*
X44245Y-49254D01*
X44572Y-49389D01*
X44926Y-49390D01*
X45253Y-49254D01*
X45504Y-49004D01*
X45639Y-48677D01*
X45640Y-48323D01*
X45640Y-51335D01*
X43665Y-51335D01*
X43665Y-30665D01*
X50624Y-30665D01*
X50482Y-30723D01*
X50224Y-30981D01*
X50085Y-31317D01*
X50084Y-31681D01*
X50223Y-32017D01*
X50481Y-32275D01*
X50817Y-32414D01*
X51181Y-32415D01*
X51517Y-32276D01*
X51775Y-32018D01*
X51914Y-31682D01*
X51915Y-31318D01*
X51776Y-30982D01*
X51518Y-30724D01*
X51375Y-30665D01*
X80124Y-30665D01*
X79982Y-30723D01*
X79724Y-30981D01*
X79585Y-31317D01*
X79584Y-31681D01*
X79723Y-32017D01*
X79981Y-32275D01*
X80317Y-32414D01*
X80681Y-32415D01*
X81017Y-32276D01*
X81275Y-32018D01*
X81414Y-31682D01*
X81415Y-31318D01*
X81276Y-30982D01*
X81018Y-30724D01*
X80875Y-30665D01*
X89335Y-30665D01*
X89335Y-51335D01*
M02*
