G04 (created by PCBNEW (2013-jul-07)-stable) date Wed 06 Aug 2014 01:53:19 PM EDT*
%MOIN*%
G04 Gerber Fmt 3.4, Leading zero omitted, Abs format*
%FSLAX34Y34*%
G01*
G70*
G90*
G04 APERTURE LIST*
%ADD10C,0.00590551*%
%ADD11C,0.009*%
%ADD12C,0.005*%
%ADD13C,0.015*%
%ADD14C,0.01*%
%ADD15C,0.175*%
%ADD16O,0.08X0.12*%
%ADD17C,0.08*%
%ADD18C,0.096*%
%ADD19C,0.16*%
%ADD20C,0.18*%
%ADD21R,0.07X0.12*%
%ADD22R,0.12X0.07*%
%ADD23R,0.035X0.07*%
%ADD24C,0.17*%
G04 APERTURE END LIST*
G54D10*
G54D11*
X89500Y-51500D02*
X43500Y-51500D01*
X43500Y-30500D02*
X89500Y-30500D01*
X43500Y-30500D02*
X43500Y-51500D01*
X89500Y-51500D02*
X89500Y-30500D01*
G54D12*
X84950Y-43800D02*
X84350Y-43800D01*
X84350Y-43800D02*
X84350Y-42700D01*
X84350Y-42700D02*
X84950Y-42700D01*
X85550Y-42700D02*
X86150Y-42700D01*
X86150Y-42700D02*
X86150Y-43800D01*
X86150Y-43800D02*
X85550Y-43800D01*
X69450Y-34450D02*
X69450Y-33850D01*
X69450Y-33850D02*
X70550Y-33850D01*
X70550Y-33850D02*
X70550Y-34450D01*
X70550Y-35050D02*
X70550Y-35650D01*
X70550Y-35650D02*
X69450Y-35650D01*
X69450Y-35650D02*
X69450Y-35050D01*
X69450Y-43200D02*
X69450Y-42600D01*
X69450Y-42600D02*
X70550Y-42600D01*
X70550Y-42600D02*
X70550Y-43200D01*
X70550Y-43800D02*
X70550Y-44400D01*
X70550Y-44400D02*
X69450Y-44400D01*
X69450Y-44400D02*
X69450Y-43800D01*
G54D13*
X68500Y-35750D02*
G75*
G03X68500Y-35750I-250J0D01*
G74*
G01*
X68750Y-33250D02*
X68750Y-36250D01*
X68750Y-36250D02*
X62250Y-36250D01*
X62250Y-36250D02*
X62250Y-33250D01*
X62250Y-33250D02*
X68750Y-33250D01*
X68500Y-44500D02*
G75*
G03X68500Y-44500I-250J0D01*
G74*
G01*
X68750Y-42000D02*
X68750Y-45000D01*
X68750Y-45000D02*
X62250Y-45000D01*
X62250Y-45000D02*
X62250Y-42000D01*
X62250Y-42000D02*
X68750Y-42000D01*
G54D14*
X85316Y-42373D02*
X85335Y-42392D01*
X85392Y-42411D01*
X85430Y-42411D01*
X85488Y-42392D01*
X85526Y-42354D01*
X85545Y-42316D01*
X85564Y-42240D01*
X85564Y-42183D01*
X85545Y-42107D01*
X85526Y-42069D01*
X85488Y-42030D01*
X85430Y-42011D01*
X85392Y-42011D01*
X85335Y-42030D01*
X85316Y-42050D01*
X84935Y-42411D02*
X85164Y-42411D01*
X85049Y-42411D02*
X85049Y-42011D01*
X85088Y-42069D01*
X85126Y-42107D01*
X85164Y-42126D01*
X85488Y-44411D02*
X85716Y-44411D01*
X85602Y-44411D02*
X85602Y-44011D01*
X85640Y-44069D01*
X85678Y-44107D01*
X85716Y-44126D01*
X85145Y-44145D02*
X85145Y-44411D01*
X85316Y-44145D02*
X85316Y-44354D01*
X85297Y-44392D01*
X85259Y-44411D01*
X85202Y-44411D01*
X85164Y-44392D01*
X85145Y-44373D01*
X84821Y-44202D02*
X84954Y-44202D01*
X84954Y-44411D02*
X84954Y-44011D01*
X84764Y-44011D01*
X70066Y-36123D02*
X70085Y-36142D01*
X70142Y-36161D01*
X70180Y-36161D01*
X70238Y-36142D01*
X70276Y-36104D01*
X70295Y-36066D01*
X70314Y-35990D01*
X70314Y-35933D01*
X70295Y-35857D01*
X70276Y-35819D01*
X70238Y-35780D01*
X70180Y-35761D01*
X70142Y-35761D01*
X70085Y-35780D01*
X70066Y-35800D01*
X69914Y-35800D02*
X69895Y-35780D01*
X69857Y-35761D01*
X69761Y-35761D01*
X69723Y-35780D01*
X69704Y-35800D01*
X69685Y-35838D01*
X69685Y-35876D01*
X69704Y-35933D01*
X69933Y-36161D01*
X69685Y-36161D01*
X70761Y-34092D02*
X70761Y-34130D01*
X70780Y-34169D01*
X70800Y-34188D01*
X70838Y-34207D01*
X70914Y-34226D01*
X71009Y-34226D01*
X71085Y-34207D01*
X71123Y-34188D01*
X71142Y-34169D01*
X71161Y-34130D01*
X71161Y-34092D01*
X71142Y-34054D01*
X71123Y-34035D01*
X71085Y-34016D01*
X71009Y-33997D01*
X70914Y-33997D01*
X70838Y-34016D01*
X70800Y-34035D01*
X70780Y-34054D01*
X70761Y-34092D01*
X71123Y-34397D02*
X71142Y-34416D01*
X71161Y-34397D01*
X71142Y-34378D01*
X71123Y-34397D01*
X71161Y-34397D01*
X71161Y-34797D02*
X71161Y-34569D01*
X71161Y-34683D02*
X70761Y-34683D01*
X70819Y-34645D01*
X70857Y-34607D01*
X70876Y-34569D01*
X70895Y-35140D02*
X71161Y-35140D01*
X70895Y-34969D02*
X71104Y-34969D01*
X71142Y-34988D01*
X71161Y-35026D01*
X71161Y-35083D01*
X71142Y-35121D01*
X71123Y-35140D01*
X70952Y-35464D02*
X70952Y-35330D01*
X71161Y-35330D02*
X70761Y-35330D01*
X70761Y-35521D01*
X70066Y-45123D02*
X70085Y-45142D01*
X70142Y-45161D01*
X70180Y-45161D01*
X70238Y-45142D01*
X70276Y-45104D01*
X70295Y-45066D01*
X70314Y-44990D01*
X70314Y-44933D01*
X70295Y-44857D01*
X70276Y-44819D01*
X70238Y-44780D01*
X70180Y-44761D01*
X70142Y-44761D01*
X70085Y-44780D01*
X70066Y-44800D01*
X69933Y-44761D02*
X69685Y-44761D01*
X69819Y-44914D01*
X69761Y-44914D01*
X69723Y-44933D01*
X69704Y-44952D01*
X69685Y-44990D01*
X69685Y-45085D01*
X69704Y-45123D01*
X69723Y-45142D01*
X69761Y-45161D01*
X69876Y-45161D01*
X69914Y-45142D01*
X69933Y-45123D01*
X70761Y-42842D02*
X70761Y-42880D01*
X70780Y-42919D01*
X70800Y-42938D01*
X70838Y-42957D01*
X70914Y-42976D01*
X71009Y-42976D01*
X71085Y-42957D01*
X71123Y-42938D01*
X71142Y-42919D01*
X71161Y-42880D01*
X71161Y-42842D01*
X71142Y-42804D01*
X71123Y-42785D01*
X71085Y-42766D01*
X71009Y-42747D01*
X70914Y-42747D01*
X70838Y-42766D01*
X70800Y-42785D01*
X70780Y-42804D01*
X70761Y-42842D01*
X71123Y-43147D02*
X71142Y-43166D01*
X71161Y-43147D01*
X71142Y-43128D01*
X71123Y-43147D01*
X71161Y-43147D01*
X71161Y-43547D02*
X71161Y-43319D01*
X71161Y-43433D02*
X70761Y-43433D01*
X70819Y-43395D01*
X70857Y-43357D01*
X70876Y-43319D01*
X70895Y-43890D02*
X71161Y-43890D01*
X70895Y-43719D02*
X71104Y-43719D01*
X71142Y-43738D01*
X71161Y-43776D01*
X71161Y-43833D01*
X71142Y-43871D01*
X71123Y-43890D01*
X70952Y-44214D02*
X70952Y-44080D01*
X71161Y-44080D02*
X70761Y-44080D01*
X70761Y-44271D01*
X69304Y-32511D02*
X69304Y-32835D01*
X69285Y-32873D01*
X69266Y-32892D01*
X69228Y-32911D01*
X69152Y-32911D01*
X69114Y-32892D01*
X69095Y-32873D01*
X69076Y-32835D01*
X69076Y-32511D01*
X68676Y-32911D02*
X68904Y-32911D01*
X68790Y-32911D02*
X68790Y-32511D01*
X68828Y-32569D01*
X68866Y-32607D01*
X68904Y-32626D01*
X66719Y-37261D02*
X66490Y-37261D01*
X66604Y-37661D02*
X66604Y-37261D01*
X66166Y-37661D02*
X66357Y-37661D01*
X66357Y-37261D01*
X66033Y-37452D02*
X65900Y-37452D01*
X65842Y-37661D02*
X66033Y-37661D01*
X66033Y-37261D01*
X65842Y-37261D01*
X65709Y-37261D02*
X65442Y-37261D01*
X65614Y-37661D01*
X65309Y-37300D02*
X65290Y-37280D01*
X65252Y-37261D01*
X65157Y-37261D01*
X65119Y-37280D01*
X65100Y-37300D01*
X65080Y-37338D01*
X65080Y-37376D01*
X65100Y-37433D01*
X65328Y-37661D01*
X65080Y-37661D01*
X64947Y-37261D02*
X64700Y-37261D01*
X64833Y-37414D01*
X64776Y-37414D01*
X64738Y-37433D01*
X64719Y-37452D01*
X64700Y-37490D01*
X64700Y-37585D01*
X64719Y-37623D01*
X64738Y-37642D01*
X64776Y-37661D01*
X64890Y-37661D01*
X64928Y-37642D01*
X64947Y-37623D01*
X64566Y-37261D02*
X64300Y-37661D01*
X64300Y-37261D02*
X64566Y-37661D01*
X69304Y-41261D02*
X69304Y-41585D01*
X69285Y-41623D01*
X69266Y-41642D01*
X69228Y-41661D01*
X69152Y-41661D01*
X69114Y-41642D01*
X69095Y-41623D01*
X69076Y-41585D01*
X69076Y-41261D01*
X68904Y-41300D02*
X68885Y-41280D01*
X68847Y-41261D01*
X68752Y-41261D01*
X68714Y-41280D01*
X68695Y-41300D01*
X68676Y-41338D01*
X68676Y-41376D01*
X68695Y-41433D01*
X68923Y-41661D01*
X68676Y-41661D01*
X66719Y-46011D02*
X66490Y-46011D01*
X66604Y-46411D02*
X66604Y-46011D01*
X66166Y-46411D02*
X66357Y-46411D01*
X66357Y-46011D01*
X66033Y-46202D02*
X65900Y-46202D01*
X65842Y-46411D02*
X66033Y-46411D01*
X66033Y-46011D01*
X65842Y-46011D01*
X65709Y-46011D02*
X65442Y-46011D01*
X65614Y-46411D01*
X65309Y-46050D02*
X65290Y-46030D01*
X65252Y-46011D01*
X65157Y-46011D01*
X65119Y-46030D01*
X65100Y-46050D01*
X65080Y-46088D01*
X65080Y-46126D01*
X65100Y-46183D01*
X65328Y-46411D01*
X65080Y-46411D01*
X64947Y-46011D02*
X64700Y-46011D01*
X64833Y-46164D01*
X64776Y-46164D01*
X64738Y-46183D01*
X64719Y-46202D01*
X64700Y-46240D01*
X64700Y-46335D01*
X64719Y-46373D01*
X64738Y-46392D01*
X64776Y-46411D01*
X64890Y-46411D01*
X64928Y-46392D01*
X64947Y-46373D01*
X64566Y-46011D02*
X64300Y-46411D01*
X64300Y-46011D02*
X64566Y-46411D01*
%LPC*%
G54D15*
X50500Y-50500D03*
X51000Y-31500D03*
X83000Y-50500D03*
X80500Y-31500D03*
G54D16*
X56000Y-50500D03*
X57000Y-50500D03*
X58000Y-50500D03*
X59000Y-50500D03*
X60000Y-50500D03*
X61000Y-50500D03*
X62000Y-50500D03*
X63000Y-50500D03*
X65000Y-50500D03*
X66000Y-50500D03*
X67000Y-50500D03*
X68000Y-50500D03*
X69000Y-50500D03*
X70000Y-50500D03*
X71000Y-50500D03*
X72000Y-50500D03*
X74000Y-50500D03*
X75000Y-50500D03*
X76000Y-50500D03*
X77000Y-50500D03*
X78000Y-50500D03*
X79000Y-50500D03*
X80000Y-50500D03*
X81000Y-50500D03*
X52400Y-31500D03*
X53400Y-31500D03*
X54400Y-31500D03*
X55400Y-31500D03*
X56400Y-31500D03*
X57400Y-31500D03*
X58400Y-31500D03*
X59400Y-31500D03*
X60400Y-31500D03*
X61400Y-31500D03*
X63000Y-31500D03*
X70000Y-31500D03*
X69000Y-31500D03*
X68000Y-31500D03*
X67000Y-31500D03*
X66000Y-31500D03*
X65000Y-31500D03*
X64000Y-31500D03*
X72000Y-31500D03*
X73000Y-31500D03*
X74000Y-31500D03*
X75000Y-31500D03*
X76000Y-31500D03*
X77000Y-31500D03*
X78000Y-31500D03*
X79000Y-31500D03*
G54D17*
X82000Y-31500D03*
X83000Y-31500D03*
X82000Y-32500D03*
X83000Y-32500D03*
X82000Y-33500D03*
X83000Y-33500D03*
X82000Y-34500D03*
X83000Y-34500D03*
X82000Y-35500D03*
X83000Y-35500D03*
X82000Y-36500D03*
X83000Y-36500D03*
X82000Y-37500D03*
X83000Y-37500D03*
X82000Y-38500D03*
X83000Y-38500D03*
X82000Y-39500D03*
X83000Y-39500D03*
X82000Y-40500D03*
X83000Y-40500D03*
X82000Y-41500D03*
X83000Y-41500D03*
X82000Y-42500D03*
X83000Y-42500D03*
X82000Y-43500D03*
X83000Y-43500D03*
X82000Y-44500D03*
X83000Y-44500D03*
X82000Y-45500D03*
X83000Y-45500D03*
X82000Y-46500D03*
X83000Y-46500D03*
X82000Y-47500D03*
X83000Y-47500D03*
X82000Y-48500D03*
X83000Y-48500D03*
G54D18*
X88320Y-41000D03*
G54D19*
X87140Y-41000D03*
G54D20*
X84780Y-41000D03*
G54D19*
X87530Y-39230D03*
X87530Y-42770D03*
G54D21*
X84650Y-43250D03*
X85850Y-43250D03*
G54D22*
X70000Y-34150D03*
X70000Y-35350D03*
X70000Y-42900D03*
X70000Y-44100D03*
G54D23*
X65750Y-36750D03*
X66250Y-36750D03*
X66750Y-36750D03*
X67250Y-36750D03*
X67750Y-36750D03*
X68250Y-36750D03*
X65250Y-36750D03*
X64750Y-36750D03*
X64250Y-36750D03*
X63750Y-36750D03*
X63250Y-36750D03*
X62750Y-36750D03*
X62750Y-32750D03*
X63250Y-32750D03*
X63750Y-32750D03*
X64250Y-32750D03*
X64750Y-32750D03*
X65250Y-32750D03*
X65750Y-32750D03*
X66250Y-32750D03*
X66750Y-32750D03*
X67250Y-32750D03*
X67750Y-32750D03*
X68250Y-32750D03*
G54D24*
X44750Y-33500D03*
X44750Y-38500D03*
G54D17*
X46400Y-33300D03*
X46400Y-34300D03*
X46400Y-37700D03*
X46400Y-38700D03*
X48000Y-34250D03*
X48000Y-35250D03*
X48000Y-36250D03*
X48000Y-37250D03*
X49000Y-34750D03*
X49000Y-35750D03*
X49000Y-36750D03*
X49000Y-37750D03*
X50450Y-34250D03*
X50450Y-35250D03*
X51450Y-34750D03*
X51450Y-35750D03*
X50450Y-36250D03*
X51450Y-36750D03*
X50450Y-37250D03*
X51450Y-37750D03*
X53000Y-33300D03*
X53000Y-34300D03*
X53000Y-37700D03*
X53000Y-38700D03*
G54D24*
X44750Y-43500D03*
X44750Y-48500D03*
G54D17*
X46400Y-43300D03*
X46400Y-44300D03*
X46400Y-47700D03*
X46400Y-48700D03*
X48000Y-44250D03*
X48000Y-45250D03*
X48000Y-46250D03*
X48000Y-47250D03*
X49000Y-44750D03*
X49000Y-45750D03*
X49000Y-46750D03*
X49000Y-47750D03*
X50450Y-44250D03*
X50450Y-45250D03*
X51450Y-44750D03*
X51450Y-45750D03*
X50450Y-46250D03*
X51450Y-46750D03*
X50450Y-47250D03*
X51450Y-47750D03*
X53000Y-43300D03*
X53000Y-44300D03*
X53000Y-47700D03*
X53000Y-48700D03*
G54D23*
X65750Y-45500D03*
X66250Y-45500D03*
X66750Y-45500D03*
X67250Y-45500D03*
X67750Y-45500D03*
X68250Y-45500D03*
X65250Y-45500D03*
X64750Y-45500D03*
X64250Y-45500D03*
X63750Y-45500D03*
X63250Y-45500D03*
X62750Y-45500D03*
X62750Y-41500D03*
X63250Y-41500D03*
X63750Y-41500D03*
X64250Y-41500D03*
X64750Y-41500D03*
X65250Y-41500D03*
X65750Y-41500D03*
X66250Y-41500D03*
X66750Y-41500D03*
X67250Y-41500D03*
X67750Y-41500D03*
X68250Y-41500D03*
M02*
