G04 (created by PCBNEW (2013-jul-07)-stable) date Wed 06 Aug 2014 01:53:19 PM EDT*
%MOIN*%
G04 Gerber Fmt 3.4, Leading zero omitted, Abs format*
%FSLAX34Y34*%
G01*
G70*
G90*
G04 APERTURE LIST*
%ADD10C,0.00590551*%
%ADD11C,0.009*%
%ADD12C,0.155*%
%ADD13O,0.06X0.1*%
%ADD14C,0.06*%
%ADD15C,0.076*%
%ADD16C,0.14*%
%ADD17C,0.16*%
%ADD18R,0.05X0.1*%
%ADD19R,0.028X0.041*%
%ADD20C,0.15*%
%ADD21R,0.047X0.047*%
%ADD22C,0.035*%
%ADD23C,0.036*%
%ADD24C,0.008*%
%ADD25C,0.024*%
%ADD26C,0.016*%
G04 APERTURE END LIST*
G54D10*
G54D11*
X89500Y-51500D02*
X43500Y-51500D01*
X43500Y-30500D02*
X89500Y-30500D01*
X43500Y-30500D02*
X43500Y-51500D01*
X89500Y-51500D02*
X89500Y-30500D01*
G54D12*
X50500Y-50500D03*
X51000Y-31500D03*
X83000Y-50500D03*
X80500Y-31500D03*
G54D13*
X56000Y-50500D03*
X57000Y-50500D03*
X58000Y-50500D03*
X59000Y-50500D03*
X60000Y-50500D03*
X61000Y-50500D03*
X62000Y-50500D03*
X63000Y-50500D03*
X65000Y-50500D03*
X66000Y-50500D03*
X67000Y-50500D03*
X68000Y-50500D03*
X69000Y-50500D03*
X70000Y-50500D03*
X71000Y-50500D03*
X72000Y-50500D03*
X74000Y-50500D03*
X75000Y-50500D03*
X76000Y-50500D03*
X77000Y-50500D03*
X78000Y-50500D03*
X79000Y-50500D03*
X80000Y-50500D03*
X81000Y-50500D03*
X52400Y-31500D03*
X53400Y-31500D03*
X54400Y-31500D03*
X55400Y-31500D03*
X56400Y-31500D03*
X57400Y-31500D03*
X58400Y-31500D03*
X59400Y-31500D03*
X60400Y-31500D03*
X61400Y-31500D03*
X63000Y-31500D03*
X70000Y-31500D03*
X69000Y-31500D03*
X68000Y-31500D03*
X67000Y-31500D03*
X66000Y-31500D03*
X65000Y-31500D03*
X64000Y-31500D03*
X72000Y-31500D03*
X73000Y-31500D03*
X74000Y-31500D03*
X75000Y-31500D03*
X76000Y-31500D03*
X77000Y-31500D03*
X78000Y-31500D03*
X79000Y-31500D03*
G54D14*
X82000Y-31500D03*
X83000Y-31500D03*
X82000Y-32500D03*
X83000Y-32500D03*
X82000Y-33500D03*
X83000Y-33500D03*
X82000Y-34500D03*
X83000Y-34500D03*
X82000Y-35500D03*
X83000Y-35500D03*
X82000Y-36500D03*
X83000Y-36500D03*
X82000Y-37500D03*
X83000Y-37500D03*
X82000Y-38500D03*
X83000Y-38500D03*
X82000Y-39500D03*
X83000Y-39500D03*
X82000Y-40500D03*
X83000Y-40500D03*
X82000Y-41500D03*
X83000Y-41500D03*
X82000Y-42500D03*
X83000Y-42500D03*
X82000Y-43500D03*
X83000Y-43500D03*
X82000Y-44500D03*
X83000Y-44500D03*
X82000Y-45500D03*
X83000Y-45500D03*
X82000Y-46500D03*
X83000Y-46500D03*
X82000Y-47500D03*
X83000Y-47500D03*
X82000Y-48500D03*
X83000Y-48500D03*
G54D15*
X88320Y-41000D03*
G54D16*
X87140Y-41000D03*
G54D17*
X84780Y-41000D03*
G54D16*
X87530Y-39230D03*
X87530Y-42770D03*
G54D18*
X84150Y-35750D03*
X85350Y-35750D03*
G54D19*
X59750Y-35640D03*
X60250Y-35640D03*
X60750Y-35640D03*
X61250Y-35640D03*
X61250Y-34360D03*
X60750Y-34360D03*
X60250Y-34360D03*
X59750Y-34360D03*
X69750Y-44390D03*
X70250Y-44390D03*
X70750Y-44390D03*
X71250Y-44390D03*
X71250Y-43110D03*
X70750Y-43110D03*
X70250Y-43110D03*
X69750Y-43110D03*
X59750Y-44390D03*
X60250Y-44390D03*
X60750Y-44390D03*
X61250Y-44390D03*
X61250Y-43110D03*
X60750Y-43110D03*
X60250Y-43110D03*
X59750Y-43110D03*
G54D20*
X44750Y-33500D03*
X44750Y-38500D03*
G54D14*
X46400Y-33300D03*
X46400Y-34300D03*
X46400Y-37700D03*
X46400Y-38700D03*
X48000Y-34250D03*
X48000Y-35250D03*
X48000Y-36250D03*
X48000Y-37250D03*
X49000Y-34750D03*
X49000Y-35750D03*
X49000Y-36750D03*
X49000Y-37750D03*
X50450Y-34250D03*
X50450Y-35250D03*
X51450Y-34750D03*
X51450Y-35750D03*
X50450Y-36250D03*
X51450Y-36750D03*
X50450Y-37250D03*
X51450Y-37750D03*
X53000Y-33300D03*
X53000Y-34300D03*
X53000Y-37700D03*
X53000Y-38700D03*
G54D20*
X44750Y-43500D03*
X44750Y-48500D03*
G54D14*
X46400Y-43300D03*
X46400Y-44300D03*
X46400Y-47700D03*
X46400Y-48700D03*
X48000Y-44250D03*
X48000Y-45250D03*
X48000Y-46250D03*
X48000Y-47250D03*
X49000Y-44750D03*
X49000Y-45750D03*
X49000Y-46750D03*
X49000Y-47750D03*
X50450Y-44250D03*
X50450Y-45250D03*
X51450Y-44750D03*
X51450Y-45750D03*
X50450Y-46250D03*
X51450Y-46750D03*
X50450Y-47250D03*
X51450Y-47750D03*
X53000Y-43300D03*
X53000Y-44300D03*
X53000Y-47700D03*
X53000Y-48700D03*
G54D19*
X69750Y-35640D03*
X70250Y-35640D03*
X70750Y-35640D03*
X71250Y-35640D03*
X71250Y-34360D03*
X70750Y-34360D03*
X70250Y-34360D03*
X69750Y-34360D03*
G54D21*
X56750Y-38085D03*
X56750Y-38915D03*
X56750Y-46835D03*
X56750Y-47665D03*
X59250Y-46835D03*
X59250Y-47665D03*
X61750Y-46835D03*
X61750Y-47665D03*
X64250Y-46835D03*
X64250Y-47665D03*
X66750Y-46835D03*
X66750Y-47665D03*
X69250Y-46835D03*
X69250Y-47665D03*
X71750Y-46835D03*
X71750Y-47665D03*
X74250Y-46835D03*
X74250Y-47665D03*
X61750Y-38085D03*
X61750Y-38915D03*
X64250Y-38085D03*
X64250Y-38915D03*
X66750Y-38085D03*
X66750Y-38915D03*
X69250Y-38085D03*
X69250Y-38915D03*
X59250Y-38085D03*
X59250Y-38915D03*
X74250Y-38085D03*
X74250Y-38915D03*
X86835Y-35750D03*
X87665Y-35750D03*
X71750Y-38085D03*
X71750Y-38915D03*
G54D22*
X67750Y-33467D03*
X65841Y-38298D03*
X63749Y-36215D03*
X66256Y-42645D03*
X66750Y-33288D03*
X69029Y-35034D03*
X67728Y-47639D03*
X66222Y-47665D03*
X64305Y-46175D03*
X63175Y-46529D03*
X68542Y-38662D03*
X66323Y-37645D03*
X64130Y-37280D03*
X63187Y-37909D03*
X66750Y-43575D03*
X67237Y-44079D03*
X73500Y-42250D03*
X76000Y-40250D03*
X71859Y-41884D03*
X65062Y-42029D03*
X53434Y-34781D03*
G54D23*
X65841Y-35375D02*
X65841Y-36215D01*
X67750Y-33467D02*
X65841Y-35375D01*
X65841Y-36215D02*
X65841Y-38298D01*
X65841Y-36215D02*
X63749Y-36215D01*
G54D24*
X66304Y-42693D02*
X66256Y-42645D01*
X78193Y-42693D02*
X66304Y-42693D01*
X82000Y-46500D02*
X78193Y-42693D01*
G54D25*
X66227Y-32765D02*
X66750Y-33288D01*
X50984Y-32765D02*
X66227Y-32765D01*
X49000Y-34750D02*
X50984Y-32765D01*
X66975Y-33062D02*
X66750Y-33288D01*
X70627Y-33062D02*
X66975Y-33062D01*
X74719Y-37155D02*
X70627Y-33062D01*
X74719Y-38445D02*
X74719Y-37155D01*
X74250Y-38915D02*
X74719Y-38445D01*
X72205Y-38459D02*
X71750Y-38915D01*
X72205Y-35938D02*
X72205Y-38459D01*
X71301Y-35034D02*
X72205Y-35938D01*
X69029Y-35034D02*
X71301Y-35034D01*
X49000Y-35500D02*
X49000Y-35750D01*
X48457Y-34957D02*
X49000Y-35500D01*
X48457Y-34527D02*
X48457Y-34957D01*
X48520Y-34465D02*
X48457Y-34527D01*
X48520Y-34034D02*
X48520Y-34465D01*
X48215Y-33729D02*
X48520Y-34034D01*
X47784Y-33729D02*
X48215Y-33729D01*
X47472Y-34042D02*
X47784Y-33729D01*
X47472Y-37484D02*
X47472Y-34042D01*
X50592Y-40604D02*
X47472Y-37484D01*
X69605Y-40604D02*
X50592Y-40604D01*
X71294Y-38915D02*
X69605Y-40604D01*
X71750Y-38915D02*
X71294Y-38915D01*
X69250Y-47665D02*
X68794Y-47665D01*
X68769Y-47639D02*
X67728Y-47639D01*
X68794Y-47665D02*
X68769Y-47639D01*
X66750Y-47665D02*
X66294Y-47665D01*
X66294Y-47665D02*
X66222Y-47665D01*
X64662Y-49225D02*
X66222Y-47665D01*
X55543Y-49225D02*
X64662Y-49225D01*
X54831Y-49937D02*
X55543Y-49225D01*
X52191Y-49937D02*
X54831Y-49937D01*
X51731Y-49477D02*
X52191Y-49937D01*
X50727Y-49477D02*
X51731Y-49477D01*
X49000Y-47750D02*
X50727Y-49477D01*
X64371Y-46175D02*
X64305Y-46175D01*
X64705Y-46508D02*
X64371Y-46175D01*
X64705Y-47209D02*
X64705Y-46508D01*
X64250Y-47665D02*
X64705Y-47209D01*
X62075Y-43945D02*
X64305Y-46175D01*
X57603Y-43945D02*
X62075Y-43945D01*
X56725Y-44823D02*
X57603Y-43945D01*
X51523Y-44823D02*
X56725Y-44823D01*
X51450Y-44750D02*
X51523Y-44823D01*
X62205Y-47499D02*
X63175Y-46529D01*
X62205Y-47665D02*
X62205Y-47499D01*
X61977Y-47665D02*
X62205Y-47665D01*
X61977Y-47665D02*
X61750Y-47665D01*
X51450Y-46000D02*
X51450Y-45750D01*
X50925Y-46524D02*
X51450Y-46000D01*
X50925Y-46990D02*
X50925Y-46524D01*
X50991Y-47056D02*
X50925Y-46990D01*
X50991Y-47472D02*
X50991Y-47056D01*
X50918Y-47546D02*
X50991Y-47472D01*
X50918Y-47973D02*
X50918Y-47546D01*
X51550Y-48606D02*
X50918Y-47973D01*
X51992Y-48606D02*
X51550Y-48606D01*
X52613Y-49227D02*
X51992Y-48606D01*
X54063Y-49227D02*
X52613Y-49227D01*
X54771Y-48520D02*
X54063Y-49227D01*
X60439Y-48520D02*
X54771Y-48520D01*
X61294Y-47665D02*
X60439Y-48520D01*
X61750Y-47665D02*
X61294Y-47665D01*
X51839Y-46360D02*
X51450Y-46750D01*
X57490Y-46360D02*
X51839Y-46360D01*
X58794Y-47665D02*
X57490Y-46360D01*
X59250Y-47665D02*
X58794Y-47665D01*
X52033Y-47166D02*
X51450Y-47750D01*
X55795Y-47166D02*
X52033Y-47166D01*
X56294Y-47665D02*
X55795Y-47166D01*
X56750Y-47665D02*
X56294Y-47665D01*
X69250Y-38915D02*
X68794Y-38915D01*
X68794Y-38915D02*
X68542Y-38662D01*
X49000Y-36985D02*
X49000Y-36750D01*
X48460Y-37524D02*
X49000Y-36985D01*
X48460Y-37961D02*
X48460Y-37524D01*
X50750Y-40251D02*
X48460Y-37961D01*
X66953Y-40251D02*
X50750Y-40251D01*
X68542Y-38662D02*
X66953Y-40251D01*
X66750Y-38915D02*
X66403Y-38915D01*
X51148Y-39898D02*
X49000Y-37750D01*
X65201Y-39898D02*
X51148Y-39898D01*
X66294Y-38805D02*
X65201Y-39898D01*
X66403Y-38915D02*
X66294Y-38805D01*
X66294Y-37674D02*
X66323Y-37645D01*
X66294Y-38805D02*
X66294Y-37674D01*
X51914Y-35214D02*
X51450Y-34750D01*
X62064Y-35214D02*
X51914Y-35214D01*
X64130Y-37280D02*
X62064Y-35214D01*
X64228Y-37280D02*
X64130Y-37280D01*
X64705Y-37756D02*
X64228Y-37280D01*
X64705Y-38459D02*
X64705Y-37756D01*
X64250Y-38915D02*
X64705Y-38459D01*
X61522Y-38915D02*
X61294Y-38915D01*
X61522Y-38915D02*
X61750Y-38915D01*
X62205Y-38891D02*
X63187Y-37909D01*
X62205Y-38915D02*
X62205Y-38891D01*
X61750Y-38915D02*
X62205Y-38915D01*
X51450Y-36000D02*
X51450Y-35750D01*
X50925Y-36524D02*
X51450Y-36000D01*
X50925Y-36990D02*
X50925Y-36524D01*
X50991Y-37056D02*
X50925Y-36990D01*
X50991Y-37472D02*
X50991Y-37056D01*
X50918Y-37546D02*
X50991Y-37472D01*
X50918Y-37971D02*
X50918Y-37546D01*
X52505Y-39558D02*
X50918Y-37971D01*
X60651Y-39558D02*
X52505Y-39558D01*
X61294Y-38915D02*
X60651Y-39558D01*
X56629Y-36750D02*
X51450Y-36750D01*
X58794Y-38915D02*
X56629Y-36750D01*
X59250Y-38915D02*
X58794Y-38915D01*
X56750Y-38915D02*
X56294Y-38915D01*
X52020Y-37179D02*
X51450Y-37750D01*
X53215Y-37179D02*
X52020Y-37179D01*
X54950Y-38914D02*
X53215Y-37179D01*
X54950Y-38915D02*
X54950Y-38914D01*
X56294Y-38915D02*
X54950Y-38915D01*
X55450Y-43575D02*
X66750Y-43575D01*
X54653Y-42778D02*
X55450Y-43575D01*
X50971Y-42778D02*
X54653Y-42778D01*
X49000Y-44750D02*
X50971Y-42778D01*
X68078Y-43575D02*
X66750Y-43575D01*
X69546Y-45043D02*
X68078Y-43575D01*
X71173Y-45043D02*
X69546Y-45043D01*
X73794Y-47665D02*
X71173Y-45043D01*
X74250Y-47665D02*
X73794Y-47665D01*
X71750Y-47665D02*
X71294Y-47665D01*
X69102Y-45472D02*
X67237Y-45472D01*
X71294Y-47665D02*
X69102Y-45472D01*
X63825Y-48884D02*
X67237Y-45472D01*
X55402Y-48884D02*
X63825Y-48884D01*
X54712Y-49575D02*
X55402Y-48884D01*
X52480Y-49575D02*
X54712Y-49575D01*
X51946Y-49041D02*
X52480Y-49575D01*
X51504Y-49041D02*
X51946Y-49041D01*
X49604Y-47141D02*
X51504Y-49041D01*
X49604Y-46354D02*
X49604Y-47141D01*
X49000Y-45750D02*
X49604Y-46354D01*
X67237Y-45472D02*
X67237Y-44079D01*
G54D26*
X73171Y-41884D02*
X73171Y-41921D01*
X73171Y-41921D02*
X73500Y-42250D01*
X75528Y-39528D02*
X75528Y-39778D01*
X75528Y-39778D02*
X76000Y-40250D01*
X65207Y-41884D02*
X65062Y-42029D01*
X71859Y-41884D02*
X65207Y-41884D01*
X86639Y-40499D02*
X87140Y-41000D01*
X86639Y-37190D02*
X86639Y-40499D01*
X87665Y-36165D02*
X86639Y-37190D01*
X87665Y-35750D02*
X87665Y-36165D01*
X62000Y-49819D02*
X61000Y-49819D01*
X62000Y-50500D02*
X62000Y-49819D01*
X61000Y-50500D02*
X61000Y-49819D01*
X73171Y-41884D02*
X71859Y-41884D01*
X79076Y-35980D02*
X75528Y-39528D01*
X75528Y-39528D02*
X73171Y-41884D01*
X82206Y-35980D02*
X79076Y-35980D01*
X82519Y-35666D02*
X82206Y-35980D01*
X82519Y-35293D02*
X82519Y-35666D01*
X82813Y-35000D02*
X82519Y-35293D01*
X86915Y-35000D02*
X82813Y-35000D01*
X87665Y-35750D02*
X86915Y-35000D01*
G54D24*
X71250Y-44390D02*
X71530Y-44390D01*
X74250Y-46835D02*
X73874Y-46835D01*
X71530Y-44490D02*
X73874Y-46835D01*
X71530Y-44390D02*
X71530Y-44490D01*
X58874Y-44985D02*
X59469Y-44390D01*
X58874Y-47130D02*
X58874Y-44985D01*
X59034Y-47289D02*
X58874Y-47130D01*
X59545Y-47289D02*
X59034Y-47289D01*
X59625Y-47369D02*
X59545Y-47289D01*
X59625Y-47972D02*
X59625Y-47369D01*
X59556Y-48040D02*
X59625Y-47972D01*
X58330Y-48040D02*
X59556Y-48040D01*
X57125Y-46835D02*
X58330Y-48040D01*
X56750Y-46835D02*
X57125Y-46835D01*
X59750Y-44390D02*
X59469Y-44390D01*
X69949Y-43845D02*
X69750Y-44044D01*
X72203Y-43845D02*
X69949Y-43845D01*
X75009Y-46650D02*
X72203Y-43845D01*
X75009Y-48139D02*
X75009Y-46650D01*
X74727Y-48421D02*
X75009Y-48139D01*
X70836Y-48421D02*
X74727Y-48421D01*
X69625Y-47210D02*
X70836Y-48421D01*
X67500Y-47210D02*
X69625Y-47210D01*
X67125Y-46835D02*
X67500Y-47210D01*
X66750Y-46835D02*
X67125Y-46835D01*
X69750Y-44390D02*
X69750Y-44044D01*
X69250Y-46835D02*
X69625Y-46835D01*
X70250Y-44390D02*
X70250Y-44044D01*
X71015Y-48225D02*
X69625Y-46835D01*
X74652Y-48225D02*
X71015Y-48225D01*
X74805Y-48072D02*
X74652Y-48225D01*
X74805Y-46708D02*
X74805Y-48072D01*
X72141Y-44044D02*
X74805Y-46708D01*
X70250Y-44044D02*
X72141Y-44044D01*
X71471Y-44735D02*
X70750Y-44735D01*
X74026Y-47289D02*
X71471Y-44735D01*
X74545Y-47289D02*
X74026Y-47289D01*
X74625Y-47369D02*
X74545Y-47289D01*
X74625Y-47981D02*
X74625Y-47369D01*
X74566Y-48040D02*
X74625Y-47981D01*
X73330Y-48040D02*
X74566Y-48040D01*
X72125Y-46835D02*
X73330Y-48040D01*
X71750Y-46835D02*
X72125Y-46835D01*
X70750Y-44390D02*
X70750Y-44735D01*
X60250Y-45459D02*
X60250Y-44390D01*
X59250Y-46459D02*
X60250Y-45459D01*
X59250Y-46835D02*
X59250Y-46459D01*
X60750Y-45459D02*
X60750Y-44390D01*
X61750Y-46459D02*
X60750Y-45459D01*
X61750Y-46835D02*
X61750Y-46459D01*
X63874Y-46734D02*
X61530Y-44390D01*
X63874Y-46835D02*
X63874Y-46734D01*
X61250Y-44390D02*
X61530Y-44390D01*
X64250Y-46835D02*
X63874Y-46835D01*
X56750Y-38085D02*
X57125Y-38085D01*
X59750Y-35640D02*
X59469Y-35640D01*
X58338Y-39298D02*
X57125Y-38085D01*
X59555Y-39298D02*
X58338Y-39298D01*
X59625Y-39229D02*
X59555Y-39298D01*
X59625Y-38619D02*
X59625Y-39229D01*
X59545Y-38539D02*
X59625Y-38619D01*
X59034Y-38539D02*
X59545Y-38539D01*
X58874Y-38380D02*
X59034Y-38539D01*
X58874Y-36235D02*
X58874Y-38380D01*
X59469Y-35640D02*
X58874Y-36235D01*
X70250Y-36709D02*
X70250Y-35640D01*
X69250Y-37709D02*
X70250Y-36709D01*
X69250Y-38085D02*
X69250Y-37709D01*
X69750Y-34360D02*
X70250Y-34360D01*
X70250Y-34360D02*
X70750Y-34360D01*
X70750Y-34360D02*
X71250Y-34360D01*
X71250Y-35577D02*
X71250Y-35640D01*
X70967Y-35294D02*
X71250Y-35577D01*
X69278Y-35294D02*
X70967Y-35294D01*
X69220Y-35353D02*
X69278Y-35294D01*
X68896Y-35353D02*
X69220Y-35353D01*
X68709Y-35166D02*
X68896Y-35353D01*
X68709Y-34903D02*
X68709Y-35166D01*
X68893Y-34719D02*
X68709Y-34903D01*
X71359Y-34719D02*
X68893Y-34719D01*
X74250Y-37610D02*
X71359Y-34719D01*
X74250Y-38085D02*
X74250Y-37610D01*
X70750Y-36709D02*
X70750Y-35640D01*
X71750Y-37709D02*
X70750Y-36709D01*
X71750Y-38085D02*
X71750Y-37709D01*
X66750Y-38085D02*
X67125Y-38085D01*
X69750Y-35640D02*
X69469Y-35640D01*
X69469Y-35740D02*
X69469Y-35640D01*
X67125Y-38085D02*
X69469Y-35740D01*
X59250Y-38085D02*
X59250Y-37709D01*
X60250Y-36709D02*
X59250Y-37709D01*
X60250Y-35640D02*
X60250Y-36709D01*
X61750Y-38085D02*
X61750Y-37709D01*
X61750Y-36985D02*
X60750Y-35985D01*
X61750Y-37709D02*
X61750Y-36985D01*
X60750Y-35640D02*
X60750Y-35985D01*
X63874Y-37984D02*
X61530Y-35640D01*
X63874Y-38085D02*
X63874Y-37984D01*
X61250Y-35640D02*
X61530Y-35640D01*
X64250Y-38085D02*
X63874Y-38085D01*
X86835Y-35750D02*
X85350Y-35750D01*
G54D23*
X60250Y-43110D02*
X60750Y-43110D01*
X70250Y-43110D02*
X70750Y-43110D01*
X60250Y-43110D02*
X59750Y-43110D01*
X60250Y-34360D02*
X60750Y-34360D01*
X60750Y-34360D02*
X61250Y-34360D01*
X70250Y-43110D02*
X69829Y-43110D01*
X69750Y-43110D02*
X69829Y-43110D01*
X69750Y-43110D02*
X69329Y-43110D01*
X60750Y-43110D02*
X61250Y-43110D01*
X61250Y-43110D02*
X61670Y-43110D01*
X58597Y-42377D02*
X59329Y-43110D01*
X49872Y-42377D02*
X58597Y-42377D01*
X48000Y-44250D02*
X49872Y-42377D01*
X59750Y-43110D02*
X59329Y-43110D01*
X59750Y-34360D02*
X60250Y-34360D01*
X58908Y-34781D02*
X59329Y-34360D01*
X53434Y-34781D02*
X58908Y-34781D01*
X59750Y-34360D02*
X59329Y-34360D01*
X84150Y-40370D02*
X84150Y-35750D01*
X84780Y-41000D02*
X84150Y-40370D01*
X69329Y-43110D02*
X61670Y-43110D01*
X70750Y-43110D02*
X71250Y-43110D01*
X84780Y-47548D02*
X84780Y-41000D01*
X83242Y-49086D02*
X84780Y-47548D01*
X79707Y-49086D02*
X83242Y-49086D01*
X73731Y-43110D02*
X79707Y-49086D01*
X71250Y-43110D02*
X73731Y-43110D01*
G54D10*
G36*
X48090Y-34255D02*
X48005Y-34340D01*
X48000Y-34334D01*
X47994Y-34340D01*
X47909Y-34255D01*
X47915Y-34250D01*
X47909Y-34244D01*
X47994Y-34159D01*
X48000Y-34165D01*
X48005Y-34159D01*
X48090Y-34244D01*
X48084Y-34250D01*
X48090Y-34255D01*
X48090Y-34255D01*
G37*
G54D24*
X48090Y-34255D02*
X48005Y-34340D01*
X48000Y-34334D01*
X47994Y-34340D01*
X47909Y-34255D01*
X47915Y-34250D01*
X47909Y-34244D01*
X47994Y-34159D01*
X48000Y-34165D01*
X48005Y-34159D01*
X48090Y-34244D01*
X48084Y-34250D01*
X48090Y-34255D01*
G54D10*
G36*
X67441Y-33322D02*
X65615Y-35149D01*
X65546Y-35253D01*
X65521Y-35375D01*
X65521Y-35895D01*
X63749Y-35895D01*
X63723Y-35900D01*
X63686Y-35900D01*
X63651Y-35914D01*
X63626Y-35919D01*
X63605Y-35934D01*
X63570Y-35948D01*
X63544Y-35974D01*
X63522Y-35989D01*
X63508Y-36010D01*
X63482Y-36036D01*
X63467Y-36071D01*
X63453Y-36093D01*
X63448Y-36118D01*
X63434Y-36152D01*
X63434Y-36190D01*
X63429Y-36212D01*
X62248Y-35031D01*
X62164Y-34974D01*
X62064Y-34954D01*
X61630Y-34954D01*
X61630Y-34517D01*
X61630Y-34202D01*
X61629Y-34107D01*
X61593Y-34018D01*
X61525Y-33951D01*
X61437Y-33914D01*
X61370Y-33915D01*
X61310Y-33975D01*
X61310Y-34300D01*
X61570Y-34300D01*
X61630Y-34240D01*
X61630Y-34202D01*
X61630Y-34517D01*
X61630Y-34480D01*
X61570Y-34420D01*
X61310Y-34420D01*
X61310Y-34745D01*
X61370Y-34805D01*
X61437Y-34805D01*
X61525Y-34768D01*
X61593Y-34701D01*
X61629Y-34612D01*
X61630Y-34517D01*
X61630Y-34954D01*
X61190Y-34954D01*
X61190Y-34745D01*
X61190Y-34420D01*
X61190Y-34300D01*
X61190Y-33975D01*
X61130Y-33915D01*
X61062Y-33914D01*
X61000Y-33940D01*
X60937Y-33914D01*
X60870Y-33915D01*
X60810Y-33975D01*
X60810Y-34300D01*
X60930Y-34300D01*
X61070Y-34300D01*
X61190Y-34300D01*
X61190Y-34420D01*
X61070Y-34420D01*
X60930Y-34420D01*
X60810Y-34420D01*
X60810Y-34745D01*
X60870Y-34805D01*
X60937Y-34805D01*
X61000Y-34779D01*
X61062Y-34805D01*
X61130Y-34805D01*
X61190Y-34745D01*
X61190Y-34954D01*
X60690Y-34954D01*
X60690Y-34745D01*
X60690Y-34420D01*
X60690Y-34300D01*
X60690Y-33975D01*
X60630Y-33915D01*
X60562Y-33914D01*
X60500Y-33940D01*
X60437Y-33914D01*
X60370Y-33915D01*
X60310Y-33975D01*
X60310Y-34300D01*
X60430Y-34300D01*
X60570Y-34300D01*
X60690Y-34300D01*
X60690Y-34420D01*
X60570Y-34420D01*
X60430Y-34420D01*
X60310Y-34420D01*
X60310Y-34745D01*
X60370Y-34805D01*
X60437Y-34805D01*
X60500Y-34779D01*
X60562Y-34805D01*
X60630Y-34805D01*
X60690Y-34745D01*
X60690Y-34954D01*
X60190Y-34954D01*
X60190Y-34745D01*
X60190Y-34420D01*
X60190Y-34300D01*
X60190Y-33975D01*
X60130Y-33915D01*
X60062Y-33914D01*
X60000Y-33940D01*
X59937Y-33914D01*
X59870Y-33915D01*
X59810Y-33975D01*
X59810Y-34300D01*
X59930Y-34300D01*
X60070Y-34300D01*
X60190Y-34300D01*
X60190Y-34420D01*
X60070Y-34420D01*
X59930Y-34420D01*
X59810Y-34420D01*
X59810Y-34745D01*
X59870Y-34805D01*
X59937Y-34805D01*
X60000Y-34779D01*
X60062Y-34805D01*
X60130Y-34805D01*
X60190Y-34745D01*
X60190Y-34954D01*
X59690Y-34954D01*
X59690Y-34745D01*
X59690Y-34420D01*
X59690Y-34300D01*
X59690Y-33975D01*
X59630Y-33915D01*
X59562Y-33914D01*
X59474Y-33951D01*
X59406Y-34018D01*
X59370Y-34107D01*
X59369Y-34202D01*
X59370Y-34240D01*
X59430Y-34300D01*
X59690Y-34300D01*
X59690Y-34420D01*
X59430Y-34420D01*
X59370Y-34480D01*
X59369Y-34517D01*
X59370Y-34612D01*
X59406Y-34701D01*
X59474Y-34768D01*
X59562Y-34805D01*
X59630Y-34805D01*
X59690Y-34745D01*
X59690Y-34954D01*
X53440Y-34954D01*
X53440Y-34212D01*
X53373Y-34051D01*
X53249Y-33927D01*
X53087Y-33860D01*
X52912Y-33859D01*
X52751Y-33926D01*
X52627Y-34050D01*
X52560Y-34212D01*
X52559Y-34387D01*
X52626Y-34548D01*
X52750Y-34672D01*
X52912Y-34739D01*
X53087Y-34740D01*
X53248Y-34673D01*
X53372Y-34549D01*
X53439Y-34387D01*
X53440Y-34212D01*
X53440Y-34954D01*
X52022Y-34954D01*
X51889Y-34822D01*
X51890Y-34662D01*
X51823Y-34501D01*
X51699Y-34377D01*
X51537Y-34310D01*
X51362Y-34309D01*
X51201Y-34376D01*
X51077Y-34500D01*
X51010Y-34662D01*
X51009Y-34837D01*
X51076Y-34998D01*
X51200Y-35122D01*
X51362Y-35189D01*
X51522Y-35190D01*
X51731Y-35398D01*
X51731Y-35398D01*
X51815Y-35455D01*
X51914Y-35474D01*
X59399Y-35474D01*
X59342Y-35512D01*
X58747Y-36107D01*
X58708Y-36166D01*
X58694Y-36235D01*
X58694Y-38380D01*
X58708Y-38449D01*
X58732Y-38485D01*
X56813Y-36566D01*
X56729Y-36509D01*
X56629Y-36490D01*
X51812Y-36490D01*
X51699Y-36377D01*
X51537Y-36310D01*
X51507Y-36310D01*
X51633Y-36183D01*
X51664Y-36137D01*
X51698Y-36123D01*
X51822Y-35999D01*
X51889Y-35837D01*
X51890Y-35662D01*
X51823Y-35501D01*
X51699Y-35377D01*
X51537Y-35310D01*
X51362Y-35309D01*
X51201Y-35376D01*
X51077Y-35500D01*
X51010Y-35662D01*
X51009Y-35837D01*
X51076Y-35998D01*
X51080Y-36002D01*
X50996Y-36086D01*
X50996Y-35319D01*
X50996Y-34319D01*
X50981Y-34105D01*
X50928Y-33976D01*
X50836Y-33948D01*
X50534Y-34250D01*
X50836Y-34551D01*
X50928Y-34523D01*
X50996Y-34319D01*
X50996Y-35319D01*
X50981Y-35105D01*
X50928Y-34976D01*
X50836Y-34948D01*
X50751Y-35032D01*
X50751Y-34863D01*
X50723Y-34771D01*
X50664Y-34752D01*
X50723Y-34728D01*
X50751Y-34636D01*
X50450Y-34334D01*
X50148Y-34636D01*
X50176Y-34728D01*
X50235Y-34747D01*
X50176Y-34771D01*
X50148Y-34863D01*
X50450Y-35165D01*
X50751Y-34863D01*
X50751Y-35032D01*
X50534Y-35250D01*
X50836Y-35551D01*
X50928Y-35523D01*
X50996Y-35319D01*
X50996Y-36086D01*
X50980Y-36102D01*
X50928Y-35976D01*
X50836Y-35948D01*
X50751Y-36032D01*
X50751Y-35863D01*
X50723Y-35771D01*
X50664Y-35752D01*
X50723Y-35728D01*
X50751Y-35636D01*
X50450Y-35334D01*
X50365Y-35419D01*
X50365Y-35250D01*
X50063Y-34948D01*
X49971Y-34976D01*
X49903Y-35180D01*
X49918Y-35394D01*
X49971Y-35523D01*
X50063Y-35551D01*
X50365Y-35250D01*
X50365Y-35419D01*
X50148Y-35636D01*
X50176Y-35728D01*
X50235Y-35747D01*
X50176Y-35771D01*
X50148Y-35863D01*
X50450Y-36165D01*
X50751Y-35863D01*
X50751Y-36032D01*
X50534Y-36250D01*
X50540Y-36255D01*
X50455Y-36340D01*
X50450Y-36334D01*
X50365Y-36419D01*
X50365Y-36250D01*
X50063Y-35948D01*
X49971Y-35976D01*
X49903Y-36180D01*
X49918Y-36394D01*
X49971Y-36523D01*
X50063Y-36551D01*
X50365Y-36250D01*
X50365Y-36419D01*
X50148Y-36636D01*
X50176Y-36728D01*
X50235Y-36747D01*
X50176Y-36771D01*
X50148Y-36863D01*
X50450Y-37165D01*
X50455Y-37159D01*
X50540Y-37244D01*
X50534Y-37250D01*
X50540Y-37255D01*
X50455Y-37340D01*
X50450Y-37334D01*
X50365Y-37419D01*
X50365Y-37250D01*
X50063Y-36948D01*
X49971Y-36976D01*
X49903Y-37180D01*
X49918Y-37394D01*
X49971Y-37523D01*
X50063Y-37551D01*
X50365Y-37250D01*
X50365Y-37419D01*
X50148Y-37636D01*
X50176Y-37728D01*
X50380Y-37796D01*
X50594Y-37781D01*
X50658Y-37754D01*
X50658Y-37971D01*
X50677Y-38071D01*
X50734Y-38155D01*
X52217Y-39638D01*
X51256Y-39638D01*
X49439Y-37822D01*
X49440Y-37662D01*
X49373Y-37501D01*
X49249Y-37377D01*
X49087Y-37310D01*
X49043Y-37310D01*
X49183Y-37169D01*
X49183Y-37169D01*
X49201Y-37142D01*
X49201Y-37142D01*
X49248Y-37123D01*
X49372Y-36999D01*
X49439Y-36837D01*
X49440Y-36662D01*
X49373Y-36501D01*
X49249Y-36377D01*
X49087Y-36310D01*
X48912Y-36309D01*
X48751Y-36376D01*
X48627Y-36500D01*
X48560Y-36662D01*
X48559Y-36837D01*
X48624Y-36993D01*
X48546Y-37071D01*
X48546Y-36319D01*
X48531Y-36105D01*
X48478Y-35976D01*
X48386Y-35948D01*
X48084Y-36250D01*
X48386Y-36551D01*
X48478Y-36523D01*
X48546Y-36319D01*
X48546Y-37071D01*
X48525Y-37092D01*
X48478Y-36976D01*
X48386Y-36948D01*
X48084Y-37250D01*
X48090Y-37255D01*
X48005Y-37340D01*
X48000Y-37334D01*
X47994Y-37340D01*
X47909Y-37255D01*
X47915Y-37250D01*
X47909Y-37244D01*
X47994Y-37159D01*
X48000Y-37165D01*
X48301Y-36863D01*
X48273Y-36771D01*
X48214Y-36752D01*
X48273Y-36728D01*
X48301Y-36636D01*
X48000Y-36334D01*
X47994Y-36340D01*
X47909Y-36255D01*
X47915Y-36250D01*
X47909Y-36244D01*
X47994Y-36159D01*
X48000Y-36165D01*
X48301Y-35863D01*
X48273Y-35771D01*
X48214Y-35752D01*
X48273Y-35728D01*
X48301Y-35636D01*
X48000Y-35334D01*
X47994Y-35340D01*
X47909Y-35255D01*
X47915Y-35250D01*
X47909Y-35244D01*
X47994Y-35159D01*
X48000Y-35165D01*
X48005Y-35159D01*
X48090Y-35244D01*
X48084Y-35250D01*
X48386Y-35551D01*
X48478Y-35523D01*
X48522Y-35390D01*
X48629Y-35497D01*
X48627Y-35500D01*
X48560Y-35662D01*
X48559Y-35837D01*
X48626Y-35998D01*
X48750Y-36122D01*
X48912Y-36189D01*
X49087Y-36190D01*
X49248Y-36123D01*
X49372Y-35999D01*
X49439Y-35837D01*
X49440Y-35662D01*
X49373Y-35501D01*
X49249Y-35377D01*
X49215Y-35362D01*
X49183Y-35316D01*
X49183Y-35316D01*
X49057Y-35190D01*
X49087Y-35190D01*
X49248Y-35123D01*
X49372Y-34999D01*
X49439Y-34837D01*
X49440Y-34677D01*
X49905Y-34211D01*
X49918Y-34394D01*
X49971Y-34523D01*
X50063Y-34551D01*
X50365Y-34250D01*
X50359Y-34244D01*
X50444Y-34159D01*
X50450Y-34165D01*
X50751Y-33863D01*
X50723Y-33771D01*
X50519Y-33703D01*
X50405Y-33711D01*
X51091Y-33025D01*
X52651Y-33025D01*
X52627Y-33050D01*
X52560Y-33212D01*
X52559Y-33387D01*
X52626Y-33548D01*
X52750Y-33672D01*
X52912Y-33739D01*
X53087Y-33740D01*
X53248Y-33673D01*
X53372Y-33549D01*
X53439Y-33387D01*
X53440Y-33212D01*
X53373Y-33051D01*
X53348Y-33025D01*
X66119Y-33025D01*
X66434Y-33341D01*
X66434Y-33351D01*
X66482Y-33467D01*
X66571Y-33555D01*
X66687Y-33603D01*
X66812Y-33603D01*
X66928Y-33556D01*
X67016Y-33467D01*
X67064Y-33351D01*
X67064Y-33341D01*
X67083Y-33322D01*
X67441Y-33322D01*
X67441Y-33322D01*
G37*
G54D24*
X67441Y-33322D02*
X65615Y-35149D01*
X65546Y-35253D01*
X65521Y-35375D01*
X65521Y-35895D01*
X63749Y-35895D01*
X63723Y-35900D01*
X63686Y-35900D01*
X63651Y-35914D01*
X63626Y-35919D01*
X63605Y-35934D01*
X63570Y-35948D01*
X63544Y-35974D01*
X63522Y-35989D01*
X63508Y-36010D01*
X63482Y-36036D01*
X63467Y-36071D01*
X63453Y-36093D01*
X63448Y-36118D01*
X63434Y-36152D01*
X63434Y-36190D01*
X63429Y-36212D01*
X62248Y-35031D01*
X62164Y-34974D01*
X62064Y-34954D01*
X61630Y-34954D01*
X61630Y-34517D01*
X61630Y-34202D01*
X61629Y-34107D01*
X61593Y-34018D01*
X61525Y-33951D01*
X61437Y-33914D01*
X61370Y-33915D01*
X61310Y-33975D01*
X61310Y-34300D01*
X61570Y-34300D01*
X61630Y-34240D01*
X61630Y-34202D01*
X61630Y-34517D01*
X61630Y-34480D01*
X61570Y-34420D01*
X61310Y-34420D01*
X61310Y-34745D01*
X61370Y-34805D01*
X61437Y-34805D01*
X61525Y-34768D01*
X61593Y-34701D01*
X61629Y-34612D01*
X61630Y-34517D01*
X61630Y-34954D01*
X61190Y-34954D01*
X61190Y-34745D01*
X61190Y-34420D01*
X61190Y-34300D01*
X61190Y-33975D01*
X61130Y-33915D01*
X61062Y-33914D01*
X61000Y-33940D01*
X60937Y-33914D01*
X60870Y-33915D01*
X60810Y-33975D01*
X60810Y-34300D01*
X60930Y-34300D01*
X61070Y-34300D01*
X61190Y-34300D01*
X61190Y-34420D01*
X61070Y-34420D01*
X60930Y-34420D01*
X60810Y-34420D01*
X60810Y-34745D01*
X60870Y-34805D01*
X60937Y-34805D01*
X61000Y-34779D01*
X61062Y-34805D01*
X61130Y-34805D01*
X61190Y-34745D01*
X61190Y-34954D01*
X60690Y-34954D01*
X60690Y-34745D01*
X60690Y-34420D01*
X60690Y-34300D01*
X60690Y-33975D01*
X60630Y-33915D01*
X60562Y-33914D01*
X60500Y-33940D01*
X60437Y-33914D01*
X60370Y-33915D01*
X60310Y-33975D01*
X60310Y-34300D01*
X60430Y-34300D01*
X60570Y-34300D01*
X60690Y-34300D01*
X60690Y-34420D01*
X60570Y-34420D01*
X60430Y-34420D01*
X60310Y-34420D01*
X60310Y-34745D01*
X60370Y-34805D01*
X60437Y-34805D01*
X60500Y-34779D01*
X60562Y-34805D01*
X60630Y-34805D01*
X60690Y-34745D01*
X60690Y-34954D01*
X60190Y-34954D01*
X60190Y-34745D01*
X60190Y-34420D01*
X60190Y-34300D01*
X60190Y-33975D01*
X60130Y-33915D01*
X60062Y-33914D01*
X60000Y-33940D01*
X59937Y-33914D01*
X59870Y-33915D01*
X59810Y-33975D01*
X59810Y-34300D01*
X59930Y-34300D01*
X60070Y-34300D01*
X60190Y-34300D01*
X60190Y-34420D01*
X60070Y-34420D01*
X59930Y-34420D01*
X59810Y-34420D01*
X59810Y-34745D01*
X59870Y-34805D01*
X59937Y-34805D01*
X60000Y-34779D01*
X60062Y-34805D01*
X60130Y-34805D01*
X60190Y-34745D01*
X60190Y-34954D01*
X59690Y-34954D01*
X59690Y-34745D01*
X59690Y-34420D01*
X59690Y-34300D01*
X59690Y-33975D01*
X59630Y-33915D01*
X59562Y-33914D01*
X59474Y-33951D01*
X59406Y-34018D01*
X59370Y-34107D01*
X59369Y-34202D01*
X59370Y-34240D01*
X59430Y-34300D01*
X59690Y-34300D01*
X59690Y-34420D01*
X59430Y-34420D01*
X59370Y-34480D01*
X59369Y-34517D01*
X59370Y-34612D01*
X59406Y-34701D01*
X59474Y-34768D01*
X59562Y-34805D01*
X59630Y-34805D01*
X59690Y-34745D01*
X59690Y-34954D01*
X53440Y-34954D01*
X53440Y-34212D01*
X53373Y-34051D01*
X53249Y-33927D01*
X53087Y-33860D01*
X52912Y-33859D01*
X52751Y-33926D01*
X52627Y-34050D01*
X52560Y-34212D01*
X52559Y-34387D01*
X52626Y-34548D01*
X52750Y-34672D01*
X52912Y-34739D01*
X53087Y-34740D01*
X53248Y-34673D01*
X53372Y-34549D01*
X53439Y-34387D01*
X53440Y-34212D01*
X53440Y-34954D01*
X52022Y-34954D01*
X51889Y-34822D01*
X51890Y-34662D01*
X51823Y-34501D01*
X51699Y-34377D01*
X51537Y-34310D01*
X51362Y-34309D01*
X51201Y-34376D01*
X51077Y-34500D01*
X51010Y-34662D01*
X51009Y-34837D01*
X51076Y-34998D01*
X51200Y-35122D01*
X51362Y-35189D01*
X51522Y-35190D01*
X51731Y-35398D01*
X51731Y-35398D01*
X51815Y-35455D01*
X51914Y-35474D01*
X59399Y-35474D01*
X59342Y-35512D01*
X58747Y-36107D01*
X58708Y-36166D01*
X58694Y-36235D01*
X58694Y-38380D01*
X58708Y-38449D01*
X58732Y-38485D01*
X56813Y-36566D01*
X56729Y-36509D01*
X56629Y-36490D01*
X51812Y-36490D01*
X51699Y-36377D01*
X51537Y-36310D01*
X51507Y-36310D01*
X51633Y-36183D01*
X51664Y-36137D01*
X51698Y-36123D01*
X51822Y-35999D01*
X51889Y-35837D01*
X51890Y-35662D01*
X51823Y-35501D01*
X51699Y-35377D01*
X51537Y-35310D01*
X51362Y-35309D01*
X51201Y-35376D01*
X51077Y-35500D01*
X51010Y-35662D01*
X51009Y-35837D01*
X51076Y-35998D01*
X51080Y-36002D01*
X50996Y-36086D01*
X50996Y-35319D01*
X50996Y-34319D01*
X50981Y-34105D01*
X50928Y-33976D01*
X50836Y-33948D01*
X50534Y-34250D01*
X50836Y-34551D01*
X50928Y-34523D01*
X50996Y-34319D01*
X50996Y-35319D01*
X50981Y-35105D01*
X50928Y-34976D01*
X50836Y-34948D01*
X50751Y-35032D01*
X50751Y-34863D01*
X50723Y-34771D01*
X50664Y-34752D01*
X50723Y-34728D01*
X50751Y-34636D01*
X50450Y-34334D01*
X50148Y-34636D01*
X50176Y-34728D01*
X50235Y-34747D01*
X50176Y-34771D01*
X50148Y-34863D01*
X50450Y-35165D01*
X50751Y-34863D01*
X50751Y-35032D01*
X50534Y-35250D01*
X50836Y-35551D01*
X50928Y-35523D01*
X50996Y-35319D01*
X50996Y-36086D01*
X50980Y-36102D01*
X50928Y-35976D01*
X50836Y-35948D01*
X50751Y-36032D01*
X50751Y-35863D01*
X50723Y-35771D01*
X50664Y-35752D01*
X50723Y-35728D01*
X50751Y-35636D01*
X50450Y-35334D01*
X50365Y-35419D01*
X50365Y-35250D01*
X50063Y-34948D01*
X49971Y-34976D01*
X49903Y-35180D01*
X49918Y-35394D01*
X49971Y-35523D01*
X50063Y-35551D01*
X50365Y-35250D01*
X50365Y-35419D01*
X50148Y-35636D01*
X50176Y-35728D01*
X50235Y-35747D01*
X50176Y-35771D01*
X50148Y-35863D01*
X50450Y-36165D01*
X50751Y-35863D01*
X50751Y-36032D01*
X50534Y-36250D01*
X50540Y-36255D01*
X50455Y-36340D01*
X50450Y-36334D01*
X50365Y-36419D01*
X50365Y-36250D01*
X50063Y-35948D01*
X49971Y-35976D01*
X49903Y-36180D01*
X49918Y-36394D01*
X49971Y-36523D01*
X50063Y-36551D01*
X50365Y-36250D01*
X50365Y-36419D01*
X50148Y-36636D01*
X50176Y-36728D01*
X50235Y-36747D01*
X50176Y-36771D01*
X50148Y-36863D01*
X50450Y-37165D01*
X50455Y-37159D01*
X50540Y-37244D01*
X50534Y-37250D01*
X50540Y-37255D01*
X50455Y-37340D01*
X50450Y-37334D01*
X50365Y-37419D01*
X50365Y-37250D01*
X50063Y-36948D01*
X49971Y-36976D01*
X49903Y-37180D01*
X49918Y-37394D01*
X49971Y-37523D01*
X50063Y-37551D01*
X50365Y-37250D01*
X50365Y-37419D01*
X50148Y-37636D01*
X50176Y-37728D01*
X50380Y-37796D01*
X50594Y-37781D01*
X50658Y-37754D01*
X50658Y-37971D01*
X50677Y-38071D01*
X50734Y-38155D01*
X52217Y-39638D01*
X51256Y-39638D01*
X49439Y-37822D01*
X49440Y-37662D01*
X49373Y-37501D01*
X49249Y-37377D01*
X49087Y-37310D01*
X49043Y-37310D01*
X49183Y-37169D01*
X49183Y-37169D01*
X49201Y-37142D01*
X49201Y-37142D01*
X49248Y-37123D01*
X49372Y-36999D01*
X49439Y-36837D01*
X49440Y-36662D01*
X49373Y-36501D01*
X49249Y-36377D01*
X49087Y-36310D01*
X48912Y-36309D01*
X48751Y-36376D01*
X48627Y-36500D01*
X48560Y-36662D01*
X48559Y-36837D01*
X48624Y-36993D01*
X48546Y-37071D01*
X48546Y-36319D01*
X48531Y-36105D01*
X48478Y-35976D01*
X48386Y-35948D01*
X48084Y-36250D01*
X48386Y-36551D01*
X48478Y-36523D01*
X48546Y-36319D01*
X48546Y-37071D01*
X48525Y-37092D01*
X48478Y-36976D01*
X48386Y-36948D01*
X48084Y-37250D01*
X48090Y-37255D01*
X48005Y-37340D01*
X48000Y-37334D01*
X47994Y-37340D01*
X47909Y-37255D01*
X47915Y-37250D01*
X47909Y-37244D01*
X47994Y-37159D01*
X48000Y-37165D01*
X48301Y-36863D01*
X48273Y-36771D01*
X48214Y-36752D01*
X48273Y-36728D01*
X48301Y-36636D01*
X48000Y-36334D01*
X47994Y-36340D01*
X47909Y-36255D01*
X47915Y-36250D01*
X47909Y-36244D01*
X47994Y-36159D01*
X48000Y-36165D01*
X48301Y-35863D01*
X48273Y-35771D01*
X48214Y-35752D01*
X48273Y-35728D01*
X48301Y-35636D01*
X48000Y-35334D01*
X47994Y-35340D01*
X47909Y-35255D01*
X47915Y-35250D01*
X47909Y-35244D01*
X47994Y-35159D01*
X48000Y-35165D01*
X48005Y-35159D01*
X48090Y-35244D01*
X48084Y-35250D01*
X48386Y-35551D01*
X48478Y-35523D01*
X48522Y-35390D01*
X48629Y-35497D01*
X48627Y-35500D01*
X48560Y-35662D01*
X48559Y-35837D01*
X48626Y-35998D01*
X48750Y-36122D01*
X48912Y-36189D01*
X49087Y-36190D01*
X49248Y-36123D01*
X49372Y-35999D01*
X49439Y-35837D01*
X49440Y-35662D01*
X49373Y-35501D01*
X49249Y-35377D01*
X49215Y-35362D01*
X49183Y-35316D01*
X49183Y-35316D01*
X49057Y-35190D01*
X49087Y-35190D01*
X49248Y-35123D01*
X49372Y-34999D01*
X49439Y-34837D01*
X49440Y-34677D01*
X49905Y-34211D01*
X49918Y-34394D01*
X49971Y-34523D01*
X50063Y-34551D01*
X50365Y-34250D01*
X50359Y-34244D01*
X50444Y-34159D01*
X50450Y-34165D01*
X50751Y-33863D01*
X50723Y-33771D01*
X50519Y-33703D01*
X50405Y-33711D01*
X51091Y-33025D01*
X52651Y-33025D01*
X52627Y-33050D01*
X52560Y-33212D01*
X52559Y-33387D01*
X52626Y-33548D01*
X52750Y-33672D01*
X52912Y-33739D01*
X53087Y-33740D01*
X53248Y-33673D01*
X53372Y-33549D01*
X53439Y-33387D01*
X53440Y-33212D01*
X53373Y-33051D01*
X53348Y-33025D01*
X66119Y-33025D01*
X66434Y-33341D01*
X66434Y-33351D01*
X66482Y-33467D01*
X66571Y-33555D01*
X66687Y-33603D01*
X66812Y-33603D01*
X66928Y-33556D01*
X67016Y-33467D01*
X67064Y-33351D01*
X67064Y-33341D01*
X67083Y-33322D01*
X67441Y-33322D01*
G54D10*
G36*
X89335Y-51335D02*
X88840Y-51335D01*
X88840Y-40897D01*
X88761Y-40705D01*
X88614Y-40559D01*
X88423Y-40480D01*
X88217Y-40479D01*
X88025Y-40558D01*
X87913Y-40671D01*
X87852Y-40524D01*
X87616Y-40288D01*
X87307Y-40160D01*
X86973Y-40159D01*
X86859Y-40207D01*
X86859Y-39747D01*
X87053Y-39941D01*
X87362Y-40069D01*
X87696Y-40070D01*
X88005Y-39942D01*
X88241Y-39706D01*
X88369Y-39397D01*
X88370Y-39063D01*
X88242Y-38754D01*
X88006Y-38518D01*
X87697Y-38390D01*
X87363Y-38389D01*
X87054Y-38517D01*
X86859Y-38712D01*
X86859Y-37281D01*
X87820Y-36320D01*
X87820Y-36320D01*
X87868Y-36249D01*
X87884Y-36165D01*
X87885Y-36165D01*
X87885Y-36125D01*
X87927Y-36125D01*
X87979Y-36103D01*
X88018Y-36064D01*
X88039Y-36012D01*
X88040Y-35957D01*
X88040Y-35487D01*
X88018Y-35435D01*
X87979Y-35396D01*
X87927Y-35375D01*
X87872Y-35374D01*
X87601Y-35374D01*
X87070Y-34844D01*
X86999Y-34796D01*
X86915Y-34780D01*
X83342Y-34780D01*
X83372Y-34749D01*
X83439Y-34587D01*
X83440Y-34412D01*
X83440Y-33412D01*
X83440Y-32412D01*
X83440Y-31412D01*
X83373Y-31251D01*
X83249Y-31127D01*
X83087Y-31060D01*
X82912Y-31059D01*
X82751Y-31126D01*
X82627Y-31250D01*
X82560Y-31412D01*
X82559Y-31587D01*
X82626Y-31748D01*
X82750Y-31872D01*
X82912Y-31939D01*
X83087Y-31940D01*
X83248Y-31873D01*
X83372Y-31749D01*
X83439Y-31587D01*
X83440Y-31412D01*
X83440Y-32412D01*
X83373Y-32251D01*
X83249Y-32127D01*
X83087Y-32060D01*
X82912Y-32059D01*
X82751Y-32126D01*
X82627Y-32250D01*
X82560Y-32412D01*
X82559Y-32587D01*
X82626Y-32748D01*
X82750Y-32872D01*
X82912Y-32939D01*
X83087Y-32940D01*
X83248Y-32873D01*
X83372Y-32749D01*
X83439Y-32587D01*
X83440Y-32412D01*
X83440Y-33412D01*
X83373Y-33251D01*
X83249Y-33127D01*
X83087Y-33060D01*
X82912Y-33059D01*
X82751Y-33126D01*
X82627Y-33250D01*
X82560Y-33412D01*
X82559Y-33587D01*
X82626Y-33748D01*
X82750Y-33872D01*
X82912Y-33939D01*
X83087Y-33940D01*
X83248Y-33873D01*
X83372Y-33749D01*
X83439Y-33587D01*
X83440Y-33412D01*
X83440Y-34412D01*
X83373Y-34251D01*
X83249Y-34127D01*
X83087Y-34060D01*
X82912Y-34059D01*
X82751Y-34126D01*
X82627Y-34250D01*
X82560Y-34412D01*
X82559Y-34587D01*
X82626Y-34748D01*
X82696Y-34818D01*
X82696Y-34818D01*
X82658Y-34844D01*
X82440Y-35062D01*
X82440Y-34412D01*
X82440Y-33412D01*
X82440Y-32412D01*
X82440Y-31412D01*
X82373Y-31251D01*
X82249Y-31127D01*
X82087Y-31060D01*
X81912Y-31059D01*
X81751Y-31126D01*
X81627Y-31250D01*
X81560Y-31412D01*
X81559Y-31587D01*
X81626Y-31748D01*
X81750Y-31872D01*
X81912Y-31939D01*
X82087Y-31940D01*
X82248Y-31873D01*
X82372Y-31749D01*
X82439Y-31587D01*
X82440Y-31412D01*
X82440Y-32412D01*
X82373Y-32251D01*
X82249Y-32127D01*
X82087Y-32060D01*
X81912Y-32059D01*
X81751Y-32126D01*
X81627Y-32250D01*
X81560Y-32412D01*
X81559Y-32587D01*
X81626Y-32748D01*
X81750Y-32872D01*
X81912Y-32939D01*
X82087Y-32940D01*
X82248Y-32873D01*
X82372Y-32749D01*
X82439Y-32587D01*
X82440Y-32412D01*
X82440Y-33412D01*
X82373Y-33251D01*
X82249Y-33127D01*
X82087Y-33060D01*
X81912Y-33059D01*
X81751Y-33126D01*
X81627Y-33250D01*
X81560Y-33412D01*
X81559Y-33587D01*
X81626Y-33748D01*
X81750Y-33872D01*
X81912Y-33939D01*
X82087Y-33940D01*
X82248Y-33873D01*
X82372Y-33749D01*
X82439Y-33587D01*
X82440Y-33412D01*
X82440Y-34412D01*
X82373Y-34251D01*
X82249Y-34127D01*
X82087Y-34060D01*
X81912Y-34059D01*
X81751Y-34126D01*
X81627Y-34250D01*
X81560Y-34412D01*
X81559Y-34587D01*
X81626Y-34748D01*
X81750Y-34872D01*
X81912Y-34939D01*
X82087Y-34940D01*
X82248Y-34873D01*
X82372Y-34749D01*
X82439Y-34587D01*
X82440Y-34412D01*
X82440Y-35062D01*
X82364Y-35138D01*
X82322Y-35200D01*
X82322Y-35200D01*
X82249Y-35127D01*
X82087Y-35060D01*
X81912Y-35059D01*
X81751Y-35126D01*
X81627Y-35250D01*
X81560Y-35412D01*
X81559Y-35587D01*
X81626Y-35748D01*
X81637Y-35760D01*
X79440Y-35760D01*
X79440Y-31712D01*
X79440Y-31287D01*
X79406Y-31119D01*
X79311Y-30976D01*
X79168Y-30880D01*
X79000Y-30847D01*
X78831Y-30880D01*
X78688Y-30976D01*
X78593Y-31119D01*
X78560Y-31287D01*
X78560Y-31712D01*
X78593Y-31880D01*
X78688Y-32023D01*
X78831Y-32119D01*
X79000Y-32152D01*
X79168Y-32119D01*
X79311Y-32023D01*
X79406Y-31880D01*
X79440Y-31712D01*
X79440Y-35760D01*
X79076Y-35760D01*
X78991Y-35776D01*
X78920Y-35824D01*
X78440Y-36305D01*
X78440Y-31712D01*
X78440Y-31287D01*
X78406Y-31119D01*
X78311Y-30976D01*
X78168Y-30880D01*
X78000Y-30847D01*
X77831Y-30880D01*
X77688Y-30976D01*
X77593Y-31119D01*
X77560Y-31287D01*
X77560Y-31712D01*
X77593Y-31880D01*
X77688Y-32023D01*
X77831Y-32119D01*
X78000Y-32152D01*
X78168Y-32119D01*
X78311Y-32023D01*
X78406Y-31880D01*
X78440Y-31712D01*
X78440Y-36305D01*
X77440Y-37305D01*
X77440Y-31712D01*
X77440Y-31287D01*
X77406Y-31119D01*
X77311Y-30976D01*
X77168Y-30880D01*
X77000Y-30847D01*
X76831Y-30880D01*
X76688Y-30976D01*
X76593Y-31119D01*
X76560Y-31287D01*
X76560Y-31712D01*
X76593Y-31880D01*
X76688Y-32023D01*
X76831Y-32119D01*
X77000Y-32152D01*
X77168Y-32119D01*
X77311Y-32023D01*
X77406Y-31880D01*
X77440Y-31712D01*
X77440Y-37305D01*
X76440Y-38305D01*
X76440Y-31712D01*
X76440Y-31287D01*
X76406Y-31119D01*
X76311Y-30976D01*
X76168Y-30880D01*
X76000Y-30847D01*
X75831Y-30880D01*
X75688Y-30976D01*
X75593Y-31119D01*
X75560Y-31287D01*
X75560Y-31712D01*
X75593Y-31880D01*
X75688Y-32023D01*
X75831Y-32119D01*
X76000Y-32152D01*
X76168Y-32119D01*
X76311Y-32023D01*
X76406Y-31880D01*
X76440Y-31712D01*
X76440Y-38305D01*
X75440Y-39305D01*
X75440Y-31712D01*
X75440Y-31287D01*
X75406Y-31119D01*
X75311Y-30976D01*
X75168Y-30880D01*
X75000Y-30847D01*
X74831Y-30880D01*
X74688Y-30976D01*
X74593Y-31119D01*
X74560Y-31287D01*
X74560Y-31712D01*
X74593Y-31880D01*
X74688Y-32023D01*
X74831Y-32119D01*
X75000Y-32152D01*
X75168Y-32119D01*
X75311Y-32023D01*
X75406Y-31880D01*
X75440Y-31712D01*
X75440Y-39305D01*
X75372Y-39372D01*
X74979Y-39765D01*
X74979Y-38445D01*
X74979Y-37155D01*
X74979Y-37155D01*
X74960Y-37055D01*
X74960Y-37055D01*
X74941Y-37027D01*
X74903Y-36971D01*
X74903Y-36971D01*
X74440Y-36507D01*
X74440Y-31712D01*
X74440Y-31287D01*
X74406Y-31119D01*
X74311Y-30976D01*
X74168Y-30880D01*
X74000Y-30847D01*
X73831Y-30880D01*
X73688Y-30976D01*
X73593Y-31119D01*
X73560Y-31287D01*
X73560Y-31712D01*
X73593Y-31880D01*
X73688Y-32023D01*
X73831Y-32119D01*
X74000Y-32152D01*
X74168Y-32119D01*
X74311Y-32023D01*
X74406Y-31880D01*
X74440Y-31712D01*
X74440Y-36507D01*
X73440Y-35507D01*
X73440Y-31712D01*
X73440Y-31287D01*
X73406Y-31119D01*
X73311Y-30976D01*
X73168Y-30880D01*
X73000Y-30847D01*
X72831Y-30880D01*
X72688Y-30976D01*
X72593Y-31119D01*
X72560Y-31287D01*
X72560Y-31712D01*
X72593Y-31880D01*
X72688Y-32023D01*
X72831Y-32119D01*
X73000Y-32152D01*
X73168Y-32119D01*
X73311Y-32023D01*
X73406Y-31880D01*
X73440Y-31712D01*
X73440Y-35507D01*
X72440Y-34507D01*
X72440Y-31712D01*
X72440Y-31287D01*
X72406Y-31119D01*
X72311Y-30976D01*
X72168Y-30880D01*
X72000Y-30847D01*
X71831Y-30880D01*
X71688Y-30976D01*
X71593Y-31119D01*
X71560Y-31287D01*
X71560Y-31712D01*
X71593Y-31880D01*
X71688Y-32023D01*
X71831Y-32119D01*
X72000Y-32152D01*
X72168Y-32119D01*
X72311Y-32023D01*
X72406Y-31880D01*
X72440Y-31712D01*
X72440Y-34507D01*
X70811Y-32879D01*
X70726Y-32822D01*
X70627Y-32802D01*
X70440Y-32802D01*
X70440Y-31712D01*
X70440Y-31287D01*
X70406Y-31119D01*
X70311Y-30976D01*
X70168Y-30880D01*
X70000Y-30847D01*
X69831Y-30880D01*
X69688Y-30976D01*
X69593Y-31119D01*
X69560Y-31287D01*
X69560Y-31712D01*
X69593Y-31880D01*
X69688Y-32023D01*
X69831Y-32119D01*
X70000Y-32152D01*
X70168Y-32119D01*
X70311Y-32023D01*
X70406Y-31880D01*
X70440Y-31712D01*
X70440Y-32802D01*
X69440Y-32802D01*
X69440Y-31712D01*
X69440Y-31287D01*
X69406Y-31119D01*
X69311Y-30976D01*
X69168Y-30880D01*
X69000Y-30847D01*
X68831Y-30880D01*
X68688Y-30976D01*
X68593Y-31119D01*
X68560Y-31287D01*
X68560Y-31712D01*
X68593Y-31880D01*
X68688Y-32023D01*
X68831Y-32119D01*
X69000Y-32152D01*
X69168Y-32119D01*
X69311Y-32023D01*
X69406Y-31880D01*
X69440Y-31712D01*
X69440Y-32802D01*
X68440Y-32802D01*
X68440Y-31712D01*
X68440Y-31287D01*
X68406Y-31119D01*
X68311Y-30976D01*
X68168Y-30880D01*
X68000Y-30847D01*
X67831Y-30880D01*
X67688Y-30976D01*
X67593Y-31119D01*
X67560Y-31287D01*
X67560Y-31712D01*
X67593Y-31880D01*
X67688Y-32023D01*
X67831Y-32119D01*
X68000Y-32152D01*
X68168Y-32119D01*
X68311Y-32023D01*
X68406Y-31880D01*
X68440Y-31712D01*
X68440Y-32802D01*
X67440Y-32802D01*
X67440Y-31712D01*
X67440Y-31287D01*
X67406Y-31119D01*
X67311Y-30976D01*
X67168Y-30880D01*
X67000Y-30847D01*
X66831Y-30880D01*
X66688Y-30976D01*
X66593Y-31119D01*
X66560Y-31287D01*
X66560Y-31712D01*
X66593Y-31880D01*
X66688Y-32023D01*
X66831Y-32119D01*
X67000Y-32152D01*
X67168Y-32119D01*
X67311Y-32023D01*
X67406Y-31880D01*
X67440Y-31712D01*
X67440Y-32802D01*
X66975Y-32802D01*
X66876Y-32822D01*
X66792Y-32879D01*
X66750Y-32921D01*
X66440Y-32611D01*
X66440Y-31712D01*
X66440Y-31287D01*
X66406Y-31119D01*
X66311Y-30976D01*
X66168Y-30880D01*
X66000Y-30847D01*
X65831Y-30880D01*
X65688Y-30976D01*
X65593Y-31119D01*
X65560Y-31287D01*
X65560Y-31712D01*
X65593Y-31880D01*
X65688Y-32023D01*
X65831Y-32119D01*
X66000Y-32152D01*
X66168Y-32119D01*
X66311Y-32023D01*
X66406Y-31880D01*
X66440Y-31712D01*
X66440Y-32611D01*
X66410Y-32582D01*
X66326Y-32525D01*
X66227Y-32505D01*
X65440Y-32505D01*
X65440Y-31712D01*
X65440Y-31287D01*
X65406Y-31119D01*
X65311Y-30976D01*
X65168Y-30880D01*
X65000Y-30847D01*
X64831Y-30880D01*
X64688Y-30976D01*
X64593Y-31119D01*
X64560Y-31287D01*
X64560Y-31712D01*
X64593Y-31880D01*
X64688Y-32023D01*
X64831Y-32119D01*
X65000Y-32152D01*
X65168Y-32119D01*
X65311Y-32023D01*
X65406Y-31880D01*
X65440Y-31712D01*
X65440Y-32505D01*
X64440Y-32505D01*
X64440Y-31712D01*
X64440Y-31287D01*
X64406Y-31119D01*
X64311Y-30976D01*
X64168Y-30880D01*
X64000Y-30847D01*
X63831Y-30880D01*
X63688Y-30976D01*
X63593Y-31119D01*
X63560Y-31287D01*
X63560Y-31712D01*
X63593Y-31880D01*
X63688Y-32023D01*
X63831Y-32119D01*
X64000Y-32152D01*
X64168Y-32119D01*
X64311Y-32023D01*
X64406Y-31880D01*
X64440Y-31712D01*
X64440Y-32505D01*
X63440Y-32505D01*
X63440Y-31712D01*
X63440Y-31287D01*
X63406Y-31119D01*
X63311Y-30976D01*
X63168Y-30880D01*
X63000Y-30847D01*
X62831Y-30880D01*
X62688Y-30976D01*
X62593Y-31119D01*
X62560Y-31287D01*
X62560Y-31712D01*
X62593Y-31880D01*
X62688Y-32023D01*
X62831Y-32119D01*
X63000Y-32152D01*
X63168Y-32119D01*
X63311Y-32023D01*
X63406Y-31880D01*
X63440Y-31712D01*
X63440Y-32505D01*
X61840Y-32505D01*
X61840Y-31712D01*
X61840Y-31287D01*
X61806Y-31119D01*
X61711Y-30976D01*
X61568Y-30880D01*
X61400Y-30847D01*
X61231Y-30880D01*
X61088Y-30976D01*
X60993Y-31119D01*
X60960Y-31287D01*
X60960Y-31712D01*
X60993Y-31880D01*
X61088Y-32023D01*
X61231Y-32119D01*
X61400Y-32152D01*
X61568Y-32119D01*
X61711Y-32023D01*
X61806Y-31880D01*
X61840Y-31712D01*
X61840Y-32505D01*
X60840Y-32505D01*
X60840Y-31712D01*
X60840Y-31287D01*
X60806Y-31119D01*
X60711Y-30976D01*
X60568Y-30880D01*
X60400Y-30847D01*
X60231Y-30880D01*
X60088Y-30976D01*
X59993Y-31119D01*
X59960Y-31287D01*
X59960Y-31712D01*
X59993Y-31880D01*
X60088Y-32023D01*
X60231Y-32119D01*
X60400Y-32152D01*
X60568Y-32119D01*
X60711Y-32023D01*
X60806Y-31880D01*
X60840Y-31712D01*
X60840Y-32505D01*
X59840Y-32505D01*
X59840Y-31712D01*
X59840Y-31287D01*
X59806Y-31119D01*
X59711Y-30976D01*
X59568Y-30880D01*
X59400Y-30847D01*
X59231Y-30880D01*
X59088Y-30976D01*
X58993Y-31119D01*
X58960Y-31287D01*
X58960Y-31712D01*
X58993Y-31880D01*
X59088Y-32023D01*
X59231Y-32119D01*
X59400Y-32152D01*
X59568Y-32119D01*
X59711Y-32023D01*
X59806Y-31880D01*
X59840Y-31712D01*
X59840Y-32505D01*
X58840Y-32505D01*
X58840Y-31712D01*
X58840Y-31287D01*
X58806Y-31119D01*
X58711Y-30976D01*
X58568Y-30880D01*
X58400Y-30847D01*
X58231Y-30880D01*
X58088Y-30976D01*
X57993Y-31119D01*
X57960Y-31287D01*
X57960Y-31712D01*
X57993Y-31880D01*
X58088Y-32023D01*
X58231Y-32119D01*
X58400Y-32152D01*
X58568Y-32119D01*
X58711Y-32023D01*
X58806Y-31880D01*
X58840Y-31712D01*
X58840Y-32505D01*
X57840Y-32505D01*
X57840Y-31712D01*
X57840Y-31287D01*
X57806Y-31119D01*
X57711Y-30976D01*
X57568Y-30880D01*
X57400Y-30847D01*
X57231Y-30880D01*
X57088Y-30976D01*
X56993Y-31119D01*
X56960Y-31287D01*
X56960Y-31712D01*
X56993Y-31880D01*
X57088Y-32023D01*
X57231Y-32119D01*
X57400Y-32152D01*
X57568Y-32119D01*
X57711Y-32023D01*
X57806Y-31880D01*
X57840Y-31712D01*
X57840Y-32505D01*
X56840Y-32505D01*
X56840Y-31712D01*
X56840Y-31287D01*
X56806Y-31119D01*
X56711Y-30976D01*
X56568Y-30880D01*
X56400Y-30847D01*
X56231Y-30880D01*
X56088Y-30976D01*
X55993Y-31119D01*
X55960Y-31287D01*
X55960Y-31712D01*
X55993Y-31880D01*
X56088Y-32023D01*
X56231Y-32119D01*
X56400Y-32152D01*
X56568Y-32119D01*
X56711Y-32023D01*
X56806Y-31880D01*
X56840Y-31712D01*
X56840Y-32505D01*
X55840Y-32505D01*
X55840Y-31712D01*
X55840Y-31287D01*
X55806Y-31119D01*
X55711Y-30976D01*
X55568Y-30880D01*
X55400Y-30847D01*
X55231Y-30880D01*
X55088Y-30976D01*
X54993Y-31119D01*
X54960Y-31287D01*
X54960Y-31712D01*
X54993Y-31880D01*
X55088Y-32023D01*
X55231Y-32119D01*
X55400Y-32152D01*
X55568Y-32119D01*
X55711Y-32023D01*
X55806Y-31880D01*
X55840Y-31712D01*
X55840Y-32505D01*
X54840Y-32505D01*
X54840Y-31712D01*
X54840Y-31287D01*
X54806Y-31119D01*
X54711Y-30976D01*
X54568Y-30880D01*
X54400Y-30847D01*
X54231Y-30880D01*
X54088Y-30976D01*
X53993Y-31119D01*
X53960Y-31287D01*
X53960Y-31712D01*
X53993Y-31880D01*
X54088Y-32023D01*
X54231Y-32119D01*
X54400Y-32152D01*
X54568Y-32119D01*
X54711Y-32023D01*
X54806Y-31880D01*
X54840Y-31712D01*
X54840Y-32505D01*
X53840Y-32505D01*
X53840Y-31712D01*
X53840Y-31287D01*
X53806Y-31119D01*
X53711Y-30976D01*
X53568Y-30880D01*
X53400Y-30847D01*
X53231Y-30880D01*
X53088Y-30976D01*
X52993Y-31119D01*
X52960Y-31287D01*
X52960Y-31712D01*
X52993Y-31880D01*
X53088Y-32023D01*
X53231Y-32119D01*
X53400Y-32152D01*
X53568Y-32119D01*
X53711Y-32023D01*
X53806Y-31880D01*
X53840Y-31712D01*
X53840Y-32505D01*
X52840Y-32505D01*
X52840Y-31712D01*
X52840Y-31287D01*
X52806Y-31119D01*
X52711Y-30976D01*
X52568Y-30880D01*
X52400Y-30847D01*
X52231Y-30880D01*
X52088Y-30976D01*
X51993Y-31119D01*
X51960Y-31287D01*
X51960Y-31712D01*
X51993Y-31880D01*
X52088Y-32023D01*
X52231Y-32119D01*
X52400Y-32152D01*
X52568Y-32119D01*
X52711Y-32023D01*
X52806Y-31880D01*
X52840Y-31712D01*
X52840Y-32505D01*
X50984Y-32505D01*
X50884Y-32525D01*
X50800Y-32582D01*
X49072Y-34310D01*
X48912Y-34309D01*
X48780Y-34364D01*
X48780Y-34034D01*
X48780Y-34034D01*
X48760Y-33935D01*
X48760Y-33935D01*
X48741Y-33907D01*
X48703Y-33850D01*
X48703Y-33850D01*
X48399Y-33546D01*
X48314Y-33489D01*
X48215Y-33469D01*
X47784Y-33469D01*
X47685Y-33489D01*
X47657Y-33508D01*
X47600Y-33546D01*
X47288Y-33858D01*
X47231Y-33942D01*
X47212Y-34042D01*
X47212Y-37484D01*
X47231Y-37584D01*
X47288Y-37668D01*
X50408Y-40788D01*
X50408Y-40788D01*
X50464Y-40825D01*
X50492Y-40844D01*
X50492Y-40844D01*
X50592Y-40864D01*
X50592Y-40864D01*
X69605Y-40864D01*
X69704Y-40844D01*
X69789Y-40788D01*
X71382Y-39195D01*
X71396Y-39229D01*
X71435Y-39268D01*
X71487Y-39289D01*
X71542Y-39290D01*
X72012Y-39290D01*
X72064Y-39268D01*
X72103Y-39229D01*
X72124Y-39177D01*
X72125Y-39122D01*
X72125Y-38907D01*
X72389Y-38643D01*
X72389Y-38643D01*
X72445Y-38559D01*
X72465Y-38459D01*
X72465Y-38459D01*
X72465Y-36080D01*
X74070Y-37685D01*
X74070Y-37709D01*
X73987Y-37709D01*
X73935Y-37731D01*
X73896Y-37770D01*
X73875Y-37822D01*
X73874Y-37877D01*
X73874Y-38347D01*
X73896Y-38399D01*
X73935Y-38438D01*
X73987Y-38459D01*
X74042Y-38460D01*
X74337Y-38460D01*
X74257Y-38539D01*
X73987Y-38539D01*
X73935Y-38561D01*
X73896Y-38600D01*
X73875Y-38652D01*
X73874Y-38707D01*
X73874Y-39177D01*
X73896Y-39229D01*
X73935Y-39268D01*
X73987Y-39289D01*
X74042Y-39290D01*
X74512Y-39290D01*
X74564Y-39268D01*
X74603Y-39229D01*
X74624Y-39177D01*
X74625Y-39122D01*
X74625Y-38907D01*
X74903Y-38628D01*
X74903Y-38628D01*
X74941Y-38572D01*
X74960Y-38544D01*
X74960Y-38544D01*
X74979Y-38445D01*
X74979Y-38445D01*
X74979Y-39765D01*
X73080Y-41664D01*
X72084Y-41664D01*
X72037Y-41617D01*
X71922Y-41569D01*
X71796Y-41569D01*
X71681Y-41617D01*
X71633Y-41664D01*
X65207Y-41664D01*
X65123Y-41681D01*
X65073Y-41714D01*
X65000Y-41714D01*
X64884Y-41761D01*
X64795Y-41850D01*
X64747Y-41966D01*
X64747Y-42091D01*
X64795Y-42207D01*
X64883Y-42296D01*
X64999Y-42344D01*
X65125Y-42344D01*
X65240Y-42296D01*
X65329Y-42207D01*
X65372Y-42104D01*
X71633Y-42104D01*
X71680Y-42151D01*
X71796Y-42199D01*
X71921Y-42199D01*
X72037Y-42151D01*
X72084Y-42104D01*
X73043Y-42104D01*
X73185Y-42246D01*
X73184Y-42312D01*
X73232Y-42428D01*
X73317Y-42513D01*
X66542Y-42513D01*
X66523Y-42467D01*
X66435Y-42378D01*
X66319Y-42330D01*
X66193Y-42330D01*
X66078Y-42378D01*
X65989Y-42466D01*
X65941Y-42582D01*
X65941Y-42707D01*
X65989Y-42823D01*
X66077Y-42912D01*
X66193Y-42960D01*
X66318Y-42960D01*
X66434Y-42912D01*
X66473Y-42873D01*
X69370Y-42873D01*
X69369Y-42952D01*
X69370Y-42990D01*
X69430Y-43050D01*
X69690Y-43050D01*
X69690Y-43042D01*
X69810Y-43042D01*
X69810Y-43050D01*
X69930Y-43050D01*
X70070Y-43050D01*
X70190Y-43050D01*
X70190Y-43042D01*
X70310Y-43042D01*
X70310Y-43050D01*
X70430Y-43050D01*
X70570Y-43050D01*
X70690Y-43050D01*
X70690Y-43042D01*
X70810Y-43042D01*
X70810Y-43050D01*
X70930Y-43050D01*
X71070Y-43050D01*
X71190Y-43050D01*
X71190Y-43042D01*
X71310Y-43042D01*
X71310Y-43050D01*
X71570Y-43050D01*
X71630Y-42990D01*
X71630Y-42952D01*
X71629Y-42873D01*
X78118Y-42873D01*
X81588Y-46343D01*
X81560Y-46412D01*
X81559Y-46587D01*
X81626Y-46748D01*
X81750Y-46872D01*
X81912Y-46939D01*
X82087Y-46940D01*
X82248Y-46873D01*
X82372Y-46749D01*
X82439Y-46587D01*
X82440Y-46412D01*
X82440Y-45412D01*
X82440Y-44412D01*
X82440Y-43412D01*
X82440Y-42412D01*
X82440Y-41412D01*
X82440Y-40412D01*
X82440Y-39412D01*
X82440Y-38412D01*
X82440Y-37412D01*
X82373Y-37251D01*
X82249Y-37127D01*
X82087Y-37060D01*
X81912Y-37059D01*
X81751Y-37126D01*
X81627Y-37250D01*
X81560Y-37412D01*
X81559Y-37587D01*
X81626Y-37748D01*
X81750Y-37872D01*
X81912Y-37939D01*
X82087Y-37940D01*
X82248Y-37873D01*
X82372Y-37749D01*
X82439Y-37587D01*
X82440Y-37412D01*
X82440Y-38412D01*
X82373Y-38251D01*
X82249Y-38127D01*
X82087Y-38060D01*
X81912Y-38059D01*
X81751Y-38126D01*
X81627Y-38250D01*
X81560Y-38412D01*
X81559Y-38587D01*
X81626Y-38748D01*
X81750Y-38872D01*
X81912Y-38939D01*
X82087Y-38940D01*
X82248Y-38873D01*
X82372Y-38749D01*
X82439Y-38587D01*
X82440Y-38412D01*
X82440Y-39412D01*
X82373Y-39251D01*
X82249Y-39127D01*
X82087Y-39060D01*
X81912Y-39059D01*
X81751Y-39126D01*
X81627Y-39250D01*
X81560Y-39412D01*
X81559Y-39587D01*
X81626Y-39748D01*
X81750Y-39872D01*
X81912Y-39939D01*
X82087Y-39940D01*
X82248Y-39873D01*
X82372Y-39749D01*
X82439Y-39587D01*
X82440Y-39412D01*
X82440Y-40412D01*
X82373Y-40251D01*
X82249Y-40127D01*
X82087Y-40060D01*
X81912Y-40059D01*
X81751Y-40126D01*
X81627Y-40250D01*
X81560Y-40412D01*
X81559Y-40587D01*
X81626Y-40748D01*
X81750Y-40872D01*
X81912Y-40939D01*
X82087Y-40940D01*
X82248Y-40873D01*
X82372Y-40749D01*
X82439Y-40587D01*
X82440Y-40412D01*
X82440Y-41412D01*
X82373Y-41251D01*
X82249Y-41127D01*
X82087Y-41060D01*
X81912Y-41059D01*
X81751Y-41126D01*
X81627Y-41250D01*
X81560Y-41412D01*
X81559Y-41587D01*
X81626Y-41748D01*
X81750Y-41872D01*
X81912Y-41939D01*
X82087Y-41940D01*
X82248Y-41873D01*
X82372Y-41749D01*
X82439Y-41587D01*
X82440Y-41412D01*
X82440Y-42412D01*
X82373Y-42251D01*
X82249Y-42127D01*
X82087Y-42060D01*
X81912Y-42059D01*
X81751Y-42126D01*
X81627Y-42250D01*
X81560Y-42412D01*
X81559Y-42587D01*
X81626Y-42748D01*
X81750Y-42872D01*
X81912Y-42939D01*
X82087Y-42940D01*
X82248Y-42873D01*
X82372Y-42749D01*
X82439Y-42587D01*
X82440Y-42412D01*
X82440Y-43412D01*
X82373Y-43251D01*
X82249Y-43127D01*
X82087Y-43060D01*
X81912Y-43059D01*
X81751Y-43126D01*
X81627Y-43250D01*
X81560Y-43412D01*
X81559Y-43587D01*
X81626Y-43748D01*
X81750Y-43872D01*
X81912Y-43939D01*
X82087Y-43940D01*
X82248Y-43873D01*
X82372Y-43749D01*
X82439Y-43587D01*
X82440Y-43412D01*
X82440Y-44412D01*
X82373Y-44251D01*
X82249Y-44127D01*
X82087Y-44060D01*
X81912Y-44059D01*
X81751Y-44126D01*
X81627Y-44250D01*
X81560Y-44412D01*
X81559Y-44587D01*
X81626Y-44748D01*
X81750Y-44872D01*
X81912Y-44939D01*
X82087Y-44940D01*
X82248Y-44873D01*
X82372Y-44749D01*
X82439Y-44587D01*
X82440Y-44412D01*
X82440Y-45412D01*
X82373Y-45251D01*
X82249Y-45127D01*
X82087Y-45060D01*
X81912Y-45059D01*
X81751Y-45126D01*
X81627Y-45250D01*
X81560Y-45412D01*
X81559Y-45587D01*
X81626Y-45748D01*
X81750Y-45872D01*
X81912Y-45939D01*
X82087Y-45940D01*
X82248Y-45873D01*
X82372Y-45749D01*
X82439Y-45587D01*
X82440Y-45412D01*
X82440Y-46412D01*
X82373Y-46251D01*
X82249Y-46127D01*
X82087Y-46060D01*
X81912Y-46059D01*
X81843Y-46088D01*
X78320Y-42566D01*
X78262Y-42527D01*
X78193Y-42513D01*
X73682Y-42513D01*
X73766Y-42428D01*
X73814Y-42312D01*
X73815Y-42187D01*
X73767Y-42071D01*
X73678Y-41983D01*
X73562Y-41935D01*
X73496Y-41934D01*
X73464Y-41903D01*
X75403Y-39964D01*
X75685Y-40246D01*
X75684Y-40312D01*
X75732Y-40428D01*
X75821Y-40516D01*
X75937Y-40564D01*
X76062Y-40565D01*
X76178Y-40517D01*
X76266Y-40428D01*
X76314Y-40312D01*
X76315Y-40187D01*
X76267Y-40071D01*
X76178Y-39983D01*
X76062Y-39935D01*
X75996Y-39934D01*
X75748Y-39687D01*
X75748Y-39619D01*
X79167Y-36200D01*
X81677Y-36200D01*
X81627Y-36250D01*
X81560Y-36412D01*
X81559Y-36587D01*
X81626Y-36748D01*
X81750Y-36872D01*
X81912Y-36939D01*
X82087Y-36940D01*
X82248Y-36873D01*
X82372Y-36749D01*
X82439Y-36587D01*
X82440Y-36412D01*
X82373Y-36251D01*
X82299Y-36177D01*
X82361Y-36135D01*
X82675Y-35822D01*
X82675Y-35822D01*
X82685Y-35807D01*
X82750Y-35872D01*
X82912Y-35939D01*
X83087Y-35940D01*
X83248Y-35873D01*
X83372Y-35749D01*
X83439Y-35587D01*
X83440Y-35412D01*
X83373Y-35251D01*
X83342Y-35220D01*
X83660Y-35220D01*
X83659Y-35297D01*
X83660Y-35630D01*
X83720Y-35690D01*
X84090Y-35690D01*
X84090Y-35682D01*
X84210Y-35682D01*
X84210Y-35690D01*
X84580Y-35690D01*
X84640Y-35630D01*
X84640Y-35297D01*
X84639Y-35220D01*
X84960Y-35220D01*
X84960Y-35222D01*
X84959Y-35277D01*
X84959Y-36277D01*
X84981Y-36329D01*
X85020Y-36368D01*
X85072Y-36389D01*
X85127Y-36390D01*
X85627Y-36390D01*
X85679Y-36368D01*
X85718Y-36329D01*
X85739Y-36277D01*
X85740Y-36222D01*
X85740Y-35930D01*
X86459Y-35930D01*
X86459Y-36012D01*
X86481Y-36064D01*
X86520Y-36103D01*
X86572Y-36124D01*
X86627Y-36125D01*
X87097Y-36125D01*
X87149Y-36103D01*
X87188Y-36064D01*
X87209Y-36012D01*
X87210Y-35957D01*
X87210Y-35606D01*
X87289Y-35686D01*
X87289Y-36012D01*
X87311Y-36064D01*
X87350Y-36103D01*
X87396Y-36122D01*
X86483Y-37035D01*
X86436Y-37106D01*
X86419Y-37190D01*
X86419Y-40499D01*
X86425Y-40530D01*
X86300Y-40832D01*
X86299Y-41166D01*
X86427Y-41475D01*
X86663Y-41711D01*
X86972Y-41839D01*
X87306Y-41840D01*
X87615Y-41712D01*
X87851Y-41476D01*
X87913Y-41328D01*
X88025Y-41440D01*
X88216Y-41519D01*
X88422Y-41520D01*
X88614Y-41441D01*
X88760Y-41294D01*
X88839Y-41103D01*
X88840Y-40897D01*
X88840Y-51335D01*
X88370Y-51335D01*
X88370Y-42603D01*
X88242Y-42294D01*
X88006Y-42058D01*
X87697Y-41930D01*
X87363Y-41929D01*
X87054Y-42057D01*
X86818Y-42293D01*
X86690Y-42602D01*
X86689Y-42936D01*
X86817Y-43245D01*
X87053Y-43481D01*
X87362Y-43609D01*
X87696Y-43610D01*
X88005Y-43482D01*
X88241Y-43246D01*
X88369Y-42937D01*
X88370Y-42603D01*
X88370Y-51335D01*
X85823Y-51335D01*
X85823Y-41188D01*
X85816Y-40775D01*
X85671Y-40426D01*
X85528Y-40336D01*
X85443Y-40421D01*
X85443Y-40251D01*
X85353Y-40108D01*
X84968Y-39956D01*
X84640Y-39962D01*
X84640Y-36202D01*
X84640Y-35870D01*
X84580Y-35810D01*
X84210Y-35810D01*
X84210Y-36430D01*
X84270Y-36490D01*
X84447Y-36490D01*
X84535Y-36453D01*
X84603Y-36386D01*
X84639Y-36297D01*
X84640Y-36202D01*
X84640Y-39962D01*
X84555Y-39963D01*
X84206Y-40108D01*
X84116Y-40251D01*
X84780Y-40915D01*
X85443Y-40251D01*
X85443Y-40421D01*
X84864Y-41000D01*
X85528Y-41663D01*
X85671Y-41573D01*
X85823Y-41188D01*
X85823Y-51335D01*
X85443Y-51335D01*
X85443Y-41748D01*
X84780Y-41084D01*
X84695Y-41169D01*
X84695Y-41000D01*
X84090Y-40394D01*
X84090Y-36430D01*
X84090Y-35810D01*
X83720Y-35810D01*
X83660Y-35870D01*
X83659Y-36202D01*
X83660Y-36297D01*
X83696Y-36386D01*
X83764Y-36453D01*
X83852Y-36490D01*
X84030Y-36490D01*
X84090Y-36430D01*
X84090Y-40394D01*
X84031Y-40336D01*
X83888Y-40426D01*
X83736Y-40811D01*
X83743Y-41224D01*
X83888Y-41573D01*
X84031Y-41663D01*
X84695Y-41000D01*
X84695Y-41169D01*
X84116Y-41748D01*
X84206Y-41891D01*
X84591Y-42043D01*
X85004Y-42036D01*
X85353Y-41891D01*
X85443Y-41748D01*
X85443Y-51335D01*
X83375Y-51335D01*
X83517Y-51276D01*
X83775Y-51018D01*
X83914Y-50682D01*
X83915Y-50318D01*
X83776Y-49982D01*
X83518Y-49724D01*
X83440Y-49691D01*
X83440Y-48412D01*
X83440Y-47412D01*
X83440Y-46412D01*
X83440Y-45412D01*
X83440Y-44412D01*
X83440Y-43412D01*
X83440Y-42412D01*
X83440Y-41412D01*
X83440Y-40412D01*
X83440Y-39412D01*
X83440Y-38412D01*
X83440Y-37412D01*
X83440Y-36412D01*
X83373Y-36251D01*
X83249Y-36127D01*
X83087Y-36060D01*
X82912Y-36059D01*
X82751Y-36126D01*
X82627Y-36250D01*
X82560Y-36412D01*
X82559Y-36587D01*
X82626Y-36748D01*
X82750Y-36872D01*
X82912Y-36939D01*
X83087Y-36940D01*
X83248Y-36873D01*
X83372Y-36749D01*
X83439Y-36587D01*
X83440Y-36412D01*
X83440Y-37412D01*
X83373Y-37251D01*
X83249Y-37127D01*
X83087Y-37060D01*
X82912Y-37059D01*
X82751Y-37126D01*
X82627Y-37250D01*
X82560Y-37412D01*
X82559Y-37587D01*
X82626Y-37748D01*
X82750Y-37872D01*
X82912Y-37939D01*
X83087Y-37940D01*
X83248Y-37873D01*
X83372Y-37749D01*
X83439Y-37587D01*
X83440Y-37412D01*
X83440Y-38412D01*
X83373Y-38251D01*
X83249Y-38127D01*
X83087Y-38060D01*
X82912Y-38059D01*
X82751Y-38126D01*
X82627Y-38250D01*
X82560Y-38412D01*
X82559Y-38587D01*
X82626Y-38748D01*
X82750Y-38872D01*
X82912Y-38939D01*
X83087Y-38940D01*
X83248Y-38873D01*
X83372Y-38749D01*
X83439Y-38587D01*
X83440Y-38412D01*
X83440Y-39412D01*
X83373Y-39251D01*
X83249Y-39127D01*
X83087Y-39060D01*
X82912Y-39059D01*
X82751Y-39126D01*
X82627Y-39250D01*
X82560Y-39412D01*
X82559Y-39587D01*
X82626Y-39748D01*
X82750Y-39872D01*
X82912Y-39939D01*
X83087Y-39940D01*
X83248Y-39873D01*
X83372Y-39749D01*
X83439Y-39587D01*
X83440Y-39412D01*
X83440Y-40412D01*
X83373Y-40251D01*
X83249Y-40127D01*
X83087Y-40060D01*
X82912Y-40059D01*
X82751Y-40126D01*
X82627Y-40250D01*
X82560Y-40412D01*
X82559Y-40587D01*
X82626Y-40748D01*
X82750Y-40872D01*
X82912Y-40939D01*
X83087Y-40940D01*
X83248Y-40873D01*
X83372Y-40749D01*
X83439Y-40587D01*
X83440Y-40412D01*
X83440Y-41412D01*
X83373Y-41251D01*
X83249Y-41127D01*
X83087Y-41060D01*
X82912Y-41059D01*
X82751Y-41126D01*
X82627Y-41250D01*
X82560Y-41412D01*
X82559Y-41587D01*
X82626Y-41748D01*
X82750Y-41872D01*
X82912Y-41939D01*
X83087Y-41940D01*
X83248Y-41873D01*
X83372Y-41749D01*
X83439Y-41587D01*
X83440Y-41412D01*
X83440Y-42412D01*
X83373Y-42251D01*
X83249Y-42127D01*
X83087Y-42060D01*
X82912Y-42059D01*
X82751Y-42126D01*
X82627Y-42250D01*
X82560Y-42412D01*
X82559Y-42587D01*
X82626Y-42748D01*
X82750Y-42872D01*
X82912Y-42939D01*
X83087Y-42940D01*
X83248Y-42873D01*
X83372Y-42749D01*
X83439Y-42587D01*
X83440Y-42412D01*
X83440Y-43412D01*
X83373Y-43251D01*
X83249Y-43127D01*
X83087Y-43060D01*
X82912Y-43059D01*
X82751Y-43126D01*
X82627Y-43250D01*
X82560Y-43412D01*
X82559Y-43587D01*
X82626Y-43748D01*
X82750Y-43872D01*
X82912Y-43939D01*
X83087Y-43940D01*
X83248Y-43873D01*
X83372Y-43749D01*
X83439Y-43587D01*
X83440Y-43412D01*
X83440Y-44412D01*
X83373Y-44251D01*
X83249Y-44127D01*
X83087Y-44060D01*
X82912Y-44059D01*
X82751Y-44126D01*
X82627Y-44250D01*
X82560Y-44412D01*
X82559Y-44587D01*
X82626Y-44748D01*
X82750Y-44872D01*
X82912Y-44939D01*
X83087Y-44940D01*
X83248Y-44873D01*
X83372Y-44749D01*
X83439Y-44587D01*
X83440Y-44412D01*
X83440Y-45412D01*
X83373Y-45251D01*
X83249Y-45127D01*
X83087Y-45060D01*
X82912Y-45059D01*
X82751Y-45126D01*
X82627Y-45250D01*
X82560Y-45412D01*
X82559Y-45587D01*
X82626Y-45748D01*
X82750Y-45872D01*
X82912Y-45939D01*
X83087Y-45940D01*
X83248Y-45873D01*
X83372Y-45749D01*
X83439Y-45587D01*
X83440Y-45412D01*
X83440Y-46412D01*
X83373Y-46251D01*
X83249Y-46127D01*
X83087Y-46060D01*
X82912Y-46059D01*
X82751Y-46126D01*
X82627Y-46250D01*
X82560Y-46412D01*
X82559Y-46587D01*
X82626Y-46748D01*
X82750Y-46872D01*
X82912Y-46939D01*
X83087Y-46940D01*
X83248Y-46873D01*
X83372Y-46749D01*
X83439Y-46587D01*
X83440Y-46412D01*
X83440Y-47412D01*
X83373Y-47251D01*
X83249Y-47127D01*
X83087Y-47060D01*
X82912Y-47059D01*
X82751Y-47126D01*
X82627Y-47250D01*
X82560Y-47412D01*
X82559Y-47587D01*
X82626Y-47748D01*
X82750Y-47872D01*
X82912Y-47939D01*
X83087Y-47940D01*
X83248Y-47873D01*
X83372Y-47749D01*
X83439Y-47587D01*
X83440Y-47412D01*
X83440Y-48412D01*
X83373Y-48251D01*
X83249Y-48127D01*
X83087Y-48060D01*
X82912Y-48059D01*
X82751Y-48126D01*
X82627Y-48250D01*
X82560Y-48412D01*
X82559Y-48587D01*
X82626Y-48748D01*
X82750Y-48872D01*
X82912Y-48939D01*
X83087Y-48940D01*
X83248Y-48873D01*
X83372Y-48749D01*
X83439Y-48587D01*
X83440Y-48412D01*
X83440Y-49691D01*
X83182Y-49585D01*
X82818Y-49584D01*
X82482Y-49723D01*
X82440Y-49766D01*
X82440Y-48412D01*
X82440Y-47412D01*
X82373Y-47251D01*
X82249Y-47127D01*
X82087Y-47060D01*
X81912Y-47059D01*
X81751Y-47126D01*
X81627Y-47250D01*
X81560Y-47412D01*
X81559Y-47587D01*
X81626Y-47748D01*
X81750Y-47872D01*
X81912Y-47939D01*
X82087Y-47940D01*
X82248Y-47873D01*
X82372Y-47749D01*
X82439Y-47587D01*
X82440Y-47412D01*
X82440Y-48412D01*
X82373Y-48251D01*
X82249Y-48127D01*
X82087Y-48060D01*
X81912Y-48059D01*
X81751Y-48126D01*
X81627Y-48250D01*
X81560Y-48412D01*
X81559Y-48587D01*
X81626Y-48748D01*
X81750Y-48872D01*
X81912Y-48939D01*
X82087Y-48940D01*
X82248Y-48873D01*
X82372Y-48749D01*
X82439Y-48587D01*
X82440Y-48412D01*
X82440Y-49766D01*
X82224Y-49981D01*
X82085Y-50317D01*
X82084Y-50681D01*
X82223Y-51017D01*
X82481Y-51275D01*
X82624Y-51335D01*
X81440Y-51335D01*
X81440Y-50712D01*
X81440Y-50287D01*
X81406Y-50119D01*
X81311Y-49976D01*
X81168Y-49880D01*
X81000Y-49847D01*
X80831Y-49880D01*
X80688Y-49976D01*
X80593Y-50119D01*
X80560Y-50287D01*
X80560Y-50712D01*
X80593Y-50880D01*
X80688Y-51023D01*
X80831Y-51119D01*
X81000Y-51152D01*
X81168Y-51119D01*
X81311Y-51023D01*
X81406Y-50880D01*
X81440Y-50712D01*
X81440Y-51335D01*
X80440Y-51335D01*
X80440Y-50712D01*
X80440Y-50287D01*
X80406Y-50119D01*
X80311Y-49976D01*
X80168Y-49880D01*
X80000Y-49847D01*
X79831Y-49880D01*
X79688Y-49976D01*
X79593Y-50119D01*
X79560Y-50287D01*
X79560Y-50712D01*
X79593Y-50880D01*
X79688Y-51023D01*
X79831Y-51119D01*
X80000Y-51152D01*
X80168Y-51119D01*
X80311Y-51023D01*
X80406Y-50880D01*
X80440Y-50712D01*
X80440Y-51335D01*
X79440Y-51335D01*
X79440Y-50712D01*
X79440Y-50287D01*
X79406Y-50119D01*
X79311Y-49976D01*
X79168Y-49880D01*
X79000Y-49847D01*
X78831Y-49880D01*
X78688Y-49976D01*
X78593Y-50119D01*
X78560Y-50287D01*
X78560Y-50712D01*
X78593Y-50880D01*
X78688Y-51023D01*
X78831Y-51119D01*
X79000Y-51152D01*
X79168Y-51119D01*
X79311Y-51023D01*
X79406Y-50880D01*
X79440Y-50712D01*
X79440Y-51335D01*
X78440Y-51335D01*
X78440Y-50712D01*
X78440Y-50287D01*
X78406Y-50119D01*
X78311Y-49976D01*
X78168Y-49880D01*
X78000Y-49847D01*
X77831Y-49880D01*
X77688Y-49976D01*
X77593Y-50119D01*
X77560Y-50287D01*
X77560Y-50712D01*
X77593Y-50880D01*
X77688Y-51023D01*
X77831Y-51119D01*
X78000Y-51152D01*
X78168Y-51119D01*
X78311Y-51023D01*
X78406Y-50880D01*
X78440Y-50712D01*
X78440Y-51335D01*
X77440Y-51335D01*
X77440Y-50712D01*
X77440Y-50287D01*
X77406Y-50119D01*
X77311Y-49976D01*
X77168Y-49880D01*
X77000Y-49847D01*
X76831Y-49880D01*
X76688Y-49976D01*
X76593Y-50119D01*
X76560Y-50287D01*
X76560Y-50712D01*
X76593Y-50880D01*
X76688Y-51023D01*
X76831Y-51119D01*
X77000Y-51152D01*
X77168Y-51119D01*
X77311Y-51023D01*
X77406Y-50880D01*
X77440Y-50712D01*
X77440Y-51335D01*
X76440Y-51335D01*
X76440Y-50712D01*
X76440Y-50287D01*
X76406Y-50119D01*
X76311Y-49976D01*
X76168Y-49880D01*
X76000Y-49847D01*
X75831Y-49880D01*
X75688Y-49976D01*
X75593Y-50119D01*
X75560Y-50287D01*
X75560Y-50712D01*
X75593Y-50880D01*
X75688Y-51023D01*
X75831Y-51119D01*
X76000Y-51152D01*
X76168Y-51119D01*
X76311Y-51023D01*
X76406Y-50880D01*
X76440Y-50712D01*
X76440Y-51335D01*
X75440Y-51335D01*
X75440Y-50712D01*
X75440Y-50287D01*
X75406Y-50119D01*
X75311Y-49976D01*
X75168Y-49880D01*
X75000Y-49847D01*
X74831Y-49880D01*
X74688Y-49976D01*
X74593Y-50119D01*
X74560Y-50287D01*
X74560Y-50712D01*
X74593Y-50880D01*
X74688Y-51023D01*
X74831Y-51119D01*
X75000Y-51152D01*
X75168Y-51119D01*
X75311Y-51023D01*
X75406Y-50880D01*
X75440Y-50712D01*
X75440Y-51335D01*
X74440Y-51335D01*
X74440Y-50712D01*
X74440Y-50287D01*
X74406Y-50119D01*
X74311Y-49976D01*
X74168Y-49880D01*
X74000Y-49847D01*
X73831Y-49880D01*
X73688Y-49976D01*
X73593Y-50119D01*
X73560Y-50287D01*
X73560Y-50712D01*
X73593Y-50880D01*
X73688Y-51023D01*
X73831Y-51119D01*
X74000Y-51152D01*
X74168Y-51119D01*
X74311Y-51023D01*
X74406Y-50880D01*
X74440Y-50712D01*
X74440Y-51335D01*
X72440Y-51335D01*
X72440Y-50712D01*
X72440Y-50287D01*
X72406Y-50119D01*
X72311Y-49976D01*
X72168Y-49880D01*
X72000Y-49847D01*
X71831Y-49880D01*
X71688Y-49976D01*
X71593Y-50119D01*
X71560Y-50287D01*
X71560Y-50712D01*
X71593Y-50880D01*
X71688Y-51023D01*
X71831Y-51119D01*
X72000Y-51152D01*
X72168Y-51119D01*
X72311Y-51023D01*
X72406Y-50880D01*
X72440Y-50712D01*
X72440Y-51335D01*
X71440Y-51335D01*
X71440Y-50712D01*
X71440Y-50287D01*
X71406Y-50119D01*
X71311Y-49976D01*
X71168Y-49880D01*
X71000Y-49847D01*
X70831Y-49880D01*
X70688Y-49976D01*
X70593Y-50119D01*
X70560Y-50287D01*
X70560Y-50712D01*
X70593Y-50880D01*
X70688Y-51023D01*
X70831Y-51119D01*
X71000Y-51152D01*
X71168Y-51119D01*
X71311Y-51023D01*
X71406Y-50880D01*
X71440Y-50712D01*
X71440Y-51335D01*
X70440Y-51335D01*
X70440Y-50712D01*
X70440Y-50287D01*
X70406Y-50119D01*
X70311Y-49976D01*
X70168Y-49880D01*
X70000Y-49847D01*
X69831Y-49880D01*
X69688Y-49976D01*
X69593Y-50119D01*
X69560Y-50287D01*
X69560Y-50712D01*
X69593Y-50880D01*
X69688Y-51023D01*
X69831Y-51119D01*
X70000Y-51152D01*
X70168Y-51119D01*
X70311Y-51023D01*
X70406Y-50880D01*
X70440Y-50712D01*
X70440Y-51335D01*
X69440Y-51335D01*
X69440Y-50712D01*
X69440Y-50287D01*
X69406Y-50119D01*
X69311Y-49976D01*
X69168Y-49880D01*
X69000Y-49847D01*
X68831Y-49880D01*
X68688Y-49976D01*
X68593Y-50119D01*
X68560Y-50287D01*
X68560Y-50712D01*
X68593Y-50880D01*
X68688Y-51023D01*
X68831Y-51119D01*
X69000Y-51152D01*
X69168Y-51119D01*
X69311Y-51023D01*
X69406Y-50880D01*
X69440Y-50712D01*
X69440Y-51335D01*
X68440Y-51335D01*
X68440Y-50712D01*
X68440Y-50287D01*
X68406Y-50119D01*
X68311Y-49976D01*
X68168Y-49880D01*
X68000Y-49847D01*
X67831Y-49880D01*
X67688Y-49976D01*
X67593Y-50119D01*
X67560Y-50287D01*
X67560Y-50712D01*
X67593Y-50880D01*
X67688Y-51023D01*
X67831Y-51119D01*
X68000Y-51152D01*
X68168Y-51119D01*
X68311Y-51023D01*
X68406Y-50880D01*
X68440Y-50712D01*
X68440Y-51335D01*
X67440Y-51335D01*
X67440Y-50712D01*
X67440Y-50287D01*
X67406Y-50119D01*
X67311Y-49976D01*
X67168Y-49880D01*
X67000Y-49847D01*
X66831Y-49880D01*
X66688Y-49976D01*
X66593Y-50119D01*
X66560Y-50287D01*
X66560Y-50712D01*
X66593Y-50880D01*
X66688Y-51023D01*
X66831Y-51119D01*
X67000Y-51152D01*
X67168Y-51119D01*
X67311Y-51023D01*
X67406Y-50880D01*
X67440Y-50712D01*
X67440Y-51335D01*
X66440Y-51335D01*
X66440Y-50712D01*
X66440Y-50287D01*
X66406Y-50119D01*
X66311Y-49976D01*
X66168Y-49880D01*
X66000Y-49847D01*
X65831Y-49880D01*
X65688Y-49976D01*
X65593Y-50119D01*
X65560Y-50287D01*
X65560Y-50712D01*
X65593Y-50880D01*
X65688Y-51023D01*
X65831Y-51119D01*
X66000Y-51152D01*
X66168Y-51119D01*
X66311Y-51023D01*
X66406Y-50880D01*
X66440Y-50712D01*
X66440Y-51335D01*
X65440Y-51335D01*
X65440Y-50712D01*
X65440Y-50287D01*
X65406Y-50119D01*
X65311Y-49976D01*
X65168Y-49880D01*
X65000Y-49847D01*
X64831Y-49880D01*
X64688Y-49976D01*
X64593Y-50119D01*
X64560Y-50287D01*
X64560Y-50712D01*
X64593Y-50880D01*
X64688Y-51023D01*
X64831Y-51119D01*
X65000Y-51152D01*
X65168Y-51119D01*
X65311Y-51023D01*
X65406Y-50880D01*
X65440Y-50712D01*
X65440Y-51335D01*
X63440Y-51335D01*
X63440Y-50712D01*
X63440Y-50287D01*
X63406Y-50119D01*
X63311Y-49976D01*
X63168Y-49880D01*
X63000Y-49847D01*
X62831Y-49880D01*
X62688Y-49976D01*
X62593Y-50119D01*
X62560Y-50287D01*
X62560Y-50712D01*
X62593Y-50880D01*
X62688Y-51023D01*
X62831Y-51119D01*
X63000Y-51152D01*
X63168Y-51119D01*
X63311Y-51023D01*
X63406Y-50880D01*
X63440Y-50712D01*
X63440Y-51335D01*
X62440Y-51335D01*
X62440Y-50712D01*
X62440Y-50287D01*
X62406Y-50119D01*
X62311Y-49976D01*
X62220Y-49915D01*
X62220Y-49819D01*
X62203Y-49735D01*
X62155Y-49664D01*
X62084Y-49616D01*
X62000Y-49599D01*
X61000Y-49599D01*
X60915Y-49616D01*
X60844Y-49664D01*
X60796Y-49735D01*
X60780Y-49819D01*
X60780Y-49915D01*
X60688Y-49976D01*
X60593Y-50119D01*
X60560Y-50287D01*
X60560Y-50712D01*
X60593Y-50880D01*
X60688Y-51023D01*
X60831Y-51119D01*
X61000Y-51152D01*
X61168Y-51119D01*
X61311Y-51023D01*
X61406Y-50880D01*
X61440Y-50712D01*
X61440Y-50287D01*
X61406Y-50119D01*
X61353Y-50039D01*
X61646Y-50039D01*
X61593Y-50119D01*
X61560Y-50287D01*
X61560Y-50712D01*
X61593Y-50880D01*
X61688Y-51023D01*
X61831Y-51119D01*
X62000Y-51152D01*
X62168Y-51119D01*
X62311Y-51023D01*
X62406Y-50880D01*
X62440Y-50712D01*
X62440Y-51335D01*
X60440Y-51335D01*
X60440Y-50712D01*
X60440Y-50287D01*
X60406Y-50119D01*
X60311Y-49976D01*
X60168Y-49880D01*
X60000Y-49847D01*
X59831Y-49880D01*
X59688Y-49976D01*
X59593Y-50119D01*
X59560Y-50287D01*
X59560Y-50712D01*
X59593Y-50880D01*
X59688Y-51023D01*
X59831Y-51119D01*
X60000Y-51152D01*
X60168Y-51119D01*
X60311Y-51023D01*
X60406Y-50880D01*
X60440Y-50712D01*
X60440Y-51335D01*
X59440Y-51335D01*
X59440Y-50712D01*
X59440Y-50287D01*
X59406Y-50119D01*
X59311Y-49976D01*
X59168Y-49880D01*
X59000Y-49847D01*
X58831Y-49880D01*
X58688Y-49976D01*
X58593Y-50119D01*
X58560Y-50287D01*
X58560Y-50712D01*
X58593Y-50880D01*
X58688Y-51023D01*
X58831Y-51119D01*
X59000Y-51152D01*
X59168Y-51119D01*
X59311Y-51023D01*
X59406Y-50880D01*
X59440Y-50712D01*
X59440Y-51335D01*
X58440Y-51335D01*
X58440Y-50712D01*
X58440Y-50287D01*
X58406Y-50119D01*
X58311Y-49976D01*
X58168Y-49880D01*
X58000Y-49847D01*
X57831Y-49880D01*
X57688Y-49976D01*
X57593Y-50119D01*
X57560Y-50287D01*
X57560Y-50712D01*
X57593Y-50880D01*
X57688Y-51023D01*
X57831Y-51119D01*
X58000Y-51152D01*
X58168Y-51119D01*
X58311Y-51023D01*
X58406Y-50880D01*
X58440Y-50712D01*
X58440Y-51335D01*
X57440Y-51335D01*
X57440Y-50712D01*
X57440Y-50287D01*
X57406Y-50119D01*
X57311Y-49976D01*
X57168Y-49880D01*
X57000Y-49847D01*
X56831Y-49880D01*
X56688Y-49976D01*
X56593Y-50119D01*
X56560Y-50287D01*
X56560Y-50712D01*
X56593Y-50880D01*
X56688Y-51023D01*
X56831Y-51119D01*
X57000Y-51152D01*
X57168Y-51119D01*
X57311Y-51023D01*
X57406Y-50880D01*
X57440Y-50712D01*
X57440Y-51335D01*
X56440Y-51335D01*
X56440Y-50712D01*
X56440Y-50287D01*
X56406Y-50119D01*
X56311Y-49976D01*
X56168Y-49880D01*
X56000Y-49847D01*
X55831Y-49880D01*
X55688Y-49976D01*
X55593Y-50119D01*
X55560Y-50287D01*
X55560Y-50712D01*
X55593Y-50880D01*
X55688Y-51023D01*
X55831Y-51119D01*
X56000Y-51152D01*
X56168Y-51119D01*
X56311Y-51023D01*
X56406Y-50880D01*
X56440Y-50712D01*
X56440Y-51335D01*
X50875Y-51335D01*
X51017Y-51276D01*
X51275Y-51018D01*
X51414Y-50682D01*
X51415Y-50318D01*
X51276Y-49982D01*
X51031Y-49737D01*
X51623Y-49737D01*
X52007Y-50121D01*
X52092Y-50177D01*
X52191Y-50197D01*
X54831Y-50197D01*
X54930Y-50177D01*
X55014Y-50121D01*
X55651Y-49485D01*
X64662Y-49485D01*
X64762Y-49465D01*
X64846Y-49408D01*
X66275Y-47980D01*
X66285Y-47980D01*
X66380Y-47940D01*
X66396Y-47979D01*
X66435Y-48018D01*
X66487Y-48039D01*
X66542Y-48040D01*
X67012Y-48040D01*
X67064Y-48018D01*
X67103Y-47979D01*
X67124Y-47927D01*
X67125Y-47872D01*
X67125Y-47402D01*
X67103Y-47350D01*
X67064Y-47311D01*
X67012Y-47290D01*
X66957Y-47289D01*
X66487Y-47289D01*
X66435Y-47311D01*
X66396Y-47350D01*
X66380Y-47389D01*
X66285Y-47350D01*
X66160Y-47349D01*
X66044Y-47397D01*
X65955Y-47486D01*
X65907Y-47602D01*
X65907Y-47612D01*
X64555Y-48965D01*
X64112Y-48965D01*
X66374Y-46703D01*
X66374Y-47097D01*
X66396Y-47149D01*
X66435Y-47188D01*
X66487Y-47209D01*
X66542Y-47210D01*
X67012Y-47210D01*
X67064Y-47188D01*
X67103Y-47149D01*
X67124Y-47097D01*
X67124Y-47089D01*
X67372Y-47337D01*
X67372Y-47337D01*
X67431Y-47376D01*
X67500Y-47390D01*
X67532Y-47390D01*
X67461Y-47460D01*
X67413Y-47576D01*
X67413Y-47701D01*
X67461Y-47817D01*
X67550Y-47906D01*
X67665Y-47954D01*
X67791Y-47954D01*
X67906Y-47906D01*
X67914Y-47899D01*
X68686Y-47899D01*
X68686Y-47899D01*
X68695Y-47905D01*
X68695Y-47905D01*
X68794Y-47924D01*
X68794Y-47925D01*
X68874Y-47925D01*
X68874Y-47927D01*
X68896Y-47979D01*
X68935Y-48018D01*
X68987Y-48039D01*
X69042Y-48040D01*
X69512Y-48040D01*
X69564Y-48018D01*
X69603Y-47979D01*
X69624Y-47927D01*
X69625Y-47872D01*
X69625Y-47464D01*
X70708Y-48548D01*
X70767Y-48587D01*
X70836Y-48601D01*
X74727Y-48601D01*
X74796Y-48587D01*
X74854Y-48548D01*
X75136Y-48266D01*
X75175Y-48207D01*
X75189Y-48139D01*
X75189Y-48139D01*
X75189Y-46650D01*
X75175Y-46581D01*
X75136Y-46523D01*
X72330Y-43717D01*
X72272Y-43678D01*
X72203Y-43665D01*
X71630Y-43665D01*
X71630Y-43267D01*
X71630Y-43230D01*
X71570Y-43170D01*
X71310Y-43170D01*
X71310Y-43495D01*
X71370Y-43555D01*
X71437Y-43555D01*
X71525Y-43518D01*
X71593Y-43451D01*
X71629Y-43362D01*
X71630Y-43267D01*
X71630Y-43665D01*
X71190Y-43665D01*
X71190Y-43495D01*
X71190Y-43170D01*
X71070Y-43170D01*
X70930Y-43170D01*
X70810Y-43170D01*
X70810Y-43495D01*
X70870Y-43555D01*
X70937Y-43555D01*
X71000Y-43529D01*
X71062Y-43555D01*
X71130Y-43555D01*
X71190Y-43495D01*
X71190Y-43665D01*
X70690Y-43665D01*
X70690Y-43495D01*
X70690Y-43170D01*
X70570Y-43170D01*
X70430Y-43170D01*
X70310Y-43170D01*
X70310Y-43495D01*
X70370Y-43555D01*
X70437Y-43555D01*
X70500Y-43529D01*
X70562Y-43555D01*
X70630Y-43555D01*
X70690Y-43495D01*
X70690Y-43665D01*
X70190Y-43665D01*
X70190Y-43495D01*
X70190Y-43170D01*
X70070Y-43170D01*
X69930Y-43170D01*
X69810Y-43170D01*
X69810Y-43495D01*
X69870Y-43555D01*
X69937Y-43555D01*
X70000Y-43529D01*
X70062Y-43555D01*
X70130Y-43555D01*
X70190Y-43495D01*
X70190Y-43665D01*
X69949Y-43665D01*
X69880Y-43678D01*
X69822Y-43717D01*
X69690Y-43850D01*
X69690Y-43495D01*
X69690Y-43170D01*
X69430Y-43170D01*
X69370Y-43230D01*
X69369Y-43267D01*
X69370Y-43362D01*
X69406Y-43451D01*
X69474Y-43518D01*
X69562Y-43555D01*
X69630Y-43555D01*
X69690Y-43495D01*
X69690Y-43850D01*
X69622Y-43917D01*
X69583Y-43975D01*
X69570Y-44044D01*
X69570Y-44071D01*
X69542Y-44083D01*
X69508Y-44116D01*
X69490Y-44161D01*
X69489Y-44208D01*
X69489Y-44618D01*
X69489Y-44618D01*
X68262Y-43391D01*
X68178Y-43335D01*
X68078Y-43315D01*
X66935Y-43315D01*
X66928Y-43308D01*
X66812Y-43260D01*
X66687Y-43260D01*
X66571Y-43308D01*
X66564Y-43315D01*
X61629Y-43315D01*
X61630Y-43267D01*
X61630Y-42952D01*
X61629Y-42857D01*
X61593Y-42768D01*
X61525Y-42701D01*
X61437Y-42664D01*
X61370Y-42665D01*
X61310Y-42725D01*
X61310Y-43050D01*
X61570Y-43050D01*
X61630Y-42990D01*
X61630Y-42952D01*
X61630Y-43267D01*
X61630Y-43230D01*
X61570Y-43170D01*
X61310Y-43170D01*
X61310Y-43177D01*
X61190Y-43177D01*
X61190Y-43170D01*
X61190Y-43050D01*
X61190Y-42725D01*
X61130Y-42665D01*
X61062Y-42664D01*
X61000Y-42690D01*
X60937Y-42664D01*
X60870Y-42665D01*
X60810Y-42725D01*
X60810Y-43050D01*
X60930Y-43050D01*
X61070Y-43050D01*
X61190Y-43050D01*
X61190Y-43170D01*
X61070Y-43170D01*
X60930Y-43170D01*
X60810Y-43170D01*
X60810Y-43177D01*
X60690Y-43177D01*
X60690Y-43170D01*
X60690Y-43050D01*
X60690Y-42725D01*
X60630Y-42665D01*
X60562Y-42664D01*
X60500Y-42690D01*
X60437Y-42664D01*
X60370Y-42665D01*
X60310Y-42725D01*
X60310Y-43050D01*
X60430Y-43050D01*
X60570Y-43050D01*
X60690Y-43050D01*
X60690Y-43170D01*
X60570Y-43170D01*
X60430Y-43170D01*
X60310Y-43170D01*
X60310Y-43177D01*
X60190Y-43177D01*
X60190Y-43170D01*
X60190Y-43050D01*
X60190Y-42725D01*
X60130Y-42665D01*
X60062Y-42664D01*
X60000Y-42690D01*
X59937Y-42664D01*
X59870Y-42665D01*
X59810Y-42725D01*
X59810Y-43050D01*
X59930Y-43050D01*
X60070Y-43050D01*
X60190Y-43050D01*
X60190Y-43170D01*
X60070Y-43170D01*
X59930Y-43170D01*
X59810Y-43170D01*
X59810Y-43177D01*
X59690Y-43177D01*
X59690Y-43170D01*
X59690Y-43050D01*
X59690Y-42725D01*
X59630Y-42665D01*
X59562Y-42664D01*
X59474Y-42701D01*
X59406Y-42768D01*
X59370Y-42857D01*
X59369Y-42952D01*
X59370Y-42990D01*
X59430Y-43050D01*
X59690Y-43050D01*
X59690Y-43170D01*
X59430Y-43170D01*
X59370Y-43230D01*
X59369Y-43267D01*
X59370Y-43315D01*
X55558Y-43315D01*
X54837Y-42594D01*
X54753Y-42538D01*
X54653Y-42518D01*
X50971Y-42518D01*
X50888Y-42535D01*
X50871Y-42538D01*
X50787Y-42594D01*
X49072Y-44310D01*
X48912Y-44309D01*
X48751Y-44376D01*
X48627Y-44500D01*
X48560Y-44662D01*
X48559Y-44837D01*
X48626Y-44998D01*
X48750Y-45122D01*
X48912Y-45189D01*
X49087Y-45190D01*
X49248Y-45123D01*
X49372Y-44999D01*
X49439Y-44837D01*
X49440Y-44677D01*
X49905Y-44211D01*
X49918Y-44394D01*
X49971Y-44523D01*
X50063Y-44551D01*
X50365Y-44250D01*
X50359Y-44244D01*
X50444Y-44159D01*
X50450Y-44165D01*
X50751Y-43863D01*
X50723Y-43771D01*
X50519Y-43703D01*
X50405Y-43711D01*
X51078Y-43038D01*
X52638Y-43038D01*
X52627Y-43050D01*
X52560Y-43212D01*
X52559Y-43387D01*
X52626Y-43548D01*
X52750Y-43672D01*
X52912Y-43739D01*
X53087Y-43740D01*
X53248Y-43673D01*
X53372Y-43549D01*
X53439Y-43387D01*
X53440Y-43212D01*
X53373Y-43051D01*
X53360Y-43038D01*
X54546Y-43038D01*
X55266Y-43759D01*
X55350Y-43815D01*
X55450Y-43835D01*
X57345Y-43835D01*
X56617Y-44563D01*
X53358Y-44563D01*
X53372Y-44549D01*
X53439Y-44387D01*
X53440Y-44212D01*
X53373Y-44051D01*
X53249Y-43927D01*
X53087Y-43860D01*
X52912Y-43859D01*
X52751Y-43926D01*
X52627Y-44050D01*
X52560Y-44212D01*
X52559Y-44387D01*
X52626Y-44548D01*
X52641Y-44563D01*
X51849Y-44563D01*
X51823Y-44501D01*
X51699Y-44377D01*
X51537Y-44310D01*
X51362Y-44309D01*
X51201Y-44376D01*
X51077Y-44500D01*
X51010Y-44662D01*
X51009Y-44837D01*
X51076Y-44998D01*
X51200Y-45122D01*
X51362Y-45189D01*
X51537Y-45190D01*
X51698Y-45123D01*
X51738Y-45083D01*
X56725Y-45083D01*
X56824Y-45063D01*
X56909Y-45007D01*
X57711Y-44205D01*
X59489Y-44205D01*
X59489Y-44208D01*
X59489Y-44210D01*
X59469Y-44210D01*
X59400Y-44223D01*
X59342Y-44262D01*
X58747Y-44857D01*
X58708Y-44916D01*
X58694Y-44985D01*
X58694Y-47130D01*
X58708Y-47199D01*
X58732Y-47235D01*
X57673Y-46176D01*
X57589Y-46119D01*
X57490Y-46100D01*
X51839Y-46100D01*
X51740Y-46119D01*
X51712Y-46138D01*
X51656Y-46176D01*
X51522Y-46310D01*
X51507Y-46310D01*
X51633Y-46183D01*
X51664Y-46137D01*
X51698Y-46123D01*
X51822Y-45999D01*
X51889Y-45837D01*
X51890Y-45662D01*
X51823Y-45501D01*
X51699Y-45377D01*
X51537Y-45310D01*
X51362Y-45309D01*
X51201Y-45376D01*
X51077Y-45500D01*
X51010Y-45662D01*
X51009Y-45837D01*
X51076Y-45998D01*
X51080Y-46002D01*
X50996Y-46086D01*
X50996Y-45319D01*
X50996Y-44319D01*
X50981Y-44105D01*
X50928Y-43976D01*
X50836Y-43948D01*
X50534Y-44250D01*
X50836Y-44551D01*
X50928Y-44523D01*
X50996Y-44319D01*
X50996Y-45319D01*
X50981Y-45105D01*
X50928Y-44976D01*
X50836Y-44948D01*
X50751Y-45032D01*
X50751Y-44863D01*
X50723Y-44771D01*
X50664Y-44752D01*
X50723Y-44728D01*
X50751Y-44636D01*
X50450Y-44334D01*
X50148Y-44636D01*
X50176Y-44728D01*
X50235Y-44747D01*
X50176Y-44771D01*
X50148Y-44863D01*
X50450Y-45165D01*
X50751Y-44863D01*
X50751Y-45032D01*
X50534Y-45250D01*
X50836Y-45551D01*
X50928Y-45523D01*
X50996Y-45319D01*
X50996Y-46086D01*
X50980Y-46102D01*
X50928Y-45976D01*
X50836Y-45948D01*
X50751Y-46032D01*
X50751Y-45863D01*
X50723Y-45771D01*
X50664Y-45752D01*
X50723Y-45728D01*
X50751Y-45636D01*
X50450Y-45334D01*
X50365Y-45419D01*
X50365Y-45250D01*
X50063Y-44948D01*
X49971Y-44976D01*
X49903Y-45180D01*
X49918Y-45394D01*
X49971Y-45523D01*
X50063Y-45551D01*
X50365Y-45250D01*
X50365Y-45419D01*
X50148Y-45636D01*
X50176Y-45728D01*
X50235Y-45747D01*
X50176Y-45771D01*
X50148Y-45863D01*
X50450Y-46165D01*
X50751Y-45863D01*
X50751Y-46032D01*
X50534Y-46250D01*
X50540Y-46255D01*
X50455Y-46340D01*
X50450Y-46334D01*
X50365Y-46419D01*
X50365Y-46250D01*
X50063Y-45948D01*
X49971Y-45976D01*
X49903Y-46180D01*
X49918Y-46394D01*
X49971Y-46523D01*
X50063Y-46551D01*
X50365Y-46250D01*
X50365Y-46419D01*
X50148Y-46636D01*
X50176Y-46728D01*
X50235Y-46747D01*
X50176Y-46771D01*
X50148Y-46863D01*
X50450Y-47165D01*
X50455Y-47159D01*
X50540Y-47244D01*
X50534Y-47250D01*
X50540Y-47255D01*
X50455Y-47340D01*
X50450Y-47334D01*
X50444Y-47340D01*
X50359Y-47255D01*
X50365Y-47250D01*
X50063Y-46948D01*
X49971Y-46976D01*
X49930Y-47099D01*
X49864Y-47033D01*
X49864Y-46354D01*
X49844Y-46255D01*
X49788Y-46170D01*
X49439Y-45822D01*
X49440Y-45662D01*
X49373Y-45501D01*
X49249Y-45377D01*
X49087Y-45310D01*
X48912Y-45309D01*
X48751Y-45376D01*
X48627Y-45500D01*
X48560Y-45662D01*
X48559Y-45837D01*
X48626Y-45998D01*
X48750Y-46122D01*
X48912Y-46189D01*
X49072Y-46190D01*
X49344Y-46462D01*
X49344Y-46472D01*
X49249Y-46377D01*
X49087Y-46310D01*
X48912Y-46309D01*
X48751Y-46376D01*
X48627Y-46500D01*
X48560Y-46662D01*
X48559Y-46837D01*
X48626Y-46998D01*
X48750Y-47122D01*
X48912Y-47189D01*
X49087Y-47190D01*
X49248Y-47123D01*
X49344Y-47027D01*
X49344Y-47141D01*
X49364Y-47241D01*
X49420Y-47325D01*
X51312Y-49217D01*
X50834Y-49217D01*
X49439Y-47822D01*
X49440Y-47662D01*
X49373Y-47501D01*
X49249Y-47377D01*
X49087Y-47310D01*
X48912Y-47309D01*
X48751Y-47376D01*
X48627Y-47500D01*
X48560Y-47662D01*
X48559Y-47837D01*
X48626Y-47998D01*
X48750Y-48122D01*
X48912Y-48189D01*
X49072Y-48190D01*
X50467Y-49584D01*
X50318Y-49584D01*
X49982Y-49723D01*
X49724Y-49981D01*
X49585Y-50317D01*
X49584Y-50681D01*
X49723Y-51017D01*
X49981Y-51275D01*
X50124Y-51335D01*
X48546Y-51335D01*
X48546Y-47319D01*
X48546Y-46319D01*
X48546Y-45319D01*
X48546Y-44319D01*
X48531Y-44105D01*
X48478Y-43976D01*
X48386Y-43948D01*
X48301Y-44032D01*
X48301Y-43863D01*
X48273Y-43771D01*
X48069Y-43703D01*
X47855Y-43718D01*
X47726Y-43771D01*
X47698Y-43863D01*
X48000Y-44165D01*
X48301Y-43863D01*
X48301Y-44032D01*
X48084Y-44250D01*
X48386Y-44551D01*
X48478Y-44523D01*
X48546Y-44319D01*
X48546Y-45319D01*
X48531Y-45105D01*
X48478Y-44976D01*
X48386Y-44948D01*
X48301Y-45032D01*
X48301Y-44863D01*
X48273Y-44771D01*
X48214Y-44752D01*
X48273Y-44728D01*
X48301Y-44636D01*
X48000Y-44334D01*
X47915Y-44419D01*
X47915Y-44250D01*
X47613Y-43948D01*
X47521Y-43976D01*
X47453Y-44180D01*
X47468Y-44394D01*
X47521Y-44523D01*
X47613Y-44551D01*
X47915Y-44250D01*
X47915Y-44419D01*
X47698Y-44636D01*
X47726Y-44728D01*
X47785Y-44747D01*
X47726Y-44771D01*
X47698Y-44863D01*
X48000Y-45165D01*
X48301Y-44863D01*
X48301Y-45032D01*
X48084Y-45250D01*
X48386Y-45551D01*
X48478Y-45523D01*
X48546Y-45319D01*
X48546Y-46319D01*
X48531Y-46105D01*
X48478Y-45976D01*
X48386Y-45948D01*
X48301Y-46032D01*
X48301Y-45863D01*
X48273Y-45771D01*
X48214Y-45752D01*
X48273Y-45728D01*
X48301Y-45636D01*
X48000Y-45334D01*
X47915Y-45419D01*
X47915Y-45250D01*
X47613Y-44948D01*
X47521Y-44976D01*
X47453Y-45180D01*
X47468Y-45394D01*
X47521Y-45523D01*
X47613Y-45551D01*
X47915Y-45250D01*
X47915Y-45419D01*
X47698Y-45636D01*
X47726Y-45728D01*
X47785Y-45747D01*
X47726Y-45771D01*
X47698Y-45863D01*
X48000Y-46165D01*
X48301Y-45863D01*
X48301Y-46032D01*
X48084Y-46250D01*
X48386Y-46551D01*
X48478Y-46523D01*
X48546Y-46319D01*
X48546Y-47319D01*
X48531Y-47105D01*
X48478Y-46976D01*
X48386Y-46948D01*
X48301Y-47032D01*
X48301Y-46863D01*
X48273Y-46771D01*
X48214Y-46752D01*
X48273Y-46728D01*
X48301Y-46636D01*
X48000Y-46334D01*
X47915Y-46419D01*
X47915Y-46250D01*
X47613Y-45948D01*
X47521Y-45976D01*
X47453Y-46180D01*
X47468Y-46394D01*
X47521Y-46523D01*
X47613Y-46551D01*
X47915Y-46250D01*
X47915Y-46419D01*
X47698Y-46636D01*
X47726Y-46728D01*
X47785Y-46747D01*
X47726Y-46771D01*
X47698Y-46863D01*
X48000Y-47165D01*
X48301Y-46863D01*
X48301Y-47032D01*
X48084Y-47250D01*
X48386Y-47551D01*
X48478Y-47523D01*
X48546Y-47319D01*
X48546Y-51335D01*
X48301Y-51335D01*
X48301Y-47636D01*
X48000Y-47334D01*
X47915Y-47419D01*
X47915Y-47250D01*
X47613Y-46948D01*
X47521Y-46976D01*
X47453Y-47180D01*
X47468Y-47394D01*
X47521Y-47523D01*
X47613Y-47551D01*
X47915Y-47250D01*
X47915Y-47419D01*
X47698Y-47636D01*
X47726Y-47728D01*
X47930Y-47796D01*
X48144Y-47781D01*
X48273Y-47728D01*
X48301Y-47636D01*
X48301Y-51335D01*
X46840Y-51335D01*
X46840Y-48612D01*
X46840Y-47612D01*
X46840Y-44212D01*
X46840Y-43212D01*
X46840Y-38612D01*
X46840Y-37612D01*
X46840Y-34212D01*
X46840Y-33212D01*
X46773Y-33051D01*
X46649Y-32927D01*
X46487Y-32860D01*
X46312Y-32859D01*
X46151Y-32926D01*
X46027Y-33050D01*
X45960Y-33212D01*
X45959Y-33387D01*
X46026Y-33548D01*
X46150Y-33672D01*
X46312Y-33739D01*
X46487Y-33740D01*
X46648Y-33673D01*
X46772Y-33549D01*
X46839Y-33387D01*
X46840Y-33212D01*
X46840Y-34212D01*
X46773Y-34051D01*
X46649Y-33927D01*
X46487Y-33860D01*
X46312Y-33859D01*
X46151Y-33926D01*
X46027Y-34050D01*
X45960Y-34212D01*
X45959Y-34387D01*
X46026Y-34548D01*
X46150Y-34672D01*
X46312Y-34739D01*
X46487Y-34740D01*
X46648Y-34673D01*
X46772Y-34549D01*
X46839Y-34387D01*
X46840Y-34212D01*
X46840Y-37612D01*
X46773Y-37451D01*
X46649Y-37327D01*
X46487Y-37260D01*
X46312Y-37259D01*
X46151Y-37326D01*
X46027Y-37450D01*
X45960Y-37612D01*
X45959Y-37787D01*
X46026Y-37948D01*
X46150Y-38072D01*
X46312Y-38139D01*
X46487Y-38140D01*
X46648Y-38073D01*
X46772Y-37949D01*
X46839Y-37787D01*
X46840Y-37612D01*
X46840Y-38612D01*
X46773Y-38451D01*
X46649Y-38327D01*
X46487Y-38260D01*
X46312Y-38259D01*
X46151Y-38326D01*
X46027Y-38450D01*
X45960Y-38612D01*
X45959Y-38787D01*
X46026Y-38948D01*
X46150Y-39072D01*
X46312Y-39139D01*
X46487Y-39140D01*
X46648Y-39073D01*
X46772Y-38949D01*
X46839Y-38787D01*
X46840Y-38612D01*
X46840Y-43212D01*
X46773Y-43051D01*
X46649Y-42927D01*
X46487Y-42860D01*
X46312Y-42859D01*
X46151Y-42926D01*
X46027Y-43050D01*
X45960Y-43212D01*
X45959Y-43387D01*
X46026Y-43548D01*
X46150Y-43672D01*
X46312Y-43739D01*
X46487Y-43740D01*
X46648Y-43673D01*
X46772Y-43549D01*
X46839Y-43387D01*
X46840Y-43212D01*
X46840Y-44212D01*
X46773Y-44051D01*
X46649Y-43927D01*
X46487Y-43860D01*
X46312Y-43859D01*
X46151Y-43926D01*
X46027Y-44050D01*
X45960Y-44212D01*
X45959Y-44387D01*
X46026Y-44548D01*
X46150Y-44672D01*
X46312Y-44739D01*
X46487Y-44740D01*
X46648Y-44673D01*
X46772Y-44549D01*
X46839Y-44387D01*
X46840Y-44212D01*
X46840Y-47612D01*
X46773Y-47451D01*
X46649Y-47327D01*
X46487Y-47260D01*
X46312Y-47259D01*
X46151Y-47326D01*
X46027Y-47450D01*
X45960Y-47612D01*
X45959Y-47787D01*
X46026Y-47948D01*
X46150Y-48072D01*
X46312Y-48139D01*
X46487Y-48140D01*
X46648Y-48073D01*
X46772Y-47949D01*
X46839Y-47787D01*
X46840Y-47612D01*
X46840Y-48612D01*
X46773Y-48451D01*
X46649Y-48327D01*
X46487Y-48260D01*
X46312Y-48259D01*
X46151Y-48326D01*
X46027Y-48450D01*
X45960Y-48612D01*
X45959Y-48787D01*
X46026Y-48948D01*
X46150Y-49072D01*
X46312Y-49139D01*
X46487Y-49140D01*
X46648Y-49073D01*
X46772Y-48949D01*
X46839Y-48787D01*
X46840Y-48612D01*
X46840Y-51335D01*
X45640Y-51335D01*
X45640Y-48323D01*
X45640Y-43323D01*
X45640Y-38323D01*
X45640Y-33323D01*
X45504Y-32996D01*
X45254Y-32745D01*
X44927Y-32610D01*
X44573Y-32609D01*
X44246Y-32745D01*
X43995Y-32995D01*
X43860Y-33322D01*
X43859Y-33676D01*
X43995Y-34003D01*
X44245Y-34254D01*
X44572Y-34389D01*
X44926Y-34390D01*
X45253Y-34254D01*
X45504Y-34004D01*
X45639Y-33677D01*
X45640Y-33323D01*
X45640Y-38323D01*
X45504Y-37996D01*
X45254Y-37745D01*
X44927Y-37610D01*
X44573Y-37609D01*
X44246Y-37745D01*
X43995Y-37995D01*
X43860Y-38322D01*
X43859Y-38676D01*
X43995Y-39003D01*
X44245Y-39254D01*
X44572Y-39389D01*
X44926Y-39390D01*
X45253Y-39254D01*
X45504Y-39004D01*
X45639Y-38677D01*
X45640Y-38323D01*
X45640Y-43323D01*
X45504Y-42996D01*
X45254Y-42745D01*
X44927Y-42610D01*
X44573Y-42609D01*
X44246Y-42745D01*
X43995Y-42995D01*
X43860Y-43322D01*
X43859Y-43676D01*
X43995Y-44003D01*
X44245Y-44254D01*
X44572Y-44389D01*
X44926Y-44390D01*
X45253Y-44254D01*
X45504Y-44004D01*
X45639Y-43677D01*
X45640Y-43323D01*
X45640Y-48323D01*
X45504Y-47996D01*
X45254Y-47745D01*
X44927Y-47610D01*
X44573Y-47609D01*
X44246Y-47745D01*
X43995Y-47995D01*
X43860Y-48322D01*
X43859Y-48676D01*
X43995Y-49003D01*
X44245Y-49254D01*
X44572Y-49389D01*
X44926Y-49390D01*
X45253Y-49254D01*
X45504Y-49004D01*
X45639Y-48677D01*
X45640Y-48323D01*
X45640Y-51335D01*
X43665Y-51335D01*
X43665Y-30665D01*
X50624Y-30665D01*
X50482Y-30723D01*
X50224Y-30981D01*
X50085Y-31317D01*
X50084Y-31681D01*
X50223Y-32017D01*
X50481Y-32275D01*
X50817Y-32414D01*
X51181Y-32415D01*
X51517Y-32276D01*
X51775Y-32018D01*
X51914Y-31682D01*
X51915Y-31318D01*
X51776Y-30982D01*
X51518Y-30724D01*
X51375Y-30665D01*
X80124Y-30665D01*
X79982Y-30723D01*
X79724Y-30981D01*
X79585Y-31317D01*
X79584Y-31681D01*
X79723Y-32017D01*
X79981Y-32275D01*
X80317Y-32414D01*
X80681Y-32415D01*
X81017Y-32276D01*
X81275Y-32018D01*
X81414Y-31682D01*
X81415Y-31318D01*
X81276Y-30982D01*
X81018Y-30724D01*
X80875Y-30665D01*
X89335Y-30665D01*
X89335Y-51335D01*
X89335Y-51335D01*
G37*
G54D24*
X89335Y-51335D02*
X88840Y-51335D01*
X88840Y-40897D01*
X88761Y-40705D01*
X88614Y-40559D01*
X88423Y-40480D01*
X88217Y-40479D01*
X88025Y-40558D01*
X87913Y-40671D01*
X87852Y-40524D01*
X87616Y-40288D01*
X87307Y-40160D01*
X86973Y-40159D01*
X86859Y-40207D01*
X86859Y-39747D01*
X87053Y-39941D01*
X87362Y-40069D01*
X87696Y-40070D01*
X88005Y-39942D01*
X88241Y-39706D01*
X88369Y-39397D01*
X88370Y-39063D01*
X88242Y-38754D01*
X88006Y-38518D01*
X87697Y-38390D01*
X87363Y-38389D01*
X87054Y-38517D01*
X86859Y-38712D01*
X86859Y-37281D01*
X87820Y-36320D01*
X87820Y-36320D01*
X87868Y-36249D01*
X87884Y-36165D01*
X87885Y-36165D01*
X87885Y-36125D01*
X87927Y-36125D01*
X87979Y-36103D01*
X88018Y-36064D01*
X88039Y-36012D01*
X88040Y-35957D01*
X88040Y-35487D01*
X88018Y-35435D01*
X87979Y-35396D01*
X87927Y-35375D01*
X87872Y-35374D01*
X87601Y-35374D01*
X87070Y-34844D01*
X86999Y-34796D01*
X86915Y-34780D01*
X83342Y-34780D01*
X83372Y-34749D01*
X83439Y-34587D01*
X83440Y-34412D01*
X83440Y-33412D01*
X83440Y-32412D01*
X83440Y-31412D01*
X83373Y-31251D01*
X83249Y-31127D01*
X83087Y-31060D01*
X82912Y-31059D01*
X82751Y-31126D01*
X82627Y-31250D01*
X82560Y-31412D01*
X82559Y-31587D01*
X82626Y-31748D01*
X82750Y-31872D01*
X82912Y-31939D01*
X83087Y-31940D01*
X83248Y-31873D01*
X83372Y-31749D01*
X83439Y-31587D01*
X83440Y-31412D01*
X83440Y-32412D01*
X83373Y-32251D01*
X83249Y-32127D01*
X83087Y-32060D01*
X82912Y-32059D01*
X82751Y-32126D01*
X82627Y-32250D01*
X82560Y-32412D01*
X82559Y-32587D01*
X82626Y-32748D01*
X82750Y-32872D01*
X82912Y-32939D01*
X83087Y-32940D01*
X83248Y-32873D01*
X83372Y-32749D01*
X83439Y-32587D01*
X83440Y-32412D01*
X83440Y-33412D01*
X83373Y-33251D01*
X83249Y-33127D01*
X83087Y-33060D01*
X82912Y-33059D01*
X82751Y-33126D01*
X82627Y-33250D01*
X82560Y-33412D01*
X82559Y-33587D01*
X82626Y-33748D01*
X82750Y-33872D01*
X82912Y-33939D01*
X83087Y-33940D01*
X83248Y-33873D01*
X83372Y-33749D01*
X83439Y-33587D01*
X83440Y-33412D01*
X83440Y-34412D01*
X83373Y-34251D01*
X83249Y-34127D01*
X83087Y-34060D01*
X82912Y-34059D01*
X82751Y-34126D01*
X82627Y-34250D01*
X82560Y-34412D01*
X82559Y-34587D01*
X82626Y-34748D01*
X82696Y-34818D01*
X82696Y-34818D01*
X82658Y-34844D01*
X82440Y-35062D01*
X82440Y-34412D01*
X82440Y-33412D01*
X82440Y-32412D01*
X82440Y-31412D01*
X82373Y-31251D01*
X82249Y-31127D01*
X82087Y-31060D01*
X81912Y-31059D01*
X81751Y-31126D01*
X81627Y-31250D01*
X81560Y-31412D01*
X81559Y-31587D01*
X81626Y-31748D01*
X81750Y-31872D01*
X81912Y-31939D01*
X82087Y-31940D01*
X82248Y-31873D01*
X82372Y-31749D01*
X82439Y-31587D01*
X82440Y-31412D01*
X82440Y-32412D01*
X82373Y-32251D01*
X82249Y-32127D01*
X82087Y-32060D01*
X81912Y-32059D01*
X81751Y-32126D01*
X81627Y-32250D01*
X81560Y-32412D01*
X81559Y-32587D01*
X81626Y-32748D01*
X81750Y-32872D01*
X81912Y-32939D01*
X82087Y-32940D01*
X82248Y-32873D01*
X82372Y-32749D01*
X82439Y-32587D01*
X82440Y-32412D01*
X82440Y-33412D01*
X82373Y-33251D01*
X82249Y-33127D01*
X82087Y-33060D01*
X81912Y-33059D01*
X81751Y-33126D01*
X81627Y-33250D01*
X81560Y-33412D01*
X81559Y-33587D01*
X81626Y-33748D01*
X81750Y-33872D01*
X81912Y-33939D01*
X82087Y-33940D01*
X82248Y-33873D01*
X82372Y-33749D01*
X82439Y-33587D01*
X82440Y-33412D01*
X82440Y-34412D01*
X82373Y-34251D01*
X82249Y-34127D01*
X82087Y-34060D01*
X81912Y-34059D01*
X81751Y-34126D01*
X81627Y-34250D01*
X81560Y-34412D01*
X81559Y-34587D01*
X81626Y-34748D01*
X81750Y-34872D01*
X81912Y-34939D01*
X82087Y-34940D01*
X82248Y-34873D01*
X82372Y-34749D01*
X82439Y-34587D01*
X82440Y-34412D01*
X82440Y-35062D01*
X82364Y-35138D01*
X82322Y-35200D01*
X82322Y-35200D01*
X82249Y-35127D01*
X82087Y-35060D01*
X81912Y-35059D01*
X81751Y-35126D01*
X81627Y-35250D01*
X81560Y-35412D01*
X81559Y-35587D01*
X81626Y-35748D01*
X81637Y-35760D01*
X79440Y-35760D01*
X79440Y-31712D01*
X79440Y-31287D01*
X79406Y-31119D01*
X79311Y-30976D01*
X79168Y-30880D01*
X79000Y-30847D01*
X78831Y-30880D01*
X78688Y-30976D01*
X78593Y-31119D01*
X78560Y-31287D01*
X78560Y-31712D01*
X78593Y-31880D01*
X78688Y-32023D01*
X78831Y-32119D01*
X79000Y-32152D01*
X79168Y-32119D01*
X79311Y-32023D01*
X79406Y-31880D01*
X79440Y-31712D01*
X79440Y-35760D01*
X79076Y-35760D01*
X78991Y-35776D01*
X78920Y-35824D01*
X78440Y-36305D01*
X78440Y-31712D01*
X78440Y-31287D01*
X78406Y-31119D01*
X78311Y-30976D01*
X78168Y-30880D01*
X78000Y-30847D01*
X77831Y-30880D01*
X77688Y-30976D01*
X77593Y-31119D01*
X77560Y-31287D01*
X77560Y-31712D01*
X77593Y-31880D01*
X77688Y-32023D01*
X77831Y-32119D01*
X78000Y-32152D01*
X78168Y-32119D01*
X78311Y-32023D01*
X78406Y-31880D01*
X78440Y-31712D01*
X78440Y-36305D01*
X77440Y-37305D01*
X77440Y-31712D01*
X77440Y-31287D01*
X77406Y-31119D01*
X77311Y-30976D01*
X77168Y-30880D01*
X77000Y-30847D01*
X76831Y-30880D01*
X76688Y-30976D01*
X76593Y-31119D01*
X76560Y-31287D01*
X76560Y-31712D01*
X76593Y-31880D01*
X76688Y-32023D01*
X76831Y-32119D01*
X77000Y-32152D01*
X77168Y-32119D01*
X77311Y-32023D01*
X77406Y-31880D01*
X77440Y-31712D01*
X77440Y-37305D01*
X76440Y-38305D01*
X76440Y-31712D01*
X76440Y-31287D01*
X76406Y-31119D01*
X76311Y-30976D01*
X76168Y-30880D01*
X76000Y-30847D01*
X75831Y-30880D01*
X75688Y-30976D01*
X75593Y-31119D01*
X75560Y-31287D01*
X75560Y-31712D01*
X75593Y-31880D01*
X75688Y-32023D01*
X75831Y-32119D01*
X76000Y-32152D01*
X76168Y-32119D01*
X76311Y-32023D01*
X76406Y-31880D01*
X76440Y-31712D01*
X76440Y-38305D01*
X75440Y-39305D01*
X75440Y-31712D01*
X75440Y-31287D01*
X75406Y-31119D01*
X75311Y-30976D01*
X75168Y-30880D01*
X75000Y-30847D01*
X74831Y-30880D01*
X74688Y-30976D01*
X74593Y-31119D01*
X74560Y-31287D01*
X74560Y-31712D01*
X74593Y-31880D01*
X74688Y-32023D01*
X74831Y-32119D01*
X75000Y-32152D01*
X75168Y-32119D01*
X75311Y-32023D01*
X75406Y-31880D01*
X75440Y-31712D01*
X75440Y-39305D01*
X75372Y-39372D01*
X74979Y-39765D01*
X74979Y-38445D01*
X74979Y-37155D01*
X74979Y-37155D01*
X74960Y-37055D01*
X74960Y-37055D01*
X74941Y-37027D01*
X74903Y-36971D01*
X74903Y-36971D01*
X74440Y-36507D01*
X74440Y-31712D01*
X74440Y-31287D01*
X74406Y-31119D01*
X74311Y-30976D01*
X74168Y-30880D01*
X74000Y-30847D01*
X73831Y-30880D01*
X73688Y-30976D01*
X73593Y-31119D01*
X73560Y-31287D01*
X73560Y-31712D01*
X73593Y-31880D01*
X73688Y-32023D01*
X73831Y-32119D01*
X74000Y-32152D01*
X74168Y-32119D01*
X74311Y-32023D01*
X74406Y-31880D01*
X74440Y-31712D01*
X74440Y-36507D01*
X73440Y-35507D01*
X73440Y-31712D01*
X73440Y-31287D01*
X73406Y-31119D01*
X73311Y-30976D01*
X73168Y-30880D01*
X73000Y-30847D01*
X72831Y-30880D01*
X72688Y-30976D01*
X72593Y-31119D01*
X72560Y-31287D01*
X72560Y-31712D01*
X72593Y-31880D01*
X72688Y-32023D01*
X72831Y-32119D01*
X73000Y-32152D01*
X73168Y-32119D01*
X73311Y-32023D01*
X73406Y-31880D01*
X73440Y-31712D01*
X73440Y-35507D01*
X72440Y-34507D01*
X72440Y-31712D01*
X72440Y-31287D01*
X72406Y-31119D01*
X72311Y-30976D01*
X72168Y-30880D01*
X72000Y-30847D01*
X71831Y-30880D01*
X71688Y-30976D01*
X71593Y-31119D01*
X71560Y-31287D01*
X71560Y-31712D01*
X71593Y-31880D01*
X71688Y-32023D01*
X71831Y-32119D01*
X72000Y-32152D01*
X72168Y-32119D01*
X72311Y-32023D01*
X72406Y-31880D01*
X72440Y-31712D01*
X72440Y-34507D01*
X70811Y-32879D01*
X70726Y-32822D01*
X70627Y-32802D01*
X70440Y-32802D01*
X70440Y-31712D01*
X70440Y-31287D01*
X70406Y-31119D01*
X70311Y-30976D01*
X70168Y-30880D01*
X70000Y-30847D01*
X69831Y-30880D01*
X69688Y-30976D01*
X69593Y-31119D01*
X69560Y-31287D01*
X69560Y-31712D01*
X69593Y-31880D01*
X69688Y-32023D01*
X69831Y-32119D01*
X70000Y-32152D01*
X70168Y-32119D01*
X70311Y-32023D01*
X70406Y-31880D01*
X70440Y-31712D01*
X70440Y-32802D01*
X69440Y-32802D01*
X69440Y-31712D01*
X69440Y-31287D01*
X69406Y-31119D01*
X69311Y-30976D01*
X69168Y-30880D01*
X69000Y-30847D01*
X68831Y-30880D01*
X68688Y-30976D01*
X68593Y-31119D01*
X68560Y-31287D01*
X68560Y-31712D01*
X68593Y-31880D01*
X68688Y-32023D01*
X68831Y-32119D01*
X69000Y-32152D01*
X69168Y-32119D01*
X69311Y-32023D01*
X69406Y-31880D01*
X69440Y-31712D01*
X69440Y-32802D01*
X68440Y-32802D01*
X68440Y-31712D01*
X68440Y-31287D01*
X68406Y-31119D01*
X68311Y-30976D01*
X68168Y-30880D01*
X68000Y-30847D01*
X67831Y-30880D01*
X67688Y-30976D01*
X67593Y-31119D01*
X67560Y-31287D01*
X67560Y-31712D01*
X67593Y-31880D01*
X67688Y-32023D01*
X67831Y-32119D01*
X68000Y-32152D01*
X68168Y-32119D01*
X68311Y-32023D01*
X68406Y-31880D01*
X68440Y-31712D01*
X68440Y-32802D01*
X67440Y-32802D01*
X67440Y-31712D01*
X67440Y-31287D01*
X67406Y-31119D01*
X67311Y-30976D01*
X67168Y-30880D01*
X67000Y-30847D01*
X66831Y-30880D01*
X66688Y-30976D01*
X66593Y-31119D01*
X66560Y-31287D01*
X66560Y-31712D01*
X66593Y-31880D01*
X66688Y-32023D01*
X66831Y-32119D01*
X67000Y-32152D01*
X67168Y-32119D01*
X67311Y-32023D01*
X67406Y-31880D01*
X67440Y-31712D01*
X67440Y-32802D01*
X66975Y-32802D01*
X66876Y-32822D01*
X66792Y-32879D01*
X66750Y-32921D01*
X66440Y-32611D01*
X66440Y-31712D01*
X66440Y-31287D01*
X66406Y-31119D01*
X66311Y-30976D01*
X66168Y-30880D01*
X66000Y-30847D01*
X65831Y-30880D01*
X65688Y-30976D01*
X65593Y-31119D01*
X65560Y-31287D01*
X65560Y-31712D01*
X65593Y-31880D01*
X65688Y-32023D01*
X65831Y-32119D01*
X66000Y-32152D01*
X66168Y-32119D01*
X66311Y-32023D01*
X66406Y-31880D01*
X66440Y-31712D01*
X66440Y-32611D01*
X66410Y-32582D01*
X66326Y-32525D01*
X66227Y-32505D01*
X65440Y-32505D01*
X65440Y-31712D01*
X65440Y-31287D01*
X65406Y-31119D01*
X65311Y-30976D01*
X65168Y-30880D01*
X65000Y-30847D01*
X64831Y-30880D01*
X64688Y-30976D01*
X64593Y-31119D01*
X64560Y-31287D01*
X64560Y-31712D01*
X64593Y-31880D01*
X64688Y-32023D01*
X64831Y-32119D01*
X65000Y-32152D01*
X65168Y-32119D01*
X65311Y-32023D01*
X65406Y-31880D01*
X65440Y-31712D01*
X65440Y-32505D01*
X64440Y-32505D01*
X64440Y-31712D01*
X64440Y-31287D01*
X64406Y-31119D01*
X64311Y-30976D01*
X64168Y-30880D01*
X64000Y-30847D01*
X63831Y-30880D01*
X63688Y-30976D01*
X63593Y-31119D01*
X63560Y-31287D01*
X63560Y-31712D01*
X63593Y-31880D01*
X63688Y-32023D01*
X63831Y-32119D01*
X64000Y-32152D01*
X64168Y-32119D01*
X64311Y-32023D01*
X64406Y-31880D01*
X64440Y-31712D01*
X64440Y-32505D01*
X63440Y-32505D01*
X63440Y-31712D01*
X63440Y-31287D01*
X63406Y-31119D01*
X63311Y-30976D01*
X63168Y-30880D01*
X63000Y-30847D01*
X62831Y-30880D01*
X62688Y-30976D01*
X62593Y-31119D01*
X62560Y-31287D01*
X62560Y-31712D01*
X62593Y-31880D01*
X62688Y-32023D01*
X62831Y-32119D01*
X63000Y-32152D01*
X63168Y-32119D01*
X63311Y-32023D01*
X63406Y-31880D01*
X63440Y-31712D01*
X63440Y-32505D01*
X61840Y-32505D01*
X61840Y-31712D01*
X61840Y-31287D01*
X61806Y-31119D01*
X61711Y-30976D01*
X61568Y-30880D01*
X61400Y-30847D01*
X61231Y-30880D01*
X61088Y-30976D01*
X60993Y-31119D01*
X60960Y-31287D01*
X60960Y-31712D01*
X60993Y-31880D01*
X61088Y-32023D01*
X61231Y-32119D01*
X61400Y-32152D01*
X61568Y-32119D01*
X61711Y-32023D01*
X61806Y-31880D01*
X61840Y-31712D01*
X61840Y-32505D01*
X60840Y-32505D01*
X60840Y-31712D01*
X60840Y-31287D01*
X60806Y-31119D01*
X60711Y-30976D01*
X60568Y-30880D01*
X60400Y-30847D01*
X60231Y-30880D01*
X60088Y-30976D01*
X59993Y-31119D01*
X59960Y-31287D01*
X59960Y-31712D01*
X59993Y-31880D01*
X60088Y-32023D01*
X60231Y-32119D01*
X60400Y-32152D01*
X60568Y-32119D01*
X60711Y-32023D01*
X60806Y-31880D01*
X60840Y-31712D01*
X60840Y-32505D01*
X59840Y-32505D01*
X59840Y-31712D01*
X59840Y-31287D01*
X59806Y-31119D01*
X59711Y-30976D01*
X59568Y-30880D01*
X59400Y-30847D01*
X59231Y-30880D01*
X59088Y-30976D01*
X58993Y-31119D01*
X58960Y-31287D01*
X58960Y-31712D01*
X58993Y-31880D01*
X59088Y-32023D01*
X59231Y-32119D01*
X59400Y-32152D01*
X59568Y-32119D01*
X59711Y-32023D01*
X59806Y-31880D01*
X59840Y-31712D01*
X59840Y-32505D01*
X58840Y-32505D01*
X58840Y-31712D01*
X58840Y-31287D01*
X58806Y-31119D01*
X58711Y-30976D01*
X58568Y-30880D01*
X58400Y-30847D01*
X58231Y-30880D01*
X58088Y-30976D01*
X57993Y-31119D01*
X57960Y-31287D01*
X57960Y-31712D01*
X57993Y-31880D01*
X58088Y-32023D01*
X58231Y-32119D01*
X58400Y-32152D01*
X58568Y-32119D01*
X58711Y-32023D01*
X58806Y-31880D01*
X58840Y-31712D01*
X58840Y-32505D01*
X57840Y-32505D01*
X57840Y-31712D01*
X57840Y-31287D01*
X57806Y-31119D01*
X57711Y-30976D01*
X57568Y-30880D01*
X57400Y-30847D01*
X57231Y-30880D01*
X57088Y-30976D01*
X56993Y-31119D01*
X56960Y-31287D01*
X56960Y-31712D01*
X56993Y-31880D01*
X57088Y-32023D01*
X57231Y-32119D01*
X57400Y-32152D01*
X57568Y-32119D01*
X57711Y-32023D01*
X57806Y-31880D01*
X57840Y-31712D01*
X57840Y-32505D01*
X56840Y-32505D01*
X56840Y-31712D01*
X56840Y-31287D01*
X56806Y-31119D01*
X56711Y-30976D01*
X56568Y-30880D01*
X56400Y-30847D01*
X56231Y-30880D01*
X56088Y-30976D01*
X55993Y-31119D01*
X55960Y-31287D01*
X55960Y-31712D01*
X55993Y-31880D01*
X56088Y-32023D01*
X56231Y-32119D01*
X56400Y-32152D01*
X56568Y-32119D01*
X56711Y-32023D01*
X56806Y-31880D01*
X56840Y-31712D01*
X56840Y-32505D01*
X55840Y-32505D01*
X55840Y-31712D01*
X55840Y-31287D01*
X55806Y-31119D01*
X55711Y-30976D01*
X55568Y-30880D01*
X55400Y-30847D01*
X55231Y-30880D01*
X55088Y-30976D01*
X54993Y-31119D01*
X54960Y-31287D01*
X54960Y-31712D01*
X54993Y-31880D01*
X55088Y-32023D01*
X55231Y-32119D01*
X55400Y-32152D01*
X55568Y-32119D01*
X55711Y-32023D01*
X55806Y-31880D01*
X55840Y-31712D01*
X55840Y-32505D01*
X54840Y-32505D01*
X54840Y-31712D01*
X54840Y-31287D01*
X54806Y-31119D01*
X54711Y-30976D01*
X54568Y-30880D01*
X54400Y-30847D01*
X54231Y-30880D01*
X54088Y-30976D01*
X53993Y-31119D01*
X53960Y-31287D01*
X53960Y-31712D01*
X53993Y-31880D01*
X54088Y-32023D01*
X54231Y-32119D01*
X54400Y-32152D01*
X54568Y-32119D01*
X54711Y-32023D01*
X54806Y-31880D01*
X54840Y-31712D01*
X54840Y-32505D01*
X53840Y-32505D01*
X53840Y-31712D01*
X53840Y-31287D01*
X53806Y-31119D01*
X53711Y-30976D01*
X53568Y-30880D01*
X53400Y-30847D01*
X53231Y-30880D01*
X53088Y-30976D01*
X52993Y-31119D01*
X52960Y-31287D01*
X52960Y-31712D01*
X52993Y-31880D01*
X53088Y-32023D01*
X53231Y-32119D01*
X53400Y-32152D01*
X53568Y-32119D01*
X53711Y-32023D01*
X53806Y-31880D01*
X53840Y-31712D01*
X53840Y-32505D01*
X52840Y-32505D01*
X52840Y-31712D01*
X52840Y-31287D01*
X52806Y-31119D01*
X52711Y-30976D01*
X52568Y-30880D01*
X52400Y-30847D01*
X52231Y-30880D01*
X52088Y-30976D01*
X51993Y-31119D01*
X51960Y-31287D01*
X51960Y-31712D01*
X51993Y-31880D01*
X52088Y-32023D01*
X52231Y-32119D01*
X52400Y-32152D01*
X52568Y-32119D01*
X52711Y-32023D01*
X52806Y-31880D01*
X52840Y-31712D01*
X52840Y-32505D01*
X50984Y-32505D01*
X50884Y-32525D01*
X50800Y-32582D01*
X49072Y-34310D01*
X48912Y-34309D01*
X48780Y-34364D01*
X48780Y-34034D01*
X48780Y-34034D01*
X48760Y-33935D01*
X48760Y-33935D01*
X48741Y-33907D01*
X48703Y-33850D01*
X48703Y-33850D01*
X48399Y-33546D01*
X48314Y-33489D01*
X48215Y-33469D01*
X47784Y-33469D01*
X47685Y-33489D01*
X47657Y-33508D01*
X47600Y-33546D01*
X47288Y-33858D01*
X47231Y-33942D01*
X47212Y-34042D01*
X47212Y-37484D01*
X47231Y-37584D01*
X47288Y-37668D01*
X50408Y-40788D01*
X50408Y-40788D01*
X50464Y-40825D01*
X50492Y-40844D01*
X50492Y-40844D01*
X50592Y-40864D01*
X50592Y-40864D01*
X69605Y-40864D01*
X69704Y-40844D01*
X69789Y-40788D01*
X71382Y-39195D01*
X71396Y-39229D01*
X71435Y-39268D01*
X71487Y-39289D01*
X71542Y-39290D01*
X72012Y-39290D01*
X72064Y-39268D01*
X72103Y-39229D01*
X72124Y-39177D01*
X72125Y-39122D01*
X72125Y-38907D01*
X72389Y-38643D01*
X72389Y-38643D01*
X72445Y-38559D01*
X72465Y-38459D01*
X72465Y-38459D01*
X72465Y-36080D01*
X74070Y-37685D01*
X74070Y-37709D01*
X73987Y-37709D01*
X73935Y-37731D01*
X73896Y-37770D01*
X73875Y-37822D01*
X73874Y-37877D01*
X73874Y-38347D01*
X73896Y-38399D01*
X73935Y-38438D01*
X73987Y-38459D01*
X74042Y-38460D01*
X74337Y-38460D01*
X74257Y-38539D01*
X73987Y-38539D01*
X73935Y-38561D01*
X73896Y-38600D01*
X73875Y-38652D01*
X73874Y-38707D01*
X73874Y-39177D01*
X73896Y-39229D01*
X73935Y-39268D01*
X73987Y-39289D01*
X74042Y-39290D01*
X74512Y-39290D01*
X74564Y-39268D01*
X74603Y-39229D01*
X74624Y-39177D01*
X74625Y-39122D01*
X74625Y-38907D01*
X74903Y-38628D01*
X74903Y-38628D01*
X74941Y-38572D01*
X74960Y-38544D01*
X74960Y-38544D01*
X74979Y-38445D01*
X74979Y-38445D01*
X74979Y-39765D01*
X73080Y-41664D01*
X72084Y-41664D01*
X72037Y-41617D01*
X71922Y-41569D01*
X71796Y-41569D01*
X71681Y-41617D01*
X71633Y-41664D01*
X65207Y-41664D01*
X65123Y-41681D01*
X65073Y-41714D01*
X65000Y-41714D01*
X64884Y-41761D01*
X64795Y-41850D01*
X64747Y-41966D01*
X64747Y-42091D01*
X64795Y-42207D01*
X64883Y-42296D01*
X64999Y-42344D01*
X65125Y-42344D01*
X65240Y-42296D01*
X65329Y-42207D01*
X65372Y-42104D01*
X71633Y-42104D01*
X71680Y-42151D01*
X71796Y-42199D01*
X71921Y-42199D01*
X72037Y-42151D01*
X72084Y-42104D01*
X73043Y-42104D01*
X73185Y-42246D01*
X73184Y-42312D01*
X73232Y-42428D01*
X73317Y-42513D01*
X66542Y-42513D01*
X66523Y-42467D01*
X66435Y-42378D01*
X66319Y-42330D01*
X66193Y-42330D01*
X66078Y-42378D01*
X65989Y-42466D01*
X65941Y-42582D01*
X65941Y-42707D01*
X65989Y-42823D01*
X66077Y-42912D01*
X66193Y-42960D01*
X66318Y-42960D01*
X66434Y-42912D01*
X66473Y-42873D01*
X69370Y-42873D01*
X69369Y-42952D01*
X69370Y-42990D01*
X69430Y-43050D01*
X69690Y-43050D01*
X69690Y-43042D01*
X69810Y-43042D01*
X69810Y-43050D01*
X69930Y-43050D01*
X70070Y-43050D01*
X70190Y-43050D01*
X70190Y-43042D01*
X70310Y-43042D01*
X70310Y-43050D01*
X70430Y-43050D01*
X70570Y-43050D01*
X70690Y-43050D01*
X70690Y-43042D01*
X70810Y-43042D01*
X70810Y-43050D01*
X70930Y-43050D01*
X71070Y-43050D01*
X71190Y-43050D01*
X71190Y-43042D01*
X71310Y-43042D01*
X71310Y-43050D01*
X71570Y-43050D01*
X71630Y-42990D01*
X71630Y-42952D01*
X71629Y-42873D01*
X78118Y-42873D01*
X81588Y-46343D01*
X81560Y-46412D01*
X81559Y-46587D01*
X81626Y-46748D01*
X81750Y-46872D01*
X81912Y-46939D01*
X82087Y-46940D01*
X82248Y-46873D01*
X82372Y-46749D01*
X82439Y-46587D01*
X82440Y-46412D01*
X82440Y-45412D01*
X82440Y-44412D01*
X82440Y-43412D01*
X82440Y-42412D01*
X82440Y-41412D01*
X82440Y-40412D01*
X82440Y-39412D01*
X82440Y-38412D01*
X82440Y-37412D01*
X82373Y-37251D01*
X82249Y-37127D01*
X82087Y-37060D01*
X81912Y-37059D01*
X81751Y-37126D01*
X81627Y-37250D01*
X81560Y-37412D01*
X81559Y-37587D01*
X81626Y-37748D01*
X81750Y-37872D01*
X81912Y-37939D01*
X82087Y-37940D01*
X82248Y-37873D01*
X82372Y-37749D01*
X82439Y-37587D01*
X82440Y-37412D01*
X82440Y-38412D01*
X82373Y-38251D01*
X82249Y-38127D01*
X82087Y-38060D01*
X81912Y-38059D01*
X81751Y-38126D01*
X81627Y-38250D01*
X81560Y-38412D01*
X81559Y-38587D01*
X81626Y-38748D01*
X81750Y-38872D01*
X81912Y-38939D01*
X82087Y-38940D01*
X82248Y-38873D01*
X82372Y-38749D01*
X82439Y-38587D01*
X82440Y-38412D01*
X82440Y-39412D01*
X82373Y-39251D01*
X82249Y-39127D01*
X82087Y-39060D01*
X81912Y-39059D01*
X81751Y-39126D01*
X81627Y-39250D01*
X81560Y-39412D01*
X81559Y-39587D01*
X81626Y-39748D01*
X81750Y-39872D01*
X81912Y-39939D01*
X82087Y-39940D01*
X82248Y-39873D01*
X82372Y-39749D01*
X82439Y-39587D01*
X82440Y-39412D01*
X82440Y-40412D01*
X82373Y-40251D01*
X82249Y-40127D01*
X82087Y-40060D01*
X81912Y-40059D01*
X81751Y-40126D01*
X81627Y-40250D01*
X81560Y-40412D01*
X81559Y-40587D01*
X81626Y-40748D01*
X81750Y-40872D01*
X81912Y-40939D01*
X82087Y-40940D01*
X82248Y-40873D01*
X82372Y-40749D01*
X82439Y-40587D01*
X82440Y-40412D01*
X82440Y-41412D01*
X82373Y-41251D01*
X82249Y-41127D01*
X82087Y-41060D01*
X81912Y-41059D01*
X81751Y-41126D01*
X81627Y-41250D01*
X81560Y-41412D01*
X81559Y-41587D01*
X81626Y-41748D01*
X81750Y-41872D01*
X81912Y-41939D01*
X82087Y-41940D01*
X82248Y-41873D01*
X82372Y-41749D01*
X82439Y-41587D01*
X82440Y-41412D01*
X82440Y-42412D01*
X82373Y-42251D01*
X82249Y-42127D01*
X82087Y-42060D01*
X81912Y-42059D01*
X81751Y-42126D01*
X81627Y-42250D01*
X81560Y-42412D01*
X81559Y-42587D01*
X81626Y-42748D01*
X81750Y-42872D01*
X81912Y-42939D01*
X82087Y-42940D01*
X82248Y-42873D01*
X82372Y-42749D01*
X82439Y-42587D01*
X82440Y-42412D01*
X82440Y-43412D01*
X82373Y-43251D01*
X82249Y-43127D01*
X82087Y-43060D01*
X81912Y-43059D01*
X81751Y-43126D01*
X81627Y-43250D01*
X81560Y-43412D01*
X81559Y-43587D01*
X81626Y-43748D01*
X81750Y-43872D01*
X81912Y-43939D01*
X82087Y-43940D01*
X82248Y-43873D01*
X82372Y-43749D01*
X82439Y-43587D01*
X82440Y-43412D01*
X82440Y-44412D01*
X82373Y-44251D01*
X82249Y-44127D01*
X82087Y-44060D01*
X81912Y-44059D01*
X81751Y-44126D01*
X81627Y-44250D01*
X81560Y-44412D01*
X81559Y-44587D01*
X81626Y-44748D01*
X81750Y-44872D01*
X81912Y-44939D01*
X82087Y-44940D01*
X82248Y-44873D01*
X82372Y-44749D01*
X82439Y-44587D01*
X82440Y-44412D01*
X82440Y-45412D01*
X82373Y-45251D01*
X82249Y-45127D01*
X82087Y-45060D01*
X81912Y-45059D01*
X81751Y-45126D01*
X81627Y-45250D01*
X81560Y-45412D01*
X81559Y-45587D01*
X81626Y-45748D01*
X81750Y-45872D01*
X81912Y-45939D01*
X82087Y-45940D01*
X82248Y-45873D01*
X82372Y-45749D01*
X82439Y-45587D01*
X82440Y-45412D01*
X82440Y-46412D01*
X82373Y-46251D01*
X82249Y-46127D01*
X82087Y-46060D01*
X81912Y-46059D01*
X81843Y-46088D01*
X78320Y-42566D01*
X78262Y-42527D01*
X78193Y-42513D01*
X73682Y-42513D01*
X73766Y-42428D01*
X73814Y-42312D01*
X73815Y-42187D01*
X73767Y-42071D01*
X73678Y-41983D01*
X73562Y-41935D01*
X73496Y-41934D01*
X73464Y-41903D01*
X75403Y-39964D01*
X75685Y-40246D01*
X75684Y-40312D01*
X75732Y-40428D01*
X75821Y-40516D01*
X75937Y-40564D01*
X76062Y-40565D01*
X76178Y-40517D01*
X76266Y-40428D01*
X76314Y-40312D01*
X76315Y-40187D01*
X76267Y-40071D01*
X76178Y-39983D01*
X76062Y-39935D01*
X75996Y-39934D01*
X75748Y-39687D01*
X75748Y-39619D01*
X79167Y-36200D01*
X81677Y-36200D01*
X81627Y-36250D01*
X81560Y-36412D01*
X81559Y-36587D01*
X81626Y-36748D01*
X81750Y-36872D01*
X81912Y-36939D01*
X82087Y-36940D01*
X82248Y-36873D01*
X82372Y-36749D01*
X82439Y-36587D01*
X82440Y-36412D01*
X82373Y-36251D01*
X82299Y-36177D01*
X82361Y-36135D01*
X82675Y-35822D01*
X82675Y-35822D01*
X82685Y-35807D01*
X82750Y-35872D01*
X82912Y-35939D01*
X83087Y-35940D01*
X83248Y-35873D01*
X83372Y-35749D01*
X83439Y-35587D01*
X83440Y-35412D01*
X83373Y-35251D01*
X83342Y-35220D01*
X83660Y-35220D01*
X83659Y-35297D01*
X83660Y-35630D01*
X83720Y-35690D01*
X84090Y-35690D01*
X84090Y-35682D01*
X84210Y-35682D01*
X84210Y-35690D01*
X84580Y-35690D01*
X84640Y-35630D01*
X84640Y-35297D01*
X84639Y-35220D01*
X84960Y-35220D01*
X84960Y-35222D01*
X84959Y-35277D01*
X84959Y-36277D01*
X84981Y-36329D01*
X85020Y-36368D01*
X85072Y-36389D01*
X85127Y-36390D01*
X85627Y-36390D01*
X85679Y-36368D01*
X85718Y-36329D01*
X85739Y-36277D01*
X85740Y-36222D01*
X85740Y-35930D01*
X86459Y-35930D01*
X86459Y-36012D01*
X86481Y-36064D01*
X86520Y-36103D01*
X86572Y-36124D01*
X86627Y-36125D01*
X87097Y-36125D01*
X87149Y-36103D01*
X87188Y-36064D01*
X87209Y-36012D01*
X87210Y-35957D01*
X87210Y-35606D01*
X87289Y-35686D01*
X87289Y-36012D01*
X87311Y-36064D01*
X87350Y-36103D01*
X87396Y-36122D01*
X86483Y-37035D01*
X86436Y-37106D01*
X86419Y-37190D01*
X86419Y-40499D01*
X86425Y-40530D01*
X86300Y-40832D01*
X86299Y-41166D01*
X86427Y-41475D01*
X86663Y-41711D01*
X86972Y-41839D01*
X87306Y-41840D01*
X87615Y-41712D01*
X87851Y-41476D01*
X87913Y-41328D01*
X88025Y-41440D01*
X88216Y-41519D01*
X88422Y-41520D01*
X88614Y-41441D01*
X88760Y-41294D01*
X88839Y-41103D01*
X88840Y-40897D01*
X88840Y-51335D01*
X88370Y-51335D01*
X88370Y-42603D01*
X88242Y-42294D01*
X88006Y-42058D01*
X87697Y-41930D01*
X87363Y-41929D01*
X87054Y-42057D01*
X86818Y-42293D01*
X86690Y-42602D01*
X86689Y-42936D01*
X86817Y-43245D01*
X87053Y-43481D01*
X87362Y-43609D01*
X87696Y-43610D01*
X88005Y-43482D01*
X88241Y-43246D01*
X88369Y-42937D01*
X88370Y-42603D01*
X88370Y-51335D01*
X85823Y-51335D01*
X85823Y-41188D01*
X85816Y-40775D01*
X85671Y-40426D01*
X85528Y-40336D01*
X85443Y-40421D01*
X85443Y-40251D01*
X85353Y-40108D01*
X84968Y-39956D01*
X84640Y-39962D01*
X84640Y-36202D01*
X84640Y-35870D01*
X84580Y-35810D01*
X84210Y-35810D01*
X84210Y-36430D01*
X84270Y-36490D01*
X84447Y-36490D01*
X84535Y-36453D01*
X84603Y-36386D01*
X84639Y-36297D01*
X84640Y-36202D01*
X84640Y-39962D01*
X84555Y-39963D01*
X84206Y-40108D01*
X84116Y-40251D01*
X84780Y-40915D01*
X85443Y-40251D01*
X85443Y-40421D01*
X84864Y-41000D01*
X85528Y-41663D01*
X85671Y-41573D01*
X85823Y-41188D01*
X85823Y-51335D01*
X85443Y-51335D01*
X85443Y-41748D01*
X84780Y-41084D01*
X84695Y-41169D01*
X84695Y-41000D01*
X84090Y-40394D01*
X84090Y-36430D01*
X84090Y-35810D01*
X83720Y-35810D01*
X83660Y-35870D01*
X83659Y-36202D01*
X83660Y-36297D01*
X83696Y-36386D01*
X83764Y-36453D01*
X83852Y-36490D01*
X84030Y-36490D01*
X84090Y-36430D01*
X84090Y-40394D01*
X84031Y-40336D01*
X83888Y-40426D01*
X83736Y-40811D01*
X83743Y-41224D01*
X83888Y-41573D01*
X84031Y-41663D01*
X84695Y-41000D01*
X84695Y-41169D01*
X84116Y-41748D01*
X84206Y-41891D01*
X84591Y-42043D01*
X85004Y-42036D01*
X85353Y-41891D01*
X85443Y-41748D01*
X85443Y-51335D01*
X83375Y-51335D01*
X83517Y-51276D01*
X83775Y-51018D01*
X83914Y-50682D01*
X83915Y-50318D01*
X83776Y-49982D01*
X83518Y-49724D01*
X83440Y-49691D01*
X83440Y-48412D01*
X83440Y-47412D01*
X83440Y-46412D01*
X83440Y-45412D01*
X83440Y-44412D01*
X83440Y-43412D01*
X83440Y-42412D01*
X83440Y-41412D01*
X83440Y-40412D01*
X83440Y-39412D01*
X83440Y-38412D01*
X83440Y-37412D01*
X83440Y-36412D01*
X83373Y-36251D01*
X83249Y-36127D01*
X83087Y-36060D01*
X82912Y-36059D01*
X82751Y-36126D01*
X82627Y-36250D01*
X82560Y-36412D01*
X82559Y-36587D01*
X82626Y-36748D01*
X82750Y-36872D01*
X82912Y-36939D01*
X83087Y-36940D01*
X83248Y-36873D01*
X83372Y-36749D01*
X83439Y-36587D01*
X83440Y-36412D01*
X83440Y-37412D01*
X83373Y-37251D01*
X83249Y-37127D01*
X83087Y-37060D01*
X82912Y-37059D01*
X82751Y-37126D01*
X82627Y-37250D01*
X82560Y-37412D01*
X82559Y-37587D01*
X82626Y-37748D01*
X82750Y-37872D01*
X82912Y-37939D01*
X83087Y-37940D01*
X83248Y-37873D01*
X83372Y-37749D01*
X83439Y-37587D01*
X83440Y-37412D01*
X83440Y-38412D01*
X83373Y-38251D01*
X83249Y-38127D01*
X83087Y-38060D01*
X82912Y-38059D01*
X82751Y-38126D01*
X82627Y-38250D01*
X82560Y-38412D01*
X82559Y-38587D01*
X82626Y-38748D01*
X82750Y-38872D01*
X82912Y-38939D01*
X83087Y-38940D01*
X83248Y-38873D01*
X83372Y-38749D01*
X83439Y-38587D01*
X83440Y-38412D01*
X83440Y-39412D01*
X83373Y-39251D01*
X83249Y-39127D01*
X83087Y-39060D01*
X82912Y-39059D01*
X82751Y-39126D01*
X82627Y-39250D01*
X82560Y-39412D01*
X82559Y-39587D01*
X82626Y-39748D01*
X82750Y-39872D01*
X82912Y-39939D01*
X83087Y-39940D01*
X83248Y-39873D01*
X83372Y-39749D01*
X83439Y-39587D01*
X83440Y-39412D01*
X83440Y-40412D01*
X83373Y-40251D01*
X83249Y-40127D01*
X83087Y-40060D01*
X82912Y-40059D01*
X82751Y-40126D01*
X82627Y-40250D01*
X82560Y-40412D01*
X82559Y-40587D01*
X82626Y-40748D01*
X82750Y-40872D01*
X82912Y-40939D01*
X83087Y-40940D01*
X83248Y-40873D01*
X83372Y-40749D01*
X83439Y-40587D01*
X83440Y-40412D01*
X83440Y-41412D01*
X83373Y-41251D01*
X83249Y-41127D01*
X83087Y-41060D01*
X82912Y-41059D01*
X82751Y-41126D01*
X82627Y-41250D01*
X82560Y-41412D01*
X82559Y-41587D01*
X82626Y-41748D01*
X82750Y-41872D01*
X82912Y-41939D01*
X83087Y-41940D01*
X83248Y-41873D01*
X83372Y-41749D01*
X83439Y-41587D01*
X83440Y-41412D01*
X83440Y-42412D01*
X83373Y-42251D01*
X83249Y-42127D01*
X83087Y-42060D01*
X82912Y-42059D01*
X82751Y-42126D01*
X82627Y-42250D01*
X82560Y-42412D01*
X82559Y-42587D01*
X82626Y-42748D01*
X82750Y-42872D01*
X82912Y-42939D01*
X83087Y-42940D01*
X83248Y-42873D01*
X83372Y-42749D01*
X83439Y-42587D01*
X83440Y-42412D01*
X83440Y-43412D01*
X83373Y-43251D01*
X83249Y-43127D01*
X83087Y-43060D01*
X82912Y-43059D01*
X82751Y-43126D01*
X82627Y-43250D01*
X82560Y-43412D01*
X82559Y-43587D01*
X82626Y-43748D01*
X82750Y-43872D01*
X82912Y-43939D01*
X83087Y-43940D01*
X83248Y-43873D01*
X83372Y-43749D01*
X83439Y-43587D01*
X83440Y-43412D01*
X83440Y-44412D01*
X83373Y-44251D01*
X83249Y-44127D01*
X83087Y-44060D01*
X82912Y-44059D01*
X82751Y-44126D01*
X82627Y-44250D01*
X82560Y-44412D01*
X82559Y-44587D01*
X82626Y-44748D01*
X82750Y-44872D01*
X82912Y-44939D01*
X83087Y-44940D01*
X83248Y-44873D01*
X83372Y-44749D01*
X83439Y-44587D01*
X83440Y-44412D01*
X83440Y-45412D01*
X83373Y-45251D01*
X83249Y-45127D01*
X83087Y-45060D01*
X82912Y-45059D01*
X82751Y-45126D01*
X82627Y-45250D01*
X82560Y-45412D01*
X82559Y-45587D01*
X82626Y-45748D01*
X82750Y-45872D01*
X82912Y-45939D01*
X83087Y-45940D01*
X83248Y-45873D01*
X83372Y-45749D01*
X83439Y-45587D01*
X83440Y-45412D01*
X83440Y-46412D01*
X83373Y-46251D01*
X83249Y-46127D01*
X83087Y-46060D01*
X82912Y-46059D01*
X82751Y-46126D01*
X82627Y-46250D01*
X82560Y-46412D01*
X82559Y-46587D01*
X82626Y-46748D01*
X82750Y-46872D01*
X82912Y-46939D01*
X83087Y-46940D01*
X83248Y-46873D01*
X83372Y-46749D01*
X83439Y-46587D01*
X83440Y-46412D01*
X83440Y-47412D01*
X83373Y-47251D01*
X83249Y-47127D01*
X83087Y-47060D01*
X82912Y-47059D01*
X82751Y-47126D01*
X82627Y-47250D01*
X82560Y-47412D01*
X82559Y-47587D01*
X82626Y-47748D01*
X82750Y-47872D01*
X82912Y-47939D01*
X83087Y-47940D01*
X83248Y-47873D01*
X83372Y-47749D01*
X83439Y-47587D01*
X83440Y-47412D01*
X83440Y-48412D01*
X83373Y-48251D01*
X83249Y-48127D01*
X83087Y-48060D01*
X82912Y-48059D01*
X82751Y-48126D01*
X82627Y-48250D01*
X82560Y-48412D01*
X82559Y-48587D01*
X82626Y-48748D01*
X82750Y-48872D01*
X82912Y-48939D01*
X83087Y-48940D01*
X83248Y-48873D01*
X83372Y-48749D01*
X83439Y-48587D01*
X83440Y-48412D01*
X83440Y-49691D01*
X83182Y-49585D01*
X82818Y-49584D01*
X82482Y-49723D01*
X82440Y-49766D01*
X82440Y-48412D01*
X82440Y-47412D01*
X82373Y-47251D01*
X82249Y-47127D01*
X82087Y-47060D01*
X81912Y-47059D01*
X81751Y-47126D01*
X81627Y-47250D01*
X81560Y-47412D01*
X81559Y-47587D01*
X81626Y-47748D01*
X81750Y-47872D01*
X81912Y-47939D01*
X82087Y-47940D01*
X82248Y-47873D01*
X82372Y-47749D01*
X82439Y-47587D01*
X82440Y-47412D01*
X82440Y-48412D01*
X82373Y-48251D01*
X82249Y-48127D01*
X82087Y-48060D01*
X81912Y-48059D01*
X81751Y-48126D01*
X81627Y-48250D01*
X81560Y-48412D01*
X81559Y-48587D01*
X81626Y-48748D01*
X81750Y-48872D01*
X81912Y-48939D01*
X82087Y-48940D01*
X82248Y-48873D01*
X82372Y-48749D01*
X82439Y-48587D01*
X82440Y-48412D01*
X82440Y-49766D01*
X82224Y-49981D01*
X82085Y-50317D01*
X82084Y-50681D01*
X82223Y-51017D01*
X82481Y-51275D01*
X82624Y-51335D01*
X81440Y-51335D01*
X81440Y-50712D01*
X81440Y-50287D01*
X81406Y-50119D01*
X81311Y-49976D01*
X81168Y-49880D01*
X81000Y-49847D01*
X80831Y-49880D01*
X80688Y-49976D01*
X80593Y-50119D01*
X80560Y-50287D01*
X80560Y-50712D01*
X80593Y-50880D01*
X80688Y-51023D01*
X80831Y-51119D01*
X81000Y-51152D01*
X81168Y-51119D01*
X81311Y-51023D01*
X81406Y-50880D01*
X81440Y-50712D01*
X81440Y-51335D01*
X80440Y-51335D01*
X80440Y-50712D01*
X80440Y-50287D01*
X80406Y-50119D01*
X80311Y-49976D01*
X80168Y-49880D01*
X80000Y-49847D01*
X79831Y-49880D01*
X79688Y-49976D01*
X79593Y-50119D01*
X79560Y-50287D01*
X79560Y-50712D01*
X79593Y-50880D01*
X79688Y-51023D01*
X79831Y-51119D01*
X80000Y-51152D01*
X80168Y-51119D01*
X80311Y-51023D01*
X80406Y-50880D01*
X80440Y-50712D01*
X80440Y-51335D01*
X79440Y-51335D01*
X79440Y-50712D01*
X79440Y-50287D01*
X79406Y-50119D01*
X79311Y-49976D01*
X79168Y-49880D01*
X79000Y-49847D01*
X78831Y-49880D01*
X78688Y-49976D01*
X78593Y-50119D01*
X78560Y-50287D01*
X78560Y-50712D01*
X78593Y-50880D01*
X78688Y-51023D01*
X78831Y-51119D01*
X79000Y-51152D01*
X79168Y-51119D01*
X79311Y-51023D01*
X79406Y-50880D01*
X79440Y-50712D01*
X79440Y-51335D01*
X78440Y-51335D01*
X78440Y-50712D01*
X78440Y-50287D01*
X78406Y-50119D01*
X78311Y-49976D01*
X78168Y-49880D01*
X78000Y-49847D01*
X77831Y-49880D01*
X77688Y-49976D01*
X77593Y-50119D01*
X77560Y-50287D01*
X77560Y-50712D01*
X77593Y-50880D01*
X77688Y-51023D01*
X77831Y-51119D01*
X78000Y-51152D01*
X78168Y-51119D01*
X78311Y-51023D01*
X78406Y-50880D01*
X78440Y-50712D01*
X78440Y-51335D01*
X77440Y-51335D01*
X77440Y-50712D01*
X77440Y-50287D01*
X77406Y-50119D01*
X77311Y-49976D01*
X77168Y-49880D01*
X77000Y-49847D01*
X76831Y-49880D01*
X76688Y-49976D01*
X76593Y-50119D01*
X76560Y-50287D01*
X76560Y-50712D01*
X76593Y-50880D01*
X76688Y-51023D01*
X76831Y-51119D01*
X77000Y-51152D01*
X77168Y-51119D01*
X77311Y-51023D01*
X77406Y-50880D01*
X77440Y-50712D01*
X77440Y-51335D01*
X76440Y-51335D01*
X76440Y-50712D01*
X76440Y-50287D01*
X76406Y-50119D01*
X76311Y-49976D01*
X76168Y-49880D01*
X76000Y-49847D01*
X75831Y-49880D01*
X75688Y-49976D01*
X75593Y-50119D01*
X75560Y-50287D01*
X75560Y-50712D01*
X75593Y-50880D01*
X75688Y-51023D01*
X75831Y-51119D01*
X76000Y-51152D01*
X76168Y-51119D01*
X76311Y-51023D01*
X76406Y-50880D01*
X76440Y-50712D01*
X76440Y-51335D01*
X75440Y-51335D01*
X75440Y-50712D01*
X75440Y-50287D01*
X75406Y-50119D01*
X75311Y-49976D01*
X75168Y-49880D01*
X75000Y-49847D01*
X74831Y-49880D01*
X74688Y-49976D01*
X74593Y-50119D01*
X74560Y-50287D01*
X74560Y-50712D01*
X74593Y-50880D01*
X74688Y-51023D01*
X74831Y-51119D01*
X75000Y-51152D01*
X75168Y-51119D01*
X75311Y-51023D01*
X75406Y-50880D01*
X75440Y-50712D01*
X75440Y-51335D01*
X74440Y-51335D01*
X74440Y-50712D01*
X74440Y-50287D01*
X74406Y-50119D01*
X74311Y-49976D01*
X74168Y-49880D01*
X74000Y-49847D01*
X73831Y-49880D01*
X73688Y-49976D01*
X73593Y-50119D01*
X73560Y-50287D01*
X73560Y-50712D01*
X73593Y-50880D01*
X73688Y-51023D01*
X73831Y-51119D01*
X74000Y-51152D01*
X74168Y-51119D01*
X74311Y-51023D01*
X74406Y-50880D01*
X74440Y-50712D01*
X74440Y-51335D01*
X72440Y-51335D01*
X72440Y-50712D01*
X72440Y-50287D01*
X72406Y-50119D01*
X72311Y-49976D01*
X72168Y-49880D01*
X72000Y-49847D01*
X71831Y-49880D01*
X71688Y-49976D01*
X71593Y-50119D01*
X71560Y-50287D01*
X71560Y-50712D01*
X71593Y-50880D01*
X71688Y-51023D01*
X71831Y-51119D01*
X72000Y-51152D01*
X72168Y-51119D01*
X72311Y-51023D01*
X72406Y-50880D01*
X72440Y-50712D01*
X72440Y-51335D01*
X71440Y-51335D01*
X71440Y-50712D01*
X71440Y-50287D01*
X71406Y-50119D01*
X71311Y-49976D01*
X71168Y-49880D01*
X71000Y-49847D01*
X70831Y-49880D01*
X70688Y-49976D01*
X70593Y-50119D01*
X70560Y-50287D01*
X70560Y-50712D01*
X70593Y-50880D01*
X70688Y-51023D01*
X70831Y-51119D01*
X71000Y-51152D01*
X71168Y-51119D01*
X71311Y-51023D01*
X71406Y-50880D01*
X71440Y-50712D01*
X71440Y-51335D01*
X70440Y-51335D01*
X70440Y-50712D01*
X70440Y-50287D01*
X70406Y-50119D01*
X70311Y-49976D01*
X70168Y-49880D01*
X70000Y-49847D01*
X69831Y-49880D01*
X69688Y-49976D01*
X69593Y-50119D01*
X69560Y-50287D01*
X69560Y-50712D01*
X69593Y-50880D01*
X69688Y-51023D01*
X69831Y-51119D01*
X70000Y-51152D01*
X70168Y-51119D01*
X70311Y-51023D01*
X70406Y-50880D01*
X70440Y-50712D01*
X70440Y-51335D01*
X69440Y-51335D01*
X69440Y-50712D01*
X69440Y-50287D01*
X69406Y-50119D01*
X69311Y-49976D01*
X69168Y-49880D01*
X69000Y-49847D01*
X68831Y-49880D01*
X68688Y-49976D01*
X68593Y-50119D01*
X68560Y-50287D01*
X68560Y-50712D01*
X68593Y-50880D01*
X68688Y-51023D01*
X68831Y-51119D01*
X69000Y-51152D01*
X69168Y-51119D01*
X69311Y-51023D01*
X69406Y-50880D01*
X69440Y-50712D01*
X69440Y-51335D01*
X68440Y-51335D01*
X68440Y-50712D01*
X68440Y-50287D01*
X68406Y-50119D01*
X68311Y-49976D01*
X68168Y-49880D01*
X68000Y-49847D01*
X67831Y-49880D01*
X67688Y-49976D01*
X67593Y-50119D01*
X67560Y-50287D01*
X67560Y-50712D01*
X67593Y-50880D01*
X67688Y-51023D01*
X67831Y-51119D01*
X68000Y-51152D01*
X68168Y-51119D01*
X68311Y-51023D01*
X68406Y-50880D01*
X68440Y-50712D01*
X68440Y-51335D01*
X67440Y-51335D01*
X67440Y-50712D01*
X67440Y-50287D01*
X67406Y-50119D01*
X67311Y-49976D01*
X67168Y-49880D01*
X67000Y-49847D01*
X66831Y-49880D01*
X66688Y-49976D01*
X66593Y-50119D01*
X66560Y-50287D01*
X66560Y-50712D01*
X66593Y-50880D01*
X66688Y-51023D01*
X66831Y-51119D01*
X67000Y-51152D01*
X67168Y-51119D01*
X67311Y-51023D01*
X67406Y-50880D01*
X67440Y-50712D01*
X67440Y-51335D01*
X66440Y-51335D01*
X66440Y-50712D01*
X66440Y-50287D01*
X66406Y-50119D01*
X66311Y-49976D01*
X66168Y-49880D01*
X66000Y-49847D01*
X65831Y-49880D01*
X65688Y-49976D01*
X65593Y-50119D01*
X65560Y-50287D01*
X65560Y-50712D01*
X65593Y-50880D01*
X65688Y-51023D01*
X65831Y-51119D01*
X66000Y-51152D01*
X66168Y-51119D01*
X66311Y-51023D01*
X66406Y-50880D01*
X66440Y-50712D01*
X66440Y-51335D01*
X65440Y-51335D01*
X65440Y-50712D01*
X65440Y-50287D01*
X65406Y-50119D01*
X65311Y-49976D01*
X65168Y-49880D01*
X65000Y-49847D01*
X64831Y-49880D01*
X64688Y-49976D01*
X64593Y-50119D01*
X64560Y-50287D01*
X64560Y-50712D01*
X64593Y-50880D01*
X64688Y-51023D01*
X64831Y-51119D01*
X65000Y-51152D01*
X65168Y-51119D01*
X65311Y-51023D01*
X65406Y-50880D01*
X65440Y-50712D01*
X65440Y-51335D01*
X63440Y-51335D01*
X63440Y-50712D01*
X63440Y-50287D01*
X63406Y-50119D01*
X63311Y-49976D01*
X63168Y-49880D01*
X63000Y-49847D01*
X62831Y-49880D01*
X62688Y-49976D01*
X62593Y-50119D01*
X62560Y-50287D01*
X62560Y-50712D01*
X62593Y-50880D01*
X62688Y-51023D01*
X62831Y-51119D01*
X63000Y-51152D01*
X63168Y-51119D01*
X63311Y-51023D01*
X63406Y-50880D01*
X63440Y-50712D01*
X63440Y-51335D01*
X62440Y-51335D01*
X62440Y-50712D01*
X62440Y-50287D01*
X62406Y-50119D01*
X62311Y-49976D01*
X62220Y-49915D01*
X62220Y-49819D01*
X62203Y-49735D01*
X62155Y-49664D01*
X62084Y-49616D01*
X62000Y-49599D01*
X61000Y-49599D01*
X60915Y-49616D01*
X60844Y-49664D01*
X60796Y-49735D01*
X60780Y-49819D01*
X60780Y-49915D01*
X60688Y-49976D01*
X60593Y-50119D01*
X60560Y-50287D01*
X60560Y-50712D01*
X60593Y-50880D01*
X60688Y-51023D01*
X60831Y-51119D01*
X61000Y-51152D01*
X61168Y-51119D01*
X61311Y-51023D01*
X61406Y-50880D01*
X61440Y-50712D01*
X61440Y-50287D01*
X61406Y-50119D01*
X61353Y-50039D01*
X61646Y-50039D01*
X61593Y-50119D01*
X61560Y-50287D01*
X61560Y-50712D01*
X61593Y-50880D01*
X61688Y-51023D01*
X61831Y-51119D01*
X62000Y-51152D01*
X62168Y-51119D01*
X62311Y-51023D01*
X62406Y-50880D01*
X62440Y-50712D01*
X62440Y-51335D01*
X60440Y-51335D01*
X60440Y-50712D01*
X60440Y-50287D01*
X60406Y-50119D01*
X60311Y-49976D01*
X60168Y-49880D01*
X60000Y-49847D01*
X59831Y-49880D01*
X59688Y-49976D01*
X59593Y-50119D01*
X59560Y-50287D01*
X59560Y-50712D01*
X59593Y-50880D01*
X59688Y-51023D01*
X59831Y-51119D01*
X60000Y-51152D01*
X60168Y-51119D01*
X60311Y-51023D01*
X60406Y-50880D01*
X60440Y-50712D01*
X60440Y-51335D01*
X59440Y-51335D01*
X59440Y-50712D01*
X59440Y-50287D01*
X59406Y-50119D01*
X59311Y-49976D01*
X59168Y-49880D01*
X59000Y-49847D01*
X58831Y-49880D01*
X58688Y-49976D01*
X58593Y-50119D01*
X58560Y-50287D01*
X58560Y-50712D01*
X58593Y-50880D01*
X58688Y-51023D01*
X58831Y-51119D01*
X59000Y-51152D01*
X59168Y-51119D01*
X59311Y-51023D01*
X59406Y-50880D01*
X59440Y-50712D01*
X59440Y-51335D01*
X58440Y-51335D01*
X58440Y-50712D01*
X58440Y-50287D01*
X58406Y-50119D01*
X58311Y-49976D01*
X58168Y-49880D01*
X58000Y-49847D01*
X57831Y-49880D01*
X57688Y-49976D01*
X57593Y-50119D01*
X57560Y-50287D01*
X57560Y-50712D01*
X57593Y-50880D01*
X57688Y-51023D01*
X57831Y-51119D01*
X58000Y-51152D01*
X58168Y-51119D01*
X58311Y-51023D01*
X58406Y-50880D01*
X58440Y-50712D01*
X58440Y-51335D01*
X57440Y-51335D01*
X57440Y-50712D01*
X57440Y-50287D01*
X57406Y-50119D01*
X57311Y-49976D01*
X57168Y-49880D01*
X57000Y-49847D01*
X56831Y-49880D01*
X56688Y-49976D01*
X56593Y-50119D01*
X56560Y-50287D01*
X56560Y-50712D01*
X56593Y-50880D01*
X56688Y-51023D01*
X56831Y-51119D01*
X57000Y-51152D01*
X57168Y-51119D01*
X57311Y-51023D01*
X57406Y-50880D01*
X57440Y-50712D01*
X57440Y-51335D01*
X56440Y-51335D01*
X56440Y-50712D01*
X56440Y-50287D01*
X56406Y-50119D01*
X56311Y-49976D01*
X56168Y-49880D01*
X56000Y-49847D01*
X55831Y-49880D01*
X55688Y-49976D01*
X55593Y-50119D01*
X55560Y-50287D01*
X55560Y-50712D01*
X55593Y-50880D01*
X55688Y-51023D01*
X55831Y-51119D01*
X56000Y-51152D01*
X56168Y-51119D01*
X56311Y-51023D01*
X56406Y-50880D01*
X56440Y-50712D01*
X56440Y-51335D01*
X50875Y-51335D01*
X51017Y-51276D01*
X51275Y-51018D01*
X51414Y-50682D01*
X51415Y-50318D01*
X51276Y-49982D01*
X51031Y-49737D01*
X51623Y-49737D01*
X52007Y-50121D01*
X52092Y-50177D01*
X52191Y-50197D01*
X54831Y-50197D01*
X54930Y-50177D01*
X55014Y-50121D01*
X55651Y-49485D01*
X64662Y-49485D01*
X64762Y-49465D01*
X64846Y-49408D01*
X66275Y-47980D01*
X66285Y-47980D01*
X66380Y-47940D01*
X66396Y-47979D01*
X66435Y-48018D01*
X66487Y-48039D01*
X66542Y-48040D01*
X67012Y-48040D01*
X67064Y-48018D01*
X67103Y-47979D01*
X67124Y-47927D01*
X67125Y-47872D01*
X67125Y-47402D01*
X67103Y-47350D01*
X67064Y-47311D01*
X67012Y-47290D01*
X66957Y-47289D01*
X66487Y-47289D01*
X66435Y-47311D01*
X66396Y-47350D01*
X66380Y-47389D01*
X66285Y-47350D01*
X66160Y-47349D01*
X66044Y-47397D01*
X65955Y-47486D01*
X65907Y-47602D01*
X65907Y-47612D01*
X64555Y-48965D01*
X64112Y-48965D01*
X66374Y-46703D01*
X66374Y-47097D01*
X66396Y-47149D01*
X66435Y-47188D01*
X66487Y-47209D01*
X66542Y-47210D01*
X67012Y-47210D01*
X67064Y-47188D01*
X67103Y-47149D01*
X67124Y-47097D01*
X67124Y-47089D01*
X67372Y-47337D01*
X67372Y-47337D01*
X67431Y-47376D01*
X67500Y-47390D01*
X67532Y-47390D01*
X67461Y-47460D01*
X67413Y-47576D01*
X67413Y-47701D01*
X67461Y-47817D01*
X67550Y-47906D01*
X67665Y-47954D01*
X67791Y-47954D01*
X67906Y-47906D01*
X67914Y-47899D01*
X68686Y-47899D01*
X68686Y-47899D01*
X68695Y-47905D01*
X68695Y-47905D01*
X68794Y-47924D01*
X68794Y-47925D01*
X68874Y-47925D01*
X68874Y-47927D01*
X68896Y-47979D01*
X68935Y-48018D01*
X68987Y-48039D01*
X69042Y-48040D01*
X69512Y-48040D01*
X69564Y-48018D01*
X69603Y-47979D01*
X69624Y-47927D01*
X69625Y-47872D01*
X69625Y-47464D01*
X70708Y-48548D01*
X70767Y-48587D01*
X70836Y-48601D01*
X74727Y-48601D01*
X74796Y-48587D01*
X74854Y-48548D01*
X75136Y-48266D01*
X75175Y-48207D01*
X75189Y-48139D01*
X75189Y-48139D01*
X75189Y-46650D01*
X75175Y-46581D01*
X75136Y-46523D01*
X72330Y-43717D01*
X72272Y-43678D01*
X72203Y-43665D01*
X71630Y-43665D01*
X71630Y-43267D01*
X71630Y-43230D01*
X71570Y-43170D01*
X71310Y-43170D01*
X71310Y-43495D01*
X71370Y-43555D01*
X71437Y-43555D01*
X71525Y-43518D01*
X71593Y-43451D01*
X71629Y-43362D01*
X71630Y-43267D01*
X71630Y-43665D01*
X71190Y-43665D01*
X71190Y-43495D01*
X71190Y-43170D01*
X71070Y-43170D01*
X70930Y-43170D01*
X70810Y-43170D01*
X70810Y-43495D01*
X70870Y-43555D01*
X70937Y-43555D01*
X71000Y-43529D01*
X71062Y-43555D01*
X71130Y-43555D01*
X71190Y-43495D01*
X71190Y-43665D01*
X70690Y-43665D01*
X70690Y-43495D01*
X70690Y-43170D01*
X70570Y-43170D01*
X70430Y-43170D01*
X70310Y-43170D01*
X70310Y-43495D01*
X70370Y-43555D01*
X70437Y-43555D01*
X70500Y-43529D01*
X70562Y-43555D01*
X70630Y-43555D01*
X70690Y-43495D01*
X70690Y-43665D01*
X70190Y-43665D01*
X70190Y-43495D01*
X70190Y-43170D01*
X70070Y-43170D01*
X69930Y-43170D01*
X69810Y-43170D01*
X69810Y-43495D01*
X69870Y-43555D01*
X69937Y-43555D01*
X70000Y-43529D01*
X70062Y-43555D01*
X70130Y-43555D01*
X70190Y-43495D01*
X70190Y-43665D01*
X69949Y-43665D01*
X69880Y-43678D01*
X69822Y-43717D01*
X69690Y-43850D01*
X69690Y-43495D01*
X69690Y-43170D01*
X69430Y-43170D01*
X69370Y-43230D01*
X69369Y-43267D01*
X69370Y-43362D01*
X69406Y-43451D01*
X69474Y-43518D01*
X69562Y-43555D01*
X69630Y-43555D01*
X69690Y-43495D01*
X69690Y-43850D01*
X69622Y-43917D01*
X69583Y-43975D01*
X69570Y-44044D01*
X69570Y-44071D01*
X69542Y-44083D01*
X69508Y-44116D01*
X69490Y-44161D01*
X69489Y-44208D01*
X69489Y-44618D01*
X69489Y-44618D01*
X68262Y-43391D01*
X68178Y-43335D01*
X68078Y-43315D01*
X66935Y-43315D01*
X66928Y-43308D01*
X66812Y-43260D01*
X66687Y-43260D01*
X66571Y-43308D01*
X66564Y-43315D01*
X61629Y-43315D01*
X61630Y-43267D01*
X61630Y-42952D01*
X61629Y-42857D01*
X61593Y-42768D01*
X61525Y-42701D01*
X61437Y-42664D01*
X61370Y-42665D01*
X61310Y-42725D01*
X61310Y-43050D01*
X61570Y-43050D01*
X61630Y-42990D01*
X61630Y-42952D01*
X61630Y-43267D01*
X61630Y-43230D01*
X61570Y-43170D01*
X61310Y-43170D01*
X61310Y-43177D01*
X61190Y-43177D01*
X61190Y-43170D01*
X61190Y-43050D01*
X61190Y-42725D01*
X61130Y-42665D01*
X61062Y-42664D01*
X61000Y-42690D01*
X60937Y-42664D01*
X60870Y-42665D01*
X60810Y-42725D01*
X60810Y-43050D01*
X60930Y-43050D01*
X61070Y-43050D01*
X61190Y-43050D01*
X61190Y-43170D01*
X61070Y-43170D01*
X60930Y-43170D01*
X60810Y-43170D01*
X60810Y-43177D01*
X60690Y-43177D01*
X60690Y-43170D01*
X60690Y-43050D01*
X60690Y-42725D01*
X60630Y-42665D01*
X60562Y-42664D01*
X60500Y-42690D01*
X60437Y-42664D01*
X60370Y-42665D01*
X60310Y-42725D01*
X60310Y-43050D01*
X60430Y-43050D01*
X60570Y-43050D01*
X60690Y-43050D01*
X60690Y-43170D01*
X60570Y-43170D01*
X60430Y-43170D01*
X60310Y-43170D01*
X60310Y-43177D01*
X60190Y-43177D01*
X60190Y-43170D01*
X60190Y-43050D01*
X60190Y-42725D01*
X60130Y-42665D01*
X60062Y-42664D01*
X60000Y-42690D01*
X59937Y-42664D01*
X59870Y-42665D01*
X59810Y-42725D01*
X59810Y-43050D01*
X59930Y-43050D01*
X60070Y-43050D01*
X60190Y-43050D01*
X60190Y-43170D01*
X60070Y-43170D01*
X59930Y-43170D01*
X59810Y-43170D01*
X59810Y-43177D01*
X59690Y-43177D01*
X59690Y-43170D01*
X59690Y-43050D01*
X59690Y-42725D01*
X59630Y-42665D01*
X59562Y-42664D01*
X59474Y-42701D01*
X59406Y-42768D01*
X59370Y-42857D01*
X59369Y-42952D01*
X59370Y-42990D01*
X59430Y-43050D01*
X59690Y-43050D01*
X59690Y-43170D01*
X59430Y-43170D01*
X59370Y-43230D01*
X59369Y-43267D01*
X59370Y-43315D01*
X55558Y-43315D01*
X54837Y-42594D01*
X54753Y-42538D01*
X54653Y-42518D01*
X50971Y-42518D01*
X50888Y-42535D01*
X50871Y-42538D01*
X50787Y-42594D01*
X49072Y-44310D01*
X48912Y-44309D01*
X48751Y-44376D01*
X48627Y-44500D01*
X48560Y-44662D01*
X48559Y-44837D01*
X48626Y-44998D01*
X48750Y-45122D01*
X48912Y-45189D01*
X49087Y-45190D01*
X49248Y-45123D01*
X49372Y-44999D01*
X49439Y-44837D01*
X49440Y-44677D01*
X49905Y-44211D01*
X49918Y-44394D01*
X49971Y-44523D01*
X50063Y-44551D01*
X50365Y-44250D01*
X50359Y-44244D01*
X50444Y-44159D01*
X50450Y-44165D01*
X50751Y-43863D01*
X50723Y-43771D01*
X50519Y-43703D01*
X50405Y-43711D01*
X51078Y-43038D01*
X52638Y-43038D01*
X52627Y-43050D01*
X52560Y-43212D01*
X52559Y-43387D01*
X52626Y-43548D01*
X52750Y-43672D01*
X52912Y-43739D01*
X53087Y-43740D01*
X53248Y-43673D01*
X53372Y-43549D01*
X53439Y-43387D01*
X53440Y-43212D01*
X53373Y-43051D01*
X53360Y-43038D01*
X54546Y-43038D01*
X55266Y-43759D01*
X55350Y-43815D01*
X55450Y-43835D01*
X57345Y-43835D01*
X56617Y-44563D01*
X53358Y-44563D01*
X53372Y-44549D01*
X53439Y-44387D01*
X53440Y-44212D01*
X53373Y-44051D01*
X53249Y-43927D01*
X53087Y-43860D01*
X52912Y-43859D01*
X52751Y-43926D01*
X52627Y-44050D01*
X52560Y-44212D01*
X52559Y-44387D01*
X52626Y-44548D01*
X52641Y-44563D01*
X51849Y-44563D01*
X51823Y-44501D01*
X51699Y-44377D01*
X51537Y-44310D01*
X51362Y-44309D01*
X51201Y-44376D01*
X51077Y-44500D01*
X51010Y-44662D01*
X51009Y-44837D01*
X51076Y-44998D01*
X51200Y-45122D01*
X51362Y-45189D01*
X51537Y-45190D01*
X51698Y-45123D01*
X51738Y-45083D01*
X56725Y-45083D01*
X56824Y-45063D01*
X56909Y-45007D01*
X57711Y-44205D01*
X59489Y-44205D01*
X59489Y-44208D01*
X59489Y-44210D01*
X59469Y-44210D01*
X59400Y-44223D01*
X59342Y-44262D01*
X58747Y-44857D01*
X58708Y-44916D01*
X58694Y-44985D01*
X58694Y-47130D01*
X58708Y-47199D01*
X58732Y-47235D01*
X57673Y-46176D01*
X57589Y-46119D01*
X57490Y-46100D01*
X51839Y-46100D01*
X51740Y-46119D01*
X51712Y-46138D01*
X51656Y-46176D01*
X51522Y-46310D01*
X51507Y-46310D01*
X51633Y-46183D01*
X51664Y-46137D01*
X51698Y-46123D01*
X51822Y-45999D01*
X51889Y-45837D01*
X51890Y-45662D01*
X51823Y-45501D01*
X51699Y-45377D01*
X51537Y-45310D01*
X51362Y-45309D01*
X51201Y-45376D01*
X51077Y-45500D01*
X51010Y-45662D01*
X51009Y-45837D01*
X51076Y-45998D01*
X51080Y-46002D01*
X50996Y-46086D01*
X50996Y-45319D01*
X50996Y-44319D01*
X50981Y-44105D01*
X50928Y-43976D01*
X50836Y-43948D01*
X50534Y-44250D01*
X50836Y-44551D01*
X50928Y-44523D01*
X50996Y-44319D01*
X50996Y-45319D01*
X50981Y-45105D01*
X50928Y-44976D01*
X50836Y-44948D01*
X50751Y-45032D01*
X50751Y-44863D01*
X50723Y-44771D01*
X50664Y-44752D01*
X50723Y-44728D01*
X50751Y-44636D01*
X50450Y-44334D01*
X50148Y-44636D01*
X50176Y-44728D01*
X50235Y-44747D01*
X50176Y-44771D01*
X50148Y-44863D01*
X50450Y-45165D01*
X50751Y-44863D01*
X50751Y-45032D01*
X50534Y-45250D01*
X50836Y-45551D01*
X50928Y-45523D01*
X50996Y-45319D01*
X50996Y-46086D01*
X50980Y-46102D01*
X50928Y-45976D01*
X50836Y-45948D01*
X50751Y-46032D01*
X50751Y-45863D01*
X50723Y-45771D01*
X50664Y-45752D01*
X50723Y-45728D01*
X50751Y-45636D01*
X50450Y-45334D01*
X50365Y-45419D01*
X50365Y-45250D01*
X50063Y-44948D01*
X49971Y-44976D01*
X49903Y-45180D01*
X49918Y-45394D01*
X49971Y-45523D01*
X50063Y-45551D01*
X50365Y-45250D01*
X50365Y-45419D01*
X50148Y-45636D01*
X50176Y-45728D01*
X50235Y-45747D01*
X50176Y-45771D01*
X50148Y-45863D01*
X50450Y-46165D01*
X50751Y-45863D01*
X50751Y-46032D01*
X50534Y-46250D01*
X50540Y-46255D01*
X50455Y-46340D01*
X50450Y-46334D01*
X50365Y-46419D01*
X50365Y-46250D01*
X50063Y-45948D01*
X49971Y-45976D01*
X49903Y-46180D01*
X49918Y-46394D01*
X49971Y-46523D01*
X50063Y-46551D01*
X50365Y-46250D01*
X50365Y-46419D01*
X50148Y-46636D01*
X50176Y-46728D01*
X50235Y-46747D01*
X50176Y-46771D01*
X50148Y-46863D01*
X50450Y-47165D01*
X50455Y-47159D01*
X50540Y-47244D01*
X50534Y-47250D01*
X50540Y-47255D01*
X50455Y-47340D01*
X50450Y-47334D01*
X50444Y-47340D01*
X50359Y-47255D01*
X50365Y-47250D01*
X50063Y-46948D01*
X49971Y-46976D01*
X49930Y-47099D01*
X49864Y-47033D01*
X49864Y-46354D01*
X49844Y-46255D01*
X49788Y-46170D01*
X49439Y-45822D01*
X49440Y-45662D01*
X49373Y-45501D01*
X49249Y-45377D01*
X49087Y-45310D01*
X48912Y-45309D01*
X48751Y-45376D01*
X48627Y-45500D01*
X48560Y-45662D01*
X48559Y-45837D01*
X48626Y-45998D01*
X48750Y-46122D01*
X48912Y-46189D01*
X49072Y-46190D01*
X49344Y-46462D01*
X49344Y-46472D01*
X49249Y-46377D01*
X49087Y-46310D01*
X48912Y-46309D01*
X48751Y-46376D01*
X48627Y-46500D01*
X48560Y-46662D01*
X48559Y-46837D01*
X48626Y-46998D01*
X48750Y-47122D01*
X48912Y-47189D01*
X49087Y-47190D01*
X49248Y-47123D01*
X49344Y-47027D01*
X49344Y-47141D01*
X49364Y-47241D01*
X49420Y-47325D01*
X51312Y-49217D01*
X50834Y-49217D01*
X49439Y-47822D01*
X49440Y-47662D01*
X49373Y-47501D01*
X49249Y-47377D01*
X49087Y-47310D01*
X48912Y-47309D01*
X48751Y-47376D01*
X48627Y-47500D01*
X48560Y-47662D01*
X48559Y-47837D01*
X48626Y-47998D01*
X48750Y-48122D01*
X48912Y-48189D01*
X49072Y-48190D01*
X50467Y-49584D01*
X50318Y-49584D01*
X49982Y-49723D01*
X49724Y-49981D01*
X49585Y-50317D01*
X49584Y-50681D01*
X49723Y-51017D01*
X49981Y-51275D01*
X50124Y-51335D01*
X48546Y-51335D01*
X48546Y-47319D01*
X48546Y-46319D01*
X48546Y-45319D01*
X48546Y-44319D01*
X48531Y-44105D01*
X48478Y-43976D01*
X48386Y-43948D01*
X48301Y-44032D01*
X48301Y-43863D01*
X48273Y-43771D01*
X48069Y-43703D01*
X47855Y-43718D01*
X47726Y-43771D01*
X47698Y-43863D01*
X48000Y-44165D01*
X48301Y-43863D01*
X48301Y-44032D01*
X48084Y-44250D01*
X48386Y-44551D01*
X48478Y-44523D01*
X48546Y-44319D01*
X48546Y-45319D01*
X48531Y-45105D01*
X48478Y-44976D01*
X48386Y-44948D01*
X48301Y-45032D01*
X48301Y-44863D01*
X48273Y-44771D01*
X48214Y-44752D01*
X48273Y-44728D01*
X48301Y-44636D01*
X48000Y-44334D01*
X47915Y-44419D01*
X47915Y-44250D01*
X47613Y-43948D01*
X47521Y-43976D01*
X47453Y-44180D01*
X47468Y-44394D01*
X47521Y-44523D01*
X47613Y-44551D01*
X47915Y-44250D01*
X47915Y-44419D01*
X47698Y-44636D01*
X47726Y-44728D01*
X47785Y-44747D01*
X47726Y-44771D01*
X47698Y-44863D01*
X48000Y-45165D01*
X48301Y-44863D01*
X48301Y-45032D01*
X48084Y-45250D01*
X48386Y-45551D01*
X48478Y-45523D01*
X48546Y-45319D01*
X48546Y-46319D01*
X48531Y-46105D01*
X48478Y-45976D01*
X48386Y-45948D01*
X48301Y-46032D01*
X48301Y-45863D01*
X48273Y-45771D01*
X48214Y-45752D01*
X48273Y-45728D01*
X48301Y-45636D01*
X48000Y-45334D01*
X47915Y-45419D01*
X47915Y-45250D01*
X47613Y-44948D01*
X47521Y-44976D01*
X47453Y-45180D01*
X47468Y-45394D01*
X47521Y-45523D01*
X47613Y-45551D01*
X47915Y-45250D01*
X47915Y-45419D01*
X47698Y-45636D01*
X47726Y-45728D01*
X47785Y-45747D01*
X47726Y-45771D01*
X47698Y-45863D01*
X48000Y-46165D01*
X48301Y-45863D01*
X48301Y-46032D01*
X48084Y-46250D01*
X48386Y-46551D01*
X48478Y-46523D01*
X48546Y-46319D01*
X48546Y-47319D01*
X48531Y-47105D01*
X48478Y-46976D01*
X48386Y-46948D01*
X48301Y-47032D01*
X48301Y-46863D01*
X48273Y-46771D01*
X48214Y-46752D01*
X48273Y-46728D01*
X48301Y-46636D01*
X48000Y-46334D01*
X47915Y-46419D01*
X47915Y-46250D01*
X47613Y-45948D01*
X47521Y-45976D01*
X47453Y-46180D01*
X47468Y-46394D01*
X47521Y-46523D01*
X47613Y-46551D01*
X47915Y-46250D01*
X47915Y-46419D01*
X47698Y-46636D01*
X47726Y-46728D01*
X47785Y-46747D01*
X47726Y-46771D01*
X47698Y-46863D01*
X48000Y-47165D01*
X48301Y-46863D01*
X48301Y-47032D01*
X48084Y-47250D01*
X48386Y-47551D01*
X48478Y-47523D01*
X48546Y-47319D01*
X48546Y-51335D01*
X48301Y-51335D01*
X48301Y-47636D01*
X48000Y-47334D01*
X47915Y-47419D01*
X47915Y-47250D01*
X47613Y-46948D01*
X47521Y-46976D01*
X47453Y-47180D01*
X47468Y-47394D01*
X47521Y-47523D01*
X47613Y-47551D01*
X47915Y-47250D01*
X47915Y-47419D01*
X47698Y-47636D01*
X47726Y-47728D01*
X47930Y-47796D01*
X48144Y-47781D01*
X48273Y-47728D01*
X48301Y-47636D01*
X48301Y-51335D01*
X46840Y-51335D01*
X46840Y-48612D01*
X46840Y-47612D01*
X46840Y-44212D01*
X46840Y-43212D01*
X46840Y-38612D01*
X46840Y-37612D01*
X46840Y-34212D01*
X46840Y-33212D01*
X46773Y-33051D01*
X46649Y-32927D01*
X46487Y-32860D01*
X46312Y-32859D01*
X46151Y-32926D01*
X46027Y-33050D01*
X45960Y-33212D01*
X45959Y-33387D01*
X46026Y-33548D01*
X46150Y-33672D01*
X46312Y-33739D01*
X46487Y-33740D01*
X46648Y-33673D01*
X46772Y-33549D01*
X46839Y-33387D01*
X46840Y-33212D01*
X46840Y-34212D01*
X46773Y-34051D01*
X46649Y-33927D01*
X46487Y-33860D01*
X46312Y-33859D01*
X46151Y-33926D01*
X46027Y-34050D01*
X45960Y-34212D01*
X45959Y-34387D01*
X46026Y-34548D01*
X46150Y-34672D01*
X46312Y-34739D01*
X46487Y-34740D01*
X46648Y-34673D01*
X46772Y-34549D01*
X46839Y-34387D01*
X46840Y-34212D01*
X46840Y-37612D01*
X46773Y-37451D01*
X46649Y-37327D01*
X46487Y-37260D01*
X46312Y-37259D01*
X46151Y-37326D01*
X46027Y-37450D01*
X45960Y-37612D01*
X45959Y-37787D01*
X46026Y-37948D01*
X46150Y-38072D01*
X46312Y-38139D01*
X46487Y-38140D01*
X46648Y-38073D01*
X46772Y-37949D01*
X46839Y-37787D01*
X46840Y-37612D01*
X46840Y-38612D01*
X46773Y-38451D01*
X46649Y-38327D01*
X46487Y-38260D01*
X46312Y-38259D01*
X46151Y-38326D01*
X46027Y-38450D01*
X45960Y-38612D01*
X45959Y-38787D01*
X46026Y-38948D01*
X46150Y-39072D01*
X46312Y-39139D01*
X46487Y-39140D01*
X46648Y-39073D01*
X46772Y-38949D01*
X46839Y-38787D01*
X46840Y-38612D01*
X46840Y-43212D01*
X46773Y-43051D01*
X46649Y-42927D01*
X46487Y-42860D01*
X46312Y-42859D01*
X46151Y-42926D01*
X46027Y-43050D01*
X45960Y-43212D01*
X45959Y-43387D01*
X46026Y-43548D01*
X46150Y-43672D01*
X46312Y-43739D01*
X46487Y-43740D01*
X46648Y-43673D01*
X46772Y-43549D01*
X46839Y-43387D01*
X46840Y-43212D01*
X46840Y-44212D01*
X46773Y-44051D01*
X46649Y-43927D01*
X46487Y-43860D01*
X46312Y-43859D01*
X46151Y-43926D01*
X46027Y-44050D01*
X45960Y-44212D01*
X45959Y-44387D01*
X46026Y-44548D01*
X46150Y-44672D01*
X46312Y-44739D01*
X46487Y-44740D01*
X46648Y-44673D01*
X46772Y-44549D01*
X46839Y-44387D01*
X46840Y-44212D01*
X46840Y-47612D01*
X46773Y-47451D01*
X46649Y-47327D01*
X46487Y-47260D01*
X46312Y-47259D01*
X46151Y-47326D01*
X46027Y-47450D01*
X45960Y-47612D01*
X45959Y-47787D01*
X46026Y-47948D01*
X46150Y-48072D01*
X46312Y-48139D01*
X46487Y-48140D01*
X46648Y-48073D01*
X46772Y-47949D01*
X46839Y-47787D01*
X46840Y-47612D01*
X46840Y-48612D01*
X46773Y-48451D01*
X46649Y-48327D01*
X46487Y-48260D01*
X46312Y-48259D01*
X46151Y-48326D01*
X46027Y-48450D01*
X45960Y-48612D01*
X45959Y-48787D01*
X46026Y-48948D01*
X46150Y-49072D01*
X46312Y-49139D01*
X46487Y-49140D01*
X46648Y-49073D01*
X46772Y-48949D01*
X46839Y-48787D01*
X46840Y-48612D01*
X46840Y-51335D01*
X45640Y-51335D01*
X45640Y-48323D01*
X45640Y-43323D01*
X45640Y-38323D01*
X45640Y-33323D01*
X45504Y-32996D01*
X45254Y-32745D01*
X44927Y-32610D01*
X44573Y-32609D01*
X44246Y-32745D01*
X43995Y-32995D01*
X43860Y-33322D01*
X43859Y-33676D01*
X43995Y-34003D01*
X44245Y-34254D01*
X44572Y-34389D01*
X44926Y-34390D01*
X45253Y-34254D01*
X45504Y-34004D01*
X45639Y-33677D01*
X45640Y-33323D01*
X45640Y-38323D01*
X45504Y-37996D01*
X45254Y-37745D01*
X44927Y-37610D01*
X44573Y-37609D01*
X44246Y-37745D01*
X43995Y-37995D01*
X43860Y-38322D01*
X43859Y-38676D01*
X43995Y-39003D01*
X44245Y-39254D01*
X44572Y-39389D01*
X44926Y-39390D01*
X45253Y-39254D01*
X45504Y-39004D01*
X45639Y-38677D01*
X45640Y-38323D01*
X45640Y-43323D01*
X45504Y-42996D01*
X45254Y-42745D01*
X44927Y-42610D01*
X44573Y-42609D01*
X44246Y-42745D01*
X43995Y-42995D01*
X43860Y-43322D01*
X43859Y-43676D01*
X43995Y-44003D01*
X44245Y-44254D01*
X44572Y-44389D01*
X44926Y-44390D01*
X45253Y-44254D01*
X45504Y-44004D01*
X45639Y-43677D01*
X45640Y-43323D01*
X45640Y-48323D01*
X45504Y-47996D01*
X45254Y-47745D01*
X44927Y-47610D01*
X44573Y-47609D01*
X44246Y-47745D01*
X43995Y-47995D01*
X43860Y-48322D01*
X43859Y-48676D01*
X43995Y-49003D01*
X44245Y-49254D01*
X44572Y-49389D01*
X44926Y-49390D01*
X45253Y-49254D01*
X45504Y-49004D01*
X45639Y-48677D01*
X45640Y-48323D01*
X45640Y-51335D01*
X43665Y-51335D01*
X43665Y-30665D01*
X50624Y-30665D01*
X50482Y-30723D01*
X50224Y-30981D01*
X50085Y-31317D01*
X50084Y-31681D01*
X50223Y-32017D01*
X50481Y-32275D01*
X50817Y-32414D01*
X51181Y-32415D01*
X51517Y-32276D01*
X51775Y-32018D01*
X51914Y-31682D01*
X51915Y-31318D01*
X51776Y-30982D01*
X51518Y-30724D01*
X51375Y-30665D01*
X80124Y-30665D01*
X79982Y-30723D01*
X79724Y-30981D01*
X79585Y-31317D01*
X79584Y-31681D01*
X79723Y-32017D01*
X79981Y-32275D01*
X80317Y-32414D01*
X80681Y-32415D01*
X81017Y-32276D01*
X81275Y-32018D01*
X81414Y-31682D01*
X81415Y-31318D01*
X81276Y-30982D01*
X81018Y-30724D01*
X80875Y-30665D01*
X89335Y-30665D01*
X89335Y-51335D01*
M02*
