G04 (created by PCBNEW (2013-jul-07)-stable) date Wed 20 Aug 2014 03:54:36 PM EDT*
%MOIN*%
G04 Gerber Fmt 3.4, Leading zero omitted, Abs format*
%FSLAX34Y34*%
G01*
G70*
G90*
G04 APERTURE LIST*
%ADD10C,0.00590551*%
%ADD11C,0.009*%
%ADD12C,0.175*%
%ADD13O,0.08X0.12*%
%ADD14C,0.08*%
%ADD15C,0.096*%
%ADD16C,0.16*%
%ADD17C,0.18*%
%ADD18R,0.07X0.12*%
%ADD19R,0.12X0.07*%
%ADD20R,0.035X0.07*%
%ADD21C,0.17*%
G04 APERTURE END LIST*
G54D10*
G54D11*
X89500Y-51500D02*
X43500Y-51500D01*
X43500Y-30500D02*
X89500Y-30500D01*
X43500Y-30500D02*
X43500Y-51500D01*
X89500Y-51500D02*
X89500Y-30500D01*
G54D12*
X50500Y-50500D03*
X51000Y-31500D03*
X83000Y-50500D03*
X80500Y-31500D03*
G54D13*
X56000Y-50500D03*
X57000Y-50500D03*
X58000Y-50500D03*
X59000Y-50500D03*
X60000Y-50500D03*
X61000Y-50500D03*
X62000Y-50500D03*
X63000Y-50500D03*
X65000Y-50500D03*
X66000Y-50500D03*
X67000Y-50500D03*
X68000Y-50500D03*
X69000Y-50500D03*
X70000Y-50500D03*
X71000Y-50500D03*
X72000Y-50500D03*
X74000Y-50500D03*
X75000Y-50500D03*
X76000Y-50500D03*
X77000Y-50500D03*
X78000Y-50500D03*
X79000Y-50500D03*
X80000Y-50500D03*
X81000Y-50500D03*
X52400Y-31500D03*
X53400Y-31500D03*
X54400Y-31500D03*
X55400Y-31500D03*
X56400Y-31500D03*
X57400Y-31500D03*
X58400Y-31500D03*
X59400Y-31500D03*
X60400Y-31500D03*
X61400Y-31500D03*
X63000Y-31500D03*
X70000Y-31500D03*
X69000Y-31500D03*
X68000Y-31500D03*
X67000Y-31500D03*
X66000Y-31500D03*
X65000Y-31500D03*
X64000Y-31500D03*
X72000Y-31500D03*
X73000Y-31500D03*
X74000Y-31500D03*
X75000Y-31500D03*
X76000Y-31500D03*
X77000Y-31500D03*
X78000Y-31500D03*
X79000Y-31500D03*
G54D14*
X82000Y-31500D03*
X83000Y-31500D03*
X82000Y-32500D03*
X83000Y-32500D03*
X82000Y-33500D03*
X83000Y-33500D03*
X82000Y-34500D03*
X83000Y-34500D03*
X82000Y-35500D03*
X83000Y-35500D03*
X82000Y-36500D03*
X83000Y-36500D03*
X82000Y-37500D03*
X83000Y-37500D03*
X82000Y-38500D03*
X83000Y-38500D03*
X82000Y-39500D03*
X83000Y-39500D03*
X82000Y-40500D03*
X83000Y-40500D03*
X82000Y-41500D03*
X83000Y-41500D03*
X82000Y-42500D03*
X83000Y-42500D03*
X82000Y-43500D03*
X83000Y-43500D03*
X82000Y-44500D03*
X83000Y-44500D03*
X82000Y-45500D03*
X83000Y-45500D03*
X82000Y-46500D03*
X83000Y-46500D03*
X82000Y-47500D03*
X83000Y-47500D03*
X82000Y-48500D03*
X83000Y-48500D03*
G54D15*
X88320Y-41000D03*
G54D16*
X87140Y-41000D03*
G54D17*
X84780Y-41000D03*
G54D16*
X87530Y-39230D03*
X87530Y-42770D03*
G54D18*
X84650Y-43250D03*
X85850Y-43250D03*
G54D19*
X70000Y-34150D03*
X70000Y-35350D03*
X70000Y-42900D03*
X70000Y-44100D03*
G54D20*
X65750Y-36750D03*
X66250Y-36750D03*
X66750Y-36750D03*
X67250Y-36750D03*
X67750Y-36750D03*
X68250Y-36750D03*
X65250Y-36750D03*
X64750Y-36750D03*
X64250Y-36750D03*
X63750Y-36750D03*
X63250Y-36750D03*
X62750Y-36750D03*
X62750Y-32750D03*
X63250Y-32750D03*
X63750Y-32750D03*
X64250Y-32750D03*
X64750Y-32750D03*
X65250Y-32750D03*
X65750Y-32750D03*
X66250Y-32750D03*
X66750Y-32750D03*
X67250Y-32750D03*
X67750Y-32750D03*
X68250Y-32750D03*
X65750Y-45500D03*
X66250Y-45500D03*
X66750Y-45500D03*
X67250Y-45500D03*
X67750Y-45500D03*
X68250Y-45500D03*
X65250Y-45500D03*
X64750Y-45500D03*
X64250Y-45500D03*
X63750Y-45500D03*
X63250Y-45500D03*
X62750Y-45500D03*
X62750Y-41500D03*
X63250Y-41500D03*
X63750Y-41500D03*
X64250Y-41500D03*
X64750Y-41500D03*
X65250Y-41500D03*
X65750Y-41500D03*
X66250Y-41500D03*
X66750Y-41500D03*
X67250Y-41500D03*
X67750Y-41500D03*
X68250Y-41500D03*
G54D21*
X44750Y-43500D03*
X44750Y-48500D03*
G54D14*
X46400Y-43300D03*
X46400Y-44300D03*
X46400Y-47700D03*
X46400Y-48700D03*
X48000Y-44250D03*
X48000Y-45250D03*
X48000Y-46250D03*
X48000Y-47250D03*
X49000Y-44750D03*
X49000Y-45750D03*
X49000Y-46750D03*
X49000Y-47750D03*
X50450Y-44250D03*
X50450Y-45250D03*
X51450Y-44750D03*
X51450Y-45750D03*
X50450Y-46250D03*
X51450Y-46750D03*
X50450Y-47250D03*
X51450Y-47750D03*
X53000Y-43300D03*
X53000Y-44300D03*
X53000Y-47700D03*
X53000Y-48700D03*
G54D21*
X44750Y-33500D03*
X44750Y-38500D03*
G54D14*
X46400Y-33300D03*
X46400Y-34300D03*
X46400Y-37700D03*
X46400Y-38700D03*
X48000Y-34250D03*
X48000Y-35250D03*
X48000Y-36250D03*
X48000Y-37250D03*
X49000Y-34750D03*
X49000Y-35750D03*
X49000Y-36750D03*
X49000Y-37750D03*
X50450Y-34250D03*
X50450Y-35250D03*
X51450Y-34750D03*
X51450Y-35750D03*
X50450Y-36250D03*
X51450Y-36750D03*
X50450Y-37250D03*
X51450Y-37750D03*
X53000Y-33300D03*
X53000Y-34300D03*
X53000Y-37700D03*
X53000Y-38700D03*
M02*
